<?xml version="1.0" encoding="utf-8"?>
<!-- Generator: Adobe Illustrator 13.0.2, SVG Export Plug-In . SVG Version: 6.00 Build 14948)  -->
<!DOCTYPE svg PUBLIC "-//W3C//DTD SVG 1.0//EN" "http://www.w3.org/TR/2001/REC-SVG-20010904/DTD/svg10.dtd">
<svg version="1.0"
	 id="svg1894" inkscape:output_extension="org.inkscape.output.svg.inkscape" xmlns:svg="http://www.w3.org/2000/svg" inkscape:version="0.46" xmlns:dc="http://purl.org/dc/elements/1.1/" sodipodi:version="0.32" xmlns:sodipodi="http://sodipodi.sourceforge.net/DTD/sodipodi-0.dtd" xmlns:inkscape="http://www.inkscape.org/namespaces/inkscape" xmlns:rdf="http://www.w3.org/1999/02/22-rdf-syntax-ns#" sodipodi:docname="Baritone_C_clef_with_ref.svg" xmlns:cc="http://creativecommons.org/ns#"
	 xmlns="http://www.w3.org/2000/svg" xmlns:xlink="http://www.w3.org/1999/xlink" x="0px" y="0px" width="511.475px"
	 height="511.475px" viewBox="148.104 343.104 511.475 511.475" enable-background="new 148.104 343.104 511.475 511.475"
	 xml:space="preserve">
<sodipodi:namedview  id="base" inkscape:current-layer="layer2" inkscape:window-y="24" inkscape:window-x="24" inkscape:cy="600" inkscape:cx="-101.48088" inkscape:zoom="0.38333333" showgrid="false" pagecolor="#ffffff" bordercolor="#666666" borderopacity="1.0" objecttolerance="10.0" gridtolerance="10.0" guidetolerance="10.0" inkscape:window-height="883" inkscape:pageshadow="2" inkscape:pageopacity="0.0" inkscape:window-width="1271">
	</sodipodi:namedview>
<defs>
	
	
		<inkscape:perspective  id="perspective24" inkscape:persp3d-origin="405 : 400 : 1" inkscape:vp_z="810 : 600 : 1" inkscape:vp_y="0 : 1000 : 0" inkscape:vp_x="0 : 600 : 1" sodipodi:type="inkscape:persp3d">
		</inkscape:perspective>
</defs>
<g id="layer1" sodipodi:insensitive="true" inkscape:label="staff" inkscape:groupmode="layer">
	<g id="g1934" transform="translate(19.223193,196.55764)">
		<path id="path11" fill="none" stroke="#131516" stroke-width="8.4321" d="M129.277,479.631h511.888"/>
		<path id="path13" fill="none" stroke="#131516" stroke-width="8.4321" d="M129.277,634.832h511.888"/>
		<path id="path15" fill="none" stroke="#131516" stroke-width="8.4321" d="M129.277,557.232h511.888"/>
		<path id="path17" fill="none" stroke="#131516" stroke-width="8.4321" d="M129.277,402.03h511.888"/>
		<path id="path19" fill="none" stroke="#131516" stroke-width="8.4321" d="M129.277,324.429h511.888"/>
	</g>
</g>
<g id="layer2" inkscape:label="clef" inkscape:groupmode="layer">
	<path id="path2432" fill="#131516" stroke="#131516" stroke-width="0.6" d="M200.501,673.473V375.73v-6.585h34.463v297.742v6.585
		H200.501z M252.325,673.473V375.73v-6.585h11.013v149.129c5.442-2.841,11.013-8.651,16.455-17.818
		c5.571-9.038,10.235-18.593,13.863-28.793c3.627-10.2,5.571-17.689,5.83-22.595c1.685,10.845,4.405,19.496,8.033,26.081
		c3.757,6.456,7.774,11.104,12.438,13.945c4.665,2.711,9.199,4.132,13.863,4.132c11.531,0,18.787-5.165,21.896-15.624
		c3.108-10.458,4.664-23.241,4.664-38.348c0-6.843-0.13-13.04-0.518-18.463c-0.389-5.423-1.167-10.976-2.592-16.527
		c-1.296-5.552-3.499-10.588-6.608-14.978c-3.238-4.39-7.384-7.489-12.567-9.039c-4.665-1.291-9.328-1.937-13.863-1.937
		c-4.146,0-7.644,0.775-10.365,2.195c-2.85,1.42-4.405,3.616-4.664,6.198c0.647,2.324,2.203,5.035,4.923,8.263
		c2.721,3.099,4.535,5.552,5.571,7.102c1.037,1.549,1.555,3.745,1.555,6.714c0,5.294-1.814,9.684-5.442,13.299
		c-3.627,3.616-8.421,5.552-14.511,5.552c-5.959,0-10.882-2.195-14.51-6.456c-3.628-4.39-5.571-9.555-5.831-15.365
		c0.519-7.876,3.369-14.719,8.422-20.4c5.182-5.552,11.531-9.813,19.175-12.653c7.645-2.841,15.289-4.261,23.062-4.261
		c8.81,0,17.231,1.55,25.264,4.648c8.163,3.099,15.418,7.748,21.637,13.686c6.349,6.069,11.401,13.429,15.03,22.208
		c3.627,8.651,5.441,18.593,5.441,29.567c0,15.236-2.85,27.889-8.421,37.831c-5.701,10.071-12.957,17.56-21.766,22.208
		c-8.939,4.648-18.398,7.23-28.375,7.488c-10.365-0.645-19.045-2.969-25.912-6.972l-13.733,22.208l13.733,22.079
		c9.458-3.873,18.786-5.811,27.856-5.811c11.53,0,21.507,3.357,30.188,9.813c8.551,6.585,15.159,14.977,19.693,25.436
		c4.405,10.458,6.737,21.175,6.737,32.279c0,12.137-2.721,23.499-8.161,33.957c-5.442,10.459-13.087,18.723-22.933,25.049
		c-9.977,6.198-21.249,9.297-34.075,9.297c-14.9-0.647-27.338-4.134-37.314-10.588c-9.976-6.327-14.899-15.881-14.899-28.405
		c0.518-6.069,2.721-10.717,6.607-14.203c3.888-3.616,8.033-5.423,12.568-5.81c5.441,0,10.365,1.936,14.641,5.81
		c4.275,3.745,6.478,8.521,6.478,14.203c0,2.195-0.518,4.261-1.554,6.197c-1.037,1.808-2.462,4.003-4.535,6.585
		c-2.073,2.452-3.498,4.261-4.276,5.423c-0.777,1.29-1.424,2.711-1.684,4.519c0,2.324,1.425,4.261,4.405,5.811
		c2.851,1.55,6.607,2.454,11.143,2.842c14.251-0.647,23.709-6.715,28.503-17.948c4.665-11.491,6.997-25.565,6.997-42.737
		c0-14.849-1.685-27.889-5.053-38.993c-3.368-11.233-10.624-16.785-22.025-16.785c-10.105,0-17.88,4.261-23.321,13.041
		c-5.442,8.651-8.94,18.851-10.495,30.601c-1.685-9.942-4.276-19.497-8.033-28.664c-3.758-9.297-8.033-17.431-13.086-24.403
		c-4.793-6.843-10.105-12.396-15.547-16.269v149.775H252.325z"/>
</g>
<g id="layer3" inkscape:label="notes" inkscape:groupmode="layer">
	
		<path id="path3276" sodipodi:ry="108.83295" sodipodi:rx="108.83295" sodipodi:cy="471.37259" sodipodi:cx="656.68701" sodipodi:type="arc" fill="#FFFFFF" d="
		M580.707,520.359c0.003,32.961-26.715,59.684-59.677,59.687c-32.962,0.001-59.684-26.718-59.686-59.679c0-0.003,0-0.005,0-0.008
		c-0.003-32.961,26.717-59.684,59.679-59.686c32.962-0.002,59.684,26.716,59.684,59.678
		C580.707,520.354,580.707,520.357,580.707,520.359z"/>
	<text transform="matrix(1 0 0 1 464.0215 554.2578)" font-family="'ArialMT'" font-size="93.1213">C4</text>
</g>
</svg>
