<?xml version="1.0" encoding="utf-8"?>
<!-- Generator: Adobe Illustrator 13.0.2, SVG Export Plug-In . SVG Version: 6.00 Build 14948)  -->
<!DOCTYPE svg PUBLIC "-//W3C//DTD SVG 1.0//EN" "http://www.w3.org/TR/2001/REC-SVG-20010904/DTD/svg10.dtd">
<svg version="1.0"
	 id="svg1894" inkscape:output_extension="org.inkscape.output.svg.inkscape" xmlns:svg="http://www.w3.org/2000/svg" inkscape:version="0.46" xmlns:dc="http://purl.org/dc/elements/1.1/" sodipodi:version="0.32" xmlns:sodipodi="http://sodipodi.sourceforge.net/DTD/sodipodi-0.dtd" xmlns:inkscape="http://www.inkscape.org/namespaces/inkscape" xmlns:rdf="http://www.w3.org/1999/02/22-rdf-syntax-ns#" sodipodi:docname="Tenor_clef_with_ref.svg" xmlns:cc="http://creativecommons.org/ns#"
	 xmlns="http://www.w3.org/2000/svg" xmlns:xlink="http://www.w3.org/1999/xlink" x="0px" y="0px" width="511.475px"
	 height="511.475px" viewBox="148.103 343.103 511.475 511.475" enable-background="new 148.103 343.103 511.475 511.475"
	 xml:space="preserve">
<sodipodi:namedview  id="base" inkscape:current-layer="layer3" inkscape:window-y="24" inkscape:window-x="24" inkscape:cy="600" inkscape:cx="154.92219" inkscape:zoom="0.5421152" showgrid="false" pagecolor="#ffffff" bordercolor="#666666" borderopacity="1.0" objecttolerance="10.0" gridtolerance="10.0" guidetolerance="10.0" inkscape:window-height="883" inkscape:pageshadow="2" inkscape:pageopacity="0.0" inkscape:window-width="1271">
	</sodipodi:namedview>
<defs>
	
	
		<inkscape:perspective  id="perspective24" inkscape:persp3d-origin="405 : 400 : 1" inkscape:vp_z="810 : 600 : 1" inkscape:vp_y="0 : 1000 : 0" inkscape:vp_x="0 : 600 : 1" sodipodi:type="inkscape:persp3d">
		</inkscape:perspective>
</defs>
<g id="layer1" sodipodi:insensitive="true" inkscape:label="staff" inkscape:groupmode="layer">
	<g id="g1934" transform="translate(19.223193,196.55764)">
		<path id="path11" fill="none" stroke="#131516" stroke-width="8.4321" d="M129.277,442.08h512"/>
		<path id="path13" fill="none" stroke="#131516" stroke-width="8.4321" d="M129.277,597.316h512"/>
		<path id="path15" fill="none" stroke="#131516" stroke-width="8.4321" d="M129.277,519.698h512"/>
		<path id="path17" fill="none" stroke="#131516" stroke-width="8.4321" d="M129.277,364.462h512"/>
		<path id="path19" fill="none" stroke="#131516" stroke-width="8.4321" d="M129.277,286.844h512"/>
	</g>
</g>
<g id="layer2" sodipodi:insensitive="true" inkscape:label="clef" inkscape:groupmode="layer">
	<path id="path2432" fill="#131516" stroke="#131516" stroke-width="0.6" d="M200.512,713.54V415.732v-6.586h34.471v297.807v6.588
		H200.512z M252.348,713.54V415.732v-6.586h11.015v149.162c5.443-2.842,11.016-8.653,16.458-17.822
		c5.572-9.041,10.238-18.596,13.866-28.8c3.629-10.202,5.573-17.692,5.833-22.599c1.684,10.848,4.406,19.5,8.034,26.086
		c3.758,6.458,7.775,11.106,12.441,13.948c4.665,2.712,9.201,4.132,13.866,4.132c11.534,0,18.791-5.166,21.901-15.625
		c3.11-10.461,4.665-23.247,4.665-38.357c0-6.844-0.129-13.043-0.517-18.467c-0.39-5.424-1.167-10.977-2.592-16.531
		c-1.296-5.553-3.5-10.589-6.61-14.98c-3.24-4.391-7.386-7.491-12.569-9.041c-4.666-1.292-9.331-1.937-13.867-1.937
		c-4.146,0-7.646,0.775-10.367,2.196c-2.851,1.42-4.407,3.616-4.666,6.199c0.648,2.324,2.204,5.036,4.925,8.265
		c2.721,3.1,4.536,5.553,5.572,7.103c1.037,1.55,1.555,3.746,1.555,6.716c0,5.295-1.814,9.686-5.442,13.302
		c-3.629,3.616-8.423,5.553-14.514,5.553c-5.961,0-10.885-2.196-14.514-6.458c-3.629-4.391-5.573-9.557-5.832-15.368
		c0.519-7.878,3.37-14.723,8.423-20.404c5.184-5.553,11.534-9.815,19.179-12.657c7.646-2.841,15.292-4.262,23.067-4.262
		c8.812,0,17.235,1.549,25.27,4.649c8.165,3.1,15.421,7.749,21.642,13.689c6.35,6.07,11.404,13.431,15.033,22.213
		c3.628,8.653,5.442,18.597,5.442,29.574c0,15.239-2.85,27.895-8.423,37.839c-5.702,10.073-12.959,17.563-21.771,22.213
		c-8.941,4.65-18.402,7.231-28.38,7.49c-10.367-0.646-19.05-2.971-25.918-6.974l-13.736,22.212l13.736,22.085
		c9.46-3.875,18.791-5.812,27.862-5.812c11.533,0,21.513,3.357,30.194,9.815c8.554,6.586,15.163,14.98,19.698,25.441
		c4.407,10.461,6.738,21.18,6.738,32.285c0,12.141-2.721,23.505-8.163,33.965c-5.443,10.461-13.089,18.728-22.938,25.055
		c-9.978,6.199-21.253,9.3-34.082,9.3c-14.902-0.647-27.343-4.134-37.322-10.591c-9.978-6.328-14.902-15.886-14.902-28.412
		c0.518-6.069,2.722-10.72,6.609-14.205c3.888-3.617,8.035-5.425,12.57-5.812c5.442,0,10.367,1.937,14.644,5.812
		c4.277,3.744,6.48,8.523,6.48,14.205c0,2.196-0.519,4.262-1.555,6.199c-1.037,1.809-2.462,4.003-4.536,6.586
		c-2.074,2.454-3.5,4.262-4.277,5.425c-0.777,1.291-1.425,2.711-1.685,4.521c0,2.324,1.425,4.26,4.406,5.811
		c2.851,1.55,6.609,2.454,11.145,2.841c14.254-0.646,23.714-6.716,28.509-17.951c4.666-11.493,6.999-25.57,6.999-42.747
		c0-14.85-1.685-27.895-5.054-39c-3.369-11.236-10.626-16.79-22.03-16.79c-10.108,0-17.883,4.262-23.326,13.044
		c-5.443,8.652-8.941,18.855-10.497,30.606c-1.685-9.943-4.277-19.501-8.035-28.669c-3.758-9.298-8.034-17.435-13.089-24.409
		c-4.795-6.845-10.107-12.397-15.551-16.272v149.81H252.348z"/>
</g>
<g id="layer3" inkscape:label="notes" inkscape:groupmode="layer">
	
		<path id="path2498" sodipodi:ry="69.173492" sodipodi:rx="69.173492" sodipodi:cy="452.004" sodipodi:cx="594.89203" sodipodi:type="arc" fill="#FFFFFF" stroke="#000000" stroke-width="0.5" d="
		M562.868,547.864L562.868,547.864L562.868,547.864z"/>
	
		<path id="path3276" sodipodi:ry="108.83295" sodipodi:rx="108.83295" sodipodi:cy="471.37259" sodipodi:cx="656.68701" sodipodi:type="arc" fill="#FFFFFF" d="
		M580.805,560.394c0.001,32.967-26.725,59.696-59.691,59.698c-32.97,0.002-59.697-26.723-59.7-59.692c0-0.002,0-0.004,0-0.006
		c-0.001-32.969,26.723-59.698,59.691-59.7c32.97-0.002,59.697,26.723,59.7,59.691C580.805,560.388,580.805,560.391,580.805,560.394
		z"/>
	<text transform="matrix(1 0 0 1 464.0889 594.2969)" font-family="'ArialMT'" font-size="93.1418">C4</text>
</g>
</svg>
