<?xml version="1.0" encoding="utf-8"?>
<!-- Generator: Adobe Illustrator 15.0.0, SVG Export Plug-In . SVG Version: 6.00 Build 0)  -->
<!DOCTYPE svg PUBLIC "-//W3C//DTD SVG 1.1//EN" "http://www.w3.org/Graphics/SVG/1.1/DTD/svg11.dtd">
<svg version="1.1" id="Layer_1" xmlns="http://www.w3.org/2000/svg" xmlns:xlink="http://www.w3.org/1999/xlink" x="0px" y="0px"
	 width="500px" height="270px" viewBox="0 0 500 270" enable-background="new 0 0 500 270" xml:space="preserve">
<g id="Layer_1_1_">
</g>
<path d="M10.499,111.123v-1.044h462.473v1.044H10.499z M10.499,125.125v-1.153h462.473v1.153H10.499z M10.499,139.02v-1.043h462.473
	v1.043H10.499z M10.499,152.914v-1.044h462.473v1.044H10.499z M10.499,166.809v-1.041h462.473v1.041H10.499z"/>
<g>
	<path fill="#F7E608" d="M384.706,102.68c4.667,0.055,7.249,3.239,5.766,7.139c-1.428,3.957-6.371,7.088-10.981,7.029
		c-4.612-0.055-7.19-3.296-5.71-7.191C375.203,105.757,380.093,102.623,384.706,102.68z"/>
	<g>
		<path d="M390.069,180.08l1.021-2.157h0.938l0.428,8.981h-1.019c-0.666-2.541-1.495-4.416-2.498-5.62
			c-1.247-1.511-2.729-2.263-4.456-2.263c-1.867,0-3.389,0.836-4.562,2.509c-1.176,1.672-1.758,4.503-1.758,8.493
			c0,3.354,0.676,5.912,2.018,7.679c1.146,1.491,2.754,2.235,4.822,2.235c1.811,0,3.324-0.58,4.549-1.742
			c1.225-1.161,2.023-2.913,2.396-5.258h1.072c-0.312,2.65-1.221,4.688-2.729,6.119c-1.509,1.428-3.409,2.139-5.698,2.139
			c-1.859,0-3.564-0.467-5.117-1.401c-1.549-0.937-2.795-2.278-3.723-4.034c-0.932-1.757-1.396-3.681-1.396-5.769
			c0-2.222,0.479-4.308,1.438-6.259c0.961-1.948,2.188-3.414,3.686-4.397c1.492-0.979,3.105-1.468,4.835-1.468
			c0.964,0,1.896,0.169,2.8,0.502C388.024,178.701,389.007,179.277,390.069,180.08z"/>
	</g>
</g>
<g>
	<path fill="#009010" d="M413.879,96c4.669,0.055,7.25,3.242,5.77,7.141c-1.431,3.955-6.371,7.086-10.984,7.028
		c-4.612-0.052-7.191-3.296-5.712-7.19C404.378,99.076,409.268,95.947,413.879,96z"/>
	<g>
		<path d="M403.949,178.887h11.521c1.709,0,3.163,0.303,4.358,0.905c1.488,0.763,2.752,2.036,3.793,3.815
			c1.039,1.781,1.562,3.887,1.562,6.316c0,2.016-0.312,3.825-0.936,5.438c-0.473,1.238-1.199,2.32-2.18,3.244
			c-0.981,0.924-2.176,1.617-3.582,2.082c-1.059,0.34-2.465,0.512-4.227,0.512h-10.314v-1.126h2.118c0.534,0,0.902-0.085,1.11-0.253
			c0.208-0.174,0.312-0.439,0.312-0.803v-17.979c0-0.312-0.11-0.562-0.332-0.748c-0.228-0.187-0.531-0.276-0.923-0.276h-2.286
			v-1.127H403.949z M412.009,180.016c-0.454,0-0.788,0.096-1.006,0.287c-0.216,0.188-0.323,0.479-0.323,0.859v17.811
			c0,0.36,0.125,0.637,0.377,0.819c0.251,0.187,0.684,0.28,1.284,0.28h1.904c1.703,0,3.188-0.438,4.471-1.312
			c0.836-0.584,1.47-1.404,1.904-2.463c0.593-1.428,0.892-3.398,0.892-5.915c0-3.724-0.647-6.45-1.949-8.18
			c-1.106-1.461-2.778-2.188-5.017-2.188h-2.537V180.016z"/>
	</g>
</g>
<g>
	<path fill="#8F00FF" d="M262.892,130.641c4.669,0.055,7.25,3.242,5.767,7.141c-1.428,3.954-6.371,7.084-10.984,7.028
		c-4.61-0.055-7.191-3.295-5.711-7.189C253.389,133.717,258.279,130.587,262.892,130.641z"/>
	<g>
		<path d="M251.297,178.369h18.154l0.297,7.723h-1.047c-0.466-2.652-1.115-4.387-1.951-5.189c-0.957-0.938-2.324-1.396-4.099-1.396
			h-3.584c-0.354,0-0.606,0.082-0.771,0.248c-0.161,0.166-0.242,0.414-0.242,0.748v8.043h1.919c1.067,0,1.919-0.354,2.552-1.059
			c0.635-0.705,0.977-1.789,1.027-3.26h1.1v10.082h-1.1c-0.07-1.668-0.412-2.854-1.027-3.568c-0.613-0.713-1.466-1.066-2.552-1.066
			h-1.919v8.521c0,0.504,0.121,0.857,0.361,1.062c0.242,0.209,0.66,0.312,1.254,0.312h2.324v1.123h-10.697v-1.127h2.287
			c0.461,0,0.791-0.092,0.983-0.275c0.196-0.188,0.293-0.494,0.293-0.914v-17.758c0-0.398-0.103-0.688-0.31-0.857
			c-0.205-0.174-0.563-0.256-1.075-0.256h-2.181L251.297,178.369L251.297,178.369z"/>
	</g>
</g>
<g>
	<path fill="#009010" d="M201.596,145c4.669,0.055,7.25,3.242,5.768,7.141c-1.429,3.955-6.371,7.086-10.984,7.028
		c-4.612-0.052-7.193-3.296-5.712-7.19C192.095,148.076,196.984,144.947,201.596,145z"/>
	<g>
		<path d="M188.569,178.887h11.524c1.709,0,3.163,0.303,4.358,0.905c1.488,0.763,2.752,2.036,3.793,3.815
			c1.039,1.781,1.562,3.887,1.562,6.316c0,2.016-0.312,3.825-0.936,5.438c-0.473,1.238-1.199,2.32-2.18,3.244
			s-2.175,1.617-3.582,2.082c-1.057,0.34-2.464,0.512-4.225,0.512h-10.316v-1.126h2.117c0.537,0,0.905-0.085,1.113-0.253
			c0.208-0.174,0.31-0.439,0.31-0.803v-17.979c0-0.312-0.11-0.562-0.332-0.748c-0.225-0.187-0.531-0.276-0.923-0.276h-2.285v-1.127
			H188.569z M196.629,180.016c-0.454,0-0.788,0.096-1.006,0.287c-0.216,0.188-0.323,0.479-0.323,0.859v17.811
			c0,0.36,0.125,0.637,0.377,0.819c0.251,0.187,0.681,0.28,1.284,0.28h1.904c1.703,0,3.191-0.438,4.471-1.312
			c0.836-0.584,1.47-1.404,1.904-2.463c0.593-1.428,0.892-3.398,0.892-5.915c0-3.724-0.649-6.45-1.949-8.18
			c-1.108-1.461-2.781-2.188-5.017-2.188h-2.537V180.016z"/>
	</g>
</g>
<g id="Layer_2">
</g>
<g id="Layer_3">
	<g id="layer1_2_">
		<g id="g2972_2_" transform="matrix(1,0,0,1.030698,-309.364,-543.8647)">
			<path id="path2974_2_" d="M379.227,654.643c-0.357,5.55-3.457,11.207-8.833,13.276c-4.607,1.704-10.416,1.961-14.419-1.281
				c-2.996-2.217-4.142-7.26-1.007-9.867c2.994-2.837,8.753-0.278,8.407,3.894c1.176,2.865-4.911,4.628-1.711,6.63
				c3.681,0.96,7.434-2.048,8.379-5.54c1.374-5.016,1.299-10.427,0.096-15.469c-0.646-2.483-2.182-6.347-5.465-5.342
				c-4.297,1-6.708,5.246-8.061,9.105c-0.783-5.472-4.223-10.203-8.179-13.893c0,10.99,0,21.981,0,32.966l-2.461,0.016
				c0-22.588,0-45.631,0-68.216l2.461-0.001c0,10.834,0,22.116,0,32.95c3.923-3.635,7.378-8.289,8.12-13.715
				c1.417,4.047,4.161,8.514,8.793,9.143c3.407,0.187,4.382-3.966,5.061-6.556c0.893-4.891,0.989-10.089-0.561-14.855
				c-1.107-3.354-4.75-6.097-8.341-5.198c-2.903,2.115,2.821,3.644,1.854,6.368c0.618,3.916-4.227,6.976-7.565,4.945
				c-3.617-1.978-3.353-7.309-0.566-9.884c1.897-1.959,5.507-3.226,8.15-3.204c2.698,0.021,4.272,0.221,6.687,1.063
				c5.404,1.927,8.671,7.482,9.116,13.019c0.813,6.277-2.698,13.126-8.613,15.607c-3.849,1.491-8.3,0.2-11.25-2.538
				c-0.482,2.749-1.708,5.368-3.224,7.267c1.226,1.999,2.551,5.213,3.227,6.312c3.695-3.365,10.223-3.769,14.069-0.435
				C377.306,644.428,379.749,649.542,379.227,654.643z"/>
		</g>
		<g id="g2976_2_" transform="matrix(1,0,0,1.030928,-309.364,-543.9805)">
			<path id="path2978_2_" d="M340.698,669.119h-8v-68.223h8V669.119z"/>
		</g>
	</g>
</g>
<g>
	<path fill="#FFAA00" d="M354.34,110.357c4.668,0.053,7.25,3.238,5.764,7.137c-1.43,3.957-6.369,7.086-10.98,7.031
		s-7.191-3.295-5.711-7.195C344.84,113.432,349.723,110.3,354.34,110.357z"/>
	<g>
		<path d="M342.576,178.13h11.613c2.279,0,4.025,0.504,5.236,1.509c1.211,1.006,1.812,2.268,1.812,3.782
			c0,1.267-0.422,2.34-1.266,3.226c-0.846,0.887-2.113,1.582-3.814,2.097c2.105,0.44,3.684,1.141,4.736,2.093
			c1.051,0.952,1.578,2.15,1.578,3.604c0,1.105-0.301,2.09-0.896,2.94c-0.598,0.854-1.594,1.581-2.98,2.177
			c-1.395,0.598-2.969,0.895-4.74,0.895H342.58v-1.127h1.84c0.553,0,0.959-0.092,1.213-0.271s0.383-0.389,0.383-0.615v-17.887
			c0-0.424-0.123-0.744-0.377-0.959c-0.25-0.219-0.613-0.324-1.102-0.324h-1.961V178.13L342.576,178.13z M349.199,188.373h4.236
			c1.303,0,2.336-0.38,3.109-1.141c0.77-0.76,1.154-2.01,1.154-3.741c0-1.07-0.184-1.906-0.549-2.507
			c-0.369-0.604-0.898-1.039-1.605-1.317c-0.699-0.272-1.91-0.41-3.639-0.41c-1.221,0-1.975,0.086-2.27,0.261
			c-0.291,0.178-0.438,0.481-0.438,0.926v7.933V188.373L349.199,188.373z M349.199,189.5v8.607c0,0.401,0.117,0.703,0.355,0.903
			c0.236,0.201,0.664,0.304,1.275,0.304h2.707c1.793,0,3.113-0.394,3.973-1.185s1.281-2.021,1.281-3.69
			c0-1.528-0.439-2.733-1.322-3.614c-0.893-0.882-2.111-1.322-3.678-1.322L349.199,189.5L349.199,189.5z"/>
	</g>
</g>
<g>
	<path fill="#FFAA00" d="M141.641,159.358c4.668,0.053,7.25,3.236,5.764,7.137c-1.43,3.957-6.368,7.086-10.979,7.031
		c-4.613-0.057-7.193-3.295-5.712-7.195C132.14,162.432,137.024,159.3,141.641,159.358z"/>
	<g>
		<path d="M127.877,178.13h11.614c2.279,0,4.025,0.504,5.235,1.509c1.211,1.006,1.814,2.268,1.814,3.782
			c0,1.267-0.422,2.34-1.265,3.226c-0.845,0.887-2.114,1.582-3.815,2.097c2.106,0.44,3.682,1.141,4.737,2.093
			c1.05,0.952,1.579,2.15,1.579,3.604c0,1.105-0.302,2.09-0.896,2.94c-0.599,0.854-1.594,1.581-2.981,2.177
			c-1.394,0.598-2.97,0.895-4.742,0.895h-11.274v-1.127h1.838c0.553,0,0.96-0.092,1.213-0.271c0.255-0.18,0.384-0.389,0.384-0.615
			v-17.887c0-0.424-0.124-0.744-0.377-0.959c-0.25-0.219-0.614-0.324-1.101-0.324h-1.961L127.877,178.13L127.877,178.13z
			 M134.5,188.373h4.237c1.302,0,2.336-0.38,3.108-1.141c0.771-0.76,1.156-2.01,1.156-3.741c0-1.07-0.185-1.906-0.549-2.507
			c-0.369-0.604-0.9-1.039-1.606-1.317c-0.7-0.272-1.91-0.41-3.638-0.41c-1.221,0-1.975,0.086-2.27,0.261
			c-0.292,0.178-0.438,0.481-0.438,0.926v7.933V188.373L134.5,188.373z M134.5,189.5v8.607c0,0.401,0.117,0.703,0.355,0.903
			c0.238,0.201,0.664,0.304,1.277,0.304h2.707c1.793,0,3.113-0.394,3.972-1.185s1.282-2.021,1.282-3.69
			c0-1.528-0.441-2.733-1.324-3.614c-0.891-0.882-2.111-1.322-3.676-1.322L134.5,189.5L134.5,189.5z"/>
	</g>
</g>
<g>
	<path fill="#F70303" d="M324.426,118.358c4.668,0.053,7.25,3.235,5.765,7.137c-1.431,3.957-6.369,7.086-10.979,7.031
		c-4.613-0.058-7.193-3.295-5.712-7.195C314.925,121.432,319.808,118.3,324.426,118.358z"/>
	<path d="M321.491,178.1h1.057l7.992,20.404c0.324,0.822,0.979,1.236,1.977,1.236h0.695v1.125h-8.904v-1.125h0.711
		c0.928,0,1.578-0.102,1.967-0.303c0.258-0.146,0.393-0.355,0.393-0.646c0-0.172-0.034-0.354-0.105-0.543l-1.845-4.73h-8.812
		l-1.053,2.713c-0.271,0.729-0.408,1.302-0.408,1.721c0,0.488,0.229,0.916,0.688,1.266c0.459,0.354,1.125,0.527,2.002,0.527h0.754
		v1.127h-8.099v-1.125c0.867,0,1.554-0.188,2.06-0.562c0.503-0.381,0.966-1.096,1.392-2.146L321.491,178.1z M321.075,182.387
		l-3.996,9.951h7.877L321.075,182.387z"/>
</g>
<g>
	<path fill="#F506FC" d="M292.644,123.962c4.668,0.054,7.25,3.24,5.764,7.138c-1.43,3.957-6.368,7.085-10.979,7.032
		c-4.612-0.056-7.192-3.295-5.712-7.196C283.144,127.037,288.028,123.905,292.644,123.962z"/>
	<path d="M296.162,180.114l1.229-2.222h1.021l0.562,8.898h-0.99c-0.751-2.562-1.641-4.416-2.66-5.562
		c-1.302-1.461-2.795-2.188-4.479-2.188c-1.291,0-2.446,0.367-3.473,1.104c-1.021,0.729-1.809,1.832-2.354,3.297
		c-0.547,1.467-0.818,3.531-0.818,6.188c0,2.582,0.271,4.604,0.821,6.058c0.546,1.457,1.302,2.525,2.264,3.219
		c0.965,0.686,2.098,1.029,3.393,1.029c1.757,0,3.113-0.492,4.072-1.479s1.438-2.254,1.438-3.812v-2.092
		c0-0.332-0.131-0.59-0.387-0.771c-0.26-0.181-0.682-0.271-1.264-0.271h-1.895v-1.047h9.354v1.047h-1.268
		c-0.564,0-0.97,0.103-1.211,0.295c-0.242,0.191-0.361,0.479-0.361,0.854v8.531h-0.992c-0.355-1.326-0.733-2.604-1.129-3.82
		c-0.754,1.236-1.646,2.165-2.688,2.784c-1.04,0.614-2.223,0.928-3.536,0.928c-1.881,0-3.624-0.479-5.229-1.444
		c-1.604-0.969-2.871-2.324-3.801-4.08c-0.93-1.754-1.396-3.734-1.396-5.949c0-2.224,0.472-4.213,1.402-5.974
		c0.935-1.76,2.211-3.155,3.832-4.188c1.622-1.037,3.264-1.555,4.92-1.555c0.94,0,1.846,0.157,2.705,0.479
		C294.103,178.686,295.074,179.268,296.162,180.114z"/>
</g>
<g>
	<path fill="#0C00FF" d="M233.562,138.319c4.666,0.057,7.248,3.242,5.767,7.141c-1.429,3.954-6.371,7.084-10.979,7.03
		c-4.615-0.056-7.195-3.296-5.713-7.192C224.061,141.395,228.95,138.264,233.562,138.319z"/>
	<path d="M219.962,178.886h17.673l0.43,7.536h-1.021c-0.401-2.378-1.039-4.04-1.907-4.985c-0.871-0.942-2.005-1.42-3.399-1.42
		h-4.374c-0.352,0-0.617,0.102-0.801,0.287c-0.181,0.189-0.271,0.481-0.271,0.875v7.955h1.916c1.026,0,1.856-0.367,2.494-1.101
		c0.639-0.731,0.983-1.859,1.034-3.377h1.044v10.325h-1.044c-0.051-1.707-0.399-2.928-1.049-3.666
		c-0.649-0.741-1.532-1.109-2.646-1.109h-1.75v8.873c0,0.322,0.107,0.568,0.324,0.742c0.217,0.171,0.574,0.253,1.078,0.253h3.453
		c3.754,0,5.914-2.396,6.486-7.187h1.1l-0.377,8.312H219.96v-1.126h1.522c0.593,0,1.011-0.104,1.252-0.309
		c0.24-0.207,0.361-0.509,0.361-0.897v-17.688c0-0.395-0.106-0.685-0.317-0.875c-0.212-0.188-0.541-0.287-0.996-0.287h-1.822v-1.131
		H219.962z"/>
</g>
<g>
	<path fill="#F7E608" d="M172.101,152.1c4.667,0.055,7.249,3.238,5.766,7.139c-1.428,3.957-6.371,7.088-10.981,7.029
		c-4.612-0.055-7.19-3.297-5.71-7.191C162.598,155.176,167.488,152.043,172.101,152.1z"/>
	<g>
		<path d="M174.464,179.5l1.021-2.158h0.938l0.428,8.982h-1.019c-0.666-2.541-1.495-4.416-2.498-5.621
			c-1.247-1.51-2.729-2.262-4.456-2.262c-1.867,0-3.389,0.836-4.562,2.508c-1.176,1.672-1.758,4.504-1.758,8.494
			c0,3.354,0.676,5.912,2.018,7.678c1.146,1.492,2.754,2.236,4.822,2.236c1.811,0,3.324-0.58,4.549-1.742s2.023-2.914,2.396-5.258
			h1.072c-0.312,2.65-1.221,4.688-2.729,6.119c-1.509,1.428-3.409,2.139-5.698,2.139c-1.859,0-3.564-0.467-5.117-1.402
			c-1.549-0.936-2.795-2.277-3.723-4.033c-0.932-1.758-1.396-3.682-1.396-5.77c0-2.221,0.479-4.307,1.438-6.258
			c0.961-1.949,2.188-3.414,3.686-4.398c1.492-0.979,3.105-1.467,4.835-1.467c0.964,0,1.896,0.168,2.8,0.502
			C172.419,178.121,173.402,178.697,174.464,179.5z"/>
	</g>
</g>
</svg>
