<?xml version="1.0" encoding="utf-8"?>
<!-- Generator: Adobe Illustrator 15.0.0, SVG Export Plug-In . SVG Version: 6.00 Build 0)  -->
<!DOCTYPE svg PUBLIC "-//W3C//DTD SVG 1.1//EN" "http://www.w3.org/Graphics/SVG/1.1/DTD/svg11.dtd">
<svg version="1.1" id="Layer_1" xmlns="http://www.w3.org/2000/svg" xmlns:xlink="http://www.w3.org/1999/xlink" x="0px" y="0px"
	 width="500px" height="270px" viewBox="0 0 500 270" enable-background="new 0 0 500 270" xml:space="preserve">
<g id="Layer_1_1_">
</g>
<g id="Layer_2">
	<g id="Layer_2_1_">
		<g>
			<path d="M10.499,82.125v-1.044h462.473v1.044H10.499z M10.499,96.125v-1.152h462.473v1.152H10.499z M10.499,110.02v-1.043
				h462.473v1.043H10.499z M10.499,123.914v-1.044h462.473v1.044H10.499z M10.499,137.809v-1.043h462.473v1.043H10.499z"/>
			<path fill="#5406FF" d="M114.4,137.738c4.669,0.055,7.25,3.242,5.767,7.14c-1.428,3.955-6.371,7.086-10.984,7.028
				c-4.612-0.053-7.193-3.295-5.712-7.191C104.899,140.814,109.788,137.686,114.4,137.738z"/>
			<g>
				<path d="M271.891,165.868h11.523c1.709,0,3.164,0.301,4.359,0.903c1.483,0.764,2.752,2.037,3.791,3.812
					c1.041,1.78,1.562,3.891,1.562,6.318c0,2.013-0.312,3.822-0.937,5.436c-0.477,1.237-1.199,2.317-2.184,3.243
					c-0.979,0.923-2.176,1.617-3.584,2.083c-1.054,0.339-2.465,0.515-4.225,0.515h-10.316v-1.13H274
					c0.538,0,0.904-0.084,1.113-0.255c0.205-0.171,0.308-0.438,0.308-0.801V168.02c0-0.312-0.106-0.56-0.332-0.748
					c-0.223-0.184-0.528-0.274-0.921-0.274h-2.284v-1.126L271.891,165.868L271.891,165.868z M279.949,166.992
					c-0.455,0-0.787,0.098-1.006,0.287c-0.217,0.188-0.323,0.478-0.323,0.859v17.811c0,0.361,0.124,0.636,0.379,0.82
					c0.252,0.188,0.681,0.277,1.284,0.277h1.902c1.696,0,3.188-0.438,4.472-1.312c0.834-0.586,1.468-1.402,1.903-2.463
					c0.594-1.429,0.892-3.396,0.892-5.916c0-3.727-0.647-6.446-1.95-8.178c-1.109-1.465-2.779-2.188-5.016-2.188L279.949,166.992
					L279.949,166.992z"/>
			</g>
			<path fill="#8800FF" d="M148.126,130.791c4.667,0.057,7.249,3.238,5.765,7.141c-1.426,3.953-6.37,7.084-10.982,7.029
				c-4.614-0.055-7.195-3.295-5.712-7.193C138.625,133.866,143.512,130.734,148.126,130.791z"/>
			<g>
				<path d="M307.412,165.868h17.672l0.429,7.534h-1.021c-0.398-2.379-1.035-4.038-1.907-4.987c-0.87-0.944-2.001-1.419-3.398-1.419
					h-4.372c-0.353,0-0.614,0.098-0.801,0.286c-0.183,0.19-0.271,0.481-0.271,0.877v7.954h1.914c1.022,0,1.854-0.367,2.497-1.104
					c0.636-0.731,0.979-1.856,1.028-3.38h1.051v10.326h-1.051c-0.051-1.706-0.396-2.93-1.05-3.667
					c-0.646-0.738-1.525-1.104-2.645-1.104h-1.75v8.873c0,0.319,0.104,0.564,0.322,0.737c0.216,0.172,0.57,0.254,1.072,0.254h3.458
					c3.751,0,5.911-2.396,6.486-7.188h1.1l-0.379,8.313h-18.396v-1.128h1.522c0.597,0,1.012-0.104,1.25-0.309
					c0.242-0.205,0.361-0.506,0.361-0.897V168.15c0-0.396-0.105-0.686-0.316-0.877c-0.213-0.188-0.541-0.285-0.992-0.285h-1.823
					L307.412,165.868L307.412,165.868z"/>
			</g>
			<path fill="#F70606" d="M182.191,123.844c4.669,0.057,7.25,3.241,5.767,7.141c-1.428,3.953-6.371,7.083-10.984,7.029
				c-4.612-0.055-7.193-3.295-5.712-7.188C172.688,126.919,177.579,123.79,182.191,123.844z"/>
			<g>
				<path d="M342.244,165.868h18.154l0.295,7.723h-1.044c-0.471-2.655-1.112-4.39-1.95-5.192c-0.959-0.936-2.325-1.397-4.104-1.397
					h-3.584c-0.354,0-0.604,0.083-0.771,0.249c-0.161,0.166-0.241,0.414-0.241,0.746v8.047h1.917c1.069,0,1.921-0.354,2.552-1.061
					c0.636-0.707,0.979-1.791,1.028-3.26h1.102v10.082h-1.102c-0.07-1.668-0.412-2.854-1.028-3.57
					c-0.605-0.711-1.465-1.063-2.552-1.063H349v8.521c0,0.504,0.121,0.855,0.362,1.062c0.236,0.207,0.659,0.312,1.252,0.312h2.32
					v1.123h-10.693v-1.127h2.287c0.465,0,0.79-0.096,0.98-0.276c0.194-0.187,0.294-0.493,0.294-0.915V168.12
					c0-0.397-0.103-0.688-0.311-0.858c-0.204-0.173-0.562-0.255-1.076-0.255h-2.18L342.244,165.868L342.244,165.868z"/>
			</g>
			<g>
				<path d="M390.624,168.089l1.227-2.223h1.021l0.562,8.901h-0.985c-0.751-2.562-1.643-4.416-2.66-5.562
					c-1.304-1.458-2.796-2.188-4.479-2.188c-1.292,0-2.451,0.364-3.471,1.102c-1.023,0.73-1.809,1.834-2.354,3.299
					c-0.548,1.466-0.818,3.532-0.818,6.188c0,2.582,0.271,4.604,0.818,6.059c0.55,1.456,1.306,2.523,2.268,3.218
					c0.962,0.688,2.095,1.03,3.389,1.03c1.758,0,3.115-0.492,4.076-1.479c0.96-0.979,1.438-2.252,1.438-3.812v-2.095
					c0-0.332-0.128-0.586-0.39-0.771c-0.259-0.182-0.681-0.271-1.264-0.271h-1.891v-1.045h9.354v1.045h-1.271
					c-0.563,0-0.972,0.104-1.21,0.296c-0.241,0.192-0.362,0.479-0.362,0.853v8.534h-0.992c-0.354-1.327-0.73-2.604-1.126-3.819
					c-0.753,1.233-1.652,2.164-2.688,2.783c-1.041,0.615-2.225,0.93-3.54,0.93c-1.885,0-3.62-0.48-5.229-1.445
					c-1.603-0.969-2.869-2.325-3.801-4.079c-0.929-1.758-1.396-3.738-1.396-5.95c0-2.227,0.471-4.214,1.401-5.977
					c0.932-1.76,2.212-3.152,3.833-4.19c1.619-1.034,3.258-1.55,4.917-1.55c0.945,0,1.844,0.156,2.705,0.475
					C388.565,166.66,389.537,167.242,390.624,168.089z"/>
			</g>
			<path fill="#FFE600" d="M251.312,109.951c4.668,0.053,7.25,3.24,5.764,7.139c-1.43,3.955-6.369,7.086-10.98,7.03
				c-4.613-0.056-7.193-3.295-5.711-7.194C241.812,113.027,246.697,109.895,251.312,109.951z"/>
			<g>
				<path d="M419.298,165.868h1.056l7.995,20.403c0.321,0.823,0.979,1.231,1.979,1.231h0.691v1.128h-8.9v-1.128h0.711
					c0.926,0,1.579-0.104,1.965-0.302c0.258-0.145,0.392-0.354,0.392-0.646c0-0.171-0.03-0.354-0.104-0.543l-1.843-4.729h-8.812
					l-1.053,2.712c-0.272,0.722-0.408,1.297-0.408,1.716c0,0.492,0.232,0.915,0.688,1.27c0.459,0.353,1.126,0.522,2.001,0.522h0.755
					v1.128h-8.104v-1.127c0.866,0,1.559-0.188,2.062-0.562c0.504-0.377,0.969-1.092,1.393-2.146L419.298,165.868z M418.884,170.154
					l-3.995,9.953h7.877L418.884,170.154z"/>
			</g>
			<path fill="#00A008" d="M285.09,103.005c4.669,0.056,7.252,3.241,5.766,7.138c-1.428,3.957-6.371,7.086-10.979,7.032
				c-4.613-0.055-7.193-3.296-5.715-7.194C275.589,106.082,280.479,102.949,285.09,103.005z"/>
			<g>
				<path d="M444.088,165.868h11.614c2.279,0,4.021,0.502,5.236,1.506c1.21,1.006,1.812,2.265,1.812,3.783
					c0,1.266-0.422,2.338-1.264,3.225c-0.85,0.886-2.115,1.582-3.817,2.095c2.108,0.442,3.687,1.145,4.739,2.092
					c1.049,0.955,1.579,2.152,1.579,3.604c0,1.106-0.306,2.089-0.898,2.943c-0.597,0.856-1.592,1.579-2.979,2.173
					c-1.396,0.598-2.975,0.895-4.741,0.895h-11.274v-1.127h1.835c0.558,0,0.96-0.091,1.213-0.271
					c0.26-0.179,0.389-0.388,0.389-0.615v-17.886c0-0.422-0.124-0.743-0.375-0.957c-0.251-0.219-0.617-0.324-1.104-0.324h-1.96
					v-1.134h-0.002L444.088,165.868L444.088,165.868z M450.71,176.109h4.238c1.301,0,2.335-0.381,3.104-1.145
					c0.771-0.761,1.156-2.009,1.156-3.738c0-1.07-0.183-1.904-0.55-2.51c-0.369-0.604-0.9-1.035-1.605-1.314
					c-0.696-0.274-1.911-0.412-3.637-0.412c-1.221,0-1.973,0.089-2.27,0.262c-0.292,0.176-0.439,0.482-0.439,0.926L450.71,176.109
					L450.71,176.109z M450.71,177.236v8.608c0,0.398,0.117,0.7,0.354,0.901c0.235,0.199,0.666,0.301,1.272,0.301h2.709
					c1.793,0,3.112-0.396,3.97-1.183c0.858-0.791,1.284-2.021,1.284-3.69c0-1.527-0.438-2.73-1.325-3.611
					c-0.891-0.881-2.107-1.321-3.676-1.321L450.71,177.236L450.71,177.236z"/>
			</g>
			<path fill="#0000FF" d="M319.377,95.496c4.67,0.054,7.251,3.24,5.764,7.139c-1.428,3.957-6.363,7.088-10.979,7.03
				c-4.614-0.054-7.188-3.295-5.708-7.192C309.874,98.573,314.765,95.441,319.377,95.496z"/>
			<path fill="#F45C08" d="M216.755,116.141c4.666,0.053,7.247,3.238,5.763,7.139c-1.428,3.953-6.373,7.087-10.981,7.029
				c-4.614-0.054-7.193-3.295-5.712-7.189C207.252,119.213,212.139,116.082,216.755,116.141z"/>
			<path fill="#F803FF" d="M388.242,82.162c4.667,0.057,7.248,3.238,5.764,7.141c-1.428,3.953-6.37,7.084-10.979,7.03
				c-4.614-0.056-7.192-3.297-5.711-7.192C378.739,85.236,383.628,82.105,388.242,82.162z"/>
			<g>
				<path d="M68.064,165.868h17.673l0.429,7.534h-1.021c-0.399-2.379-1.036-4.038-1.907-4.987c-0.87-0.944-2.001-1.419-3.397-1.419
					h-4.374c-0.352,0-0.619,0.098-0.8,0.286c-0.183,0.19-0.271,0.481-0.271,0.877v7.954h1.916c1.025,0,1.857-0.367,2.492-1.104
					c0.64-0.731,0.982-1.856,1.036-3.38h1.046v10.326H79.84c-0.05-1.706-0.401-2.93-1.047-3.667
					c-0.65-0.738-1.532-1.104-2.648-1.104h-1.75v8.873c0,0.319,0.107,0.564,0.322,0.737c0.22,0.172,0.578,0.254,1.081,0.254h3.456
					c3.751,0,5.912-2.396,6.485-7.188h1.101l-0.377,8.313H68.062v-1.128h1.527c0.593,0,1.011-0.104,1.25-0.309
					c0.241-0.205,0.362-0.506,0.362-0.897V168.15c0-0.396-0.105-0.686-0.317-0.877c-0.211-0.188-0.543-0.285-0.995-0.285h-1.825
					V165.868L68.064,165.868z"/>
			</g>
			<path fill="#FF0000" d="M422.244,75.215c4.666,0.057,7.249,3.241,5.766,7.141c-1.428,3.953-6.372,7.084-10.979,7.029
				c-4.612-0.055-7.191-3.296-5.712-7.191C412.74,78.291,417.629,75.16,422.244,75.215z"/>
			<g>
				<path d="M103.057,165.868h18.153l0.296,7.723h-1.045c-0.464-2.655-1.113-4.39-1.951-5.192c-0.96-0.936-2.325-1.397-4.098-1.397
					h-3.586c-0.352,0-0.608,0.083-0.771,0.249c-0.161,0.166-0.242,0.414-0.242,0.746v8.047h1.917c1.066,0,1.917-0.354,2.551-1.061
					c0.632-0.707,0.974-1.791,1.026-3.26h1.103v10.082h-1.101c-0.07-1.668-0.409-2.854-1.025-3.57
					c-0.61-0.711-1.467-1.063-2.551-1.063h-1.917v8.521c0,0.504,0.117,0.855,0.362,1.062c0.243,0.207,0.661,0.312,1.252,0.312h2.325
					v1.123h-10.698v-1.127h2.289c0.463,0,0.788-0.096,0.984-0.276c0.195-0.187,0.292-0.493,0.292-0.915V168.12
					c0-0.397-0.101-0.688-0.309-0.858c-0.205-0.173-0.563-0.255-1.076-0.255h-2.18v-1.128h0.001L103.057,165.868L103.057,165.868z"
					/>
			</g>
			<path fill="#FF9D00" d="M456.619,67.73c4.668,0.054,7.249,3.24,5.766,7.14c-1.429,3.953-6.372,7.084-10.979,7.028
				c-4.614-0.053-7.192-3.295-5.711-7.191C447.114,70.807,452.003,67.675,456.619,67.73z"/>
			<g>
				<path d="M152.549,168.089l1.229-2.223h1.019l0.563,8.901h-0.992c-0.751-2.562-1.636-4.416-2.66-5.562
					c-1.302-1.458-2.796-2.188-4.479-2.188c-1.292,0-2.452,0.364-3.469,1.102c-1.024,0.73-1.807,1.834-2.353,3.299
					c-0.545,1.466-0.821,3.532-0.821,6.188c0,2.582,0.273,4.604,0.823,6.059c0.546,1.458,1.302,2.523,2.266,3.218
					c0.962,0.688,2.093,1.03,3.389,1.03c1.757,0,3.114-0.492,4.073-1.479c0.96-0.979,1.438-2.252,1.438-3.812v-2.095
					c0-0.332-0.125-0.586-0.385-0.771c-0.256-0.182-0.681-0.271-1.262-0.271h-1.894v-1.045h9.357v1.045h-1.267
					c-0.565,0-0.969,0.104-1.21,0.296c-0.245,0.192-0.364,0.479-0.364,0.853v8.534h-0.991c-0.362-1.327-0.739-2.604-1.128-3.819
					c-0.75,1.233-1.651,2.164-2.69,2.783c-1.039,0.615-2.221,0.93-3.54,0.93c-1.88,0-3.62-0.48-5.226-1.445
					c-1.606-0.969-2.871-2.325-3.801-4.079c-0.93-1.758-1.396-3.738-1.396-5.95c0-2.227,0.466-4.214,1.399-5.977
					c0.933-1.76,2.212-3.152,3.833-4.19c1.619-1.034,3.26-1.55,4.916-1.55c0.947,0,1.845,0.156,2.705,0.475
					C150.491,166.66,151.465,167.242,152.549,168.089z"/>
			</g>
			<path fill="#0600FF" d="M79.411,147.27c4.667,0.058,7.249,3.24,5.766,7.142c-1.428,3.957-6.371,7.088-10.984,7.026
				c-4.614-0.053-7.192-3.295-5.71-7.188C69.908,150.348,74.797,147.214,79.411,147.27z"/>
			<g>
				<path d="M254.542,168.08l1.021-2.157h0.939l0.43,8.981h-1.021c-0.663-2.54-1.494-4.416-2.496-5.619
					c-1.246-1.51-2.729-2.264-4.455-2.264c-1.867,0-3.388,0.836-4.562,2.51c-1.174,1.673-1.756,4.504-1.756,8.494
					c0,3.354,0.674,5.91,2.018,7.678c1.146,1.49,2.752,2.234,4.82,2.234c1.81,0,3.327-0.578,4.549-1.74
					c1.225-1.163,2.023-2.914,2.396-5.258h1.072c-0.312,2.648-1.222,4.688-2.729,6.117c-1.506,1.428-3.408,2.141-5.699,2.141
					c-1.858,0-3.562-0.469-5.113-1.402c-1.552-0.936-2.796-2.279-3.724-4.033c-0.93-1.758-1.396-3.682-1.396-5.77
					c0-2.221,0.479-4.309,1.438-6.26c0.963-1.948,2.188-3.414,3.685-4.396c1.496-0.98,3.106-1.468,4.838-1.468
					c0.962,0,1.895,0.169,2.803,0.502C252.497,166.701,253.479,167.277,254.542,168.08z"/>
			</g>
			<line fill="none" stroke="#000000" x1="60.794" y1="154.311" x2="93.115" y2="154.311"/>
			<g>
				<path d="M91.759,169.426l-0.558,1.533h-4.693v-0.218c1.379-1.259,2.354-2.286,2.917-3.084s0.845-1.529,0.845-2.188
					c0-0.504-0.154-0.918-0.464-1.242c-0.309-0.328-0.679-0.482-1.108-0.482c-0.392,0-0.744,0.107-1.052,0.342
					c-0.312,0.229-0.54,0.562-0.691,1.006h-0.216c0.099-0.723,0.349-1.273,0.754-1.668c0.404-0.386,0.91-0.58,1.515-0.58
					c0.646,0,1.185,0.208,1.618,0.622c0.431,0.414,0.646,0.903,0.646,1.472c0,0.396-0.095,0.805-0.281,1.203
					c-0.289,0.637-0.759,1.309-1.408,2.018c-0.972,1.062-1.583,1.703-1.824,1.923h2.077c0.422,0,0.719-0.017,0.888-0.046
					c0.173-0.033,0.325-0.096,0.462-0.19c0.138-0.094,0.255-0.231,0.357-0.409h0.216V169.426z"/>
			</g>
			<g>
				<path d="M425.108,164.518c0.227-0.539,0.515-0.949,0.855-1.242c0.347-0.291,0.777-0.438,1.294-0.438
					c0.642,0,1.126,0.207,1.466,0.621c0.262,0.309,0.395,0.639,0.395,0.991c0,0.579-0.366,1.178-1.093,1.796
					c0.484,0.191,0.854,0.465,1.104,0.82c0.249,0.354,0.375,0.771,0.375,1.254c0,0.688-0.218,1.285-0.657,1.791
					c-0.564,0.656-1.396,0.983-2.479,0.983c-0.538,0-0.901-0.065-1.096-0.198c-0.191-0.133-0.288-0.275-0.288-0.432
					c0-0.109,0.043-0.214,0.136-0.3c0.092-0.085,0.201-0.129,0.332-0.129c0.097,0,0.197,0.019,0.298,0.047
					c0.067,0.021,0.218,0.091,0.454,0.216c0.234,0.119,0.394,0.193,0.484,0.223c0.145,0.041,0.3,0.062,0.465,0.062
					c0.396,0,0.747-0.153,1.04-0.466c0.295-0.312,0.439-0.678,0.439-1.102c0-0.311-0.063-0.606-0.202-0.897
					c-0.104-0.224-0.217-0.39-0.337-0.5c-0.168-0.155-0.396-0.3-0.688-0.427c-0.294-0.129-0.592-0.188-0.896-0.188h-0.188v-0.177
					c0.311-0.038,0.617-0.147,0.929-0.335c0.313-0.187,0.538-0.404,0.679-0.664c0.146-0.261,0.211-0.539,0.211-0.854
					c0-0.396-0.12-0.729-0.38-0.975c-0.25-0.25-0.562-0.374-0.938-0.374c-0.605,0-1.111,0.325-1.521,0.974L425.108,164.518z"/>
			</g>
			<g>
				<path d="M394.373,164.518c0.229-0.539,0.515-0.949,0.857-1.242c0.349-0.291,0.773-0.438,1.296-0.438
					c0.637,0,1.125,0.207,1.467,0.621c0.258,0.309,0.385,0.639,0.385,0.991c0,0.579-0.361,1.178-1.089,1.796
					c0.487,0.191,0.858,0.465,1.109,0.82c0.25,0.354,0.375,0.771,0.375,1.254c0,0.688-0.224,1.285-0.656,1.791
					c-0.572,0.656-1.398,0.983-2.482,0.983c-0.534,0-0.896-0.065-1.093-0.198c-0.196-0.133-0.292-0.275-0.292-0.432
					c0-0.109,0.046-0.214,0.138-0.3c0.099-0.085,0.205-0.129,0.33-0.129c0.104,0,0.198,0.019,0.3,0.047
					c0.065,0.021,0.224,0.091,0.453,0.216c0.234,0.119,0.397,0.193,0.487,0.223c0.146,0.041,0.3,0.062,0.465,0.062
					c0.398,0,0.745-0.153,1.039-0.466c0.296-0.312,0.444-0.678,0.444-1.102c0-0.311-0.069-0.606-0.207-0.897
					c-0.104-0.224-0.211-0.39-0.333-0.5c-0.169-0.155-0.397-0.3-0.69-0.427c-0.294-0.129-0.595-0.188-0.896-0.188h-0.188v-0.177
					c0.312-0.038,0.62-0.147,0.938-0.335c0.308-0.187,0.534-0.404,0.677-0.664c0.141-0.261,0.211-0.539,0.211-0.854
					c0-0.396-0.127-0.729-0.379-0.975c-0.253-0.248-0.566-0.374-0.943-0.374c-0.604,0-1.107,0.325-1.519,0.974L394.373,164.518z"/>
			</g>
			<g>
				<path d="M361.924,164.518c0.229-0.539,0.518-0.949,0.858-1.242c0.345-0.291,0.772-0.438,1.294-0.438
					c0.637,0,1.124,0.207,1.465,0.621c0.258,0.309,0.389,0.639,0.389,0.991c0,0.579-0.359,1.178-1.093,1.796
					c0.487,0.191,0.858,0.465,1.109,0.82c0.25,0.354,0.375,0.771,0.375,1.254c0,0.688-0.218,1.285-0.656,1.791
					c-0.57,0.656-1.398,0.983-2.48,0.983c-0.531,0-0.896-0.065-1.095-0.198c-0.188-0.133-0.29-0.275-0.29-0.432
					c0-0.109,0.047-0.214,0.143-0.3c0.092-0.085,0.198-0.129,0.325-0.129c0.104,0,0.197,0.019,0.305,0.047
					c0.062,0.021,0.218,0.091,0.45,0.216c0.232,0.119,0.396,0.193,0.483,0.223c0.146,0.041,0.3,0.062,0.465,0.062
					c0.398,0,0.747-0.153,1.04-0.466c0.294-0.312,0.442-0.678,0.442-1.102c0-0.311-0.066-0.606-0.204-0.897
					c-0.101-0.224-0.213-0.39-0.335-0.5c-0.168-0.155-0.397-0.3-0.689-0.427c-0.295-0.129-0.593-0.188-0.896-0.188h-0.188v-0.177
					c0.312-0.038,0.617-0.147,0.936-0.335c0.31-0.187,0.536-0.404,0.677-0.664c0.141-0.261,0.211-0.539,0.211-0.854
					c0-0.396-0.126-0.729-0.379-0.975c-0.251-0.25-0.562-0.374-0.938-0.374c-0.606,0-1.111,0.325-1.521,0.974L361.924,164.518z"/>
			</g>
			<g>
				<path d="M326.038,164.518c0.228-0.539,0.514-0.949,0.859-1.242c0.347-0.291,0.772-0.438,1.294-0.438
					c0.639,0,1.126,0.207,1.465,0.621c0.258,0.309,0.389,0.639,0.389,0.991c0,0.579-0.363,1.178-1.091,1.796
					c0.487,0.191,0.854,0.465,1.104,0.82c0.256,0.354,0.381,0.771,0.381,1.254c0,0.688-0.225,1.285-0.657,1.791
					c-0.571,0.656-1.396,0.983-2.482,0.983c-0.534,0-0.896-0.065-1.095-0.198c-0.192-0.133-0.289-0.275-0.289-0.432
					c0-0.109,0.045-0.214,0.137-0.3c0.093-0.085,0.203-0.129,0.332-0.129c0.104,0,0.196,0.019,0.3,0.047
					c0.065,0.021,0.222,0.091,0.451,0.216c0.234,0.119,0.397,0.193,0.487,0.223c0.145,0.041,0.299,0.062,0.463,0.062
					c0.398,0,0.747-0.153,1.041-0.466c0.297-0.312,0.444-0.678,0.444-1.102c0-0.311-0.07-0.606-0.206-0.897
					c-0.104-0.224-0.213-0.39-0.332-0.5c-0.171-0.155-0.399-0.3-0.694-0.427c-0.291-0.129-0.592-0.188-0.896-0.188h-0.188v-0.177
					c0.312-0.038,0.617-0.147,0.931-0.335c0.312-0.187,0.536-0.404,0.682-0.664c0.142-0.261,0.212-0.539,0.212-0.854
					c0-0.396-0.124-0.729-0.379-0.975c-0.252-0.25-0.566-0.374-0.942-0.374c-0.604,0-1.112,0.325-1.519,0.974L326.038,164.518z"/>
			</g>
			<g>
				<path d="M293.587,164.518c0.228-0.539,0.513-0.949,0.858-1.242c0.347-0.291,0.777-0.438,1.294-0.438
					c0.637,0,1.126,0.207,1.466,0.621c0.257,0.309,0.388,0.639,0.388,0.991c0,0.579-0.362,1.178-1.091,1.796
					c0.487,0.191,0.857,0.465,1.107,0.82c0.252,0.354,0.377,0.771,0.377,1.254c0,0.688-0.221,1.285-0.658,1.791
					c-0.57,0.656-1.396,0.983-2.479,0.983c-0.539,0-0.9-0.065-1.102-0.198c-0.188-0.133-0.29-0.275-0.29-0.432
					c0-0.109,0.047-0.214,0.142-0.3c0.092-0.085,0.202-0.129,0.332-0.129c0.098,0,0.193,0.019,0.299,0.047
					c0.062,0.021,0.218,0.091,0.453,0.216c0.231,0.119,0.396,0.193,0.48,0.223c0.146,0.041,0.304,0.062,0.466,0.062
					c0.396,0,0.746-0.153,1.039-0.466c0.294-0.312,0.442-0.678,0.442-1.102c0-0.311-0.066-0.606-0.202-0.897
					c-0.104-0.224-0.214-0.39-0.335-0.5c-0.17-0.155-0.396-0.3-0.688-0.427c-0.299-0.129-0.598-0.188-0.896-0.188h-0.188v-0.177
					c0.311-0.038,0.616-0.147,0.932-0.335c0.312-0.187,0.537-0.404,0.681-0.664c0.142-0.261,0.209-0.539,0.209-0.854
					c0-0.396-0.124-0.729-0.379-0.975c-0.249-0.25-0.562-0.374-0.938-0.374c-0.604,0-1.11,0.325-1.521,0.974L293.587,164.518z"/>
			</g>
			<g>
				<path d="M257.701,164.518c0.226-0.539,0.513-0.949,0.857-1.242c0.348-0.291,0.773-0.438,1.293-0.438
					c0.64,0,1.127,0.207,1.467,0.621c0.258,0.309,0.388,0.639,0.388,0.991c0,0.579-0.363,1.178-1.091,1.796
					c0.488,0.191,0.857,0.465,1.107,0.82c0.252,0.354,0.377,0.771,0.377,1.254c0,0.688-0.224,1.285-0.658,1.791
					c-0.569,0.656-1.396,0.983-2.48,0.983c-0.536,0-0.898-0.065-1.096-0.198c-0.191-0.133-0.29-0.275-0.29-0.432
					c0-0.109,0.047-0.214,0.138-0.3c0.094-0.085,0.202-0.129,0.331-0.129c0.099,0,0.198,0.019,0.3,0.047
					c0.066,0.021,0.215,0.091,0.45,0.216c0.235,0.119,0.396,0.193,0.487,0.223c0.145,0.041,0.299,0.062,0.464,0.062
					c0.397,0,0.746-0.153,1.039-0.466c0.297-0.312,0.446-0.678,0.446-1.102c0-0.311-0.07-0.606-0.207-0.897
					c-0.104-0.224-0.213-0.39-0.334-0.5c-0.168-0.155-0.397-0.3-0.692-0.427c-0.292-0.129-0.593-0.188-0.896-0.188h-0.188v-0.177
					c0.31-0.038,0.618-0.147,0.931-0.335c0.311-0.187,0.538-0.404,0.68-0.664c0.145-0.261,0.211-0.539,0.211-0.854
					c0-0.396-0.127-0.729-0.381-0.975c-0.25-0.25-0.562-0.374-0.938-0.374c-0.604,0-1.109,0.325-1.521,0.974L257.701,164.518z"/>
			</g>
			<g>
				<path d="M228.432,169.426l-0.559,1.533h-4.691v-0.218c1.381-1.259,2.353-2.286,2.916-3.084c0.562-0.798,0.844-1.529,0.844-2.188
					c0-0.504-0.153-0.918-0.463-1.242c-0.31-0.328-0.68-0.482-1.108-0.482c-0.392,0-0.742,0.107-1.054,0.342
					c-0.312,0.229-0.539,0.562-0.688,1.006h-0.216c0.097-0.723,0.349-1.273,0.752-1.668c0.403-0.386,0.91-0.58,1.517-0.58
					c0.645,0,1.185,0.208,1.616,0.622c0.431,0.414,0.646,0.903,0.646,1.472c0,0.396-0.094,0.805-0.28,1.203
					c-0.288,0.637-0.759,1.309-1.408,2.018c-0.972,1.062-1.582,1.703-1.823,1.923h2.077c0.423,0,0.72-0.017,0.888-0.046
					c0.174-0.033,0.326-0.096,0.463-0.19c0.139-0.094,0.256-0.231,0.356-0.409h0.216L228.432,169.426L228.432,169.426z"/>
			</g>
			<g>
				<path d="M192.547,169.426l-0.558,1.533h-4.691v-0.218c1.379-1.259,2.353-2.286,2.915-3.084c0.563-0.798,0.845-1.529,0.845-2.188
					c0-0.504-0.154-0.918-0.462-1.242c-0.31-0.328-0.681-0.482-1.109-0.482c-0.391,0-0.743,0.107-1.051,0.342
					c-0.313,0.229-0.542,0.562-0.691,1.006h-0.216c0.097-0.723,0.349-1.273,0.752-1.668c0.404-0.386,0.91-0.58,1.517-0.58
					c0.646,0,1.183,0.208,1.616,0.622c0.431,0.414,0.647,0.903,0.647,1.472c0,0.396-0.094,0.805-0.282,1.203
					c-0.288,0.637-0.757,1.309-1.406,2.018c-0.974,1.062-1.583,1.703-1.825,1.923h2.077c0.422,0,0.719-0.017,0.89-0.046
					c0.171-0.033,0.323-0.096,0.461-0.19c0.137-0.094,0.256-0.231,0.357-0.409h0.214V169.426z"/>
			</g>
			<g>
				<path d="M161.811,169.426l-0.558,1.533h-4.691v-0.218c1.379-1.259,2.353-2.286,2.916-3.084c0.562-0.798,0.843-1.529,0.843-2.188
					c0-0.504-0.154-0.918-0.462-1.242c-0.309-0.328-0.681-0.482-1.11-0.482c-0.39,0-0.742,0.107-1.051,0.342
					c-0.313,0.229-0.541,0.562-0.69,1.006h-0.218c0.097-0.723,0.349-1.273,0.754-1.668c0.402-0.386,0.909-0.58,1.515-0.58
					c0.646,0,1.184,0.208,1.616,0.622c0.431,0.414,0.647,0.903,0.647,1.472c0,0.396-0.094,0.805-0.281,1.203
					c-0.289,0.637-0.758,1.309-1.406,2.018c-0.974,1.062-1.583,1.703-1.825,1.923h2.077c0.422,0,0.719-0.017,0.89-0.046
					c0.171-0.033,0.324-0.096,0.461-0.19c0.138-0.094,0.256-0.231,0.357-0.409h0.216V169.426L161.811,169.426z"/>
			</g>
			<g>
				<path d="M127.643,169.426l-0.557,1.533h-4.693v-0.218c1.379-1.259,2.353-2.286,2.917-3.084c0.563-0.798,0.845-1.529,0.845-2.188
					c0-0.504-0.156-0.918-0.464-1.242c-0.309-0.328-0.679-0.482-1.108-0.482c-0.392,0-0.744,0.107-1.053,0.342
					c-0.312,0.229-0.541,0.562-0.69,1.006h-0.216c0.099-0.723,0.349-1.273,0.754-1.668c0.402-0.386,0.908-0.58,1.515-0.58
					c0.645,0,1.185,0.208,1.617,0.622c0.431,0.414,0.647,0.903,0.647,1.472c0,0.396-0.096,0.805-0.282,1.203
					c-0.288,0.637-0.759,1.309-1.408,2.018c-0.974,1.062-1.582,1.703-1.825,1.923h2.079c0.42,0,0.719-0.017,0.888-0.046
					c0.171-0.033,0.323-0.096,0.461-0.19c0.137-0.094,0.256-0.231,0.357-0.409h0.216V169.426z"/>
			</g>
			<g>
				<path d="M464.428,164.518c0.229-0.539,0.518-0.949,0.857-1.242c0.349-0.291,0.778-0.438,1.294-0.438
					c0.639,0,1.127,0.207,1.469,0.621c0.256,0.309,0.386,0.639,0.386,0.991c0,0.579-0.357,1.178-1.09,1.796
					c0.487,0.191,0.858,0.465,1.107,0.82c0.252,0.354,0.377,0.771,0.377,1.254c0,0.688-0.219,1.285-0.658,1.791
					c-0.571,0.656-1.396,0.983-2.479,0.983c-0.536,0-0.898-0.065-1.1-0.198c-0.189-0.133-0.291-0.275-0.291-0.432
					c0-0.109,0.047-0.214,0.142-0.3c0.096-0.085,0.205-0.129,0.332-0.129c0.1,0,0.193,0.019,0.3,0.047
					c0.062,0.021,0.217,0.091,0.451,0.216c0.231,0.119,0.396,0.193,0.483,0.223c0.146,0.041,0.3,0.062,0.466,0.062
					c0.396,0,0.744-0.153,1.037-0.466c0.297-0.312,0.444-0.678,0.444-1.102c0-0.311-0.069-0.606-0.205-0.897
					c-0.102-0.224-0.211-0.39-0.333-0.5c-0.169-0.155-0.396-0.3-0.691-0.427c-0.294-0.129-0.594-0.188-0.896-0.188h-0.188v-0.177
					c0.312-0.038,0.619-0.147,0.936-0.335c0.309-0.187,0.538-0.404,0.679-0.664c0.143-0.261,0.21-0.539,0.21-0.854
					c0-0.396-0.126-0.729-0.379-0.975c-0.252-0.248-0.562-0.374-0.938-0.374c-0.607,0-1.111,0.325-1.521,0.974L464.428,164.518z"/>
			</g>
			<g>
				<path d="M181.834,165.868h1.056l7.995,20.403c0.322,0.823,0.979,1.231,1.974,1.231h0.696v1.128h-8.903v-1.128h0.71
					c0.923,0,1.579-0.104,1.962-0.302c0.26-0.145,0.392-0.354,0.392-0.646c0-0.171-0.035-0.354-0.107-0.543l-1.844-4.729h-8.809
					l-1.052,2.712c-0.273,0.722-0.407,1.297-0.407,1.716c0,0.492,0.231,0.915,0.685,1.27c0.461,0.353,1.126,0.522,2.001,0.522h0.756
					v1.128h-8.1v-1.127c0.868,0,1.554-0.188,2.056-0.562c0.505-0.377,0.969-1.092,1.395-2.146L181.834,165.868z M181.42,170.154
					l-3.994,9.953h7.877L181.42,170.154z"/>
			</g>
			<g>
				<path d="M202.871,165.868h11.617c2.279,0,4.025,0.502,5.234,1.506c1.211,1.006,1.813,2.265,1.813,3.783
					c0,1.266-0.421,2.338-1.263,3.225c-0.844,0.886-2.114,1.582-3.819,2.095c2.11,0.442,3.685,1.145,4.741,2.092
					c1.049,0.955,1.58,2.152,1.58,3.604c0,1.106-0.303,2.089-0.898,2.943c-0.598,0.856-1.593,1.579-2.984,2.173
					c-1.39,0.598-2.967,0.895-4.738,0.895H202.88v-1.127h1.835c0.553,0,0.96-0.091,1.213-0.271c0.256-0.179,0.385-0.388,0.385-0.615
					v-17.886c0-0.422-0.125-0.743-0.377-0.957c-0.25-0.219-0.615-0.324-1.101-0.324h-1.962v-1.134h-0.002V165.868z M209.494,176.109
					h4.236c1.301,0,2.336-0.381,3.109-1.145c0.771-0.761,1.156-2.009,1.156-3.738c0-1.07-0.184-1.904-0.551-2.51
					c-0.368-0.604-0.899-1.035-1.604-1.314c-0.7-0.274-1.911-0.412-3.637-0.412c-1.22,0-1.976,0.089-2.271,0.262
					c-0.291,0.176-0.438,0.482-0.438,0.926V176.109L209.494,176.109L209.494,176.109z M209.494,177.236v8.608
					c0,0.398,0.117,0.7,0.355,0.901c0.237,0.199,0.664,0.301,1.276,0.301h2.708c1.793,0,3.111-0.396,3.971-1.183
					c0.858-0.791,1.284-2.021,1.284-3.69c0-1.527-0.442-2.73-1.325-3.611c-0.891-0.881-2.113-1.321-3.676-1.321L209.494,177.236
					L209.494,177.236z"/>
			</g>
			<g>
				<path fill="#6200FC" d="M350.519,88.889c6.101,0.055,11.863,2.36,12.307,7.469c0.33,3.736-4.612,7.143-10.709,7.143
					c-6.151-0.057-11.859-2.311-12.355-7.411C339.426,92.292,344.42,88.889,350.519,88.889z M351.999,102.232
					c2.638,0,4.341-2.527,4.065-4.562c-0.606-4.009-1.979-7.25-5.604-7.25c-2.636,0-4.173,2.581-3.841,4.612
					C347.224,99.048,348.377,102.232,351.999,102.232z"/>
			</g>
		</g>
		<g>
			<path id="path2070" fill="#9606F4" d="M17.559,126.018c3.803-2.565,6.646-4.514,8.472-5.854c1.831-1.321,3.758-2.979,5.732-4.946
				c1.973-1.966,3.634-4.196,4.981-6.672c1.059-1.821,1.974-3.938,2.72-6.337c0.748-2.377,1.133-4.684,1.205-6.863
				c0-2.039-0.265-3.979-0.818-5.811c-0.531-1.85-1.445-3.36-2.745-4.584c-1.299-1.2-2.983-1.801-5.078-1.801
				c-2.021,0-3.924,0.406-5.704,1.197c-1.758,0.815-3.012,2.109-3.707,3.938c0,0.17-0.098,0.384-0.243,0.693
				c0.048,0.388,0.243,0.672,0.604,0.893c0.36,0.216,0.672,0.312,0.962,0.312c0.144,0,0.553-0.072,1.18-0.219
				c0.65-0.146,1.18-0.238,1.612-0.238c1.277,0,2.409,0.457,3.442,1.347c1.013,0.888,1.519,1.966,1.519,3.239
				c0,0.912-0.265,1.772-0.771,2.563c-0.504,0.793-1.203,1.438-2.093,1.896c-0.893,0.48-1.88,0.697-2.936,0.697
				c-1.928,0-3.563-0.578-4.913-1.754c-1.324-1.199-1.998-2.713-1.998-4.609c0-2.426,0.746-4.515,2.214-6.287
				c1.493-1.775,3.37-3.096,5.682-3.98c2.288-0.913,4.599-1.346,6.958-1.346c2.574,0,5.031,0.646,7.317,1.968
				c2.312,1.295,4.118,3.099,5.464,5.327c1.349,2.255,2.048,4.654,2.048,7.249c0,4.608-1.542,8.881-4.622,12.842
				c-3.083,3.962-6.885,7.396-11.436,10.32c-3.032,1.991-7.942,4.682-14.707,8.062L17.559,126.018z M50.997,88.887
				c0-0.865,0.312-1.586,0.938-2.162c0.602-0.599,1.349-0.887,2.237-0.887c0.771,0,1.494,0.333,2.144,0.98
				c0.649,0.625,0.962,1.369,0.962,2.187c0,0.863-0.335,1.604-0.962,2.208c-0.673,0.574-1.421,0.862-2.264,0.862
				c-0.89,0-1.612-0.288-2.189-0.935C51.287,90.518,50.997,89.773,50.997,88.887z M50.997,101.463c0-0.865,0.312-1.609,0.89-2.184
				c0.6-0.604,1.348-0.889,2.286-0.889c0.771,0,1.47,0.312,2.144,0.959c0.627,0.646,0.962,1.346,0.962,2.109
				c0,0.938-0.313,1.684-0.914,2.281c-0.627,0.601-1.349,0.908-2.192,0.908c-0.938,0-1.686-0.312-2.286-0.891
				C51.308,103.189,50.997,102.423,50.997,101.463z"/>
		</g>
	</g>
</g>
</svg>
