<?xml version="1.0" encoding="utf-8"?>
<!-- Generator: Adobe Illustrator 13.0.0, SVG Export Plug-In . SVG Version: 6.00 Build 14948)  -->
<!DOCTYPE svg PUBLIC "-//W3C//DTD SVG 1.0//EN" "http://www.w3.org/TR/2001/REC-SVG-20010904/DTD/svg10.dtd">
<svg version="1.0" id="Layer_1" xmlns="http://www.w3.org/2000/svg" xmlns:xlink="http://www.w3.org/1999/xlink" x="0px" y="0px"
	 width="500px" height="270px" viewBox="0 0 500 270" enable-background="new 0 0 500 270" xml:space="preserve">
<g id="Layer_1_1_">
</g>
<g id="Layer_2">
	<g id="Layer_2_1_">
		<g>
			<path d="M10.499,29.123v-1.044h462.473v1.044H10.499z M10.499,43.125v-1.153h462.473v1.153H10.499z M10.499,57.02v-1.044h462.473
				v1.044H10.499z M10.499,70.914V69.87h462.473v1.044H10.499z M10.499,84.809v-1.042h462.473v1.042H10.499z"/>
			<path fill="#F200FF" d="M35.969,83.271C24.656,77.888,22.844,70.97,22.35,63.884c-0.55-7.688,4.339-15.486,8.896-19.825
				c2.636-2.471,5.492-4.887,8.898-7.468c-0.111-1.922-0.55-2.692-0.77-5.437c-0.055-1.153-0.769-6.535,0.384-12.741
				C40.472,14.732,45.086,6.056,48.271,6c2.472-0.055,6.261,9.832,6.372,14.774c0.164,7.634-1.647,11.093-3.9,15.047
				c-1.153,1.978-2.361,3.351-3.625,4.889c-1.317,1.592-2.8,2.525-4.173,3.734c0,0,1.758,9.939,1.812,10.654
				c3.515-0.439,7.798,0.821,9.337,1.922c3.898,2.91,5.381,6.92,5.656,10.818c0.495,6.205-2.911,12.741-10.435,15.872
				c0,0,1.153,7.907,1.428,9.556c0.604,4.336,0.495,7.084-0.439,8.84c-1.592,2.966-4.173,5.711-9.171,6.043
				c-3.845,0.218-11.424-1.701-11.808-7.745c-0.221-3.57,1.373-7.413,5.71-7.687c2.636-0.22,5.767,1.977,5.986,5.106
				c0.22,2.692-1.537,5.493-6.095,6.756c0.714,0.989,2.855,2.146,5.931,2.146c3.185,0,6.479-2.146,8.073-4.998
				c0.989-1.867,0.878-5.219,0.495-8.293c-0.166-1.045-1.483-9.337-1.483-9.337C43.878,84.755,38.275,84.369,35.969,83.271z
				 M37.067,70.256c0.109,2.635,2.306,5.712,4.337,6.754c-0.273,0.166-0.548,0.605-0.548,0.605c-2.253-1.1-4.175-2.91-4.669-3.57
				c-1.592-2.14-2.251-3.349-2.471-6.59c-0.219-3.021,1.428-7.083,5.107-9.94c1.922-1.428,2.856-1.758,4.503-2.142l-1.647-9.94
				c-1.703,0.987-8.732,6.646-11.697,11.258c-2.636,4.12-4.229,7.415-3.9,11.479c0.659,9.172,10.709,16.696,21.583,14.115
				c0,0-3.24-19.497-3.187-19.497C38.495,63.005,36.902,67.62,37.067,70.256z M41.517,35.439
				c4.778-3.734,11.258-10.765,10.874-16.202c-0.109-1.701-0.823-4.777-3.295-4.723C43.438,14.569,40.251,26.375,41.517,35.439z
				 M48.985,81.844c6.317-2.142,6.592-7.579,6.372-10.82c-0.221-2.69-1.428-8.733-9.448-8.347L48.985,81.844z"/>
			<g>
				<path fill="#00FFF2" d="M124.126,77.791c4.667,0.056,7.249,3.24,5.765,7.14c-1.426,3.954-6.37,7.084-10.982,7.031
					c-4.614-0.055-7.195-3.295-5.712-7.193C114.625,80.867,119.512,77.736,124.126,77.791z"/>
				<g>
					<path d="M112.401,113.887h17.672l0.429,7.536h-1.019c-0.402-2.378-1.039-4.04-1.909-4.985c-0.87-0.947-2.003-1.42-3.399-1.42
						h-4.374c-0.352,0-0.617,0.097-0.8,0.287c-0.181,0.189-0.271,0.481-0.271,0.875v7.955h1.916c1.027,0,1.857-0.367,2.495-1.101
						c0.639-0.731,0.984-1.859,1.034-3.377h1.044v10.325h-1.044c-0.05-1.707-0.4-2.928-1.049-3.666
						c-0.649-0.741-1.532-1.109-2.646-1.109h-1.75v8.873c0,0.323,0.109,0.568,0.325,0.742c0.216,0.171,0.575,0.253,1.078,0.253
						h3.454c3.753,0,5.913-2.396,6.486-7.187h1.1l-0.377,8.312H112.4v-1.126h1.523c0.593,0,1.011-0.104,1.252-0.309
						c0.24-0.207,0.362-0.504,0.362-0.897V116.18c0-0.395-0.107-0.685-0.318-0.875c-0.211-0.192-0.541-0.287-0.996-0.287H112.4
						L112.401,113.887L112.401,113.887z"/>
				</g>
				<g enable-background="new    ">
					<path d="M113.444,72.168c0,1.006-0.468,2.002-1.404,2.99c-0.451,0.468-1.474,1.317-3.068,2.548
						c-1.404,1.109-2.41,2.054-3.016,2.834V59.142h1.196v11.57c0.918-0.797,2.011-1.196,3.276-1.196c0.866,0,1.568,0.218,2.106,0.65
						C113.141,70.634,113.444,71.302,113.444,72.168z M111.728,72.402c0-1.093-0.546-1.639-1.638-1.639
						c-0.919,0-1.898,0.451-2.938,1.353v5.746c0.901-0.711,1.742-1.474,2.522-2.288C111.043,74.17,111.728,73.113,111.728,72.402z"
						/>
				</g>
				<g enable-background="new    ">
					<path d="M114.444,107.168c0,1.006-0.468,2.002-1.404,2.99c-0.451,0.468-1.474,1.317-3.068,2.548
						c-1.404,1.109-2.41,2.054-3.016,2.834V94.142h1.196v11.57c0.918-0.797,2.011-1.196,3.276-1.196c0.866,0,1.568,0.218,2.106,0.65
						C114.141,105.634,114.444,106.302,114.444,107.168z M112.728,107.402c0-1.093-0.546-1.639-1.638-1.639
						c-0.919,0-1.898,0.451-2.938,1.353v5.746c0.901-0.711,1.742-1.474,2.522-2.288C112.043,109.17,112.728,108.113,112.728,107.402
						z"/>
				</g>
			</g>
			<g>
				<path fill="#8F00FF" d="M159.191,70.844c4.669,0.055,7.25,3.241,5.767,7.14c-1.428,3.954-6.371,7.084-10.984,7.029
					c-4.612-0.053-7.193-3.295-5.712-7.191C149.688,73.919,154.579,70.79,159.191,70.844z"/>
				<g>
					<path d="M147.915,113.887h18.153l0.297,7.723h-1.046c-0.466-2.655-1.115-4.387-1.951-5.191c-0.958-0.936-2.324-1.4-4.099-1.4
						h-3.583c-0.354,0-0.608,0.082-0.772,0.248c-0.161,0.166-0.242,0.414-0.242,0.748v8.043h1.919c1.067,0,1.919-0.352,2.552-1.056
						c0.634-0.706,0.976-1.79,1.027-3.26h1.1v10.083h-1.1c-0.07-1.668-0.412-2.855-1.027-3.57c-0.613-0.712-1.466-1.068-2.552-1.068
						h-1.919v8.521c0,0.503,0.121,0.858,0.362,1.063c0.241,0.209,0.66,0.312,1.253,0.312h2.325v1.123h-10.698v-1.127h2.288
						c0.461,0,0.79-0.093,0.984-0.277c0.196-0.186,0.293-0.493,0.293-0.913v-17.758c0-0.398-0.103-0.688-0.309-0.857
						c-0.206-0.174-0.565-0.256-1.076-0.256h-2.181L147.915,113.887L147.915,113.887z"/>
				</g>
			</g>
			<g>
				<g>
					<path fill="#EC06F9" d="M235.65,62.918c6.096,0.055,11.863,2.361,12.303,7.47c0.33,3.736-4.613,7.138-10.71,7.138
						c-6.151-0.054-11.861-2.306-12.354-7.411C224.559,66.322,229.552,62.918,235.65,62.918z M237.131,76.264
						c2.637,0,4.34-2.529,4.064-4.559c-0.605-4.009-1.979-7.25-5.604-7.25c-2.637,0-4.173,2.581-3.843,4.612
						C232.355,73.078,233.509,76.264,237.131,76.264z"/>
				</g>
				<g>
					<path d="M241.76,115.114l1.229-2.222h1.021l0.562,8.903h-0.991c-0.751-2.562-1.64-4.416-2.66-5.562
						c-1.302-1.461-2.795-2.188-4.479-2.188c-1.291,0-2.449,0.367-3.471,1.103c-1.023,0.731-1.809,1.832-2.354,3.298
						c-0.547,1.464-0.819,3.53-0.819,6.188c0,2.582,0.272,4.601,0.821,6.054c0.546,1.457,1.302,2.529,2.264,3.218
						c0.965,0.686,2.096,1.03,3.391,1.03c1.756,0,3.114-0.492,4.074-1.475c0.959-0.982,1.438-2.254,1.438-3.812v-2.092
						c0-0.332-0.13-0.588-0.386-0.769c-0.258-0.179-0.68-0.271-1.262-0.271h-1.893v-1.045h9.357v1.045h-1.268
						c-0.564,0-0.969,0.101-1.211,0.295s-0.361,0.479-0.361,0.854v8.532h-0.992c-0.359-1.327-0.737-2.604-1.129-3.821
						c-0.754,1.237-1.649,2.165-2.691,2.784c-1.04,0.616-2.219,0.928-3.537,0.928c-1.88,0-3.624-0.479-5.227-1.446
						c-1.604-0.967-2.871-2.324-3.801-4.08c-0.93-1.754-1.396-3.737-1.396-5.949c0-2.223,0.468-4.213,1.401-5.973
						c0.934-1.759,2.211-3.156,3.832-4.192c1.623-1.037,3.262-1.552,4.92-1.552c0.942,0,1.844,0.158,2.705,0.476
						C239.7,113.686,240.672,114.268,241.76,115.114z"/>
				</g>
			</g>
			<g>
				<path fill="#FF5500" d="M281.364,50.005c4.67,0.054,7.251,3.24,5.766,7.138c-1.428,3.955-6.372,7.083-10.979,7.031
					c-4.604-0.056-7.188-3.295-5.717-7.195C271.865,53.08,276.752,49.95,281.364,50.005z"/>
				<g>
					<path d="M269.104,113.887h11.614c2.279,0,4.025,0.504,5.235,1.508c1.211,1.006,1.814,2.266,1.814,3.783
						c0,1.266-0.422,2.34-1.271,3.225c-0.85,0.885-2.107,1.582-3.812,2.095c2.104,0.442,3.686,1.14,4.732,2.093
						c1.055,0.952,1.579,2.152,1.579,3.602c0,1.107-0.304,2.089-0.896,2.942c-0.604,0.856-1.598,1.581-2.979,2.175
						c-1.396,0.597-2.974,0.894-4.742,0.894h-11.271v-1.127h1.84c0.553,0,0.96-0.091,1.213-0.271
						c0.255-0.179,0.384-0.388,0.384-0.615v-17.887c0-0.423-0.124-0.744-0.377-0.959c-0.25-0.218-0.612-0.324-1.103-0.324h-1.961
						V113.887L269.104,113.887z M275.727,124.13h4.237c1.302,0,2.336-0.38,3.108-1.14c0.771-0.76,1.156-2.01,1.156-3.742
						c0-1.07-0.188-1.906-0.549-2.507c-0.369-0.604-0.9-1.038-1.606-1.317c-0.7-0.273-1.91-0.41-3.638-0.41
						c-1.229,0-1.979,0.086-2.271,0.26c-0.292,0.178-0.438,0.482-0.438,0.925V124.13L275.727,124.13L275.727,124.13z
						 M275.727,125.257v8.608c0,0.402,0.117,0.703,0.355,0.904s0.664,0.302,1.277,0.302h2.707c1.793,0,3.113-0.392,3.972-1.183
						s1.282-2.021,1.282-3.691c0-1.529-0.441-2.734-1.324-3.615c-0.891-0.881-2.111-1.322-3.676-1.322L275.727,125.257
						L275.727,125.257z"/>
				</g>
				<g enable-background="new    ">
					<path d="M274.443,45.168c0,1.006-0.467,2.002-1.403,2.99c-0.451,0.468-1.474,1.317-3.067,2.548
						c-1.404,1.109-2.41,2.054-3.017,2.834V32.142h1.196v11.57c0.918-0.797,2.01-1.196,3.271-1.196c0.867,0,1.568,0.218,2.104,0.65
						C274.141,43.634,274.443,44.302,274.443,45.168z M272.729,45.402c0-1.093-0.547-1.639-1.639-1.639
						c-0.919,0-1.898,0.451-2.938,1.353v5.746c0.896-0.711,1.742-1.474,2.521-2.288C272.043,47.17,272.729,46.113,272.729,45.402z"
						/>
				</g>
				<g enable-background="new    ">
					<path d="M273.443,106.168c0,1.006-0.467,2.002-1.403,2.99c-0.451,0.468-1.474,1.317-3.067,2.548
						c-1.404,1.109-2.41,2.054-3.017,2.834V93.142h1.196v11.57c0.918-0.797,2.01-1.196,3.271-1.196c0.867,0,1.568,0.218,2.104,0.65
						C273.141,104.634,273.443,105.302,273.443,106.168z M271.729,106.402c0-1.093-0.547-1.639-1.639-1.639
						c-0.919,0-1.898,0.451-2.938,1.353v5.746c0.896-0.711,1.742-1.474,2.521-2.288C271.043,108.17,271.729,107.113,271.729,106.402
						z"/>
				</g>
			</g>
			<g>
				<path fill="#F7F006" d="M321.625,42.497c4.67,0.053,7.252,3.24,5.766,7.138c-1.428,3.956-6.358,7.084-10.979,7.031
					c-4.612-0.055-7.188-3.295-5.708-7.195C312.121,45.572,317.013,42.441,321.625,42.497z"/>
				<g>
					<path d="M325.745,115.08l1.021-2.157h0.938l0.429,8.981h-1.019c-0.664-2.541-1.495-4.416-2.498-5.62
						c-1.243-1.511-2.729-2.263-4.454-2.263c-1.867,0-3.388,0.836-4.562,2.509c-1.175,1.672-1.756,4.503-1.756,8.493
						c0,3.355,0.675,5.912,2.021,7.679c1.146,1.492,2.752,2.235,4.812,2.235c1.812,0,3.326-0.58,4.55-1.741
						c1.229-1.162,2.022-2.914,2.396-5.259h1.072c-0.312,2.654-1.229,4.691-2.729,6.119c-1.508,1.428-3.409,2.14-5.698,2.14
						c-1.854,0-3.562-0.468-5.106-1.402c-1.562-0.937-2.795-2.278-3.729-4.034c-0.93-1.757-1.396-3.681-1.396-5.769
						c0-2.222,0.479-4.308,1.438-6.259c0.964-1.948,2.188-3.413,3.688-4.397c1.495-0.979,3.104-1.468,4.835-1.468
						c0.964,0,1.896,0.169,2.805,0.502C323.7,113.701,324.683,114.277,325.745,115.08z"/>
				</g>
			</g>
			<g>
				<path fill="#6C00F9" d="M399.405,22.215c4.668,0.055,7.249,3.24,5.766,7.14c-1.428,3.954-6.372,7.084-10.984,7.029
					c-4.604-0.056-7.188-3.295-5.71-7.193C389.904,25.29,394.791,22.16,399.405,22.215z"/>
				<g>
					<path d="M388.131,106.887h18.154l0.295,7.723h-1.046c-0.462-2.655-1.111-4.387-1.95-5.191c-0.961-0.936-2.325-1.4-4.097-1.4
						h-3.588c-0.354,0-0.608,0.082-0.771,0.248s-0.243,0.414-0.243,0.748v8.043h1.918c1.065,0,1.917-0.352,2.562-1.056
						c0.633-0.706,0.974-1.79,1.021-3.26h1.104v10.083h-1.104c-0.068-1.668-0.409-2.855-1.021-3.57
						c-0.61-0.712-1.478-1.068-2.562-1.068h-1.918v8.521c0,0.503,0.117,0.858,0.362,1.063c0.243,0.209,0.662,0.312,1.252,0.312
						h2.324v1.123h-10.697v-1.127h2.289c0.463,0,0.788-0.093,0.985-0.277c0.188-0.186,0.292-0.493,0.292-0.913v-17.758
						c0-0.398-0.104-0.688-0.312-0.857c-0.204-0.174-0.562-0.256-1.075-0.256h-2.181v-1.127h0.003v-0.002h0.004V106.887
						L388.131,106.887z"/>
				</g>
			</g>
			<g>
				<path fill="#F7E608" d="M79.411,94.27c4.667,0.054,7.249,3.24,5.766,7.138c-1.428,3.957-6.371,7.088-10.984,7.03
					c-4.614-0.054-7.192-3.295-5.71-7.192C69.908,97.348,74.797,94.214,79.411,94.27z"/>
				<g>
					<path d="M83.53,115.08l1.022-2.157h0.938l0.429,8.981H84.9c-0.666-2.541-1.495-4.416-2.498-5.62
						c-1.247-1.511-2.73-2.263-4.456-2.263c-1.867,0-3.387,0.836-4.561,2.509c-1.175,1.672-1.758,4.503-1.758,8.493
						c0,3.355,0.676,5.912,2.018,7.679c1.146,1.492,2.753,2.235,4.822,2.235c1.809,0,3.325-0.58,4.549-1.741
						c1.223-1.162,2.024-2.914,2.396-5.259h1.073c-0.312,2.654-1.22,4.691-2.729,6.119c-1.508,1.428-3.409,2.14-5.698,2.14
						c-1.86,0-3.565-0.468-5.117-1.402c-1.55-0.937-2.795-2.278-3.724-4.034c-0.929-1.757-1.395-3.681-1.395-5.769
						c0-2.222,0.479-4.308,1.438-6.259c0.96-1.948,2.187-3.413,3.684-4.397c1.494-0.979,3.107-1.468,4.835-1.468
						c0.963,0,1.896,0.169,2.8,0.502C81.485,113.701,82.468,114.277,83.53,115.08z"/>
				</g>
				<line fill="none" stroke="#000000" x1="60.794" y1="101.312" x2="93.115" y2="101.312"/>
			</g>
			<g>
				<g>
					<path fill="#8F00FF" d="M196.955,63.713c6.096,0.055,11.864,2.361,12.303,7.47c0.33,3.736-4.613,7.138-10.71,7.138
						c-6.151-0.054-11.861-2.306-12.354-7.411C185.864,67.117,190.856,63.713,196.955,63.713z M198.436,77.059
						c2.637,0,4.34-2.529,4.064-4.559c-0.605-4.009-1.979-7.25-5.604-7.25c-2.637,0-4.173,2.581-3.843,4.612
						C193.66,73.873,194.813,77.059,198.436,77.059z"/>
				</g>
				<g>
					<path d="M203.064,115.909l1.229-2.222h1.021l0.562,8.902h-0.991c-0.751-2.562-1.64-4.416-2.66-5.562
						c-1.302-1.461-2.795-2.188-4.479-2.188c-1.291,0-2.449,0.367-3.471,1.104c-1.023,0.73-1.809,1.832-2.354,3.297
						c-0.547,1.465-0.819,3.531-0.819,6.188c0,2.582,0.272,4.601,0.821,6.054c0.546,1.457,1.302,2.529,2.264,3.219
						c0.965,0.686,2.096,1.029,3.391,1.029c1.756,0,3.115-0.498,4.074-1.479s1.438-2.254,1.438-3.812v-2.092
						c0-0.332-0.13-0.588-0.386-0.769c-0.258-0.179-0.68-0.271-1.262-0.271h-1.894v-1.045h9.356v1.045h-1.268
						c-0.564,0-0.969,0.101-1.211,0.295c-0.242,0.193-0.361,0.479-0.361,0.854v8.532h-0.992c-0.358-1.327-0.736-2.604-1.129-3.821
						c-0.754,1.237-1.648,2.165-2.69,2.784c-1.04,0.611-2.219,0.928-3.537,0.928c-1.88,0-3.624-0.479-5.227-1.446
						c-1.604-0.967-2.871-2.324-3.801-4.08c-0.93-1.754-1.396-3.736-1.396-5.949c0-2.223,0.468-4.213,1.401-5.973
						c0.934-1.759,2.211-3.156,3.832-4.191c1.623-1.037,3.262-1.553,4.92-1.553c0.942,0,1.844,0.158,2.706,0.477
						C201.005,114.48,201.977,115.062,203.064,115.909z"/>
				</g>
				<g enable-background="new    ">
					<path d="M193.444,107.168c0,1.006-0.468,2.002-1.404,2.99c-0.451,0.468-1.474,1.317-3.068,2.548
						c-1.404,1.109-2.41,2.054-3.016,2.834V94.142h1.196v11.57c0.918-0.797,2.011-1.196,3.276-1.196c0.866,0,1.568,0.218,2.106,0.65
						C193.141,105.634,193.444,106.302,193.444,107.168z M191.728,107.402c0-1.093-0.546-1.639-1.638-1.639
						c-0.919,0-1.898,0.451-2.938,1.353v5.746c0.901-0.711,1.742-1.474,2.522-2.288C191.043,109.17,191.728,108.113,191.728,107.402
						z"/>
				</g>
				<g enable-background="new    ">
					<path d="M191.444,56.168c0,1.006-0.468,2.002-1.404,2.99c-0.451,0.468-1.474,1.317-3.068,2.548
						c-1.404,1.109-2.41,2.054-3.016,2.834V43.142h1.196v11.57c0.918-0.797,2.011-1.196,3.276-1.196c0.866,0,1.568,0.218,2.106,0.65
						C191.141,54.634,191.444,55.302,191.444,56.168z M189.728,56.402c0-1.093-0.546-1.639-1.638-1.639
						c-0.919,0-1.898,0.451-2.938,1.353v5.746c0.901-0.711,1.742-1.474,2.522-2.288C189.043,58.17,189.728,57.113,189.728,56.402z"
						/>
				</g>
			</g>
			<g>
				<path fill="#00FFF2" d="M364.517,28.087c4.667,0.056,7.249,3.24,5.771,7.141c-1.426,3.953-6.369,7.084-10.981,7.03
					c-4.608-0.055-7.189-3.295-5.712-7.192C355.016,31.163,359.902,28.032,364.517,28.087z"/>
				<g>
					<path d="M352.791,107.183h17.673l0.429,7.536h-1.02c-0.401-2.378-1.039-4.04-1.908-4.985c-0.87-0.946-2.004-1.42-3.396-1.42
						h-4.374c-0.354,0-0.617,0.098-0.806,0.287c-0.181,0.189-0.271,0.481-0.271,0.875v7.955h1.916c1.021,0,1.854-0.367,2.494-1.101
						c0.639-0.731,0.979-1.859,1.033-3.377h1.045v10.325h-1.045c-0.055-1.707-0.398-2.928-1.054-3.666
						c-0.646-0.741-1.526-1.109-2.646-1.109h-1.75v8.873c0,0.322,0.104,0.568,0.324,0.742c0.217,0.171,0.569,0.253,1.074,0.253
						h3.452c3.753,0,5.913-2.396,6.486-7.187h1.101l-0.378,8.312H352.78v-1.126h1.521c0.599,0,1.017-0.104,1.253-0.309
						c0.239-0.207,0.361-0.505,0.361-0.897v-17.688c0-0.395-0.104-0.685-0.316-0.875c-0.212-0.191-0.541-0.287-0.993-0.287h-1.821
						v-1.131H352.791z"/>
				</g>
				<g enable-background="new    ">
					<path d="M354.834,26.464c0,1.006-0.467,2.002-1.403,2.99c-0.446,0.468-1.474,1.317-3.062,2.548
						c-1.404,1.109-2.41,2.054-3.021,2.834V13.438h1.196v11.57c0.918-0.797,2.01-1.196,3.275-1.196c0.862,0,1.563,0.218,2.104,0.65
						C354.531,24.93,354.834,25.598,354.834,26.464z M353.119,26.698c0-1.093-0.547-1.639-1.639-1.639
						c-0.924,0-1.898,0.451-2.938,1.353v5.746c0.9-0.711,1.742-1.474,2.521-2.288C352.434,28.466,353.119,27.409,353.119,26.698z"/>
				</g>
				<g enable-background="new    ">
					<path d="M354.834,100.464c0,1.006-0.467,2.002-1.403,2.99c-0.446,0.468-1.474,1.317-3.062,2.548
						c-1.404,1.109-2.41,2.054-3.021,2.834V87.438h1.196v11.57c0.918-0.797,2.01-1.196,3.275-1.196c0.862,0,1.563,0.218,2.104,0.65
						C354.531,98.93,354.834,99.598,354.834,100.464z M353.119,100.698c0-1.093-0.547-1.639-1.639-1.639
						c-0.924,0-1.898,0.451-2.938,1.353v5.746c0.9-0.711,1.742-1.474,2.521-2.288C352.434,102.466,353.119,101.409,353.119,100.698z
						"/>
				</g>
			</g>
			<g>
				<g>
					<path fill="#8F00FF" d="M435.569,13.623c6.096,0.055,11.857,2.361,12.303,7.47c0.33,3.736-4.613,7.137-10.71,7.137
						c-6.151-0.053-11.861-2.306-12.354-7.41C424.479,17.027,429.471,13.623,435.569,13.623z M437.05,26.969
						c2.637,0,4.34-2.529,4.064-4.559c-0.605-4.009-1.979-7.25-5.604-7.25c-2.637,0-4.173,2.581-3.843,4.612
						C432.273,23.783,433.428,26.969,437.05,26.969z"/>
				</g>
				<g>
					<path d="M441.679,104.819l1.229-2.222h1.021l0.562,8.902H443.5c-0.751-2.562-1.64-4.416-2.66-5.562
						c-1.302-1.461-2.795-2.188-4.479-2.188c-1.29,0-2.448,0.367-3.476,1.104c-1.021,0.73-1.81,1.832-2.354,3.297
						c-0.548,1.465-0.819,3.531-0.819,6.188c0,2.582,0.271,4.601,0.821,6.054c0.546,1.457,1.302,2.529,2.264,3.219
						c0.966,0.686,2.103,1.029,3.396,1.029c1.756,0,3.109-0.492,4.068-1.475s1.438-2.254,1.438-3.812v-2.092
						c0-0.332-0.13-0.588-0.386-0.769c-0.263-0.179-0.686-0.271-1.268-0.271h-1.894v-1.045h9.354v1.045h-1.268
						c-0.564,0-0.969,0.101-1.211,0.295c-0.242,0.193-0.361,0.479-0.361,0.854v8.532h-0.992c-0.354-1.327-0.73-2.604-1.129-3.821
						c-0.754,1.237-1.646,2.165-2.688,2.784c-1.04,0.616-2.224,0.928-3.537,0.928c-1.88,0-3.624-0.479-5.229-1.446
						c-1.604-0.967-2.869-2.324-3.804-4.08c-0.93-1.754-1.396-3.736-1.396-5.949c0-2.223,0.469-4.213,1.396-5.973
						c0.938-1.759,2.211-3.156,3.832-4.191c1.623-1.037,3.266-1.553,4.921-1.553c0.941,0,1.848,0.158,2.705,0.477
						C439.619,103.391,440.591,103.973,441.679,104.819z"/>
				</g>
				<g enable-background="new    ">
					<path d="M432.059,96.078c0,1.006-0.469,2.002-1.399,2.99c-0.451,0.468-1.479,1.317-3.068,2.548
						c-1.403,1.109-2.409,2.054-3.016,2.834V83.052h1.19v11.57c0.919-0.797,2.017-1.196,3.277-1.196c0.865,0,1.568,0.218,2.105,0.65
						C431.755,94.544,432.059,95.212,432.059,96.078z M430.342,96.312c0-1.093-0.545-1.639-1.638-1.639
						c-0.919,0-1.897,0.451-2.938,1.353v5.746c0.902-0.711,1.742-1.474,2.522-2.288C429.657,98.08,430.342,97.023,430.342,96.312z"
						/>
				</g>
				<g enable-background="new    ">
					<path d="M430.059,6.078c0,1.006-0.469,2.002-1.399,2.99c-0.451,0.468-1.479,1.317-3.068,2.548
						c-1.403,1.109-2.409,2.054-3.016,2.834V-6.948h1.19v11.57c0.919-0.797,2.017-1.196,3.277-1.196c0.865,0,1.568,0.218,2.105,0.65
						C429.755,4.544,430.059,5.212,430.059,6.078z M428.342,6.312c0-1.093-0.545-1.639-1.638-1.639
						c-0.919,0-1.897,0.451-2.938,1.353v5.746c0.902-0.711,1.742-1.474,2.522-2.288C427.657,8.08,428.342,7.023,428.342,6.312z"/>
				</g>
			</g>
		</g>
		<g>
			<path d="M10.499,156.125v-1.044h462.473v1.044H10.499z M10.499,170.125v-1.152h462.473v1.152H10.499z M10.499,184.02v-1.043
				h462.473v1.043H10.499z M10.499,197.914v-1.044h462.473v1.044H10.499z M10.499,211.809v-1.043h462.473v1.043H10.499z"/>
			<path fill="#5406FF" d="M114.4,211.738c4.669,0.055,7.25,3.242,5.767,7.14c-1.428,3.955-6.371,7.086-10.984,7.028
				c-4.612-0.053-7.193-3.295-5.712-7.191C104.899,214.814,109.788,211.686,114.4,211.738z"/>
			<path fill="#F803FF" d="M186.126,204.791c4.667,0.057,7.249,3.238,5.765,7.141c-1.426,3.953-6.37,7.084-10.982,7.029
				c-4.614-0.055-7.195-3.295-5.712-7.193C176.625,207.866,181.512,204.734,186.126,204.791z"/>
			<g>
				<path d="M323.244,239.868h18.154l0.295,7.723h-1.044c-0.477-2.655-1.112-4.39-1.95-5.192c-0.959-0.936-2.325-1.396-4.104-1.396
					h-3.584c-0.354,0-0.604,0.083-0.771,0.249c-0.161,0.166-0.241,0.414-0.241,0.746v8.047h1.917c1.069,0,1.921-0.354,2.552-1.062
					c0.636-0.707,0.979-1.791,1.028-3.26h1.102v10.082h-1.102c-0.07-1.668-0.412-2.854-1.028-3.57
					c-0.604-0.711-1.465-1.062-2.552-1.062H330v8.521c0,0.509,0.121,0.854,0.362,1.062c0.23,0.207,0.659,0.312,1.252,0.312h2.314
					v1.123h-10.688v-1.127h2.287c0.465,0,0.79-0.101,0.979-0.275c0.194-0.188,0.294-0.493,0.294-0.915V242.12
					c0-0.397-0.103-0.688-0.311-0.858c-0.204-0.173-0.562-0.255-1.076-0.255h-2.18L323.244,239.868L323.244,239.868z"/>
			</g>
			<g>
				<path d="M415.624,242.089l1.227-2.223h1.021l0.562,8.901h-0.979c-0.751-2.562-1.646-4.416-2.66-5.562
					c-1.304-1.458-2.796-2.188-4.479-2.188c-1.291,0-2.447,0.358-3.473,1.102c-1.021,0.73-1.809,1.834-2.354,3.299
					c-0.554,1.466-0.818,3.532-0.818,6.188c0,2.582,0.271,4.604,0.818,6.062c0.55,1.456,1.306,2.521,2.268,3.218
					c0.962,0.688,2.095,1.03,3.391,1.03c1.762,0,3.113-0.492,4.074-1.479c0.96-0.979,1.438-2.252,1.438-3.812v-2.098
					c0-0.332-0.128-0.586-0.396-0.771c-0.259-0.182-0.681-0.271-1.264-0.271h-1.891v-1.045h9.354v1.045h-1.271
					c-0.563,0-0.978,0.104-1.21,0.299c-0.241,0.189-0.362,0.479-0.362,0.853v8.534h-0.992c-0.354-1.327-0.729-2.604-1.126-3.816
					c-0.753,1.23-1.652,2.164-2.688,2.78c-1.041,0.615-2.229,0.933-3.54,0.933c-1.891,0-3.62-0.479-5.229-1.442
					c-1.603-0.972-2.869-2.325-3.801-4.079c-0.929-1.759-1.396-3.738-1.396-5.949c0-2.228,0.477-4.215,1.401-5.978
					c0.932-1.763,2.212-3.152,3.833-4.19c1.619-1.031,3.258-1.55,4.917-1.55c0.945,0,1.844,0.154,2.705,0.478
					C413.565,240.66,414.537,241.242,415.624,242.089z"/>
			</g>
			<path fill="#FFE600" d="M260.312,183.951c4.668,0.053,7.25,3.24,5.764,7.139c-1.43,3.955-6.369,7.086-10.98,7.03
				c-4.613-0.056-7.193-3.295-5.708-7.194C250.812,187.027,255.697,183.895,260.312,183.951z"/>
			<path fill="#F803FF" d="M413.242,156.162c4.667,0.057,7.248,3.238,5.764,7.141c-1.428,3.953-6.37,7.084-10.979,7.03
				c-4.614-0.056-7.192-3.297-5.711-7.192C403.739,159.236,408.628,156.105,413.242,156.162z"/>
			<g>
				<path d="M103.057,239.868h18.153l0.296,7.723h-1.045c-0.464-2.655-1.113-4.39-1.951-5.192c-0.96-0.936-2.325-1.396-4.098-1.396
					h-3.586c-0.352,0-0.608,0.083-0.771,0.249c-0.161,0.166-0.242,0.414-0.242,0.746v8.047h1.917c1.066,0,1.917-0.354,2.551-1.062
					c0.632-0.707,0.974-1.791,1.026-3.26h1.103v10.082h-1.101c-0.07-1.668-0.409-2.854-1.025-3.57
					c-0.61-0.711-1.467-1.062-2.551-1.062h-1.917v8.521c0,0.509,0.117,0.854,0.362,1.062c0.243,0.207,0.661,0.312,1.252,0.312h2.325
					v1.123h-10.698v-1.127h2.289c0.463,0,0.788-0.101,0.984-0.275c0.195-0.188,0.292-0.493,0.292-0.915V242.12
					c0-0.397-0.101-0.688-0.309-0.858c-0.205-0.173-0.563-0.255-1.076-0.255h-2.18v-1.128h0.001L103.057,239.868L103.057,239.868z"
					/>
			</g>
			<g>
				<path d="M190.549,242.089l1.229-2.223h1.019l0.563,8.901h-0.992c-0.751-2.562-1.636-4.416-2.66-5.562
					c-1.302-1.458-2.796-2.188-4.479-2.188c-1.292,0-2.452,0.358-3.469,1.102c-1.024,0.73-1.807,1.834-2.353,3.299
					c-0.545,1.466-0.821,3.532-0.821,6.188c0,2.582,0.273,4.604,0.823,6.062c0.546,1.458,1.302,2.521,2.266,3.218
					c0.962,0.688,2.093,1.03,3.389,1.03c1.757,0,3.114-0.492,4.073-1.479c0.96-0.979,1.438-2.252,1.438-3.812v-2.098
					c0-0.332-0.125-0.586-0.385-0.771c-0.256-0.182-0.681-0.271-1.262-0.271h-1.894v-1.045h9.357v1.045h-1.267
					c-0.565,0-0.969,0.104-1.21,0.299c-0.245,0.189-0.364,0.479-0.364,0.853v8.534h-0.991c-0.362-1.327-0.739-2.604-1.128-3.816
					c-0.75,1.23-1.651,2.164-2.69,2.78c-1.039,0.615-2.221,0.933-3.54,0.933c-1.88,0-3.62-0.479-5.226-1.442
					c-1.606-0.972-2.871-2.325-3.801-4.079c-0.93-1.759-1.396-3.738-1.396-5.949c0-2.228,0.466-4.215,1.399-5.978
					c0.933-1.763,2.212-3.152,3.833-4.19c1.619-1.031,3.26-1.55,4.916-1.55c0.947,0,1.845,0.154,2.705,0.478
					C188.491,240.66,189.465,241.242,190.549,242.089z"/>
			</g>
			<g>
				<path d="M263.542,242.08l1.021-2.157h0.939l0.43,8.981h-1.021c-0.663-2.54-1.494-4.416-2.496-5.619
					c-1.246-1.51-2.729-2.264-4.455-2.264c-1.867,0-3.388,0.836-4.562,2.51c-1.174,1.673-1.756,4.504-1.756,8.494
					c0,3.354,0.674,5.91,2.018,7.678c1.146,1.49,2.752,2.234,4.82,2.234c1.81,0,3.326-0.578,4.549-1.74
					c1.225-1.163,2.023-2.914,2.396-5.258h1.072c-0.312,2.646-1.222,4.688-2.729,6.117c-1.506,1.428-3.408,2.141-5.699,2.141
					c-1.854,0-3.562-0.469-5.107-1.402c-1.559-0.936-2.796-2.279-3.724-4.033c-0.93-1.758-1.396-3.682-1.396-5.77
					c0-2.221,0.479-4.309,1.438-6.26c0.963-1.948,2.188-3.414,3.685-4.396c1.496-0.98,3.104-1.468,4.838-1.468
					c0.966,0,1.896,0.169,2.808,0.502C261.497,240.701,262.479,241.277,263.542,242.08z"/>
			</g>
			<line fill="none" stroke="#000000" x1="60.794" y1="228.311" x2="93.115" y2="228.311"/>
			<g>
				<path fill="#6200FC" d="M331.519,162.889c6.104,0.055,11.863,2.36,12.312,7.469c0.33,3.736-4.612,7.146-10.709,7.146
					c-6.151-0.061-11.859-2.312-12.355-7.411C320.426,166.292,325.42,162.889,331.519,162.889z M332.999,176.232
					c2.638,0,4.341-2.527,4.065-4.562c-0.606-4.009-1.979-7.25-5.604-7.25c-2.636,0-4.173,2.581-3.841,4.612
					C328.224,173.048,329.377,176.232,332.999,176.232z"/>
			</g>
			<g>
				<path fill="#00FFF2" d="M79.126,220.791c4.667,0.057,7.249,3.24,5.765,7.141c-1.426,3.953-6.369,7.084-10.981,7.03
					c-4.614-0.055-7.195-3.295-5.712-7.192C69.625,223.867,74.512,220.736,79.126,220.791z"/>
				<g>
					<path d="M67.401,239.887h17.672l0.429,7.536h-1.02c-0.401-2.378-1.039-4.04-1.908-4.985c-0.87-0.94-2.004-1.42-3.399-1.42
						h-4.374c-0.352,0-0.617,0.104-0.8,0.287c-0.181,0.189-0.271,0.481-0.271,0.875v7.955h1.916c1.026,0,1.856-0.367,2.494-1.101
						c0.639-0.731,0.984-1.859,1.034-3.377h1.044v10.325h-1.044c-0.05-1.707-0.399-2.928-1.049-3.666
						c-0.649-0.741-1.532-1.109-2.646-1.109h-1.75v8.873c0,0.322,0.108,0.568,0.324,0.742c0.217,0.171,0.575,0.253,1.078,0.253
						h3.454c3.753,0,5.913-2.396,6.486-7.187h1.1l-0.377,8.312H67.4v-1.126h1.523c0.593,0,1.011-0.104,1.252-0.309
						c0.24-0.207,0.362-0.511,0.362-0.897V242.18c0-0.395-0.107-0.685-0.318-0.875c-0.211-0.188-0.541-0.287-0.996-0.287H67.4
						L67.401,239.887L67.401,239.887z"/>
				</g>
				<g enable-background="new    ">
					<path d="M68.444,216.168c0,1.006-0.468,2.002-1.404,2.99c-0.451,0.468-1.474,1.316-3.068,2.548
						c-1.404,1.108-2.41,2.054-3.016,2.834v-21.397h1.196v11.569c0.918-0.797,2.011-1.196,3.276-1.196
						c0.866,0,1.568,0.219,2.106,0.65C68.141,214.634,68.444,215.302,68.444,216.168z M66.728,216.402
						c0-1.094-0.546-1.639-1.638-1.639c-0.919,0-1.898,0.446-2.938,1.353v5.745c0.901-0.711,1.742-1.477,2.522-2.287
						C66.043,218.17,66.728,217.113,66.728,216.402z"/>
				</g>
			</g>
			<g>
				<g>
					<path fill="#8F00FF" d="M145.955,203.713c6.096,0.055,11.863,2.361,12.303,7.471c0.33,3.735-4.613,7.137-10.71,7.137
						c-6.151-0.053-11.861-2.305-12.354-7.404C134.864,207.117,139.856,203.713,145.955,203.713z M147.436,217.059
						c2.637,0,4.34-2.524,4.064-4.559c-0.605-4.01-1.979-7.25-5.604-7.25c-2.637,0-4.173,2.581-3.843,4.611
						C142.66,213.873,143.813,217.059,147.436,217.059z"/>
				</g>
				<g>
					<path d="M152.064,241.909l1.229-2.222h1.021l0.562,8.896h-0.991c-0.751-2.562-1.64-4.416-2.66-5.562
						c-1.302-1.461-2.795-2.188-4.479-2.188c-1.291,0-2.448,0.367-3.47,1.104c-1.023,0.729-1.809,1.832-2.354,3.299
						c-0.547,1.466-0.819,3.529-0.819,6.188c0,2.582,0.272,4.604,0.821,6.058c0.546,1.457,1.302,2.525,2.264,3.221
						c0.965,0.688,2.096,1.027,3.391,1.027c1.756,0,3.115-0.49,4.074-1.479c0.959-0.982,1.438-2.254,1.438-3.812v-2.092
						c0-0.332-0.13-0.589-0.386-0.771c-0.258-0.183-0.68-0.271-1.262-0.271h-1.894v-1.046h9.356v1.046h-1.268
						c-0.564,0-0.969,0.104-1.211,0.295c-0.242,0.191-0.361,0.479-0.361,0.854v8.532h-0.992c-0.358-1.327-0.736-2.604-1.129-3.821
						c-0.754,1.236-1.648,2.165-2.69,2.784c-1.04,0.612-2.22,0.928-3.537,0.928c-1.88,0-3.624-0.479-5.227-1.442
						c-1.604-0.971-2.871-2.324-3.801-4.08c-0.93-1.754-1.396-3.734-1.396-5.947c0-2.225,0.468-4.215,1.401-5.975
						c0.934-1.763,2.211-3.156,3.832-4.189c1.623-1.037,3.262-1.555,4.92-1.555c0.941,0,1.844,0.158,2.705,0.479
						C150.005,240.48,150.977,241.062,152.064,241.909z"/>
				</g>
				<g enable-background="new    ">
					<path d="M142.444,233.168c0,1.006-0.468,2.002-1.404,2.99c-0.451,0.468-1.474,1.316-3.068,2.548
						c-1.404,1.108-2.41,2.054-3.016,2.834v-21.397h1.196v11.569c0.918-0.797,2.011-1.196,3.276-1.196
						c0.866,0,1.568,0.219,2.106,0.65C142.141,231.634,142.444,232.302,142.444,233.168z M140.728,233.402
						c0-1.094-0.546-1.639-1.638-1.639c-0.919,0-1.898,0.446-2.938,1.353v5.745c0.901-0.711,1.742-1.477,2.522-2.287
						C140.043,235.17,140.728,234.113,140.728,233.402z"/>
				</g>
				<g enable-background="new    ">
					<path d="M140.444,196.168c0,1.006-0.468,2.002-1.404,2.99c-0.451,0.468-1.474,1.316-3.068,2.548
						c-1.404,1.108-2.41,2.054-3.016,2.834v-21.397h1.196v11.569c0.918-0.797,2.011-1.196,3.276-1.196
						c0.866,0,1.568,0.219,2.106,0.65C140.141,194.634,140.444,195.302,140.444,196.168z M138.728,196.402
						c0-1.094-0.546-1.639-1.638-1.639c-0.919,0-1.898,0.446-2.938,1.353v5.745c0.901-0.711,1.742-1.477,2.522-2.287
						C138.043,198.17,138.728,197.113,138.728,196.402z"/>
				</g>
			</g>
			<g>
				<path fill="#FF5500" d="M225.868,190.923c4.67,0.054,7.251,3.24,5.766,7.138c-1.428,3.955-6.372,7.084-10.979,7.031
					c-4.61-0.056-7.193-3.295-5.717-7.195C216.369,193.998,221.256,190.868,225.868,190.923z"/>
				<g>
					<path d="M213.607,240.805h11.614c2.279,0,4.025,0.504,5.235,1.508c1.211,1.006,1.814,2.271,1.814,3.783
						c0,1.266-0.422,2.34-1.268,3.225c-0.846,0.892-2.111,1.582-3.812,2.102c2.104,0.438,3.682,1.146,4.734,2.096
						c1.052,0.949,1.579,2.149,1.579,3.604c0,1.104-0.302,2.089-0.896,2.939c-0.601,0.854-1.594,1.578-2.98,2.176
						c-1.395,0.599-2.971,0.896-4.742,0.896h-11.273V262h1.84c0.553,0,0.96-0.091,1.213-0.271c0.255-0.182,0.384-0.391,0.384-0.611
						v-17.891c0-0.426-0.124-0.744-0.377-0.959c-0.25-0.221-0.612-0.324-1.103-0.324h-1.961L213.607,240.805L213.607,240.805z
						 M220.23,251.048h4.237c1.302,0,2.336-0.38,3.108-1.14c0.771-0.76,1.156-2.01,1.156-3.742c0-1.07-0.188-1.906-0.549-2.507
						c-0.369-0.604-0.9-1.038-1.606-1.317c-0.7-0.273-1.91-0.41-3.638-0.41c-1.224,0-1.978,0.086-2.271,0.26
						c-0.292,0.185-0.438,0.482-0.438,0.932L220.23,251.048L220.23,251.048L220.23,251.048z M220.23,252.175v8.608
						c0,0.402,0.117,0.703,0.355,0.904c0.238,0.196,0.664,0.301,1.277,0.301h2.707c1.793,0,3.113-0.391,3.972-1.182
						s1.282-2.021,1.282-3.691c0-1.529-0.441-2.734-1.324-3.615c-0.891-0.881-2.111-1.322-3.676-1.322L220.23,252.175
						L220.23,252.175z"/>
				</g>
				<g enable-background="new    ">
					<path d="M218.948,186.086c0,1.006-0.468,2.002-1.404,2.99c-0.451,0.468-1.474,1.316-3.068,2.548
						c-1.404,1.108-2.41,2.054-3.016,2.834v-21.397h1.196v11.569c0.918-0.797,2.011-1.196,3.276-1.196
						c0.866,0,1.568,0.219,2.106,0.65C218.645,184.552,218.948,185.22,218.948,186.086z M217.232,186.32
						c0-1.094-0.546-1.639-1.638-1.639c-0.919,0-1.898,0.446-2.938,1.353v5.746c0.901-0.712,1.742-1.474,2.522-2.288
						C216.547,188.088,217.232,187.031,217.232,186.32z"/>
				</g>
				<g enable-background="new    ">
					<path d="M217.948,233.086c0,1.006-0.468,2.002-1.404,2.99c-0.451,0.468-1.474,1.316-3.068,2.548
						c-1.404,1.108-2.41,2.054-3.016,2.834v-21.397h1.196v11.569c0.918-0.797,2.011-1.196,3.276-1.196
						c0.866,0,1.568,0.219,2.106,0.65C217.645,231.552,217.948,232.22,217.948,233.086z M216.232,233.32
						c0-1.094-0.546-1.639-1.638-1.639c-0.919,0-1.898,0.446-2.938,1.353v5.746c0.901-0.712,1.742-1.474,2.522-2.288
						C215.547,235.088,216.232,234.031,216.232,233.32z"/>
				</g>
			</g>
			<g>
				<path fill="#00FFF2" d="M295.518,170.087c4.666,0.056,7.248,3.24,5.77,7.142c-1.432,3.953-6.369,7.084-10.979,7.029
					c-4.613-0.055-7.195-3.295-5.716-7.191C286.016,173.163,290.902,170.031,295.518,170.087z"/>
				<g>
					<path d="M283.791,240.184h17.673l0.429,7.535h-1.02c-0.4-2.378-1.039-4.039-1.908-4.984c-0.869-0.941-2.004-1.42-3.398-1.42
						h-4.375c-0.352,0-0.611,0.103-0.799,0.287c-0.182,0.188-0.271,0.48-0.271,0.875v7.955h1.916c1.024,0,1.854-0.367,2.493-1.102
						c0.64-0.73,0.984-1.859,1.033-3.377h1.045v10.324h-1.045c-0.049-1.707-0.397-2.928-1.049-3.666
						c-0.647-0.74-1.531-1.108-2.646-1.108h-1.75v8.873c0,0.322,0.107,0.567,0.322,0.742c0.219,0.171,0.576,0.253,1.078,0.253h3.455
						c3.752,0,5.908-2.396,6.481-7.188h1.104l-0.377,8.312h-18.396v-1.126h1.521c0.594,0,1.012-0.104,1.252-0.311
						c0.236-0.207,0.358-0.508,0.358-0.896v-17.688c0-0.396-0.104-0.688-0.313-0.875c-0.211-0.19-0.541-0.287-0.996-0.287h-1.821
						v-1.131h0.002L283.791,240.184L283.791,240.184z"/>
				</g>
				<g enable-background="new    ">
					<path d="M285.834,166.464c0,1.006-0.467,2.002-1.402,2.99c-0.451,0.468-1.475,1.317-3.063,2.548
						c-1.404,1.109-2.41,2.055-3.021,2.834v-21.398h1.195v11.57c0.918-0.797,2.01-1.195,3.275-1.195
						c0.867,0,1.565,0.222,2.104,0.649C285.531,164.93,285.834,165.598,285.834,166.464z M284.119,166.698
						c0-1.093-0.547-1.64-1.639-1.64c-0.92,0-1.898,0.447-2.938,1.354v5.746c0.899-0.711,1.742-1.475,2.521-2.288
						C283.434,168.466,284.119,167.409,284.119,166.698z"/>
				</g>
				<g enable-background="new    ">
					<path d="M285.834,233.464c0,1.006-0.467,2.002-1.402,2.99c-0.451,0.468-1.475,1.317-3.063,2.548
						c-1.404,1.109-2.41,2.055-3.021,2.834v-21.398h1.195v11.57c0.918-0.797,2.01-1.195,3.275-1.195
						c0.867,0,1.565,0.222,2.104,0.649C285.531,231.93,285.834,232.598,285.834,233.464z M284.119,233.698
						c0-1.093-0.547-1.64-1.639-1.64c-0.92,0-1.898,0.447-2.938,1.354v5.746c0.899-0.711,1.742-1.475,2.521-2.288
						C283.434,235.466,284.119,234.409,284.119,233.698z"/>
				</g>
			</g>
			<g>
				<g>
					<path fill="#8F00FF" d="M372.955,155.713c6.096,0.055,11.863,2.361,12.303,7.471c0.33,3.735-4.613,7.137-10.71,7.137
						c-6.146-0.053-11.855-2.305-12.354-7.404C361.863,159.117,366.856,155.713,372.955,155.713z M374.436,169.059
						c2.643,0,4.346-2.524,4.064-4.559c-0.605-4.01-1.979-7.25-5.604-7.25c-2.643,0-4.179,2.581-3.849,4.611
						C369.66,165.873,370.812,169.059,374.436,169.059z"/>
				</g>
				<g>
					<path d="M379.064,241.909l1.229-2.222h1.021l0.562,8.896h-0.991c-0.751-2.562-1.64-4.416-2.66-5.562
						c-1.302-1.461-2.795-2.188-4.479-2.188c-1.291,0-2.448,0.367-3.471,1.104c-1.022,0.729-1.812,1.832-2.354,3.299
						c-0.547,1.466-0.819,3.529-0.819,6.188c0,2.582,0.272,4.604,0.821,6.058c0.546,1.457,1.302,2.525,2.27,3.221
						c0.965,0.688,2.096,1.027,3.391,1.027c1.756,0,3.115-0.49,4.074-1.479c0.959-0.982,1.438-2.254,1.438-3.812v-2.092
						c0-0.332-0.13-0.589-0.386-0.771c-0.258-0.183-0.68-0.271-1.262-0.271h-1.896v-1.046h9.356v1.046h-1.271
						c-0.562,0-0.969,0.104-1.211,0.295s-0.355,0.479-0.355,0.854v8.532h-0.992c-0.358-1.327-0.736-2.604-1.129-3.821
						c-0.754,1.236-1.648,2.165-2.69,2.784c-1.04,0.612-2.22,0.928-3.537,0.928c-1.88,0-3.624-0.479-5.228-1.442
						c-1.604-0.971-2.871-2.324-3.801-4.08c-0.936-1.754-1.396-3.734-1.396-5.947c0-2.225,0.468-4.215,1.401-5.975
						c0.933-1.763,2.211-3.156,3.832-4.189c1.623-1.037,3.262-1.555,4.92-1.555c0.938,0,1.844,0.158,2.705,0.479
						C377.005,240.48,377.977,241.062,379.064,241.909z"/>
				</g>
				<g enable-background="new    ">
					<path d="M369.443,233.168c0,1.006-0.472,2.002-1.403,2.99c-0.451,0.468-1.474,1.316-3.067,2.548
						c-1.399,1.108-2.41,2.054-3.017,2.834v-21.397h1.196v11.569c0.918-0.797,2.01-1.196,3.271-1.196
						c0.867,0,1.568,0.219,2.106,0.65C369.141,231.634,369.443,232.302,369.443,233.168z M367.729,233.402
						c0-1.094-0.547-1.639-1.639-1.639c-0.919,0-1.896,0.446-2.938,1.353v5.745c0.896-0.711,1.737-1.477,2.521-2.287
						C367.043,235.17,367.729,234.113,367.729,233.402z"/>
				</g>
				<g enable-background="new    ">
					<path d="M367.443,148.168c0,1.006-0.472,2.002-1.403,2.99c-0.451,0.468-1.474,1.316-3.067,2.548
						c-1.399,1.108-2.41,2.054-3.017,2.834v-21.398h1.196v11.57c0.918-0.797,2.01-1.196,3.271-1.196c0.867,0,1.568,0.219,2.106,0.65
						C367.141,146.634,367.443,147.302,367.443,148.168z M365.729,148.402c0-1.094-0.547-1.639-1.639-1.639
						c-0.919,0-1.896,0.446-2.938,1.353v5.745c0.896-0.711,1.737-1.477,2.521-2.287C365.043,150.17,365.729,149.113,365.729,148.402
						z"/>
				</g>
			</g>
			<g>
				<path fill="#FF5500" d="M456.364,142.005c4.67,0.054,7.251,3.24,5.766,7.138c-1.428,3.955-6.372,7.084-10.979,7.031
					c-4.61-0.056-7.193-3.295-5.723-7.195C446.865,145.08,451.752,141.95,456.364,142.005z"/>
				<g>
					<path d="M444.104,240.887h11.614c2.279,0,4.025,0.504,5.235,1.508c1.211,1.006,1.812,2.271,1.812,3.783
						c0,1.266-0.422,2.34-1.268,3.225c-0.846,0.892-2.111,1.582-3.812,2.102c2.104,0.438,3.688,1.146,4.734,2.094
						c1.052,0.951,1.579,2.151,1.579,3.604c0,1.104-0.302,2.089-0.896,2.938c-0.601,0.854-1.594,1.579-2.979,2.176
						c-1.396,0.601-2.971,0.896-4.742,0.896H444.11v-1.127h1.84c0.553,0,0.96-0.091,1.213-0.271
						c0.255-0.183,0.384-0.392,0.384-0.612v-17.89c0-0.427-0.124-0.744-0.377-0.959c-0.25-0.222-0.612-0.324-1.103-0.324h-1.961
						L444.104,240.887L444.104,240.887z M450.727,251.13h4.237c1.302,0,2.336-0.38,3.108-1.14c0.771-0.76,1.15-2.01,1.15-3.742
						c0-1.07-0.188-1.906-0.549-2.507c-0.369-0.604-0.896-1.038-1.604-1.317c-0.7-0.273-1.91-0.41-3.644-0.41
						c-1.224,0-1.978,0.086-2.271,0.26c-0.292,0.185-0.438,0.482-0.438,0.932L450.727,251.13L450.727,251.13L450.727,251.13z
						 M450.727,252.257v8.608c0,0.402,0.117,0.703,0.355,0.904c0.238,0.195,0.664,0.301,1.277,0.301h2.707
						c1.793,0,3.107-0.396,3.972-1.187c0.858-0.79,1.282-2.021,1.282-3.688c0-1.528-0.441-2.733-1.324-3.614
						c-0.891-0.881-2.111-1.322-3.676-1.322L450.727,252.257L450.727,252.257z"/>
				</g>
				<g enable-background="new    ">
					<path d="M447.693,140.243c0,0.636-0.297,1.267-0.891,1.892c-0.286,0.297-0.933,0.833-1.938,1.612
						c-0.89,0.701-1.524,1.299-1.908,1.793v-13.539h0.757v7.319c0.581-0.504,1.271-0.756,2.071-0.756
						c0.549,0,0.992,0.139,1.333,0.412C447.502,139.271,447.693,139.695,447.693,140.243z M446.608,140.393
						c0-0.69-0.349-1.037-1.037-1.037c-0.581,0-1.199,0.283-1.858,0.854v3.635c0.568-0.448,1.104-0.932,1.595-1.446
						C446.175,141.51,446.608,140.841,446.608,140.393z"/>
				</g>
				<g enable-background="new    ">
					<path d="M448.443,233.168c0,1.006-0.472,2.002-1.403,2.99c-0.451,0.468-1.474,1.316-3.067,2.548
						c-1.399,1.108-2.41,2.054-3.017,2.834v-21.397h1.196v11.569c0.918-0.797,2.01-1.196,3.271-1.196
						c0.867,0,1.568,0.219,2.106,0.65C448.141,231.634,448.443,232.302,448.443,233.168z M446.729,233.402
						c0-1.094-0.547-1.639-1.639-1.639c-0.919,0-1.896,0.446-2.938,1.353v5.745c0.896-0.711,1.737-1.477,2.521-2.287
						C446.043,235.17,446.729,234.113,446.729,233.402z"/>
				</g>
			</g>
		</g>
		<g>
			<path id="path2070" fill="#9606F4" d="M15.559,200.018c3.803-2.562,6.646-4.514,8.472-5.854c1.831-1.321,3.758-2.979,5.732-4.946
				c1.973-1.966,3.634-4.196,4.981-6.672c1.059-1.821,1.974-3.938,2.72-6.337c0.748-2.377,1.133-4.684,1.205-6.863
				c0-2.039-0.265-3.979-0.818-5.811c-0.531-1.85-1.445-3.36-2.745-4.584c-1.299-1.2-2.983-1.801-5.078-1.801
				c-2.021,0-3.924,0.406-5.704,1.197c-1.758,0.812-3.012,2.104-3.707,3.938c0,0.17-0.098,0.384-0.243,0.693
				c0.048,0.388,0.243,0.672,0.604,0.893c0.36,0.216,0.672,0.312,0.962,0.312c0.144,0,0.553-0.072,1.18-0.226
				c0.65-0.146,1.18-0.231,1.612-0.231c1.277,0,2.409,0.457,3.442,1.347c1.013,0.888,1.519,1.966,1.519,3.239
				c0,0.912-0.265,1.771-0.771,2.562c-0.504,0.793-1.203,1.438-2.093,1.896c-0.893,0.479-1.88,0.696-2.936,0.696
				c-1.928,0-3.563-0.577-4.913-1.754c-1.324-1.198-1.998-2.713-1.998-4.608c0-2.426,0.746-4.516,2.214-6.287
				c1.493-1.771,3.37-3.096,5.682-3.979c2.288-0.913,4.599-1.346,6.958-1.346c2.574,0,5.031,0.646,7.317,1.968
				c2.312,1.295,4.118,3.101,5.464,5.327c1.349,2.255,2.048,4.652,2.048,7.249c0,4.606-1.542,8.881-4.622,12.842
				c-3.083,3.962-6.885,7.396-11.436,10.32c-3.032,1.989-7.942,4.682-14.707,8.062L15.559,200.018z M48.997,162.887
				c0-0.865,0.312-1.586,0.938-2.162c0.602-0.599,1.349-0.887,2.237-0.887c0.771,0,1.494,0.333,2.144,0.98
				c0.649,0.625,0.962,1.369,0.962,2.187c0,0.863-0.335,1.604-0.962,2.208c-0.673,0.574-1.421,0.862-2.264,0.862
				c-0.89,0-1.612-0.288-2.189-0.935C49.287,164.518,48.997,163.773,48.997,162.887z M48.997,175.463
				c0-0.865,0.312-1.609,0.89-2.184c0.6-0.604,1.348-0.889,2.286-0.889c0.771,0,1.47,0.312,2.144,0.959
				c0.627,0.646,0.962,1.346,0.962,2.104c0,0.938-0.313,1.688-0.914,2.275c-0.627,0.604-1.349,0.907-2.192,0.907
				c-0.938,0-1.686-0.312-2.286-0.891C49.308,177.189,48.997,176.423,48.997,175.463z"/>
		</g>
	</g>
</g>
<g>
	<path d="M222.56,58.053V43.837l0.946-0.237v5.559l4.802-1.373V62.5l-0.946,0.308V56.54L222.56,58.053z M223.506,55.049l3.855-1.088
		v-3.193l-3.855,1.088V55.049z"/>
</g>
<g>
	<path d="M172.811,200.053v-14.215l0.945-0.236v5.562l4.803-1.373v14.71l-0.947,0.309v-6.27L172.811,200.053z M173.756,197.049
		l3.855-1.088v-3.193l-3.855,1.088V197.049z"/>
</g>
<g>
	<path d="M399.811,153.803v-14.215l0.945-0.236v5.562l4.803-1.373v14.713l-0.944,0.312v-6.271L399.811,153.803z M400.756,150.799
		l3.855-1.088v-3.193l-3.855,1.088V150.799z"/>
</g>
</svg>
