<?xml version="1.0" encoding="utf-8"?>
<!-- Generator: Adobe Illustrator 13.0.0, SVG Export Plug-In . SVG Version: 6.00 Build 14948)  -->
<!DOCTYPE svg PUBLIC "-//W3C//DTD SVG 1.0//EN" "http://www.w3.org/TR/2001/REC-SVG-20010904/DTD/svg10.dtd">
<svg version="1.0" id="Layer_1" xmlns="http://www.w3.org/2000/svg" xmlns:xlink="http://www.w3.org/1999/xlink" x="0px" y="0px"
	 width="500px" height="270px" viewBox="0 0 500 270" enable-background="new 0 0 500 270" xml:space="preserve">
<g id="Layer_1_1_">
</g>
<g id="Layer_2">
	<g id="Layer_2_1_">
		<g>
			<path d="M10.499,29.123v-1.044h462.473v1.044H10.499z M10.499,43.125v-1.153h462.473v1.153H10.499z M10.499,57.02v-1.044h462.473
				v1.044H10.499z M10.499,70.914V69.87h462.473v1.044H10.499z M10.499,84.809v-1.042h462.473v1.042H10.499z"/>
			<path fill="#F200FF" d="M35.969,83.271C24.656,77.888,22.844,70.97,22.35,63.884c-0.55-7.688,4.339-15.486,8.896-19.825
				c2.636-2.471,5.492-4.887,8.898-7.468c-0.111-1.922-0.55-2.692-0.77-5.437c-0.055-1.153-0.769-6.535,0.384-12.741
				C40.472,14.732,45.086,6.056,48.271,6c2.472-0.055,6.261,9.832,6.372,14.774c0.164,7.634-1.647,11.093-3.9,15.047
				c-1.153,1.978-2.361,3.351-3.625,4.889c-1.317,1.592-2.8,2.525-4.173,3.734c0,0,1.758,9.939,1.812,10.654
				c3.515-0.439,7.798,0.821,9.337,1.922c3.898,2.91,5.381,6.92,5.656,10.818c0.495,6.205-2.911,12.741-10.435,15.872
				c0,0,1.153,7.907,1.428,9.556c0.604,4.336,0.495,7.084-0.439,8.84c-1.592,2.966-4.173,5.711-9.171,6.043
				c-3.845,0.218-11.424-1.701-11.808-7.745c-0.221-3.57,1.373-7.413,5.71-7.687c2.636-0.22,5.767,1.977,5.986,5.106
				c0.22,2.692-1.537,5.493-6.095,6.756c0.714,0.989,2.855,2.146,5.931,2.146c3.185,0,6.479-2.146,8.073-4.998
				c0.989-1.867,0.878-5.219,0.495-8.293c-0.166-1.045-1.483-9.337-1.483-9.337C43.878,84.755,38.275,84.369,35.969,83.271z
				 M37.067,70.256c0.109,2.635,2.306,5.712,4.337,6.754c-0.273,0.166-0.548,0.605-0.548,0.605c-2.253-1.1-4.175-2.91-4.669-3.57
				c-1.592-2.14-2.251-3.349-2.471-6.59c-0.219-3.021,1.428-7.083,5.107-9.94c1.922-1.428,2.856-1.758,4.503-2.142l-1.647-9.94
				c-1.703,0.987-8.732,6.646-11.697,11.258c-2.636,4.12-4.229,7.415-3.9,11.479c0.659,9.172,10.709,16.696,21.583,14.115
				c0,0-3.24-19.497-3.187-19.497C38.495,63.005,36.902,67.62,37.067,70.256z M41.517,35.439
				c4.778-3.734,11.258-10.765,10.874-16.202c-0.109-1.701-0.823-4.777-3.295-4.723C43.438,14.569,40.251,26.375,41.517,35.439z
				 M48.985,81.844c6.317-2.142,6.592-7.579,6.372-10.82c-0.221-2.69-1.428-8.733-9.448-8.347L48.985,81.844z"/>
			<g>
				<path fill="#008F00" d="M114.4,84.738c4.669,0.055,7.25,3.243,5.767,7.14c-1.428,3.955-6.371,7.086-10.984,7.029
					c-4.612-0.052-7.193-3.295-5.712-7.191C104.899,87.815,109.788,84.686,114.4,84.738z"/>
				<g>
					<path d="M100.852,113.887h11.524c1.709,0,3.163,0.303,4.359,0.905c1.488,0.763,2.752,2.036,3.793,3.815
						c1.039,1.781,1.562,3.887,1.562,6.32c0,2.012-0.313,3.825-0.935,5.434c-0.473,1.238-1.2,2.32-2.181,3.244
						c-0.98,0.925-2.174,1.617-3.582,2.083c-1.056,0.34-2.464,0.514-4.224,0.514h-10.316v-1.126h2.117
						c0.537,0,0.905-0.085,1.113-0.253c0.208-0.174,0.31-0.439,0.31-0.803V116.04c0-0.312-0.11-0.561-0.332-0.748
						c-0.225-0.186-0.531-0.277-0.923-0.277h-2.285V113.887z M108.912,115.016c-0.454,0-0.788,0.096-1.006,0.287
						c-0.216,0.188-0.323,0.476-0.323,0.859v17.811c0,0.36,0.125,0.637,0.377,0.819c0.251,0.187,0.681,0.28,1.284,0.28h1.904
						c1.703,0,3.191-0.438,4.471-1.312c0.836-0.584,1.47-1.404,1.904-2.463c0.593-1.428,0.892-3.398,0.892-5.915
						c0-3.724-0.649-6.45-1.949-8.18c-1.108-1.461-2.781-2.188-5.017-2.188h-2.537V115.016z"/>
				</g>
			</g>
			<g>
				<path fill="#0C00FF" d="M148.126,77.791c4.667,0.056,7.249,3.24,5.765,7.14c-1.426,3.954-6.37,7.084-10.982,7.031
					c-4.614-0.055-7.195-3.295-5.712-7.193C138.625,80.867,143.512,77.736,148.126,77.791z"/>
				<g>
					<path d="M136.401,113.887h17.672l0.429,7.536h-1.019c-0.402-2.378-1.039-4.04-1.909-4.985c-0.87-0.947-2.003-1.42-3.399-1.42
						h-4.374c-0.352,0-0.617,0.097-0.8,0.287c-0.181,0.189-0.271,0.481-0.271,0.875v7.955h1.916c1.027,0,1.857-0.367,2.495-1.101
						c0.639-0.731,0.984-1.859,1.034-3.377h1.044v10.325h-1.044c-0.05-1.707-0.4-2.928-1.049-3.666
						c-0.649-0.741-1.532-1.109-2.646-1.109h-1.75v8.873c0,0.323,0.109,0.568,0.325,0.742c0.216,0.171,0.575,0.253,1.078,0.253
						h3.454c3.753,0,5.913-2.396,6.486-7.187h1.1l-0.377,8.312H136.4v-1.126h1.523c0.593,0,1.011-0.104,1.252-0.309
						c0.24-0.207,0.362-0.504,0.362-0.897V116.18c0-0.395-0.107-0.685-0.318-0.875c-0.211-0.192-0.541-0.287-0.996-0.287H136.4
						L136.401,113.887L136.401,113.887z"/>
				</g>
			</g>
			<g>
				<path fill="#8F00FF" d="M182.191,70.844c4.669,0.055,7.25,3.241,5.767,7.14c-1.428,3.954-6.371,7.084-10.984,7.029
					c-4.612-0.053-7.193-3.295-5.712-7.191C172.688,73.919,177.579,70.79,182.191,70.844z"/>
				<g>
					<path d="M170.915,113.887h18.153l0.297,7.723h-1.046c-0.466-2.655-1.115-4.387-1.951-5.191c-0.958-0.936-2.324-1.4-4.099-1.4
						h-3.583c-0.354,0-0.608,0.082-0.772,0.248c-0.161,0.166-0.242,0.414-0.242,0.748v8.043h1.919c1.067,0,1.919-0.352,2.552-1.056
						c0.634-0.706,0.976-1.79,1.027-3.26h1.1v10.083h-1.1c-0.07-1.668-0.412-2.855-1.027-3.57c-0.613-0.712-1.466-1.068-2.552-1.068
						h-1.919v8.521c0,0.503,0.121,0.858,0.362,1.063c0.241,0.209,0.66,0.312,1.253,0.312h2.325v1.123h-10.698v-1.127h2.288
						c0.461,0,0.79-0.093,0.984-0.277c0.196-0.186,0.293-0.493,0.293-0.913v-17.758c0-0.398-0.103-0.688-0.309-0.857
						c-0.206-0.174-0.565-0.256-1.076-0.256h-2.181L170.915,113.887L170.915,113.887z"/>
				</g>
			</g>
			<g>
				<g>
					<path fill="#EC06F9" d="M213.65,62.918c6.096,0.055,11.863,2.361,12.303,7.47c0.33,3.736-4.613,7.138-10.71,7.138
						c-6.151-0.054-11.861-2.306-12.354-7.411C202.559,66.322,207.552,62.918,213.65,62.918z M215.131,76.264
						c2.637,0,4.34-2.529,4.064-4.559c-0.605-4.009-1.979-7.25-5.604-7.25c-2.637,0-4.173,2.581-3.843,4.612
						C210.355,73.078,211.509,76.264,215.131,76.264z"/>
				</g>
				<g>
					<path d="M219.76,115.114l1.229-2.222h1.021l0.562,8.903h-0.991c-0.751-2.562-1.64-4.416-2.66-5.562
						c-1.302-1.461-2.795-2.188-4.479-2.188c-1.291,0-2.449,0.367-3.471,1.103c-1.023,0.731-1.809,1.832-2.354,3.298
						c-0.547,1.464-0.819,3.53-0.819,6.188c0,2.582,0.272,4.601,0.821,6.054c0.546,1.457,1.302,2.529,2.264,3.218
						c0.965,0.686,2.096,1.03,3.391,1.03c1.756,0,3.114-0.492,4.074-1.475c0.959-0.982,1.438-2.254,1.438-3.812v-2.092
						c0-0.332-0.13-0.588-0.386-0.769c-0.258-0.179-0.68-0.271-1.262-0.271h-1.893v-1.045h9.357v1.045h-1.268
						c-0.564,0-0.969,0.101-1.211,0.295s-0.361,0.479-0.361,0.854v8.532h-0.992c-0.359-1.327-0.737-2.604-1.129-3.821
						c-0.754,1.237-1.649,2.165-2.691,2.784c-1.04,0.616-2.219,0.928-3.537,0.928c-1.88,0-3.624-0.479-5.227-1.446
						c-1.604-0.967-2.871-2.324-3.801-4.08c-0.93-1.754-1.396-3.737-1.396-5.949c0-2.223,0.468-4.213,1.401-5.973
						c0.934-1.759,2.211-3.156,3.832-4.192c1.623-1.037,3.262-1.552,4.92-1.552c0.942,0,1.844,0.158,2.705,0.476
						C217.7,113.686,218.672,114.268,219.76,115.114z"/>
				</g>
			</g>
			<g>
				<path fill="#F70303" d="M251.312,56.952c4.668,0.054,7.25,3.24,5.764,7.138c-1.43,3.956-6.369,7.086-10.98,7.031
					c-4.613-0.055-7.193-3.295-5.711-7.195C241.812,60.027,246.697,56.895,251.312,56.952z"/>
				<g>
					<path d="M248.374,113.434h1.056l7.993,20.404c0.323,0.821,0.979,1.235,1.976,1.235h0.695v1.126h-8.904v-1.126h0.711
						c0.929,0,1.578-0.101,1.968-0.302c0.259-0.142,0.394-0.355,0.394-0.646c0-0.172-0.033-0.354-0.105-0.543l-1.844-4.73H243.5
						l-1.052,2.713c-0.273,0.723-0.409,1.298-0.409,1.716c0,0.493,0.229,0.916,0.688,1.266c0.459,0.353,1.125,0.526,2.002,0.526
						h0.754v1.128h-8.099v-1.126c0.867,0,1.554-0.188,2.06-0.562c0.502-0.378,0.965-1.094,1.391-2.148L248.374,113.434z
						 M247.959,117.721l-3.996,9.951h7.877L247.959,117.721z"/>
				</g>
			</g>
			<g>
				<path fill="#F76806" d="M285.364,50.005c4.67,0.054,7.251,3.24,5.766,7.138c-1.428,3.955-6.372,7.083-10.979,7.031
					c-4.611-0.056-7.194-3.295-5.717-7.195C275.865,53.08,280.752,49.95,285.364,50.005z"/>
				<g>
					<path d="M273.104,113.887h11.614c2.279,0,4.025,0.504,5.235,1.508c1.211,1.006,1.814,2.266,1.814,3.783
						c0,1.266-0.422,2.34-1.267,3.225c-0.845,0.885-2.112,1.582-3.813,2.095c2.104,0.442,3.682,1.14,4.735,2.093
						c1.052,0.952,1.579,2.152,1.579,3.602c0,1.107-0.302,2.089-0.896,2.942c-0.6,0.856-1.594,1.581-2.98,2.175
						c-1.395,0.597-2.97,0.894-4.742,0.894h-11.273v-1.127h1.839c0.553,0,0.96-0.091,1.213-0.271
						c0.255-0.179,0.384-0.388,0.384-0.615v-17.887c0-0.423-0.124-0.744-0.377-0.959c-0.25-0.218-0.613-0.324-1.102-0.324h-1.961
						L273.104,113.887L273.104,113.887z M279.727,124.13h4.237c1.302,0,2.336-0.38,3.108-1.14c0.771-0.76,1.156-2.01,1.156-3.742
						c0-1.07-0.187-1.906-0.549-2.507c-0.369-0.604-0.9-1.038-1.606-1.317c-0.7-0.273-1.91-0.41-3.638-0.41
						c-1.223,0-1.977,0.086-2.271,0.26c-0.292,0.178-0.438,0.482-0.438,0.925V124.13L279.727,124.13L279.727,124.13z
						 M279.727,125.257v8.608c0,0.402,0.117,0.703,0.355,0.904s0.664,0.302,1.277,0.302h2.707c1.793,0,3.113-0.392,3.972-1.183
						s1.282-2.021,1.282-3.691c0-1.529-0.441-2.734-1.324-3.615c-0.891-0.881-2.111-1.322-3.676-1.322L279.727,125.257
						L279.727,125.257z"/>
				</g>
			</g>
			<g>
				<path fill="#F7F006" d="M319.625,42.497c4.67,0.053,7.252,3.24,5.766,7.138c-1.428,3.956-6.365,7.084-10.98,7.031
					c-4.612-0.055-7.188-3.295-5.708-7.195C310.121,45.572,315.013,42.441,319.625,42.497z"/>
				<g>
					<path d="M323.745,100.08l1.021-2.157h0.938l0.429,8.981h-1.019c-0.664-2.541-1.495-4.416-2.498-5.62
						c-1.243-1.511-2.729-2.263-4.454-2.263c-1.867,0-3.388,0.836-4.562,2.509c-1.175,1.672-1.756,4.503-1.756,8.493
						c0,3.355,0.675,5.912,2.021,7.679c1.146,1.492,2.752,2.235,4.816,2.235c1.811,0,3.326-0.58,4.55-1.741
						c1.226-1.162,2.022-2.914,2.396-5.259h1.072c-0.312,2.654-1.224,4.691-2.729,6.119c-1.508,1.428-3.409,2.14-5.698,2.14
						c-1.856,0-3.562-0.468-5.113-1.402c-1.556-0.937-2.795-2.278-3.727-4.034c-0.93-1.757-1.396-3.681-1.396-5.769
						c0-2.222,0.479-4.308,1.438-6.259c0.964-1.948,2.188-3.413,3.688-4.397c1.495-0.979,3.104-1.468,4.835-1.468
						c0.964,0,1.896,0.169,2.805,0.502C321.7,98.701,322.683,99.277,323.745,100.08z"/>
				</g>
			</g>
			<g>
				<path fill="#008F00" d="M354.62,35.107c4.666,0.056,7.247,3.242,5.762,7.14c-1.426,3.954-6.372,7.084-10.979,7.029
					c-4.614-0.054-7.193-3.295-5.712-7.193C345.117,38.183,350.004,35.052,354.62,35.107z"/>
				<g>
					<path d="M341.068,97.885h11.521c1.708,0,3.164,0.303,4.361,0.905c1.484,0.763,2.753,2.037,3.792,3.815
						c1.039,1.779,1.559,3.888,1.559,6.32c0,2.012-0.312,3.825-0.935,5.434c-0.473,1.238-1.198,2.32-2.184,3.246
						c-0.979,0.923-2.178,1.615-3.584,2.081c-1.055,0.342-2.466,0.515-4.224,0.515h-10.319v-1.126h2.118
						c0.535,0,0.903-0.085,1.111-0.255c0.205-0.174,0.309-0.437,0.309-0.799v-17.98c0-0.312-0.104-0.559-0.33-0.746
						c-0.223-0.186-0.527-0.279-0.924-0.279h-2.284L341.068,97.885L341.068,97.885z M349.13,99.014
						c-0.456,0-0.788,0.096-1.006,0.286c-0.217,0.188-0.323,0.476-0.323,0.86v17.809c0,0.361,0.125,0.637,0.378,0.821
						c0.252,0.187,0.685,0.28,1.284,0.28h1.902c1.703,0,3.188-0.438,4.474-1.312c0.834-0.584,1.466-1.404,1.898-2.463
						c0.597-1.428,0.895-3.398,0.895-5.914c0-3.724-0.646-6.451-1.948-8.181c-1.104-1.461-2.778-2.187-5.019-2.187L349.13,99.014
						L349.13,99.014z"/>
				</g>
			</g>
			<g>
				<path d="M366.528,94.005l-0.458,0.997h-2.396l-0.521,1.068c1.036,0.152,1.854,0.535,2.464,1.156
					c0.521,0.53,0.781,1.155,0.781,1.877c0,0.416-0.09,0.805-0.257,1.16c-0.173,0.356-0.388,0.659-0.645,0.909
					c-0.258,0.248-0.544,0.451-0.861,0.605c-0.446,0.215-0.911,0.323-1.386,0.323s-0.823-0.08-1.039-0.244
					c-0.218-0.163-0.327-0.34-0.327-0.537c0-0.109,0.047-0.206,0.14-0.29c0.089-0.084,0.199-0.126,0.341-0.126
					c0.101,0,0.188,0.015,0.267,0.047c0.077,0.031,0.204,0.109,0.394,0.24c0.294,0.203,0.591,0.306,0.893,0.306
					c0.459,0,0.859-0.174,1.205-0.521c0.347-0.347,0.521-0.768,0.521-1.262c0-0.482-0.151-0.93-0.466-1.348
					c-0.309-0.416-0.73-0.739-1.273-0.967c-0.431-0.174-1.013-0.276-1.742-0.305l1.521-3.092h2.854v0.001h-0.004v0.003H366.528z"/>
			</g>
			<g>
				<path d="M332.359,95.005l-0.457,0.997h-2.396l-0.521,1.068c1.038,0.152,1.854,0.535,2.466,1.156
					c0.52,0.53,0.777,1.155,0.777,1.877c0,0.416-0.089,0.805-0.257,1.16c-0.173,0.356-0.386,0.659-0.642,0.909
					c-0.259,0.248-0.547,0.451-0.863,0.605c-0.452,0.215-0.91,0.323-1.386,0.323c-0.477,0-0.823-0.08-1.039-0.244
					c-0.219-0.163-0.325-0.34-0.325-0.537c0-0.109,0.043-0.206,0.136-0.29c0.094-0.084,0.202-0.126,0.342-0.126
					c0.103,0,0.188,0.015,0.267,0.047c0.077,0.031,0.208,0.109,0.391,0.24c0.293,0.203,0.596,0.306,0.896,0.306
					c0.457,0,0.859-0.174,1.203-0.521c0.347-0.347,0.521-0.768,0.521-1.262c0-0.482-0.15-0.93-0.465-1.348
					c-0.31-0.416-0.731-0.739-1.28-0.967c-0.426-0.174-1.006-0.276-1.737-0.305l1.521-3.092L332.359,95.005L332.359,95.005
					L332.359,95.005z"/>
			</g>
			<g>
				<path d="M296.852,115.025v0.832h-1.065v2.102h-0.972v-2.102h-3.362v-0.752l3.688-5.268h0.646v5.186h1.065V115.025
					L296.852,115.025z M294.812,115.025v-3.949l-2.791,3.949H294.812z"/>
			</g>
			<g>
				<path d="M259.249,115.025v0.832h-1.067v2.102h-0.969v-2.102h-3.367v-0.752l3.69-5.268h0.646v5.186h1.067V115.025z
					 M257.213,115.025v-3.949l-2.792,3.949H257.213z"/>
			</g>
			<g>
				<path d="M228.514,115.025v0.832h-1.068v2.102h-0.967v-2.102h-3.369v-0.752l3.691-5.268h0.645v5.186h1.068V115.025z
					 M226.479,115.025v-3.949l-2.791,3.949H226.479z"/>
			</g>
			<g>
				<path d="M196.062,115.025v0.832h-1.069v2.102h-0.967v-2.102h-3.367v-0.752l3.689-5.268h0.646v5.186h1.069L196.062,115.025
					L196.062,115.025z M194.027,115.025v-3.949l-2.792,3.949H194.027z"/>
			</g>
			<g>
				<path d="M160.177,115.025v0.832h-1.068v2.102h-0.967v-2.102h-3.367v-0.752l3.689-5.268h0.645v5.186h1.068V115.025z
					 M158.142,115.025v-3.949l-2.792,3.949H158.142z"/>
			</g>
			<g>
				<path d="M126.01,115.025v0.832h-1.067v2.102h-0.969v-2.102h-3.367v-0.752l3.69-5.268h0.646v5.186h1.067V115.025z
					 M123.974,115.025v-3.949l-2.792,3.949H123.974z"/>
			</g>
		</g>
		<g>
			<path d="M10.499,156.125v-1.044h462.473v1.044H10.499z M10.499,170.125v-1.152h462.473v1.152H10.499z M10.499,184.02v-1.043
				h462.473v1.043H10.499z M10.499,197.914v-1.044h462.473v1.044H10.499z M10.499,211.809v-1.043h462.473v1.043H10.499z"/>
			<g>
				<path d="M103.891,239.868h11.523c1.709,0,3.164,0.301,4.359,0.903c1.485,0.764,2.752,2.037,3.791,3.813
					c1.041,1.78,1.562,3.89,1.562,6.32c0,2.011-0.312,3.821-0.937,5.434c-0.475,1.237-1.199,2.317-2.182,3.243
					c-0.979,0.923-2.176,1.617-3.584,2.083c-1.054,0.339-2.465,0.515-4.224,0.515h-10.317v-1.13H106
					c0.538,0,0.904-0.084,1.113-0.255c0.205-0.171,0.308-0.438,0.308-0.801V242.02c0-0.312-0.106-0.56-0.332-0.748
					c-0.223-0.184-0.528-0.275-0.921-0.275h-2.284v-1.126L103.891,239.868L103.891,239.868z M111.949,240.992
					c-0.455,0-0.787,0.098-1.006,0.287c-0.217,0.188-0.323,0.478-0.323,0.859v17.811c0,0.361,0.124,0.636,0.379,0.82
					c0.252,0.188,0.681,0.278,1.284,0.278h1.902c1.698,0,3.188-0.438,4.472-1.312c0.834-0.586,1.468-1.403,1.903-2.463
					c0.594-1.429,0.892-3.397,0.892-5.916c0-3.727-0.647-6.447-1.95-8.179c-1.109-1.464-2.779-2.188-5.016-2.188L111.949,240.992
					L111.949,240.992z"/>
			</g>
			<g>
				<path d="M139.412,239.868h17.672l0.429,7.534h-1.021c-0.398-2.379-1.035-4.038-1.907-4.987c-0.87-0.944-2.001-1.419-3.398-1.419
					h-4.372c-0.353,0-0.616,0.098-0.801,0.286c-0.183,0.19-0.271,0.481-0.271,0.877v7.954h1.914c1.024,0,1.854-0.367,2.497-1.104
					c0.636-0.731,0.979-1.856,1.03-3.38h1.049v10.326h-1.049c-0.051-1.706-0.396-2.93-1.05-3.667
					c-0.646-0.738-1.527-1.104-2.645-1.104h-1.75v8.873c0,0.319,0.104,0.564,0.324,0.737c0.214,0.172,0.57,0.254,1.072,0.254h3.458
					c3.751,0,5.911-2.396,6.486-7.188h1.1l-0.379,8.313h-18.396v-1.128h1.524c0.596,0,1.011-0.104,1.25-0.309
					c0.242-0.205,0.361-0.506,0.361-0.897V242.15c0-0.396-0.105-0.685-0.316-0.877c-0.213-0.188-0.541-0.284-0.992-0.284h-1.825
					L139.412,239.868L139.412,239.868z"/>
			</g>
			<g>
				<path d="M174.244,239.868h18.154l0.295,7.723h-1.044c-0.469-2.655-1.112-4.39-1.95-5.192c-0.959-0.936-2.325-1.398-4.103-1.398
					h-3.584c-0.354,0-0.604,0.083-0.771,0.249c-0.161,0.166-0.241,0.414-0.241,0.746v8.047h1.917c1.069,0,1.921-0.354,2.552-1.06
					c0.636-0.707,0.979-1.791,1.028-3.26h1.102v10.082h-1.102c-0.07-1.668-0.412-2.854-1.028-3.57
					c-0.607-0.711-1.465-1.064-2.552-1.064H181v8.521c0,0.504,0.121,0.855,0.362,1.062c0.238,0.207,0.66,0.312,1.252,0.312h2.322
					v1.123h-10.695v-1.127h2.287c0.465,0,0.79-0.095,0.982-0.276c0.194-0.187,0.294-0.493,0.294-0.915V242.12
					c0-0.397-0.103-0.688-0.311-0.858c-0.204-0.173-0.562-0.255-1.076-0.255h-2.18L174.244,239.868L174.244,239.868z"/>
			</g>
			<g>
				<path d="M222.624,242.089l1.227-2.223h1.021l0.562,8.901h-0.987c-0.751-2.562-1.641-4.416-2.66-5.562
					c-1.304-1.458-2.796-2.188-4.479-2.188c-1.292,0-2.453,0.365-3.471,1.102c-1.024,0.73-1.809,1.834-2.354,3.299
					c-0.546,1.466-0.818,3.532-0.818,6.188c0,2.582,0.271,4.603,0.818,6.058c0.55,1.456,1.306,2.524,2.268,3.218
					c0.962,0.688,2.095,1.03,3.389,1.03c1.757,0,3.115-0.492,4.076-1.479c0.96-0.979,1.438-2.252,1.438-3.811v-2.094
					c0-0.332-0.128-0.586-0.388-0.771c-0.259-0.182-0.681-0.271-1.264-0.271h-1.891v-1.045h9.355v1.045h-1.271
					c-0.563,0-0.97,0.104-1.21,0.296c-0.241,0.192-0.362,0.479-0.362,0.853v8.534h-0.992c-0.355-1.327-0.732-2.604-1.126-3.819
					c-0.753,1.233-1.652,2.164-2.688,2.783c-1.041,0.615-2.223,0.93-3.54,0.93c-1.883,0-3.62-0.481-5.229-1.446
					c-1.603-0.968-2.869-2.325-3.801-4.079c-0.929-1.758-1.396-3.738-1.396-5.95c0-2.226,0.469-4.214,1.401-5.976
					c0.932-1.76,2.212-3.153,3.833-4.191c1.619-1.034,3.258-1.55,4.917-1.55c0.945,0,1.844,0.157,2.705,0.475
					C220.565,240.66,221.537,241.242,222.624,242.089z"/>
			</g>
			<g>
				<path d="M251.298,239.868h1.056l7.996,20.403c0.32,0.823,0.979,1.232,1.977,1.232h0.693v1.128h-8.902v-1.128h0.711
					c0.926,0,1.579-0.104,1.965-0.302c0.258-0.144,0.393-0.354,0.393-0.646c0-0.171-0.033-0.354-0.104-0.543l-1.843-4.729h-8.812
					l-1.053,2.712c-0.272,0.722-0.408,1.297-0.408,1.716c0,0.492,0.232,0.915,0.688,1.269c0.459,0.353,1.126,0.523,2.001,0.523
					h0.755v1.128h-8.102v-1.127c0.866,0,1.557-0.188,2.06-0.562c0.504-0.377,0.969-1.092,1.393-2.147L251.298,239.868z
					 M250.884,244.154l-3.995,9.953h7.876L250.884,244.154z"/>
			</g>
			<path fill="#008F00" d="M117.09,177.005c4.669,0.056,7.252,3.241,5.766,7.138c-1.428,3.957-6.371,7.086-10.979,7.032
				c-4.613-0.055-7.193-3.296-5.715-7.194C107.589,180.082,112.479,176.949,117.09,177.005z"/>
			<g>
				<path d="M276.088,239.868h11.614c2.278,0,4.022,0.502,5.235,1.506c1.211,1.006,1.812,2.265,1.812,3.783
					c0,1.266-0.422,2.338-1.264,3.225c-0.848,0.886-2.115,1.582-3.817,2.095c2.108,0.442,3.685,1.144,4.739,2.092
					c1.049,0.955,1.579,2.152,1.579,3.604c0,1.106-0.304,2.089-0.898,2.943c-0.597,0.856-1.592,1.579-2.979,2.173
					c-1.396,0.598-2.973,0.895-4.74,0.895h-11.273v-1.127h1.834c0.557,0,0.961-0.091,1.213-0.271
					c0.258-0.179,0.388-0.388,0.388-0.615v-17.886c0-0.422-0.124-0.743-0.375-0.957c-0.251-0.219-0.617-0.324-1.104-0.324h-1.96
					v-1.134h-0.002L276.088,239.868L276.088,239.868z M282.71,250.109h4.238c1.301,0,2.335-0.381,3.104-1.144
					c0.771-0.761,1.156-2.009,1.156-3.739c0-1.07-0.183-1.904-0.55-2.509c-0.369-0.604-0.9-1.036-1.605-1.315
					c-0.697-0.274-1.91-0.412-3.637-0.412c-1.221,0-1.973,0.089-2.27,0.262c-0.293,0.176-0.439,0.482-0.439,0.926L282.71,250.109
					L282.71,250.109z M282.71,251.236v8.608c0,0.399,0.117,0.701,0.354,0.902c0.236,0.2,0.666,0.301,1.273,0.301h2.709
					c1.793,0,3.112-0.396,3.971-1.183c0.857-0.791,1.283-2.021,1.283-3.69c0-1.528-0.439-2.731-1.324-3.612
					c-0.892-0.881-2.109-1.321-3.677-1.321L282.71,251.236L282.71,251.236z"/>
			</g>
			<path fill="#0000FF" d="M151.377,169.496c4.67,0.054,7.251,3.24,5.764,7.139c-1.428,3.957-6.365,7.088-10.979,7.03
				c-4.614-0.054-7.188-3.295-5.708-7.192C141.874,172.573,146.765,169.441,151.377,169.496z"/>
			<path fill="#F803FF" d="M220.242,156.162c4.667,0.057,7.248,3.238,5.764,7.141c-1.428,3.953-6.37,7.084-10.979,7.03
				c-4.614-0.056-7.192-3.297-5.711-7.192C210.739,159.236,215.628,156.105,220.242,156.162z"/>
			<path fill="#FF0000" d="M254.244,149.215c4.666,0.057,7.249,3.241,5.766,7.141c-1.428,3.953-6.371,7.084-10.981,7.029
				c-4.612-0.055-7.191-3.296-5.712-7.191C244.74,152.291,249.629,149.16,254.244,149.215z"/>
			<path fill="#FF9D00" d="M288.619,141.73c4.668,0.054,7.249,3.239,5.766,7.14c-1.429,3.953-6.371,7.084-10.98,7.028
				c-4.614-0.054-7.192-3.295-5.711-7.191C279.114,144.807,284.003,141.675,288.619,141.73z"/>
			<g>
				<path d="M257.107,238.518c0.228-0.539,0.516-0.949,0.857-1.242c0.348-0.291,0.777-0.438,1.294-0.438
					c0.64,0,1.126,0.207,1.466,0.621c0.26,0.309,0.394,0.639,0.394,0.991c0,0.579-0.366,1.178-1.093,1.796
					c0.486,0.191,0.854,0.465,1.105,0.82c0.249,0.354,0.375,0.771,0.375,1.254c0,0.688-0.218,1.285-0.656,1.791
					c-0.566,0.656-1.396,0.983-2.479,0.983c-0.538,0-0.901-0.065-1.097-0.198c-0.19-0.133-0.287-0.275-0.287-0.431
					c0-0.11,0.043-0.214,0.136-0.3c0.092-0.085,0.2-0.129,0.332-0.129c0.097,0,0.196,0.018,0.298,0.047
					c0.066,0.021,0.218,0.091,0.454,0.216c0.233,0.119,0.394,0.193,0.483,0.222c0.146,0.041,0.301,0.062,0.465,0.062
					c0.396,0,0.748-0.154,1.041-0.466c0.295-0.312,0.441-0.678,0.441-1.102c0-0.31-0.066-0.606-0.203-0.897
					c-0.104-0.224-0.217-0.39-0.336-0.5c-0.168-0.155-0.396-0.3-0.689-0.427c-0.294-0.129-0.592-0.188-0.896-0.188h-0.188v-0.177
					c0.311-0.038,0.617-0.147,0.929-0.335c0.313-0.186,0.538-0.404,0.679-0.664c0.145-0.26,0.211-0.539,0.211-0.854
					c0-0.396-0.121-0.729-0.379-0.975c-0.25-0.25-0.562-0.374-0.938-0.374c-0.604,0-1.111,0.325-1.521,0.974L257.107,238.518z"/>
			</g>
			<g>
				<path d="M226.373,238.518c0.229-0.539,0.515-0.949,0.857-1.242c0.349-0.291,0.775-0.438,1.296-0.438
					c0.637,0,1.125,0.207,1.467,0.621c0.258,0.309,0.385,0.639,0.385,0.991c0,0.579-0.361,1.178-1.089,1.796
					c0.487,0.191,0.858,0.465,1.109,0.82c0.25,0.354,0.375,0.771,0.375,1.254c0,0.688-0.222,1.285-0.656,1.791
					c-0.572,0.656-1.398,0.983-2.482,0.983c-0.534,0-0.896-0.065-1.093-0.198c-0.196-0.133-0.292-0.275-0.292-0.431
					c0-0.11,0.046-0.214,0.138-0.3c0.097-0.085,0.205-0.129,0.33-0.129c0.104,0,0.198,0.018,0.3,0.047
					c0.065,0.021,0.222,0.091,0.453,0.216c0.234,0.119,0.397,0.193,0.487,0.222c0.146,0.041,0.3,0.062,0.465,0.062
					c0.398,0,0.745-0.154,1.039-0.466c0.296-0.312,0.444-0.678,0.444-1.102c0-0.31-0.069-0.606-0.207-0.897
					c-0.104-0.224-0.211-0.39-0.333-0.5c-0.169-0.155-0.397-0.3-0.69-0.427c-0.294-0.129-0.595-0.188-0.896-0.188h-0.188v-0.177
					c0.312-0.038,0.62-0.147,0.937-0.335c0.308-0.186,0.534-0.404,0.677-0.664c0.141-0.26,0.211-0.539,0.211-0.854
					c0-0.396-0.127-0.729-0.379-0.975c-0.253-0.248-0.566-0.374-0.943-0.374c-0.604,0-1.109,0.325-1.519,0.974L226.373,238.518z"/>
			</g>
			<g>
				<path d="M193.924,238.518c0.229-0.539,0.516-0.949,0.858-1.242c0.345-0.291,0.774-0.438,1.294-0.438
					c0.637,0,1.124,0.207,1.465,0.621c0.258,0.309,0.389,0.639,0.389,0.991c0,0.579-0.361,1.178-1.093,1.796
					c0.487,0.191,0.858,0.465,1.109,0.82c0.25,0.354,0.375,0.771,0.375,1.254c0,0.688-0.218,1.285-0.656,1.791
					c-0.57,0.656-1.398,0.983-2.48,0.983c-0.533,0-0.896-0.065-1.095-0.198c-0.189-0.133-0.29-0.275-0.29-0.431
					c0-0.11,0.047-0.214,0.141-0.3c0.092-0.085,0.2-0.129,0.327-0.129c0.102,0,0.197,0.018,0.303,0.047
					c0.064,0.021,0.218,0.091,0.45,0.216c0.234,0.119,0.396,0.193,0.485,0.222c0.146,0.041,0.3,0.062,0.465,0.062
					c0.398,0,0.747-0.154,1.04-0.466c0.294-0.312,0.442-0.678,0.442-1.102c0-0.31-0.066-0.606-0.204-0.897
					c-0.101-0.224-0.213-0.39-0.335-0.5c-0.168-0.155-0.397-0.3-0.689-0.427c-0.295-0.129-0.593-0.188-0.896-0.188h-0.188v-0.177
					c0.312-0.038,0.617-0.147,0.934-0.335c0.31-0.186,0.536-0.404,0.677-0.664s0.211-0.539,0.211-0.854
					c0-0.396-0.126-0.729-0.379-0.975c-0.251-0.25-0.563-0.374-0.938-0.374c-0.606,0-1.111,0.325-1.521,0.974L193.924,238.518z"/>
			</g>
			<g>
				<path d="M158.038,238.518c0.228-0.539,0.514-0.949,0.859-1.242c0.347-0.291,0.774-0.438,1.294-0.438
					c0.639,0,1.126,0.207,1.465,0.621c0.258,0.309,0.389,0.639,0.389,0.991c0,0.579-0.363,1.178-1.091,1.796
					c0.487,0.191,0.854,0.465,1.104,0.82c0.254,0.354,0.379,0.771,0.379,1.254c0,0.688-0.223,1.285-0.657,1.791
					c-0.571,0.656-1.396,0.983-2.482,0.983c-0.534,0-0.896-0.065-1.095-0.198c-0.192-0.133-0.289-0.275-0.289-0.431
					c0-0.11,0.045-0.214,0.137-0.3c0.093-0.085,0.203-0.129,0.332-0.129c0.102,0,0.196,0.018,0.3,0.047
					c0.065,0.021,0.22,0.091,0.451,0.216c0.234,0.119,0.397,0.193,0.487,0.222c0.145,0.041,0.299,0.062,0.463,0.062
					c0.398,0,0.747-0.154,1.041-0.466c0.297-0.312,0.444-0.678,0.444-1.102c0-0.31-0.07-0.606-0.206-0.897
					c-0.104-0.224-0.213-0.39-0.332-0.5c-0.171-0.155-0.399-0.3-0.694-0.427c-0.291-0.129-0.592-0.188-0.896-0.188h-0.188v-0.177
					c0.312-0.038,0.617-0.147,0.931-0.335c0.312-0.186,0.536-0.404,0.68-0.664c0.142-0.26,0.212-0.539,0.212-0.854
					c0-0.396-0.124-0.729-0.379-0.975c-0.252-0.25-0.566-0.374-0.942-0.374c-0.604,0-1.112,0.325-1.519,0.974L158.038,238.518z"/>
			</g>
			<g>
				<path d="M125.587,238.518c0.228-0.539,0.513-0.949,0.858-1.242c0.347-0.291,0.777-0.438,1.294-0.438
					c0.637,0,1.126,0.207,1.466,0.621c0.257,0.309,0.388,0.639,0.388,0.991c0,0.579-0.362,1.178-1.091,1.796
					c0.487,0.191,0.857,0.465,1.107,0.82c0.252,0.354,0.377,0.771,0.377,1.254c0,0.688-0.221,1.285-0.658,1.791
					c-0.57,0.656-1.396,0.983-2.479,0.983c-0.539,0-0.9-0.065-1.1-0.198c-0.189-0.133-0.29-0.275-0.29-0.431
					c0-0.11,0.047-0.214,0.14-0.3c0.092-0.085,0.203-0.129,0.332-0.129c0.098,0,0.195,0.018,0.299,0.047
					c0.064,0.021,0.218,0.091,0.453,0.216c0.233,0.119,0.396,0.193,0.482,0.222c0.146,0.041,0.303,0.062,0.466,0.062
					c0.397,0,0.746-0.154,1.039-0.466c0.294-0.312,0.443-0.678,0.443-1.102c0-0.31-0.067-0.606-0.203-0.897
					c-0.104-0.224-0.213-0.39-0.335-0.5c-0.17-0.155-0.396-0.3-0.688-0.427c-0.298-0.129-0.597-0.188-0.897-0.188h-0.188v-0.177
					c0.311-0.038,0.618-0.147,0.932-0.335c0.312-0.186,0.537-0.404,0.681-0.664c0.142-0.26,0.209-0.539,0.209-0.854
					c0-0.396-0.124-0.729-0.379-0.975c-0.249-0.25-0.562-0.374-0.938-0.374c-0.606,0-1.112,0.325-1.521,0.974L125.587,238.518z"/>
			</g>
			<g>
				<path d="M296.428,238.518c0.229-0.539,0.516-0.949,0.857-1.242c0.349-0.291,0.777-0.438,1.294-0.438
					c0.639,0,1.127,0.207,1.469,0.621c0.257,0.309,0.386,0.639,0.386,0.991c0,0.579-0.358,1.178-1.09,1.796
					c0.487,0.191,0.858,0.465,1.107,0.82c0.252,0.354,0.377,0.771,0.377,1.254c0,0.688-0.219,1.285-0.658,1.791
					c-0.57,0.656-1.396,0.983-2.479,0.983c-0.537,0-0.898-0.065-1.099-0.198c-0.19-0.133-0.29-0.275-0.29-0.431
					c0-0.11,0.047-0.214,0.139-0.3c0.097-0.085,0.205-0.129,0.332-0.129c0.101,0,0.195,0.018,0.301,0.047
					c0.062,0.021,0.217,0.091,0.451,0.216c0.232,0.119,0.396,0.193,0.484,0.222c0.146,0.041,0.301,0.062,0.467,0.062
					c0.396,0,0.744-0.154,1.037-0.466c0.297-0.312,0.443-0.678,0.443-1.102c0-0.31-0.068-0.606-0.205-0.897
					c-0.102-0.224-0.211-0.39-0.333-0.5c-0.169-0.155-0.396-0.3-0.69-0.427c-0.295-0.129-0.595-0.188-0.896-0.188h-0.188v-0.177
					c0.312-0.038,0.619-0.147,0.934-0.335c0.309-0.186,0.538-0.404,0.679-0.664c0.142-0.26,0.21-0.539,0.21-0.854
					c0-0.396-0.126-0.729-0.379-0.975c-0.252-0.248-0.562-0.374-0.939-0.374c-0.607,0-1.111,0.325-1.521,0.974L296.428,238.518z"/>
			</g>
			<g>
				<path fill="#6200FC" d="M182.519,162.889c6.099,0.055,11.863,2.36,12.305,7.469c0.33,3.736-4.612,7.143-10.709,7.143
					c-6.151-0.057-11.859-2.311-12.355-7.411C171.426,166.292,176.42,162.889,182.519,162.889z M183.999,176.232
					c2.638,0,4.341-2.527,4.065-4.562c-0.606-4.009-1.979-7.25-5.604-7.25c-2.636,0-4.173,2.581-3.841,4.612
					C179.224,173.048,180.377,176.232,183.999,176.232z"/>
			</g>
			<path fill="#FFE600" d="M320.312,132.951c4.668,0.053,7.25,3.24,5.764,7.139c-1.43,3.955-6.369,7.086-10.98,7.03
				c-4.612-0.056-7.192-3.295-5.711-7.194C310.812,136.027,315.697,132.895,320.312,132.951z"/>
			<g>
				<path d="M325.542,242.08l1.021-2.157h0.939l0.43,8.981h-1.021c-0.663-2.54-1.494-4.416-2.496-5.619
					c-1.246-1.51-2.729-2.264-4.455-2.264c-1.867,0-3.388,0.836-4.562,2.51c-1.175,1.673-1.757,4.504-1.757,8.494
					c0,3.354,0.675,5.91,2.019,7.678c1.146,1.49,2.752,2.234,4.82,2.234c1.81,0,3.325-0.578,4.549-1.74
					c1.225-1.163,2.022-2.914,2.396-5.258h1.072c-0.312,2.649-1.222,4.688-2.729,6.117c-1.507,1.428-3.407,2.141-5.698,2.141
					c-1.858,0-3.562-0.469-5.113-1.402c-1.553-0.936-2.796-2.279-3.726-4.033c-0.93-1.758-1.396-3.682-1.396-5.77
					c0-2.221,0.479-4.309,1.438-6.26c0.963-1.948,2.188-3.414,3.685-4.396c1.496-0.98,3.105-1.468,4.838-1.468
					c0.962,0,1.895,0.169,2.802,0.502C323.497,240.701,324.479,241.277,325.542,242.08z"/>
			</g>
			<line fill="none" stroke="#000000" x1="300.68" y1="140.736" x2="333" y2="140.736"/>
			<g>
				<path d="M334.535,241.5v0.832h-1.066v2.102H332.5v-2.102h-3.367v-0.752l3.689-5.27h0.646v5.188h1.066L334.535,241.5
					L334.535,241.5z M332.5,241.5v-3.949l-2.793,3.949H332.5z"/>
			</g>
		</g>
		<g>
			<path id="path2070" fill="#9606F4" d="M15.559,200.018c3.803-2.565,6.646-4.514,8.472-5.854c1.831-1.321,3.758-2.979,5.732-4.946
				c1.973-1.966,3.634-4.196,4.981-6.672c1.059-1.821,1.974-3.938,2.72-6.337c0.748-2.377,1.133-4.684,1.205-6.863
				c0-2.039-0.265-3.979-0.818-5.811c-0.531-1.85-1.445-3.36-2.745-4.584c-1.299-1.2-2.983-1.801-5.078-1.801
				c-2.021,0-3.924,0.406-5.704,1.197c-1.758,0.815-3.012,2.109-3.707,3.938c0,0.17-0.098,0.384-0.243,0.693
				c0.048,0.388,0.243,0.672,0.604,0.893c0.36,0.216,0.672,0.312,0.962,0.312c0.144,0,0.553-0.072,1.18-0.219
				c0.65-0.146,1.18-0.238,1.612-0.238c1.277,0,2.409,0.457,3.442,1.347c1.013,0.888,1.519,1.966,1.519,3.239
				c0,0.912-0.265,1.772-0.771,2.563c-0.504,0.793-1.203,1.438-2.093,1.896c-0.893,0.48-1.88,0.697-2.936,0.697
				c-1.928,0-3.563-0.578-4.913-1.754c-1.324-1.199-1.998-2.713-1.998-4.609c0-2.426,0.746-4.515,2.214-6.287
				c1.493-1.775,3.37-3.096,5.682-3.98c2.288-0.913,4.599-1.346,6.958-1.346c2.574,0,5.031,0.646,7.317,1.968
				c2.312,1.295,4.118,3.099,5.464,5.327c1.349,2.255,2.048,4.654,2.048,7.249c0,4.608-1.542,8.881-4.622,12.842
				c-3.083,3.962-6.885,7.396-11.436,10.32c-3.032,1.991-7.942,4.682-14.707,8.063L15.559,200.018z M48.997,162.887
				c0-0.865,0.312-1.586,0.938-2.162c0.602-0.599,1.349-0.887,2.237-0.887c0.771,0,1.494,0.333,2.144,0.98
				c0.649,0.625,0.962,1.369,0.962,2.187c0,0.863-0.335,1.604-0.962,2.208c-0.673,0.574-1.421,0.862-2.264,0.862
				c-0.89,0-1.612-0.288-2.189-0.935C49.287,164.518,48.997,163.773,48.997,162.887z M48.997,175.463
				c0-0.865,0.312-1.609,0.89-2.184c0.6-0.604,1.348-0.889,2.286-0.889c0.771,0,1.47,0.312,2.144,0.959
				c0.627,0.646,0.962,1.346,0.962,2.109c0,0.938-0.313,1.684-0.914,2.281c-0.627,0.601-1.349,0.908-2.192,0.908
				c-0.938,0-1.686-0.312-2.286-0.891C49.308,177.189,48.997,176.423,48.997,175.463z"/>
		</g>
	</g>
</g>
</svg>
