<?xml version="1.0" encoding="utf-8"?>
<!-- Generator: Adobe Illustrator 13.0.0, SVG Export Plug-In . SVG Version: 6.00 Build 14948)  -->
<!DOCTYPE svg PUBLIC "-//W3C//DTD SVG 1.0//EN" "http://www.w3.org/TR/2001/REC-SVG-20010904/DTD/svg10.dtd">
<svg version="1.0" id="Layer_1" xmlns="http://www.w3.org/2000/svg" xmlns:xlink="http://www.w3.org/1999/xlink" x="0px" y="0px"
	 width="500px" height="270px" viewBox="0 0 500 270" enable-background="new 0 0 500 270" xml:space="preserve">
<g id="Layer_1_3_">
	<g id="Layer_1_2_">
		<g id="Layer_1_1_">
		</g>
		<g id="Layer_2">
			<g id="Layer_2_1_">
				<g>
					<path d="M-541.501-327.877v-1.044h462.473v1.044H-541.501z M-541.501-313.875v-1.153h462.473v1.153H-541.501z M-541.501-299.98
						v-1.044h462.473v1.044H-541.501z M-541.501-286.086v-1.044h462.473v1.044H-541.501z M-541.501-272.191v-1.042h462.473v1.042
						H-541.501z"/>
					<path fill="#F200FF" d="M-516.031-273.729c-11.312-5.383-13.125-12.301-13.619-19.387c-0.55-7.688,4.339-15.486,8.896-19.825
						c2.636-2.471,5.492-4.887,8.898-7.468c-0.111-1.922-0.55-2.692-0.77-5.437c-0.055-1.153-0.769-6.535,0.384-12.741
						c0.714-3.681,5.328-12.357,8.513-12.413c2.472-0.055,6.261,9.832,6.372,14.774c0.164,7.634-1.647,11.093-3.9,15.047
						c-1.153,1.978-2.361,3.351-3.625,4.889c-1.317,1.592-2.8,2.525-4.173,3.734c0,0,1.758,9.939,1.812,10.654
						c3.515-0.439,7.798,0.821,9.337,1.922c3.898,2.91,5.381,6.92,5.656,10.818c0.495,6.205-2.911,12.741-10.435,15.872
						c0,0,1.153,7.907,1.428,9.556c0.604,4.336,0.495,7.084-0.439,8.84c-1.592,2.966-4.173,5.711-9.171,6.043
						c-3.845,0.218-11.424-1.701-11.808-7.745c-0.221-3.57,1.373-7.413,5.71-7.688c2.636-0.22,5.767,1.977,5.986,5.106
						c0.22,2.691-1.537,5.493-6.095,6.756c0.714,0.989,2.855,2.146,5.931,2.146c3.185,0,6.479-2.146,8.073-4.998
						c0.989-1.867,0.878-5.219,0.495-8.293c-0.166-1.045-1.483-9.337-1.483-9.337C-508.122-272.245-513.725-272.631-516.031-273.729
						z M-514.933-286.744c0.109,2.635,2.306,5.712,4.337,6.754c-0.273,0.166-0.548,0.605-0.548,0.605
						c-2.253-1.1-4.175-2.91-4.669-3.57c-1.592-2.14-2.251-3.349-2.471-6.59c-0.219-3.021,1.428-7.083,5.107-9.94
						c1.922-1.428,2.855-1.758,4.503-2.142l-1.647-9.94c-1.703,0.987-8.732,6.646-11.697,11.258c-2.636,4.12-4.229,7.415-3.9,11.479
						c0.659,9.172,10.709,16.696,21.583,14.115c0,0-3.24-19.497-3.187-19.497C-513.505-293.995-515.098-289.38-514.933-286.744z
						 M-510.483-321.561c4.778-3.734,11.258-10.765,10.874-16.202c-0.109-1.701-0.823-4.777-3.295-4.723
						C-508.562-342.431-511.749-330.625-510.483-321.561z M-503.015-275.156c6.317-2.142,6.592-7.579,6.372-10.82
						c-0.221-2.69-1.428-8.733-9.448-8.347L-503.015-275.156z"/>
					<g>
						<path fill="#00FF18" d="M-437.6-272.262c4.669,0.055,7.25,3.243,5.767,7.14c-1.428,3.955-6.371,7.086-10.984,7.029
							c-4.612-0.052-7.193-3.295-5.712-7.191C-447.101-269.185-442.212-272.314-437.6-272.262z"/>
						<g>
							<path d="M-451.148-243.113h11.524c1.709,0,3.163,0.303,4.359,0.905c1.488,0.763,2.752,2.036,3.793,3.815
								c1.039,1.781,1.562,3.887,1.562,6.32c0,2.012-0.313,3.825-0.935,5.434c-0.473,1.238-1.2,2.32-2.181,3.244
								c-0.98,0.925-2.174,1.617-3.582,2.083c-1.056,0.34-2.464,0.514-4.224,0.514h-10.316v-1.126h2.117
								c0.537,0,0.905-0.085,1.113-0.253c0.208-0.174,0.31-0.439,0.31-0.803v-17.979c0-0.312-0.11-0.561-0.332-0.748
								c-0.225-0.186-0.531-0.277-0.923-0.277h-2.285V-243.113z M-443.088-241.984c-0.454,0-0.788,0.096-1.006,0.287
								c-0.216,0.188-0.323,0.477-0.323,0.859v17.811c0,0.36,0.125,0.637,0.377,0.819c0.251,0.187,0.681,0.28,1.284,0.28h1.904
								c1.703,0,3.191-0.438,4.471-1.312c0.836-0.584,1.47-1.404,1.904-2.463c0.593-1.428,0.892-3.398,0.892-5.915
								c0-3.724-0.649-6.45-1.949-8.18c-1.108-1.461-2.781-2.188-5.017-2.188h-2.537V-241.984z"/>
						</g>
					</g>
					<g>
						<path fill="#0C00FF" d="M-403.874-279.209c4.667,0.056,7.249,3.24,5.765,7.14c-1.426,3.954-6.37,7.084-10.982,7.031
							c-4.614-0.055-7.195-3.295-5.712-7.193C-413.375-276.133-408.488-279.264-403.874-279.209z"/>
						<g>
							<path d="M-415.599-243.113h17.672l0.429,7.536h-1.019c-0.402-2.378-1.039-4.04-1.909-4.985
								c-0.87-0.947-2.003-1.42-3.399-1.42h-4.374c-0.352,0-0.617,0.097-0.8,0.287c-0.181,0.189-0.271,0.481-0.271,0.875v7.955
								h1.916c1.027,0,1.857-0.367,2.495-1.101c0.639-0.731,0.984-1.859,1.034-3.377h1.044v10.325h-1.044
								c-0.05-1.707-0.4-2.928-1.049-3.666c-0.649-0.741-1.532-1.109-2.646-1.109h-1.75v8.873c0,0.323,0.109,0.568,0.325,0.742
								c0.216,0.171,0.575,0.253,1.078,0.253h3.454c3.753,0,5.913-2.396,6.486-7.187h1.1l-0.377,8.312H-415.6v-1.126h1.523
								c0.593,0,1.011-0.104,1.252-0.309c0.24-0.207,0.362-0.504,0.362-0.897v-17.688c0-0.395-0.107-0.685-0.318-0.875
								c-0.211-0.191-0.541-0.287-0.996-0.287h-1.823L-415.599-243.113L-415.599-243.113z"/>
						</g>
					</g>
					<g>
						<path fill="#8F00FF" d="M-369.809-286.156c4.669,0.055,7.25,3.241,5.767,7.14c-1.428,3.954-6.371,7.084-10.984,7.029
							c-4.612-0.053-7.193-3.295-5.712-7.19C-379.312-283.081-374.421-286.21-369.809-286.156z"/>
						<g>
							<path d="M-381.085-243.113h18.153l0.297,7.723h-1.046c-0.466-2.655-1.115-4.387-1.951-5.191
								c-0.958-0.936-2.324-1.4-4.099-1.4h-3.583c-0.354,0-0.608,0.082-0.772,0.248c-0.161,0.166-0.242,0.414-0.242,0.748v8.043
								h1.919c1.067,0,1.919-0.352,2.552-1.056c0.634-0.706,0.976-1.79,1.027-3.26h1.1v10.083h-1.1
								c-0.07-1.668-0.412-2.855-1.027-3.57c-0.613-0.712-1.466-1.068-2.552-1.068h-1.919v8.521c0,0.503,0.121,0.858,0.362,1.063
								c0.241,0.209,0.66,0.312,1.253,0.312h2.325v1.123h-10.698v-1.127h2.288c0.461,0,0.79-0.093,0.984-0.277
								c0.196-0.186,0.293-0.493,0.293-0.913v-17.758c0-0.398-0.103-0.688-0.309-0.857c-0.206-0.174-0.565-0.256-1.076-0.256h-2.181
								L-381.085-243.113L-381.085-243.113z"/>
						</g>
					</g>
					<g>
						<g>
							<path fill="#EC06F9" d="M-338.35-294.082c6.096,0.055,11.863,2.361,12.303,7.47c0.33,3.736-4.613,7.138-10.71,7.138
								c-6.151-0.054-11.861-2.306-12.354-7.411C-349.441-290.678-344.448-294.082-338.35-294.082z M-336.869-280.736
								c2.637,0,4.34-2.529,4.064-4.559c-0.605-4.009-1.979-7.25-5.604-7.25c-2.637,0-4.173,2.581-3.843,4.612
								C-341.645-283.922-340.491-280.736-336.869-280.736z"/>
						</g>
						<g>
							<path d="M-332.24-241.886l1.229-2.222h1.021l0.562,8.903h-0.991c-0.751-2.562-1.64-4.416-2.66-5.562
								c-1.302-1.461-2.795-2.188-4.479-2.188c-1.291,0-2.449,0.367-3.471,1.103c-1.023,0.731-1.809,1.832-2.354,3.298
								c-0.547,1.464-0.819,3.53-0.819,6.188c0,2.582,0.272,4.601,0.821,6.054c0.546,1.457,1.302,2.529,2.264,3.218
								c0.965,0.686,2.096,1.03,3.391,1.03c1.756,0,3.114-0.492,4.074-1.475c0.959-0.982,1.438-2.254,1.438-3.812v-2.092
								c0-0.332-0.13-0.588-0.386-0.769c-0.258-0.179-0.68-0.271-1.262-0.271h-1.893v-1.045h9.357v1.045h-1.268
								c-0.564,0-0.969,0.101-1.211,0.295s-0.361,0.479-0.361,0.854v8.532h-0.992c-0.359-1.327-0.737-2.604-1.129-3.821
								c-0.754,1.237-1.649,2.165-2.691,2.784c-1.04,0.616-2.219,0.928-3.537,0.928c-1.88,0-3.624-0.479-5.227-1.446
								c-1.604-0.967-2.871-2.324-3.801-4.08c-0.93-1.754-1.396-3.737-1.396-5.949c0-2.223,0.468-4.213,1.401-5.973
								c0.934-1.759,2.211-3.156,3.832-4.192c1.623-1.037,3.262-1.552,4.92-1.552c0.942,0,1.844,0.158,2.705,0.476
								C-334.3-243.314-333.328-242.732-332.24-241.886z"/>
						</g>
					</g>
					<g>
						<path fill="#F70303" d="M-300.688-300.048c4.668,0.054,7.25,3.24,5.764,7.138c-1.43,3.956-6.369,7.086-10.98,7.031
							c-4.613-0.055-7.193-3.295-5.711-7.195C-310.188-296.973-305.303-300.105-300.688-300.048z"/>
						<g>
							<path d="M-303.626-243.566h1.056l7.993,20.404c0.323,0.821,0.979,1.235,1.976,1.235h0.695v1.126h-8.904v-1.126h0.711
								c0.929,0,1.578-0.101,1.968-0.302c0.259-0.142,0.394-0.355,0.394-0.646c0-0.172-0.033-0.354-0.105-0.543l-1.844-4.73h-8.812
								l-1.052,2.713c-0.273,0.723-0.409,1.298-0.409,1.716c0,0.493,0.229,0.916,0.688,1.266c0.459,0.353,1.125,0.526,2.002,0.526
								h0.754v1.128h-8.099v-1.126c0.867,0,1.554-0.188,2.06-0.562c0.502-0.378,0.965-1.094,1.391-2.148L-303.626-243.566z
								 M-304.041-239.279l-3.996,9.951h7.877L-304.041-239.279z"/>
						</g>
					</g>
					<g>
						<path fill="#F76806" d="M-266.636-306.995c4.67,0.054,7.251,3.24,5.766,7.138c-1.428,3.955-6.372,7.083-10.979,7.031
							c-4.611-0.056-7.194-3.295-5.717-7.195C-276.135-303.92-271.248-307.05-266.636-306.995z"/>
						<g>
							<path d="M-278.896-243.113h11.614c2.279,0,4.025,0.504,5.235,1.508c1.211,1.006,1.814,2.266,1.814,3.783
								c0,1.266-0.422,2.34-1.267,3.225c-0.845,0.885-2.112,1.582-3.813,2.095c2.104,0.442,3.682,1.14,4.735,2.093
								c1.052,0.952,1.579,2.152,1.579,3.602c0,1.107-0.302,2.089-0.896,2.942c-0.6,0.856-1.594,1.581-2.98,2.175
								c-1.395,0.597-2.97,0.894-4.742,0.894h-11.273v-1.127h1.839c0.553,0,0.96-0.091,1.213-0.271
								c0.255-0.179,0.384-0.388,0.384-0.615v-17.887c0-0.423-0.124-0.744-0.377-0.959c-0.25-0.218-0.613-0.324-1.102-0.324h-1.961
								L-278.896-243.113L-278.896-243.113z M-272.273-232.87h4.237c1.302,0,2.336-0.38,3.108-1.14
								c0.771-0.76,1.156-2.01,1.156-3.742c0-1.07-0.187-1.906-0.549-2.507c-0.369-0.604-0.9-1.038-1.606-1.317
								c-0.7-0.273-1.91-0.41-3.638-0.41c-1.223,0-1.977,0.086-2.271,0.26c-0.292,0.178-0.438,0.482-0.438,0.925L-272.273-232.87
								L-272.273-232.87L-272.273-232.87z M-272.273-231.743v8.608c0,0.402,0.117,0.703,0.355,0.904
								c0.238,0.201,0.664,0.302,1.277,0.302h2.707c1.793,0,3.113-0.392,3.972-1.183s1.282-2.021,1.282-3.691
								c0-1.529-0.441-2.734-1.324-3.615c-0.891-0.881-2.111-1.322-3.676-1.322L-272.273-231.743L-272.273-231.743z"/>
						</g>
					</g>
					<g>
						<path fill="#F7F006" d="M-232.375-314.503c4.67,0.053,7.252,3.24,5.766,7.138c-1.428,3.956-6.365,7.084-10.98,7.031
							c-4.612-0.055-7.188-3.295-5.708-7.195C-241.879-311.428-236.987-314.559-232.375-314.503z"/>
						<g>
							<path d="M-228.255-241.92l1.021-2.157h0.938l0.429,8.981h-1.019c-0.664-2.541-1.495-4.416-2.498-5.62
								c-1.243-1.511-2.729-2.263-4.454-2.263c-1.867,0-3.388,0.836-4.562,2.509c-1.175,1.672-1.756,4.503-1.756,8.493
								c0,3.355,0.675,5.912,2.021,7.679c1.146,1.492,2.752,2.235,4.816,2.235c1.811,0,3.326-0.58,4.55-1.741
								c1.226-1.162,2.022-2.914,2.396-5.259h1.072c-0.312,2.654-1.224,4.691-2.729,6.119c-1.508,1.428-3.409,2.139-5.698,2.139
								c-1.856,0-3.562-0.467-5.113-1.401c-1.556-0.937-2.795-2.278-3.727-4.034c-0.93-1.757-1.396-3.681-1.396-5.769
								c0-2.222,0.479-4.308,1.438-6.259c0.964-1.948,2.188-3.413,3.688-4.397c1.495-0.979,3.104-1.468,4.835-1.468
								c0.964,0,1.896,0.169,2.805,0.502C-230.3-243.299-229.317-242.723-228.255-241.92z"/>
						</g>
					</g>
					<g>
						<path fill="#00FF00" d="M-197.38-320.893c4.666,0.056,7.247,3.242,5.762,7.14c-1.426,3.954-6.372,7.084-10.979,7.029
							c-4.614-0.054-7.193-3.295-5.712-7.193C-206.883-317.817-201.996-320.948-197.38-320.893z"/>
						<g>
							<path d="M-210.932-243.115h11.521c1.708,0,3.164,0.303,4.361,0.905c1.484,0.763,2.753,2.037,3.792,3.815
								c1.039,1.779,1.559,3.888,1.559,6.32c0,2.012-0.312,3.825-0.935,5.434c-0.473,1.238-1.198,2.32-2.184,3.246
								c-0.979,0.923-2.178,1.615-3.584,2.081c-1.055,0.342-2.466,0.516-4.224,0.516h-10.319v-1.126h2.118
								c0.535,0,0.903-0.085,1.111-0.255c0.205-0.174,0.309-0.437,0.309-0.799v-17.98c0-0.312-0.104-0.559-0.33-0.746
								c-0.223-0.186-0.527-0.279-0.924-0.279h-2.284L-210.932-243.115L-210.932-243.115z M-202.87-241.986
								c-0.456,0-0.788,0.096-1.006,0.286c-0.217,0.188-0.323,0.476-0.323,0.86v17.809c0,0.361,0.125,0.637,0.378,0.821
								c0.252,0.187,0.685,0.28,1.284,0.28h1.902c1.703,0,3.188-0.438,4.474-1.312c0.834-0.584,1.466-1.404,1.898-2.463
								c0.597-1.428,0.895-3.398,0.895-5.914c0-3.724-0.646-6.451-1.948-8.181c-1.104-1.461-2.778-2.187-5.019-2.187
								L-202.87-241.986L-202.87-241.986z"/>
						</g>
					</g>
					<g>
						<path fill="#1206FF" d="M-163.657-327.838c4.667,0.056,7.248,3.24,5.77,7.14c-1.433,3.954-6.371,7.084-10.985,7.029
							c-4.612-0.055-7.188-3.295-5.71-7.193C-173.16-324.762-168.271-327.893-163.657-327.838z"/>
						<g>
							<path d="M-175.383-243.113h17.674l0.429,7.536h-1.021c-0.4-2.378-1.036-4.04-1.907-4.985c-0.87-0.947-2.001-1.42-3.397-1.42
								h-4.37c-0.354,0-0.619,0.097-0.806,0.287c-0.181,0.189-0.27,0.481-0.27,0.875v7.955h1.914c1.023,0,1.854-0.367,2.494-1.101
								c0.64-0.731,0.979-1.859,1.031-3.377h1.044v10.325h-1.044c-0.05-1.707-0.396-2.928-1.047-3.666
								c-0.646-0.741-1.532-1.109-2.646-1.109h-1.748v8.873c0,0.323,0.104,0.568,0.321,0.742c0.22,0.171,0.575,0.253,1.077,0.253
								h3.456c3.751,0,5.911-2.396,6.484-7.187h1.102l-0.379,8.312h-18.396v-1.126h1.523c0.597,0,1.014-0.104,1.25-0.309
								c0.241-0.207,0.362-0.504,0.362-0.897v-17.688c0-0.395-0.104-0.685-0.315-0.875c-0.213-0.191-0.543-0.287-0.993-0.287h-1.825
								L-175.383-243.113L-175.383-243.113z"/>
						</g>
					</g>
					<g>
						<path fill="#6C00F9" d="M-129.595-334.785c4.668,0.055,7.249,3.24,5.766,7.14c-1.428,3.954-6.372,7.084-10.984,7.029
							c-4.608-0.056-7.188-3.295-5.71-7.193C-139.096-331.71-134.209-334.84-129.595-334.785z"/>
						<g>
							<path d="M-140.869-243.113h18.154l0.295,7.723h-1.046c-0.462-2.655-1.111-4.387-1.95-5.191c-0.961-0.936-2.325-1.4-4.097-1.4
								h-3.588c-0.354,0-0.608,0.082-0.771,0.248s-0.243,0.414-0.243,0.748v8.043h1.918c1.065,0,1.917-0.352,2.555-1.056
								c0.633-0.706,0.974-1.79,1.021-3.26h1.104v10.083h-1.104c-0.07-1.668-0.409-2.855-1.021-3.57
								c-0.61-0.712-1.471-1.068-2.555-1.068h-1.918v8.521c0,0.503,0.117,0.858,0.362,1.063c0.243,0.209,0.662,0.312,1.252,0.312
								h2.324v1.123h-10.697v-1.127h2.289c0.463,0,0.788-0.093,0.985-0.277c0.189-0.186,0.292-0.493,0.292-0.913v-17.758
								c0-0.398-0.104-0.688-0.312-0.857c-0.204-0.174-0.562-0.256-1.075-0.256h-2.181v-1.127h0.003v-0.002h0.004V-243.113
								L-140.869-243.113z"/>
						</g>
					</g>
					<g>
						<path fill="#EC00FF" d="M-95.16-342.27c4.668,0.055,7.249,3.241,5.77,7.14c-1.432,3.954-6.37,7.084-10.984,7.029
							c-4.612-0.053-7.191-3.295-5.71-7.193C-104.664-339.194-99.775-342.325-95.16-342.27z"/>
						<g>
							<path d="M-92.401-241.886l1.229-2.222h1.02l0.562,8.903h-0.992c-0.752-2.562-1.636-4.416-2.659-5.562
								c-1.303-1.461-2.796-2.188-4.479-2.188c-1.292,0-2.452,0.367-3.473,1.103c-1.021,0.731-1.809,1.832-2.354,3.298
								c-0.545,1.464-0.821,3.53-0.821,6.188c0,2.582,0.273,4.601,0.823,6.054c0.544,1.457,1.302,2.529,2.264,3.218
								c0.964,0.686,2.1,1.03,3.395,1.03c1.755,0,3.108-0.492,4.069-1.475c0.96-0.982,1.438-2.254,1.438-3.812v-2.092
								c0-0.332-0.126-0.588-0.386-0.769c-0.256-0.179-0.684-0.271-1.266-0.271h-1.894v-1.045h9.356v1.045h-1.269
								c-0.562,0-0.969,0.101-1.211,0.295c-0.244,0.194-0.363,0.479-0.363,0.854v8.532H-90.4c-0.36-1.327-0.737-2.604-1.129-3.821
								c-0.754,1.237-1.648,2.165-2.688,2.784c-1.039,0.616-2.221,0.928-3.539,0.928c-1.881,0-3.62-0.479-5.229-1.446
								c-1.604-0.967-2.868-2.324-3.803-4.08c-0.93-1.754-1.396-3.737-1.396-5.949c0-2.223,0.467-4.213,1.396-5.973
								c0.938-1.759,2.214-3.156,3.835-4.192c1.617-1.037,3.262-1.552,4.914-1.552c0.947,0,1.85,0.158,2.705,0.476
								C-94.457-243.314-93.487-242.732-92.401-241.886z"/>
						</g>
					</g>
					<g>
						<path fill="#F7E608" d="M-472.589-262.73c4.667,0.054,7.249,3.24,5.766,7.138c-1.428,3.957-6.371,7.088-10.984,7.03
							c-4.614-0.054-7.192-3.295-5.71-7.192C-482.092-259.652-477.203-262.786-472.589-262.73z"/>
						<g>
							<path d="M-468.47-241.92l1.021-2.157h0.938l0.429,8.981h-1.019c-0.666-2.541-1.495-4.416-2.498-5.62
								c-1.247-1.511-2.73-2.263-4.456-2.263c-1.867,0-3.387,0.836-4.561,2.509c-1.175,1.672-1.758,4.503-1.758,8.493
								c0,3.355,0.676,5.912,2.018,7.679c1.146,1.492,2.753,2.235,4.822,2.235c1.809,0,3.325-0.58,4.549-1.741
								c1.223-1.162,2.024-2.914,2.396-5.259h1.073c-0.312,2.654-1.22,4.691-2.729,6.119c-1.508,1.428-3.409,2.139-5.698,2.139
								c-1.86,0-3.565-0.467-5.117-1.401c-1.55-0.937-2.795-2.278-3.724-4.034c-0.929-1.757-1.395-3.681-1.395-5.769
								c0-2.222,0.479-4.308,1.438-6.259c0.96-1.948,2.188-3.413,3.684-4.397c1.494-0.979,3.107-1.468,4.835-1.468
								c0.963,0,1.896,0.169,2.8,0.502C-470.515-243.299-469.532-242.723-468.47-241.92z"/>
						</g>
						<line fill="none" stroke="#000000" x1="-491.206" y1="-255.688" x2="-458.885" y2="-255.688"/>
					</g>
					<g>
						<path d="M-460.159-241.975v0.832h-1.067v2.102h-0.969v-2.102h-3.367v-0.752l3.691-5.268h0.645v5.186h1.067V-241.975z
							 M-462.196-241.975v-3.949l-2.792,3.949H-462.196z"/>
					</g>
					<g>
						<path d="M-117.137-246.995l-0.458,0.997h-2.396l-0.521,1.068c1.038,0.152,1.854,0.535,2.466,1.156
							c0.52,0.53,0.781,1.155,0.781,1.877c0,0.416-0.088,0.805-0.259,1.16c-0.171,0.356-0.386,0.659-0.644,0.909
							c-0.257,0.248-0.545,0.451-0.861,0.605c-0.447,0.215-0.906,0.323-1.385,0.323c-0.478,0-0.824-0.08-1.043-0.244
							c-0.218-0.163-0.323-0.34-0.323-0.537c0-0.109,0.044-0.206,0.139-0.29c0.09-0.084,0.201-0.126,0.34-0.126
							c0.103,0,0.188,0.015,0.265,0.047c0.077,0.031,0.208,0.109,0.396,0.24c0.292,0.203,0.591,0.306,0.892,0.306
							c0.458,0,0.858-0.174,1.204-0.521c0.349-0.347,0.52-0.768,0.52-1.262c0-0.482-0.15-0.93-0.463-1.348
							c-0.31-0.416-0.731-0.739-1.274-0.967c-0.432-0.174-1.012-0.276-1.742-0.305l1.521-3.092h2.854v0.001h-0.004v0.003H-117.137z"
							/>
					</g>
					<g>
						<path d="M-151.304-246.995l-0.461,0.997h-2.396l-0.521,1.068c1.035,0.152,1.854,0.535,2.463,1.156
							c0.521,0.53,0.776,1.155,0.776,1.877c0,0.416-0.084,0.805-0.255,1.16c-0.171,0.356-0.384,0.659-0.643,0.909
							c-0.256,0.248-0.543,0.451-0.863,0.605c-0.449,0.215-0.908,0.323-1.384,0.323c-0.478,0-0.823-0.08-1.038-0.244
							c-0.219-0.163-0.326-0.34-0.326-0.537c0-0.109,0.045-0.206,0.14-0.29c0.089-0.084,0.198-0.126,0.338-0.126
							c0.103,0,0.188,0.015,0.267,0.047c0.077,0.029,0.206,0.109,0.391,0.24c0.299,0.203,0.596,0.306,0.896,0.306
							c0.461,0,0.861-0.174,1.207-0.521c0.345-0.347,0.52-0.768,0.52-1.262c0-0.482-0.15-0.93-0.464-1.348
							c-0.311-0.416-0.732-0.739-1.275-0.967c-0.43-0.174-1.011-0.276-1.743-0.305l1.521-3.092L-151.304-246.995L-151.304-246.995
							L-151.304-246.995z"/>
					</g>
					<g>
						<path d="M-185.472-246.995l-0.458,0.997h-2.396l-0.521,1.068c1.036,0.152,1.854,0.535,2.464,1.156
							c0.521,0.53,0.781,1.155,0.781,1.877c0,0.416-0.09,0.805-0.257,1.16c-0.173,0.356-0.388,0.659-0.645,0.909
							c-0.258,0.248-0.544,0.451-0.861,0.605c-0.446,0.215-0.911,0.323-1.386,0.323s-0.823-0.08-1.039-0.244
							c-0.218-0.163-0.327-0.34-0.327-0.537c0-0.109,0.047-0.206,0.14-0.29c0.089-0.084,0.199-0.126,0.341-0.126
							c0.101,0,0.188,0.015,0.267,0.047c0.077,0.031,0.204,0.109,0.394,0.24c0.294,0.203,0.591,0.306,0.893,0.306
							c0.459,0,0.859-0.174,1.205-0.521c0.347-0.347,0.521-0.768,0.521-1.262c0-0.482-0.151-0.93-0.466-1.348
							c-0.309-0.416-0.73-0.739-1.273-0.967c-0.431-0.174-1.013-0.276-1.742-0.305l1.521-3.092h2.854v0.001h-0.004v0.003H-185.472z"
							/>
					</g>
					<g>
						<path d="M-219.641-246.995l-0.457,0.997h-2.396l-0.521,1.068c1.038,0.152,1.854,0.535,2.466,1.156
							c0.52,0.53,0.777,1.155,0.777,1.877c0,0.416-0.089,0.805-0.257,1.16c-0.173,0.356-0.386,0.659-0.642,0.909
							c-0.259,0.248-0.547,0.451-0.863,0.605c-0.452,0.215-0.91,0.323-1.386,0.323c-0.477,0-0.823-0.08-1.039-0.244
							c-0.219-0.163-0.325-0.34-0.325-0.537c0-0.109,0.043-0.206,0.136-0.29c0.094-0.084,0.202-0.126,0.342-0.126
							c0.103,0,0.188,0.015,0.267,0.047c0.077,0.031,0.208,0.109,0.391,0.24c0.293,0.203,0.596,0.306,0.896,0.306
							c0.457,0,0.859-0.174,1.203-0.521c0.347-0.347,0.521-0.768,0.521-1.262c0-0.482-0.15-0.93-0.465-1.348
							c-0.31-0.416-0.731-0.739-1.28-0.967c-0.426-0.174-1.006-0.276-1.737-0.305l1.521-3.092L-219.641-246.995L-219.641-246.995
							L-219.641-246.995z"/>
					</g>
					<g>
						<path d="M-255.148-241.975v0.832h-1.065v2.102h-0.972v-2.102h-3.362v-0.752l3.688-5.268h0.646v5.186h1.065V-241.975
							L-255.148-241.975z M-257.188-241.975v-3.949l-2.791,3.949H-257.188z"/>
					</g>
					<g>
						<path d="M-292.751-241.975v0.832h-1.067v2.102h-0.969v-2.102h-3.367v-0.752l3.69-5.268h0.646v5.186h1.067V-241.975z
							 M-294.787-241.975v-3.949l-2.792,3.949H-294.787z"/>
					</g>
					<g>
						<path d="M-323.486-241.975v0.832h-1.068v2.102h-0.967v-2.102h-3.369v-0.752l3.691-5.268h0.645v5.186h1.068V-241.975z
							 M-325.521-241.975v-3.949l-2.791,3.949H-325.521z"/>
					</g>
					<g>
						<path d="M-355.938-241.975v0.832h-1.069v2.102h-0.967v-2.102h-3.367v-0.752l3.689-5.268h0.646v5.186h1.069L-355.938-241.975
							L-355.938-241.975z M-357.973-241.975v-3.949l-2.792,3.949H-357.973z"/>
					</g>
					<g>
						<path d="M-391.823-241.975v0.832h-1.068v2.102h-0.967v-2.102h-3.367v-0.752l3.689-5.268h0.645v5.186h1.068V-241.975
							L-391.823-241.975z M-393.858-241.975v-3.949l-2.792,3.949H-393.858z"/>
					</g>
					<g>
						<path d="M-425.99-241.975v0.832h-1.067v2.102h-0.969v-2.102h-3.367v-0.752l3.69-5.268h0.646v5.186h1.067V-241.975z
							 M-428.026-241.975v-3.949l-2.792,3.949H-428.026z"/>
					</g>
					<g>
						<path d="M-82.969-246.995l-0.459,0.997h-2.396l-0.521,1.068c1.037,0.152,1.854,0.535,2.465,1.156
							c0.521,0.53,0.779,1.155,0.779,1.877c0,0.416-0.085,0.805-0.259,1.16c-0.171,0.356-0.384,0.659-0.642,0.909
							c-0.256,0.248-0.543,0.451-0.863,0.605c-0.445,0.215-0.91,0.323-1.384,0.323c-0.477,0-0.825-0.08-1.039-0.244
							c-0.218-0.163-0.325-0.34-0.325-0.537c0-0.109,0.043-0.206,0.14-0.29c0.089-0.084,0.197-0.126,0.337-0.126
							c0.104,0,0.188,0.015,0.268,0.047c0.077,0.029,0.206,0.109,0.391,0.24c0.299,0.203,0.596,0.306,0.896,0.306
							c0.459,0,0.861-0.174,1.207-0.521c0.345-0.347,0.52-0.768,0.52-1.262c0-0.482-0.15-0.93-0.465-1.348
							c-0.312-0.416-0.733-0.739-1.274-0.967c-0.43-0.174-1.011-0.276-1.745-0.305l1.523-3.092h2.854v0.001h-0.004L-82.969-246.995
							L-82.969-246.995z"/>
					</g>
				</g>
				<g>
					<path d="M-541.501-200.875v-1.044h462.473v1.044H-541.501z M-541.501-186.875v-1.152h462.473v1.152H-541.501z M-541.501-172.98
						v-1.043h462.473v1.043H-541.501z M-541.501-159.086v-1.044h462.473v1.044H-541.501z M-541.501-145.191v-1.043h462.473v1.043
						H-541.501z"/>
					<path fill="#5406FF" d="M-437.6-145.262c4.669,0.055,7.25,3.242,5.767,7.14c-1.428,3.955-6.371,7.086-10.984,7.028
						c-4.612-0.053-7.193-3.295-5.712-7.191C-447.101-142.186-442.212-145.314-437.6-145.262z"/>
					<g>
						<path d="M-280.109-117.132h11.523c1.709,0,3.164,0.301,4.359,0.903c1.484,0.764,2.752,2.037,3.791,3.813
							c1.041,1.78,1.562,3.89,1.562,6.319c0,2.012-0.312,3.822-0.937,5.435c-0.476,1.237-1.199,2.317-2.183,3.243
							c-0.979,0.923-2.176,1.617-3.584,2.083c-1.054,0.339-2.465,0.515-4.224,0.515h-10.317v-1.13H-278
							c0.538,0,0.904-0.084,1.113-0.255c0.205-0.171,0.308-0.438,0.308-0.801v-17.975c0-0.312-0.106-0.56-0.332-0.748
							c-0.223-0.184-0.528-0.275-0.921-0.275h-2.284v-1.126L-280.109-117.132L-280.109-117.132z M-272.051-116.008
							c-0.455,0-0.787,0.098-1.006,0.287c-0.217,0.188-0.323,0.478-0.323,0.859v17.811c0,0.361,0.124,0.636,0.379,0.82
							c0.252,0.188,0.681,0.278,1.284,0.278h1.902c1.697,0,3.188-0.438,4.472-1.312c0.834-0.586,1.468-1.403,1.903-2.463
							c0.594-1.429,0.892-3.397,0.892-5.916c0-3.727-0.647-6.447-1.95-8.178c-1.109-1.465-2.779-2.188-5.016-2.188L-272.051-116.008
							L-272.051-116.008z"/>
					</g>
					<path fill="#8800FF" d="M-403.874-152.209c4.667,0.057,7.249,3.238,5.765,7.141c-1.426,3.953-6.37,7.084-10.982,7.029
						c-4.614-0.055-7.195-3.295-5.712-7.193C-413.375-149.134-408.488-152.266-403.874-152.209z"/>
					<g>
						<path d="M-244.588-117.132h17.672l0.429,7.534h-1.021c-0.398-2.379-1.035-4.038-1.907-4.987
							c-0.87-0.944-2.001-1.419-3.398-1.419h-4.372c-0.353,0-0.615,0.098-0.801,0.286c-0.183,0.19-0.271,0.481-0.271,0.877v7.954
							h1.914c1.023,0,1.854-0.367,2.497-1.104c0.636-0.731,0.979-1.856,1.029-3.38h1.05v10.326h-1.05
							c-0.051-1.706-0.396-2.93-1.05-3.667c-0.646-0.738-1.526-1.104-2.645-1.104h-1.75v8.873c0,0.319,0.104,0.564,0.323,0.737
							c0.215,0.172,0.57,0.254,1.072,0.254h3.458c3.751,0,5.911-2.396,6.486-7.188h1.1l-0.379,8.313h-18.396v-1.128h1.523
							c0.597,0,1.012-0.104,1.25-0.309c0.242-0.205,0.361-0.506,0.361-0.897v-17.688c0-0.396-0.105-0.685-0.316-0.877
							c-0.213-0.188-0.541-0.285-0.992-0.285h-1.824L-244.588-117.132L-244.588-117.132z"/>
					</g>
					<path fill="#F70606" d="M-369.809-159.156c4.669,0.057,7.25,3.241,5.767,7.141c-1.428,3.953-6.371,7.084-10.984,7.029
						c-4.612-0.055-7.193-3.295-5.712-7.188C-379.312-156.081-374.421-159.21-369.809-159.156z"/>
					<g>
						<path d="M-209.756-117.132h18.154l0.295,7.723h-1.044c-0.47-2.655-1.112-4.39-1.95-5.192
							c-0.959-0.936-2.325-1.398-4.104-1.398h-3.584c-0.354,0-0.604,0.083-0.771,0.249c-0.161,0.166-0.241,0.414-0.241,0.746v8.047
							h1.917c1.069,0,1.921-0.354,2.552-1.06c0.636-0.707,0.979-1.791,1.028-3.26h1.102v10.082h-1.102
							c-0.07-1.668-0.412-2.854-1.028-3.57c-0.606-0.711-1.465-1.064-2.552-1.064H-203v8.521c0,0.504,0.121,0.855,0.362,1.062
							c0.237,0.207,0.659,0.312,1.252,0.312h2.321v1.123h-10.694v-1.127h2.287c0.465,0,0.79-0.095,0.981-0.276
							c0.194-0.187,0.294-0.493,0.294-0.915v-17.751c0-0.397-0.103-0.688-0.311-0.858c-0.204-0.173-0.562-0.255-1.076-0.255h-2.18
							L-209.756-117.132L-209.756-117.132z"/>
					</g>
					<g>
						<path d="M-161.376-114.911l1.227-2.223h1.021l0.562,8.901h-0.986c-0.751-2.562-1.642-4.416-2.66-5.562
							c-1.304-1.458-2.796-2.188-4.479-2.188c-1.292,0-2.452,0.365-3.471,1.102c-1.024,0.73-1.809,1.834-2.354,3.299
							c-0.547,1.466-0.818,3.532-0.818,6.188c0,2.582,0.271,4.603,0.818,6.058c0.55,1.456,1.306,2.524,2.268,3.218
							c0.962,0.688,2.095,1.03,3.389,1.03c1.757,0,3.115-0.492,4.076-1.479c0.96-0.979,1.438-2.252,1.438-3.811v-2.094
							c0-0.332-0.128-0.586-0.389-0.771c-0.259-0.182-0.681-0.271-1.264-0.271h-1.891v-1.045h9.354v1.045h-1.271
							c-0.563,0-0.971,0.104-1.21,0.296c-0.241,0.192-0.362,0.479-0.362,0.853v8.534h-0.992c-0.354-1.327-0.731-2.604-1.126-3.819
							c-0.753,1.233-1.652,2.164-2.688,2.783c-1.041,0.615-2.224,0.93-3.54,0.93c-1.884,0-3.62-0.481-5.229-1.446
							c-1.603-0.968-2.869-2.325-3.801-4.079c-0.929-1.758-1.396-3.738-1.396-5.95c0-2.226,0.47-4.214,1.401-5.976
							c0.932-1.76,2.212-3.153,3.833-4.191c1.619-1.034,3.258-1.55,4.917-1.55c0.945,0,1.844,0.157,2.705,0.475
							C-163.435-116.34-162.463-115.758-161.376-114.911z"/>
					</g>
					<path fill="#FFE600" d="M-300.688-173.049c4.668,0.053,7.25,3.24,5.764,7.139c-1.43,3.955-6.369,7.086-10.98,7.03
						c-4.613-0.056-7.193-3.295-5.711-7.194C-310.188-169.973-305.303-173.105-300.688-173.049z"/>
					<g>
						<path d="M-132.702-117.132h1.056l7.995,20.403c0.321,0.824,0.979,1.232,1.978,1.232h0.692v1.128h-8.901v-1.128h0.711
							c0.926,0,1.579-0.104,1.965-0.302c0.258-0.144,0.392-0.354,0.392-0.646c0-0.171-0.031-0.354-0.104-0.543l-1.843-4.729h-8.812
							l-1.053,2.712c-0.272,0.722-0.408,1.297-0.408,1.716c0,0.492,0.232,0.915,0.688,1.269c0.459,0.353,1.126,0.523,2.001,0.523
							h0.755v1.128h-8.103v-1.127c0.866,0,1.558-0.188,2.061-0.562c0.504-0.377,0.969-1.092,1.393-2.147L-132.702-117.132z
							 M-133.116-112.846l-3.995,9.953h7.877L-133.116-112.846z"/>
					</g>
					<path fill="#06FC1D" d="M-266.91-179.995c4.669,0.056,7.252,3.241,5.766,7.138c-1.428,3.957-6.371,7.086-10.979,7.032
						c-4.613-0.055-7.193-3.296-5.715-7.194C-276.411-176.918-271.521-180.051-266.91-179.995z"/>
					<g>
						<path d="M-107.912-117.132h11.614c2.279,0,4.021,0.502,5.236,1.506c1.21,1.006,1.812,2.265,1.812,3.783
							c0,1.266-0.422,2.338-1.264,3.225c-0.849,0.886-2.115,1.582-3.817,2.095c2.108,0.442,3.686,1.144,4.739,2.092
							c1.049,0.955,1.579,2.152,1.579,3.604c0,1.106-0.305,2.089-0.898,2.943c-0.597,0.856-1.592,1.579-2.979,2.173
							c-1.396,0.598-2.974,0.895-4.741,0.895h-11.274v-1.127h1.835c0.557,0,0.96-0.091,1.213-0.271
							c0.259-0.179,0.388-0.388,0.388-0.615v-17.886c0-0.422-0.124-0.743-0.375-0.957c-0.251-0.219-0.617-0.324-1.104-0.324h-1.96
							v-1.134h-0.002L-107.912-117.132L-107.912-117.132z M-101.29-106.891h4.238c1.301,0,2.335-0.381,3.104-1.144
							c0.771-0.761,1.156-2.009,1.156-3.739c0-1.07-0.183-1.904-0.55-2.509c-0.369-0.604-0.9-1.036-1.605-1.315
							c-0.697-0.274-1.911-0.412-3.637-0.412c-1.221,0-1.973,0.089-2.27,0.262c-0.292,0.176-0.439,0.482-0.439,0.926
							L-101.29-106.891L-101.29-106.891z M-101.29-105.764v8.609c0,0.398,0.117,0.7,0.354,0.901c0.236,0.2,0.666,0.301,1.273,0.301
							h2.709c1.793,0,3.112-0.396,3.97-1.183c0.858-0.791,1.284-2.021,1.284-3.69c0-1.528-0.438-2.731-1.325-3.612
							c-0.891-0.881-2.108-1.321-3.676-1.321L-101.29-105.764L-101.29-105.764z"/>
					</g>
					<path fill="#0000FF" d="M-232.623-187.504c4.67,0.054,7.251,3.24,5.764,7.139c-1.428,3.957-6.364,7.088-10.979,7.03
						c-4.614-0.054-7.188-3.295-5.708-7.192C-242.126-184.427-237.235-187.559-232.623-187.504z"/>
					<path fill="#F45C08" d="M-335.245-166.859c4.666,0.053,7.247,3.238,5.763,7.139c-1.428,3.953-6.373,7.087-10.981,7.029
						c-4.614-0.054-7.193-3.295-5.712-7.189C-344.748-163.787-339.861-166.918-335.245-166.859z"/>
					<path fill="#F803FF" d="M-163.758-200.838c4.667,0.057,7.248,3.238,5.764,7.141c-1.428,3.953-6.37,7.084-10.979,7.03
						c-4.614-0.056-7.192-3.297-5.711-7.192C-173.261-197.764-168.372-200.895-163.758-200.838z"/>
					<g>
						<path d="M-483.936-117.132h17.673l0.429,7.534h-1.021c-0.399-2.379-1.036-4.038-1.907-4.987
							c-0.87-0.944-2.001-1.419-3.397-1.419h-4.374c-0.352,0-0.619,0.098-0.8,0.286c-0.183,0.19-0.271,0.481-0.271,0.877v7.954
							h1.916c1.025,0,1.857-0.367,2.492-1.104c0.64-0.731,0.982-1.856,1.036-3.38h1.046v10.326h-1.046
							c-0.05-1.706-0.401-2.93-1.047-3.667c-0.65-0.738-1.532-1.104-2.648-1.104h-1.75v8.873c0,0.319,0.107,0.564,0.322,0.737
							c0.22,0.172,0.578,0.254,1.081,0.254h3.456c3.751,0,5.912-2.396,6.485-7.188h1.101l-0.377,8.313h-18.401v-1.128h1.527
							c0.593,0,1.011-0.104,1.25-0.309c0.241-0.205,0.362-0.506,0.362-0.897v-17.688c0-0.396-0.105-0.685-0.317-0.877
							c-0.211-0.188-0.543-0.285-0.995-0.285h-1.825V-117.132L-483.936-117.132z"/>
					</g>
					<path fill="#FF0000" d="M-129.756-207.785c4.666,0.057,7.249,3.241,5.766,7.141c-1.428,3.953-6.372,7.084-10.98,7.029
						c-4.612-0.055-7.191-3.296-5.712-7.191C-139.26-204.709-134.371-207.84-129.756-207.785z"/>
					<g>
						<path d="M-448.943-117.132h18.153l0.296,7.723h-1.045c-0.464-2.655-1.113-4.39-1.951-5.192
							c-0.96-0.936-2.325-1.398-4.098-1.398h-3.586c-0.352,0-0.608,0.083-0.771,0.249c-0.161,0.166-0.242,0.414-0.242,0.746v8.047
							h1.917c1.066,0,1.917-0.354,2.551-1.06c0.632-0.707,0.974-1.791,1.026-3.26h1.103v10.082h-1.101
							c-0.07-1.668-0.409-2.854-1.025-3.57c-0.61-0.711-1.467-1.064-2.551-1.064h-1.917v8.521c0,0.504,0.117,0.855,0.362,1.062
							c0.243,0.207,0.661,0.312,1.252,0.312h2.325v1.123h-10.698v-1.127h2.289c0.463,0,0.788-0.095,0.984-0.276
							c0.195-0.187,0.292-0.493,0.292-0.915v-17.751c0-0.397-0.101-0.688-0.309-0.858c-0.205-0.173-0.563-0.255-1.076-0.255h-2.18
							v-1.128h0.001L-448.943-117.132L-448.943-117.132z"/>
					</g>
					<path fill="#FF9D00" d="M-95.381-215.27c4.668,0.054,7.249,3.24,5.766,7.14c-1.429,3.953-6.372,7.084-10.98,7.028
						c-4.614-0.053-7.192-3.295-5.711-7.191C-104.886-212.193-99.997-215.325-95.381-215.27z"/>
					<g>
						<path d="M-399.451-114.911l1.229-2.223h1.019l0.563,8.901h-0.992c-0.751-2.562-1.636-4.416-2.66-5.562
							c-1.302-1.458-2.796-2.188-4.479-2.188c-1.292,0-2.452,0.365-3.469,1.102c-1.024,0.73-1.807,1.834-2.353,3.299
							c-0.545,1.466-0.821,3.532-0.821,6.188c0,2.582,0.273,4.603,0.823,6.058c0.546,1.458,1.302,2.524,2.266,3.218
							c0.962,0.688,2.093,1.03,3.389,1.03c1.757,0,3.114-0.492,4.073-1.479c0.96-0.979,1.438-2.252,1.438-3.811v-2.094
							c0-0.332-0.125-0.586-0.385-0.771c-0.256-0.182-0.681-0.271-1.262-0.271h-1.894v-1.045h9.357v1.045h-1.267
							c-0.565,0-0.969,0.104-1.21,0.296c-0.245,0.192-0.364,0.479-0.364,0.853v8.534h-0.991c-0.362-1.327-0.739-2.604-1.128-3.819
							c-0.75,1.233-1.651,2.164-2.69,2.783c-1.039,0.615-2.221,0.93-3.54,0.93c-1.88,0-3.62-0.481-5.226-1.446
							c-1.606-0.968-2.871-2.325-3.801-4.079c-0.93-1.758-1.396-3.738-1.396-5.95c0-2.226,0.466-4.214,1.399-5.976
							c0.933-1.76,2.212-3.153,3.833-4.191c1.619-1.034,3.26-1.55,4.916-1.55c0.947,0,1.845,0.157,2.705,0.475
							C-401.509-116.34-400.535-115.758-399.451-114.911z"/>
					</g>
					<path fill="#0600FF" d="M-472.589-135.73c4.667,0.057,7.249,3.24,5.766,7.141c-1.428,3.957-6.371,7.088-10.984,7.027
						c-4.614-0.053-7.192-3.295-5.71-7.189C-482.092-132.652-477.203-135.786-472.589-135.73z"/>
					<g>
						<path d="M-297.458-114.92l1.021-2.157h0.939l0.43,8.981h-1.021c-0.663-2.54-1.494-4.416-2.496-5.619
							c-1.246-1.51-2.729-2.264-4.455-2.264c-1.867,0-3.388,0.836-4.562,2.51c-1.174,1.673-1.756,4.504-1.756,8.494
							c0,3.354,0.674,5.91,2.018,7.678c1.146,1.49,2.752,2.234,4.82,2.234c1.81,0,3.327-0.578,4.549-1.74
							c1.225-1.163,2.023-2.914,2.396-5.258h1.072c-0.312,2.649-1.222,4.688-2.729,6.117c-1.506,1.428-3.408,2.141-5.699,2.141
							c-1.859,0-3.562-0.469-5.114-1.402c-1.552-0.936-2.796-2.279-3.724-4.033c-0.93-1.758-1.396-3.682-1.396-5.77
							c0-2.221,0.479-4.309,1.438-6.26c0.963-1.948,2.188-3.414,3.685-4.396c1.496-0.98,3.106-1.468,4.838-1.468
							c0.962,0,1.894,0.169,2.802,0.502C-299.503-116.299-298.521-115.723-297.458-114.92z"/>
					</g>
					<line fill="none" stroke="#000000" x1="-491.206" y1="-128.689" x2="-458.885" y2="-128.689"/>
					<g>
						<path d="M-460.241-113.574l-0.558,1.533h-4.693v-0.218c1.379-1.259,2.354-2.286,2.917-3.084
							c0.563-0.798,0.845-1.529,0.845-2.188c0-0.504-0.154-0.918-0.464-1.242c-0.309-0.328-0.679-0.483-1.108-0.483
							c-0.392,0-0.744,0.108-1.052,0.342c-0.312,0.229-0.54,0.562-0.691,1.006h-0.216c0.099-0.723,0.349-1.274,0.754-1.668
							c0.404-0.386,0.91-0.58,1.515-0.58c0.646,0,1.185,0.208,1.618,0.622c0.431,0.414,0.646,0.903,0.646,1.471
							c0,0.396-0.095,0.805-0.281,1.203c-0.289,0.637-0.759,1.309-1.408,2.018c-0.972,1.062-1.583,1.703-1.824,1.923h2.077
							c0.422,0,0.719-0.017,0.888-0.046c0.173-0.033,0.325-0.096,0.462-0.19c0.138-0.094,0.255-0.229,0.357-0.409h0.216V-113.574z"
							/>
					</g>
					<g>
						<path d="M-126.892-118.482c0.227-0.539,0.515-0.949,0.856-1.242c0.347-0.291,0.777-0.438,1.294-0.438
							c0.641,0,1.126,0.207,1.466,0.621c0.261,0.309,0.394,0.639,0.394,0.991c0,0.579-0.366,1.178-1.093,1.796
							c0.485,0.191,0.854,0.465,1.105,0.82c0.249,0.354,0.375,0.771,0.375,1.254c0,0.688-0.218,1.285-0.657,1.791
							c-0.565,0.656-1.396,0.984-2.479,0.984c-0.538,0-0.901-0.066-1.096-0.199c-0.191-0.133-0.288-0.275-0.288-0.431
							c0-0.11,0.043-0.214,0.136-0.3c0.092-0.085,0.201-0.129,0.332-0.129c0.097,0,0.197,0.018,0.298,0.047
							c0.067,0.021,0.218,0.091,0.454,0.216c0.234,0.119,0.394,0.193,0.484,0.222c0.145,0.041,0.3,0.062,0.465,0.062
							c0.396,0,0.747-0.153,1.04-0.466c0.295-0.312,0.44-0.678,0.44-1.102c0-0.31-0.064-0.606-0.202-0.897
							c-0.104-0.224-0.217-0.39-0.337-0.5c-0.168-0.155-0.396-0.3-0.688-0.427c-0.294-0.129-0.592-0.188-0.896-0.188h-0.188v-0.177
							c0.311-0.038,0.617-0.147,0.929-0.335c0.313-0.186,0.538-0.404,0.679-0.664c0.145-0.26,0.211-0.539,0.211-0.854
							c0-0.396-0.121-0.729-0.38-0.975c-0.25-0.25-0.562-0.374-0.938-0.374c-0.605,0-1.111,0.325-1.521,0.974L-126.892-118.482z"/>
					</g>
					<g>
						<path d="M-157.627-118.482c0.229-0.539,0.515-0.949,0.857-1.242c0.349-0.291,0.774-0.438,1.296-0.438
							c0.637,0,1.125,0.207,1.467,0.621c0.258,0.309,0.385,0.639,0.385,0.991c0,0.579-0.361,1.178-1.089,1.796
							c0.487,0.191,0.858,0.465,1.109,0.82c0.25,0.354,0.375,0.771,0.375,1.254c0,0.688-0.223,1.285-0.656,1.791
							c-0.572,0.656-1.398,0.984-2.482,0.984c-0.534,0-0.896-0.066-1.093-0.199c-0.196-0.133-0.292-0.275-0.292-0.431
							c0-0.11,0.046-0.214,0.138-0.3c0.098-0.085,0.205-0.129,0.33-0.129c0.104,0,0.198,0.018,0.3,0.047
							c0.065,0.021,0.223,0.091,0.453,0.216c0.234,0.119,0.397,0.193,0.487,0.222c0.146,0.041,0.3,0.062,0.465,0.062
							c0.398,0,0.745-0.153,1.039-0.466c0.296-0.312,0.444-0.678,0.444-1.102c0-0.31-0.069-0.606-0.207-0.897
							c-0.104-0.224-0.211-0.39-0.333-0.5c-0.169-0.155-0.397-0.3-0.69-0.427c-0.294-0.129-0.595-0.188-0.896-0.188h-0.188v-0.177
							c0.312-0.038,0.62-0.147,0.938-0.335c0.308-0.186,0.534-0.404,0.677-0.664c0.141-0.26,0.211-0.539,0.211-0.854
							c0-0.396-0.127-0.729-0.379-0.975c-0.253-0.248-0.566-0.374-0.943-0.374c-0.604,0-1.108,0.325-1.519,0.974L-157.627-118.482z"
							/>
					</g>
					<g>
						<path d="M-190.076-118.482c0.229-0.539,0.517-0.949,0.858-1.242c0.345-0.291,0.773-0.438,1.294-0.438
							c0.637,0,1.124,0.207,1.465,0.621c0.258,0.309,0.389,0.639,0.389,0.991c0,0.579-0.36,1.178-1.093,1.796
							c0.487,0.191,0.858,0.465,1.109,0.82c0.25,0.354,0.375,0.771,0.375,1.254c0,0.688-0.218,1.285-0.656,1.791
							c-0.57,0.656-1.398,0.984-2.48,0.984c-0.532,0-0.896-0.066-1.095-0.199c-0.188-0.133-0.29-0.275-0.29-0.431
							c0-0.11,0.047-0.214,0.142-0.3c0.092-0.085,0.199-0.129,0.326-0.129c0.103,0,0.197,0.018,0.304,0.047
							c0.063,0.021,0.218,0.091,0.45,0.216c0.233,0.119,0.396,0.193,0.484,0.222c0.146,0.041,0.3,0.062,0.465,0.062
							c0.398,0,0.747-0.153,1.04-0.466c0.294-0.312,0.442-0.678,0.442-1.102c0-0.31-0.066-0.606-0.204-0.897
							c-0.101-0.224-0.213-0.39-0.335-0.5c-0.168-0.155-0.397-0.3-0.689-0.427c-0.295-0.129-0.593-0.188-0.896-0.188h-0.188v-0.177
							c0.312-0.038,0.617-0.147,0.935-0.335c0.31-0.186,0.536-0.404,0.677-0.664c0.141-0.26,0.211-0.539,0.211-0.854
							c0-0.396-0.126-0.729-0.379-0.975c-0.251-0.25-0.562-0.374-0.938-0.374c-0.606,0-1.111,0.325-1.521,0.974L-190.076-118.482z"
							/>
					</g>
					<g>
						<path d="M-225.962-118.482c0.228-0.539,0.514-0.949,0.859-1.242c0.347-0.291,0.773-0.438,1.294-0.438
							c0.639,0,1.126,0.207,1.465,0.621c0.258,0.309,0.389,0.639,0.389,0.991c0,0.579-0.363,1.178-1.091,1.796
							c0.487,0.191,0.854,0.465,1.104,0.82c0.255,0.354,0.38,0.771,0.38,1.254c0,0.688-0.224,1.285-0.657,1.791
							c-0.571,0.656-1.396,0.984-2.482,0.984c-0.534,0-0.896-0.066-1.095-0.199c-0.192-0.133-0.289-0.275-0.289-0.431
							c0-0.11,0.045-0.214,0.137-0.3c0.093-0.085,0.203-0.129,0.332-0.129c0.103,0,0.196,0.018,0.3,0.047
							c0.065,0.021,0.221,0.091,0.451,0.216c0.234,0.119,0.397,0.193,0.487,0.222c0.145,0.041,0.299,0.062,0.463,0.062
							c0.398,0,0.747-0.153,1.041-0.466c0.297-0.312,0.444-0.678,0.444-1.102c0-0.31-0.07-0.606-0.206-0.897
							c-0.104-0.224-0.213-0.39-0.332-0.5c-0.171-0.155-0.399-0.3-0.694-0.427c-0.291-0.129-0.592-0.188-0.896-0.188h-0.188v-0.177
							c0.312-0.038,0.617-0.147,0.931-0.335c0.312-0.186,0.536-0.404,0.681-0.664c0.142-0.26,0.212-0.539,0.212-0.854
							c0-0.396-0.124-0.729-0.379-0.975c-0.252-0.25-0.566-0.374-0.942-0.374c-0.604,0-1.112,0.325-1.519,0.974L-225.962-118.482z"
							/>
					</g>
					<g>
						<path d="M-258.413-118.482c0.228-0.539,0.513-0.949,0.858-1.242c0.347-0.291,0.777-0.438,1.294-0.438
							c0.637,0,1.126,0.207,1.466,0.621c0.257,0.309,0.388,0.639,0.388,0.991c0,0.579-0.362,1.178-1.091,1.796
							c0.487,0.191,0.857,0.465,1.107,0.82c0.252,0.354,0.377,0.771,0.377,1.254c0,0.688-0.221,1.285-0.658,1.791
							c-0.57,0.656-1.396,0.984-2.479,0.984c-0.539,0-0.9-0.066-1.101-0.199c-0.188-0.133-0.29-0.275-0.29-0.431
							c0-0.11,0.047-0.214,0.141-0.3c0.092-0.085,0.203-0.129,0.332-0.129c0.098,0,0.194,0.018,0.299,0.047
							c0.063,0.021,0.218,0.091,0.453,0.216c0.232,0.119,0.396,0.193,0.481,0.222c0.146,0.041,0.304,0.062,0.466,0.062
							c0.396,0,0.746-0.153,1.039-0.466c0.294-0.312,0.443-0.678,0.443-1.102c0-0.31-0.067-0.606-0.203-0.897
							c-0.104-0.224-0.213-0.39-0.335-0.5c-0.17-0.155-0.396-0.3-0.688-0.427c-0.298-0.129-0.597-0.188-0.896-0.188h-0.188v-0.177
							c0.311-0.038,0.617-0.147,0.932-0.335c0.312-0.186,0.537-0.404,0.681-0.664c0.142-0.26,0.209-0.539,0.209-0.854
							c0-0.396-0.124-0.729-0.379-0.975c-0.249-0.25-0.562-0.374-0.938-0.374c-0.605,0-1.111,0.325-1.521,0.974L-258.413-118.482z"
							/>
					</g>
					<g>
						<path d="M-294.299-118.482c0.226-0.539,0.513-0.949,0.857-1.242c0.348-0.291,0.774-0.438,1.293-0.438
							c0.64,0,1.127,0.207,1.467,0.621c0.258,0.309,0.388,0.639,0.388,0.991c0,0.579-0.363,1.178-1.091,1.796
							c0.488,0.191,0.857,0.465,1.107,0.82c0.252,0.354,0.377,0.771,0.377,1.254c0,0.688-0.223,1.285-0.658,1.791
							c-0.569,0.656-1.396,0.984-2.48,0.984c-0.536,0-0.898-0.066-1.096-0.199c-0.191-0.133-0.29-0.275-0.29-0.431
							c0-0.11,0.047-0.214,0.138-0.3c0.094-0.085,0.202-0.129,0.331-0.129c0.099,0,0.198,0.018,0.3,0.047
							c0.066,0.021,0.215,0.091,0.45,0.216c0.235,0.119,0.396,0.193,0.487,0.222c0.145,0.041,0.299,0.062,0.464,0.062
							c0.397,0,0.746-0.153,1.039-0.466c0.297-0.312,0.446-0.678,0.446-1.102c0-0.31-0.07-0.606-0.207-0.897
							c-0.104-0.224-0.213-0.39-0.334-0.5c-0.168-0.155-0.397-0.3-0.692-0.427c-0.292-0.129-0.593-0.188-0.896-0.188h-0.188v-0.177
							c0.31-0.038,0.618-0.147,0.931-0.335c0.311-0.186,0.538-0.404,0.68-0.664c0.144-0.26,0.211-0.539,0.211-0.854
							c0-0.396-0.127-0.729-0.381-0.975c-0.25-0.25-0.563-0.374-0.938-0.374c-0.604,0-1.109,0.325-1.521,0.974L-294.299-118.482z"/>
					</g>
					<g>
						<path d="M-323.568-113.574l-0.559,1.533h-4.691v-0.218c1.381-1.259,2.353-2.286,2.916-3.084
							c0.562-0.798,0.844-1.529,0.844-2.188c0-0.504-0.153-0.918-0.463-1.242c-0.31-0.328-0.68-0.483-1.108-0.483
							c-0.392,0-0.742,0.108-1.054,0.342c-0.312,0.229-0.539,0.562-0.688,1.006h-0.216c0.097-0.723,0.349-1.274,0.752-1.668
							c0.403-0.386,0.91-0.58,1.517-0.58c0.645,0,1.185,0.208,1.616,0.622c0.431,0.414,0.646,0.903,0.646,1.471
							c0,0.396-0.094,0.805-0.28,1.203c-0.288,0.637-0.759,1.309-1.408,2.018c-0.972,1.062-1.582,1.703-1.823,1.923h2.077
							c0.423,0,0.72-0.017,0.888-0.046c0.174-0.033,0.326-0.096,0.463-0.19c0.139-0.094,0.256-0.229,0.356-0.409h0.216
							L-323.568-113.574L-323.568-113.574z"/>
					</g>
					<g>
						<path d="M-359.453-113.574l-0.558,1.533h-4.691v-0.218c1.379-1.259,2.353-2.286,2.915-3.084
							c0.563-0.798,0.845-1.529,0.845-2.188c0-0.504-0.154-0.918-0.462-1.242c-0.31-0.328-0.681-0.483-1.109-0.483
							c-0.391,0-0.743,0.108-1.051,0.342c-0.313,0.229-0.542,0.562-0.691,1.006h-0.216c0.097-0.723,0.349-1.274,0.752-1.668
							c0.404-0.386,0.91-0.58,1.517-0.58c0.646,0,1.183,0.208,1.616,0.622c0.431,0.414,0.647,0.903,0.647,1.471
							c0,0.396-0.094,0.805-0.282,1.203c-0.288,0.637-0.757,1.309-1.406,2.018c-0.974,1.062-1.583,1.703-1.825,1.923h2.077
							c0.422,0,0.719-0.017,0.89-0.046c0.171-0.033,0.323-0.096,0.461-0.19c0.137-0.094,0.256-0.229,0.357-0.409h0.214V-113.574
							L-359.453-113.574z"/>
					</g>
					<g>
						<path d="M-390.189-113.574l-0.558,1.533h-4.691v-0.218c1.379-1.259,2.353-2.286,2.916-3.084
							c0.562-0.798,0.843-1.529,0.843-2.188c0-0.504-0.154-0.918-0.462-1.242c-0.309-0.328-0.681-0.483-1.11-0.483
							c-0.39,0-0.742,0.108-1.051,0.342c-0.313,0.229-0.541,0.562-0.69,1.006h-0.218c0.097-0.723,0.349-1.274,0.754-1.668
							c0.402-0.386,0.909-0.58,1.515-0.58c0.646,0,1.184,0.208,1.616,0.622c0.431,0.414,0.647,0.903,0.647,1.471
							c0,0.396-0.094,0.805-0.281,1.203c-0.289,0.637-0.758,1.309-1.406,2.018c-0.974,1.062-1.583,1.703-1.825,1.923h2.077
							c0.422,0,0.719-0.017,0.89-0.046c0.171-0.033,0.324-0.096,0.461-0.19c0.138-0.094,0.256-0.229,0.357-0.409h0.216V-113.574
							L-390.189-113.574z"/>
					</g>
					<g>
						<path d="M-424.357-113.574l-0.557,1.533h-4.693v-0.218c1.379-1.259,2.353-2.286,2.917-3.084
							c0.563-0.798,0.845-1.529,0.845-2.188c0-0.504-0.156-0.918-0.464-1.242c-0.309-0.328-0.679-0.483-1.108-0.483
							c-0.392,0-0.744,0.108-1.053,0.342c-0.312,0.229-0.541,0.562-0.69,1.006h-0.216c0.099-0.723,0.349-1.274,0.754-1.668
							c0.402-0.386,0.908-0.58,1.515-0.58c0.645,0,1.185,0.208,1.617,0.622c0.431,0.414,0.647,0.903,0.647,1.471
							c0,0.396-0.096,0.805-0.282,1.203c-0.288,0.637-0.759,1.309-1.408,2.018c-0.974,1.062-1.582,1.703-1.825,1.923h2.079
							c0.42,0,0.719-0.017,0.888-0.046c0.171-0.033,0.323-0.096,0.461-0.19c0.137-0.094,0.256-0.229,0.357-0.409h0.216V-113.574z"/>
					</g>
					<g>
						<path d="M-87.572-118.482c0.229-0.539,0.517-0.949,0.857-1.242c0.349-0.291,0.778-0.438,1.294-0.438
							c0.639,0,1.127,0.207,1.469,0.621c0.256,0.309,0.386,0.639,0.386,0.991c0,0.579-0.358,1.178-1.09,1.796
							c0.487,0.191,0.858,0.465,1.107,0.82c0.252,0.354,0.377,0.771,0.377,1.254c0,0.688-0.219,1.285-0.658,1.791
							c-0.571,0.656-1.396,0.984-2.479,0.984c-0.536,0-0.898-0.066-1.099-0.199c-0.19-0.133-0.291-0.275-0.291-0.431
							c0-0.11,0.047-0.214,0.141-0.3c0.096-0.085,0.205-0.129,0.332-0.129c0.1,0,0.194,0.018,0.3,0.047
							c0.062,0.021,0.217,0.091,0.451,0.216c0.232,0.119,0.396,0.193,0.484,0.222c0.146,0.041,0.3,0.062,0.466,0.062
							c0.396,0,0.744-0.153,1.037-0.466c0.297-0.312,0.444-0.678,0.444-1.102c0-0.31-0.069-0.606-0.205-0.897
							c-0.102-0.224-0.211-0.39-0.333-0.5c-0.169-0.155-0.396-0.3-0.691-0.427c-0.294-0.129-0.594-0.188-0.896-0.188h-0.188v-0.177
							c0.312-0.038,0.619-0.147,0.935-0.335c0.309-0.186,0.538-0.404,0.679-0.664c0.142-0.26,0.21-0.539,0.21-0.854
							c0-0.396-0.126-0.729-0.379-0.975c-0.252-0.248-0.562-0.374-0.939-0.374c-0.607,0-1.111,0.325-1.521,0.974L-87.572-118.482z"
							/>
					</g>
					<g>
						<path d="M-370.166-117.132h1.056l7.995,20.403c0.322,0.824,0.979,1.232,1.974,1.232h0.696v1.128h-8.903v-1.128h0.71
							c0.923,0,1.579-0.104,1.962-0.302c0.26-0.144,0.392-0.354,0.392-0.646c0-0.171-0.035-0.354-0.107-0.543l-1.844-4.729h-8.809
							l-1.052,2.712c-0.273,0.722-0.407,1.297-0.407,1.716c0,0.492,0.231,0.915,0.685,1.269c0.461,0.353,1.126,0.523,2.001,0.523
							h0.756v1.128h-8.1v-1.127c0.868,0,1.554-0.188,2.056-0.562c0.505-0.377,0.969-1.092,1.395-2.147L-370.166-117.132z
							 M-370.58-112.846l-3.994,9.953h7.877L-370.58-112.846z"/>
					</g>
					<g>
						<path d="M-349.129-117.132h11.617c2.279,0,4.025,0.502,5.234,1.506c1.211,1.006,1.813,2.265,1.813,3.783
							c0,1.266-0.421,2.338-1.263,3.225c-0.844,0.886-2.114,1.582-3.819,2.095c2.11,0.442,3.685,1.144,4.741,2.092
							c1.049,0.955,1.58,2.152,1.58,3.604c0,1.106-0.303,2.089-0.898,2.943c-0.598,0.856-1.593,1.579-2.984,2.173
							c-1.39,0.598-2.967,0.895-4.738,0.895h-11.274v-1.127h1.835c0.553,0,0.96-0.091,1.213-0.271
							c0.256-0.179,0.385-0.388,0.385-0.615v-17.886c0-0.422-0.125-0.743-0.377-0.957c-0.25-0.219-0.615-0.324-1.101-0.324h-1.962
							v-1.134h-0.002V-117.132L-349.129-117.132z M-342.506-106.891h4.236c1.301,0,2.336-0.381,3.109-1.144
							c0.771-0.761,1.156-2.009,1.156-3.739c0-1.07-0.184-1.904-0.551-2.509c-0.368-0.604-0.899-1.036-1.604-1.315
							c-0.7-0.274-1.911-0.412-3.637-0.412c-1.22,0-1.976,0.089-2.271,0.262c-0.291,0.176-0.438,0.482-0.438,0.926V-106.891
							L-342.506-106.891L-342.506-106.891z M-342.506-105.764v8.609c0,0.398,0.117,0.7,0.355,0.901
							c0.237,0.2,0.664,0.301,1.276,0.301h2.708c1.793,0,3.111-0.396,3.971-1.183c0.858-0.791,1.284-2.021,1.284-3.69
							c0-1.528-0.442-2.731-1.325-3.612c-0.891-0.881-2.113-1.321-3.676-1.321L-342.506-105.764L-342.506-105.764z"/>
					</g>
					<g>
						<path fill="#6200FC" d="M-201.481-194.111c6.1,0.055,11.863,2.36,12.306,7.469c0.33,3.736-4.612,7.143-10.709,7.143
							c-6.151-0.057-11.859-2.311-12.355-7.411C-212.574-190.708-207.58-194.111-201.481-194.111z M-200.001-180.768
							c2.638,0,4.341-2.527,4.065-4.562c-0.606-4.009-1.979-7.25-5.604-7.25c-2.636,0-4.173,2.581-3.841,4.612
							C-204.776-183.952-203.623-180.768-200.001-180.768z"/>
					</g>
				</g>
				<g>
					<path id="path2070" fill="#9606F4" d="M-536.441-156.982c3.803-2.565,6.646-4.514,8.472-5.854
						c1.831-1.321,3.758-2.979,5.732-4.946c1.973-1.966,3.634-4.196,4.981-6.672c1.059-1.821,1.974-3.938,2.72-6.337
						c0.748-2.377,1.133-4.684,1.205-6.863c0-2.039-0.265-3.979-0.818-5.811c-0.531-1.85-1.445-3.36-2.745-4.584
						c-1.299-1.2-2.983-1.801-5.078-1.801c-2.021,0-3.924,0.406-5.704,1.197c-1.758,0.815-3.012,2.109-3.707,3.938
						c0,0.17-0.098,0.384-0.243,0.693c0.048,0.388,0.243,0.672,0.604,0.893c0.36,0.216,0.672,0.312,0.962,0.312
						c0.144,0,0.553-0.072,1.18-0.219c0.65-0.146,1.18-0.238,1.612-0.238c1.277,0,2.409,0.457,3.442,1.347
						c1.013,0.888,1.519,1.966,1.519,3.239c0,0.912-0.265,1.772-0.771,2.563c-0.504,0.793-1.203,1.438-2.093,1.896
						c-0.893,0.48-1.88,0.697-2.936,0.697c-1.928,0-3.563-0.578-4.913-1.754c-1.324-1.199-1.998-2.713-1.998-4.609
						c0-2.426,0.746-4.515,2.214-6.287c1.493-1.775,3.37-3.096,5.682-3.98c2.288-0.913,4.599-1.346,6.958-1.346
						c2.574,0,5.031,0.646,7.317,1.968c2.312,1.295,4.118,3.099,5.464,5.327c1.349,2.255,2.048,4.654,2.048,7.249
						c0,4.608-1.542,8.881-4.622,12.842c-3.083,3.962-6.885,7.396-11.436,10.32c-3.032,1.991-7.942,4.682-14.707,8.062
						L-536.441-156.982z M-503.003-194.113c0-0.865,0.312-1.586,0.938-2.162c0.602-0.599,1.349-0.887,2.237-0.887
						c0.771,0,1.494,0.333,2.144,0.98c0.649,0.625,0.962,1.369,0.962,2.187c0,0.863-0.335,1.604-0.962,2.208
						c-0.673,0.574-1.421,0.862-2.264,0.862c-0.89,0-1.612-0.288-2.188-0.935C-502.713-192.482-503.003-193.227-503.003-194.113z
						 M-503.003-181.537c0-0.865,0.312-1.609,0.89-2.184c0.6-0.604,1.348-0.889,2.286-0.889c0.771,0,1.47,0.312,2.144,0.959
						c0.627,0.646,0.962,1.346,0.962,2.109c0,0.938-0.313,1.684-0.914,2.281c-0.627,0.601-1.349,0.908-2.192,0.908
						c-0.938,0-1.686-0.312-2.286-0.891C-502.692-179.811-503.003-180.577-503.003-181.537z"/>
				</g>
			</g>
		</g>
	</g>
</g>
<g id="Layer_2_3_">
	<g>
		<path id="text3123" fill="#DF5511" d="M205.491,131.469v18.118l3.163-3.717c1.25-1.46,2.409-3.004,3.495-4.522
			c0.506-0.785,1.001-1.514,1.423-2.192c0.337-0.675,0.749-1.407,1.223-2.267c0.337-0.729,0.696-1.534,1.034-2.373
			c0.258-0.538,0.39-1.06,0.39-1.65c0-0.838-0.132-1.681-0.39-2.583c-0.264-0.918-0.585-1.597-0.959-2.066
			c-0.338-0.506-0.817-0.901-1.424-1.165c-0.601-0.153-1.275-0.316-2.013-0.401c-1.287,0-2.594,0.58-3.954,1.83
			C206.139,129.667,205.491,130.647,205.491,131.469 M202.175,156.752V84.19h3.305v42.36c3.447-2.735,6.689-4.09,9.694-4.09
			c1.376,0,2.699,0.395,3.954,1.165c1.329,0.859,2.435,2.008,3.3,3.442c0.812,1.486,1.223,3.025,1.223,4.549
			c0,2.367-1.055,4.834-3.174,7.28c-1.117,1.35-2.435,2.851-3.938,4.555c-1.519,1.688-2.852,3.035-4.007,4.102L202.175,156.752"/>
		<path id="text3127" opacity="0.8" fill="#CCCCCC" enable-background="new    " d="M157.874,148.689l7.96,34.724
			c3.363-1.666,6.051-4.117,8.076-7.28c2.124-3.199,3.173-6.736,3.173-10.615c0-1.586-0.222-3.084-0.654-4.449
			c-0.559-1.465-1.36-2.856-2.393-4.275c-1.592-2.582-3.811-4.549-6.663-5.961C164.584,149.393,161.417,148.689,157.874,148.689
			 M151.412,118.612l3.948,17.912c1.512-0.311,3.052-0.379,4.644-0.379c4.745,0,8.983,1.17,12.683,3.567
			c3.791,2.361,6.811,5.489,9.062,9.367c2.125,3.985,3.168,8.229,3.168,12.71c0,5.482-1.645,10.314-4.924,14.564
			c-3.362,4.158-7.907,7.531-13.642,10.084l4.786,21.592c0.19,1.232,0.274,2.826,0.274,4.945c0,5.461-1.74,9.81-5.187,13.062
			c-3.542,3.384-8.376,5.287-14.549,5.819c-1.94,0-3.769-0.116-5.44-0.396c-1.592-0.163-3.273-0.652-5.034-1.434
			c-3.184-1.159-5.751-2.873-7.691-5.154c-2.119-2.203-3.306-4.719-3.558-7.569c0-2.294,0.432-4.435,1.301-6.458
			c0.474-1.086,1.055-2.033,1.74-2.811c0.606-0.812,1.36-1.543,2.277-2.234c1.591-1.16,3.395-1.914,5.419-2.141
			c2.288,0,4.317,0.46,6.093,1.351c1.751,0.869,3.158,2.134,4.197,3.716c0.558,0.859,0.959,1.655,1.223,2.361
			c0.269,0.875,0.39,1.756,0.39,2.662c0,2.282-0.548,4.229-1.624,5.82c-1.208,1.507-2.747,2.551-4.586,3.15
			c-1.856,0.822-3.68,1.234-5.429,1.234c0.094,1.46,1.222,2.588,3.42,3.416c2.024,0.785,4.349,1.175,6.916,1.175
			c5.267-0.601,9.236-2.294,11.919-5.055c1.418-1.408,2.525-2.968,3.289-4.714c0.686-1.771,1.039-3.826,1.039-6.178
			c0-2.789-0.301-5.355-0.917-7.644L162.671,188c-3.542,0.865-7.111,1.266-10.727,1.266c-6.553,0-12.615-1.582-18.176-4.785
			c-5.646-3.047-10.243-7.291-13.774-12.674c-2.72-4.264-4.312-7.132-4.787-8.646c-0.612-1.858-0.907-3.938-0.907-6.263
			l-0.379-6.098c0-4.566,0.922-8.951,2.767-13.138c1.771-4.328,4.16-8.318,7.18-12.034c2.72-3.595,5.255-6.632,7.633-9.004
			l13.13-12.325c-1.117-4.159-1.992-8.208-2.635-12.161c-0.522-3.958-0.791-7.759-0.791-11.359c0-3.601,0.58-7.854,1.75-12.599
			c1.207-4.603,3-8.887,5.377-13.005c1.254-1.85,2.541-3.236,3.879-4.165c1.033-0.838,2.583-1.539,4.649-2.14
			c0.944,0,1.872,0.221,2.778,0.648c1.123,0.717,2.177,1.919,3.157,3.616c2.119,3.711,3.933,8.04,5.424,12.937
			c0.696,2.672,1.208,5.028,1.55,7.058c0.432,2.035,0.648,3.975,0.648,5.957c0,2.467-0.211,4.761-0.648,6.859
			c-0.438,2.087-1.086,4.544-1.935,7.306c-0.991,2.83-1.882,5.213-2.646,7.058c-1.16,2.298-2.467,4.555-3.89,6.727
			C158.675,111.237,155.371,115.085,151.412,118.612 M161.944,184.445l-7.639-35.412c-3.284,0.947-6.046,2.783-8.339,5.576
			c-2.494,2.752-3.758,5.795-3.758,9.041c0,4.93,3.109,8.703,9.32,11.381c0.505,0.162,0.77,0.543,0.77,1.154
			c0,0.681-0.532,0.971-1.608,0.971c-4.392-1.309-7.976-3.774-10.727-7.453c-2.9-3.602-4.344-7.645-4.344-12.03
			c0-4.163,1.634-8.25,4.918-12.261c3.142-3.934,6.9-6.652,11.249-8.208l-3.611-16.046c-2.372,1.93-4.702,3.969-6.99,6.163
			c-2.361,2.029-4.396,3.926-6.077,5.692c-3.617,3.553-6.669,7.627-9.115,12.262c-2.414,4.559-3.622,9.33-3.622,14.339
			c0,3.909,0.765,7.411,2.272,10.594c1.592,3.221,3.88,5.951,6.853,8.214c3.021,2.377,6.462,4.158,10.348,5.312
			c3.879,1.232,7.996,1.897,12.356,1.897c1.292,0,2.478-0.103,3.558-0.29C158.907,185.206,160.315,184.885,161.944,184.445
			 M164.332,70.943l-0.644-2.404c-0.39-1.386-1.229-2.873-2.515-4.581c-1.001-1.155-2.098-1.74-3.305-1.74
			c-0.997,0.174-1.881,0.681-2.662,1.565c-0.101,0.116-1.223,1.724-3.432,4.797c-1.935,2.815-3.4,6.093-4.391,9.726
			c-0.433,1.76-0.807,3.511-1.149,5.282c-0.274,1.687-0.39,3.226-0.39,4.613c0,3.88,0.654,8.402,1.939,13.51
			c2.415-1.935,4.724-4.18,6.922-6.864c1.761-2.161,3.664-4.939,5.699-8.207c1.591-2.609,2.688-5.134,3.294-7.612
			C164.131,76.921,164.332,74.222,164.332,70.943"/>
		<g opacity="0.8">
			<path id="path3131_1_" d="M103.415,162.659h276.77"/>
			<polygon points="103.415,165.111 103.415,160.214 380.175,160.214 380.175,165.111 			"/>
		</g>
		<g opacity="0.8">
			<path id="path3133_1_" d="M103.415,136.234h276.77"/>
			<polygon points="103.42,138.686 103.42,133.772 380.185,133.772 380.185,138.686 			"/>
		</g>
		<g opacity="0.8">
			<path id="path3135_1_" d="M103.415,109.792h276.77"/>
			<polygon points="103.42,112.239 103.42,107.353 380.175,107.353 380.175,112.239 			"/>
		</g>
		<g opacity="0.8">
			<path id="path3137_1_" d="M103.415,83.368h276.77"/>
			<polygon points="103.415,85.803 103.415,80.932 380.185,80.932 380.185,85.803 			"/>
		</g>
		<g opacity="0.8">
			<path id="path3139_1_" d="M103.415,189.09h276.77"/>
			<polygon points="103.41,191.542 103.41,186.646 380.175,186.646 380.175,191.542 			"/>
		</g>
		<path id="text3141" fill="#00FFF0" d="M233.508,89.092v18.103l3.152-3.701c1.254-1.507,2.419-3.031,3.5-4.549
			c0.517-0.791,0.98-1.487,1.423-2.204c0.348-0.643,0.749-1.375,1.228-2.267c0.343-0.68,0.707-1.519,1.028-2.367
			c0.274-0.522,0.395-1.034,0.395-1.619c0-0.875-0.121-1.739-0.395-2.583c-0.264-0.875-0.564-1.618-0.959-2.071
			c-0.348-0.511-0.812-0.922-1.434-1.165c-0.59-0.174-1.26-0.3-1.998-0.4c-1.291,0-2.604,0.611-3.948,1.85
			C234.172,87.273,233.508,88.275,233.508,89.092 M230.208,114.379V41.845h3.3V84.2c3.458-2.741,6.679-4.075,9.699-4.075
			c1.36,0,2.694,0.39,3.943,1.145c1.339,0.869,2.446,2.008,3.305,3.426c0.822,1.518,1.229,3.036,1.229,4.528
			c0,2.414-1.061,4.86-3.163,7.311c-1.124,1.35-2.43,2.81-3.943,4.539c-1.508,1.703-2.836,3.037-4.001,4.07L230.208,114.379"/>
		<path id="text3145" fill="#C2008F" d="M261.525,140.752v18.102l3.156-3.685c1.25-1.501,2.409-3.03,3.484-4.56
			c0.518-0.78,0.992-1.498,1.43-2.172c0.342-0.664,0.747-1.444,1.229-2.258c0.338-0.764,0.695-1.527,1.033-2.388
			c0.263-0.526,0.391-1.069,0.391-1.64c0-0.858-0.123-1.719-0.391-2.59c-0.265-0.896-0.58-1.568-0.971-2.063
			c-0.349-0.485-0.812-0.892-1.429-1.155c-0.597-0.174-1.271-0.283-1.999-0.385c-1.296,0-2.613,0.605-3.953,1.818
			C262.2,138.938,261.525,139.93,261.525,140.752 M258.225,166.021V93.468h3.308v42.388c3.452-2.705,6.688-4.106,9.698-4.106
			c1.371,0,2.699,0.395,3.938,1.202c1.339,0.854,2.437,2.003,3.312,3.41c0.822,1.514,1.228,3.006,1.228,4.545
			c0,2.412-1.063,4.839-3.168,7.311c-1.116,1.292-2.431,2.821-3.953,4.54c-1.497,1.67-2.848,3.03-3.996,4.083L258.225,166.021"/>
		<path id="text3149" fill="#9BDC00" d="M289.548,104.074v18.113l3.175-3.695c1.237-1.508,2.403-3.031,3.483-4.555
			c0.522-0.775,0.996-1.508,1.429-2.188c0.332-0.648,0.743-1.439,1.219-2.245c0.354-0.764,0.699-1.54,1.026-2.404
			c0.274-0.5,0.39-1.065,0.39-1.619c0-0.874-0.114-1.729-0.39-2.587c-0.263-0.912-0.573-1.618-0.959-2.083
			c-0.348-0.506-0.812-0.896-1.429-1.16c-0.596-0.174-1.271-0.332-2.003-0.391c-1.292,0-2.599,0.617-3.949,1.813
			C290.225,102.261,289.548,103.262,289.548,104.074 M286.259,129.36V56.805h3.3v42.372c3.448-2.746,6.685-4.106,9.699-4.106
			c1.389,0,2.699,0.396,3.943,1.197c1.339,0.87,2.435,2.03,3.3,3.421c0.822,1.519,1.233,3,1.233,4.539
			c0,2.425-1.064,4.85-3.164,7.312c-1.127,1.302-2.444,2.831-3.953,4.544c-1.518,1.682-2.852,3.031-3.99,4.085L286.259,129.36"/>
		<path id="text3153" fill="#7000B8" d="M317.57,156.792v18.099l3.157-3.681c1.266-1.522,2.413-3,3.494-4.538
			c0.518-0.792,0.991-1.52,1.425-2.178c0.338-0.68,0.76-1.43,1.232-2.305c0.337-0.695,0.687-1.514,1.028-2.365
			c0.269-0.518,0.38-1.038,0.38-1.645c0-0.854-0.111-1.752-0.38-2.574c-0.271-0.934-0.574-1.633-0.965-2.112
			c-0.337-0.495-0.816-0.917-1.434-1.171c-0.592-0.17-1.271-0.289-2.004-0.385c-1.298,0-2.604,0.615-3.941,1.808
			C318.229,154.984,317.57,155.98,317.57,156.792 M314.281,182.079v-72.534h3.289v42.34c3.447-2.736,6.689-4.074,9.688-4.074
			c1.383,0,2.699,0.385,3.954,1.154c1.329,0.869,2.425,2.014,3.312,3.421c0.8,1.539,1.212,3.037,1.212,4.534
			c0,2.418-1.056,4.854-3.168,7.312c-1.117,1.354-2.437,2.851-3.954,4.549c-1.515,1.671-2.841,3.021-4,4.043L314.281,182.079"/>
		<path id="text3157" fill="#FF9E11" d="M345.6,117.094v18.107l3.157-3.716c1.254-1.513,2.414-3.01,3.5-4.539
			c0.518-0.78,0.995-1.523,1.413-2.177c0.332-0.648,0.758-1.422,1.233-2.282c0.338-0.728,0.694-1.498,1.031-2.362
			c0.265-0.512,0.38-1.07,0.38-1.634c0-0.85-0.115-1.724-0.38-2.594c-0.263-0.891-0.578-1.565-0.97-2.066
			c-0.338-0.485-0.833-0.88-1.454-1.145c-0.569-0.173-1.265-0.321-2.003-0.395c-1.297,0-2.615,0.602-3.954,1.83
			C346.273,115.275,345.6,116.271,345.6,117.094 M342.294,142.381V69.826h3.3v42.355c3.438-2.741,6.685-4.075,9.688-4.075
			c1.392,0,2.704,0.369,3.964,1.144c1.339,0.875,2.404,2.024,3.27,3.458c0.79,1.486,1.232,3.01,1.232,4.549
			c0,2.409-1.055,4.807-3.163,7.285c-1.117,1.318-2.435,2.846-3.938,4.586c-1.532,1.666-2.852,3.02-4.011,4.07L342.294,142.381"/>
	</g>
</g>
</svg>
