<?xml version="1.0" encoding="utf-8"?>
<!-- Generator: Adobe Illustrator 13.0.0, SVG Export Plug-In . SVG Version: 6.00 Build 14948)  -->
<!DOCTYPE svg PUBLIC "-//W3C//DTD SVG 1.0//EN" "http://www.w3.org/TR/2001/REC-SVG-20010904/DTD/svg10.dtd">
<svg version="1.0" id="Layer_1" xmlns="http://www.w3.org/2000/svg" xmlns:xlink="http://www.w3.org/1999/xlink" x="0px" y="0px"
	 width="500px" height="270px" viewBox="0 0 500 270" enable-background="new 0 0 500 270" xml:space="preserve">
<g id="Layer_1_1_">
</g>
<g id="Layer_2">
	<g id="Layer_2_1_">
		<g>
			<path d="M10.499,29.123v-1.044h462.473v1.044H10.499z M10.499,43.125v-1.153h462.473v1.153H10.499z M10.499,57.02v-1.044h462.473
				v1.044H10.499z M10.499,70.914V69.87h462.473v1.044H10.499z M10.499,84.809v-1.042h462.473v1.042H10.499z"/>
			<path fill="#F200FF" d="M35.969,83.271C24.656,77.888,22.844,70.97,22.35,63.884c-0.55-7.688,4.339-15.486,8.896-19.825
				c2.636-2.471,5.492-4.887,8.898-7.468c-0.111-1.922-0.55-2.692-0.77-5.437c-0.055-1.153-0.769-6.535,0.384-12.741
				C40.472,14.732,45.086,6.056,48.271,6c2.472-0.055,6.261,9.832,6.372,14.774c0.164,7.634-1.647,11.093-3.9,15.047
				c-1.153,1.978-2.361,3.351-3.625,4.889c-1.317,1.592-2.8,2.525-4.173,3.734c0,0,1.758,9.939,1.812,10.654
				c3.515-0.439,7.798,0.821,9.337,1.922c3.898,2.91,5.381,6.92,5.656,10.818c0.495,6.205-2.911,12.741-10.435,15.872
				c0,0,1.153,7.907,1.428,9.556c0.604,4.336,0.495,7.084-0.439,8.84c-1.592,2.966-4.173,5.711-9.171,6.043
				c-3.845,0.218-11.424-1.701-11.808-7.745c-0.221-3.57,1.373-7.413,5.71-7.687c2.636-0.22,5.767,1.977,5.986,5.106
				c0.22,2.692-1.537,5.493-6.095,6.756c0.714,0.989,2.855,2.146,5.931,2.146c3.185,0,6.479-2.146,8.073-4.998
				c0.989-1.867,0.878-5.219,0.495-8.293c-0.166-1.045-1.483-9.337-1.483-9.337C43.878,84.755,38.275,84.369,35.969,83.271z
				 M37.067,70.256c0.109,2.635,2.306,5.712,4.337,6.754c-0.273,0.166-0.548,0.605-0.548,0.605c-2.253-1.1-4.175-2.91-4.669-3.57
				c-1.592-2.14-2.251-3.349-2.471-6.59c-0.219-3.021,1.428-7.083,5.107-9.94c1.922-1.428,2.856-1.758,4.503-2.142l-1.647-9.94
				c-1.703,0.987-8.732,6.646-11.697,11.258c-2.636,4.12-4.229,7.415-3.9,11.479c0.659,9.172,10.709,16.696,21.583,14.115
				c0,0-3.24-19.497-3.187-19.497C38.495,63.005,36.902,67.62,37.067,70.256z M41.517,35.439
				c4.778-3.734,11.258-10.765,10.874-16.202c-0.109-1.701-0.823-4.777-3.295-4.723C43.438,14.569,40.251,26.375,41.517,35.439z
				 M48.985,81.844c6.317-2.142,6.592-7.579,6.372-10.82c-0.221-2.69-1.428-8.733-9.448-8.347L48.985,81.844z"/>
			<g>
				<path fill="#00FF18" d="M285.18,83.738c4.668,0.055,7.25,3.242,5.766,7.14c-1.428,3.955-6.368,7.086-10.98,7.029
					c-4.609-0.052-7.191-3.296-5.713-7.191C275.677,86.814,280.566,83.686,285.18,83.738z"/>
				<g>
					<path d="M271.63,112.887h11.524c1.709,0,3.162,0.303,4.359,0.905c1.484,0.763,2.752,2.036,3.793,3.815
						c1.035,1.781,1.562,3.887,1.562,6.319c0,2.013-0.312,3.825-0.935,5.435c-0.477,1.238-1.201,2.32-2.184,3.244
						c-0.979,0.925-2.174,1.617-3.582,2.082c-1.059,0.34-2.465,0.514-4.227,0.514H271.63v-1.126h2.117
						c0.537,0,0.905-0.085,1.112-0.253c0.209-0.174,0.312-0.439,0.312-0.803V115.04c0-0.312-0.11-0.562-0.332-0.748
						c-0.226-0.187-0.53-0.276-0.924-0.276h-2.285V112.887z M279.689,114.016c-0.453,0-0.787,0.096-1.006,0.287
						c-0.219,0.188-0.322,0.479-0.322,0.859v17.811c0,0.36,0.125,0.637,0.377,0.819c0.251,0.187,0.681,0.28,1.283,0.28h1.902
						c1.703,0,3.191-0.438,4.473-1.312c0.836-0.584,1.472-1.404,1.902-2.463c0.596-1.428,0.895-3.398,0.895-5.915
						c0-3.724-0.649-6.45-1.948-8.18c-1.108-1.461-2.781-2.188-5.019-2.188h-2.537V114.016L279.689,114.016z"/>
				</g>
			</g>
			<g>
				<path fill="#0C00FF" d="M174.647,78.125c4.667,0.056,7.249,3.24,5.765,7.14c-1.426,3.954-6.37,7.084-10.982,7.031
					c-4.614-0.055-7.195-3.295-5.712-7.193C165.146,81.201,170.033,78.069,174.647,78.125z"/>
				<g>
					<path d="M161.922,113.221h17.672l0.429,7.536h-1.019c-0.402-2.378-1.039-4.04-1.909-4.985c-0.87-0.947-2.003-1.42-3.399-1.42
						h-4.374c-0.352,0-0.617,0.097-0.8,0.287c-0.181,0.189-0.271,0.481-0.271,0.875v7.955h1.916c1.027,0,1.857-0.367,2.495-1.101
						c0.639-0.731,0.984-1.859,1.034-3.377h1.044v10.325h-1.044c-0.05-1.707-0.4-2.928-1.049-3.666
						c-0.649-0.741-1.532-1.109-2.646-1.109h-1.75v8.873c0,0.323,0.109,0.568,0.325,0.742c0.216,0.171,0.575,0.253,1.078,0.253
						h3.454c3.753,0,5.913-2.396,6.486-7.187h1.1l-0.377,8.312h-18.396v-1.125h1.523c0.593,0,1.011-0.104,1.252-0.309
						c0.24-0.207,0.362-0.504,0.362-0.897v-17.688c0-0.395-0.107-0.685-0.318-0.875c-0.211-0.192-0.541-0.287-0.996-0.287h-1.823
						L161.922,113.221L161.922,113.221z"/>
				</g>
			</g>
			<g>
				<path fill="#9606F4" d="M325.251,69.51c4.669,0.055,7.25,3.241,5.767,7.14c-1.428,3.954-6.368,7.084-10.98,7.029
					c-4.612-0.053-7.192-3.295-5.712-7.191C315.748,72.585,320.639,69.456,325.251,69.51z"/>
				<path d="M313.975,112.553h18.154l0.297,7.723h-1.047c-0.466-2.655-1.115-4.387-1.951-5.191c-0.957-0.936-2.324-1.4-4.099-1.4
					h-3.583c-0.354,0-0.607,0.082-0.771,0.248c-0.159,0.166-0.239,0.414-0.239,0.748v8.043h1.919c1.064,0,1.919-0.352,2.552-1.056
					c0.635-0.706,0.977-1.79,1.027-3.26h1.1v10.083h-1.1c-0.07-1.668-0.412-2.855-1.027-3.57c-0.613-0.712-1.466-1.068-2.552-1.068
					h-1.919v8.521c0,0.503,0.118,0.858,0.358,1.063c0.241,0.209,0.66,0.312,1.254,0.312h2.324v1.123h-10.697v-1.127h2.287
					c0.461,0,0.791-0.093,0.984-0.277c0.196-0.186,0.293-0.493,0.293-0.913v-17.758c0-0.398-0.104-0.688-0.309-0.857
					c-0.207-0.174-0.565-0.256-1.076-0.256h-2.185L313.975,112.553L313.975,112.553z"/>
			</g>
			<g>
				<path fill="#F70303" d="M360.781,56.952c4.668,0.054,7.25,3.24,5.764,7.138c-1.43,3.956-6.369,7.086-10.979,7.031
					c-4.613-0.055-7.193-3.295-5.711-7.195C351.28,60.027,356.166,56.895,360.781,56.952z"/>
				<g>
					<path d="M357.843,112.434h1.06l7.989,20.404c0.323,0.821,0.979,1.235,1.979,1.235h0.691v1.126h-8.9v-1.126h0.711
						c0.928,0,1.578-0.101,1.967-0.302c0.259-0.142,0.396-0.355,0.396-0.646c0-0.172-0.032-0.354-0.104-0.543l-1.844-4.73h-8.812
						l-1.052,2.713c-0.271,0.723-0.409,1.298-0.409,1.716c0,0.493,0.229,0.916,0.688,1.266c0.459,0.353,1.125,0.526,2.002,0.526
						h0.754v1.128h-8.101v-1.126c0.864,0,1.556-0.188,2.062-0.562c0.502-0.378,0.965-1.094,1.391-2.148L357.843,112.434z
						 M357.428,116.721l-3.996,9.951h7.877L357.428,116.721z"/>
				</g>
			</g>
			<g>
				<path fill="#FF9D00" d="M247.604,50.338c4.669,0.054,7.251,3.24,5.766,7.138c-1.429,3.955-6.372,7.083-10.979,7.031
					c-4.612-0.056-7.195-3.295-5.717-7.195C238.104,53.414,242.991,50.284,247.604,50.338z"/>
				<g>
					<path d="M235.343,113.221h11.613c2.279,0,4.024,0.504,5.235,1.508c1.211,1.006,1.812,2.266,1.812,3.783
						c0,1.266-0.423,2.34-1.269,3.225c-0.846,0.885-2.111,1.582-3.812,2.095c2.104,0.442,3.685,1.14,4.735,2.093
						c1.051,0.952,1.576,2.152,1.576,3.602c0,1.107-0.301,2.089-0.896,2.942c-0.601,0.856-1.595,1.581-2.981,2.175
						c-1.394,0.597-2.967,0.894-4.739,0.894h-11.273v-1.126h1.839c0.553,0,0.96-0.091,1.213-0.271
						c0.255-0.179,0.384-0.388,0.384-0.615v-17.887c0-0.423-0.124-0.744-0.377-0.959c-0.25-0.218-0.613-0.324-1.102-0.324h-1.961
						L235.343,113.221L235.343,113.221z M241.966,123.463h4.236c1.302,0,2.336-0.38,3.108-1.14c0.771-0.76,1.156-2.01,1.156-3.742
						c0-1.07-0.187-1.906-0.55-2.507c-0.368-0.604-0.899-1.038-1.605-1.317c-0.7-0.273-1.91-0.41-3.638-0.41
						c-1.223,0-1.977,0.086-2.271,0.26c-0.292,0.178-0.438,0.482-0.438,0.925L241.966,123.463L241.966,123.463L241.966,123.463z
						 M241.966,124.59v8.608c0,0.402,0.116,0.703,0.354,0.904c0.238,0.201,0.664,0.302,1.277,0.302h2.707
						c1.793,0,3.112-0.392,3.972-1.183c0.861-0.791,1.283-2.021,1.283-3.691c0-1.529-0.439-2.734-1.325-3.615
						c-0.891-0.881-2.111-1.322-3.676-1.322L241.966,124.59L241.966,124.59z"/>
				</g>
			</g>
			<g>
				<path fill="#F7F006" d="M394.423,42.164c4.67,0.053,7.252,3.24,5.77,7.138c-1.432,3.956-6.366,7.084-10.981,7.031
					c-4.612-0.055-7.188-3.295-5.708-7.195C384.919,45.239,389.811,42.107,394.423,42.164z"/>
				<g>
					<path d="M400.209,114.414l1.021-2.157h0.938l0.429,8.981h-1.019c-0.664-2.541-1.495-4.416-2.498-5.62
						c-1.243-1.511-2.729-2.263-4.454-2.263c-1.867,0-3.388,0.836-4.562,2.509c-1.179,1.672-1.76,4.503-1.76,8.493
						c0,3.355,0.679,5.912,2.021,7.679c1.146,1.492,2.752,2.235,4.813,2.235c1.812,0,3.326-0.58,4.554-1.741
						c1.225-1.162,2.021-2.914,2.396-5.259h1.072c-0.312,2.654-1.224,4.691-2.729,6.119c-1.508,1.428-3.405,2.14-5.694,2.14
						c-1.857,0-3.563-0.468-5.114-1.402c-1.555-0.937-2.795-2.278-3.729-4.034c-0.93-1.757-1.396-3.681-1.396-5.769
						c0-2.222,0.479-4.308,1.438-6.259c0.968-1.948,2.188-3.413,3.688-4.397c1.495-0.979,3.104-1.468,4.835-1.468
						c0.964,0,1.896,0.169,2.805,0.502C398.164,113.035,399.146,113.61,400.209,114.414z"/>
				</g>
			</g>
			<g>
				<path fill="#F7E608" d="M136.875,94.27c4.667,0.054,7.249,3.24,5.766,7.138c-1.428,3.957-6.371,7.088-10.984,7.03
					c-4.614-0.054-7.192-3.295-5.71-7.192C127.372,97.348,132.261,94.214,136.875,94.27z"/>
				<g>
					<path d="M140.994,115.08l1.022-2.157h0.938l0.429,8.981h-1.019c-0.666-2.541-1.495-4.416-2.498-5.62
						c-1.247-1.511-2.73-2.263-4.456-2.263c-1.867,0-3.387,0.836-4.561,2.509c-1.175,1.672-1.758,4.503-1.758,8.493
						c0,3.355,0.676,5.912,2.018,7.679c1.146,1.492,2.753,2.235,4.822,2.235c1.809,0,3.325-0.58,4.549-1.741
						c1.223-1.162,2.024-2.914,2.396-5.259h1.073c-0.312,2.654-1.22,4.691-2.729,6.119c-1.508,1.428-3.409,2.14-5.698,2.14
						c-1.86,0-3.565-0.468-5.117-1.402c-1.55-0.937-2.795-2.278-3.724-4.034c-0.929-1.757-1.395-3.681-1.395-5.769
						c0-2.222,0.479-4.308,1.438-6.259c0.96-1.948,2.187-3.413,3.684-4.397c1.494-0.979,3.107-1.468,4.835-1.468
						c0.963,0,1.896,0.169,2.8,0.502C138.949,113.701,139.932,114.277,140.994,115.08z"/>
				</g>
				<line fill="none" stroke="#000000" x1="118.258" y1="101.312" x2="150.579" y2="101.312"/>
			</g>
			<g>
				<path fill="#EC06F9" d="M207.562,63.585c6.097,0.055,11.863,2.361,12.304,7.47c0.33,3.736-4.612,7.138-10.71,7.138
					c-6.15-0.054-11.861-2.306-12.354-7.411C196.472,66.989,201.464,63.585,207.562,63.585z M209.044,76.931
					c2.637,0,4.34-2.529,4.063-4.559c-0.604-4.009-1.979-7.25-5.604-7.25c-2.637,0-4.173,2.581-3.843,4.612
					C204.267,73.745,205.421,76.931,209.044,76.931z"/>
				<path d="M213.673,114.781l1.229-2.222h1.021l0.562,8.903h-0.991c-0.751-2.562-1.641-4.416-2.66-5.562
					c-1.302-1.461-2.795-2.188-4.479-2.188c-1.291,0-2.449,0.367-3.471,1.103c-1.023,0.731-1.811,1.832-2.354,3.298
					c-0.548,1.464-0.819,3.53-0.819,6.188c0,2.582,0.271,4.601,0.821,6.054c0.546,1.457,1.302,2.529,2.265,3.218
					c0.965,0.686,2.096,1.03,3.392,1.03c1.756,0,3.114-0.492,4.073-1.475c0.959-0.982,1.438-2.254,1.438-3.812v-2.092
					c0-0.332-0.13-0.588-0.386-0.769c-0.259-0.179-0.681-0.271-1.263-0.271h-1.894v-1.045h9.356v1.045h-1.269
					c-0.563,0-0.969,0.101-1.211,0.295c-0.242,0.194-0.36,0.479-0.36,0.854v8.532h-0.992c-0.358-1.327-0.736-2.604-1.129-3.821
					c-0.754,1.237-1.648,2.165-2.69,2.784c-1.04,0.616-2.22,0.928-3.537,0.928c-1.88,0-3.624-0.479-5.228-1.446
					c-1.604-0.967-2.871-2.324-3.801-4.08c-0.931-1.754-1.396-3.737-1.396-5.949c0-2.223,0.468-4.213,1.4-5.973
					c0.935-1.759,2.211-3.156,3.832-4.192c1.623-1.037,3.262-1.552,4.92-1.552c0.941,0,1.844,0.158,2.705,0.476
					C211.613,113.353,212.584,113.935,213.673,114.781z"/>
			</g>
		</g>
		<g>
			<path d="M10.499,156.125v-1.044h462.473v1.044H10.499z M10.499,170.125v-1.152h462.473v1.152H10.499z M10.499,184.02v-1.043
				h462.473v1.043H10.499z M10.499,197.914v-1.044h462.473v1.044H10.499z M10.499,211.809v-1.043h462.473v1.043H10.499z"/>
			<line fill="none" stroke="#000000" x1="-50.5" y1="228.311" x2="-18.179" y2="228.311"/>
			<g>
				<g>
					<path d="M357.891,223.868h1.059l7.995,20.403c0.318,0.82,0.979,1.229,1.978,1.229h0.692v1.128h-8.901v-1.128h0.711
						c0.926,0,1.579-0.104,1.965-0.302c0.258-0.146,0.395-0.354,0.395-0.646c0-0.172-0.031-0.354-0.104-0.544l-1.843-4.729h-8.812
						l-1.054,2.713c-0.271,0.722-0.408,1.297-0.408,1.716c0,0.492,0.231,0.915,0.688,1.271c0.459,0.354,1.125,0.521,2,0.521h0.756
						v1.128H346.9v-1.127c0.862,0,1.557-0.188,2.059-0.562c0.505-0.377,0.97-1.092,1.394-2.146L357.891,223.868z M357.477,228.154
						l-3.991,9.953h7.876L357.477,228.154z"/>
				</g>
				<path fill="#FF0000" d="M360.837,149.215c4.666,0.057,7.249,3.241,5.766,7.141c-1.428,3.953-6.369,7.084-10.979,7.029
					c-4.611-0.055-7.19-3.296-5.711-7.191C351.332,152.291,356.222,149.16,360.837,149.215z"/>
			</g>
			<g>
				<g>
					<path d="M214.3,225.423l1.227-2.223h1.021l0.562,8.901h-0.988c-0.75-2.562-1.641-4.416-2.659-5.562
						c-1.304-1.458-2.796-2.188-4.479-2.188c-1.291,0-2.453,0.362-3.471,1.102c-1.023,0.73-1.809,1.834-2.354,3.299
						c-0.547,1.466-0.818,3.532-0.818,6.188c0,2.582,0.271,4.604,0.818,6.061c0.549,1.456,1.306,2.521,2.268,3.218
						c0.962,0.688,2.095,1.03,3.389,1.03c1.758,0,3.115-0.492,4.076-1.479c0.96-0.979,1.438-2.252,1.438-3.812v-2.096
						c0-0.33-0.127-0.586-0.387-0.771c-0.26-0.182-0.682-0.271-1.265-0.271h-1.892v-1.045h9.355v1.045h-1.271
						c-0.562,0-0.969,0.104-1.209,0.297c-0.241,0.191-0.362,0.479-0.362,0.853v8.534h-0.992c-0.354-1.327-0.731-2.604-1.126-3.818
						c-0.753,1.232-1.652,2.164-2.688,2.782c-1.041,0.615-2.224,0.931-3.541,0.931c-1.883,0-3.619-0.479-5.229-1.444
						c-1.604-0.97-2.869-2.325-3.801-4.079c-0.93-1.757-1.396-3.738-1.396-5.95c0-2.226,0.469-4.214,1.401-5.976
						c0.933-1.762,2.212-3.153,3.833-4.191c1.619-1.033,3.258-1.55,4.917-1.55c0.944,0,1.844,0.156,2.705,0.476
						C212.241,223.994,213.213,224.576,214.3,225.423z"/>
				</g>
				<path fill="#F803FF" d="M211.918,155.496c4.667,0.057,7.247,3.238,5.764,7.141c-1.428,3.953-6.37,7.084-10.979,7.03
					c-4.613-0.056-7.191-3.297-5.711-7.192C202.415,158.57,207.304,155.439,211.918,155.496z"/>
			</g>
			<g>
				<g>
					<path d="M162.723,224.535h17.672l0.429,7.533h-1.021c-0.398-2.379-1.035-4.037-1.907-4.986
						c-0.87-0.943-2.001-1.419-3.398-1.419h-4.372c-0.353,0-0.616,0.098-0.801,0.286c-0.183,0.189-0.271,0.479-0.271,0.877v7.953
						h1.914c1.024,0,1.854-0.366,2.497-1.104c0.636-0.729,0.979-1.854,1.03-3.38h1.049v10.326h-1.049
						c-0.051-1.706-0.396-2.932-1.05-3.667c-0.646-0.738-1.527-1.104-2.645-1.104h-1.75v8.873c0,0.318,0.104,0.563,0.324,0.736
						c0.214,0.172,0.57,0.254,1.072,0.254h3.458c3.751,0,5.911-2.396,6.486-7.188h1.1l-0.379,8.312h-18.396v-1.128h1.524
						c0.596,0,1.011-0.104,1.25-0.311c0.242-0.205,0.361-0.506,0.361-0.896v-17.688c0-0.396-0.105-0.687-0.316-0.877
						c-0.213-0.188-0.541-0.285-0.992-0.285h-1.825L162.723,224.535L162.723,224.535z"/>
				</g>
				<path fill="#0000FF" d="M174.688,170.163c4.67,0.054,7.251,3.239,5.764,7.139c-1.428,3.957-6.365,7.089-10.979,7.03
					c-4.614-0.055-7.188-3.295-5.708-7.191C165.185,173.24,170.076,170.107,174.688,170.163z"/>
			</g>
			<g>
				<g>
					<path d="M273.188,223.201h11.521c1.709,0,3.164,0.301,4.358,0.902c1.483,0.765,2.752,2.037,3.791,3.812
						c1.041,1.778,1.562,3.892,1.562,6.317c0,2.014-0.312,3.822-0.938,5.437c-0.476,1.237-1.197,2.315-2.183,3.243
						c-0.979,0.923-2.176,1.617-3.584,2.083c-1.055,0.339-2.465,0.515-4.226,0.515h-10.315v-1.13h2.117
						c0.537,0,0.901-0.084,1.11-0.255c0.205-0.171,0.31-0.438,0.31-0.801V225.35c0-0.312-0.104-0.561-0.332-0.748
						c-0.224-0.185-0.526-0.273-0.92-0.273h-2.285v-1.126L273.188,223.201L273.188,223.201z M281.245,224.325
						c-0.455,0-0.787,0.098-1.006,0.286c-0.218,0.188-0.322,0.479-0.322,0.857v17.812c0,0.359,0.123,0.636,0.379,0.818
						c0.252,0.188,0.681,0.277,1.283,0.277h1.901c1.695,0,3.188-0.438,4.473-1.312c0.834-0.586,1.468-1.401,1.902-2.463
						c0.595-1.429,0.894-3.396,0.894-5.916c0-3.728-0.647-6.445-1.951-8.179c-1.108-1.465-2.778-2.188-5.016-2.188L281.245,224.325
						L281.245,224.325z"/>
				</g>
				<path fill="#06FC1D" d="M286.387,176.338c4.67,0.057,7.252,3.241,5.766,7.139c-1.428,3.957-6.368,7.086-10.979,7.031
					c-4.611-0.055-7.191-3.296-5.715-7.193C276.887,179.415,281.775,176.282,286.387,176.338z"/>
			</g>
			<g>
				<path fill="#FFE600" d="M138.019,183.951c4.668,0.053,7.25,3.24,5.764,7.139c-1.43,3.955-6.369,7.086-10.98,7.03
					c-4.613-0.056-7.193-3.295-5.711-7.194C128.518,187.027,133.403,183.895,138.019,183.951z"/>
				<g>
					<path d="M141.248,226.08l1.021-2.157h0.939l0.43,8.981h-1.021c-0.663-2.54-1.494-4.416-2.496-5.619
						c-1.246-1.51-2.729-2.264-4.455-2.264c-1.867,0-3.388,0.836-4.562,2.51c-1.174,1.673-1.756,4.504-1.756,8.494
						c0,3.354,0.674,5.91,2.018,7.678c1.146,1.49,2.752,2.234,4.82,2.234c1.81,0,3.327-0.578,4.549-1.74
						c1.225-1.163,2.023-2.914,2.396-5.258h1.072c-0.312,2.646-1.222,4.688-2.729,6.117c-1.507,1.428-3.408,2.141-5.699,2.141
						c-1.859,0-3.562-0.469-5.114-1.402c-1.552-0.936-2.796-2.279-3.724-4.033c-0.93-1.758-1.396-3.682-1.396-5.77
						c0-2.221,0.479-4.309,1.438-6.26c0.963-1.948,2.188-3.414,3.685-4.396c1.496-0.98,3.106-1.468,4.838-1.468
						c0.962,0,1.894,0.169,2.802,0.502C139.203,224.701,140.185,225.277,141.248,226.08z"/>
				</g>
			</g>
			<g>
				<g>
					<path d="M236.616,223.534h11.614c2.279,0,4.022,0.502,5.235,1.506c1.211,1.006,1.812,2.265,1.812,3.783
						c0,1.266-0.422,2.338-1.265,3.225c-0.851,0.886-2.114,1.582-3.817,2.095c2.108,0.442,3.687,1.146,4.739,2.092
						c1.05,0.955,1.578,2.152,1.578,3.604c0,1.106-0.306,2.089-0.896,2.943c-0.598,0.856-1.592,1.579-2.979,2.173
						c-1.396,0.598-2.976,0.895-4.741,0.895h-11.274v-1.127h1.835c0.558,0,0.961-0.091,1.214-0.271
						c0.259-0.179,0.388-0.388,0.388-0.615v-17.886c0-0.422-0.124-0.743-0.375-0.957c-0.251-0.219-0.617-0.324-1.104-0.324h-1.96
						v-1.134h-0.002L236.616,223.534L236.616,223.534z M243.239,233.775h4.238c1.301,0,2.335-0.381,3.104-1.146
						c0.771-0.761,1.156-2.009,1.156-3.736c0-1.07-0.183-1.904-0.55-2.512c-0.369-0.604-0.9-1.033-1.605-1.312
						c-0.697-0.274-1.91-0.412-3.637-0.412c-1.221,0-1.973,0.089-2.271,0.262c-0.292,0.176-0.438,0.482-0.438,0.926L243.239,233.775
						L243.239,233.775z M243.239,234.902v8.605c0,0.399,0.117,0.701,0.354,0.902c0.236,0.197,0.666,0.301,1.273,0.301h2.709
						c1.793,0,3.112-0.396,3.971-1.186s1.284-2.021,1.284-3.688c0-1.525-0.438-2.729-1.325-3.609
						c-0.892-0.881-2.108-1.321-3.677-1.321L243.239,234.902L243.239,234.902z"/>
				</g>
				<path fill="#FF9D00" d="M249.148,141.396c4.668,0.054,7.25,3.236,5.766,7.14c-1.429,3.953-6.373,7.084-10.98,7.028
					c-4.614-0.057-7.192-3.295-5.711-7.191C239.644,144.473,244.531,141.341,249.148,141.396z"/>
			</g>
			<g>
				<g>
					<path d="M311.977,223.201h18.153l0.295,7.723h-1.044c-0.472-2.654-1.111-4.39-1.95-5.191c-0.959-0.937-2.325-1.396-4.104-1.396
						h-3.584c-0.354,0-0.604,0.083-0.771,0.249c-0.16,0.166-0.24,0.414-0.24,0.746v8.047h1.916c1.069,0,1.922-0.354,2.553-1.062
						c0.636-0.707,0.979-1.791,1.027-3.26h1.103v10.082h-1.103c-0.07-1.668-0.412-2.854-1.027-3.57
						c-0.604-0.711-1.465-1.062-2.553-1.062h-1.916v8.521c0,0.505,0.121,0.854,0.361,1.062c0.235,0.207,0.657,0.312,1.252,0.312
						h2.319v1.123h-10.691v-1.127h2.287c0.465,0,0.79-0.096,0.979-0.274c0.193-0.188,0.294-0.493,0.294-0.915v-17.751
						c0-0.396-0.103-0.688-0.312-0.856c-0.203-0.175-0.562-0.257-1.076-0.257h-2.18L311.977,223.201L311.977,223.201z"/>
				</g>
				<g>
					<path fill="#9606F4" d="M320.251,162.223c6.102,0.055,11.862,2.359,12.307,7.469c0.33,3.735-4.611,7.145-10.708,7.145
						c-6.151-0.059-11.858-2.312-12.354-7.411C309.158,165.625,314.152,162.223,320.251,162.223z M321.73,175.564
						c2.639,0,4.342-2.526,4.062-4.562c-0.604-4.009-1.979-7.25-5.604-7.25c-2.636,0-4.172,2.581-3.84,4.612
						C316.956,172.381,318.109,175.564,321.73,175.564z"/>
				</g>
			</g>
		</g>
		<g>
			<path id="path2070" fill="#9606F4" d="M15.559,200.018c3.803-2.562,6.646-4.514,8.472-5.854c1.831-1.321,3.758-2.979,5.732-4.946
				c1.973-1.966,3.634-4.196,4.981-6.672c1.059-1.821,1.974-3.938,2.72-6.337c0.748-2.377,1.133-4.684,1.205-6.863
				c0-2.039-0.265-3.979-0.818-5.811c-0.531-1.85-1.445-3.36-2.745-4.584c-1.299-1.2-2.983-1.801-5.078-1.801
				c-2.021,0-3.924,0.406-5.704,1.197c-1.758,0.812-3.012,2.106-3.707,3.938c0,0.17-0.098,0.384-0.243,0.693
				c0.048,0.388,0.243,0.672,0.604,0.893c0.36,0.216,0.672,0.312,0.962,0.312c0.144,0,0.553-0.072,1.18-0.222
				c0.65-0.146,1.18-0.235,1.612-0.235c1.277,0,2.409,0.457,3.442,1.347c1.013,0.888,1.519,1.966,1.519,3.239
				c0,0.912-0.265,1.771-0.771,2.562c-0.504,0.793-1.203,1.438-2.093,1.896c-0.893,0.479-1.88,0.696-2.936,0.696
				c-1.928,0-3.563-0.577-4.913-1.754c-1.324-1.198-1.998-2.713-1.998-4.608c0-2.426,0.746-4.516,2.214-6.287
				c1.493-1.773,3.37-3.096,5.682-3.979c2.288-0.913,4.599-1.346,6.958-1.346c2.574,0,5.031,0.646,7.317,1.968
				c2.312,1.295,4.118,3.101,5.464,5.327c1.349,2.255,2.048,4.652,2.048,7.249c0,4.606-1.542,8.881-4.622,12.842
				c-3.083,3.962-6.885,7.396-11.436,10.32c-3.032,1.989-7.942,4.682-14.707,8.062L15.559,200.018z M48.997,162.887
				c0-0.865,0.312-1.586,0.938-2.162c0.602-0.599,1.349-0.887,2.237-0.887c0.771,0,1.494,0.333,2.144,0.98
				c0.649,0.625,0.962,1.369,0.962,2.187c0,0.863-0.335,1.604-0.962,2.208c-0.673,0.574-1.421,0.862-2.264,0.862
				c-0.89,0-1.612-0.288-2.189-0.935C49.287,164.518,48.997,163.773,48.997,162.887z M48.997,175.463
				c0-0.865,0.312-1.609,0.89-2.184c0.6-0.604,1.348-0.889,2.286-0.889c0.771,0,1.47,0.312,2.144,0.959
				c0.627,0.646,0.962,1.346,0.962,2.106c0,0.938-0.313,1.687-0.914,2.28c-0.627,0.602-1.349,0.906-2.192,0.906
				c-0.938,0-1.686-0.312-2.286-0.891C49.308,177.189,48.997,176.423,48.997,175.463z"/>
		</g>
	</g>
</g>
</svg>
