<?xml version="1.0" encoding="utf-8"?>
<!-- Generator: Adobe Illustrator 15.0.0, SVG Export Plug-In . SVG Version: 6.00 Build 0)  -->
<!DOCTYPE svg PUBLIC "-//W3C//DTD SVG 1.1//EN" "http://www.w3.org/Graphics/SVG/1.1/DTD/svg11.dtd">
<svg version="1.1" id="Layer_1" xmlns="http://www.w3.org/2000/svg" xmlns:xlink="http://www.w3.org/1999/xlink" x="0px" y="0px"
	 width="500px" height="270px" viewBox="0 0 500 270" enable-background="new 0 0 500 270" xml:space="preserve">
<g id="Layer_1_2_">
	<g id="Layer_1_1_">
	</g>
	<path d="M10.499,111.123v-1.044h462.473v1.044H10.499z M10.499,125.125v-1.153h462.473v1.153H10.499z M10.499,139.02v-1.043
		h462.473v1.043H10.499z M10.499,152.914v-1.044h462.473v1.044H10.499z M10.499,166.809v-1.041h462.473v1.041H10.499z"/>
	<g>
		<path fill="#009010" d="M208.795,139c4.668,0.055,7.25,3.242,5.767,7.141c-1.429,3.954-6.371,7.086-10.984,7.028
			c-4.612-0.052-7.193-3.296-5.712-7.19C199.294,142.076,204.183,138.947,208.795,139z"/>
		<path d="M192.768,178.887h11.524c1.709,0,3.163,0.303,4.359,0.905c1.488,0.763,2.752,2.036,3.793,3.815
			c1.039,1.781,1.562,3.887,1.562,6.316c0,2.016-0.312,3.825-0.935,5.438c-0.473,1.238-1.2,2.32-2.181,3.244
			c-0.98,0.925-2.174,1.617-3.582,2.082c-1.056,0.34-2.464,0.512-4.224,0.512h-10.316v-1.126h2.117c0.537,0,0.905-0.085,1.113-0.253
			c0.208-0.174,0.31-0.439,0.31-0.803v-17.979c0-0.312-0.11-0.562-0.332-0.748c-0.225-0.187-0.531-0.276-0.923-0.276h-2.285V178.887
			z M200.828,180.016c-0.454,0-0.788,0.096-1.006,0.287c-0.216,0.188-0.323,0.479-0.323,0.859v17.811
			c0,0.36,0.125,0.637,0.377,0.819c0.251,0.187,0.681,0.28,1.284,0.28h1.904c1.703,0,3.191-0.438,4.471-1.312
			c0.836-0.584,1.47-1.404,1.904-2.463c0.593-1.428,0.892-3.398,0.892-5.915c0-3.724-0.649-6.45-1.949-8.18
			c-1.108-1.461-2.781-2.188-5.017-2.188h-2.537V180.016z"/>
	</g>
	<g>
		<path fill="#0C00FF" d="M241.516,131.32c4.667,0.056,7.249,3.241,5.767,7.14c-1.428,3.954-6.371,7.084-10.982,7.03
			c-4.614-0.055-7.195-3.295-5.712-7.192C232.015,134.396,236.903,131.265,241.516,131.32z"/>
		<path d="M227.916,178.887h17.672l0.429,7.536h-1.02c-0.401-2.378-1.039-4.04-1.908-4.985c-0.87-0.943-2.004-1.42-3.399-1.42
			h-4.374c-0.352,0-0.617,0.101-0.8,0.287c-0.181,0.189-0.271,0.481-0.271,0.875v7.955h1.916c1.026,0,1.856-0.367,2.494-1.101
			c0.639-0.731,0.984-1.859,1.034-3.377h1.044v10.325h-1.044c-0.05-1.707-0.399-2.928-1.049-3.666
			c-0.649-0.741-1.532-1.109-2.646-1.109h-1.75v8.873c0,0.322,0.108,0.568,0.324,0.742c0.217,0.171,0.575,0.253,1.078,0.253h3.454
			c3.753,0,5.913-2.396,6.486-7.187h1.1l-0.377,8.312h-18.396v-1.126h1.522c0.594,0,1.012-0.104,1.252-0.309
			c0.24-0.207,0.362-0.508,0.362-0.897V181.18c0-0.395-0.106-0.685-0.318-0.875c-0.211-0.188-0.54-0.287-0.995-0.287h-1.823
			L227.916,178.887L227.916,178.887z"/>
	</g>
	<g>
		<path fill="#8F00FF" d="M274.723,123.641c4.669,0.055,7.25,3.242,5.767,7.14c-1.428,3.955-6.371,7.084-10.984,7.029
			c-4.611-0.056-7.192-3.295-5.711-7.19C265.22,126.717,270.11,123.587,274.723,123.641z"/>
		<path d="M262.518,178.887h18.153l0.297,7.723h-1.047c-0.465-2.651-1.114-4.387-1.95-5.188c-0.958-0.938-2.324-1.396-4.099-1.396
			h-3.584c-0.354,0-0.607,0.082-0.771,0.248c-0.161,0.166-0.242,0.414-0.242,0.748v8.043h1.919c1.067,0,1.919-0.354,2.552-1.06
			c0.635-0.706,0.977-1.79,1.027-3.26h1.1v10.083h-1.1c-0.07-1.668-0.412-2.854-1.027-3.57c-0.613-0.712-1.466-1.064-2.552-1.064
			h-1.919v8.521c0,0.503,0.121,0.858,0.362,1.063c0.241,0.209,0.659,0.312,1.253,0.312h2.324v1.123h-10.697v-1.127h2.288
			c0.461,0,0.79-0.093,0.983-0.276c0.196-0.187,0.293-0.494,0.293-0.914v-17.758c0-0.396-0.103-0.688-0.309-0.855
			c-0.206-0.176-0.564-0.258-1.076-0.258h-2.181L262.518,178.887L262.518,178.887z"/>
	</g>
	<g>
		<path fill="#F70303" d="M340.23,110.283c4.668,0.054,7.25,3.24,5.764,7.138c-1.43,3.956-6.369,7.086-10.979,7.031
			c-4.613-0.055-7.193-3.295-5.713-7.195C330.729,113.357,335.615,110.226,340.23,110.283z"/>
		<path d="M339.246,178.434h1.055l7.994,20.404c0.322,0.821,0.979,1.235,1.979,1.235h0.691v1.126h-8.9v-1.126h0.711
			c0.926,0,1.578-0.101,1.965-0.302c0.26-0.146,0.393-0.355,0.393-0.646c0-0.172-0.033-0.354-0.104-0.543l-1.846-4.73h-8.812
			l-1.053,2.713c-0.271,0.727-0.408,1.302-0.408,1.72c0,0.489,0.229,0.916,0.688,1.266c0.459,0.354,1.125,0.526,2.002,0.526h0.754
			v1.128h-8.1v-1.126c0.867,0,1.555-0.188,2.061-0.562c0.502-0.379,0.969-1.096,1.395-2.146L339.246,178.434z M338.83,182.721
			l-3.996,9.951h7.877L338.83,182.721z"/>
	</g>
	<g>
		<path fill="#FF9E11" d="M373.954,103.604c4.673,0.054,7.254,3.24,5.769,7.138c-1.428,3.955-6.372,7.083-10.979,7.031
			c-4.61-0.056-7.193-3.295-5.717-7.195C364.454,106.679,369.342,103.549,373.954,103.604z"/>
		<path d="M364.579,178.887h11.614c2.279,0,4.025,0.504,5.235,1.508c1.211,1.006,1.812,2.27,1.812,3.783
			c0,1.266-0.422,2.34-1.265,3.225c-0.845,0.889-2.114,1.582-3.815,2.099c2.106,0.438,3.685,1.144,4.737,2.093
			c1.05,0.952,1.579,2.152,1.579,3.604c0,1.104-0.302,2.089-0.896,2.938c-0.602,0.856-1.597,1.581-2.981,2.178
			c-1.394,0.598-2.97,0.895-4.742,0.895h-11.271v-1.127h1.838c0.553,0,0.96-0.091,1.213-0.271c0.255-0.182,0.384-0.391,0.384-0.615
			v-17.887c0-0.426-0.124-0.744-0.377-0.959c-0.25-0.221-0.614-0.324-1.101-0.324h-1.961L364.579,178.887L364.579,178.887z
			 M371.202,189.13h4.237c1.302,0,2.336-0.38,3.108-1.14c0.771-0.76,1.153-2.01,1.153-3.742c0-1.07-0.185-1.906-0.549-2.507
			c-0.369-0.604-0.897-1.038-1.604-1.317c-0.7-0.273-1.91-0.41-3.641-0.41c-1.221,0-1.975,0.086-2.27,0.26
			c-0.292,0.182-0.438,0.482-0.438,0.929v7.932L371.202,189.13L371.202,189.13z M371.202,190.257v8.608
			c0,0.402,0.117,0.703,0.355,0.904s0.664,0.302,1.277,0.302h2.707c1.793,0,3.11-0.392,3.972-1.183
			c0.858-0.791,1.282-2.021,1.282-3.691c0-1.529-0.441-2.734-1.324-3.615c-0.891-0.881-2.111-1.322-3.676-1.322L371.202,190.257
			L371.202,190.257z"/>
	</g>
	<g>
		<path fill="#F7F006" d="M407.596,96.925c4.67,0.053,7.252,3.24,5.769,7.138c-1.431,3.956-6.367,7.084-10.982,7.031
			c-4.612-0.055-7.188-3.295-5.708-7.195C398.092,100,402.983,96.869,407.596,96.925z"/>
		<path d="M415.745,180.08l1.021-2.157h0.938l0.429,8.981h-1.019c-0.664-2.541-1.495-4.416-2.498-5.62
			c-1.243-1.511-2.729-2.263-4.454-2.263c-1.867,0-3.388,0.836-4.562,2.509c-1.175,1.672-1.756,4.503-1.756,8.493
			c0,3.354,0.675,5.912,2.021,7.679c1.146,1.491,2.752,2.235,4.815,2.235c1.812,0,3.326-0.58,4.55-1.741
			c1.227-1.162,2.022-2.914,2.396-5.259h1.072c-0.312,2.65-1.225,4.688-2.729,6.119c-1.508,1.428-3.409,2.14-5.698,2.14
			c-1.855,0-3.562-0.468-5.112-1.402c-1.557-0.937-2.795-2.278-3.728-4.034c-0.93-1.757-1.396-3.681-1.396-5.769
			c0-2.222,0.479-4.308,1.438-6.259c0.964-1.948,2.188-3.414,3.688-4.397c1.495-0.979,3.104-1.468,4.835-1.468
			c0.964,0,1.896,0.169,2.805,0.502C413.7,178.701,414.683,179.277,415.745,180.08z"/>
	</g>
	<g>
		<path fill="#F7E608" d="M174.817,145.68c4.667,0.055,7.249,3.239,5.766,7.139c-1.428,3.957-6.371,7.09-10.984,7.029
			c-4.614-0.055-7.192-3.296-5.71-7.189C165.314,148.757,170.203,145.623,174.817,145.68z"/>
		<path d="M174.587,180.08l1.022-2.157h0.938l0.429,8.981h-1.019c-0.666-2.541-1.495-4.416-2.498-5.62
			c-1.247-1.511-2.73-2.263-4.456-2.263c-1.867,0-3.387,0.836-4.561,2.509c-1.175,1.672-1.758,4.503-1.758,8.493
			c0,3.354,0.676,5.912,2.018,7.679c1.146,1.491,2.753,2.235,4.822,2.235c1.809,0,3.325-0.58,4.549-1.741
			c1.223-1.162,2.024-2.914,2.396-5.259h1.073c-0.312,2.65-1.22,4.688-2.729,6.119c-1.508,1.428-3.409,2.14-5.698,2.14
			c-1.86,0-3.565-0.468-5.117-1.402c-1.55-0.937-2.795-2.278-3.724-4.034c-0.929-1.757-1.395-3.681-1.395-5.769
			c0-2.222,0.479-4.308,1.438-6.259c0.96-1.948,2.187-3.414,3.684-4.397c1.494-0.979,3.107-1.468,4.835-1.468
			c0.963,0,1.896,0.169,2.8,0.502C172.542,178.701,173.525,179.277,174.587,180.08z"/>
	</g>
	<g>
		<path d="M310.646,180.114l1.229-2.222h1.021l0.562,8.899h-0.991c-0.751-2.562-1.64-4.416-2.66-5.562
			c-1.302-1.461-2.795-2.188-4.479-2.188c-1.291,0-2.445,0.367-3.471,1.104c-1.021,0.729-1.809,1.832-2.354,3.297
			c-0.547,1.466-0.819,3.531-0.819,6.188c0,2.582,0.272,4.604,0.821,6.057c0.546,1.457,1.302,2.526,2.264,3.219
			c0.965,0.686,2.096,1.029,3.391,1.029c1.759,0,3.115-0.492,4.074-1.478s1.438-2.254,1.438-3.812v-2.092
			c0-0.332-0.13-0.59-0.386-0.771c-0.258-0.181-0.68-0.271-1.262-0.271h-1.896v-1.046h9.354v1.046h-1.268
			c-0.564,0-0.969,0.103-1.211,0.295s-0.361,0.479-0.361,0.854v8.531h-0.992c-0.355-1.326-0.733-2.604-1.129-3.82
			c-0.754,1.236-1.646,2.165-2.688,2.784c-1.04,0.614-2.223,0.928-3.537,0.928c-1.88,0-3.624-0.479-5.229-1.444
			c-1.604-0.969-2.871-2.324-3.802-4.08c-0.93-1.754-1.396-3.735-1.396-5.949c0-2.224,0.47-4.213,1.402-5.974
			c0.934-1.76,2.211-3.155,3.832-4.189c1.622-1.037,3.262-1.554,4.92-1.554c0.939,0,1.844,0.157,2.705,0.478
			C308.586,178.686,309.558,179.268,310.646,180.114z"/>
		<path fill="#9E00D5" d="M307.127,116.962c4.668,0.054,7.25,3.24,5.764,7.138c-1.43,3.957-6.368,7.086-10.979,7.032
			c-4.611-0.056-7.191-3.295-5.711-7.196C297.627,120.037,302.512,116.905,307.127,116.962z"/>
	</g>
	<path fill="#F70303" d="M107.641,158.357c4.668,0.053,7.25,3.236,5.764,7.137c-1.43,3.957-6.369,7.086-10.979,7.031
		c-4.613-0.058-7.193-3.295-5.712-7.195C98.14,161.432,103.024,158.3,107.641,158.357z"/>
	<path d="M101.708,178.1h1.056l7.993,20.404c0.323,0.822,0.979,1.236,1.976,1.236h0.695v1.125h-8.904v-1.125h0.711
		c0.927,0,1.578-0.102,1.966-0.303c0.259-0.146,0.393-0.355,0.393-0.646c0-0.172-0.034-0.354-0.106-0.543l-1.844-4.73h-8.811
		l-1.053,2.713c-0.272,0.728-0.408,1.302-0.408,1.72c0,0.489,0.229,0.916,0.688,1.266c0.459,0.354,1.125,0.527,2.002,0.527h0.754
		v1.127h-8.099v-1.125c0.867,0,1.554-0.188,2.06-0.562c0.502-0.381,0.966-1.096,1.392-2.147L101.708,178.1z M101.292,182.387
		l-3.996,9.951h7.877L101.292,182.387z"/>
	<g>
		<path fill="#FF9E11" d="M139.433,152.283c4.673,0.054,7.254,3.239,5.769,7.138c-1.428,3.955-6.372,7.083-10.979,7.03
			c-4.61-0.056-7.193-3.295-5.717-7.194C129.933,155.357,134.82,152.228,139.433,152.283z"/>
		<path d="M126.058,178.565h11.614c2.279,0,4.025,0.504,5.235,1.508c1.211,1.006,1.812,2.27,1.812,3.783
			c0,1.266-0.422,2.34-1.265,3.225c-0.845,0.889-2.114,1.582-3.815,2.099c2.106,0.438,3.685,1.144,4.737,2.093
			c1.05,0.952,1.579,2.152,1.579,3.604c0,1.104-0.302,2.089-0.896,2.938c-0.602,0.856-1.597,1.581-2.981,2.178
			c-1.394,0.598-2.97,0.895-4.742,0.895h-11.271v-1.127h1.838c0.553,0,0.96-0.091,1.213-0.271c0.255-0.182,0.384-0.391,0.384-0.615
			v-17.887c0-0.426-0.124-0.744-0.377-0.959c-0.25-0.221-0.614-0.324-1.101-0.324h-1.961L126.058,178.565L126.058,178.565z
			 M132.681,188.809h4.237c1.302,0,2.336-0.38,3.108-1.14c0.771-0.76,1.153-2.01,1.153-3.742c0-1.07-0.185-1.906-0.549-2.507
			c-0.369-0.604-0.897-1.038-1.604-1.317c-0.7-0.273-1.91-0.41-3.641-0.41c-1.221,0-1.975,0.086-2.27,0.26
			c-0.292,0.182-0.438,0.482-0.438,0.929v7.932L132.681,188.809L132.681,188.809z M132.681,189.936v8.608
			c0,0.402,0.117,0.703,0.355,0.904s0.664,0.302,1.277,0.302h2.707c1.793,0,3.11-0.392,3.972-1.183
			c0.858-0.791,1.282-2.021,1.282-3.691c0-1.529-0.441-2.734-1.324-3.615c-0.891-0.881-2.111-1.322-3.676-1.322L132.681,189.936
			L132.681,189.936z"/>
	</g>
</g>
<g id="Layer_2">
</g>
<g id="Layer_3">
	<g id="layer1_2_">
		<g id="g2972_2_" transform="matrix(1,0,0,1.030698,-309.364,-543.8647)">
			<path id="path2974_2_" d="M379.227,695.393c-0.357,5.55-3.457,11.207-8.833,13.276c-4.607,1.705-10.416,1.963-14.419-1.281
				c-2.996-2.217-4.142-7.26-1.007-9.867c2.994-2.837,8.753-0.278,8.407,3.894c1.176,2.865-4.911,4.626-1.711,6.629
				c3.681,0.962,7.434-2.047,8.379-5.539c1.374-5.016,1.299-10.426,0.096-15.469c-0.646-2.482-2.182-6.346-5.465-5.342
				c-4.297,1.001-6.708,5.246-8.061,9.103c-0.783-5.471-4.223-10.202-8.179-13.892c0,10.991,0,21.982,0,32.968l-2.461,0.016
				c0-22.588,0-45.63,0-68.216l2.461-0.001c0,10.834,0,22.115,0,32.95c3.923-3.635,7.378-8.29,8.12-13.716
				c1.417,4.048,4.161,8.514,8.793,9.143c3.407,0.188,4.382-3.966,5.061-6.557c0.893-4.891,0.989-10.089-0.561-14.855
				c-1.107-3.354-4.75-6.097-8.341-5.198c-2.903,2.115,2.821,3.644,1.854,6.368c0.618,3.916-4.227,6.976-7.565,4.945
				c-3.617-1.978-3.353-7.309-0.566-9.884c1.897-1.959,5.507-3.226,8.15-3.204c2.698,0.021,4.272,0.221,6.687,1.063
				c5.404,1.927,8.671,7.482,9.116,13.019c0.813,6.278-2.698,13.126-8.613,15.607c-3.849,1.49-8.3,0.2-11.25-2.538
				c-0.482,2.75-1.708,5.368-3.224,7.267c1.226,1.999,2.551,5.213,3.227,6.312c3.695-3.365,10.223-3.769,14.069-0.435
				C377.306,685.177,379.749,690.291,379.227,695.393z"/>
		</g>
		<g id="g2976_2_" transform="matrix(1,0,0,1.030928,-309.364,-543.9805)">
			<path id="path2978_2_" d="M340.698,709.859h-8v-68.223h8V709.859z"/>
		</g>
	</g>
</g>
</svg>
