<?xml version="1.0" encoding="utf-8"?>
<!-- Generator: Adobe Illustrator 13.0.2, SVG Export Plug-In . SVG Version: 6.00 Build 14948)  -->
<!DOCTYPE svg PUBLIC "-//W3C//DTD SVG 1.0//EN" "http://www.w3.org/TR/2001/REC-SVG-20010904/DTD/svg10.dtd">
<svg version="1.0" xmlns="http://www.w3.org/2000/svg" xmlns:xlink="http://www.w3.org/1999/xlink" x="0px" y="0px" width="500px"
	 height="270px" viewBox="0 -11 500 270" enable-background="new 0 -11 500 270" xml:space="preserve">
<g id="Layer_1">
	<g id="Layer_2">
		<g id="Layer_2_1_">
			<g>
				<path d="M19.499,30.123v-1.044h462.473v1.044H19.499z M19.499,44.125v-1.153h462.473v1.153H19.499z M19.499,58.02v-1.044
					h462.473v1.044H19.499z M19.499,71.914V70.87h462.473v1.044H19.499z M19.499,85.809v-1.042h462.473v1.042H19.499z"/>
				<path fill="#F200FF" d="M44.969,84.271C33.656,78.888,31.844,71.97,31.35,64.884c-0.55-7.688,4.339-15.486,8.896-19.825
					c2.636-2.471,5.492-4.887,8.898-7.468c-0.111-1.922-0.55-2.692-0.77-5.437c-0.055-1.153-0.769-6.535,0.384-12.741
					C49.472,15.732,54.086,7.056,57.271,7c2.472-0.055,6.261,9.832,6.372,14.774c0.164,7.634-1.647,11.093-3.9,15.047
					c-1.153,1.978-2.361,3.351-3.625,4.889c-1.317,1.592-2.8,2.525-4.173,3.734c0,0,1.758,9.939,1.812,10.654
					c3.515-0.439,7.798,0.821,9.337,1.922c3.898,2.91,5.381,6.92,5.656,10.818c0.495,6.205-2.911,12.741-10.435,15.872
					c0,0,1.153,7.907,1.428,9.556c0.604,4.336,0.495,7.084-0.439,8.84c-1.592,2.966-4.173,5.711-9.171,6.043
					c-3.845,0.218-11.424-1.701-11.808-7.745c-0.221-3.57,1.373-7.413,5.71-7.687c2.636-0.22,5.767,1.977,5.986,5.106
					c0.22,2.692-1.537,5.493-6.095,6.756c0.714,0.989,2.855,2.146,5.931,2.146c3.185,0,6.479-2.146,8.073-4.998
					c0.989-1.867,0.878-5.219,0.495-8.293c-0.166-1.045-1.483-9.337-1.483-9.337C52.878,85.755,47.275,85.369,44.969,84.271z
					 M46.067,71.256c0.109,2.635,2.306,5.712,4.337,6.754c-0.273,0.166-0.548,0.605-0.548,0.605c-2.253-1.1-4.175-2.91-4.669-3.57
					c-1.592-2.14-2.251-3.349-2.471-6.59c-0.219-3.021,1.428-7.083,5.107-9.94c1.922-1.428,2.856-1.758,4.503-2.142l-1.647-9.94
					c-1.703,0.987-8.732,6.646-11.697,11.258c-2.636,4.12-4.229,7.415-3.9,11.479c0.659,9.172,10.709,16.696,21.583,14.115
					c0,0-3.24-19.497-3.187-19.497C47.495,64.005,45.902,68.62,46.067,71.256z M50.517,36.439
					c4.778-3.734,11.258-10.765,10.874-16.202c-0.109-1.701-0.823-4.777-3.295-4.723C52.438,15.569,49.251,27.375,50.517,36.439z
					 M57.985,82.844c6.317-2.142,6.592-7.579,6.372-10.82c-0.221-2.69-1.428-8.733-9.448-8.347L57.985,82.844z"/>
				<path fill="#00FF18" d="M123.4,85.738c4.669,0.055,7.25,3.243,5.767,7.14c-1.428,3.955-6.371,7.086-10.984,7.029
					c-4.612-0.052-7.193-3.295-5.712-7.191C113.899,88.815,118.788,85.686,123.4,85.738z"/>
				<path fill="#8F00FF" d="M191.191,71.844c4.669,0.055,7.25,3.241,5.767,7.14c-1.428,3.954-6.371,7.084-10.984,7.029
					c-4.612-0.053-7.193-3.295-5.712-7.191C181.688,74.919,186.579,71.79,191.191,71.844z"/>
				<path fill="#EC06F9" d="M222.65,63.918c6.096,0.055,11.863,2.361,12.303,7.47c0.33,3.736-4.613,7.138-10.71,7.138
					c-6.151-0.054-11.861-2.306-12.354-7.411C211.559,67.322,216.552,63.918,222.65,63.918z M224.131,77.264
					c2.637,0,4.34-2.529,4.064-4.559c-0.605-4.009-1.979-7.25-5.604-7.25c-2.637,0-4.173,2.581-3.843,4.612
					C219.355,74.078,220.509,77.264,224.131,77.264z"/>
				<path fill="#F70303" d="M260.312,57.952c4.668,0.054,7.25,3.24,5.764,7.138c-1.43,3.956-6.369,7.086-10.98,7.031
					c-4.613-0.055-7.193-3.295-5.711-7.195C250.812,61.027,255.697,57.895,260.312,57.952z"/>
				<path fill="#F76806" d="M294.364,51.005c4.67,0.054,7.251,3.24,5.766,7.138c-1.428,3.955-6.372,7.083-10.979,7.031
					c-4.607-0.056-7.19-3.295-5.717-7.195C284.865,54.08,289.752,50.95,294.364,51.005z"/>
				<path fill="#F7F006" d="M328.625,43.497c4.67,0.053,7.252,3.24,5.766,7.138c-1.428,3.956-6.361,7.084-10.979,7.031
					c-4.612-0.055-7.188-3.295-5.708-7.195C319.121,46.572,324.013,43.441,328.625,43.497z"/>
				<path fill="#00FF00" d="M363.62,37.107c4.666,0.056,7.247,3.242,5.762,7.14c-1.426,3.954-6.372,7.084-10.979,7.029
					c-4.614-0.054-7.193-3.295-5.712-7.193C354.117,40.183,359.004,37.052,363.62,37.107z"/>
				<path fill="#6C00F9" d="M431.405,23.215c4.668,0.055,7.249,3.24,5.766,7.14c-1.428,3.954-6.372,7.084-10.984,7.029
					c-4.604-0.056-7.188-3.295-5.71-7.193C421.904,26.29,426.791,23.16,431.405,23.215z"/>
				<path fill="#EC00FF" d="M465.84,15.73c4.668,0.055,7.249,3.241,5.771,7.14c-1.436,3.954-6.37,7.084-10.984,7.029
					c-4.612-0.053-7.191-3.295-5.71-7.193C456.336,18.806,461.225,15.675,465.84,15.73z"/>
				<path fill="#F7E608" d="M88.411,95.27c4.667,0.054,7.249,3.24,5.766,7.138c-1.428,3.957-6.371,7.088-10.984,7.03
					c-4.614-0.054-7.192-3.295-5.71-7.192C78.908,98.348,83.797,95.214,88.411,95.27z"/>
				<line fill="none" stroke="#000000" x1="69.794" y1="102.312" x2="102.115" y2="102.312"/>
				<text transform="matrix(1 0 0 1 80.5 134.5)" font-family="'MyriadPro-Regular'" font-size="14">D</text>
				<text transform="matrix(1 0 0 1 91.8682 134.5)" font-family="'MyriadPro-Regular'" font-size="14">e   </text>
				<text transform="matrix(1 0 0 1 116.0029 127.5)" font-family="'MyriadPro-Regular'" font-size="14">R</text>
				<text transform="matrix(1 0 0 1 126.4751 127.5)" font-family="'MyriadPro-Regular'" font-size="14">e </text>
				<text transform="matrix(1 0 0 1 145.0952 124.5)" font-family="'MyriadPro-Regular'" font-size="14">M</text>
				<text transform="matrix(1 0 0 1 159.3179 124.5)" font-family="'MyriadPro-Regular'" font-size="14">e  </text>
				<text transform="matrix(1 0 0 1 183.7061 112.5)" font-family="'MyriadPro-Regular'" font-size="14">F</text>
				<text transform="matrix(1 0 0 1 192.96 112.5)" font-family="'MyriadPro-Regular'" font-size="14">e   </text>
				<text transform="matrix(1 0 0 1 216.8301 112.5)" font-family="'MyriadPro-Regular'" font-size="14">S</text>
				<text transform="matrix(1 0 0 1 225.8032 112.5)" font-family="'MyriadPro-Regular'" font-size="14">e   </text>
				<text transform="matrix(1 0 0 1 249.6729 112.5)" font-family="'MyriadPro-Regular'" font-size="14">L</text>
				<text transform="matrix(1 0 0 1 258.0732 112.5)" font-family="'MyriadPro-Regular'" font-size="14">e </text>
				<text transform="matrix(1 0 0 1 283.8887 109.5)" font-family="'MyriadPro-Regular'" font-size="14">T</text>
				<text transform="matrix(1 0 0 1 291.8418 109.5)" font-family="'MyriadPro-Regular'" font-size="14">e    </text>
				<text transform="matrix(1 0 0 1 320.666 109.5)" font-family="'MyriadPro-Regular'" font-size="14">D</text>
				<text transform="matrix(1 0 0 1 332.0352 109.5)" font-family="'MyriadPro-Regular'" font-size="14">e   </text>
				<text transform="matrix(1 0 0 1 353.6074 107.5)" font-family="'MyriadPro-Regular'" font-size="14">R</text>
				<text transform="matrix(1 0 0 1 364.0791 107.5)" font-family="'MyriadPro-Regular'" font-size="14">e   </text>
				<text transform="matrix(1 0 0 1 387.459 102.5)" font-family="'MyriadPro-Regular'" font-size="14">M</text>
				<text transform="matrix(1 0 0 1 402.6836 102.5)" font-family="'MyriadPro-Regular'" font-size="14">e  </text>
				<text transform="matrix(1 0 0 1 422.2939 102.5)" font-family="'MyriadPro-Regular'" font-size="14">F</text>
				<text transform="matrix(1 0 0 1 430.5488 102.5)" font-family="'MyriadPro-Regular'" font-size="14">e    Si</text>
				<text transform="matrix(1 0 0 1 75.5 251.5)" font-family="'MyriadPro-Regular'" font-size="14">M</text>
				<text transform="matrix(1 0 0 1 89.7241 251.5)" font-family="'MyriadPro-Regular'" font-size="14">e   </text>
				<text transform="matrix(1 0 0 1 116.103 251.5)" font-family="'MyriadPro-Regular'" font-size="14">F</text>
				<text transform="matrix(1 0 0 1 125.3569 251.5)" font-family="'MyriadPro-Regular'" font-size="14">e   </text>
				<text transform="matrix(1 0 0 1 149.2271 248.5)" font-family="'MyriadPro-Regular'" font-size="14">S</text>
				<text transform="matrix(1 0 0 1 158.1997 248.5)" font-family="'MyriadPro-Regular'" font-size="14">e   </text>
				<text transform="matrix(1 0 0 1 182.0698 248.5)" font-family="'MyriadPro-Regular'" font-size="14">L</text>
				<text transform="matrix(1 0 0 1 190.4697 248.5)" font-family="'MyriadPro-Regular'" font-size="14">e  </text>
				<text transform="matrix(1 0 0 1 216.2861 240.5)" font-family="'MyriadPro-Regular'" font-size="14">T</text>
				<text transform="matrix(1 0 0 1 225.875 239.5)" font-family="'MyriadPro-Regular'" font-size="14">e   </text>
				<text transform="matrix(1 0 0 1 249.7451 239.5)" font-family="'MyriadPro-Regular'" font-size="14">D</text>
				<text transform="matrix(1 0 0 1 261.1113 239.5)" font-family="'MyriadPro-Regular'" font-size="14">e   </text>
				<text transform="matrix(1 0 0 1 285.7676 234.5)" font-family="'MyriadPro-Regular'" font-size="14">R</text>
				<text transform="matrix(1 0 0 1 296.2383 234.5)" font-family="'MyriadPro-Regular'" font-size="14">e  </text>
				<text transform="matrix(1 0 0 1 319.6172 232.5)" font-family="'MyriadPro-Regular'" font-size="14">M</text>
				<text transform="matrix(1 0 0 1 333.8418 232.5)" font-family="'MyriadPro-Regular'" font-size="14">e  </text>
				<text transform="matrix(1 0 0 1 351.4531 231.5)" font-family="'MyriadPro-Regular'" font-size="14">F</text>
				<text transform="matrix(1 0 0 1 360.707 231.5)" font-family="'MyriadPro-Regular'" font-size="14">e   </text>
				<text transform="matrix(1 0 0 1 384.5762 231.5)" font-family="'MyriadPro-Regular'" font-size="14">S</text>
				<text transform="matrix(1 0 0 1 393.5508 231.5)" font-family="'MyriadPro-Regular'" font-size="14">e   </text>
				<text transform="matrix(1 0 0 1 417.4199 231.5)" font-family="'MyriadPro-Regular'" font-size="14">L</text>
				<text transform="matrix(1 0 0 1 425.8203 231.5)" font-family="'MyriadPro-Regular'" font-size="14">e   </text>
				<text transform="matrix(1 0 0 1 464.9551 230.5)" font-family="'MyriadPro-Regular'" font-size="14"> </text>
				<text transform="matrix(1 0 0 1 455.1504 231.5)" font-family="'MyriadPro-Regular'" font-size="14">T</text>
				<text transform="matrix(1 0 0 1 464.7402 231.5)" font-family="'MyriadPro-Regular'" font-size="14">e</text>
				<path fill="#00C3FF" d="M398.377,29.496c4.67,0.054,7.251,3.24,5.764,7.139c-1.428,3.957-6.361,7.088-10.979,7.03
					c-4.614-0.054-7.188-3.295-5.708-7.192C388.874,32.573,393.765,29.441,398.377,29.496z"/>
				<path fill="#00C3FF" d="M158.377,77.496c4.67,0.054,7.251,3.24,5.764,7.139c-1.428,3.957-6.362,7.088-10.979,7.03
					c-4.614-0.054-7.188-3.295-5.708-7.192C148.874,80.573,153.765,77.441,158.377,77.496z"/>
			</g>
			<g>
				<path d="M19.499,157.125v-1.044h462.473v1.044H19.499z M19.499,171.125v-1.152h462.473v1.152H19.499z M19.499,185.02v-1.043
					h462.473v1.043H19.499z M19.499,198.914v-1.044h462.473v1.044H19.499z M19.499,212.809v-1.043h462.473v1.043H19.499z"/>
				<path fill="#8800FF" d="M157.126,205.791c4.667,0.057,7.249,3.238,5.765,7.141c-1.426,3.953-6.37,7.084-10.982,7.029
					c-4.614-0.055-7.195-3.295-5.712-7.193C147.625,208.866,152.512,205.734,157.126,205.791z"/>
				<path fill="#FF0677" d="M191.191,198.844c4.669,0.057,7.25,3.241,5.767,7.141c-1.428,3.953-6.371,7.084-10.984,7.029
					c-4.612-0.055-7.193-3.295-5.712-7.188C181.688,201.919,186.579,198.79,191.191,198.844z"/>
				<path fill="#FF7F00" d="M260.312,184.951c4.668,0.053,7.25,3.24,5.764,7.139c-1.43,3.955-6.369,7.086-10.98,7.03
					c-4.613-0.056-7.193-3.295-5.711-7.194C250.812,188.027,255.697,184.895,260.312,184.951z"/>
				<path fill="#8DF20A" d="M294.09,178.005c4.669,0.056,7.252,3.241,5.766,7.138c-1.428,3.957-6.371,7.086-10.979,7.032
					c-4.613-0.055-7.193-3.296-5.715-7.194C284.589,181.082,289.479,177.949,294.09,178.005z"/>
				<path fill="#00C3FF" d="M328.377,170.496c4.67,0.054,7.251,3.24,5.764,7.139c-1.428,3.957-6.36,7.088-10.979,7.03
					c-4.614-0.054-7.188-3.295-5.708-7.192C318.874,173.573,323.765,170.441,328.377,170.496z"/>
				<path fill="#F94C00" d="M225.755,191.141c4.666,0.053,7.247,3.238,5.763,7.139c-1.428,3.953-6.373,7.091-10.981,7.029
					c-4.614-0.054-7.193-3.295-5.712-7.188C216.252,194.213,221.139,191.082,225.755,191.141z"/>
				<path fill="#6706FF" d="M397.242,157.162c4.667,0.057,7.248,3.238,5.764,7.141c-1.428,3.953-6.37,7.084-10.979,7.03
					c-4.614-0.056-7.192-3.297-5.711-7.192C387.739,160.236,392.628,157.105,397.242,157.162z"/>
				<path fill="#FF5500" d="M431.244,150.215c4.666,0.057,7.249,3.241,5.766,7.141c-1.428,3.953-6.372,7.084-10.979,7.029
					c-4.612-0.055-7.191-3.296-5.712-7.191C421.74,153.291,426.629,150.16,431.244,150.215z"/>
				<path fill="#FF9D00" d="M465.619,142.73c4.668,0.054,7.249,3.24,5.766,7.14c-1.429,3.953-6.372,7.084-10.979,7.028
					c-4.614-0.053-7.192-3.295-5.711-7.191C456.114,145.807,461.003,142.675,465.619,142.73z"/>
				<line fill="none" stroke="#000000" x1="69.794" y1="229.311" x2="102.115" y2="229.311"/>
				<g>
					<path fill="#0036F9" d="M359.519,163.889c6.104,0.055,11.863,2.36,12.31,7.469c0.33,3.736-4.612,7.146-10.709,7.146
						c-6.151-0.061-11.859-2.312-12.355-7.411C348.426,167.292,353.42,163.889,359.519,163.889z M360.999,177.232
						c2.638,0,4.341-2.527,4.065-4.562c-0.606-4.009-1.979-7.25-5.604-7.25c-2.636,0-4.173,2.581-3.841,4.612
						C356.224,174.048,357.377,177.232,360.999,177.232z"/>
				</g>
				<path fill="#0000FF" d="M125.126,213.791c4.667,0.057,7.249,3.238,5.765,7.141c-1.426,3.953-6.369,7.084-10.981,7.029
					c-4.614-0.055-7.195-3.295-5.712-7.193C115.625,216.866,120.512,213.734,125.126,213.791z"/>
				<path fill="#00C3FF" d="M89.377,221.496c4.67,0.054,7.251,3.24,5.764,7.139c-1.428,3.957-6.362,7.088-10.979,7.03
					c-4.614-0.054-7.188-3.295-5.708-7.192C79.874,224.573,84.765,221.441,89.377,221.496z"/>
			</g>
			<g>
				<path id="path2070" fill="#9606F4" d="M24.559,201.018c3.803-2.562,6.646-4.514,8.472-5.854
					c1.831-1.321,3.758-2.979,5.732-4.946c1.973-1.966,3.634-4.196,4.981-6.672c1.059-1.821,1.974-3.938,2.72-6.337
					c0.748-2.377,1.133-4.684,1.205-6.863c0-2.039-0.265-3.979-0.818-5.811c-0.531-1.85-1.445-3.36-2.745-4.584
					c-1.299-1.2-2.983-1.801-5.078-1.801c-2.021,0-3.924,0.406-5.704,1.197c-1.758,0.812-3.012,2.105-3.707,3.938
					c0,0.17-0.098,0.384-0.243,0.693c0.048,0.388,0.243,0.672,0.604,0.893c0.36,0.216,0.672,0.312,0.962,0.312
					c0.144,0,0.553-0.072,1.18-0.223c0.65-0.146,1.18-0.234,1.612-0.234c1.277,0,2.409,0.457,3.442,1.347
					c1.013,0.888,1.519,1.966,1.519,3.239c0,0.912-0.265,1.771-0.771,2.562c-0.504,0.793-1.203,1.438-2.093,1.896
					c-0.893,0.479-1.88,0.696-2.936,0.696c-1.928,0-3.563-0.577-4.913-1.754c-1.324-1.198-1.998-2.713-1.998-4.608
					c0-2.426,0.746-4.516,2.214-6.287c1.493-1.772,3.37-3.096,5.682-3.979c2.288-0.913,4.599-1.346,6.958-1.346
					c2.574,0,5.031,0.646,7.317,1.968c2.312,1.295,4.118,3.101,5.464,5.327c1.349,2.255,2.048,4.652,2.048,7.249
					c0,4.606-1.542,8.881-4.622,12.842c-3.083,3.962-6.885,7.396-11.436,10.319c-3.032,1.99-7.942,4.683-14.707,8.062
					L24.559,201.018z M57.997,163.887c0-0.865,0.312-1.586,0.938-2.162c0.602-0.599,1.349-0.887,2.237-0.887
					c0.771,0,1.494,0.333,2.144,0.98c0.649,0.625,0.962,1.369,0.962,2.187c0,0.863-0.335,1.604-0.962,2.208
					c-0.673,0.574-1.421,0.862-2.264,0.862c-0.89,0-1.612-0.288-2.189-0.935C58.287,165.518,57.997,164.773,57.997,163.887z
					 M57.997,176.463c0-0.865,0.312-1.609,0.89-2.184c0.6-0.604,1.348-0.889,2.286-0.889c0.771,0,1.47,0.312,2.144,0.959
					c0.627,0.646,0.962,1.346,0.962,2.105c0,0.938-0.313,1.688-0.914,2.277c-0.627,0.604-1.349,0.908-2.192,0.908
					c-0.938,0-1.686-0.312-2.286-0.891C58.308,178.189,57.997,177.423,57.997,176.463z"/>
			</g>
		</g>
	</g>
	<g id="Layer_1_1_">
		<g>
			<path d="M81.1,85.45c0,0.967-0.45,1.925-1.35,2.875c-0.434,0.45-1.417,1.267-2.95,2.45c-1.35,1.067-2.316,1.975-2.9,2.725V72.925
				h1.15V84.05c0.883-0.766,1.934-1.15,3.15-1.15c0.833,0,1.508,0.208,2.025,0.625C80.808,83.975,81.1,84.617,81.1,85.45z
				 M79.45,85.675c0-1.05-0.525-1.575-1.575-1.575c-0.884,0-1.825,0.434-2.825,1.3v5.525c0.867-0.683,1.675-1.416,2.425-2.2
				C78.792,87.375,79.45,86.358,79.45,85.675z"/>
		</g>
		<g>
			<path d="M117.1,77.45c0,0.967-0.45,1.925-1.35,2.875c-0.434,0.45-1.417,1.267-2.95,2.45c-1.35,1.067-2.316,1.975-2.9,2.725
				V64.925h1.15V76.05c0.883-0.766,1.934-1.15,3.15-1.15c0.833,0,1.508,0.208,2.025,0.625C116.808,75.975,117.1,76.617,117.1,77.45z
				 M115.45,77.675c0-1.05-0.525-1.575-1.575-1.575c-0.884,0-1.825,0.434-2.825,1.3v5.525c0.867-0.683,1.675-1.416,2.425-2.2
				C114.792,79.375,115.45,78.358,115.45,77.675z"/>
		</g>
		<g>
			<path d="M148.1,73.45c0,0.967-0.45,1.925-1.35,2.875c-0.434,0.45-1.417,1.267-2.95,2.45c-1.35,1.067-2.316,1.975-2.9,2.725
				V60.925h1.15V72.05c0.883-0.766,1.934-1.15,3.15-1.15c0.833,0,1.508,0.208,2.025,0.625C147.808,71.975,148.1,72.617,148.1,73.45z
				 M146.45,73.675c0-1.05-0.525-1.575-1.575-1.575c-0.884,0-1.825,0.434-2.825,1.3v5.525c0.867-0.683,1.675-1.416,2.425-2.2
				C145.792,75.375,146.45,74.358,146.45,73.675z"/>
		</g>
		<g>
			<path d="M185.1,64.45c0,0.967-0.45,1.925-1.35,2.875c-0.434,0.45-1.417,1.267-2.95,2.45c-1.35,1.067-2.316,1.975-2.9,2.725
				V51.925h1.15V63.05c0.883-0.766,1.934-1.15,3.15-1.15c0.833,0,1.508,0.208,2.025,0.625C184.808,62.975,185.1,63.617,185.1,64.45z
				 M183.45,64.675c0-1.05-0.525-1.575-1.575-1.575c-0.884,0-1.825,0.434-2.825,1.3v5.525c0.867-0.683,1.675-1.416,2.425-2.2
				C182.792,66.375,183.45,65.358,183.45,64.675z"/>
		</g>
		<g>
			<path d="M216.1,57.45c0,0.967-0.45,1.925-1.35,2.875c-0.434,0.45-1.417,1.267-2.95,2.45c-1.35,1.067-2.316,1.975-2.9,2.725
				V44.925h1.15V56.05c0.883-0.766,1.934-1.15,3.15-1.15c0.833,0,1.508,0.208,2.025,0.625C215.808,55.975,216.1,56.617,216.1,57.45z
				 M214.45,57.675c0-1.05-0.525-1.575-1.575-1.575c-0.884,0-1.825,0.434-2.825,1.3v5.525c0.867-0.683,1.675-1.416,2.425-2.2
				C213.792,59.375,214.45,58.358,214.45,57.675z"/>
		</g>
		<g>
			<path d="M255.1,52.45c0,0.967-0.449,1.925-1.35,2.875c-0.434,0.45-1.417,1.267-2.95,2.45c-1.35,1.067-2.316,1.975-2.9,2.725
				V39.925h1.15V51.05c0.883-0.766,1.935-1.15,3.15-1.15c0.833,0,1.508,0.208,2.024,0.625C254.809,50.975,255.1,51.617,255.1,52.45z
				 M253.45,52.675c0-1.05-0.525-1.575-1.575-1.575c-0.884,0-1.825,0.434-2.825,1.3v5.525c0.867-0.683,1.675-1.416,2.425-2.2
				C252.792,54.375,253.45,53.358,253.45,52.675z"/>
		</g>
		<g>
			<path d="M285.1,46.45c0,0.967-0.449,1.925-1.35,2.875c-0.434,0.45-1.417,1.267-2.95,2.45c-1.35,1.067-2.315,1.975-2.899,2.725
				V33.925h1.149V45.05c0.884-0.766,1.935-1.15,3.15-1.15c0.833,0,1.508,0.208,2.024,0.625C284.809,44.975,285.1,45.617,285.1,46.45
				z M283.45,46.675c0-1.05-0.525-1.575-1.575-1.575c-0.884,0-1.825,0.434-2.825,1.3v5.525c0.866-0.683,1.675-1.416,2.425-2.2
				C282.791,48.375,283.45,47.358,283.45,46.675z"/>
		</g>
		<g>
			<path d="M318.1,40.45c0,0.967-0.447,1.925-1.35,2.875c-0.434,0.45-1.417,1.267-2.95,2.45c-1.35,1.067-2.315,1.975-2.899,2.725
				V27.925h1.149V39.05c0.884-0.766,1.935-1.15,3.15-1.15c0.833,0,1.508,0.208,2.022,0.625C317.809,38.975,318.1,39.617,318.1,40.45
				z M316.45,40.675c0-1.05-0.525-1.575-1.575-1.575c-0.884,0-1.825,0.434-2.825,1.3v5.525c0.866-0.683,1.675-1.416,2.425-2.2
				C315.791,42.375,316.45,41.358,316.45,40.675z"/>
		</g>
		<g>
			<path d="M354.1,31.45c0,0.967-0.447,1.925-1.35,2.875c-0.434,0.45-1.417,1.267-2.95,2.45c-1.35,1.067-2.314,1.975-2.897,2.725
				V18.925h1.147V30.05c0.884-0.766,1.936-1.15,3.15-1.15c0.833,0,1.508,0.208,2.022,0.625C353.809,29.975,354.1,30.617,354.1,31.45
				z M352.45,31.675c0-1.05-0.525-1.575-1.575-1.575c-0.884,0-1.825,0.434-2.825,1.3v5.525c0.866-0.683,1.675-1.416,2.425-2.2
				C351.791,33.375,352.45,32.358,352.45,31.675z"/>
		</g>
		<g>
			<path d="M388.1,21.45c0,0.967-0.447,1.925-1.35,2.875c-0.434,0.45-1.417,1.267-2.95,2.45c-1.35,1.067-2.314,1.975-2.897,2.725
				V8.925h1.147V20.05c0.884-0.766,1.936-1.15,3.15-1.15c0.833,0,1.508,0.208,2.022,0.625C387.809,19.975,388.1,20.617,388.1,21.45z
				 M386.45,21.675c0-1.05-0.525-1.575-1.575-1.575c-0.884,0-1.825,0.434-2.825,1.3v5.525c0.866-0.683,1.675-1.416,2.425-2.2
				C385.791,23.375,386.45,22.358,386.45,21.675z"/>
		</g>
		<g>
			<path d="M423.1,15.45c0,0.967-0.447,1.925-1.35,2.875c-0.434,0.45-1.417,1.267-2.95,2.45c-1.35,1.067-2.314,1.975-2.897,2.725
				V2.925h1.147V14.05c0.884-0.766,1.936-1.15,3.15-1.15c0.833,0,1.508,0.208,2.022,0.625C422.809,13.975,423.1,14.617,423.1,15.45z
				 M421.45,15.675c0-1.05-0.525-1.575-1.575-1.575c-0.884,0-1.825,0.434-2.825,1.3v5.525c0.866-0.683,1.675-1.416,2.425-2.2
				C420.791,17.375,421.45,16.358,421.45,15.675z"/>
		</g>
		<g>
			<path d="M458.1,7.45c0,0.967-0.447,1.925-1.35,2.875c-0.434,0.45-1.417,1.267-2.95,2.45c-1.35,1.067-2.314,1.975-2.897,2.725
				V-5.075h1.147V6.05c0.884-0.766,1.936-1.15,3.15-1.15c0.833,0,1.508,0.208,2.022,0.625C457.809,5.975,458.1,6.617,458.1,7.45z
				 M456.45,7.675c0-1.05-0.525-1.575-1.575-1.575c-0.884,0-1.825,0.434-2.825,1.3v5.525c0.866-0.683,1.675-1.416,2.425-2.2
				C455.791,9.375,456.45,8.358,456.45,7.675z"/>
		</g>
		<g>
			<path d="M86.1,212.45c0,0.967-0.45,1.925-1.35,2.875c-0.434,0.45-1.417,1.267-2.95,2.45c-1.35,1.064-2.316,1.975-2.9,2.725
				v-20.575h1.15v11.125c0.883-0.767,1.934-1.149,3.15-1.149c0.833,0,1.508,0.209,2.025,0.625
				C85.808,210.975,86.1,211.617,86.1,212.45z M84.45,212.675c0-1.05-0.525-1.575-1.575-1.575c-0.884,0-1.825,0.436-2.825,1.301
				v5.524c0.867-0.683,1.675-1.416,2.425-2.2C83.792,214.375,84.45,213.357,84.45,212.675z"/>
		</g>
		<g>
			<path d="M119.1,203.45c0,0.967-0.45,1.925-1.35,2.875c-0.434,0.45-1.417,1.267-2.95,2.45c-1.35,1.064-2.316,1.975-2.9,2.725
				v-20.575h1.15v11.125c0.883-0.767,1.934-1.149,3.15-1.149c0.833,0,1.508,0.209,2.025,0.625
				C118.808,201.975,119.1,202.617,119.1,203.45z M117.45,203.675c0-1.05-0.525-1.575-1.575-1.575c-0.884,0-1.825,0.436-2.825,1.301
				v5.524c0.867-0.683,1.675-1.416,2.425-2.2C116.792,205.375,117.45,204.357,117.45,203.675z"/>
		</g>
		<g>
			<path d="M152.1,197.45c0,0.967-0.45,1.925-1.35,2.875c-0.434,0.45-1.417,1.267-2.95,2.45c-1.35,1.064-2.316,1.975-2.9,2.725
				v-20.575h1.15v11.125c0.883-0.767,1.934-1.149,3.15-1.149c0.833,0,1.508,0.209,2.025,0.625
				C151.808,195.975,152.1,196.617,152.1,197.45z M150.45,197.675c0-1.05-0.525-1.575-1.575-1.575c-0.884,0-1.825,0.436-2.825,1.301
				v5.524c0.867-0.683,1.675-1.416,2.425-2.2C149.792,199.375,150.45,198.357,150.45,197.675z"/>
		</g>
		<g>
			<path d="M185.1,190.45c0,0.967-0.45,1.925-1.35,2.875c-0.434,0.45-1.417,1.267-2.95,2.45c-1.35,1.064-2.316,1.975-2.9,2.725
				v-20.575h1.15v11.125c0.883-0.767,1.934-1.149,3.15-1.149c0.833,0,1.508,0.209,2.025,0.625
				C184.808,188.975,185.1,189.617,185.1,190.45z M183.45,190.675c0-1.05-0.525-1.575-1.575-1.575c-0.884,0-1.825,0.436-2.825,1.301
				v5.524c0.867-0.683,1.675-1.416,2.425-2.2C182.792,192.375,183.45,191.357,183.45,190.675z"/>
		</g>
		<g>
			<path d="M220.1,184.45c0,0.967-0.45,1.925-1.35,2.875c-0.434,0.45-1.417,1.267-2.95,2.45c-1.35,1.064-2.316,1.975-2.9,2.725
				v-20.575h1.15v11.125c0.883-0.767,1.934-1.149,3.15-1.149c0.833,0,1.508,0.209,2.025,0.625
				C219.808,182.975,220.1,183.617,220.1,184.45z M218.45,184.675c0-1.05-0.525-1.575-1.575-1.575c-0.884,0-1.825,0.436-2.825,1.301
				v5.524c0.867-0.683,1.675-1.416,2.425-2.2C217.792,186.375,218.45,185.357,218.45,184.675z"/>
		</g>
		<g>
			<path d="M253.1,176.45c0,0.967-0.449,1.925-1.35,2.875c-0.434,0.45-1.417,1.267-2.95,2.45c-1.35,1.064-2.316,1.975-2.9,2.725
				v-20.575h1.15v11.125c0.883-0.767,1.934-1.149,3.15-1.149c0.833,0,1.508,0.209,2.024,0.625
				C252.809,174.975,253.1,175.617,253.1,176.45z M251.45,176.675c0-1.05-0.525-1.575-1.575-1.575c-0.884,0-1.825,0.436-2.825,1.301
				v5.524c0.867-0.683,1.675-1.416,2.425-2.2C250.792,178.375,251.45,177.357,251.45,176.675z"/>
		</g>
		<g>
			<path d="M288.1,172.45c0,0.967-0.449,1.925-1.35,2.875c-0.434,0.45-1.417,1.267-2.95,2.45c-1.35,1.064-2.315,1.975-2.899,2.725
				v-20.575h1.149v11.125c0.884-0.767,1.935-1.149,3.15-1.149c0.833,0,1.508,0.209,2.024,0.625
				C287.809,170.975,288.1,171.617,288.1,172.45z M286.45,172.675c0-1.05-0.525-1.575-1.575-1.575c-0.884,0-1.825,0.436-2.825,1.301
				v5.524c0.866-0.683,1.675-1.416,2.425-2.2C285.791,174.375,286.45,173.357,286.45,172.675z"/>
		</g>
		<g>
			<path d="M321.1,162.45c0,0.967-0.447,1.925-1.35,2.875c-0.434,0.45-1.417,1.267-2.95,2.45c-1.35,1.064-2.315,1.975-2.899,2.725
				v-20.575h1.149v11.125c0.884-0.767,1.936-1.149,3.15-1.149c0.833,0,1.508,0.209,2.022,0.625
				C320.809,160.975,321.1,161.617,321.1,162.45z M319.45,162.675c0-1.05-0.525-1.575-1.575-1.575c-0.884,0-1.825,0.436-2.825,1.301
				v5.524c0.866-0.683,1.675-1.416,2.425-2.2C318.791,164.375,319.45,163.357,319.45,162.675z"/>
		</g>
		<g>
			<path d="M355.1,156.45c0,0.967-0.447,1.925-1.35,2.875c-0.434,0.45-1.417,1.267-2.95,2.45c-1.35,1.064-2.314,1.975-2.897,2.725
				v-20.575h1.147v11.125c0.884-0.767,1.936-1.149,3.15-1.149c0.833,0,1.508,0.209,2.022,0.625
				C354.809,154.975,355.1,155.617,355.1,156.45z M353.45,156.675c0-1.05-0.525-1.575-1.575-1.575c-0.884,0-1.825,0.436-2.825,1.301
				v5.524c0.866-0.683,1.675-1.416,2.425-2.2C352.791,158.375,353.45,157.357,353.45,156.675z"/>
		</g>
		<g>
			<path d="M393.1,149.45c0,0.967-0.447,1.925-1.35,2.875c-0.434,0.45-1.417,1.267-2.95,2.45c-1.35,1.064-2.314,1.975-2.897,2.725
				v-20.575h1.147v11.125c0.884-0.767,1.936-1.149,3.15-1.149c0.833,0,1.508,0.209,2.022,0.625
				C392.809,147.975,393.1,148.617,393.1,149.45z M391.45,149.675c0-1.05-0.525-1.575-1.575-1.575c-0.884,0-1.825,0.436-2.825,1.301
				v5.524c0.866-0.683,1.675-1.416,2.425-2.2C390.791,151.375,391.45,150.357,391.45,149.675z"/>
		</g>
		<g>
			<path d="M424.1,142.45c0,0.967-0.447,1.925-1.35,2.875c-0.434,0.45-1.417,1.267-2.95,2.45c-1.35,1.064-2.314,1.975-2.897,2.725
				v-20.575h1.147v11.125c0.884-0.767,1.936-1.149,3.15-1.149c0.833,0,1.508,0.209,2.022,0.625
				C423.809,140.975,424.1,141.617,424.1,142.45z M422.45,142.675c0-1.05-0.525-1.575-1.575-1.575c-0.884,0-1.825,0.436-2.825,1.301
				v5.524c0.866-0.683,1.675-1.416,2.425-2.2C421.791,144.375,422.45,143.357,422.45,142.675z"/>
		</g>
		<g>
			<path d="M458.1,137.45c0,0.967-0.447,1.925-1.35,2.875c-0.434,0.45-1.417,1.267-2.95,2.45c-1.35,1.064-2.314,1.975-2.897,2.725
				v-20.575h1.147v11.125c0.884-0.766,1.936-1.15,3.15-1.15c0.833,0,1.508,0.208,2.022,0.625
				C457.809,135.975,458.1,136.617,458.1,137.45z M456.45,137.675c0-1.05-0.525-1.575-1.575-1.575c-0.884,0-1.825,0.436-2.825,1.301
				v5.524c0.866-0.683,1.675-1.416,2.425-2.2C455.791,139.375,456.45,138.357,456.45,137.675z"/>
		</g>
	</g>
</g>
<g id="Layer_2_2_">
</g>
</svg>
