<?xml version="1.0" encoding="utf-8"?>
<!-- Generator: Adobe Illustrator 15.0.0, SVG Export Plug-In . SVG Version: 6.00 Build 0)  -->
<!DOCTYPE svg PUBLIC "-//W3C//DTD SVG 1.1//EN" "http://www.w3.org/Graphics/SVG/1.1/DTD/svg11.dtd">
<svg version="1.1" id="Layer_1" xmlns="http://www.w3.org/2000/svg" xmlns:xlink="http://www.w3.org/1999/xlink" x="0px" y="0px"
	 width="500px" height="270px" viewBox="0 0 500 270" enable-background="new 0 0 500 270" xml:space="preserve">
<g id="Layer_1_2_">
	<g id="Layer_1_1_">
	</g>
	<path d="M10.499,41.123v-1.044h462.473v1.044H10.499z M10.499,55.125v-1.153h462.473v1.153H10.499z M10.499,69.02v-1.044h462.473
		v1.044H10.499z M10.499,82.914V81.87h462.473v1.044H10.499z M10.499,96.809v-1.042h462.473v1.042H10.499z"/>
	<path fill="#F200FF" d="M35.969,95.271C24.656,89.888,22.844,82.97,22.35,75.884c-0.55-7.688,4.339-15.486,8.896-19.825
		c2.636-2.471,5.492-4.887,8.898-7.468c-0.111-1.922-0.55-2.692-0.77-5.437c-0.055-1.153-0.769-6.535,0.384-12.741
		c0.714-3.681,5.328-12.357,8.513-12.413c2.472-0.055,6.261,9.832,6.372,14.774c0.164,7.634-1.647,11.093-3.9,15.047
		c-1.153,1.978-2.361,3.351-3.625,4.889c-1.317,1.592-2.8,2.525-4.173,3.734c0,0,1.758,9.939,1.812,10.654
		c3.515-0.439,7.798,0.821,9.337,1.922c3.898,2.91,5.381,6.92,5.656,10.818c0.495,6.205-2.911,12.741-10.435,15.872
		c0,0,1.153,7.907,1.428,9.556c0.604,4.336,0.495,7.084-0.439,8.84c-1.592,2.966-4.173,5.711-9.171,6.043
		c-3.845,0.218-11.424-1.701-11.808-7.745c-0.221-3.57,1.373-7.413,5.71-7.687c2.636-0.22,5.767,1.977,5.986,5.106
		c0.22,2.692-1.537,5.493-6.095,6.756c0.714,0.989,2.855,2.146,5.931,2.146c3.185,0,6.479-2.146,8.073-4.998
		c0.989-1.867,0.878-5.219,0.495-8.293c-0.166-1.045-1.483-9.337-1.483-9.337C43.878,96.755,38.275,96.369,35.969,95.271z
		 M37.067,82.256c0.109,2.635,2.306,5.712,4.337,6.754c-0.273,0.166-0.548,0.605-0.548,0.605c-2.253-1.1-4.175-2.91-4.669-3.57
		c-1.592-2.14-2.251-3.349-2.471-6.59c-0.219-3.021,1.428-7.083,5.107-9.94c1.922-1.428,2.856-1.758,4.503-2.142l-1.647-9.94
		c-1.703,0.987-8.732,6.646-11.697,11.258c-2.636,4.12-4.229,7.415-3.9,11.479c0.659,9.172,10.709,16.696,21.583,14.115
		c0,0-3.24-19.497-3.187-19.497C38.495,75.005,36.902,79.62,37.067,82.256z M41.517,47.439c4.778-3.734,11.258-10.765,10.874-16.202
		c-0.109-1.701-0.823-4.777-3.295-4.723C43.438,26.569,40.251,38.375,41.517,47.439z M48.985,93.844
		c6.317-2.142,6.592-7.579,6.372-10.82c-0.221-2.69-1.428-8.733-9.448-8.347L48.985,93.844z"/>
	<path fill="#8F00FF" d="M182.191,82.844c4.669,0.055,7.25,3.241,5.767,7.14c-1.428,3.954-6.371,7.084-10.984,7.029
		c-4.612-0.053-7.193-3.295-5.712-7.191C172.688,85.919,177.579,82.79,182.191,82.844z"/>
	<path fill="#EC06F9" d="M213.65,74.918c6.096,0.055,11.863,2.361,12.303,7.47c0.33,3.736-4.613,7.138-10.71,7.138
		c-6.151-0.054-11.861-2.306-12.354-7.411C202.559,78.322,207.552,74.918,213.65,74.918z M215.131,88.264
		c2.637,0,4.34-2.529,4.064-4.559c-0.605-4.009-1.979-7.25-5.604-7.25c-2.637,0-4.173,2.581-3.843,4.612
		C210.355,85.078,211.509,88.264,215.131,88.264z"/>
	<path fill="#F70303" d="M251.312,68.952c4.668,0.054,7.25,3.24,5.764,7.138c-1.43,3.956-6.369,7.086-10.98,7.031
		c-4.613-0.055-7.193-3.295-5.711-7.195C241.812,72.027,246.697,68.895,251.312,68.952z"/>
	<path fill="#6C00F9" d="M422.405,34.215c4.668,0.055,7.249,3.24,5.766,7.14c-1.428,3.954-6.372,7.084-10.984,7.029
		c-4.604-0.056-7.188-3.295-5.71-7.193C412.904,37.29,417.791,34.16,422.405,34.215z"/>
	<path fill="#EC00FF" d="M456.84,26.73c4.668,0.055,7.249,3.241,5.771,7.14c-1.438,3.954-6.37,7.084-10.984,7.029
		c-4.612-0.053-7.191-3.295-5.71-7.193C447.336,29.806,452.225,26.675,456.84,26.73z"/>
	<path d="M173.771,118.059h5.085v1.022h-3.866v3.138h3.572v1.009h-3.572v4.272h-1.219V118.059L173.771,118.059z"/>
	<path d="M184.355,118.815c0.014,0.42-0.294,0.756-0.785,0.756c-0.434,0-0.742-0.336-0.742-0.756c0-0.435,0.322-0.771,0.77-0.771
		C184.061,118.045,184.355,118.381,184.355,118.815z M182.982,127.5v-6.779h1.233v6.779H182.982z"/>
	<path d="M208.988,126.016c0.546,0.336,1.345,0.616,2.185,0.616c1.247,0,1.975-0.658,1.975-1.611c0-0.882-0.504-1.387-1.779-1.877
		c-1.541-0.546-2.493-1.345-2.493-2.676c0-1.471,1.218-2.562,3.053-2.562c0.967,0,1.667,0.224,2.087,0.462l-0.336,0.994
		c-0.308-0.168-0.938-0.448-1.793-0.448c-1.289,0-1.779,0.771-1.779,1.415c0,0.883,0.574,1.316,1.877,1.821
		c1.597,0.616,2.409,1.387,2.409,2.773c0,1.456-1.079,2.731-3.306,2.731c-0.911,0-1.905-0.28-2.409-0.616L208.988,126.016z"/>
	<path d="M219.377,118.815c0.014,0.42-0.294,0.756-0.785,0.756c-0.434,0-0.742-0.336-0.742-0.756c0-0.435,0.322-0.771,0.77-0.771
		C219.083,118.045,219.377,118.381,219.377,118.815z M218.004,127.5v-6.779h1.233v6.779H218.004z"/>
	<path d="M243.177,118.059h1.219v8.419h4.034v1.022h-5.253V118.059L243.177,118.059z"/>
	<path d="M253.104,118.815c0.021,0.42-0.293,0.756-0.783,0.756c-0.436,0-0.736-0.336-0.736-0.756c0-0.435,0.314-0.771,0.771-0.771
		C252.811,118.045,253.104,118.381,253.104,118.815z M251.73,127.5v-6.779h1.229v6.779H251.73z"/>
	<path d="M414.358,107.059h5.085v1.022h-3.866v3.138h3.571v1.009h-3.571v4.272h-1.219V107.059z"/>
	<path d="M424.944,107.815c0.014,0.42-0.294,0.756-0.784,0.756c-0.438,0-0.742-0.336-0.742-0.756c0-0.435,0.321-0.771,0.77-0.771
		C424.65,107.045,424.944,107.381,424.944,107.815z M423.571,116.5v-6.779h1.229v6.779H423.571z"/>
	<path d="M451.576,115.016c0.547,0.336,1.346,0.616,2.186,0.616c1.246,0,1.979-0.658,1.979-1.611c0-0.882-0.504-1.387-1.778-1.877
		c-1.541-0.546-2.493-1.345-2.493-2.676c0-1.471,1.222-2.562,3.056-2.562c0.971,0,1.67,0.224,2.092,0.462l-0.336,0.994
		c-0.312-0.168-0.939-0.448-1.796-0.448c-1.286,0-1.776,0.771-1.776,1.415c0,0.883,0.574,1.316,1.877,1.821
		c1.597,0.616,2.409,1.387,2.409,2.773c0,1.456-1.079,2.731-3.312,2.731c-0.906,0-1.897-0.28-2.405-0.616L451.576,115.016z"/>
	<path d="M461.966,107.815c0.021,0.42-0.294,0.756-0.784,0.756c-0.435,0-0.735-0.336-0.735-0.756c0-0.435,0.314-0.771,0.77-0.771
		C461.672,107.045,461.966,107.381,461.966,107.815z M460.593,116.5v-6.779h1.233v6.779H460.593z"/>
	<path d="M108.167,250.059h5.085v1.022h-3.866v3.138h3.572v1.01h-3.572v4.271h-1.219V250.059z"/>
	<path d="M118.752,250.814c0.014,0.42-0.294,0.756-0.785,0.756c-0.434,0-0.742-0.336-0.742-0.756c0-0.438,0.322-0.771,0.77-0.771
		C118.458,250.045,118.752,250.381,118.752,250.814z M117.379,259.5v-6.779h1.233v6.779H117.379z"/>
	<path d="M140.385,258.016c0.546,0.336,1.345,0.616,2.185,0.616c1.247,0,1.975-0.657,1.975-1.61c0-0.883-0.504-1.388-1.779-1.877
		c-1.541-0.547-2.493-1.346-2.493-2.677c0-1.471,1.218-2.562,3.053-2.562c0.967,0,1.667,0.224,2.087,0.462l-0.336,0.993
		c-0.308-0.168-0.938-0.447-1.793-0.447c-1.289,0-1.779,0.771-1.779,1.415c0,0.883,0.574,1.315,1.877,1.821
		c1.597,0.615,2.409,1.387,2.409,2.771c0,1.456-1.079,2.729-3.306,2.729c-0.911,0-1.905-0.278-2.409-0.614L140.385,258.016z"/>
	<path d="M150.774,250.814c0.014,0.42-0.294,0.756-0.785,0.756c-0.434,0-0.742-0.336-0.742-0.756c0-0.438,0.322-0.771,0.77-0.771
		C150.479,250.045,150.774,250.381,150.774,250.814z M149.401,259.5v-6.779h1.233v6.779H149.401z"/>
	<path d="M174.574,250.059h1.219v8.42h4.034v1.021h-5.253V250.059L174.574,250.059z"/>
	<path d="M184.501,250.814c0.014,0.42-0.294,0.756-0.785,0.756c-0.434,0-0.742-0.336-0.742-0.756c0-0.438,0.322-0.771,0.77-0.771
		C184.207,250.045,184.501,250.381,184.501,250.814z M183.128,259.5v-6.779h1.233v6.779H183.128z"/>
	<path d="M347.518,237.059h5.085v1.022h-3.859v3.138h3.565v1.01h-3.565v4.271h-1.226V237.059L347.518,237.059z"/>
	<path d="M358.103,237.814c0.021,0.42-0.294,0.756-0.777,0.756c-0.438,0-0.742-0.336-0.742-0.756c0-0.438,0.321-0.771,0.77-0.771
		C357.809,237.045,358.103,237.381,358.103,237.814z M356.729,246.5v-6.779h1.233v6.779H356.729z"/>
	<path d="M381.734,245.016c0.547,0.336,1.346,0.616,2.186,0.616c1.246,0,1.975-0.657,1.975-1.61c0-0.883-0.504-1.388-1.771-1.877
		c-1.541-0.547-2.493-1.346-2.493-2.677c0-1.471,1.219-2.562,3.053-2.562c0.972,0,1.668,0.224,2.091,0.462l-0.339,0.993
		c-0.309-0.168-0.938-0.447-1.793-0.447c-1.289,0-1.772,0.771-1.772,1.415c0,0.883,0.57,1.315,1.877,1.821
		c1.597,0.615,2.407,1.387,2.407,2.771c0,1.456-1.077,2.729-3.311,2.729c-0.91,0-1.899-0.278-2.409-0.614L381.734,245.016z"/>
	<path d="M392.124,237.814c0.014,0.42-0.294,0.756-0.784,0.756c-0.435,0-0.742-0.336-0.742-0.756c0-0.438,0.321-0.771,0.771-0.771
		C391.83,237.045,392.124,237.381,392.124,237.814z M390.751,246.5v-6.779h1.233v6.779H390.751z"/>
	<path d="M415.924,237.059h1.219v8.42h4.035v1.021h-5.254V237.059z"/>
	<path d="M425.852,237.814c0.021,0.42-0.295,0.756-0.778,0.756c-0.438,0-0.742-0.336-0.742-0.756c0-0.438,0.321-0.771,0.77-0.771
		C425.557,237.045,425.852,237.381,425.852,237.814z M424.479,246.5v-6.779h1.232v6.779H424.479z"/>
	<path d="M10.499,168.125v-1.044h462.473v1.044H10.499z M10.499,182.125v-1.152h462.473v1.152H10.499z M10.499,196.02v-1.043
		h462.473v1.043H10.499z M10.499,209.914v-1.044h462.473v1.044H10.499z M10.499,223.809v-1.043h462.473v1.043H10.499z"/>
	<path fill="#5406FF" d="M114.4,223.738c4.669,0.055,7.25,3.242,5.767,7.14c-1.428,3.955-6.371,7.086-10.984,7.028
		c-4.612-0.053-7.193-3.295-5.712-7.191C104.899,226.814,109.788,223.686,114.4,223.738z"/>
	<path fill="#8800FF" d="M148.126,216.791c4.667,0.057,7.249,3.238,5.765,7.141c-1.426,3.953-6.37,7.084-10.982,7.029
		c-4.614-0.055-7.195-3.295-5.712-7.193C138.625,219.866,143.512,216.734,148.126,216.791z"/>
	<path fill="#F70606" d="M182.191,209.844c4.669,0.057,7.25,3.241,5.767,7.141c-1.428,3.953-6.371,7.084-10.984,7.029
		c-4.612-0.055-7.193-3.295-5.712-7.188C172.688,212.919,177.579,209.79,182.191,209.844z"/>
	<path fill="#F803FF" d="M388.242,168.162c4.667,0.057,7.248,3.238,5.764,7.141c-1.428,3.953-6.37,7.084-10.979,7.03
		c-4.614-0.056-7.192-3.297-5.711-7.192C378.739,171.236,383.628,168.105,388.242,168.162z"/>
	<path fill="#FF0000" d="M422.244,161.215c4.666,0.057,7.249,3.241,5.766,7.141c-1.428,3.953-6.372,7.084-10.979,7.029
		c-4.612-0.055-7.191-3.296-5.712-7.191C412.74,164.291,417.629,161.16,422.244,161.215z"/>
	<path fill="#6200FC" d="M350.519,174.889c6.104,0.055,11.863,2.36,12.312,7.469c0.33,3.736-4.612,7.146-10.709,7.146
		c-6.151-0.061-11.859-2.312-12.355-7.411C339.426,178.292,344.42,174.889,350.519,174.889z M351.999,188.232
		c2.638,0,4.341-2.527,4.065-4.562c-0.606-4.009-1.979-7.25-5.604-7.25c-2.636,0-4.173,2.581-3.841,4.612
		C347.224,185.048,348.377,188.232,351.999,188.232z"/>
	<path id="path2070" fill="#9606F4" d="M15.559,212.018c3.803-2.562,6.646-4.514,8.472-5.854c1.831-1.321,3.758-2.979,5.732-4.946
		c1.973-1.966,3.634-4.196,4.981-6.672c1.059-1.821,1.974-3.938,2.72-6.337c0.748-2.377,1.133-4.684,1.205-6.863
		c0-2.039-0.265-3.979-0.818-5.811c-0.531-1.85-1.445-3.36-2.745-4.584c-1.299-1.2-2.983-1.801-5.078-1.801
		c-2.021,0-3.924,0.406-5.704,1.197c-1.758,0.812-3.012,2.104-3.707,3.938c0,0.17-0.098,0.384-0.243,0.693
		c0.048,0.388,0.243,0.672,0.604,0.893c0.36,0.216,0.672,0.312,0.962,0.312c0.144,0,0.553-0.072,1.18-0.227
		c0.65-0.146,1.18-0.23,1.612-0.23c1.277,0,2.409,0.457,3.442,1.347c1.013,0.888,1.519,1.966,1.519,3.239
		c0,0.912-0.265,1.771-0.771,2.562c-0.504,0.793-1.203,1.438-2.093,1.896c-0.893,0.479-1.88,0.696-2.936,0.696
		c-1.928,0-3.563-0.577-4.913-1.754c-1.324-1.198-1.998-2.713-1.998-4.608c0-2.426,0.746-4.516,2.214-6.287
		c1.493-1.771,3.37-3.096,5.682-3.979c2.288-0.913,4.599-1.346,6.958-1.346c2.574,0,5.031,0.646,7.317,1.968
		c2.312,1.295,4.118,3.101,5.464,5.327c1.349,2.255,2.048,4.652,2.048,7.249c0,4.606-1.542,8.881-4.622,12.842
		c-3.083,3.962-6.885,7.396-11.436,10.319c-3.032,1.99-7.942,4.683-14.707,8.062L15.559,212.018z M48.997,174.887
		c0-0.865,0.312-1.586,0.938-2.162c0.602-0.599,1.349-0.887,2.237-0.887c0.771,0,1.494,0.333,2.144,0.98
		c0.649,0.625,0.962,1.369,0.962,2.187c0,0.863-0.335,1.604-0.962,2.208c-0.673,0.574-1.421,0.862-2.264,0.862
		c-0.89,0-1.612-0.288-2.189-0.935C49.287,176.518,48.997,175.773,48.997,174.887z M48.997,187.463c0-0.865,0.312-1.609,0.89-2.184
		c0.6-0.604,1.348-0.889,2.286-0.889c0.771,0,1.47,0.312,2.144,0.959c0.627,0.646,0.962,1.346,0.962,2.104
		c0,0.938-0.313,1.688-0.914,2.275c-0.627,0.604-1.349,0.906-2.192,0.906c-0.938,0-1.686-0.312-2.286-0.891
		C49.308,189.189,48.997,188.423,48.997,187.463z"/>
	<path d="M172.708,79.938l-1.674,0.729v4.995l-0.999,0.378v-5.049l-1.836,0.702v5.103l-0.999,0.405V81.99l-1.701,0.594v-3.348
		l1.701-0.648v-4.725l-1.701,0.621v-3.375l1.701-0.621v-5.347l0.999-0.351v5.346l1.836-0.646v-5.481l0.999-0.324v5.454l1.674-0.594
		v3.294l-1.674,0.675v4.726l1.674-0.595V79.938z M170.116,77.589v-4.752l-2.025,0.702v4.752L170.116,77.589z"/>
	<path d="M206.708,69.938l-1.674,0.729v4.995l-0.999,0.378v-5.049l-1.836,0.702v5.103l-0.999,0.405V71.99l-1.701,0.594v-3.348
		l1.701-0.648v-4.725l-1.701,0.621v-3.375l1.701-0.621v-5.347l0.999-0.351v5.346l1.836-0.646v-5.481l0.999-0.324v5.454l1.674-0.594
		v3.294l-1.674,0.675v4.726l1.674-0.595V69.938z M204.116,67.589v-4.752l-2.025,0.702v4.752L204.116,67.589z"/>
	<path d="M243.708,61.938l-1.674,0.729v4.995l-0.999,0.378v-5.049l-1.836,0.702v5.103l-0.999,0.405V63.99l-1.701,0.594v-3.348
		l1.701-0.648v-4.725l-1.701,0.621v-3.375l1.701-0.621v-5.347l0.999-0.351v5.346l1.836-0.646v-5.481l0.999-0.324v5.454l1.674-0.594
		v3.294l-1.674,0.675v4.726l1.674-0.595V61.938z M241.116,59.589v-4.752l-2.025,0.702v4.752L241.116,59.589z"/>
	<path d="M415.708,28.938l-1.674,0.729v4.995l-0.999,0.378v-5.049l-1.836,0.702v5.103l-0.999,0.405V30.99l-1.701,0.594v-3.348
		l1.701-0.648v-4.725l-1.701,0.621v-3.375l1.701-0.621v-5.346l0.999-0.351v5.346l1.836-0.647v-5.482l0.999-0.324v5.454l1.674-0.594
		v3.294l-1.674,0.675v4.726l1.674-0.595V28.938z M413.116,26.589v-4.752l-2.025,0.702v4.752L413.116,26.589z"/>
	<path d="M450.708,20.938l-1.674,0.729v4.995l-0.999,0.378v-5.049l-1.836,0.702v5.103l-0.999,0.405V22.99l-1.701,0.594v-3.348
		l1.701-0.648v-4.725l-1.701,0.621v-3.375l1.701-0.621V6.141l0.999-0.351v5.346l1.836-0.646V5.009l0.999-0.324v5.454l1.674-0.594
		v3.294l-1.674,0.675v4.726l1.674-0.595V20.938z M448.116,18.589v-4.752l-2.025,0.702v4.752L448.116,18.589z"/>
	<path d="M109.708,214.938l-1.674,0.729v4.995l-0.999,0.378v-5.049l-1.836,0.702v5.103l-0.999,0.405v-5.211l-1.701,0.594v-3.348
		l1.701-0.648v-4.725l-1.701,0.621v-3.375l1.701-0.621v-5.348l0.999-0.354v5.346l1.836-0.646v-5.479l0.999-0.323v5.455l1.674-0.596
		v3.294l-1.674,0.677v4.726l1.674-0.595V214.938z M107.116,212.589v-4.752l-2.025,0.702v4.752L107.116,212.589z"/>
	<path d="M144.708,207.938l-1.674,0.729v4.995l-0.999,0.378v-5.049l-1.836,0.702v5.103l-0.999,0.405v-5.211l-1.701,0.594v-3.348
		l1.701-0.648v-4.725l-1.701,0.621v-3.375l1.701-0.621v-5.348l0.999-0.354v5.346l1.836-0.646v-5.479l0.999-0.323v5.455l1.674-0.596
		v3.294l-1.674,0.677v4.726l1.674-0.595V207.938z M142.116,205.589v-4.752l-2.025,0.702v4.752L142.116,205.589z"/>
	<path d="M176.708,201.938l-1.674,0.729v4.995l-0.999,0.378v-5.049l-1.836,0.702v5.103l-0.999,0.405v-5.211l-1.701,0.594v-3.348
		l1.701-0.648v-4.725l-1.701,0.621v-3.375l1.701-0.621v-5.348l0.999-0.354v5.346l1.836-0.646v-5.479l0.999-0.323v5.455l1.674-0.596
		v3.294l-1.674,0.677v4.726l1.674-0.595V201.938z M174.116,199.589v-4.752l-2.025,0.702v4.752L174.116,199.589z"/>
	<path d="M346.708,167.938l-1.674,0.729v4.995l-0.999,0.378v-5.049l-1.836,0.702v5.103l-0.999,0.405v-5.211l-1.701,0.594v-3.348
		l1.701-0.648v-4.725l-1.701,0.621v-3.375l1.701-0.621v-5.348l0.999-0.354v5.346l1.836-0.646v-5.479l0.999-0.323v5.455l1.674-0.596
		v3.294l-1.674,0.677v4.726l1.674-0.595V167.938z M344.116,165.589v-4.752l-2.025,0.702v4.752L344.116,165.589z"/>
	<path d="M382.708,160.938l-1.674,0.729v4.995l-0.999,0.378v-5.049l-1.836,0.702v5.103l-0.999,0.405v-5.211l-1.701,0.594v-3.348
		l1.701-0.648v-4.725l-1.701,0.621v-3.375l1.701-0.621v-5.348l0.999-0.354v5.346l1.836-0.646v-5.479l0.999-0.323v5.455l1.674-0.596
		v3.294l-1.674,0.677v4.726l1.674-0.595V160.938z M380.116,158.589v-4.752l-2.025,0.702v4.752L380.116,158.589z"/>
	<path d="M415.708,154.938l-1.674,0.729v4.995l-0.999,0.378v-5.049l-1.836,0.702v5.103l-0.999,0.405v-5.211l-1.701,0.594v-3.348
		l1.701-0.648v-4.725l-1.701,0.621v-3.375l1.701-0.621v-5.348l0.999-0.354v5.346l1.836-0.646v-5.479l0.999-0.323v5.457l1.674-0.598
		v3.294l-1.674,0.679v4.727l1.674-0.596V154.938z M413.116,152.589v-4.752l-2.025,0.702v4.752L413.116,152.589z"/>
	<line fill="none" stroke="#000000" x1="60.794" y1="113.312" x2="93.115" y2="113.312"/>
	<path fill="#00FF18" d="M328.4,45.738c4.668,0.055,7.25,3.242,5.767,7.14c-1.429,3.955-6.371,7.086-10.983,7.029
		c-4.612-0.052-7.192-3.296-5.713-7.191C318.898,48.814,323.788,45.686,328.4,45.738z"/>
	<path fill="#0C00FF" d="M362.126,38.791c4.667,0.057,7.249,3.24,5.765,7.141c-1.426,3.953-6.368,7.084-10.98,7.03
		c-4.614-0.055-7.195-3.295-5.712-7.192C352.625,41.867,357.512,38.736,362.126,38.791z"/>
	<path fill="#F7E608" d="M293.411,55.27c4.667,0.055,7.249,3.24,5.766,7.139c-1.428,3.957-6.37,7.088-10.983,7.029
		c-4.613-0.054-7.191-3.295-5.711-7.191C283.908,58.348,288.797,55.214,293.411,55.27z"/>
	<path fill="#00FF18" d="M259.4,186.738c4.668,0.055,7.25,3.242,5.767,7.14c-1.429,3.955-6.371,7.086-10.983,7.029
		c-4.613-0.052-7.192-3.296-5.711-7.191C249.899,189.814,254.788,186.686,259.4,186.738z"/>
	<path fill="#0C00FF" d="M293.126,179.791c4.667,0.057,7.249,3.24,5.765,7.141c-1.426,3.953-6.369,7.084-10.98,7.03
		c-4.614-0.055-7.195-3.295-5.712-7.192C283.625,182.867,288.512,179.736,293.126,179.791z"/>
	<path fill="#F7E608" d="M224.411,196.27c4.667,0.056,7.249,3.24,5.766,7.14c-1.428,3.957-6.371,7.088-10.984,7.028
		c-4.614-0.054-7.192-3.295-5.71-7.19C214.908,199.348,219.797,196.214,224.411,196.27z"/>
</g>
<g id="Layer_2">
	<path fill="#00FF18" d="M113.4,95.738c4.668,0.055,7.25,3.242,5.767,7.14c-1.429,3.955-6.371,7.086-10.984,7.029
		c-4.612-0.052-7.193-3.296-5.712-7.191C103.899,98.814,108.788,95.686,113.4,95.738z"/>
	<path fill="#0C00FF" d="M147.126,88.791c4.667,0.057,7.249,3.24,5.765,7.141c-1.426,3.953-6.369,7.084-10.981,7.03
		c-4.614-0.055-7.195-3.295-5.712-7.192C137.625,91.867,142.512,88.736,147.126,88.791z"/>
	<path fill="#F7E608" d="M78.411,105.27c4.667,0.055,7.249,3.24,5.766,7.139c-1.428,3.957-6.371,7.088-10.984,7.029
		c-4.614-0.054-7.192-3.295-5.71-7.191C68.908,108.348,73.797,105.214,78.411,105.27z"/>
	<path d="M69.606,136.562c0.743-0.112,1.625-0.196,2.591-0.196c1.751,0,2.998,0.405,3.824,1.177c0.84,0.771,1.331,1.863,1.331,3.391
		c0,1.541-0.476,2.801-1.358,3.67c-0.883,0.883-2.339,1.358-4.174,1.358c-0.869,0-1.597-0.042-2.213-0.112L69.606,136.562
		L69.606,136.562z M70.825,144.91c0.308,0.056,0.756,0.068,1.233,0.068c2.605,0,4.02-1.457,4.02-4.006
		c0.014-2.227-1.247-3.642-3.824-3.642c-0.63,0-1.106,0.056-1.429,0.126V144.91z"/>
	<path d="M87.879,142.432c0,2.506-1.737,3.6-3.375,3.6c-1.835,0-3.25-1.346-3.25-3.488c0-2.27,1.485-3.6,3.362-3.6
		C86.563,138.941,87.879,140.355,87.879,142.432z M82.5,142.5c0,1.484,0.854,2.604,2.059,2.604c1.177,0,2.059-1.104,2.059-2.633
		c0-1.146-0.574-2.604-2.031-2.604C83.131,139.867,82.5,141.211,82.5,142.5z"/>
	<path d="M103.808,136.562c0.617-0.127,1.499-0.196,2.339-0.196c1.303,0,2.143,0.237,2.731,0.771
		c0.477,0.42,0.743,1.064,0.743,1.793c0,1.247-0.785,2.073-1.779,2.409v0.042c0.729,0.252,1.163,0.926,1.387,1.905
		c0.308,1.315,0.532,2.228,0.729,2.591h-1.261c-0.154-0.279-0.364-1.079-0.63-2.255c-0.28-1.304-0.784-1.793-1.891-1.835h-1.148
		v4.09h-1.219L103.808,136.562L103.808,136.562z M105.027,140.859h1.247c1.303,0,2.129-0.713,2.129-1.793
		c0-1.219-0.883-1.75-2.171-1.765c-0.588,0-1.008,0.056-1.205,0.112V140.859z"/>
	<path d="M114.84,142.71c0.028,1.667,1.093,2.354,2.325,2.354c0.882,0,1.415-0.154,1.877-0.352l0.21,0.883
		c-0.434,0.195-1.176,0.436-2.255,0.436c-2.087,0-3.334-1.387-3.334-3.432c0-2.047,1.205-3.656,3.18-3.656
		c2.213,0,2.801,1.947,2.801,3.191c0,0.252-0.027,0.448-0.041,0.575H114.84z M118.454,141.828c0.015-0.784-0.322-2.003-1.709-2.003
		c-1.247,0-1.793,1.147-1.891,2.003H118.454z"/>
	<path d="M143.501,141.729c-0.069-1.314-0.153-2.897-0.14-4.076h-0.043c-0.321,1.107-0.713,2.299-1.19,3.588l-1.667,4.58h-0.925
		l-1.527-4.495c-0.448-1.331-0.825-2.552-1.092-3.67h-0.028c-0.027,1.177-0.098,2.76-0.182,4.174l-0.252,4.048h-1.163l0.658-9.439
		h1.555l1.611,4.564c0.392,1.163,0.714,2.199,0.952,3.182h0.041c0.238-0.953,0.576-1.99,0.996-3.182l1.681-4.564h1.555l0.589,9.439
		h-1.191L143.501,141.729z"/>
	<path d="M151.1,137.189c0.015,0.42-0.293,0.756-0.785,0.756c-0.434,0-0.741-0.336-0.741-0.756c0-0.435,0.321-0.771,0.771-0.771
		C150.805,136.421,151.1,136.757,151.1,137.189z M149.727,145.876v-6.78h1.233v6.78H149.727z"/>
	<path d="M286.079,114.201c0.743-0.112,1.625-0.196,2.591-0.196c1.752,0,2.998,0.405,3.824,1.177
		c0.84,0.771,1.331,1.863,1.331,3.391c0,1.541-0.476,2.801-1.358,3.67c-0.883,0.883-2.338,1.358-4.174,1.358
		c-0.869,0-1.598-0.042-2.213-0.112L286.079,114.201L286.079,114.201z M287.299,122.55c0.307,0.056,0.756,0.069,1.232,0.069
		c2.605,0,4.02-1.457,4.02-4.006c0.014-2.228-1.246-3.642-3.824-3.642c-0.629,0-1.104,0.056-1.428,0.126V122.55L287.299,122.55z"/>
	<path d="M304.352,120.07c0,2.506-1.735,3.6-3.375,3.6c-1.834,0-3.25-1.346-3.25-3.488c0-2.27,1.486-3.6,3.363-3.6
		C303.036,116.582,304.352,117.996,304.352,120.07z M298.973,120.14c0,1.485,0.854,2.604,2.061,2.604c1.177,0,2.06-1.105,2.06-2.633
		c0-1.147-0.573-2.604-2.03-2.604S298.973,118.851,298.973,120.14z"/>
	<path d="M320.281,114.201c0.617-0.127,1.499-0.196,2.339-0.196c1.304,0,2.144,0.237,2.73,0.771c0.478,0.42,0.742,1.064,0.742,1.793
		c0,1.247-0.785,2.073-1.778,2.409v0.042c0.729,0.252,1.163,0.926,1.388,1.905c0.308,1.315,0.532,2.227,0.729,2.591h-1.262
		c-0.154-0.28-0.363-1.079-0.63-2.255c-0.28-1.304-0.784-1.793-1.892-1.835H321.5v4.09h-1.219V114.201L320.281,114.201z
		 M321.5,118.5h1.247c1.304,0,2.129-0.713,2.129-1.793c0-1.219-0.883-1.75-2.171-1.765c-0.588,0-1.008,0.056-1.205,0.112V118.5
		L321.5,118.5z"/>
	<path d="M331.312,120.35c0.028,1.667,1.094,2.354,2.325,2.354c0.881,0,1.414-0.154,1.877-0.351l0.209,0.882
		c-0.434,0.196-1.176,0.436-2.254,0.436c-2.088,0-3.334-1.387-3.334-3.432c0-2.046,1.205-3.656,3.181-3.656
		c2.213,0,2.801,1.947,2.801,3.192c0,0.252-0.027,0.448-0.041,0.575H331.312z M334.928,119.468c0.015-0.784-0.321-2.003-1.709-2.003
		c-1.248,0-1.793,1.148-1.892,2.003H334.928z"/>
	<path d="M359.975,119.369c-0.069-1.315-0.153-2.898-0.141-4.076h-0.043c-0.32,1.107-0.713,2.298-1.189,3.587l-1.668,4.581h-0.924
		l-1.526-4.496c-0.449-1.331-0.826-2.551-1.093-3.67h-0.028c-0.027,1.177-0.099,2.76-0.183,4.174l-0.252,4.048h-1.162l0.658-9.44
		h1.555l1.611,4.565c0.391,1.163,0.713,2.199,0.951,3.181h0.041c0.238-0.953,0.576-1.99,0.996-3.181l1.682-4.565h1.555l0.589,9.44
		h-1.191L359.975,119.369z"/>
	<path d="M367.572,114.83c0.016,0.42-0.293,0.756-0.785,0.756c-0.435,0-0.74-0.336-0.74-0.756c0-0.435,0.32-0.771,0.771-0.771
		C367.277,114.061,367.572,114.396,367.572,114.83z M366.199,123.516v-6.78h1.233v6.78H366.199z"/>
	<path d="M217.997,242.879c0.743-0.111,1.625-0.195,2.591-0.195c1.751,0,2.998,0.404,3.824,1.176
		c0.84,0.771,1.331,1.863,1.331,3.392c0,1.541-0.476,2.801-1.358,3.67c-0.883,0.884-2.339,1.358-4.174,1.358
		c-0.869,0-1.597-0.043-2.213-0.112L217.997,242.879L217.997,242.879z M219.216,251.229c0.308,0.056,0.756,0.068,1.233,0.068
		c2.605,0,4.02-1.457,4.02-4.006c0.014-2.227-1.247-3.643-3.824-3.643c-0.63,0-1.106,0.057-1.429,0.127V251.229z"/>
	<path d="M236.27,248.748c0,2.506-1.737,3.6-3.375,3.6c-1.835,0-3.25-1.346-3.25-3.488c0-2.27,1.485-3.6,3.362-3.6
		C234.954,245.26,236.27,246.674,236.27,248.748z M230.891,248.816c0,1.485,0.854,2.604,2.059,2.604
		c1.177,0,2.059-1.104,2.059-2.633c0-1.147-0.574-2.604-2.031-2.604C231.521,246.186,230.891,247.527,230.891,248.816z"/>
	<path d="M252.199,242.879c0.615-0.127,1.498-0.195,2.338-0.195c1.304,0,2.145,0.236,2.73,0.771c0.479,0.42,0.744,1.063,0.744,1.793
		c0,1.247-0.785,2.073-1.779,2.409v0.042c0.729,0.252,1.162,0.926,1.387,1.905c0.309,1.314,0.533,2.227,0.729,2.59h-1.261
		c-0.153-0.279-0.364-1.078-0.631-2.254c-0.278-1.305-0.783-1.793-1.892-1.836h-1.147v4.09h-1.219L252.199,242.879L252.199,242.879z
		 M253.418,247.178h1.246c1.304,0,2.129-0.713,2.129-1.793c0-1.219-0.883-1.75-2.17-1.765c-0.588,0-1.008,0.056-1.205,0.112V247.178
		z"/>
	<path d="M263.23,249.027c0.027,1.666,1.094,2.354,2.324,2.354c0.883,0,1.416-0.154,1.877-0.351l0.211,0.882
		c-0.435,0.195-1.177,0.436-2.256,0.436c-2.087,0-3.334-1.387-3.334-3.432c0-2.046,1.205-3.656,3.182-3.656
		c2.213,0,2.801,1.947,2.801,3.192c0,0.252-0.027,0.448-0.041,0.575H263.23z M266.846,248.146c0.014-0.785-0.322-2.004-1.71-2.004
		c-1.247,0-1.793,1.148-1.892,2.004H266.846z"/>
	<path d="M291.893,248.047c-0.069-1.314-0.154-2.898-0.141-4.076h-0.043c-0.32,1.107-0.713,2.299-1.189,3.588l-1.668,4.58h-0.925
		l-1.526-4.496c-0.448-1.33-0.825-2.551-1.092-3.67h-0.029c-0.026,1.178-0.098,2.76-0.182,4.174l-0.252,4.049h-1.162l0.657-9.44
		h1.556l1.61,4.565c0.392,1.162,0.714,2.199,0.952,3.181h0.041c0.238-0.953,0.576-1.99,0.996-3.181l1.681-4.565h1.556l0.588,9.44
		h-1.19L291.893,248.047z"/>
	<path d="M299.49,243.508c0.015,0.42-0.293,0.756-0.785,0.756c-0.434,0-0.741-0.336-0.741-0.756c0-0.435,0.321-0.771,0.771-0.771
		C299.195,242.738,299.49,243.074,299.49,243.508z M298.117,252.193v-6.78h1.232v6.78H298.117z"/>
</g>
</svg>
