<?xml version="1.0" encoding="utf-8"?>
<!-- Generator: Adobe Illustrator 13.0.2, SVG Export Plug-In . SVG Version: 6.00 Build 14948)  -->
<!DOCTYPE svg PUBLIC "-//W3C//DTD SVG 1.0//EN" "http://www.w3.org/TR/2001/REC-SVG-20010904/DTD/svg10.dtd">
<svg version="1.0" xmlns="http://www.w3.org/2000/svg" xmlns:xlink="http://www.w3.org/1999/xlink" x="0px" y="0px" width="500px"
	 height="270px" viewBox="-1 -11 500 270" enable-background="new -1 -11 500 270" xml:space="preserve">
<g id="Layer_1">
	<g id="Layer_1_2_">
		<g id="Layer_1_1_">
		</g>
		<g id="Layer_2">
			<g id="Layer_2_1_">
				<g>
					<path d="M18.499,33.123v-1.044h462.473v1.044H18.499z M18.499,47.125v-1.153h462.473v1.153H18.499z M18.499,61.02v-1.044
						h462.473v1.044H18.499z M18.499,74.914V73.87h462.473v1.044H18.499z M18.499,88.809v-1.042h462.473v1.042H18.499z"/>
					<path fill="#F200FF" d="M43.969,87.271C32.656,81.888,30.844,74.97,30.35,67.884c-0.55-7.688,4.339-15.486,8.896-19.825
						c2.636-2.471,5.492-4.887,8.898-7.468c-0.111-1.922-0.55-2.692-0.77-5.437c-0.055-1.153-0.769-6.535,0.384-12.741
						c0.714-3.681,5.328-12.357,8.513-12.413c2.472-0.055,6.261,9.832,6.372,14.774c0.164,7.634-1.647,11.093-3.9,15.047
						c-1.153,1.978-2.361,3.351-3.625,4.889c-1.317,1.592-2.8,2.525-4.173,3.734c0,0,1.758,9.939,1.812,10.654
						c3.515-0.439,7.798,0.821,9.337,1.922c3.898,2.91,5.381,6.92,5.656,10.818c0.495,6.205-2.911,12.741-10.435,15.872
						c0,0,1.153,7.907,1.428,9.556c0.604,4.336,0.495,7.084-0.439,8.84c-1.592,2.966-4.173,5.711-9.171,6.043
						c-3.845,0.218-11.424-1.701-11.808-7.745c-0.221-3.57,1.373-7.413,5.71-7.687c2.636-0.22,5.767,1.977,5.986,5.106
						c0.22,2.692-1.537,5.493-6.095,6.756c0.714,0.989,2.855,2.146,5.931,2.146c3.185,0,6.479-2.146,8.073-4.998
						c0.989-1.867,0.878-5.219,0.495-8.293c-0.166-1.045-1.483-9.337-1.483-9.337C51.878,88.755,46.275,88.369,43.969,87.271z
						 M45.067,74.256c0.109,2.635,2.306,5.712,4.337,6.754c-0.273,0.166-0.548,0.605-0.548,0.605c-2.253-1.1-4.175-2.91-4.669-3.57
						c-1.592-2.14-2.251-3.349-2.471-6.59c-0.219-3.021,1.428-7.083,5.107-9.94c1.922-1.428,2.856-1.758,4.503-2.142l-1.647-9.94
						c-1.703,0.987-8.732,6.646-11.697,11.258c-2.636,4.12-4.229,7.415-3.9,11.479c0.659,9.172,10.709,16.696,21.583,14.115
						c0,0-3.24-19.497-3.187-19.497C46.495,67.005,44.902,71.62,45.067,74.256z M49.517,39.439
						c4.778-3.734,11.258-10.765,10.874-16.202c-0.109-1.701-0.823-4.777-3.295-4.723C51.438,18.569,48.251,30.375,49.517,39.439z
						 M56.985,85.844c6.317-2.142,6.592-7.579,6.372-10.82c-0.221-2.69-1.428-8.733-9.448-8.347L56.985,85.844z"/>
					<path fill="#00FF18" d="M122.4,88.738c4.669,0.055,7.25,3.243,5.767,7.14c-1.428,3.955-6.371,7.086-10.984,7.029
						c-4.612-0.052-7.193-3.295-5.712-7.191C112.899,91.815,117.788,88.686,122.4,88.738z"/>
					<path fill="#8F00FF" d="M190.191,74.844c4.669,0.055,7.25,3.241,5.767,7.14c-1.428,3.954-6.371,7.084-10.984,7.029
						c-4.612-0.053-7.193-3.295-5.712-7.191C180.688,77.919,185.579,74.79,190.191,74.844z"/>
					<path fill="#EC06F9" d="M221.65,66.918c6.096,0.055,11.863,2.361,12.303,7.47c0.33,3.736-4.613,7.138-10.71,7.138
						c-6.151-0.054-11.861-2.306-12.354-7.411C210.559,70.322,215.552,66.918,221.65,66.918z M223.131,80.264
						c2.637,0,4.34-2.529,4.064-4.559c-0.605-4.009-1.979-7.25-5.604-7.25c-2.637,0-4.173,2.581-3.843,4.612
						C218.355,77.078,219.509,80.264,223.131,80.264z"/>
					<path fill="#F70303" d="M259.312,60.952c4.668,0.054,7.25,3.24,5.764,7.138c-1.43,3.956-6.369,7.086-10.98,7.031
						c-4.613-0.055-7.193-3.295-5.711-7.195C249.812,64.027,254.697,60.895,259.312,60.952z"/>
					<path fill="#F7F006" d="M327.625,46.497c4.67,0.053,7.252,3.24,5.766,7.138c-1.428,3.956-6.358,7.084-10.979,7.031
						c-4.612-0.055-7.188-3.295-5.708-7.195C318.121,49.572,323.013,46.441,327.625,46.497z"/>
					<path fill="#00FF00" d="M362.62,40.107c4.666,0.056,7.247,3.242,5.762,7.14c-1.426,3.954-6.372,7.084-10.979,7.029
						c-4.614-0.054-7.193-3.295-5.712-7.193C353.117,43.183,358.004,40.052,362.62,40.107z"/>
					<path fill="#6C00F9" d="M430.405,26.215c4.668,0.055,7.249,3.24,5.766,7.14c-1.428,3.954-6.372,7.084-10.984,7.029
						c-4.604-0.056-7.188-3.295-5.71-7.193C420.904,29.29,425.791,26.16,430.405,26.215z"/>
					<path fill="#EC00FF" d="M464.84,18.73c4.668,0.055,7.249,3.241,5.771,7.14c-1.438,3.954-6.37,7.084-10.984,7.029
						c-4.612-0.053-7.191-3.295-5.71-7.193C455.336,21.806,460.225,18.675,464.84,18.73z"/>
					<path fill="#F7E608" d="M87.411,98.27c4.667,0.054,7.249,3.24,5.766,7.138c-1.428,3.957-6.371,7.088-10.984,7.03
						c-4.614-0.054-7.192-3.295-5.71-7.192C77.908,101.348,82.797,98.214,87.411,98.27z"/>
					<line fill="none" stroke="#000000" x1="68.794" y1="105.312" x2="101.115" y2="105.312"/>
					<path d="M80.564,119.185c0.743-0.111,1.625-0.195,2.591-0.195c1.751,0,2.998,0.406,3.824,1.176
						c0.84,0.771,1.331,1.863,1.331,3.391c0,1.54-0.476,2.801-1.358,3.67c-0.883,0.882-2.339,1.358-4.174,1.358
						c-0.869,0-1.597-0.042-2.213-0.112L80.564,119.185L80.564,119.185z M81.783,127.533c0.308,0.057,0.756,0.07,1.233,0.07
						c2.605,0,4.02-1.458,4.02-4.006c0.014-2.228-1.247-3.643-3.824-3.643c-0.63,0-1.106,0.057-1.429,0.126V127.533z"/>
					<path d="M93.208,119.815c0.014,0.42-0.294,0.756-0.785,0.756c-0.434,0-0.742-0.336-0.742-0.756c0-0.435,0.322-0.771,0.77-0.771
						C92.913,119.045,93.208,119.381,93.208,119.815z M91.834,128.5v-6.779h1.233v6.779H91.834z"/>
					<path d="M114.067,119.185c0.616-0.126,1.499-0.195,2.339-0.195c1.303,0,2.143,0.237,2.731,0.771
						c0.476,0.42,0.743,1.064,0.743,1.793c0,1.246-0.785,2.072-1.779,2.409v0.042c0.729,0.252,1.163,0.924,1.387,1.904
						c0.308,1.317,0.532,2.228,0.729,2.592h-1.261c-0.154-0.28-0.364-1.078-0.63-2.255c-0.28-1.303-0.784-1.793-1.891-1.835h-1.148
						v4.09h-1.219L114.067,119.185L114.067,119.185z M115.286,123.485h1.247c1.303,0,2.129-0.715,2.129-1.793
						c0-1.219-0.883-1.751-2.171-1.765c-0.588,0-1.008,0.056-1.205,0.111V123.485z"/>
					<path d="M125.871,119.815c0.014,0.42-0.294,0.756-0.785,0.756c-0.434,0-0.742-0.336-0.742-0.756
						c0-0.435,0.322-0.771,0.77-0.771C125.576,119.045,125.871,119.381,125.871,119.815z M124.498,128.5v-6.779h1.233v6.779H124.498
						z"/>
					<path d="M181.771,110.059h5.085v1.022h-3.866v3.138h3.572v1.009h-3.572v4.272h-1.219V110.059L181.771,110.059z"/>
					<path d="M192.355,110.815c0.014,0.42-0.294,0.756-0.785,0.756c-0.434,0-0.742-0.336-0.742-0.756
						c0-0.435,0.322-0.771,0.77-0.771C192.061,110.045,192.355,110.381,192.355,110.815z M190.982,119.5v-6.779h1.233v6.779H190.982
						z"/>
					<path d="M216.988,118.016c0.546,0.336,1.345,0.616,2.185,0.616c1.247,0,1.975-0.658,1.975-1.611
						c0-0.882-0.504-1.387-1.779-1.877c-1.541-0.546-2.493-1.345-2.493-2.676c0-1.471,1.218-2.562,3.053-2.562
						c0.967,0,1.667,0.224,2.087,0.462l-0.336,0.994c-0.308-0.168-0.938-0.448-1.793-0.448c-1.289,0-1.779,0.771-1.779,1.415
						c0,0.883,0.574,1.316,1.877,1.821c1.597,0.616,2.409,1.387,2.409,2.773c0,1.456-1.079,2.731-3.306,2.731
						c-0.911,0-1.905-0.28-2.409-0.616L216.988,118.016z"/>
					<path d="M227.377,110.815c0.014,0.42-0.294,0.756-0.785,0.756c-0.434,0-0.742-0.336-0.742-0.756
						c0-0.435,0.322-0.771,0.77-0.771C227.083,110.045,227.377,110.381,227.377,110.815z M226.004,119.5v-6.779h1.233v6.779H226.004
						z"/>
					<path d="M251.177,110.059h1.22v8.419h4.033v1.022h-5.253V110.059L251.177,110.059z"/>
					<path d="M261.104,110.815c0.02,0.42-0.293,0.756-0.783,0.756c-0.436,0-0.737-0.336-0.737-0.756
						c0-0.435,0.315-0.771,0.771-0.771C260.811,110.045,261.104,110.381,261.104,110.815z M259.73,119.5v-6.779h1.229v6.779H259.73z
						"/>
					<path d="M318.109,106.185c0.736-0.111,1.625-0.195,2.592-0.195c1.75,0,2.998,0.406,3.824,1.176
						c0.84,0.771,1.33,1.863,1.33,3.391c0,1.54-0.479,2.801-1.358,3.67c-0.883,0.882-2.339,1.358-4.175,1.358
						c-0.868,0-1.602-0.042-2.213-0.112V106.185z M319.328,114.533c0.309,0.057,0.756,0.07,1.229,0.07
						c2.605,0,4.021-1.457,4.021-4.006c0.015-2.228-1.247-3.643-3.824-3.643c-0.63,0-1.104,0.057-1.429,0.126L319.328,114.533
						L319.328,114.533z"/>
					<path d="M330.752,106.815c0.014,0.42-0.295,0.756-0.785,0.756c-0.434,0-0.742-0.336-0.742-0.756
						c0-0.435,0.322-0.771,0.771-0.771C330.457,106.045,330.752,106.381,330.752,106.815z M329.379,115.5v-6.779h1.232v6.779
						H329.379z"/>
					<path d="M353.672,106.185c0.615-0.126,1.498-0.195,2.339-0.195c1.309,0,2.146,0.237,2.731,0.771
						c0.477,0.42,0.742,1.064,0.742,1.793c0,1.246-0.784,2.072-1.779,2.409v0.042c0.729,0.252,1.163,0.924,1.387,1.904
						c0.312,1.317,0.533,2.228,0.729,2.592h-1.266c-0.148-0.28-0.359-1.078-0.631-2.255c-0.273-1.303-0.784-1.793-1.891-1.835
						h-1.148v4.09h-1.219L353.672,106.185L353.672,106.185z M354.891,110.485h1.246c1.309,0,2.129-0.715,2.129-1.793
						c0-1.219-0.883-1.751-2.171-1.765c-0.589,0-1.009,0.056-1.204,0.111V110.485z"/>
					<path d="M365.475,106.815c0.02,0.42-0.295,0.756-0.779,0.756c-0.438,0-0.742-0.336-0.742-0.756
						c0-0.435,0.316-0.771,0.771-0.771C365.18,106.045,365.475,106.381,365.475,106.815z M364.102,115.5v-6.779h1.232v6.779H364.102
						z"/>
					<path d="M422.358,99.059h5.085v1.022h-3.866v3.138h3.571v1.009h-3.571v4.272h-1.219V99.059z"/>
					<path d="M432.944,99.815c0.014,0.42-0.294,0.756-0.784,0.756c-0.438,0-0.742-0.336-0.742-0.756c0-0.435,0.321-0.771,0.77-0.771
						C432.65,99.045,432.944,99.381,432.944,99.815z M431.571,108.5v-6.779h1.229v6.779H431.571z"/>
					<path d="M459.576,107.016c0.547,0.336,1.346,0.616,2.186,0.616c1.246,0,1.979-0.658,1.979-1.611
						c0-0.882-0.504-1.387-1.778-1.877c-1.541-0.546-2.493-1.345-2.493-2.676c0-1.471,1.221-2.562,3.055-2.562
						c0.971,0,1.67,0.224,2.092,0.462l-0.336,0.994c-0.312-0.168-0.939-0.448-1.796-0.448c-1.286,0-1.776,0.771-1.776,1.415
						c0,0.883,0.574,1.316,1.877,1.821c1.597,0.616,2.409,1.387,2.409,2.773c0,1.456-1.079,2.731-3.312,2.731
						c-0.907,0-1.898-0.28-2.406-0.616L459.576,107.016z"/>
					<path d="M469.966,99.815c0.02,0.42-0.294,0.756-0.784,0.756c-0.435,0-0.736-0.336-0.736-0.756c0-0.435,0.315-0.771,0.77-0.771
						C469.672,99.045,469.966,99.381,469.966,99.815z M468.593,108.5v-6.779h1.233v6.779H468.593z"/>
					<path d="M116.167,242.059h5.085v1.022h-3.866v3.138h3.572v1.01h-3.572v4.271h-1.219V242.059z"/>
					<path d="M126.752,242.814c0.014,0.42-0.294,0.756-0.785,0.756c-0.434,0-0.742-0.336-0.742-0.756
						c0-0.438,0.322-0.771,0.77-0.771C126.458,242.045,126.752,242.381,126.752,242.814z M125.379,251.5v-6.779h1.233v6.779H125.379
						z"/>
					<path d="M148.385,250.016c0.546,0.336,1.345,0.616,2.185,0.616c1.247,0,1.975-0.657,1.975-1.61
						c0-0.883-0.504-1.388-1.779-1.877c-1.541-0.547-2.493-1.346-2.493-2.677c0-1.471,1.218-2.562,3.053-2.562
						c0.967,0,1.667,0.224,2.087,0.462l-0.336,0.993c-0.308-0.168-0.938-0.447-1.793-0.447c-1.289,0-1.779,0.771-1.779,1.415
						c0,0.883,0.574,1.315,1.877,1.821c1.597,0.615,2.409,1.387,2.409,2.771c0,1.456-1.079,2.729-3.306,2.729
						c-0.911,0-1.905-0.278-2.409-0.614L148.385,250.016z"/>
					<path d="M158.774,242.814c0.014,0.42-0.294,0.756-0.785,0.756c-0.434,0-0.742-0.336-0.742-0.756
						c0-0.438,0.322-0.771,0.77-0.771C158.479,242.045,158.774,242.381,158.774,242.814z M157.401,251.5v-6.779h1.233v6.779H157.401
						z"/>
					<path d="M182.574,242.059h1.219v8.42h4.034v1.021h-5.253V242.059L182.574,242.059z"/>
					<path d="M192.501,242.814c0.014,0.42-0.294,0.756-0.785,0.756c-0.434,0-0.742-0.336-0.742-0.756
						c0-0.438,0.322-0.771,0.77-0.771C192.207,242.045,192.501,242.381,192.501,242.814z M191.128,251.5v-6.779h1.233v6.779H191.128
						z"/>
					<path d="M251.079,233.186c0.743-0.106,1.625-0.19,2.591-0.19c1.751,0,2.998,0.401,3.824,1.176
						c0.84,0.771,1.331,1.858,1.331,3.396c0,1.541-0.476,2.801-1.358,3.67c-0.883,0.883-2.339,1.354-4.174,1.354
						c-0.869,0-1.598-0.042-2.213-0.107L251.079,233.186L251.079,233.186z M252.298,241.533c0.308,0.057,0.757,0.07,1.233,0.07
						c2.605,0,4.02-1.457,4.02-4.006c0.014-2.229-1.246-3.646-3.824-3.646c-0.629,0-1.105,0.061-1.429,0.126V241.533z"/>
					<path d="M263.723,233.814c0.014,0.42-0.295,0.756-0.785,0.756c-0.435,0-0.742-0.336-0.742-0.756
						c0-0.438,0.322-0.771,0.771-0.771C263.428,233.045,263.723,233.381,263.723,233.814z M262.35,242.5v-6.779h1.232v6.779H262.35z
						"/>
					<path d="M285.832,233.186c0.615-0.127,1.498-0.19,2.339-0.19c1.304,0,2.144,0.231,2.731,0.771
						c0.477,0.422,0.742,1.062,0.742,1.795c0,1.242-0.785,2.068-1.779,2.405v0.042c0.729,0.252,1.162,0.928,1.387,1.904
						c0.309,1.314,0.533,2.229,0.729,2.592h-1.26c-0.154-0.277-0.365-1.078-0.631-2.255c-0.279-1.306-0.783-1.793-1.891-1.835
						h-1.148v4.09h-1.219V233.186L285.832,233.186z M287.051,237.484h1.246c1.303,0,2.129-0.715,2.129-1.793
						c0-1.219-0.883-1.75-2.171-1.77c-0.589,0-1.009,0.061-1.204,0.111V237.484z"/>
					<path d="M297.633,233.814c0.014,0.42-0.294,0.756-0.783,0.756c-0.436,0-0.742-0.336-0.742-0.756
						c0-0.438,0.32-0.771,0.771-0.771C297.339,233.045,297.633,233.381,297.633,233.814z M296.26,242.5v-6.779h1.233v6.779H296.26z"
						/>
					<path d="M355.518,229.059h5.085v1.022h-3.86v3.138h3.566v1.01h-3.566v4.271h-1.225V229.059L355.518,229.059z"/>
					<path d="M366.103,229.814c0.02,0.42-0.294,0.756-0.778,0.756c-0.438,0-0.742-0.336-0.742-0.756c0-0.438,0.321-0.771,0.77-0.771
						C365.809,229.045,366.103,229.381,366.103,229.814z M364.729,238.5v-6.779h1.233v6.779H364.729z"/>
					<path d="M389.734,237.016c0.547,0.336,1.346,0.616,2.186,0.616c1.246,0,1.975-0.657,1.975-1.61
						c0-0.883-0.504-1.388-1.772-1.877c-1.541-0.547-2.493-1.346-2.493-2.677c0-1.471,1.219-2.562,3.053-2.562
						c0.971,0,1.668,0.224,2.09,0.462l-0.338,0.993c-0.309-0.168-0.938-0.447-1.793-0.447c-1.289,0-1.773,0.771-1.773,1.415
						c0,0.883,0.57,1.315,1.877,1.821c1.597,0.615,2.407,1.387,2.407,2.771c0,1.456-1.077,2.729-3.31,2.729
						c-0.91,0-1.9-0.278-2.409-0.614L389.734,237.016z"/>
					<path d="M400.124,229.814c0.014,0.42-0.294,0.756-0.784,0.756c-0.435,0-0.742-0.336-0.742-0.756
						c0-0.438,0.321-0.771,0.771-0.771C399.83,229.045,400.124,229.381,400.124,229.814z M398.751,238.5v-6.779h1.233v6.779H398.751
						z"/>
					<path d="M423.924,229.059h1.219v8.42h4.035v1.021h-5.254V229.059z"/>
					<path d="M433.852,229.814c0.02,0.42-0.295,0.756-0.779,0.756c-0.438,0-0.742-0.336-0.742-0.756c0-0.438,0.321-0.771,0.77-0.771
						C433.557,229.045,433.852,229.381,433.852,229.814z M432.479,238.5v-6.779h1.232v6.779H432.479z"/>
				</g>
				<g>
					<path d="M18.499,160.125v-1.044h462.473v1.044H18.499z M18.499,174.125v-1.152h462.473v1.152H18.499z M18.499,188.02v-1.043
						h462.473v1.043H18.499z M18.499,201.914v-1.044h462.473v1.044H18.499z M18.499,215.809v-1.043h462.473v1.043H18.499z"/>
					<path fill="#5406FF" d="M122.4,215.738c4.669,0.055,7.25,3.242,5.767,7.14c-1.428,3.955-6.371,7.086-10.984,7.028
						c-4.612-0.053-7.193-3.295-5.712-7.191C112.899,218.814,117.788,215.686,122.4,215.738z"/>
					<path fill="#8800FF" d="M156.126,208.791c4.667,0.057,7.249,3.238,5.765,7.141c-1.426,3.953-6.37,7.084-10.982,7.029
						c-4.614-0.055-7.195-3.295-5.712-7.193C146.625,211.866,151.512,208.734,156.126,208.791z"/>
					<path fill="#F70606" d="M190.191,201.844c4.669,0.057,7.25,3.241,5.767,7.141c-1.428,3.953-6.371,7.084-10.984,7.029
						c-4.612-0.055-7.193-3.295-5.712-7.188C180.688,204.919,185.579,201.79,190.191,201.844z"/>
					<path fill="#FFE600" d="M259.312,187.951c4.668,0.053,7.25,3.24,5.764,7.139c-1.43,3.955-6.369,7.086-10.98,7.03
						c-4.613-0.056-7.193-3.295-5.711-7.194C249.812,191.027,254.697,187.895,259.312,187.951z"/>
					<path fill="#06FC1D" d="M293.09,181.005c4.669,0.056,7.252,3.241,5.766,7.138c-1.428,3.957-6.371,7.086-10.979,7.032
						c-4.613-0.055-7.193-3.296-5.715-7.194C283.589,184.082,288.479,180.949,293.09,181.005z"/>
					<path fill="#F803FF" d="M396.242,160.162c4.667,0.057,7.248,3.238,5.764,7.141c-1.428,3.953-6.37,7.084-10.979,7.03
						c-4.614-0.056-7.192-3.297-5.711-7.192C386.739,163.236,391.628,160.105,396.242,160.162z"/>
					<path fill="#FF0000" d="M430.244,153.215c4.666,0.057,7.249,3.241,5.766,7.141c-1.428,3.953-6.372,7.084-10.979,7.029
						c-4.612-0.055-7.191-3.296-5.712-7.191C420.74,156.291,425.629,153.16,430.244,153.215z"/>
					<g>
						<path fill="#6200FC" d="M358.519,166.889c6.104,0.055,11.863,2.36,12.312,7.469c0.33,3.736-4.612,7.146-10.709,7.146
							c-6.151-0.061-11.859-2.312-12.355-7.411C347.426,170.292,352.42,166.889,358.519,166.889z M359.999,180.232
							c2.638,0,4.341-2.527,4.065-4.562c-0.606-4.009-1.979-7.25-5.604-7.25c-2.636,0-4.173,2.581-3.841,4.612
							C355.224,177.048,356.377,180.232,359.999,180.232z"/>
					</g>
				</g>
				<g>
					<path id="path2070" fill="#9606F4" d="M23.559,204.018c3.803-2.562,6.646-4.514,8.472-5.854
						c1.831-1.321,3.758-2.979,5.732-4.946c1.973-1.966,3.634-4.196,4.981-6.672c1.059-1.821,1.974-3.938,2.72-6.337
						c0.748-2.377,1.133-4.684,1.205-6.863c0-2.039-0.265-3.979-0.818-5.811c-0.531-1.85-1.445-3.36-2.745-4.584
						c-1.299-1.2-2.983-1.801-5.078-1.801c-2.021,0-3.924,0.406-5.704,1.197c-1.758,0.812-3.012,2.104-3.707,3.938
						c0,0.17-0.098,0.384-0.243,0.693c0.048,0.388,0.243,0.672,0.604,0.893c0.36,0.216,0.672,0.312,0.962,0.312
						c0.144,0,0.553-0.072,1.18-0.226c0.65-0.146,1.18-0.231,1.612-0.231c1.277,0,2.409,0.457,3.442,1.347
						c1.013,0.888,1.519,1.966,1.519,3.239c0,0.912-0.265,1.771-0.771,2.562c-0.504,0.793-1.203,1.438-2.093,1.896
						c-0.893,0.479-1.88,0.696-2.936,0.696c-1.928,0-3.563-0.577-4.913-1.754c-1.324-1.198-1.998-2.713-1.998-4.608
						c0-2.426,0.746-4.516,2.214-6.287c1.493-1.771,3.37-3.096,5.682-3.979c2.288-0.913,4.599-1.346,6.958-1.346
						c2.574,0,5.031,0.646,7.317,1.968c2.312,1.295,4.118,3.101,5.464,5.327c1.349,2.255,2.048,4.652,2.048,7.249
						c0,4.606-1.542,8.881-4.622,12.842c-3.083,3.962-6.885,7.396-11.436,10.319c-3.032,1.99-7.942,4.683-14.707,8.062
						L23.559,204.018z M56.997,166.887c0-0.865,0.312-1.586,0.938-2.162c0.602-0.599,1.349-0.887,2.237-0.887
						c0.771,0,1.494,0.333,2.144,0.98c0.649,0.625,0.962,1.369,0.962,2.187c0,0.863-0.335,1.604-0.962,2.208
						c-0.673,0.574-1.421,0.862-2.264,0.862c-0.89,0-1.612-0.288-2.189-0.935C57.287,168.518,56.997,167.773,56.997,166.887z
						 M56.997,179.463c0-0.865,0.312-1.609,0.89-2.184c0.6-0.604,1.348-0.889,2.286-0.889c0.771,0,1.47,0.312,2.144,0.959
						c0.627,0.646,0.962,1.346,0.962,2.104c0,0.938-0.313,1.688-0.914,2.275c-0.627,0.604-1.349,0.907-2.192,0.907
						c-0.938,0-1.686-0.312-2.286-0.891C57.308,181.189,56.997,180.423,56.997,179.463z"/>
				</g>
			</g>
		</g>
	</g>
	<g id="Layer_2_2_">
		<g enable-background="new    ">
			<path d="M77.708,93.938l-1.674,0.729v4.995l-0.999,0.378v-5.049l-1.836,0.702v5.103l-0.999,0.405V95.99l-1.701,0.594v-3.348
				l1.701-0.648v-4.725l-1.701,0.621v-3.375l1.701-0.621v-5.347l0.999-0.351v5.346l1.836-0.646v-5.481l0.999-0.324v5.454
				l1.674-0.594v3.294l-1.674,0.675v4.726l1.674-0.595V93.938z M75.116,91.589v-4.752l-2.025,0.702v4.752L75.116,91.589z"/>
		</g>
		<g enable-background="new    ">
			<path d="M112.708,87.938l-1.674,0.729v4.995l-0.999,0.378v-5.049l-1.836,0.702v5.103l-0.999,0.405V89.99l-1.701,0.594v-3.348
				l1.701-0.648v-4.725l-1.701,0.621v-3.375l1.701-0.621v-5.347l0.999-0.351v5.346l1.836-0.646v-5.481l0.999-0.324v5.454
				l1.674-0.594v3.294l-1.674,0.675v4.726l1.674-0.595V87.938z M110.116,85.589v-4.752l-2.025,0.702v4.752L110.116,85.589z"/>
		</g>
		<g enable-background="new    ">
			<path d="M180.708,71.938l-1.674,0.729v4.995l-0.999,0.378v-5.049l-1.836,0.702v5.103l-0.999,0.405V73.99l-1.701,0.594v-3.348
				l1.701-0.648v-4.725l-1.701,0.621v-3.375l1.701-0.621v-5.347l0.999-0.351v5.346l1.836-0.646v-5.481l0.999-0.324v5.454
				l1.674-0.594v3.294l-1.674,0.675v4.726l1.674-0.595V71.938z M178.116,69.589v-4.752l-2.025,0.702v4.752L178.116,69.589z"/>
		</g>
		<g enable-background="new    ">
			<path d="M214.708,61.938l-1.674,0.729v4.995l-0.999,0.378v-5.049l-1.836,0.702v5.103l-0.999,0.405V63.99l-1.701,0.594v-3.348
				l1.701-0.648v-4.725l-1.701,0.621v-3.375l1.701-0.621v-5.347l0.999-0.351v5.346l1.836-0.646v-5.481l0.999-0.324v5.454
				l1.674-0.594v3.294l-1.674,0.675v4.726l1.674-0.595V61.938z M212.116,59.589v-4.752l-2.025,0.702v4.752L212.116,59.589z"/>
		</g>
		<g enable-background="new    ">
			<path d="M251.708,53.938l-1.674,0.729v4.995l-0.999,0.378v-5.049l-1.836,0.702v5.103l-0.999,0.405V55.99l-1.701,0.594v-3.348
				l1.701-0.648v-4.725l-1.701,0.621v-3.375l1.701-0.621v-5.347l0.999-0.351v5.346l1.836-0.646v-5.481l0.999-0.324v5.454
				l1.674-0.594v3.294l-1.674,0.675v4.726l1.674-0.595V53.938z M249.116,51.589v-4.752l-2.025,0.702v4.752L249.116,51.589z"/>
		</g>
		<g enable-background="new    ">
			<path d="M318.708,40.938l-1.674,0.729v4.995l-0.999,0.378v-5.049l-1.836,0.702v5.103l-0.999,0.405V42.99l-1.701,0.594v-3.348
				l1.701-0.648v-4.725l-1.701,0.621v-3.375l1.701-0.621v-5.347l0.999-0.351v5.346l1.836-0.646v-5.481l0.999-0.324v5.454
				l1.674-0.594v3.294l-1.674,0.675v4.726l1.674-0.595V40.938z M316.116,38.589v-4.752l-2.025,0.702v4.752L316.116,38.589z"/>
		</g>
		<g enable-background="new    ">
			<path d="M355.708,32.938l-1.674,0.729v4.995l-0.999,0.378v-5.049l-1.836,0.702v5.103l-0.999,0.405V34.99l-1.701,0.594v-3.348
				l1.701-0.648v-4.725l-1.701,0.621v-3.375l1.701-0.621v-5.347l0.999-0.351v5.346l1.836-0.646v-5.481l0.999-0.324v5.454
				l1.674-0.594v3.294l-1.674,0.675v4.726l1.674-0.595V32.938z M353.116,30.589v-4.752l-2.025,0.702v4.752L353.116,30.589z"/>
		</g>
		<g enable-background="new    ">
			<path d="M423.708,20.938l-1.674,0.729v4.995l-0.999,0.378v-5.049l-1.836,0.702v5.103l-0.999,0.405V22.99l-1.701,0.594v-3.348
				l1.701-0.648v-4.725l-1.701,0.621v-3.375l1.701-0.621V6.142l0.999-0.351v5.346l1.836-0.647V5.008l0.999-0.324v5.454l1.674-0.594
				v3.294l-1.674,0.675v4.726l1.674-0.595V20.938z M421.116,18.589v-4.752l-2.025,0.702v4.752L421.116,18.589z"/>
		</g>
		<g enable-background="new    ">
			<path d="M458.708,12.938l-1.674,0.729v4.995l-0.999,0.378v-5.049l-1.836,0.702v5.103l-0.999,0.405V14.99l-1.701,0.594v-3.348
				l1.701-0.648V6.863l-1.701,0.621V4.109l1.701-0.621v-5.347l0.999-0.351v5.346l1.836-0.646v-5.481l0.999-0.324v5.454l1.674-0.594
				v3.294l-1.674,0.675v4.726l1.674-0.595V12.938z M456.116,10.589V5.837l-2.025,0.702v4.752L456.116,10.589z"/>
		</g>
		<g enable-background="new    ">
			<path d="M117.708,206.938l-1.674,0.729v4.995l-0.999,0.378v-5.049l-1.836,0.702v5.103l-0.999,0.405v-5.211l-1.701,0.594v-3.348
				l1.701-0.648v-4.725l-1.701,0.621v-3.375l1.701-0.621v-5.348l0.999-0.354v5.346l1.836-0.646v-5.479l0.999-0.323v5.455
				l1.674-0.596v3.294l-1.674,0.677v4.725l1.674-0.594V206.938z M115.116,204.589v-4.752l-2.025,0.702v4.752L115.116,204.589z"/>
		</g>
		<g enable-background="new    ">
			<path d="M152.708,199.938l-1.674,0.729v4.995l-0.999,0.378v-5.049l-1.836,0.702v5.103l-0.999,0.405v-5.211l-1.701,0.594v-3.348
				l1.701-0.648v-4.725l-1.701,0.621v-3.375l1.701-0.621v-5.348l0.999-0.354v5.346l1.836-0.646v-5.479l0.999-0.323v5.455
				l1.674-0.596v3.294l-1.674,0.677v4.725l1.674-0.594V199.938z M150.116,197.589v-4.752l-2.025,0.702v4.752L150.116,197.589z"/>
		</g>
		<g enable-background="new    ">
			<path d="M184.708,193.938l-1.674,0.729v4.995l-0.999,0.378v-5.049l-1.836,0.702v5.103l-0.999,0.405v-5.211l-1.701,0.594v-3.348
				l1.701-0.648v-4.725l-1.701,0.621v-3.375l1.701-0.621v-5.348l0.999-0.354v5.346l1.836-0.646v-5.479l0.999-0.323v5.455
				l1.674-0.596v3.294l-1.674,0.677v4.725l1.674-0.594V193.938z M182.116,191.589v-4.752l-2.025,0.702v4.752L182.116,191.589z"/>
		</g>
		<g enable-background="new    ">
			<path d="M252.708,179.938l-1.674,0.729v4.995l-0.999,0.378v-5.049l-1.836,0.702v5.103l-0.999,0.405v-5.211l-1.701,0.594v-3.348
				l1.701-0.648v-4.725l-1.701,0.621v-3.375l1.701-0.621v-5.348l0.999-0.354v5.346l1.836-0.646v-5.479l0.999-0.323v5.455
				l1.674-0.596v3.294l-1.674,0.677v4.725l1.674-0.594V179.938z M250.116,177.589v-4.752l-2.025,0.702v4.752L250.116,177.589z"/>
		</g>
		<g enable-background="new    ">
			<path d="M286.708,172.938l-1.674,0.729v4.995l-0.999,0.378v-5.049l-1.836,0.702v5.103l-0.999,0.405v-5.211l-1.701,0.594v-3.348
				l1.701-0.648v-4.725l-1.701,0.621v-3.375l1.701-0.621v-5.348l0.999-0.354v5.346l1.836-0.646v-5.479l0.999-0.323v5.455
				l1.674-0.596v3.294l-1.674,0.677v4.725l1.674-0.594V172.938z M284.116,170.589v-4.752l-2.025,0.702v4.752L284.116,170.589z"/>
		</g>
		<g enable-background="new    ">
			<path d="M354.708,159.938l-1.674,0.729v4.995l-0.999,0.378v-5.049l-1.836,0.702v5.103l-0.999,0.405v-5.211l-1.701,0.594v-3.348
				l1.701-0.648v-4.725l-1.701,0.621v-3.375l1.701-0.621v-5.348l0.999-0.354v5.346l1.836-0.646v-5.479l0.999-0.323v5.455
				l1.674-0.596v3.294l-1.674,0.677v4.725l1.674-0.594V159.938z M352.116,157.589v-4.752l-2.025,0.702v4.752L352.116,157.589z"/>
		</g>
		<g enable-background="new    ">
			<path d="M390.708,152.938l-1.674,0.729v4.995l-0.999,0.378v-5.049l-1.836,0.702v5.103l-0.999,0.405v-5.211l-1.701,0.594v-3.348
				l1.701-0.648v-4.725l-1.701,0.621v-3.375l1.701-0.621v-5.348l0.999-0.354v5.346l1.836-0.646v-5.479l0.999-0.323v5.455
				l1.674-0.596v3.294l-1.674,0.677v4.725l1.674-0.594V152.938z M388.116,150.589v-4.752l-2.025,0.702v4.752L388.116,150.589z"/>
		</g>
		<g enable-background="new    ">
			<path d="M423.708,146.938l-1.674,0.729v4.995l-0.999,0.378v-5.049l-1.836,0.702v5.103l-0.999,0.405v-5.211l-1.701,0.594v-3.348
				l1.701-0.648v-4.725l-1.701,0.621v-3.375l1.701-0.621v-5.348l0.999-0.353v5.346l1.836-0.646v-5.48l0.999-0.324v5.457l1.674-0.597
				v3.294l-1.674,0.678v4.727l1.674-0.596V146.938z M421.116,144.589v-4.752l-2.025,0.702v4.752L421.116,144.589z"/>
		</g>
	</g>
</g>
<g id="Layer_2_3_">
</g>
</svg>
