<?xml version="1.0" encoding="utf-8"?>
<!-- Generator: Adobe Illustrator 15.0.0, SVG Export Plug-In . SVG Version: 6.00 Build 0)  -->
<!DOCTYPE svg PUBLIC "-//W3C//DTD SVG 1.1//EN" "http://www.w3.org/Graphics/SVG/1.1/DTD/svg11.dtd">
<svg version="1.1" id="Layer_1" xmlns="http://www.w3.org/2000/svg" xmlns:xlink="http://www.w3.org/1999/xlink" x="0px" y="0px"
	 width="500px" height="270px" viewBox="0 0 500 270" enable-background="new 0 0 500 270" xml:space="preserve">
<g id="Layer_1_2_">
	<g id="Layer_1_1_">
	</g>
	<path d="M10.499,111.123v-1.044h462.473v1.044H10.499z M10.499,125.125v-1.153h462.473v1.153H10.499z M10.499,139.02v-1.043
		h462.473v1.043H10.499z M10.499,152.914v-1.044h462.473v1.044H10.499z M10.499,166.809v-1.041h462.473v1.041H10.499z"/>
	<g>
		<path fill="#F7E608" d="M299.955,116.68c4.667,0.055,7.249,3.239,5.766,7.139c-1.428,3.957-6.371,7.088-10.983,7.029
			c-4.614-0.055-7.192-3.296-5.71-7.191C290.452,119.757,295.342,116.623,299.955,116.68z"/>
		<g>
			<path d="M305.318,180.08l1.021-2.157h0.938l0.429,8.981h-1.019c-0.666-2.541-1.495-4.416-2.498-5.62
				c-1.247-1.511-2.729-2.263-4.456-2.263c-1.867,0-3.387,0.836-4.561,2.509c-1.176,1.672-1.758,4.503-1.758,8.493
				c0,3.354,0.676,5.912,2.018,7.679c1.146,1.491,2.753,2.235,4.822,2.235c1.809,0,3.324-0.58,4.549-1.742
				c1.223-1.161,2.023-2.913,2.396-5.258h1.073c-0.312,2.65-1.221,4.688-2.729,6.119c-1.509,1.428-3.41,2.139-5.699,2.139
				c-1.859,0-3.564-0.467-5.116-1.401c-1.55-0.937-2.795-2.278-3.724-4.034c-0.93-1.757-1.396-3.681-1.396-5.769
				c0-2.222,0.479-4.308,1.438-6.259c0.959-1.948,2.187-3.414,3.684-4.397c1.494-0.979,3.107-1.468,4.835-1.468
				c0.963,0,1.896,0.169,2.8,0.502C303.273,178.701,304.256,179.277,305.318,180.08z"/>
		</g>
	</g>
	<g>
		<path fill="#8F00FF" d="M390.12,94.641c4.669,0.055,7.25,3.242,5.767,7.14c-1.428,3.955-6.371,7.084-10.982,7.029
			c-4.611-0.054-7.192-3.295-5.711-7.19C380.617,97.717,385.508,94.587,390.12,94.641z"/>
		<g>
			<path d="M378.915,178.887h18.153l0.297,7.723h-1.047c-0.467-2.651-1.114-4.387-1.95-5.188c-0.958-0.938-2.324-1.396-4.101-1.396
				h-3.584c-0.354,0-0.605,0.082-0.771,0.248c-0.161,0.166-0.242,0.414-0.242,0.748v8.043h1.919c1.067,0,1.919-0.354,2.552-1.06
				c0.637-0.706,0.979-1.79,1.027-3.26h1.1v10.083h-1.1c-0.07-1.668-0.412-2.854-1.027-3.57c-0.611-0.712-1.466-1.064-2.552-1.064
				h-1.919v8.521c0,0.503,0.121,0.858,0.362,1.063c0.241,0.209,0.659,0.312,1.253,0.312h2.324v1.123h-10.697v-1.127h2.288
				c0.461,0,0.79-0.093,0.981-0.276c0.196-0.187,0.293-0.494,0.293-0.914v-17.758c0-0.396-0.103-0.688-0.309-0.856
				c-0.206-0.175-0.563-0.257-1.076-0.257h-2.181L378.915,178.887L378.915,178.887z"/>
		</g>
	</g>
	<g>
		<path fill="#0C00FF" d="M357.277,102.32c4.667,0.056,7.249,3.241,5.767,7.14c-1.428,3.954-6.371,7.084-10.98,7.03
			c-4.614-0.055-7.195-3.295-5.712-7.192C347.776,105.396,352.665,102.265,357.277,102.32z"/>
		<g>
			<path d="M348.898,178.887h17.673l0.43,7.536h-1.021c-0.401-2.378-1.039-4.04-1.908-4.985c-0.87-0.943-2.004-1.42-3.399-1.42
				H356.3c-0.353,0-0.616,0.101-0.801,0.287c-0.181,0.189-0.271,0.481-0.271,0.875v7.955h1.916c1.026,0,1.856-0.367,2.493-1.101
				c0.64-0.731,0.984-1.859,1.035-3.377h1.043v10.325h-1.043c-0.051-1.707-0.399-2.928-1.049-3.666
				c-0.649-0.741-1.533-1.109-2.646-1.109h-1.75v8.873c0,0.322,0.107,0.568,0.324,0.742c0.217,0.171,0.574,0.253,1.078,0.253h3.453
				c3.754,0,5.914-2.396,6.485-7.187h1.1l-0.377,8.312h-18.395v-1.126h1.522c0.592,0,1.01-0.104,1.252-0.309
				c0.238-0.207,0.36-0.508,0.36-0.897V181.18c0-0.395-0.106-0.685-0.317-0.875c-0.211-0.188-0.541-0.287-0.996-0.287h-1.821v-1.131
				H348.898z"/>
		</g>
	</g>
	<g>
		<path fill="#009010" d="M326.666,110c4.669,0.055,7.25,3.242,5.768,7.141c-1.429,3.955-6.371,7.086-10.982,7.028
			c-4.612-0.052-7.193-3.296-5.712-7.19C317.165,113.076,322.055,109.947,326.666,110z"/>
		<g>
			<path d="M316.736,178.887h11.523c1.709,0,3.161,0.303,4.356,0.905c1.487,0.763,2.752,2.036,3.793,3.815
				c1.039,1.781,1.562,3.887,1.562,6.316c0,2.016-0.312,3.825-0.937,5.438c-0.474,1.238-1.199,2.32-2.181,3.244
				c-0.98,0.924-2.174,1.617-3.582,2.082c-1.058,0.34-2.465,0.512-4.226,0.512h-10.313v-1.126h2.117c0.535,0,0.903-0.085,1.11-0.253
				c0.208-0.174,0.312-0.439,0.312-0.803v-17.979c0-0.312-0.109-0.562-0.332-0.748c-0.225-0.187-0.53-0.276-0.922-0.276h-2.285
				v-1.127H316.736z M324.796,180.016c-0.454,0-0.788,0.096-1.006,0.287c-0.216,0.188-0.323,0.479-0.323,0.859v17.811
				c0,0.36,0.125,0.637,0.377,0.819c0.252,0.187,0.684,0.28,1.284,0.28h1.904c1.703,0,3.19-0.438,4.471-1.312
				c0.836-0.584,1.47-1.404,1.904-2.463c0.593-1.428,0.892-3.398,0.892-5.915c0-3.724-0.648-6.45-1.949-8.18
				c-1.106-1.461-2.778-2.188-5.017-2.188h-2.537V180.016z"/>
		</g>
	</g>
	<g>
		<path fill="#F70303" d="M240.62,131.357c4.668,0.053,7.25,3.238,5.764,7.137c-1.43,3.957-6.369,7.086-10.979,7.031
			c-4.613-0.055-7.193-3.295-5.712-7.195C231.119,134.432,236.002,131.3,240.62,131.357z"/>
		<g>
			<path d="M237.159,178.1h1.056l7.993,20.404c0.323,0.822,0.979,1.236,1.976,1.236h0.695v1.125h-8.904v-1.125h0.711
				c0.927,0,1.578-0.102,1.966-0.303c0.259-0.146,0.393-0.355,0.393-0.646c0-0.172-0.034-0.354-0.106-0.543l-1.844-4.73h-8.811
				l-1.053,2.713c-0.272,0.728-0.408,1.301-0.408,1.72c0,0.489,0.229,0.916,0.688,1.266c0.459,0.354,1.125,0.527,2.002,0.527h0.754
				v1.127h-8.099v-1.125c0.867,0,1.554-0.188,2.06-0.562c0.502-0.381,0.966-1.096,1.392-2.147L237.159,178.1z M236.743,182.387
				l-3.996,9.951h7.877L236.743,182.387z"/>
		</g>
	</g>
	<g>
		<path fill="#8F00FF" d="M183.298,144.641c4.669,0.055,7.25,3.242,5.767,7.143c-1.428,3.953-6.371,7.084-10.984,7.027
			c-4.611-0.054-7.192-3.295-5.711-7.188C173.795,147.717,178.686,144.587,183.298,144.641z"/>
		<g>
			<path d="M170.999,178.369h18.153l0.297,7.723h-1.047c-0.465-2.652-1.114-4.387-1.95-5.189c-0.958-0.938-2.324-1.396-4.099-1.396
				h-3.584c-0.354,0-0.607,0.082-0.771,0.248c-0.161,0.166-0.242,0.414-0.242,0.748v8.043h1.919c1.067,0,1.919-0.354,2.552-1.059
				c0.635-0.705,0.977-1.789,1.027-3.26h1.1v10.082h-1.1c-0.07-1.668-0.412-2.854-1.027-3.568c-0.613-0.713-1.466-1.066-2.552-1.066
				h-1.919v8.521c0,0.504,0.121,0.857,0.362,1.062c0.241,0.209,0.659,0.312,1.253,0.312h2.324v1.123h-10.697v-1.127h2.288
				c0.461,0,0.79-0.092,0.983-0.275c0.196-0.188,0.293-0.494,0.293-0.914v-17.758c0-0.398-0.103-0.688-0.309-0.857
				c-0.206-0.174-0.564-0.256-1.076-0.256h-2.181L170.999,178.369L170.999,178.369z"/>
		</g>
	</g>
	<g>
		<path fill="#009010" d="M121.879,160c4.669,0.055,7.25,3.242,5.768,7.141c-1.429,3.955-6.371,7.086-10.984,7.028
			c-4.612-0.052-7.193-3.296-5.712-7.19C112.378,163.076,117.267,159.947,121.879,160z"/>
		<g>
			<path d="M108.852,177.887h11.524c1.709,0,3.163,0.303,4.358,0.905c1.488,0.763,2.752,2.036,3.793,3.815
				c1.039,1.781,1.562,3.887,1.562,6.316c0,2.016-0.312,3.825-0.936,5.438c-0.473,1.238-1.199,2.32-2.18,3.244
				s-2.175,1.617-3.582,2.082c-1.057,0.34-2.464,0.512-4.225,0.512H108.85v-1.126h2.117c0.537,0,0.905-0.085,1.113-0.253
				c0.208-0.174,0.31-0.439,0.31-0.803v-17.979c0-0.312-0.11-0.562-0.332-0.748c-0.225-0.187-0.531-0.276-0.923-0.276h-2.285v-1.127
				H108.852z M116.912,179.016c-0.454,0-0.788,0.096-1.006,0.287c-0.216,0.188-0.323,0.479-0.323,0.859v17.811
				c0,0.36,0.125,0.637,0.377,0.819c0.251,0.187,0.681,0.28,1.284,0.28h1.904c1.703,0,3.191-0.438,4.471-1.312
				c0.836-0.584,1.47-1.404,1.904-2.463c0.593-1.428,0.892-3.398,0.892-5.915c0-3.724-0.649-6.45-1.949-8.18
				c-1.108-1.461-2.781-2.188-5.017-2.188h-2.537V179.016z"/>
		</g>
	</g>
	<g>
		<path fill="#FF9E11" d="M272.055,124.262c4.672,0.055,7.254,3.238,5.77,7.139c-1.43,3.955-6.373,7.082-10.979,7.029
			c-4.61-0.057-7.192-3.295-5.717-7.193C262.554,127.336,267.441,124.207,272.055,124.262z"/>
		<path d="M258.679,178.543h11.614c2.279,0,4.025,0.504,5.234,1.509c1.211,1.006,1.812,2.271,1.812,3.782
			c0,1.268-0.422,2.34-1.266,3.227c-0.844,0.889-2.113,1.581-3.814,2.098c2.105,0.438,3.686,1.146,4.736,2.095
			c1.051,0.951,1.58,2.151,1.58,3.604c0,1.104-0.303,2.088-0.896,2.938c-0.602,0.855-1.596,1.582-2.98,2.179
			c-1.395,0.599-2.971,0.896-4.74,0.896h-11.271v-1.128h1.838c0.553,0,0.959-0.092,1.213-0.271c0.254-0.182,0.383-0.391,0.383-0.615
			v-17.887c0-0.426-0.123-0.744-0.377-0.959c-0.25-0.221-0.613-0.324-1.1-0.324h-1.962L258.679,178.543L258.679,178.543z
			 M265.302,188.787h4.237c1.303,0,2.336-0.379,3.107-1.141c0.771-0.76,1.154-2.01,1.154-3.742c0-1.068-0.188-1.904-0.551-2.506
			c-0.367-0.604-0.896-1.039-1.604-1.316c-0.699-0.273-1.91-0.41-3.642-0.41c-1.222,0-1.976,0.086-2.271,0.26
			c-0.291,0.182-0.438,0.482-0.438,0.93v7.933L265.302,188.787L265.302,188.787z M265.302,189.914v8.607
			c0,0.401,0.117,0.703,0.354,0.904c0.238,0.2,0.664,0.303,1.277,0.303h2.707c1.793,0,3.111-0.394,3.973-1.185
			c0.857-0.791,1.281-2.021,1.281-3.69c0-1.527-0.441-2.732-1.324-3.615c-0.891-0.881-2.109-1.32-3.676-1.32L265.302,189.914
			L265.302,189.914z"/>
	</g>
	<g>
		<path fill="#F506FC" d="M209.83,138.255c4.668,0.055,7.25,3.24,5.764,7.139c-1.43,3.957-6.368,7.086-10.979,7.031
			c-4.613-0.055-7.193-3.295-5.712-7.195C200.33,141.331,205.215,138.198,209.83,138.255z"/>
		<path d="M213.349,180.407l1.229-2.222h1.021l0.562,8.898h-0.991c-0.751-2.562-1.64-4.416-2.66-5.562
			c-1.302-1.461-2.795-2.188-4.479-2.188c-1.291,0-2.447,0.366-3.473,1.104c-1.021,0.729-1.809,1.832-2.354,3.297
			c-0.547,1.465-0.819,3.531-0.819,6.188c0,2.582,0.272,4.604,0.821,6.057c0.546,1.457,1.302,2.525,2.264,3.22
			c0.965,0.686,2.098,1.028,3.393,1.028c1.757,0,3.113-0.491,4.072-1.479c0.959-0.984,1.438-2.255,1.438-3.812v-2.092
			c0-0.332-0.13-0.59-0.386-0.771c-0.261-0.18-0.683-0.27-1.265-0.27h-1.895v-1.047h9.354v1.047h-1.268
			c-0.564,0-0.969,0.102-1.211,0.295c-0.242,0.191-0.361,0.479-0.361,0.854v8.531h-0.992c-0.354-1.326-0.732-2.604-1.129-3.82
			c-0.754,1.236-1.646,2.164-2.688,2.783c-1.04,0.615-2.223,0.929-3.537,0.929c-1.88,0-3.624-0.479-5.229-1.443
			c-1.604-0.969-2.871-2.323-3.801-4.08c-0.93-1.754-1.396-3.735-1.396-5.948c0-2.226,0.471-4.213,1.402-5.976
			c0.935-1.76,2.211-3.153,3.832-4.188c1.622-1.037,3.264-1.554,4.92-1.554c0.94,0,1.846,0.156,2.706,0.478
			C211.289,178.979,212.261,179.562,213.349,180.407z"/>
	</g>
	<g>
		<path fill="#0C00FF" d="M153.601,151.727c4.667,0.056,7.249,3.24,5.767,7.14c-1.428,3.954-6.371,7.084-10.98,7.03
			c-4.614-0.055-7.195-3.295-5.712-7.192C144.1,154.803,148.989,151.672,153.601,151.727z"/>
		<g>
			<path d="M141.017,178.886h17.673l0.43,7.536h-1.021c-0.401-2.378-1.039-4.04-1.908-4.985c-0.87-0.943-2.004-1.42-3.399-1.42
				h-4.373c-0.353,0-0.616,0.101-0.801,0.287c-0.181,0.189-0.271,0.481-0.271,0.875v7.955h1.916c1.026,0,1.856-0.367,2.493-1.101
				c0.64-0.731,0.984-1.859,1.035-3.377h1.043v10.325h-1.043c-0.051-1.707-0.399-2.928-1.049-3.666
				c-0.649-0.741-1.533-1.109-2.646-1.109h-1.75v8.873c0,0.322,0.107,0.568,0.324,0.742c0.217,0.171,0.574,0.253,1.078,0.253h3.453
				c3.754,0,5.914-2.396,6.485-7.187h1.1l-0.377,8.312h-18.395v-1.126h1.522c0.592,0,1.01-0.104,1.252-0.309
				c0.238-0.207,0.36-0.508,0.36-0.897v-17.688c0-0.395-0.106-0.685-0.317-0.875c-0.211-0.188-0.541-0.287-0.996-0.287h-1.821
				v-1.131H141.017z"/>
		</g>
	</g>
</g>
<g id="Layer_2">
</g>
<g id="Layer_3">
	<g id="layer1_2_">
		<g id="g2972_2_" transform="matrix(1,0,0,1.030698,-309.364,-543.8647)">
			<path id="path2974_2_" d="M379.227,668.227c-0.357,5.55-3.457,11.207-8.833,13.276c-4.607,1.705-10.416,1.963-14.419-1.281
				c-2.996-2.217-4.142-7.26-1.007-9.867c2.994-2.837,8.753-0.278,8.407,3.894c1.176,2.865-4.911,4.626-1.711,6.63
				c3.681,0.96,7.434-2.047,8.379-5.541c1.374-5.016,1.299-10.426,0.096-15.469c-0.646-2.483-2.182-6.347-5.465-5.342
				c-4.297,1-6.708,5.246-8.061,9.104c-0.783-5.471-4.223-10.202-8.179-13.892c0,10.99,0,21.981,0,32.966l-2.461,0.016
				c0-22.588,0-45.631,0-68.216l2.461-0.001c0,10.834,0,22.116,0,32.95c3.923-3.635,7.378-8.289,8.12-13.715
				c1.417,4.047,4.161,8.514,8.793,9.143c3.407,0.187,4.382-3.966,5.061-6.556c0.893-4.891,0.989-10.089-0.561-14.855
				c-1.107-3.354-4.75-6.097-8.341-5.198c-2.903,2.115,2.821,3.644,1.854,6.368c0.618,3.916-4.227,6.976-7.565,4.945
				c-3.617-1.978-3.353-7.309-0.566-9.884c1.897-1.959,5.507-3.226,8.15-3.204c2.698,0.021,4.272,0.221,6.687,1.063
				c5.404,1.927,8.671,7.482,9.116,13.019c0.813,6.277-2.698,13.126-8.613,15.607c-3.849,1.491-8.3,0.2-11.25-2.538
				c-0.482,2.749-1.708,5.368-3.224,7.267c1.226,1.999,2.551,5.213,3.227,6.312c3.695-3.365,10.223-3.769,14.069-0.435
				C377.306,658.011,379.749,663.125,379.227,668.227z"/>
		</g>
		<g id="g2976_2_" transform="matrix(1,0,0,1.030928,-309.364,-543.9805)">
			<path id="path2978_2_" d="M340.698,682.699h-8v-68.223h8V682.699z"/>
		</g>
	</g>
</g>
</svg>
