<?xml version="1.0" encoding="utf-8"?>
<!-- Generator: Adobe Illustrator 13.0.2, SVG Export Plug-In . SVG Version: 6.00 Build 14948)  -->
<!DOCTYPE svg PUBLIC "-//W3C//DTD SVG 1.0//EN" "http://www.w3.org/TR/2001/REC-SVG-20010904/DTD/svg10.dtd">
<svg version="1.0" id="Layer_1" xmlns="http://www.w3.org/2000/svg" xmlns:xlink="http://www.w3.org/1999/xlink" x="0px" y="0px"
	 width="299px" height="299px" viewBox="0 0 299 299" enable-background="new 0 0 299 299" xml:space="preserve">
<g id="Layer_1_1_">
	<g id="grandStaff">
		<path d="M-77.501,335.123v-1.044h462.473v1.044H-77.501z M-77.501,349.125v-1.152h462.473v1.152H-77.501z M-77.501,363.02v-1.043
			h462.473v1.043H-77.501z M-77.501,376.914v-1.044h462.473v1.044H-77.501z M-77.501,390.809v-1.041h462.473v1.041H-77.501z"/>
		<path fill="#F200FF" d="M-52.031,389.271c-11.313-5.383-13.125-12.301-13.619-19.391c-0.55-7.688,4.339-15.482,8.896-19.822
			c2.636-2.474,5.492-4.89,8.898-7.471c-0.111-1.922-0.55-2.689-0.77-5.438c-0.055-1.151-0.769-6.533,0.384-12.739
			c0.714-3.683,5.328-12.354,8.513-12.413c2.472-0.057,6.261,9.832,6.372,14.771c0.164,7.637-1.647,11.096-3.9,15.049
			c-1.153,1.979-2.361,3.352-3.625,4.89c-1.317,1.593-2.8,2.522-4.173,3.733c0,0,1.758,9.938,1.812,10.651
			c3.515-0.438,7.798,0.821,9.337,1.923c3.898,2.909,5.381,6.92,5.656,10.817c0.495,6.205-2.911,12.741-10.435,15.872
			c0,0,1.153,7.907,1.428,9.556c0.604,4.336,0.495,7.084-0.439,8.84c-1.592,2.969-4.173,5.714-9.171,6.046
			c-3.845,0.218-11.424-1.701-11.808-7.745c-0.221-3.57,1.373-7.413,5.71-7.688c2.636-0.22,5.767,1.979,5.986,5.106
			c0.22,2.689-1.537,5.493-6.095,6.756c0.714,0.989,2.855,2.146,5.931,2.146c3.185,0,6.479-2.146,8.073-4.998
			c0.989-1.864,0.878-5.219,0.495-8.293c-0.166-1.045-1.483-9.338-1.483-9.338C-44.122,390.755-49.725,390.369-52.031,389.271z
			 M-50.933,376.256c0.109,2.635,2.306,5.713,4.337,6.754c-0.273,0.166-0.548,0.605-0.548,0.605c-2.253-1.1-4.175-2.91-4.669-3.57
			c-1.592-2.141-2.251-3.35-2.471-6.59c-0.219-3.021,1.428-7.083,5.107-9.939c1.922-1.429,2.856-1.759,4.503-2.143l-1.647-9.939
			c-1.703,0.986-8.732,6.646-11.697,11.258c-2.636,4.119-4.229,7.414-3.9,11.479c0.659,9.172,10.709,16.696,21.583,14.115
			c0,0-3.24-19.497-3.187-19.497C-49.505,369.005-51.098,373.62-50.933,376.256z M-46.483,341.439
			c4.778-3.734,11.258-10.769,10.874-16.203c-0.109-1.7-0.823-4.776-3.295-4.723C-44.562,320.568-47.749,332.375-46.483,341.439z
			 M-39.015,387.844c6.317-2.142,6.592-7.578,6.372-10.82c-0.221-2.688-1.428-8.729-9.448-8.346L-39.015,387.844z"/>
		<path fill="#00FF18" d="M26.4,390.738c4.669,0.055,7.25,3.242,5.767,7.14c-1.428,3.955-6.371,7.086-10.984,7.029
			c-4.612-0.052-7.193-3.295-5.712-7.191C16.899,393.814,21.788,390.686,26.4,390.738z"/>
		<path d="M12.852,419.887h11.524c1.709,0,3.163,0.306,4.359,0.905c1.488,0.763,2.752,2.036,3.793,3.815
			c1.039,1.778,1.562,3.887,1.562,6.317c0,2.015-0.313,3.825-0.935,5.437c-0.473,1.235-1.2,2.317-2.181,3.244
			c-0.98,0.925-2.174,1.614-3.582,2.079c-1.056,0.344-2.464,0.515-4.224,0.515H12.852v-1.126h2.117c0.537,0,0.905-0.085,1.113-0.253
			c0.208-0.177,0.31-0.439,0.31-0.806v-17.979c0-0.312-0.11-0.562-0.332-0.748c-0.225-0.188-0.531-0.277-0.923-0.277h-2.285V419.887
			z M20.912,421.016c-0.454,0-0.788,0.099-1.006,0.287c-0.216,0.188-0.323,0.479-0.323,0.859v17.811c0,0.36,0.125,0.64,0.377,0.819
			c0.251,0.187,0.681,0.28,1.284,0.28h1.904c1.703,0,3.191-0.438,4.471-1.312c0.836-0.584,1.47-1.401,1.904-2.463
			c0.593-1.428,0.892-3.396,0.892-5.915c0-3.724-0.649-6.45-1.949-8.18c-1.108-1.461-2.781-2.188-5.017-2.188h-2.537V421.016z"/>
		<path fill="#0C00FF" d="M60.126,383.791c4.667,0.057,7.249,3.24,5.765,7.141c-1.426,3.953-6.37,7.084-10.982,7.03
			c-4.614-0.055-7.195-3.295-5.712-7.192C50.625,386.867,55.512,383.736,60.126,383.791z"/>
		<path d="M48.401,419.887h17.672l0.429,7.536h-1.019c-0.402-2.378-1.039-4.04-1.909-4.982c-0.87-0.947-2.003-1.423-3.399-1.423
			h-4.374c-0.352,0-0.617,0.1-0.8,0.287c-0.181,0.189-0.271,0.481-0.271,0.875v7.955h1.916c1.027,0,1.857-0.367,2.495-1.101
			c0.639-0.731,0.984-1.859,1.034-3.377h1.044v10.325h-1.044c-0.05-1.707-0.4-2.931-1.049-3.666
			c-0.649-0.741-1.532-1.109-2.646-1.109h-1.75v8.873c0,0.323,0.109,0.568,0.325,0.742c0.216,0.171,0.575,0.253,1.078,0.253h3.454
			c3.753,0,5.913-2.396,6.486-7.188h1.1l-0.377,8.312H48.4v-1.126h1.523c0.593,0,1.011-0.104,1.252-0.312
			c0.24-0.207,0.362-0.504,0.362-0.896V422.18c0-0.395-0.107-0.685-0.318-0.875c-0.211-0.189-0.541-0.287-0.996-0.287H48.4
			L48.401,419.887L48.401,419.887z"/>
		<path fill="#8F00FF" d="M94.191,376.844c4.669,0.055,7.25,3.241,5.767,7.141c-1.428,3.953-6.371,7.084-10.984,7.029
			c-4.612-0.054-7.193-3.295-5.712-7.191C84.688,379.919,89.579,376.79,94.191,376.844z"/>
		<path d="M82.915,419.887h18.153l0.297,7.726h-1.046c-0.466-2.655-1.115-4.39-1.951-5.191c-0.958-0.936-2.324-1.399-4.099-1.399
			h-3.583c-0.354,0-0.608,0.081-0.772,0.247c-0.161,0.166-0.242,0.414-0.242,0.748v8.043h1.919c1.067,0,1.919-0.352,2.552-1.056
			c0.634-0.706,0.976-1.79,1.027-3.26h1.1v10.083h-1.1c-0.07-1.668-0.412-2.855-1.027-3.57c-0.613-0.712-1.466-1.067-2.552-1.067
			h-1.919v8.521c0,0.503,0.121,0.858,0.362,1.062c0.241,0.211,0.66,0.312,1.253,0.312h2.325v1.123H82.914v-1.127h2.288
			c0.461,0,0.79-0.093,0.984-0.277c0.196-0.186,0.293-0.493,0.293-0.913v-17.758c0-0.396-0.103-0.688-0.309-0.855
			c-0.206-0.176-0.565-0.258-1.076-0.258h-2.181L82.915,419.887L82.915,419.887z"/>
		<path fill="#EC06F9" d="M125.65,368.918c6.096,0.055,11.863,2.361,12.303,7.471c0.33,3.735-4.613,7.137-10.71,7.137
			c-6.151-0.053-11.861-2.305-12.354-7.407C114.559,372.322,119.552,368.918,125.65,368.918z M127.131,382.264
			c2.637,0,4.34-2.529,4.064-4.559c-0.605-4.01-1.979-7.25-5.604-7.25c-2.637,0-4.173,2.581-3.843,4.611
			C122.355,379.078,123.509,382.264,127.131,382.264z"/>
		<path d="M131.76,421.114l1.229-2.225h1.021l0.562,8.903h-0.991c-0.751-2.562-1.64-4.416-2.66-5.562
			c-1.302-1.462-2.795-2.188-4.479-2.188c-1.291,0-2.449,0.367-3.471,1.104c-1.023,0.729-1.809,1.832-2.354,3.298
			c-0.547,1.464-0.819,3.527-0.819,6.188c0,2.582,0.272,4.604,0.821,6.057c0.546,1.454,1.302,2.526,2.264,3.218
			c0.965,0.686,2.096,1.027,3.391,1.027c1.756,0,3.114-0.489,4.074-1.475c0.959-0.981,1.438-2.254,1.438-3.812v-2.095
			c0-0.332-0.13-0.588-0.386-0.769c-0.258-0.179-0.68-0.271-1.262-0.271h-1.893v-1.045h9.357v1.045h-1.268
			c-0.564,0-0.969,0.104-1.211,0.295c-0.242,0.194-0.361,0.479-0.361,0.854v8.532h-0.992c-0.359-1.327-0.737-2.604-1.129-3.821
			c-0.754,1.237-1.649,2.165-2.691,2.784c-1.04,0.617-2.219,0.928-3.537,0.928c-1.88,0-3.624-0.479-5.227-1.446
			c-1.604-0.967-2.871-2.321-3.801-4.08c-0.93-1.754-1.396-3.734-1.396-5.946c0-2.226,0.468-4.213,1.401-5.976
			c0.934-1.759,2.211-3.153,3.832-4.189c1.623-1.037,3.262-1.554,4.92-1.554c0.942,0,1.844,0.157,2.705,0.478
			C129.7,419.686,130.672,420.268,131.76,421.114z"/>
		<path fill="#F70303" d="M163.312,362.952c4.668,0.054,7.25,3.239,5.764,7.138c-1.43,3.956-6.369,7.086-10.98,7.031
			c-4.613-0.055-7.193-3.295-5.711-7.195C153.812,366.027,158.697,362.895,163.312,362.952z"/>
		<path d="M160.374,419.434h1.056l7.993,20.404c0.323,0.821,0.979,1.235,1.976,1.235h0.695v1.126h-8.904v-1.126h0.711
			c0.929,0,1.578-0.104,1.968-0.305c0.259-0.142,0.393-0.354,0.393-0.646c0-0.172-0.032-0.354-0.104-0.543l-1.844-4.73H155.5
			l-1.055,2.715c-0.271,0.724-0.406,1.299-0.406,1.717c0,0.493,0.229,0.916,0.688,1.266c0.459,0.354,1.125,0.526,2.002,0.526h0.754
			v1.128h-8.1v-1.126c0.867,0,1.555-0.188,2.061-0.562c0.502-0.378,0.967-1.094,1.393-2.146L160.374,419.434z M159.959,423.721
			l-3.996,9.951h7.877L159.959,423.721z"/>
		<path fill="#F76806" d="M197.363,356.005c4.671,0.054,7.252,3.24,5.767,7.138c-1.428,3.955-6.372,7.084-10.979,7.031
			c-4.611-0.056-7.194-3.295-5.717-7.195C187.865,359.08,192.752,355.95,197.363,356.005z"/>
		<path d="M185.104,419.887h11.614c2.279,0,4.025,0.504,5.235,1.508c1.211,1.009,1.814,2.269,1.814,3.783
			c0,1.269-0.422,2.34-1.267,3.228c-0.845,0.885-2.112,1.582-3.813,2.095c2.104,0.442,3.682,1.14,4.735,2.093
			c1.052,0.952,1.579,2.152,1.579,3.604c0,1.104-0.302,2.089-0.896,2.939c-0.6,0.856-1.594,1.581-2.98,2.175
			c-1.395,0.6-2.971,0.896-4.742,0.896h-11.273v-1.127h1.838c0.554,0,0.961-0.091,1.214-0.271c0.255-0.179,0.384-0.388,0.384-0.612
			v-17.89c0-0.423-0.124-0.744-0.377-0.959c-0.25-0.218-0.615-0.323-1.102-0.323h-1.961L185.104,419.887L185.104,419.887z
			 M191.727,430.13h4.237c1.302,0,2.336-0.38,3.108-1.14c0.771-0.76,1.156-2.01,1.156-3.742c0-1.07-0.187-1.906-0.549-2.507
			c-0.369-0.604-0.9-1.038-1.606-1.317c-0.7-0.271-1.91-0.41-3.638-0.41c-1.223,0-1.977,0.086-2.271,0.263
			c-0.292,0.178-0.438,0.479-0.438,0.925v7.932V430.13L191.727,430.13z M191.727,431.257v8.608c0,0.399,0.117,0.703,0.355,0.901
			c0.238,0.201,0.664,0.305,1.277,0.305h2.707c1.793,0,3.113-0.395,3.972-1.186s1.282-2.021,1.282-3.688
			c0-1.529-0.441-2.734-1.324-3.615c-0.891-0.881-2.111-1.322-3.676-1.322L191.727,431.257L191.727,431.257z"/>
		<path fill="#F7F006" d="M231.625,348.497c4.67,0.053,7.252,3.239,5.766,7.138c-1.428,3.956-6.367,7.084-10.98,7.031
			c-4.612-0.055-7.188-3.295-5.708-7.195C222.121,351.572,227.014,348.441,231.625,348.497z"/>
		<path d="M235.745,421.08l1.021-2.157h0.938l0.429,8.981h-1.02c-0.663-2.541-1.494-4.416-2.497-5.62
			c-1.243-1.511-2.729-2.266-4.454-2.266c-1.867,0-3.389,0.839-4.562,2.512c-1.175,1.672-1.756,4.503-1.756,8.493
			c0,3.354,0.676,5.909,2.021,7.679c1.146,1.492,2.752,2.232,4.818,2.232c1.809,0,3.324-0.577,4.549-1.738
			c1.225-1.162,2.021-2.914,2.396-5.262h1.072c-0.312,2.654-1.222,4.691-2.729,6.119c-1.509,1.431-3.41,2.143-5.699,2.143
			c-1.856,0-3.562-0.471-5.113-1.402c-1.555-0.938-2.797-2.278-3.727-4.034c-0.93-1.757-1.396-3.681-1.396-5.769
			c0-2.225,0.479-4.311,1.438-6.26c0.963-1.947,2.188-3.412,3.685-4.396c1.495-0.979,3.106-1.468,4.835-1.468
			c0.964,0,1.896,0.169,2.805,0.502C233.7,419.701,234.684,420.277,235.745,421.08z"/>
		<path fill="#00FF00" d="M266.62,342.107c4.666,0.056,7.247,3.242,5.762,7.14c-1.426,3.954-6.372,7.084-10.979,7.028
			c-4.611-0.053-7.19-3.295-5.711-7.192C257.117,345.184,262.004,342.053,266.62,342.107z"/>
		<path d="M253.068,419.885h11.521c1.708,0,3.164,0.306,4.361,0.905c1.484,0.763,2.753,2.037,3.792,3.815
			c1.039,1.776,1.559,3.888,1.559,6.317c0,2.015-0.312,3.825-0.935,5.437c-0.473,1.235-1.198,2.317-2.184,3.246
			c-0.979,0.923-2.178,1.612-3.584,2.077c-1.055,0.345-2.466,0.517-4.224,0.517h-10.319v-1.126h2.118
			c0.535,0,0.903-0.085,1.111-0.255c0.204-0.177,0.31-0.438,0.31-0.802v-17.979c0-0.312-0.105-0.56-0.33-0.746
			c-0.224-0.186-0.531-0.279-0.925-0.279h-2.284L253.068,419.885L253.068,419.885z M261.13,421.014
			c-0.456,0-0.788,0.099-1.006,0.286c-0.217,0.188-0.323,0.479-0.323,0.86v17.809c0,0.361,0.125,0.64,0.379,0.821
			c0.252,0.187,0.682,0.28,1.283,0.28h1.902c1.703,0,3.191-0.438,4.474-1.312c0.834-0.584,1.466-1.404,1.897-2.463
			c0.598-1.428,0.896-3.398,0.896-5.914c0-3.724-0.647-6.451-1.948-8.181c-1.104-1.461-2.781-2.188-5.019-2.188L261.13,421.014
			L261.13,421.014z"/>
		<path fill="#1206FF" d="M300.343,335.162c4.667,0.057,7.248,3.24,5.767,7.141c-1.43,3.953-6.371,7.084-10.982,7.028
			c-4.609-0.056-7.188-3.295-5.71-7.192C290.84,338.238,295.729,335.107,300.343,335.162z"/>
		<path d="M288.617,419.887h17.674l0.43,7.536H305.7c-0.4-2.378-1.036-4.04-1.907-4.982c-0.87-0.947-2.001-1.423-3.396-1.423h-4.373
			c-0.354,0-0.618,0.1-0.803,0.287c-0.182,0.189-0.271,0.481-0.271,0.875v7.955h1.914c1.024,0,1.854-0.367,2.493-1.101
			c0.641-0.731,0.979-1.859,1.033-3.377h1.045v10.325h-1.045c-0.051-1.707-0.397-2.931-1.048-3.666
			c-0.647-0.741-1.53-1.109-2.646-1.109h-1.748v8.873c0,0.323,0.104,0.568,0.32,0.742c0.221,0.171,0.576,0.253,1.078,0.253h3.457
			c3.75,0,5.91-2.396,6.483-7.188h1.102l-0.379,8.312h-18.396v-1.126h1.525c0.594,0,1.012-0.104,1.25-0.312
			c0.239-0.207,0.36-0.504,0.36-0.896V422.18c0-0.395-0.104-0.685-0.313-0.875c-0.213-0.189-0.543-0.287-0.996-0.287h-1.824V419.887
			L288.617,419.887z"/>
		<path fill="#6C00F9" d="M334.405,328.215c4.668,0.055,7.249,3.24,5.766,7.141c-1.428,3.953-6.372,7.084-10.984,7.028
			c-4.608-0.056-7.188-3.295-5.71-7.192C324.904,331.29,329.791,328.16,334.405,328.215z"/>
		<path d="M323.131,419.887h18.154l0.295,7.726h-1.046c-0.462-2.655-1.111-4.39-1.95-5.191c-0.961-0.936-2.325-1.399-4.097-1.399
			h-3.588c-0.354,0-0.608,0.081-0.771,0.247s-0.243,0.414-0.243,0.748v8.043h1.918c1.065,0,1.917-0.352,2.555-1.056
			c0.633-0.706,0.974-1.79,1.021-3.26h1.104v10.083h-1.104c-0.07-1.668-0.409-2.855-1.021-3.57c-0.61-0.712-1.471-1.067-2.555-1.067
			h-1.918v8.521c0,0.503,0.117,0.858,0.362,1.062c0.243,0.211,0.662,0.312,1.252,0.312h2.324v1.123h-10.697v-1.127h2.289
			c0.463,0,0.788-0.093,0.985-0.277c0.189-0.186,0.292-0.493,0.292-0.913v-17.758c0-0.396-0.104-0.688-0.312-0.855
			c-0.204-0.176-0.562-0.258-1.075-0.258h-2.181v-1.127h0.003v-0.002h0.004V419.887L323.131,419.887z"/>
		<path fill="#EC00FF" d="M368.84,320.73c4.668,0.055,7.249,3.24,5.77,7.14c-1.432,3.954-6.37,7.084-10.984,7.028
			c-4.612-0.053-7.191-3.295-5.71-7.192C359.336,323.807,364.225,320.675,368.84,320.73z"/>
		<path d="M371.599,421.114l1.229-2.225h1.02l0.562,8.903h-0.992c-0.752-2.562-1.636-4.416-2.659-5.562
			c-1.303-1.462-2.796-2.188-4.479-2.188c-1.292,0-2.452,0.367-3.473,1.104c-1.021,0.729-1.809,1.832-2.354,3.298
			c-0.545,1.464-0.821,3.527-0.821,6.188c0,2.582,0.273,4.604,0.823,6.057c0.544,1.454,1.302,2.526,2.264,3.218
			c0.964,0.686,2.1,1.027,3.395,1.027c1.755,0,3.108-0.489,4.069-1.475c0.96-0.981,1.438-2.254,1.438-3.812v-2.095
			c0-0.332-0.126-0.588-0.386-0.769c-0.256-0.179-0.684-0.271-1.266-0.271h-1.894v-1.045h9.356v1.045h-1.269
			c-0.562,0-0.969,0.104-1.211,0.295c-0.244,0.194-0.363,0.479-0.363,0.854v8.532h-0.988c-0.36-1.327-0.737-2.604-1.129-3.821
			c-0.754,1.237-1.648,2.165-2.688,2.784c-1.039,0.617-2.221,0.928-3.539,0.928c-1.881,0-3.62-0.479-5.229-1.446
			c-1.604-0.967-2.868-2.321-3.803-4.08c-0.93-1.754-1.396-3.734-1.396-5.946c0-2.226,0.467-4.213,1.396-5.976
			c0.938-1.759,2.214-3.153,3.835-4.189c1.617-1.037,3.262-1.554,4.914-1.554c0.947,0,1.85,0.157,2.705,0.478
			C369.543,419.686,370.513,420.268,371.599,421.114z"/>
		<path fill="#F7E608" d="M-8.589,400.27c4.667,0.057,7.249,3.24,5.766,7.141c-1.428,3.957-6.371,7.088-10.984,7.027
			c-4.614-0.054-7.192-3.295-5.71-7.189C-18.092,403.348-13.203,400.214-8.589,400.27z"/>
		<path d="M-4.47,421.08l1.022-2.157h0.938l0.429,8.981H-3.1c-0.666-2.541-1.495-4.416-2.498-5.62
			c-1.247-1.511-2.73-2.266-4.456-2.266c-1.867,0-3.387,0.839-4.561,2.512c-1.175,1.672-1.758,4.503-1.758,8.493
			c0,3.354,0.676,5.909,2.018,7.679c1.146,1.492,2.753,2.232,4.822,2.232c1.809,0,3.325-0.577,4.549-1.738
			c1.223-1.162,2.024-2.914,2.396-5.262h1.073c-0.312,2.654-1.22,4.691-2.729,6.119c-1.508,1.431-3.409,2.143-5.698,2.143
			c-1.86,0-3.565-0.471-5.117-1.402c-1.55-0.938-2.795-2.278-3.724-4.034c-0.929-1.757-1.395-3.681-1.395-5.769
			c0-2.225,0.479-4.311,1.438-6.26c0.96-1.947,2.187-3.412,3.684-4.396c1.494-0.979,3.107-1.468,4.835-1.468
			c0.963,0,1.896,0.169,2.8,0.502C-6.515,419.701-5.532,420.277-4.47,421.08z"/>
		<line fill="none" stroke="#000000" x1="-27.206" y1="407.312" x2="5.115" y2="407.312"/>
		<path d="M3.841,421.025v0.832H2.774v2.102H1.805v-2.102h-3.367v-0.752l3.691-5.271h0.645v5.188h1.067V421.025z M1.804,421.025
			v-3.949l-2.792,3.949H1.804z"/>
		<path d="M346.863,416.005l-0.458,0.997h-2.396l-0.521,1.068c1.038,0.149,1.854,0.535,2.466,1.153
			c0.52,0.53,0.781,1.155,0.781,1.878c0,0.415-0.088,0.807-0.259,1.159c-0.171,0.356-0.386,0.659-0.644,0.909
			c-0.257,0.248-0.545,0.451-0.861,0.605c-0.447,0.215-0.906,0.32-1.385,0.32c-0.478,0-0.824-0.079-1.043-0.242
			c-0.218-0.162-0.323-0.342-0.323-0.536c0-0.109,0.044-0.206,0.139-0.29c0.09-0.084,0.201-0.126,0.34-0.126
			c0.103,0,0.188,0.015,0.265,0.047c0.077,0.03,0.208,0.106,0.396,0.239c0.292,0.201,0.591,0.307,0.892,0.307
			c0.458,0,0.858-0.174,1.204-0.521c0.349-0.347,0.52-0.768,0.52-1.262c0-0.479-0.15-0.93-0.463-1.348
			c-0.31-0.416-0.731-0.739-1.274-0.969c-0.432-0.175-1.012-0.274-1.742-0.306l1.521-3.092h2.854V416h-0.004v0.005H346.863z"/>
		<path d="M312.696,416.005l-0.461,0.997h-2.396l-0.521,1.068c1.035,0.149,1.854,0.535,2.463,1.153
			c0.521,0.53,0.776,1.155,0.776,1.878c0,0.415-0.084,0.807-0.255,1.159c-0.171,0.356-0.384,0.659-0.643,0.909
			c-0.256,0.248-0.543,0.451-0.863,0.605c-0.449,0.215-0.908,0.32-1.384,0.32c-0.478,0-0.823-0.079-1.038-0.242
			c-0.219-0.162-0.326-0.342-0.326-0.536c0-0.109,0.045-0.206,0.14-0.29c0.089-0.084,0.198-0.126,0.338-0.126
			c0.103,0,0.188,0.015,0.267,0.047c0.077,0.027,0.206,0.106,0.391,0.239c0.299,0.201,0.596,0.307,0.896,0.307
			c0.461,0,0.861-0.174,1.207-0.521c0.345-0.347,0.52-0.768,0.52-1.262c0-0.479-0.15-0.93-0.464-1.348
			c-0.311-0.416-0.732-0.739-1.275-0.969c-0.43-0.175-1.011-0.274-1.743-0.306l1.521-3.092L312.696,416.005L312.696,416.005
			L312.696,416.005z"/>
		<path d="M278.527,416.005l-0.457,0.997h-2.396l-0.521,1.068c1.035,0.149,1.856,0.535,2.466,1.153
			c0.521,0.53,0.778,1.155,0.778,1.878c0,0.415-0.086,0.807-0.254,1.159c-0.172,0.356-0.388,0.659-0.645,0.909
			c-0.258,0.248-0.544,0.451-0.861,0.605c-0.449,0.215-0.91,0.32-1.386,0.32s-0.823-0.079-1.039-0.242
			c-0.218-0.162-0.327-0.342-0.327-0.536c0-0.109,0.047-0.206,0.137-0.29s0.203-0.126,0.344-0.126c0.101,0,0.188,0.015,0.267,0.047
			c0.077,0.03,0.204,0.106,0.394,0.239c0.293,0.201,0.59,0.307,0.893,0.307c0.459,0,0.859-0.174,1.205-0.521
			c0.348-0.347,0.521-0.768,0.521-1.262c0-0.479-0.154-0.93-0.469-1.348c-0.309-0.416-0.73-0.739-1.273-0.969
			c-0.428-0.175-1.01-0.274-1.742-0.306l1.523-3.092h2.853V416h-0.005v0.005H278.527z"/>
		<path d="M244.359,416.005l-0.457,0.997h-2.396l-0.521,1.068c1.039,0.149,1.856,0.535,2.469,1.153
			c0.521,0.53,0.775,1.155,0.775,1.878c0,0.415-0.086,0.807-0.254,1.159c-0.174,0.356-0.387,0.659-0.643,0.909
			c-0.26,0.248-0.547,0.451-0.863,0.605c-0.451,0.215-0.91,0.32-1.386,0.32c-0.478,0-0.823-0.079-1.039-0.242
			c-0.219-0.162-0.325-0.342-0.325-0.536c0-0.109,0.043-0.206,0.135-0.29s0.203-0.126,0.34-0.126c0.104,0,0.19,0.015,0.27,0.047
			c0.077,0.03,0.208,0.106,0.393,0.239c0.293,0.201,0.594,0.307,0.896,0.307c0.457,0,0.858-0.174,1.203-0.521
			c0.347-0.347,0.521-0.768,0.521-1.262c0-0.479-0.152-0.93-0.465-1.348c-0.311-0.416-0.734-0.739-1.279-0.969
			c-0.426-0.175-1.006-0.274-1.739-0.306l1.522-3.092L244.359,416.005L244.359,416.005L244.359,416.005z"/>
		<path d="M208.852,421.025v0.832h-1.065v2.102h-0.972v-2.102h-3.362v-0.752l3.688-5.271h0.646v5.188h1.065V421.025z
			 M206.812,421.025v-3.949l-2.791,3.949H206.812z"/>
		<path d="M171.249,421.025v0.832h-1.067v2.102h-0.969v-2.102h-3.367v-0.752l3.69-5.271h0.646v5.188h1.067V421.025z
			 M169.213,421.025v-3.949l-2.792,3.949H169.213z"/>
		<path d="M140.514,421.025v0.832h-1.068v2.102h-0.967v-2.102h-3.369v-0.752l3.691-5.271h0.645v5.188h1.068V421.025z
			 M138.479,421.025v-3.949l-2.791,3.949H138.479z"/>
		<path d="M108.062,421.025v0.832h-1.069v2.102h-0.967v-2.102h-3.367v-0.752l3.689-5.271h0.646v5.188h1.069L108.062,421.025
			L108.062,421.025z M106.027,421.025v-3.949l-2.792,3.949H106.027z"/>
		<path d="M72.177,421.025v0.832h-1.068v2.102h-0.967v-2.102h-3.367v-0.752l3.689-5.271h0.645v5.188h1.068V421.025z M70.142,421.025
			v-3.949l-2.792,3.949H70.142z"/>
		<path d="M38.01,421.025v0.832h-1.067v2.102h-0.969v-2.102h-3.367v-0.752l3.69-5.271h0.646v5.188h1.067V421.025z M35.974,421.025
			v-3.949l-2.792,3.949H35.974z"/>
		<path d="M381.031,416.005l-0.459,0.997h-2.396l-0.521,1.068c1.037,0.149,1.854,0.535,2.465,1.153
			c0.521,0.53,0.779,1.155,0.779,1.878c0,0.415-0.085,0.807-0.259,1.159c-0.171,0.356-0.384,0.659-0.642,0.909
			c-0.256,0.248-0.543,0.451-0.863,0.605c-0.445,0.215-0.91,0.32-1.384,0.32c-0.477,0-0.825-0.079-1.039-0.242
			c-0.218-0.162-0.325-0.342-0.325-0.536c0-0.109,0.043-0.206,0.14-0.29c0.089-0.084,0.197-0.126,0.337-0.126
			c0.104,0,0.188,0.015,0.268,0.047c0.077,0.027,0.206,0.106,0.391,0.239c0.299,0.201,0.596,0.307,0.896,0.307
			c0.459,0,0.861-0.174,1.207-0.521c0.345-0.347,0.52-0.768,0.52-1.262c0-0.479-0.15-0.93-0.465-1.348
			c-0.312-0.416-0.733-0.739-1.274-0.969c-0.43-0.175-1.011-0.274-1.745-0.306l1.523-3.092h2.854V416h-0.004L381.031,416.005
			L381.031,416.005z"/>
		<path d="M-77.501,462.125v-1.044h462.473v1.044H-77.501z M-77.501,476.125v-1.152h462.473v1.152H-77.501z M-77.501,490.02v-1.043
			h462.473v1.043H-77.501z M-77.501,503.914v-1.044h462.473v1.044H-77.501z M-77.501,517.809v-1.043h462.473v1.043H-77.501z"/>
		<path fill="#5406FF" d="M26.4,517.738c4.669,0.055,7.25,3.242,5.767,7.14c-1.428,3.955-6.371,7.086-10.984,7.028
			c-4.612-0.053-7.193-3.295-5.712-7.191C16.899,520.814,21.788,517.686,26.4,517.738z"/>
		<path d="M183.891,545.868h11.523c1.709,0,3.164,0.301,4.359,0.903c1.484,0.764,2.752,2.034,3.791,3.813
			c1.041,1.78,1.562,3.887,1.562,6.32c0,2.011-0.312,3.821-0.937,5.434c-0.476,1.237-1.199,2.317-2.183,3.243
			c-0.979,0.923-2.176,1.617-3.584,2.083c-1.054,0.339-2.465,0.512-4.224,0.512h-10.317v-1.127H186c0.538,0,0.904-0.084,1.111-0.255
			s0.31-0.438,0.31-0.801V548.02c0-0.312-0.106-0.56-0.332-0.745c-0.223-0.187-0.528-0.278-0.921-0.278h-2.284v-1.126
			L183.891,545.868L183.891,545.868z M191.949,546.992c-0.455,0-0.787,0.098-1.006,0.287c-0.217,0.188-0.323,0.478-0.323,0.856
			v17.812c0,0.358,0.124,0.636,0.379,0.817c0.252,0.188,0.681,0.281,1.284,0.281h1.902c1.697,0,3.188-0.438,4.472-1.312
			c0.834-0.585,1.468-1.404,1.903-2.464c0.594-1.43,0.892-3.397,0.892-5.916c0-3.727-0.647-6.447-1.95-8.18
			c-1.109-1.463-2.779-2.188-5.016-2.188L191.949,546.992L191.949,546.992z"/>
		<path fill="#8800FF" d="M60.126,510.791c4.667,0.057,7.249,3.239,5.765,7.141c-1.426,3.953-6.37,7.084-10.982,7.029
			c-4.614-0.055-7.195-3.295-5.712-7.193C50.625,513.866,55.512,510.734,60.126,510.791z"/>
		<path d="M219.412,545.868h17.672l0.43,7.535h-1.021c-0.397-2.38-1.035-4.039-1.907-4.988c-0.87-0.944-2.001-1.419-3.396-1.419
			h-4.373c-0.354,0-0.616,0.098-0.801,0.286c-0.184,0.188-0.271,0.479-0.271,0.877v7.954h1.914c1.024,0,1.854-0.367,2.495-1.104
			c0.638-0.731,0.979-1.856,1.031-3.38h1.047v10.326h-1.047c-0.051-1.706-0.396-2.928-1.049-3.667
			c-0.646-0.738-1.529-1.107-2.646-1.107h-1.75v8.873c0,0.322,0.106,0.567,0.323,0.74c0.215,0.172,0.572,0.254,1.074,0.254h3.459
			c3.75,0,5.908-2.396,6.483-7.188h1.103l-0.379,8.312h-18.396v-1.128h1.525c0.594,0,1.01-0.104,1.25-0.308
			c0.24-0.206,0.359-0.506,0.359-0.898V548.15c0-0.396-0.104-0.687-0.314-0.877c-0.213-0.19-0.541-0.286-0.994-0.286h-1.824
			L219.412,545.868L219.412,545.868z"/>
		<path fill="#F70606" d="M94.191,503.844c4.669,0.06,7.25,3.241,5.767,7.144c-1.428,3.95-6.371,7.084-10.984,7.026
			c-4.612-0.055-7.193-3.295-5.712-7.188C84.688,506.919,89.579,503.79,94.191,503.844z"/>
		<path d="M254.244,545.868h18.154l0.295,7.723h-1.045c-0.467-2.655-1.111-4.39-1.949-5.189c-0.959-0.938-2.325-1.401-4.102-1.401
			h-3.584c-0.354,0-0.604,0.083-0.771,0.249c-0.161,0.166-0.241,0.414-0.241,0.746v8.047h1.917c1.068,0,1.921-0.354,2.553-1.057
			c0.635-0.707,0.979-1.791,1.027-3.263h1.104v10.082h-1.104c-0.068-1.668-0.412-2.854-1.027-3.567
			c-0.609-0.712-1.466-1.067-2.553-1.067h-1.917v8.521c0,0.505,0.121,0.855,0.36,1.062c0.24,0.207,0.66,0.312,1.254,0.312h2.322
			v1.121h-10.695v-1.127h2.285c0.467,0,0.791-0.093,0.983-0.274c0.194-0.188,0.296-0.493,0.296-0.915v-17.749
			c0-0.398-0.104-0.688-0.312-0.858c-0.204-0.173-0.562-0.255-1.076-0.255h-2.18L254.244,545.868L254.244,545.868z"/>
		<path d="M302.624,548.089l1.228-2.223h1.021l0.562,8.898h-0.988c-0.752-2.562-1.639-4.416-2.66-5.562
			c-1.305-1.458-2.797-2.188-4.479-2.188c-1.293,0-2.453,0.367-3.474,1.104c-1.022,0.729-1.812,1.834-2.354,3.299
			c-0.545,1.466-0.817,3.532-0.817,6.188c0,2.58,0.271,4.601,0.817,6.056c0.549,1.456,1.307,2.526,2.269,3.218
			c0.962,0.688,2.097,1.03,3.39,1.03c1.758,0,3.114-0.492,4.075-1.479c0.96-0.979,1.438-2.252,1.438-3.811v-2.093
			c0-0.332-0.127-0.587-0.385-0.771c-0.261-0.182-0.683-0.271-1.266-0.271h-1.893v-1.045h9.356v1.045h-1.271
			c-0.563,0-0.969,0.103-1.211,0.295c-0.24,0.191-0.361,0.479-0.361,0.853v8.534h-0.992c-0.355-1.327-0.732-2.604-1.126-3.821
			c-0.753,1.235-1.651,2.164-2.688,2.785c-1.041,0.615-2.223,0.929-3.541,0.929c-1.881,0-3.618-0.48-5.228-1.445
			c-1.604-0.967-2.868-2.325-3.801-4.079c-0.931-1.757-1.396-3.738-1.396-5.95c0-2.224,0.467-4.214,1.399-5.974
			c0.935-1.764,2.212-3.155,3.833-4.193c1.619-1.034,3.259-1.55,4.917-1.55c0.944,0,1.847,0.159,2.705,0.475
			C300.564,546.66,301.537,547.242,302.624,548.089z"/>
		<path fill="#FFE600" d="M163.312,489.951c4.668,0.053,7.25,3.24,5.764,7.139c-1.43,3.955-6.369,7.086-10.98,7.03
			c-4.613-0.056-7.193-3.295-5.711-7.194C153.812,493.027,158.697,489.895,163.312,489.951z"/>
		<path d="M331.298,545.868h1.056l7.995,20.403c0.321,0.821,0.979,1.232,1.978,1.232h0.692v1.128h-8.901v-1.128h0.711
			c0.926,0,1.579-0.101,1.965-0.302c0.258-0.144,0.392-0.354,0.392-0.646c0-0.17-0.031-0.353-0.104-0.543l-1.843-4.729h-8.812
			l-1.053,2.712c-0.272,0.722-0.408,1.297-0.408,1.716c0,0.492,0.232,0.915,0.688,1.266c0.459,0.354,1.126,0.526,2.001,0.526h0.755
			v1.128h-8.103v-1.127c0.866,0,1.558-0.186,2.061-0.562c0.504-0.379,0.969-1.095,1.393-2.148L331.298,545.868z M330.884,550.155
			l-3.995,9.952h7.877L330.884,550.155z"/>
		<path fill="#06FC1D" d="M197.09,483.005c4.669,0.056,7.252,3.241,5.766,7.138c-1.428,3.957-6.371,7.086-10.979,7.032
			c-4.613-0.055-7.193-3.296-5.715-7.191C187.589,486.082,192.479,482.949,197.09,483.005z"/>
		<path d="M356.088,545.868h11.614c2.279,0,4.021,0.502,5.236,1.506c1.21,1.006,1.812,2.265,1.812,3.783
			c0,1.266-0.422,2.338-1.264,3.225c-0.849,0.886-2.115,1.582-3.817,2.095c2.108,0.442,3.686,1.144,4.739,2.095
			c1.049,0.952,1.579,2.149,1.579,3.604c0,1.107-0.305,2.089-0.898,2.943c-0.597,0.854-1.592,1.58-2.979,2.173
			c-1.396,0.598-2.974,0.895-4.741,0.895h-11.274v-1.127h1.835c0.557,0,0.96-0.091,1.213-0.271c0.259-0.181,0.388-0.39,0.388-0.615
			v-17.886c0-0.421-0.124-0.743-0.375-0.957c-0.251-0.219-0.617-0.324-1.104-0.324h-1.96v-1.134h-0.002L356.088,545.868
			L356.088,545.868z M362.71,556.109h4.238c1.301,0,2.335-0.381,3.104-1.144c0.771-0.761,1.156-2.009,1.156-3.742
			c0-1.067-0.183-1.901-0.55-2.506c-0.369-0.604-0.9-1.039-1.605-1.314c-0.697-0.275-1.911-0.413-3.637-0.413
			c-1.221,0-1.973,0.089-2.27,0.262c-0.292,0.176-0.439,0.482-0.439,0.926L362.71,556.109L362.71,556.109z M362.71,557.237v8.605
			c0,0.401,0.117,0.703,0.354,0.904c0.236,0.2,0.666,0.301,1.273,0.301h2.709c1.793,0,3.112-0.394,3.97-1.183
			c0.858-0.791,1.284-2.021,1.284-3.69c0-1.528-0.438-2.731-1.325-3.612c-0.891-0.884-2.108-1.321-3.676-1.321L362.71,557.237
			L362.71,557.237z"/>
		<path fill="#0000FF" d="M231.377,475.496c4.67,0.054,7.251,3.241,5.764,7.139c-1.428,3.957-6.367,7.088-10.979,7.03
			c-4.614-0.054-7.188-3.295-5.708-7.192C221.874,478.573,226.766,475.441,231.377,475.496z"/>
		<path fill="#F45C08" d="M128.755,496.141c4.666,0.056,7.247,3.238,5.763,7.141c-1.428,3.954-6.373,7.085-10.981,7.027
			c-4.614-0.054-7.193-3.295-5.712-7.189C119.252,499.213,124.139,496.082,128.755,496.141z"/>
		<path fill="#F803FF" d="M300.242,462.162c4.667,0.057,7.248,3.238,5.764,7.141c-1.428,3.953-6.369,7.084-10.98,7.03
			c-4.612-0.056-7.19-3.297-5.711-7.192C290.739,465.237,295.628,462.105,300.242,462.162z"/>
		<path d="M-19.936,545.868h17.673l0.429,7.535h-1.021c-0.399-2.38-1.036-4.039-1.907-4.988c-0.87-0.944-2.001-1.419-3.397-1.419
			h-4.374c-0.352,0-0.619,0.098-0.8,0.286c-0.183,0.188-0.271,0.479-0.271,0.877v7.954h1.916c1.025,0,1.857-0.367,2.492-1.104
			c0.64-0.731,0.982-1.856,1.036-3.38h1.046v10.326H-8.16c-0.05-1.706-0.401-2.928-1.047-3.667c-0.65-0.738-1.532-1.107-2.648-1.107
			h-1.75v8.873c0,0.322,0.107,0.567,0.322,0.74c0.22,0.172,0.578,0.254,1.081,0.254h3.456c3.751,0,5.912-2.396,6.485-7.188h1.101
			l-0.377,8.312h-18.401v-1.128h1.527c0.593,0,1.011-0.104,1.25-0.308c0.241-0.206,0.362-0.506,0.362-0.898V548.15
			c0-0.396-0.105-0.687-0.317-0.877c-0.211-0.19-0.543-0.286-0.995-0.286h-1.825V545.868L-19.936,545.868z"/>
		<path fill="#FF0000" d="M334.244,455.215c4.666,0.06,7.249,3.241,5.766,7.144c-1.428,3.95-6.372,7.084-10.98,7.026
			c-4.612-0.055-7.191-3.296-5.712-7.188C324.74,458.291,329.629,455.16,334.244,455.215z"/>
		<path d="M15.057,545.868H33.21l0.296,7.723h-1.045c-0.464-2.655-1.113-4.39-1.951-5.189c-0.96-0.938-2.325-1.401-4.098-1.401
			h-3.586c-0.352,0-0.608,0.083-0.771,0.249c-0.161,0.166-0.242,0.414-0.242,0.746v8.047h1.917c1.066,0,1.917-0.354,2.551-1.057
			c0.632-0.707,0.974-1.791,1.026-3.263h1.103v10.082h-1.101c-0.07-1.668-0.409-2.854-1.025-3.567
			c-0.61-0.712-1.467-1.067-2.551-1.067h-1.917v8.521c0,0.505,0.117,0.855,0.362,1.062c0.243,0.207,0.661,0.312,1.252,0.312h2.325
			v1.121H15.057v-1.127h2.289c0.463,0,0.788-0.093,0.984-0.274c0.195-0.188,0.292-0.493,0.292-0.915v-17.749
			c0-0.398-0.101-0.688-0.309-0.858c-0.205-0.173-0.563-0.255-1.076-0.255h-2.18v-1.128h0.001L15.057,545.868L15.057,545.868z"/>
		<path fill="#FF9D00" d="M368.619,447.73c4.668,0.054,7.249,3.237,5.766,7.14c-1.429,3.953-6.372,7.084-10.98,7.028
			c-4.614-0.056-7.192-3.298-5.711-7.191C359.114,450.807,364.003,447.675,368.619,447.73z"/>
		<path d="M64.549,548.089l1.229-2.223h1.019l0.563,8.898h-0.992c-0.751-2.562-1.636-4.416-2.66-5.562
			c-1.302-1.458-2.796-2.188-4.479-2.188c-1.292,0-2.452,0.367-3.469,1.104c-1.024,0.729-1.807,1.834-2.353,3.299
			c-0.545,1.466-0.821,3.532-0.821,6.188c0,2.58,0.273,4.601,0.823,6.056c0.546,1.458,1.302,2.526,2.266,3.218
			c0.962,0.688,2.093,1.03,3.389,1.03c1.757,0,3.114-0.492,4.073-1.479c0.96-0.979,1.438-2.252,1.438-3.811v-2.093
			c0-0.332-0.125-0.587-0.385-0.771c-0.256-0.182-0.681-0.271-1.262-0.271h-1.894v-1.045h9.357v1.045h-1.267
			c-0.565,0-0.969,0.103-1.21,0.295c-0.245,0.191-0.364,0.479-0.364,0.853v8.534h-0.991c-0.362-1.327-0.739-2.604-1.128-3.821
			c-0.75,1.235-1.651,2.164-2.69,2.785c-1.039,0.615-2.221,0.929-3.54,0.929c-1.88,0-3.62-0.48-5.226-1.445
			c-1.606-0.967-2.871-2.325-3.801-4.079c-0.93-1.757-1.396-3.738-1.396-5.95c0-2.224,0.466-4.214,1.399-5.974
			c0.933-1.764,2.212-3.155,3.833-4.193c1.619-1.034,3.26-1.55,4.916-1.55c0.947,0,1.845,0.159,2.705,0.475
			C62.491,546.66,63.465,547.242,64.549,548.089z"/>
		<path fill="#0600FF" d="M-8.589,527.27c4.667,0.057,7.249,3.24,5.766,7.141c-1.428,3.957-6.371,7.088-10.984,7.03
			c-4.614-0.056-7.192-3.298-5.71-7.192C-18.092,530.348-13.203,527.214-8.589,527.27z"/>
		<path d="M166.542,548.08l1.021-2.157h0.939l0.43,8.981h-1.021c-0.663-2.54-1.494-4.416-2.496-5.619
			c-1.246-1.51-2.729-2.264-4.455-2.264c-1.867,0-3.388,0.836-4.562,2.51c-1.174,1.673-1.756,4.504-1.756,8.494
			c0,3.354,0.674,5.91,2.018,7.678c1.146,1.49,2.752,2.234,4.82,2.234c1.81,0,3.326-0.578,4.549-1.74
			c1.225-1.163,2.021-2.914,2.396-5.258h1.072c-0.312,2.649-1.222,4.688-2.729,6.114c-1.508,1.431-3.408,2.144-5.699,2.144
			c-1.856,0-3.562-0.469-5.111-1.402c-1.555-0.936-2.796-2.277-3.727-4.033c-0.93-1.758-1.396-3.682-1.396-5.77
			c0-2.221,0.479-4.312,1.438-6.26c0.963-1.948,2.188-3.413,3.685-4.396c1.496-0.979,3.106-1.468,4.838-1.468
			c0.962,0,1.894,0.169,2.802,0.502C164.497,546.701,165.479,547.277,166.542,548.08z"/>
		<line fill="none" stroke="#000000" x1="-27.206" y1="534.311" x2="5.115" y2="534.311"/>
		<path d="M3.759,549.426l-0.558,1.533h-4.693v-0.218c1.379-1.259,2.354-2.286,2.917-3.084s0.845-1.529,0.845-2.188
			c0-0.504-0.154-0.918-0.464-1.242c-0.309-0.325-0.679-0.483-1.108-0.483c-0.392,0-0.744,0.108-1.052,0.342
			c-0.312,0.229-0.54,0.564-0.691,1.006h-0.216c0.099-0.723,0.349-1.274,0.754-1.668c0.404-0.386,0.91-0.58,1.515-0.58
			c0.646,0,1.185,0.208,1.618,0.622c0.431,0.414,0.646,0.903,0.646,1.468c0,0.399-0.095,0.808-0.281,1.205
			c-0.289,0.638-0.759,1.31-1.408,2.019c-0.972,1.062-1.583,1.703-1.824,1.923h2.077c0.422,0,0.719-0.02,0.888-0.046
			c0.173-0.033,0.325-0.099,0.462-0.19c0.138-0.094,0.255-0.229,0.357-0.409h0.216V549.426z"/>
		<path d="M337.108,544.518c0.227-0.539,0.515-0.946,0.856-1.239c0.347-0.291,0.777-0.438,1.294-0.438
			c0.641,0,1.126,0.207,1.466,0.621c0.261,0.309,0.394,0.639,0.394,0.991c0,0.579-0.366,1.178-1.093,1.796
			c0.485,0.19,0.854,0.465,1.105,0.82c0.249,0.354,0.375,0.771,0.375,1.255c0,0.688-0.218,1.284-0.657,1.79
			c-0.565,0.653-1.396,0.981-2.479,0.981c-0.538,0-0.901-0.063-1.096-0.197c-0.191-0.135-0.288-0.274-0.288-0.43
			c0-0.111,0.043-0.214,0.136-0.3c0.092-0.085,0.201-0.129,0.332-0.129c0.097,0,0.197,0.015,0.298,0.047
			c0.067,0.021,0.218,0.091,0.454,0.216c0.234,0.119,0.394,0.193,0.484,0.22c0.145,0.041,0.3,0.063,0.465,0.063
			c0.396,0,0.747-0.156,1.04-0.466c0.295-0.312,0.44-0.675,0.44-1.101c0-0.311-0.064-0.607-0.202-0.898
			c-0.104-0.222-0.217-0.388-0.337-0.5c-0.168-0.155-0.396-0.298-0.688-0.425c-0.294-0.129-0.592-0.189-0.896-0.189h-0.188v-0.177
			c0.311-0.038,0.617-0.15,0.929-0.335c0.313-0.186,0.538-0.404,0.679-0.664c0.145-0.258,0.211-0.539,0.211-0.854
			c0-0.396-0.121-0.729-0.38-0.975c-0.25-0.25-0.562-0.374-0.938-0.374c-0.605,0-1.111,0.325-1.521,0.974L337.108,544.518z"/>
		<path d="M306.373,544.518c0.229-0.539,0.516-0.946,0.857-1.239c0.349-0.291,0.774-0.438,1.296-0.438
			c0.637,0,1.125,0.207,1.467,0.621c0.258,0.309,0.385,0.639,0.385,0.991c0,0.579-0.361,1.178-1.089,1.796
			c0.487,0.19,0.858,0.465,1.109,0.82c0.25,0.354,0.375,0.771,0.375,1.255c0,0.688-0.223,1.284-0.656,1.79
			c-0.572,0.653-1.398,0.981-2.482,0.981c-0.534,0-0.896-0.063-1.093-0.197c-0.196-0.135-0.292-0.274-0.292-0.43
			c0-0.111,0.046-0.214,0.139-0.3c0.094-0.085,0.205-0.129,0.33-0.129c0.104,0,0.197,0.015,0.299,0.047
			c0.065,0.021,0.223,0.091,0.453,0.216c0.234,0.119,0.397,0.193,0.487,0.22c0.146,0.041,0.3,0.063,0.465,0.063
			c0.398,0,0.745-0.156,1.039-0.466c0.296-0.312,0.444-0.675,0.444-1.101c0-0.311-0.069-0.607-0.207-0.898
			c-0.104-0.222-0.211-0.388-0.333-0.5c-0.169-0.155-0.397-0.298-0.69-0.425c-0.294-0.129-0.595-0.189-0.896-0.189h-0.188v-0.177
			c0.312-0.038,0.62-0.15,0.938-0.335c0.308-0.186,0.534-0.404,0.677-0.664c0.141-0.258,0.211-0.539,0.211-0.854
			c0-0.396-0.127-0.729-0.379-0.975c-0.253-0.248-0.566-0.374-0.943-0.374c-0.604,0-1.11,0.325-1.519,0.974L306.373,544.518z"/>
		<path d="M273.924,544.518c0.229-0.539,0.514-0.946,0.858-1.239c0.345-0.291,0.776-0.438,1.294-0.438
			c0.637,0,1.124,0.207,1.465,0.621c0.258,0.309,0.389,0.639,0.389,0.991c0,0.579-0.363,1.178-1.093,1.796
			c0.487,0.19,0.858,0.465,1.109,0.82c0.25,0.354,0.375,0.771,0.375,1.255c0,0.688-0.218,1.284-0.656,1.79
			c-0.569,0.653-1.397,0.981-2.479,0.981c-0.535,0-0.896-0.063-1.096-0.197c-0.191-0.135-0.29-0.274-0.29-0.43
			c0-0.111,0.048-0.214,0.14-0.3c0.094-0.085,0.201-0.129,0.328-0.129c0.103,0,0.197,0.015,0.301,0.047
			c0.066,0.021,0.221,0.091,0.451,0.216c0.235,0.119,0.397,0.193,0.486,0.22c0.146,0.041,0.301,0.063,0.465,0.063
			c0.398,0,0.747-0.156,1.041-0.466c0.293-0.312,0.441-0.675,0.441-1.101c0-0.311-0.066-0.607-0.204-0.898
			c-0.101-0.222-0.213-0.388-0.335-0.5c-0.168-0.155-0.396-0.298-0.689-0.425c-0.295-0.129-0.593-0.189-0.896-0.189h-0.188v-0.177
			c0.312-0.038,0.617-0.15,0.935-0.335c0.31-0.186,0.534-0.404,0.677-0.664c0.143-0.258,0.211-0.539,0.211-0.854
			c0-0.396-0.126-0.729-0.379-0.975c-0.251-0.25-0.562-0.374-0.938-0.374c-0.606,0-1.111,0.325-1.521,0.974L273.924,544.518z"/>
		<path d="M238.038,544.518c0.228-0.539,0.514-0.946,0.858-1.239c0.348-0.291,0.774-0.438,1.295-0.438
			c0.639,0,1.125,0.207,1.465,0.621c0.258,0.309,0.389,0.639,0.389,0.991c0,0.579-0.363,1.178-1.091,1.796
			c0.487,0.19,0.856,0.465,1.106,0.82c0.252,0.354,0.377,0.771,0.377,1.255c0,0.688-0.224,1.284-0.658,1.79
			c-0.57,0.653-1.396,0.981-2.481,0.981c-0.534,0-0.897-0.063-1.095-0.197c-0.191-0.135-0.289-0.274-0.289-0.43
			c0-0.111,0.045-0.214,0.137-0.3c0.094-0.085,0.203-0.129,0.332-0.129c0.1,0,0.196,0.015,0.301,0.047
			c0.064,0.021,0.217,0.091,0.45,0.216c0.234,0.119,0.397,0.193,0.487,0.22c0.145,0.041,0.299,0.063,0.463,0.063
			c0.398,0,0.747-0.156,1.041-0.466c0.297-0.312,0.443-0.675,0.443-1.101c0-0.311-0.069-0.607-0.205-0.898
			c-0.104-0.222-0.213-0.388-0.332-0.5c-0.172-0.155-0.399-0.298-0.694-0.425c-0.291-0.129-0.592-0.189-0.896-0.189h-0.188v-0.177
			c0.312-0.038,0.617-0.15,0.931-0.335c0.312-0.186,0.537-0.404,0.678-0.664c0.145-0.258,0.215-0.539,0.215-0.854
			c0-0.396-0.124-0.729-0.381-0.975c-0.252-0.25-0.564-0.374-0.94-0.374c-0.604,0-1.11,0.325-1.521,0.974L238.038,544.518z"/>
		<path d="M205.587,544.518c0.228-0.539,0.513-0.946,0.858-1.239c0.347-0.291,0.777-0.438,1.294-0.438
			c0.637,0,1.126,0.207,1.466,0.621c0.257,0.309,0.388,0.639,0.388,0.991c0,0.579-0.362,1.178-1.091,1.796
			c0.487,0.19,0.857,0.465,1.107,0.82c0.252,0.354,0.377,0.771,0.377,1.255c0,0.688-0.221,1.284-0.658,1.79
			c-0.57,0.653-1.396,0.981-2.479,0.981c-0.539,0-0.9-0.063-1.101-0.197c-0.188-0.135-0.29-0.274-0.29-0.43
			c0-0.111,0.047-0.214,0.141-0.3c0.092-0.085,0.2-0.129,0.332-0.129c0.098,0,0.194,0.015,0.299,0.047
			c0.063,0.021,0.218,0.091,0.453,0.216c0.232,0.119,0.396,0.193,0.481,0.22c0.146,0.041,0.301,0.063,0.466,0.063
			c0.396,0,0.746-0.156,1.039-0.466c0.294-0.312,0.443-0.675,0.443-1.101c0-0.311-0.067-0.607-0.203-0.898
			c-0.104-0.222-0.213-0.388-0.335-0.5c-0.171-0.155-0.396-0.298-0.688-0.425c-0.298-0.129-0.597-0.189-0.896-0.189h-0.188v-0.177
			c0.31-0.038,0.618-0.15,0.933-0.335c0.312-0.186,0.537-0.404,0.681-0.664c0.142-0.258,0.209-0.539,0.209-0.854
			c0-0.396-0.124-0.729-0.379-0.975c-0.249-0.25-0.562-0.374-0.938-0.374c-0.605,0-1.113,0.325-1.521,0.974L205.587,544.518z"/>
		<path d="M169.701,544.518c0.226-0.539,0.513-0.946,0.857-1.239c0.348-0.291,0.774-0.438,1.293-0.438
			c0.64,0,1.127,0.207,1.467,0.621c0.258,0.309,0.388,0.639,0.388,0.991c0,0.579-0.363,1.178-1.091,1.796
			c0.488,0.19,0.857,0.465,1.107,0.82c0.252,0.354,0.377,0.771,0.377,1.255c0,0.688-0.223,1.284-0.658,1.79
			c-0.569,0.653-1.396,0.981-2.48,0.981c-0.536,0-0.898-0.063-1.096-0.197c-0.191-0.135-0.29-0.274-0.29-0.43
			c0-0.111,0.047-0.214,0.138-0.3c0.094-0.085,0.202-0.129,0.331-0.129c0.099,0,0.198,0.015,0.3,0.047
			c0.066,0.021,0.215,0.091,0.45,0.216c0.235,0.119,0.396,0.193,0.487,0.22c0.145,0.041,0.299,0.063,0.464,0.063
			c0.397,0,0.746-0.156,1.039-0.466c0.297-0.312,0.446-0.675,0.446-1.101c0-0.311-0.07-0.607-0.207-0.898
			c-0.104-0.222-0.213-0.388-0.334-0.5c-0.168-0.155-0.397-0.298-0.692-0.425c-0.292-0.129-0.593-0.189-0.896-0.189h-0.188v-0.177
			c0.31-0.038,0.618-0.15,0.931-0.335c0.311-0.186,0.538-0.404,0.68-0.664c0.144-0.258,0.211-0.539,0.211-0.854
			c0-0.396-0.127-0.729-0.381-0.975c-0.25-0.25-0.563-0.374-0.938-0.374c-0.604,0-1.109,0.325-1.521,0.974L169.701,544.518z"/>
		<path d="M140.432,549.426l-0.559,1.533h-4.691v-0.218c1.381-1.259,2.353-2.286,2.916-3.084c0.562-0.798,0.844-1.529,0.844-2.188
			c0-0.504-0.153-0.918-0.463-1.242c-0.31-0.325-0.68-0.483-1.108-0.483c-0.392,0-0.742,0.108-1.054,0.342
			c-0.312,0.229-0.539,0.564-0.688,1.006h-0.216c0.097-0.723,0.349-1.274,0.752-1.668c0.403-0.386,0.91-0.58,1.517-0.58
			c0.645,0,1.185,0.208,1.616,0.622c0.431,0.414,0.646,0.903,0.646,1.468c0,0.399-0.094,0.808-0.28,1.205
			c-0.288,0.638-0.759,1.31-1.408,2.019c-0.972,1.062-1.582,1.703-1.823,1.923h2.077c0.423,0,0.72-0.02,0.888-0.046
			c0.174-0.033,0.326-0.099,0.463-0.19c0.139-0.094,0.256-0.229,0.356-0.409h0.216L140.432,549.426L140.432,549.426z"/>
		<path d="M104.547,549.426l-0.558,1.533h-4.691v-0.218c1.379-1.259,2.353-2.286,2.915-3.084c0.563-0.798,0.845-1.529,0.845-2.188
			c0-0.504-0.154-0.918-0.462-1.242c-0.31-0.325-0.681-0.483-1.109-0.483c-0.391,0-0.743,0.108-1.051,0.342
			c-0.313,0.229-0.542,0.564-0.691,1.006h-0.216c0.097-0.723,0.349-1.274,0.752-1.668c0.404-0.386,0.91-0.58,1.517-0.58
			c0.646,0,1.183,0.208,1.616,0.622c0.431,0.414,0.647,0.903,0.647,1.468c0,0.399-0.094,0.808-0.282,1.205
			c-0.288,0.638-0.757,1.31-1.406,2.019c-0.974,1.062-1.583,1.703-1.825,1.923h2.077c0.422,0,0.719-0.02,0.89-0.046
			c0.171-0.033,0.323-0.099,0.461-0.19c0.137-0.094,0.256-0.229,0.357-0.409h0.214V549.426z"/>
		<path d="M73.811,549.426l-0.558,1.533h-4.691v-0.218c1.379-1.259,2.353-2.286,2.916-3.084c0.562-0.798,0.843-1.529,0.843-2.188
			c0-0.504-0.154-0.918-0.462-1.242c-0.309-0.325-0.681-0.483-1.11-0.483c-0.39,0-0.742,0.108-1.051,0.342
			c-0.313,0.229-0.541,0.564-0.69,1.006H68.79c0.097-0.723,0.349-1.274,0.754-1.668c0.402-0.386,0.909-0.58,1.515-0.58
			c0.646,0,1.184,0.208,1.616,0.622c0.431,0.414,0.647,0.903,0.647,1.468c0,0.399-0.094,0.808-0.281,1.205
			c-0.289,0.638-0.758,1.31-1.406,2.019c-0.974,1.062-1.583,1.703-1.825,1.923h2.077c0.422,0,0.719-0.02,0.89-0.046
			c0.171-0.033,0.324-0.099,0.461-0.19c0.138-0.094,0.256-0.229,0.357-0.409h0.216V549.426L73.811,549.426z"/>
		<path d="M39.643,549.426l-0.557,1.533h-4.693v-0.218c1.379-1.259,2.353-2.286,2.917-3.084c0.563-0.798,0.845-1.529,0.845-2.188
			c0-0.504-0.156-0.918-0.464-1.242c-0.309-0.325-0.679-0.483-1.108-0.483c-0.392,0-0.744,0.108-1.053,0.342
			c-0.312,0.229-0.541,0.564-0.69,1.006h-0.216c0.099-0.723,0.349-1.274,0.754-1.668c0.402-0.386,0.908-0.58,1.515-0.58
			c0.645,0,1.185,0.208,1.617,0.622c0.431,0.414,0.647,0.903,0.647,1.468c0,0.399-0.096,0.808-0.282,1.205
			c-0.288,0.638-0.759,1.31-1.408,2.019c-0.974,1.062-1.582,1.703-1.825,1.923h2.079c0.42,0,0.719-0.02,0.888-0.046
			c0.171-0.033,0.323-0.099,0.461-0.19c0.137-0.094,0.256-0.229,0.357-0.409h0.216V549.426z"/>
		<path d="M376.428,544.518c0.229-0.539,0.517-0.946,0.857-1.239c0.349-0.291,0.778-0.438,1.294-0.438
			c0.639,0,1.127,0.207,1.469,0.621c0.256,0.309,0.386,0.639,0.386,0.991c0,0.579-0.358,1.178-1.09,1.796
			c0.487,0.19,0.858,0.465,1.107,0.82c0.252,0.354,0.377,0.771,0.377,1.255c0,0.688-0.219,1.284-0.658,1.79
			c-0.571,0.653-1.396,0.981-2.479,0.981c-0.536,0-0.898-0.063-1.099-0.197c-0.19-0.135-0.291-0.274-0.291-0.43
			c0-0.111,0.047-0.214,0.141-0.3c0.096-0.085,0.205-0.129,0.332-0.129c0.1,0,0.194,0.015,0.3,0.047
			c0.062,0.021,0.217,0.091,0.451,0.216c0.232,0.119,0.396,0.193,0.484,0.22c0.146,0.041,0.3,0.063,0.466,0.063
			c0.396,0,0.744-0.156,1.037-0.466c0.297-0.312,0.444-0.675,0.444-1.101c0-0.311-0.069-0.607-0.205-0.898
			c-0.102-0.222-0.211-0.388-0.333-0.5c-0.169-0.155-0.396-0.298-0.691-0.425c-0.294-0.129-0.594-0.189-0.896-0.189h-0.188v-0.177
			c0.312-0.038,0.619-0.15,0.935-0.335c0.309-0.186,0.538-0.404,0.679-0.664c0.142-0.258,0.21-0.539,0.21-0.854
			c0-0.396-0.126-0.729-0.379-0.975c-0.252-0.248-0.562-0.374-0.939-0.374c-0.607,0-1.111,0.325-1.521,0.974L376.428,544.518z"/>
		<path d="M93.834,545.868h1.056l7.995,20.403c0.322,0.821,0.979,1.232,1.974,1.232h0.696v1.128h-8.903v-1.128h0.71
			c0.923,0,1.579-0.101,1.962-0.302c0.26-0.144,0.392-0.354,0.392-0.646c0-0.17-0.035-0.353-0.107-0.543l-1.844-4.729h-8.809
			l-1.052,2.712c-0.273,0.722-0.407,1.297-0.407,1.716c0,0.492,0.231,0.915,0.685,1.266c0.461,0.354,1.126,0.526,2.001,0.526h0.756
			v1.128h-8.1v-1.127c0.868,0,1.554-0.186,2.056-0.562c0.505-0.379,0.969-1.095,1.395-2.148L93.834,545.868z M93.42,550.155
			l-3.994,9.952h7.877L93.42,550.155z"/>
		<path d="M114.871,545.868h11.617c2.279,0,4.025,0.502,5.234,1.506c1.211,1.006,1.813,2.265,1.813,3.783
			c0,1.266-0.421,2.338-1.263,3.225c-0.844,0.886-2.114,1.582-3.819,2.095c2.11,0.442,3.685,1.144,4.741,2.095
			c1.049,0.952,1.58,2.149,1.58,3.604c0,1.107-0.303,2.089-0.898,2.943c-0.598,0.854-1.593,1.58-2.984,2.173
			c-1.39,0.598-2.967,0.895-4.738,0.895H114.88v-1.127h1.835c0.553,0,0.96-0.091,1.213-0.271c0.256-0.181,0.385-0.39,0.385-0.615
			v-17.886c0-0.421-0.125-0.743-0.377-0.957c-0.25-0.219-0.615-0.324-1.101-0.324h-1.962v-1.134h-0.002V545.868z M121.494,556.109
			h4.236c1.301,0,2.336-0.381,3.109-1.144c0.771-0.761,1.156-2.009,1.156-3.742c0-1.067-0.184-1.901-0.551-2.506
			c-0.368-0.604-0.899-1.039-1.604-1.314c-0.7-0.275-1.911-0.413-3.637-0.413c-1.22,0-1.976,0.089-2.271,0.262
			c-0.291,0.176-0.438,0.482-0.438,0.926V556.109L121.494,556.109L121.494,556.109z M121.494,557.237v8.605
			c0,0.401,0.117,0.703,0.355,0.904c0.237,0.2,0.664,0.301,1.276,0.301h2.708c1.793,0,3.111-0.394,3.971-1.183
			c0.858-0.791,1.284-2.021,1.284-3.69c0-1.528-0.442-2.731-1.325-3.612c-0.891-0.884-2.113-1.321-3.676-1.321L121.494,557.237
			L121.494,557.237z"/>
		<path fill="#6200FC" d="M262.52,468.889c6.099,0.058,11.862,2.36,12.305,7.472c0.328,3.733-4.612,7.14-10.709,7.14
			c-6.151-0.054-11.859-2.308-12.355-7.411C251.426,472.292,256.42,468.889,262.52,468.889z M263.999,482.232
			c2.638,0,4.341-2.527,4.065-4.562c-0.606-4.009-1.979-7.25-5.604-7.25c-2.636,0-4.173,2.581-3.841,4.612
			C259.225,479.048,260.377,482.232,263.999,482.232z"/>
		<path id="path2070" fill="#9606F4" d="M-72.441,506.018c3.803-2.565,6.646-4.514,8.472-5.854c1.831-1.321,3.758-2.979,5.732-4.946
			c1.973-1.966,3.634-4.196,4.981-6.672c1.059-1.822,1.974-3.938,2.72-6.337c0.748-2.377,1.133-4.683,1.205-6.864
			c0-2.039-0.265-3.979-0.818-5.81c-0.531-1.852-1.445-3.36-2.745-4.584c-1.299-1.2-2.983-1.8-5.078-1.8
			c-2.021,0-3.924,0.403-5.704,1.194c-1.758,0.817-3.012,2.111-3.707,3.938c0,0.17-0.098,0.384-0.243,0.692
			c0.048,0.389,0.243,0.675,0.604,0.894c0.36,0.216,0.672,0.312,0.962,0.312c0.144,0,0.553-0.069,1.18-0.217
			c0.65-0.145,1.18-0.24,1.612-0.24c1.277,0,2.409,0.457,3.442,1.349c1.013,0.888,1.519,1.966,1.519,3.237
			c0,0.912-0.265,1.774-0.771,2.565c-0.504,0.793-1.203,1.44-2.093,1.896c-0.893,0.479-1.88,0.695-2.936,0.695
			c-1.928,0-3.563-0.578-4.913-1.753c-1.324-1.2-1.998-2.713-1.998-4.607c0-2.429,0.746-4.517,2.214-6.287
			c1.493-1.777,3.37-3.099,5.682-3.982c2.288-0.913,4.599-1.346,6.958-1.346c2.574,0,5.031,0.646,7.317,1.968
			c2.312,1.295,4.118,3.097,5.464,5.327c1.349,2.255,2.048,4.656,2.048,7.249c0,4.607-1.542,8.881-4.622,12.842
			c-3.083,3.962-6.885,7.396-11.436,10.32c-3.032,1.993-7.942,4.682-14.707,8.062L-72.441,506.018z M-39.003,468.887
			c0-0.862,0.312-1.586,0.938-2.162c0.602-0.599,1.349-0.887,2.237-0.887c0.771,0,1.494,0.333,2.144,0.981
			c0.649,0.624,0.962,1.368,0.962,2.186c0,0.863-0.335,1.604-0.962,2.208c-0.673,0.574-1.421,0.862-2.264,0.862
			c-0.89,0-1.612-0.288-2.189-0.938C-38.713,470.518-39.003,469.773-39.003,468.887z M-39.003,481.463
			c0-0.865,0.312-1.609,0.89-2.184c0.6-0.604,1.348-0.892,2.286-0.892c0.771,0,1.47,0.312,2.144,0.959
			c0.627,0.649,0.962,1.349,0.962,2.112c0,0.938-0.313,1.681-0.914,2.281c-0.627,0.601-1.349,0.911-2.192,0.911
			c-0.938,0-1.686-0.313-2.286-0.894C-38.692,483.189-39.003,482.423-39.003,481.463z"/>
	</g>
	<g id="circle">
	</g>
	<g id="guides">
	</g>
	<g id="Layer_3">
		<g>
			<circle fill="none" stroke="#070002" cx="142.372" cy="141.888" r="99.174"/>
			<circle fill="none" stroke="#070002" cx="141.85" cy="142.67" r="81.981"/>
			<g>
				<g>
					<path fill="#00FFFF" d="M12,142.572c0.045-2.906,1.499-5.133,4.361-6.678c2.453-1.317,5.52-1.977,9.199-1.977
						c3.588,0,6.723,0.705,9.403,2.112c3.043,1.591,4.61,3.771,4.702,6.542c0.091,2.952-1.431,5.224-4.565,6.814
						c-2.635,1.271-5.815,1.885-9.54,1.84c-3.543-0.045-6.587-0.75-9.131-2.112C13.431,147.479,11.955,145.298,12,142.572z
						 M24.606,135.009c-0.5,0-1,0.068-1.499,0.204c-2.136,0.545-3.203,2.295-3.203,5.247c0,2.453,0.658,4.679,1.976,6.678
						c1.317,1.998,2.998,2.998,5.042,2.998c0.5,0,1.022-0.067,1.567-0.204c2.407-0.728,3.611-2.657,3.611-5.792
						c0-2.317-0.739-4.418-2.215-6.303C28.41,135.952,26.65,135.009,24.606,135.009z"/>
				</g>
			</g>
			<g>
				<g>
					<path fill="#FE5500" d="M24.343,84.57c0.045-2.907,1.499-5.133,4.361-6.678c2.453-1.317,5.52-1.976,9.199-1.976
						c3.588,0,6.723,0.705,9.403,2.112c3.043,1.591,4.61,3.771,4.702,6.542c0.091,2.953-1.431,5.224-4.565,6.814
						c-2.635,1.271-5.815,1.885-9.54,1.84c-3.543-0.046-6.587-0.75-9.131-2.112C25.774,89.477,24.298,87.296,24.343,84.57z
						 M36.949,77.007c-0.5,0-1,0.068-1.499,0.204c-2.136,0.545-3.203,2.294-3.203,5.247c0,2.453,0.658,4.678,1.976,6.678
						c1.317,1.999,2.998,2.998,5.042,2.998c0.5,0,1.022-0.068,1.567-0.204c2.407-0.728,3.611-2.658,3.611-5.792
						c0-2.317-0.739-4.417-2.215-6.303C40.753,77.95,38.993,77.007,36.949,77.007z"/>
				</g>
			</g>
			<g>
				<g>
					<path fill="#5500FF" d="M127.38,257.232c0.045-2.906,1.499-5.133,4.361-6.678c2.453-1.318,5.52-1.979,9.199-1.979
						c3.588,0,6.723,0.704,9.403,2.11c3.044,1.59,4.611,3.771,4.702,6.541c0.092,2.953-1.432,5.227-4.564,6.814
						c-2.633,1.271-5.813,1.885-9.541,1.84c-3.543-0.046-6.587-0.75-9.131-2.111C128.811,262.139,127.335,259.958,127.38,257.232z
						 M139.986,249.669c-0.5,0-1,0.067-1.499,0.204c-2.136,0.545-3.203,2.295-3.203,5.247c0,2.453,0.658,4.679,1.976,6.678
						c1.317,1.998,2.998,2.998,5.042,2.998c0.5,0,1.022-0.067,1.567-0.204c2.407-0.729,3.611-2.656,3.611-5.792
						c0-2.317-0.739-4.418-2.215-6.303C143.79,250.611,142.03,249.669,139.986,249.669z"/>
				</g>
			</g>
			<g>
				<g>
					<path fill="#5500FF" d="M70.671,43.783c0.045-2.907,1.499-5.133,4.361-6.678c2.453-1.317,5.52-1.976,9.199-1.976
						c3.588,0,6.723,0.705,9.403,2.112c3.043,1.591,4.61,3.771,4.702,6.542c0.091,2.953-1.431,5.224-4.565,6.814
						c-2.635,1.271-5.815,1.885-9.54,1.84c-3.543-0.046-6.587-0.75-9.131-2.112C72.102,48.689,70.626,46.508,70.671,43.783z
						 M83.277,36.219c-0.5,0-1,0.068-1.499,0.204c-2.136,0.545-3.203,2.294-3.203,5.247c0,2.453,0.658,4.678,1.976,6.678
						c1.317,1.999,2.998,2.998,5.042,2.998c0.5,0,1.022-0.068,1.567-0.204c2.407-0.728,3.611-2.658,3.611-5.792
						c0-2.317-0.739-4.417-2.215-6.303C87.081,37.163,85.321,36.219,83.277,36.219z"/>
				</g>
			</g>
			<g>
				<g>
					<path fill="#FFFD32" d="M127.348,30.286c0.045-2.907,1.499-5.133,4.361-6.678c2.453-1.317,5.52-1.976,9.199-1.976
						c3.588,0,6.723,0.705,9.402,2.112c3.043,1.591,4.609,3.771,4.703,6.542c0.09,2.953-1.434,5.224-4.565,6.814
						c-2.635,1.271-5.815,1.885-9.54,1.84c-3.543-0.046-6.587-0.75-9.131-2.112C128.779,35.192,127.303,33.012,127.348,30.286z
						 M139.954,22.723c-0.5,0-1,0.068-1.499,0.204c-2.136,0.545-3.203,2.294-3.203,5.247c0,2.453,0.658,4.678,1.976,6.678
						c1.317,1.999,2.998,2.998,5.042,2.998c0.5,0,1.022-0.068,1.567-0.204c2.407-0.728,3.611-2.658,3.611-5.792
						c0-2.317-0.739-4.417-2.215-6.303C143.758,23.666,141.998,22.723,139.954,22.723z"/>
				</g>
			</g>
			<g>
				<g>
					<path fill="#FE01FF" d="M188.299,44.576c0.045-2.907,1.499-5.133,4.361-6.678c2.453-1.317,5.52-1.976,9.197-1.976
						c3.59,0,6.724,0.705,9.404,2.112c3.043,1.591,4.607,3.771,4.699,6.542c0.094,2.953-1.432,5.224-4.562,6.814
						c-2.635,1.271-5.815,1.885-9.541,1.84c-3.543-0.046-6.586-0.75-9.131-2.112C189.729,49.482,188.254,47.302,188.299,44.576z
						 M200.904,37.013c-0.5,0-1,0.068-1.498,0.204c-2.137,0.545-3.203,2.294-3.203,5.247c0,2.453,0.658,4.678,1.977,6.678
						c1.316,1.999,2.998,2.998,5.043,2.998c0.498,0,1.021-0.068,1.566-0.204c2.406-0.728,3.611-2.658,3.611-5.792
						c0-2.317-0.739-4.417-2.215-6.303C204.709,37.956,202.949,37.013,200.904,37.013z"/>
				</g>
			</g>
			<g enable-background="new    ">
				<path d="M143.291,54.461c-0.3,0.149-0.901,0.31-1.67,0.31c-1.783,0-3.125-1.136-3.125-3.21c0-1.979,1.342-3.321,3.303-3.321
					c0.788,0,1.286,0.169,1.501,0.281l-0.197,0.666c-0.31-0.15-0.75-0.263-1.276-0.263c-1.483,0-2.468,0.948-2.468,2.608
					c0,1.549,0.892,2.544,2.431,2.544c0.497,0,1.004-0.104,1.333-0.263L143.291,54.461z"/>
			</g>
			<g enable-background="new    ">
				<path d="M191.099,66.629c-0.366,0.131-1.089,0.347-1.942,0.347c-0.957,0-1.746-0.244-2.365-0.835
					c-0.544-0.525-0.882-1.37-0.882-2.355c0.009-1.886,1.304-3.266,3.425-3.266c0.732,0,1.305,0.159,1.576,0.291l-0.196,0.666
					c-0.338-0.15-0.761-0.271-1.398-0.271c-1.539,0-2.543,0.957-2.543,2.543c0,1.604,0.967,2.552,2.44,2.552
					c0.534,0,0.9-0.074,1.088-0.169v-1.886h-1.285v-0.657h2.083V66.629z"/>
			</g>
			<g enable-background="new    ">
				<path d="M217.807,93.496c0.498-0.075,1.089-0.132,1.736-0.132c1.173,0,2.008,0.272,2.562,0.788
					c0.562,0.517,0.891,1.248,0.891,2.271c0,1.032-0.318,1.877-0.91,2.459c-0.591,0.591-1.566,0.91-2.797,0.91
					c-0.581,0-1.069-0.028-1.482-0.075V93.496z M218.623,99.089c0.207,0.037,0.507,0.047,0.826,0.047
					c1.746,0,2.693-0.976,2.693-2.684c0.01-1.492-0.836-2.44-2.562-2.44c-0.422,0-0.74,0.038-0.957,0.085V99.089z"/>
			</g>
			<g enable-background="new    ">
				<path d="M231.855,138.388l-0.657,1.989h-0.845l2.149-6.325h0.985l2.158,6.325h-0.873l-0.676-1.989H231.855z M233.93,137.749
					l-0.62-1.82c-0.141-0.413-0.234-0.788-0.328-1.154h-0.019c-0.094,0.376-0.197,0.761-0.319,1.146l-0.62,1.829H233.93z"/>
			</g>
			<g enable-background="new    ">
				<path d="M222.385,188.733h-2.459v2.281h2.74v0.685h-3.557v-6.325h3.416v0.686h-2.6v1.999h2.459V188.733z"/>
			</g>
			<g enable-background="new    ">
				<path d="M183.939,219.065c0.355-0.075,0.919-0.132,1.491-0.132c0.816,0,1.343,0.141,1.736,0.46
					c0.329,0.244,0.525,0.619,0.525,1.117c0,0.609-0.403,1.145-1.069,1.389v0.019c0.6,0.15,1.305,0.647,1.305,1.586
					c0,0.544-0.217,0.957-0.535,1.267c-0.441,0.403-1.154,0.592-2.188,0.592c-0.562,0-0.994-0.038-1.266-0.075V219.065z
					 M184.756,221.655h0.74c0.863,0,1.371-0.45,1.371-1.061c0-0.741-0.563-1.032-1.39-1.032c-0.375,0-0.591,0.028-0.722,0.057
					V221.655z M184.756,224.687c0.158,0.028,0.394,0.037,0.685,0.037c0.845,0,1.623-0.31,1.623-1.229c0-0.863-0.741-1.22-1.633-1.22
					h-0.675V224.687z"/>
			</g>
			<g enable-background="new    ">
				<path d="M146.081,230.646c0,0.362-0.168,0.722-0.506,1.078c-0.163,0.169-0.531,0.476-1.106,0.919
					c-0.507,0.4-0.869,0.741-1.088,1.022v-7.719h0.431v4.174c0.332-0.287,0.725-0.432,1.182-0.432c0.312,0,0.566,0.078,0.76,0.234
					C145.971,230.092,146.081,230.333,146.081,230.646z M145.462,230.729c0-0.394-0.197-0.591-0.591-0.591
					c-0.332,0-0.685,0.163-1.06,0.488v2.072c0.325-0.256,0.628-0.531,0.91-0.825C145.215,231.367,145.462,230.986,145.462,230.729z"
					/>
			</g>
			<g enable-background="new    ">
				<path d="M55.942,140.422c0,0.362-0.168,0.722-0.506,1.078c-0.163,0.169-0.531,0.476-1.106,0.919
					c-0.507,0.4-0.869,0.741-1.088,1.022v-7.719h0.431v4.174c0.332-0.287,0.725-0.432,1.182-0.432c0.312,0,0.566,0.078,0.76,0.234
					C55.833,139.868,55.942,140.109,55.942,140.422z M55.323,140.506c0-0.394-0.197-0.591-0.591-0.591
					c-0.332,0-0.685,0.163-1.06,0.488v2.072c0.325-0.256,0.628-0.531,0.91-0.825C55.076,141.144,55.323,140.763,55.323,140.506z"/>
			</g>
			<g enable-background="new    ">
				<path d="M65.926,96.311c0,0.362-0.168,0.722-0.506,1.078c-0.163,0.169-0.531,0.476-1.106,0.919
					c-0.507,0.4-0.869,0.741-1.088,1.022v-7.719h0.431v4.174c0.332-0.287,0.725-0.432,1.182-0.432c0.312,0,0.566,0.078,0.76,0.234
					C65.817,95.757,65.926,95.998,65.926,96.311z M65.308,96.395c0-0.394-0.197-0.591-0.591-0.591c-0.332,0-0.685,0.163-1.06,0.488
					v2.072c0.325-0.256,0.628-0.531,0.91-0.825C65.061,97.032,65.308,96.651,65.308,96.395z"/>
			</g>
			<g enable-background="new    ">
				<path d="M91.717,62.931h3.406v0.686h-2.59v2.102h2.393v0.676h-2.393v2.862h-0.816V62.931z"/>
			</g>
			<g>
				<polygon fill="none" stroke="#231F20" points="593.976,346.742 451.604,346.741 522.938,224.787 				"/>
			</g>
			<g>
				<polygon fill="none" stroke="#231F20" points="584.021,144.936 464.889,222.893 457.866,82.4 				"/>
			</g>
			<g>
				<polygon fill="none" stroke="#231F20" points="678.271,406.316 606.861,529.484 537.136,406.604 				"/>
			</g>
			<g>
				<polygon fill="none" stroke="#231F20" points="719.12,204.736 718.99,347.107 597.102,275.663 				"/>
			</g>
			<g enable-background="new    ">
				<path d="M60.746,101.629c0.556,0.101,0.959,0.348,1.21,0.741c0.181,0.281,0.272,0.601,0.272,0.957
					c0,0.588-0.172,1.056-0.516,1.402c-0.344,0.347-0.813,0.521-1.407,0.521h-1.613c-0.4,0-0.601-0.166-0.601-0.497v-5.591
					c0-0.156,0.041-0.289,0.122-0.398c0.081-0.109,0.19-0.164,0.328-0.164h1.022c0.669,0,1.191,0.141,1.566,0.422
					c0.375,0.281,0.569,0.685,0.582,1.21C61.73,100.97,61.408,101.436,60.746,101.629z M59.563,101.414
					c0.475,0,0.847-0.113,1.116-0.338c0.238-0.207,0.356-0.457,0.356-0.751c0-0.281-0.106-0.525-0.319-0.731
					c-0.238-0.219-0.547-0.328-0.929-0.328h-1.032v2.148H59.563z M60.089,104.584c0.457,0,0.816-0.125,1.079-0.375
					c0.238-0.231,0.354-0.513,0.347-0.845c-0.006-0.362-0.153-0.672-0.441-0.929c-0.319-0.287-0.747-0.431-1.285-0.431h-1.032v2.579
					H60.089z"/>
			</g>
			<g enable-background="new    ">
				<path d="M52.238,144.034H49.78v2.281h2.74V147h-3.557v-6.325h3.416v0.686H49.78v1.999h2.458V144.034z"/>
			</g>
			<g enable-background="new    ">
				<path d="M140.766,237.296c-0.366,0.131-1.089,0.347-1.942,0.347c-0.958,0-1.746-0.244-2.365-0.835
					c-0.544-0.525-0.882-1.37-0.882-2.355c0.009-1.886,1.304-3.266,3.425-3.266c0.732,0,1.304,0.159,1.576,0.291l-0.197,0.666
					c-0.338-0.15-0.76-0.271-1.398-0.271c-1.539,0-2.543,0.957-2.543,2.543c0,1.604,0.967,2.552,2.44,2.552
					c0.535,0,0.901-0.074,1.088-0.169v-1.886h-1.286v-0.657h2.083V237.296z"/>
			</g>
		</g>
	</g>
</g>
<g id="Layer_2">
	<line fill="none" stroke="#231F20" x1="142.667" y1="60.667" x2="59" y2="139"/>
	<line fill="none" stroke="#231F20" x1="59" y1="139" x2="95" y2="75"/>
	<line fill="none" stroke="#231F20" x1="95" y1="75" x2="140" y2="224"/>
	<line fill="none" stroke="#231F20" x1="140" y1="224" x2="183" y2="71"/>
	<line fill="none" stroke="#231F20" x1="183" y1="74.167" x2="70" y2="103.167"/>
	<line fill="none" stroke="#231F20" x1="70" y1="103.167" x2="141.85" y2="60.689"/>
</g>
</svg>
