<?xml version="1.0" encoding="utf-8"?>
<!-- Generator: Adobe Illustrator 13.0.1, SVG Export Plug-In . SVG Version: 6.00 Build 14948)  -->
<!DOCTYPE svg PUBLIC "-//W3C//DTD SVG 1.0//EN" "http://www.w3.org/TR/2001/REC-SVG-20010904/DTD/svg10.dtd">
<svg version="1.0" id="Layer_1" xmlns="http://www.w3.org/2000/svg" xmlns:xlink="http://www.w3.org/1999/xlink" x="0px" y="0px"
	 width="500px" height="270px" viewBox="0 0 500 270" enable-background="new 0 0 500 270" xml:space="preserve">
<g id="Layer_1_2_">
	<g id="Layer_1_1_">
	</g>
	<path d="M10.499,111.123v-1.044h462.473v1.044H10.499z M10.499,125.125v-1.153h462.473v1.153H10.499z M10.499,139.02v-1.043
		h462.473v1.043H10.499z M10.499,152.914v-1.044h462.473v1.044H10.499z M10.499,166.809v-1.041h462.473v1.041H10.499z"/>
	<g>
		<path fill="#00FF18" d="M314.879,96c4.669,0.055,7.25,3.242,5.768,7.141c-1.429,3.955-6.371,7.086-10.984,7.028
			c-4.612-0.052-7.193-3.296-5.712-7.19C305.378,99.076,310.268,95.947,314.879,96z"/>
		<path fill="#F7E608" d="M279.76,102.68c4.667,0.055,7.249,3.239,5.766,7.139c-1.428,3.957-6.371,7.088-10.983,7.029
			c-4.614-0.055-7.192-3.296-5.71-7.191C270.257,105.757,275.146,102.623,279.76,102.68z"/>
		<path fill="#FFAA00" d="M246.641,110.357c4.667,0.053,7.25,3.238,5.763,7.137c-1.43,3.957-6.368,7.086-10.979,7.031
			c-4.613-0.055-7.193-3.295-5.712-7.195C237.14,113.432,242.024,110.3,246.641,110.357z"/>
		<path fill="#8F00FF" d="M212.12,123.641c4.669,0.055,7.25,3.242,5.767,7.141c-1.428,3.955-6.371,7.084-10.984,7.029
			c-4.611-0.054-7.192-3.295-5.711-7.19C202.617,126.717,207.508,123.587,212.12,123.641z"/>
		<path fill="#00FF18" d="M174.879,139c4.669,0.055,7.25,3.242,5.768,7.141c-1.429,3.955-6.371,7.086-10.984,7.028
			c-4.612-0.052-7.193-3.296-5.712-7.19C165.378,142.076,170.267,138.947,174.879,139z"/>
		<path fill="#FFAA00" d="M142.641,152.357c4.668,0.053,7.25,3.238,5.764,7.137c-1.43,3.957-6.368,7.086-10.979,7.031
			c-4.613-0.055-7.193-3.295-5.712-7.195C133.14,155.432,138.024,152.3,142.641,152.357z"/>
	</g>
	<g>
		<g>
			<path d="M285.123,180.08l1.021-2.157h0.939l0.428,8.981h-1.019c-0.666-2.541-1.495-4.416-2.498-5.62
				c-1.247-1.511-2.729-2.263-4.456-2.263c-1.867,0-3.387,0.836-4.561,2.509c-1.176,1.672-1.758,4.503-1.758,8.493
				c0,3.354,0.676,5.912,2.018,7.679c1.146,1.491,2.753,2.235,4.822,2.235c1.809,0,3.324-0.58,4.549-1.742
				c1.223-1.161,2.023-2.913,2.396-5.258h1.072c-0.312,2.652-1.22,4.689-2.729,6.119c-1.508,1.428-3.409,2.139-5.698,2.139
				c-1.86,0-3.565-0.467-5.117-1.401c-1.55-0.937-2.795-2.278-3.724-4.034c-0.93-1.757-1.396-3.681-1.396-5.769
				c0-2.222,0.479-4.308,1.438-6.259c0.96-1.948,2.187-3.414,3.684-4.397c1.494-0.979,3.107-1.468,4.835-1.468
				c0.964,0,1.896,0.169,2.8,0.502C283.078,178.701,284.061,179.277,285.123,180.08z"/>
			<path d="M293.434,180.025v0.832h-1.066v2.102h-0.969v-2.102h-3.367v-0.752l3.691-5.27h0.645v5.188h1.066V180.025z
				 M291.397,180.025v-3.949l-2.792,3.949H291.397z"/>
		</g>
		<g>
			<path d="M304.949,178.887h11.523c1.709,0,3.163,0.303,4.358,0.905c1.488,0.763,2.752,2.036,3.793,3.815
				c1.039,1.781,1.562,3.887,1.562,6.318c0,2.014-0.312,3.825-0.936,5.436c-0.473,1.238-1.199,2.32-2.18,3.244
				s-2.175,1.617-3.582,2.082c-1.057,0.34-2.465,0.512-4.225,0.512h-10.315v-1.126h2.117c0.536,0,0.904-0.085,1.112-0.253
				c0.208-0.174,0.311-0.439,0.311-0.803v-17.979c0-0.312-0.11-0.562-0.332-0.748c-0.226-0.187-0.531-0.276-0.923-0.276h-2.285
				V178.887z M313.009,180.016c-0.454,0-0.788,0.096-1.006,0.287c-0.216,0.188-0.323,0.478-0.323,0.859v17.811
				c0,0.36,0.125,0.637,0.377,0.819c0.251,0.187,0.682,0.28,1.284,0.28h1.904c1.703,0,3.19-0.438,4.471-1.312
				c0.836-0.584,1.47-1.404,1.904-2.463c0.593-1.428,0.892-3.398,0.892-5.915c0-3.724-0.649-6.45-1.949-8.18
				c-1.108-1.461-2.78-2.188-5.017-2.188h-2.537V180.016z"/>
			<path d="M330.106,180.025v0.832h-1.066v2.102h-0.969v-2.102h-3.367v-0.752l3.689-5.27h0.646v5.188h1.066V180.025z
				 M328.071,180.025v-3.949l-2.793,3.949H328.071z"/>
		</g>
		<g>
			<path d="M198.526,176.369h18.153l0.297,7.723h-1.047c-0.465-2.653-1.114-4.387-1.95-5.189c-0.958-0.938-2.324-1.398-4.099-1.398
				h-3.584c-0.354,0-0.607,0.082-0.771,0.248c-0.161,0.166-0.242,0.414-0.242,0.748v8.043h1.919c1.067,0,1.919-0.354,2.552-1.058
				c0.635-0.706,0.977-1.79,1.027-3.26h1.1v10.083h-1.1c-0.07-1.668-0.412-2.855-1.027-3.57c-0.613-0.712-1.466-1.066-2.552-1.066
				h-1.919v8.521c0,0.503,0.121,0.858,0.362,1.063c0.241,0.209,0.659,0.312,1.253,0.312h2.324v1.123h-10.697v-1.127h2.288
				c0.461,0,0.79-0.093,0.983-0.276c0.196-0.187,0.293-0.494,0.293-0.914v-17.758c0-0.398-0.103-0.688-0.309-0.857
				c-0.206-0.174-0.564-0.256-1.076-0.256h-2.181L198.526,176.369L198.526,176.369z"/>
			<path d="M223.674,177.508v0.832h-1.069v2.102h-0.968v-2.102h-3.366v-0.752l3.688-5.27h0.646v5.188h1.067v0.002H223.674z
				 M221.639,177.508v-3.949l-2.793,3.949H221.639z"/>
		</g>
		<g>
			<path d="M161.852,175.887h11.524c1.709,0,3.163,0.303,4.358,0.905c1.488,0.763,2.752,2.036,3.793,3.815
				c1.039,1.781,1.562,3.887,1.562,6.318c0,2.014-0.312,3.825-0.936,5.436c-0.473,1.238-1.199,2.32-2.18,3.244
				s-2.175,1.617-3.582,2.082c-1.057,0.34-2.464,0.512-4.225,0.512h-10.316v-1.126h2.117c0.537,0,0.905-0.085,1.113-0.253
				c0.208-0.174,0.31-0.439,0.31-0.803v-17.979c0-0.312-0.11-0.562-0.332-0.748c-0.225-0.187-0.531-0.276-0.923-0.276h-2.285
				V175.887z M169.912,177.016c-0.454,0-0.788,0.096-1.006,0.287c-0.216,0.188-0.323,0.478-0.323,0.859v17.811
				c0,0.36,0.125,0.637,0.377,0.819c0.251,0.187,0.681,0.28,1.284,0.28h1.904c1.703,0,3.191-0.438,4.471-1.312
				c0.836-0.584,1.47-1.404,1.904-2.463c0.593-1.428,0.892-3.398,0.892-5.915c0-3.724-0.649-6.45-1.949-8.18
				c-1.108-1.461-2.781-2.188-5.017-2.188h-2.537V177.016z"/>
			<path d="M187.01,177.025v0.832h-1.066v2.102h-0.969v-2.102h-3.367v-0.752l3.689-5.27h0.646v5.188h1.066V177.025z
				 M184.975,177.025v-3.949l-2.793,3.949H184.975z"/>
		</g>
	</g>
</g>
<g id="Layer_2">
</g>
<g id="Layer_3">
	<g id="layer1_2_">
		<g id="g2972_2_" transform="matrix(1,0,0,1.030698,-309.364,-543.8647)">
			<path id="path2974_2_" d="M379.227,654.643c-0.357,5.55-3.457,11.207-8.833,13.276c-4.607,1.705-10.416,1.963-14.419-1.281
				c-2.996-2.217-4.142-7.26-1.007-9.867c2.994-2.837,8.753-0.278,8.407,3.894c1.176,2.865-4.911,4.626-1.711,6.63
				c3.681,0.96,7.434-2.048,8.379-5.54c1.374-5.016,1.299-10.426,0.096-15.469c-0.646-2.483-2.182-6.347-5.465-5.342
				c-4.297,1-6.708,5.246-8.061,9.105c-0.783-5.472-4.223-10.203-8.179-13.893c0,10.99,0,21.981,0,32.966l-2.461,0.016
				c0-22.588,0-45.631,0-68.216l2.461-0.001c0,10.834,0,22.116,0,32.95c3.923-3.635,7.378-8.289,8.12-13.715
				c1.417,4.047,4.161,8.514,8.793,9.143c3.407,0.187,4.382-3.966,5.061-6.556c0.893-4.891,0.989-10.089-0.561-14.855
				c-1.107-3.354-4.75-6.097-8.341-5.198c-2.903,2.115,2.821,3.644,1.854,6.368c0.618,3.916-4.227,6.976-7.565,4.945
				c-3.617-1.978-3.353-7.309-0.566-9.884c1.897-1.959,5.507-3.226,8.15-3.204c2.698,0.021,4.272,0.221,6.687,1.063
				c5.404,1.927,8.671,7.482,9.116,13.019c0.813,6.277-2.698,13.126-8.613,15.607c-3.849,1.491-8.3,0.2-11.25-2.538
				c-0.482,2.749-1.708,5.368-3.224,7.267c1.226,1.999,2.551,5.213,3.227,6.312c3.695-3.365,10.223-3.769,14.069-0.435
				C377.306,644.428,379.749,649.542,379.227,654.643z"/>
		</g>
		<g id="g2976_2_" transform="matrix(1,0,0,1.030928,-309.364,-543.9805)">
			<path id="path2978_2_" d="M340.698,669.119h-8v-68.223h8V669.119z"/>
		</g>
	</g>
</g>
<g>
	<path d="M234.877,179.13h11.614c2.279,0,4.025,0.504,5.235,1.508c1.211,1.006,1.814,2.267,1.814,3.783
		c0,1.266-0.422,2.34-1.265,3.225c-0.845,0.886-2.114,1.582-3.815,2.096c2.106,0.441,3.682,1.141,4.737,2.093
		c1.05,0.952,1.579,2.152,1.579,3.603c0,1.106-0.302,2.089-0.896,2.941c-0.599,0.856-1.594,1.581-2.981,2.176
		c-1.394,0.597-2.97,0.894-4.742,0.894h-11.274v-1.127h1.838c0.553,0,0.96-0.091,1.213-0.271c0.255-0.18,0.384-0.389,0.384-0.615
		v-17.887c0-0.424-0.124-0.744-0.377-0.959c-0.25-0.219-0.614-0.324-1.101-0.324h-1.961L234.877,179.13L234.877,179.13z
		 M241.5,189.373h4.237c1.302,0,2.336-0.38,3.108-1.14c0.771-0.76,1.156-2.01,1.156-3.742c0-1.07-0.185-1.906-0.549-2.507
		c-0.369-0.604-0.9-1.038-1.606-1.317c-0.7-0.273-1.91-0.41-3.638-0.41c-1.221,0-1.975,0.086-2.27,0.26
		c-0.292,0.179-0.438,0.482-0.438,0.926v7.932L241.5,189.373L241.5,189.373z M241.5,190.5v8.608c0,0.402,0.117,0.703,0.355,0.904
		s0.664,0.302,1.277,0.302h2.707c1.793,0,3.113-0.392,3.972-1.183s1.282-2.021,1.282-3.691c0-1.529-0.441-2.734-1.324-3.615
		c-0.891-0.881-2.111-1.322-3.676-1.322L241.5,190.5L241.5,190.5z"/>
	<g>
		<path d="M258.625,180.268v0.832h-1.067v2.102h-0.97v-2.102h-3.364v-0.752l3.688-5.269h0.646v5.187h1.067V180.268z
			 M256.586,180.268v-3.949l-2.791,3.949H256.586z"/>
	</g>
</g>
<g>
	<path d="M127.877,175.13h11.614c2.279,0,4.025,0.504,5.235,1.508c1.211,1.006,1.814,2.267,1.814,3.783
		c0,1.266-0.422,2.34-1.265,3.225c-0.845,0.886-2.114,1.582-3.815,2.096c2.106,0.441,3.682,1.141,4.737,2.093
		c1.05,0.952,1.579,2.152,1.579,3.603c0,1.106-0.302,2.089-0.896,2.941c-0.599,0.856-1.594,1.581-2.981,2.176
		c-1.394,0.597-2.97,0.894-4.742,0.894h-11.274v-1.127h1.838c0.553,0,0.96-0.091,1.213-0.271c0.255-0.18,0.384-0.389,0.384-0.615
		v-17.887c0-0.424-0.124-0.744-0.377-0.959c-0.25-0.219-0.614-0.324-1.101-0.324h-1.961L127.877,175.13L127.877,175.13z
		 M134.5,185.373h4.237c1.302,0,2.336-0.38,3.108-1.14c0.771-0.76,1.156-2.01,1.156-3.742c0-1.07-0.185-1.906-0.549-2.507
		c-0.369-0.604-0.9-1.038-1.606-1.317c-0.7-0.273-1.91-0.41-3.638-0.41c-1.221,0-1.975,0.086-2.27,0.26
		c-0.292,0.179-0.438,0.482-0.438,0.926v7.932L134.5,185.373L134.5,185.373z M134.5,186.5v8.608c0,0.402,0.117,0.703,0.355,0.904
		s0.664,0.302,1.277,0.302h2.707c1.793,0,3.113-0.392,3.972-1.183s1.282-2.021,1.282-3.691c0-1.529-0.441-2.734-1.324-3.615
		c-0.891-0.881-2.111-1.322-3.676-1.322L134.5,186.5L134.5,186.5z"/>
	<g>
		<path d="M151.625,176.268v0.832h-1.067v2.102h-0.97v-2.102h-3.364v-0.752l3.688-5.269h0.646v5.187h1.067V176.268z
			 M149.586,176.268v-3.949l-2.791,3.949H149.586z"/>
	</g>
</g>
</svg>
