<?xml version="1.0" encoding="utf-8"?>
<!-- Generator: Adobe Illustrator 13.0.2, SVG Export Plug-In . SVG Version: 6.00 Build 14948)  -->
<!DOCTYPE svg PUBLIC "-//W3C//DTD SVG 1.0//EN" "http://www.w3.org/TR/2001/REC-SVG-20010904/DTD/svg10.dtd">
<svg version="1.0" id="Layer_1" xmlns="http://www.w3.org/2000/svg" xmlns:xlink="http://www.w3.org/1999/xlink" x="0px" y="0px"
	 width="500px" height="270px" viewBox="0 0 500 270" enable-background="new 0 0 500 270" xml:space="preserve">
<g id="Layer_1_1_">
</g>
<g id="Layer_2">
	<g id="Layer_2_1_">
		<g>
			<path d="M10.499,29.123v-1.044h462.473v1.044H10.499z M10.499,43.125v-1.153h462.473v1.153H10.499z M10.499,57.02v-1.044h462.473
				v1.044H10.499z M10.499,70.914V69.87h462.473v1.044H10.499z M10.499,84.809v-1.042h462.473v1.042H10.499z"/>
			<path fill="#F200FF" d="M35.969,83.271C24.656,77.888,22.844,70.97,22.35,63.884c-0.55-7.688,4.339-15.486,8.896-19.825
				c2.636-2.471,5.492-4.887,8.898-7.468c-0.111-1.922-0.55-2.692-0.77-5.437c-0.055-1.153-0.769-6.535,0.384-12.741
				C40.472,14.732,45.086,6.056,48.271,6c2.472-0.055,6.261,9.832,6.372,14.774c0.164,7.634-1.647,11.093-3.9,15.047
				c-1.153,1.978-2.361,3.351-3.625,4.889c-1.317,1.592-2.8,2.525-4.173,3.734c0,0,1.758,9.939,1.812,10.654
				c3.515-0.439,7.798,0.821,9.337,1.922c3.898,2.91,5.381,6.92,5.656,10.818c0.495,6.205-2.911,12.741-10.435,15.872
				c0,0,1.153,7.907,1.428,9.556c0.604,4.336,0.495,7.084-0.439,8.84c-1.592,2.966-4.173,5.711-9.171,6.043
				c-3.845,0.218-11.424-1.701-11.808-7.745c-0.221-3.57,1.373-7.413,5.71-7.687c2.636-0.22,5.767,1.977,5.986,5.106
				c0.22,2.692-1.537,5.493-6.095,6.756c0.714,0.989,2.855,2.146,5.931,2.146c3.185,0,6.479-2.146,8.073-4.998
				c0.989-1.867,0.878-5.219,0.495-8.293c-0.166-1.045-1.483-9.337-1.483-9.337C43.878,84.755,38.275,84.369,35.969,83.271z
				 M37.067,70.256c0.109,2.635,2.306,5.712,4.337,6.754c-0.273,0.166-0.548,0.605-0.548,0.605c-2.253-1.1-4.175-2.91-4.669-3.57
				c-1.592-2.14-2.251-3.349-2.471-6.59c-0.219-3.021,1.428-7.083,5.107-9.94c1.922-1.428,2.856-1.758,4.503-2.142l-1.647-9.94
				c-1.703,0.987-8.732,6.646-11.697,11.258c-2.636,4.12-4.229,7.415-3.9,11.479c0.659,9.172,10.709,16.696,21.583,14.115
				c0,0-3.24-19.497-3.187-19.497C38.495,63.005,36.902,67.62,37.067,70.256z M41.517,35.439
				c4.778-3.734,11.258-10.765,10.874-16.202c-0.109-1.701-0.823-4.777-3.295-4.723C43.438,14.569,40.251,26.375,41.517,35.439z
				 M48.985,81.844c6.317-2.142,6.592-7.579,6.372-10.82c-0.221-2.69-1.428-8.733-9.448-8.347L48.985,81.844z"/>
			<g>
				<path fill="#00FF18" d="M176.864,84.738c4.669,0.055,7.25,3.243,5.767,7.14c-1.428,3.955-6.371,7.086-10.984,7.029
					c-4.612-0.052-7.193-3.295-5.712-7.191C167.363,87.815,172.252,84.686,176.864,84.738z"/>
				<g>
					<path d="M163.316,113.887h11.524c1.709,0,3.163,0.303,4.359,0.905c1.488,0.763,2.752,2.036,3.793,3.815
						c1.039,1.781,1.562,3.887,1.562,6.32c0,2.012-0.313,3.825-0.935,5.434c-0.473,1.238-1.2,2.32-2.181,3.244
						c-0.98,0.925-2.174,1.617-3.582,2.083c-1.056,0.34-2.464,0.513-4.224,0.513h-10.316v-1.126h2.117
						c0.537,0,0.905-0.085,1.113-0.253c0.208-0.174,0.31-0.439,0.31-0.803v-17.979c0-0.312-0.11-0.561-0.332-0.748
						c-0.225-0.186-0.531-0.277-0.923-0.277h-2.285V113.887z M171.376,115.016c-0.454,0-0.788,0.096-1.006,0.287
						c-0.216,0.188-0.323,0.476-0.323,0.859v17.811c0,0.36,0.125,0.637,0.377,0.819c0.251,0.187,0.681,0.28,1.284,0.28h1.904
						c1.703,0,3.191-0.438,4.471-1.312c0.836-0.584,1.47-1.404,1.904-2.463c0.593-1.428,0.892-3.398,0.892-5.915
						c0-3.724-0.649-6.45-1.949-8.18c-1.108-1.461-2.781-2.188-5.017-2.188h-2.537V115.016z"/>
				</g>
			</g>
			<path fill="#0C00FF" d="M210.59,77.791c4.667,0.056,7.249,3.24,5.765,7.14c-1.426,3.954-6.37,7.084-10.982,7.031
				c-4.614-0.055-7.195-3.295-5.712-7.193C201.089,80.867,205.976,77.736,210.59,77.791z"/>
			<g>
				<path d="M198.865,104.887h17.672l0.429,7.536h-1.019c-0.402-2.378-1.039-4.04-1.909-4.985c-0.87-0.947-2.003-1.42-3.399-1.42
					h-4.374c-0.352,0-0.617,0.097-0.8,0.287c-0.181,0.189-0.271,0.481-0.271,0.875v7.955h1.916c1.027,0,1.857-0.367,2.495-1.101
					c0.639-0.731,0.984-1.859,1.034-3.377h1.044v10.325h-1.044c-0.05-1.707-0.4-2.928-1.049-3.666
					c-0.649-0.741-1.532-1.109-2.646-1.109h-1.75v8.873c0,0.323,0.109,0.568,0.325,0.742c0.216,0.171,0.575,0.253,1.078,0.253h3.454
					c3.753,0,5.913-2.396,6.486-7.187h1.1l-0.377,8.312h-18.396v-1.126h1.523c0.593,0,1.011-0.104,1.252-0.309
					c0.24-0.207,0.362-0.504,0.362-0.897V107.18c0-0.395-0.107-0.685-0.318-0.875c-0.211-0.192-0.541-0.287-0.996-0.287h-1.823
					L198.865,104.887L198.865,104.887z"/>
			</g>
			<path fill="#8F00FF" d="M244.655,70.844c4.669,0.055,7.25,3.241,5.767,7.14c-1.428,3.954-6.371,7.084-10.984,7.029
				c-4.612-0.053-7.193-3.295-5.712-7.191C235.152,73.919,240.043,70.79,244.655,70.844z"/>
			<g>
				<path d="M233.379,104.887h18.152l0.298,7.723h-1.046c-0.466-2.655-1.115-4.387-1.951-5.191c-0.958-0.936-2.324-1.4-4.099-1.4
					h-3.583c-0.354,0-0.608,0.082-0.772,0.248c-0.161,0.166-0.242,0.414-0.242,0.748v8.043h1.919c1.067,0,1.919-0.352,2.552-1.056
					c0.634-0.706,0.976-1.79,1.027-3.26h1.1v10.083h-1.1c-0.07-1.668-0.412-2.855-1.027-3.57c-0.613-0.712-1.466-1.068-2.552-1.068
					h-1.919v8.521c0,0.503,0.121,0.858,0.362,1.063c0.241,0.209,0.66,0.312,1.253,0.312h2.325v1.123h-10.698v-1.127h2.288
					c0.461,0,0.79-0.093,0.984-0.277c0.196-0.186,0.293-0.493,0.293-0.913v-17.758c0-0.398-0.103-0.688-0.309-0.857
					c-0.206-0.174-0.565-0.256-1.076-0.256h-2.181L233.379,104.887L233.379,104.887z"/>
			</g>
			<g>
				<path fill="#EC06F9" d="M276.113,62.918c6.097,0.055,11.864,2.361,12.304,7.47c0.33,3.736-4.613,7.138-10.71,7.138
					c-6.151-0.054-11.861-2.306-12.354-7.411C265.023,66.322,270.016,62.918,276.113,62.918z M277.595,76.264
					c2.637,0,4.34-2.529,4.064-4.559c-0.605-4.009-1.979-7.25-5.604-7.25c-2.637,0-4.173,2.581-3.843,4.612
					C272.818,73.078,273.973,76.264,277.595,76.264z"/>
			</g>
			<g>
				<path d="M282.224,101.114l1.229-2.222h1.021l0.562,8.903h-0.991c-0.751-2.562-1.64-4.416-2.66-5.562
					c-1.302-1.461-2.795-2.188-4.479-2.188c-1.291,0-2.449,0.367-3.471,1.103c-1.023,0.731-1.81,1.832-2.354,3.298
					c-0.548,1.464-0.819,3.53-0.819,6.188c0,2.582,0.271,4.601,0.821,6.054c0.546,1.457,1.302,2.529,2.264,3.218
					c0.966,0.686,2.097,1.03,3.392,1.03c1.756,0,3.114-0.492,4.073-1.475c0.959-0.982,1.438-2.254,1.438-3.812v-2.092
					c0-0.332-0.13-0.588-0.386-0.769c-0.258-0.179-0.68-0.271-1.262-0.271h-1.894v-1.045h9.356v1.045h-1.268
					c-0.564,0-0.969,0.101-1.211,0.295s-0.361,0.479-0.361,0.854v8.532h-0.992c-0.358-1.327-0.736-2.604-1.129-3.821
					c-0.754,1.237-1.648,2.165-2.69,2.784c-1.04,0.616-2.219,0.928-3.537,0.928c-1.88,0-3.624-0.479-5.227-1.446
					c-1.604-0.967-2.871-2.324-3.802-4.08c-0.93-1.754-1.396-3.737-1.396-5.949c0-2.223,0.468-4.213,1.4-5.973
					c0.935-1.759,2.211-3.156,3.832-4.192c1.623-1.037,3.262-1.552,4.92-1.552c0.942,0,1.844,0.158,2.706,0.476
					C280.164,99.686,281.136,100.268,282.224,101.114z"/>
			</g>
			<path fill="#F70303" d="M313.776,56.952c4.668,0.054,7.25,3.24,5.764,7.138c-1.43,3.956-6.369,7.086-10.98,7.031
				c-4.613-0.055-7.193-3.295-5.711-7.195C304.276,60.027,309.161,56.895,313.776,56.952z"/>
			<g>
				<path d="M310.838,99.434h1.056l7.993,20.404c0.323,0.821,0.979,1.235,1.976,1.235h0.695v1.126h-8.904v-1.126h0.711
					c0.928,0,1.578-0.101,1.967-0.302c0.259-0.142,0.393-0.355,0.393-0.646c0-0.172-0.033-0.354-0.105-0.543l-1.844-4.73h-8.812
					l-1.052,2.713c-0.273,0.723-0.409,1.298-0.409,1.716c0,0.493,0.229,0.916,0.688,1.266c0.459,0.353,1.125,0.526,2.002,0.526
					h0.754v1.128h-8.1v-1.126c0.867,0,1.555-0.188,2.061-0.562c0.502-0.378,0.965-1.094,1.391-2.148L310.838,99.434z
					 M310.423,103.721l-3.996,9.951h7.877L310.423,103.721z"/>
			</g>
			<path fill="#F76806" d="M347.828,50.005c4.67,0.054,7.251,3.24,5.766,7.138c-1.428,3.955-6.372,7.083-10.979,7.031
				c-4.612-0.056-7.195-3.295-5.717-7.195C338.329,53.08,343.216,49.95,347.828,50.005z"/>
			<g>
				<path d="M335.567,99.887h11.614c2.279,0,4.025,0.504,5.235,1.508c1.211,1.006,1.814,2.266,1.814,3.783
					c0,1.266-0.422,2.34-1.266,3.225c-0.845,0.885-2.113,1.582-3.814,2.095c2.105,0.442,3.682,1.14,4.736,2.093
					c1.051,0.952,1.579,2.152,1.579,3.602c0,1.107-0.302,2.089-0.896,2.942c-0.6,0.856-1.594,1.581-2.981,2.175
					c-1.394,0.597-2.97,0.894-4.742,0.894h-11.274v-1.127h1.839c0.553,0,0.96-0.091,1.213-0.271
					c0.255-0.179,0.384-0.388,0.384-0.615v-17.887c0-0.423-0.124-0.744-0.377-0.959c-0.25-0.218-0.613-0.324-1.102-0.324h-1.961
					L335.567,99.887L335.567,99.887z M342.19,110.13h4.237c1.302,0,2.336-0.38,3.108-1.14c0.771-0.76,1.156-2.01,1.156-3.742
					c0-1.07-0.186-1.906-0.549-2.507c-0.369-0.604-0.9-1.038-1.606-1.317c-0.7-0.273-1.91-0.41-3.638-0.41
					c-1.222,0-1.976,0.086-2.271,0.26c-0.292,0.178-0.438,0.482-0.438,0.925V110.13L342.19,110.13L342.19,110.13z M342.19,111.257
					v8.608c0,0.402,0.117,0.703,0.355,0.904s0.664,0.302,1.277,0.302h2.707c1.793,0,3.113-0.392,3.972-1.183
					s1.282-2.021,1.282-3.691c0-1.529-0.441-2.734-1.324-3.615c-0.891-0.881-2.111-1.322-3.676-1.322L342.19,111.257L342.19,111.257
					z"/>
			</g>
			<g>
				<path fill="#F7E608" d="M141.875,94.27c4.667,0.054,7.249,3.24,5.766,7.138c-1.428,3.957-6.371,7.088-10.984,7.03
					c-4.614-0.054-7.192-3.295-5.71-7.192C132.372,97.348,137.261,94.214,141.875,94.27z"/>
				<g>
					<path d="M145.994,115.08l1.022-2.157h0.938l0.429,8.981h-1.019c-0.666-2.541-1.495-4.416-2.498-5.62
						c-1.247-1.511-2.73-2.263-4.456-2.263c-1.867,0-3.387,0.836-4.561,2.509c-1.175,1.672-1.758,4.503-1.758,8.493
						c0,3.355,0.676,5.912,2.018,7.679c1.146,1.492,2.753,2.235,4.822,2.235c1.809,0,3.325-0.58,4.549-1.741
						c1.223-1.162,2.024-2.914,2.396-5.259h1.073c-0.312,2.654-1.22,4.691-2.729,6.119c-1.508,1.428-3.409,2.14-5.698,2.14
						c-1.86,0-3.565-0.468-5.117-1.402c-1.55-0.937-2.795-2.278-3.724-4.034c-0.929-1.757-1.395-3.681-1.395-5.769
						c0-2.222,0.479-4.308,1.438-6.259c0.96-1.948,2.187-3.413,3.684-4.397c1.494-0.979,3.107-1.468,4.835-1.468
						c0.963,0,1.896,0.169,2.8,0.502C143.949,113.701,144.932,114.277,145.994,115.08z"/>
				</g>
				<line fill="none" stroke="#000000" x1="123.258" y1="101.312" x2="155.579" y2="101.312"/>
			</g>
			<g>
				<path d="M154.305,115.025v0.832h-1.067v2.102h-0.969v-2.102h-3.367v-0.752l3.691-5.268h0.645v5.186h1.067V115.025z
					 M152.268,115.025v-3.949l-2.792,3.949H152.268z"/>
			</g>
			<path d="M359.315,101.025v0.832h-1.066v2.102h-0.971v-2.102h-3.363v-0.752l3.688-5.268h0.646v5.186h1.066V101.025
				L359.315,101.025z M357.276,101.025v-3.949l-2.791,3.949H357.276z"/>
			<g>
				<path d="M321.713,101.025v0.832h-1.067v2.102h-0.969v-2.102h-3.367v-0.752l3.69-5.268h0.646v5.186h1.067V101.025z
					 M319.677,101.025v-3.949l-2.792,3.949H319.677z"/>
			</g>
			<path d="M290.978,101.025v0.832h-1.068v2.102h-0.967v-2.102h-3.369v-0.752l3.691-5.268h0.645v5.186h1.068V101.025z
				 M288.942,101.025v-3.949l-2.791,3.949H288.942z"/>
			<g>
				<path d="M258.525,106.025v0.832h-1.068v2.102h-0.967v-2.102h-3.367v-0.752l3.689-5.268h0.646v5.186h1.069L258.525,106.025
					L258.525,106.025z M256.49,106.025v-3.949l-2.791,3.949H256.49z"/>
			</g>
			<g>
				<path d="M222.641,106.025v0.832h-1.068v2.102h-0.967v-2.102h-3.367v-0.752l3.689-5.268h0.645v5.186h1.068V106.025z
					 M220.606,106.025v-3.949l-2.792,3.949H220.606z"/>
			</g>
			<g>
				<path d="M188.474,115.025v0.832h-1.067v2.102h-0.969v-2.102h-3.367v-0.752l3.69-5.268h0.646v5.186h1.067V115.025z
					 M186.438,115.025v-3.949l-2.792,3.949H186.438z"/>
			</g>
		</g>
		<g>
			<path d="M10.499,156.125v-1.044h462.473v1.044H10.499z M10.499,170.125v-1.152h462.473v1.152H10.499z M10.499,184.02v-1.043
				h462.473v1.043H10.499z M10.499,197.914v-1.044h462.473v1.044H10.499z M10.499,211.809v-1.043h462.473v1.043H10.499z"/>
			<g>
				<path d="M166.891,227.868h11.523c1.709,0,3.164,0.301,4.359,0.903c1.485,0.764,2.752,2.037,3.791,3.814
					c1.041,1.78,1.562,3.889,1.562,6.32c0,2.011-0.312,3.822-0.937,5.434c-0.475,1.237-1.199,2.317-2.182,3.243
					c-0.979,0.923-2.176,1.617-3.584,2.083c-1.054,0.339-2.465,0.514-4.224,0.514h-10.317v-1.129H169
					c0.538,0,0.904-0.084,1.113-0.255c0.205-0.171,0.308-0.438,0.308-0.801V230.02c0-0.312-0.106-0.56-0.332-0.748
					c-0.223-0.184-0.528-0.276-0.921-0.276h-2.284v-1.126L166.891,227.868L166.891,227.868z M174.949,228.992
					c-0.455,0-0.787,0.098-1.006,0.287c-0.217,0.188-0.323,0.478-0.323,0.859v17.811c0,0.361,0.124,0.636,0.379,0.82
					c0.252,0.188,0.681,0.279,1.284,0.279h1.902c1.698,0,3.188-0.438,4.472-1.312c0.834-0.586,1.468-1.403,1.903-2.463
					c0.594-1.428,0.892-3.397,0.892-5.916c0-3.726-0.647-6.447-1.95-8.178c-1.109-1.464-2.779-2.188-5.016-2.188L174.949,228.992
					L174.949,228.992z"/>
			</g>
			<g>
				<path d="M202.412,223.868h17.672l0.429,7.534h-1.021c-0.398-2.379-1.035-4.038-1.907-4.987c-0.87-0.944-2.001-1.419-3.398-1.419
					h-4.372c-0.353,0-0.616,0.098-0.801,0.286c-0.183,0.19-0.271,0.481-0.271,0.877v7.954h1.914c1.024,0,1.854-0.367,2.497-1.104
					c0.636-0.732,0.979-1.857,1.03-3.38h1.049v10.326h-1.049c-0.051-1.706-0.396-2.929-1.05-3.667
					c-0.646-0.738-1.527-1.105-2.645-1.105h-1.75v8.873c0,0.32,0.104,0.565,0.324,0.738c0.214,0.172,0.57,0.254,1.072,0.254h3.458
					c3.751,0,5.911-2.396,6.486-7.188h1.1l-0.379,8.313h-18.396v-1.128h1.524c0.596,0,1.011-0.104,1.25-0.309
					c0.242-0.205,0.361-0.506,0.361-0.897v-17.688c0-0.396-0.105-0.685-0.316-0.877c-0.213-0.189-0.541-0.285-0.992-0.285h-1.825
					L202.412,223.868L202.412,223.868z"/>
			</g>
			<g>
				<path d="M237.244,220.868h18.154l0.295,7.723h-1.044c-0.469-2.655-1.112-4.39-1.95-5.192c-0.959-0.936-2.325-1.399-4.103-1.399
					h-3.584c-0.354,0-0.604,0.083-0.771,0.249c-0.161,0.166-0.241,0.414-0.241,0.746v8.047h1.917c1.069,0,1.921-0.354,2.552-1.059
					c0.636-0.707,0.979-1.791,1.028-3.26h1.102v10.082h-1.102c-0.07-1.668-0.412-2.854-1.028-3.57
					c-0.607-0.711-1.465-1.065-2.552-1.065h-1.917v8.521c0,0.504,0.121,0.856,0.362,1.063c0.238,0.207,0.66,0.312,1.252,0.312h2.322
					v1.123h-10.695v-1.127h2.287c0.465,0,0.79-0.094,0.982-0.276c0.194-0.187,0.294-0.493,0.294-0.915V223.12
					c0-0.397-0.103-0.688-0.311-0.858c-0.204-0.173-0.562-0.255-1.076-0.255h-2.18L237.244,220.868L237.244,220.868z"/>
			</g>
			<g>
				<path d="M285.624,222.089l1.227-2.223h1.021l0.562,8.901h-0.987c-0.751-2.562-1.641-4.416-2.66-5.562
					c-1.304-1.458-2.796-2.188-4.479-2.188c-1.292,0-2.453,0.366-3.471,1.102c-1.024,0.73-1.809,1.834-2.354,3.299
					c-0.546,1.466-0.818,3.532-0.818,6.188c0,2.582,0.271,4.602,0.818,6.057c0.55,1.456,1.306,2.525,2.268,3.218
					c0.962,0.688,2.095,1.03,3.389,1.03c1.757,0,3.115-0.492,4.076-1.479c0.96-0.979,1.438-2.252,1.438-3.811v-2.094
					c0-0.332-0.128-0.586-0.388-0.77c-0.259-0.182-0.681-0.271-1.264-0.271h-1.891v-1.045h9.355v1.045h-1.271
					c-0.563,0-0.97,0.104-1.21,0.296c-0.241,0.192-0.362,0.479-0.362,0.853v8.534h-0.992c-0.355-1.327-0.732-2.604-1.126-3.819
					c-0.753,1.233-1.652,2.164-2.688,2.783c-1.041,0.615-2.223,0.93-3.54,0.93c-1.883,0-3.62-0.482-5.229-1.447
					c-1.603-0.967-2.869-2.325-3.801-4.079c-0.929-1.757-1.396-3.738-1.396-5.95c0-2.225,0.469-4.214,1.401-5.975
					c0.932-1.76,2.212-3.154,3.833-4.192c1.619-1.034,3.258-1.55,4.917-1.55c0.945,0,1.844,0.158,2.705,0.475
					C283.565,220.66,284.537,221.242,285.624,222.089z"/>
			</g>
			<path fill="#FFE600" d="M145.312,183.951c4.668,0.053,7.25,3.24,5.764,7.139c-1.43,3.955-6.369,7.086-10.98,7.03
				c-4.613-0.056-7.193-3.295-5.711-7.194C135.812,187.027,140.697,183.895,145.312,183.951z"/>
			<g>
				<path d="M314.298,219.868h1.056l7.995,20.403c0.321,0.824,0.979,1.233,1.977,1.233h0.693v1.128h-8.902v-1.128h0.711
					c0.926,0,1.579-0.103,1.965-0.302c0.258-0.143,0.392-0.354,0.392-0.646c0-0.17-0.032-0.354-0.104-0.543l-1.843-4.729h-8.812
					l-1.053,2.712c-0.272,0.722-0.408,1.297-0.408,1.716c0,0.492,0.232,0.915,0.688,1.268c0.459,0.353,1.126,0.524,2.001,0.524
					h0.755v1.128h-8.102v-1.127c0.866,0,1.557-0.188,2.06-0.562c0.504-0.377,0.969-1.092,1.393-2.147L314.298,219.868z
					 M313.884,224.154l-3.995,9.953h7.877L313.884,224.154z"/>
			</g>
			<path fill="#06FC1D" d="M179.09,177.005c4.669,0.056,7.252,3.241,5.766,7.138c-1.428,3.957-6.371,7.086-10.979,7.032
				c-4.613-0.055-7.193-3.296-5.715-7.194C169.589,180.082,174.479,176.949,179.09,177.005z"/>
			<g>
				<path d="M339.088,219.868h11.614c2.279,0,4.022,0.502,5.236,1.506c1.21,1.006,1.812,2.265,1.812,3.783
					c0,1.266-0.422,2.338-1.264,3.225c-0.848,0.886-2.115,1.582-3.817,2.095c2.108,0.442,3.685,1.143,4.739,2.092
					c1.049,0.955,1.579,2.152,1.579,3.604c0,1.106-0.304,2.089-0.898,2.943c-0.597,0.856-1.592,1.579-2.979,2.173
					c-1.396,0.598-2.973,0.895-4.741,0.895h-11.274v-1.127h1.835c0.556,0,0.96-0.091,1.213-0.271
					c0.258-0.179,0.387-0.388,0.387-0.615v-17.886c0-0.422-0.124-0.743-0.375-0.957c-0.251-0.219-0.617-0.324-1.104-0.324h-1.96
					v-1.134h-0.002V219.868L339.088,219.868z M345.71,230.109h4.238c1.301,0,2.335-0.381,3.104-1.143
					c0.771-0.761,1.156-2.009,1.156-3.74c0-1.07-0.183-1.904-0.55-2.508c-0.369-0.604-0.9-1.037-1.605-1.316
					c-0.698-0.274-1.911-0.412-3.637-0.412c-1.221,0-1.973,0.089-2.27,0.262c-0.292,0.176-0.439,0.482-0.439,0.926L345.71,230.109
					L345.71,230.109z M345.71,231.236v8.609c0,0.399,0.117,0.701,0.354,0.902c0.237,0.2,0.666,0.301,1.274,0.301h2.709
					c1.793,0,3.112-0.395,3.97-1.183c0.858-0.791,1.284-2.021,1.284-3.69c0-1.529-0.439-2.732-1.325-3.613
					c-0.891-0.881-2.109-1.321-3.676-1.321L345.71,231.236L345.71,231.236z"/>
			</g>
			<path fill="#0000FF" d="M213.377,169.496c4.67,0.054,7.251,3.24,5.764,7.139c-1.428,3.957-6.365,7.088-10.979,7.03
				c-4.614-0.054-7.188-3.295-5.708-7.192C203.874,172.573,208.765,169.441,213.377,169.496z"/>
			<path fill="#F45C08" d="M110.755,190.141c4.666,0.053,7.247,3.238,5.763,7.139c-1.428,3.953-6.373,7.086-10.981,7.029
				c-4.614-0.054-7.193-3.295-5.712-7.19C101.252,193.213,106.139,190.082,110.755,190.141z"/>
			<path fill="#F803FF" d="M282.242,156.162c4.667,0.057,7.248,3.238,5.764,7.141c-1.428,3.953-6.37,7.084-10.979,7.03
				c-4.614-0.056-7.192-3.297-5.711-7.192C272.739,159.236,277.628,156.105,282.242,156.162z"/>
			<path fill="#FF0000" d="M316.244,149.215c4.666,0.057,7.249,3.241,5.766,7.141c-1.428,3.953-6.372,7.084-10.981,7.029
				c-4.612-0.055-7.191-3.296-5.712-7.191C306.74,152.291,311.629,149.16,316.244,149.215z"/>
			<path fill="#FF9D00" d="M350.619,141.73c4.668,0.054,7.249,3.24,5.766,7.14c-1.429,3.953-6.372,7.084-10.981,7.028
				c-4.614-0.053-7.192-3.295-5.711-7.191C341.114,144.807,346.003,141.675,350.619,141.73z"/>
			<g>
				<path d="M149.542,235.08l1.021-2.157h0.939l0.43,8.981h-1.021c-0.663-2.54-1.494-4.416-2.496-5.619
					c-1.246-1.51-2.729-2.264-4.455-2.264c-1.867,0-3.388,0.836-4.562,2.51c-1.174,1.673-1.756,4.504-1.756,8.494
					c0,3.354,0.674,5.91,2.018,7.678c1.146,1.49,2.752,2.234,4.82,2.234c1.81,0,3.327-0.578,4.549-1.74
					c1.225-1.163,2.023-2.914,2.396-5.258h1.072c-0.312,2.65-1.222,4.688-2.729,6.117c-1.507,1.428-3.408,2.141-5.699,2.141
					c-1.859,0-3.562-0.469-5.114-1.402c-1.552-0.936-2.796-2.279-3.724-4.033c-0.93-1.758-1.396-3.682-1.396-5.77
					c0-2.221,0.479-4.309,1.438-6.26c0.963-1.948,2.188-3.414,3.685-4.396c1.496-0.98,3.106-1.468,4.838-1.468
					c0.962,0,1.894,0.169,2.802,0.502C147.497,233.701,148.479,234.277,149.542,235.08z"/>
			</g>
			<line fill="none" stroke="#000000" x1="60.794" y1="228.311" x2="93.115" y2="228.311"/>
			<g>
				<path d="M320.108,218.518c0.227-0.539,0.515-0.949,0.857-1.242c0.347-0.291,0.777-0.438,1.294-0.438
					c0.64,0,1.126,0.207,1.466,0.621c0.26,0.309,0.393,0.639,0.393,0.991c0,0.579-0.366,1.178-1.093,1.796
					c0.486,0.191,0.854,0.465,1.106,0.82c0.249,0.354,0.375,0.772,0.375,1.254c0,0.688-0.218,1.285-0.657,1.791
					c-0.566,0.656-1.396,0.984-2.479,0.984c-0.538,0-0.901-0.066-1.096-0.199c-0.191-0.133-0.288-0.275-0.288-0.43
					c0-0.111,0.043-0.214,0.136-0.3c0.092-0.085,0.201-0.129,0.332-0.129c0.097,0,0.197,0.017,0.298,0.047
					c0.067,0.021,0.218,0.091,0.454,0.216c0.234,0.119,0.394,0.193,0.484,0.221c0.145,0.041,0.3,0.062,0.465,0.062
					c0.396,0,0.747-0.154,1.04-0.466c0.295-0.312,0.441-0.677,0.441-1.101c0-0.31-0.065-0.607-0.202-0.898
					c-0.104-0.223-0.217-0.389-0.337-0.5c-0.168-0.155-0.396-0.299-0.689-0.426c-0.294-0.129-0.592-0.188-0.896-0.188h-0.188v-0.177
					c0.311-0.038,0.617-0.148,0.929-0.335c0.313-0.185,0.538-0.404,0.679-0.664c0.144-0.259,0.211-0.539,0.211-0.853
					c0-0.397-0.122-0.729-0.38-0.975c-0.25-0.25-0.562-0.374-0.938-0.374c-0.605,0-1.111,0.325-1.521,0.974L320.108,218.518z"/>
			</g>
			<g>
				<path d="M289.373,218.518c0.229-0.539,0.515-0.949,0.857-1.242c0.349-0.291,0.775-0.438,1.296-0.438
					c0.637,0,1.125,0.207,1.467,0.621c0.258,0.309,0.385,0.639,0.385,0.991c0,0.579-0.361,1.178-1.089,1.796
					c0.487,0.191,0.858,0.465,1.109,0.82c0.25,0.354,0.375,0.772,0.375,1.254c0,0.688-0.222,1.285-0.656,1.791
					c-0.572,0.656-1.398,0.984-2.482,0.984c-0.534,0-0.896-0.066-1.093-0.199c-0.196-0.133-0.292-0.275-0.292-0.43
					c0-0.111,0.046-0.214,0.138-0.3c0.097-0.085,0.205-0.129,0.33-0.129c0.104,0,0.198,0.017,0.3,0.047
					c0.065,0.021,0.222,0.091,0.453,0.216c0.234,0.119,0.397,0.193,0.487,0.221c0.146,0.041,0.3,0.062,0.465,0.062
					c0.398,0,0.745-0.154,1.039-0.466c0.296-0.312,0.444-0.677,0.444-1.101c0-0.31-0.069-0.607-0.207-0.898
					c-0.104-0.223-0.211-0.389-0.333-0.5c-0.169-0.155-0.397-0.299-0.69-0.426c-0.294-0.129-0.595-0.188-0.896-0.188h-0.188v-0.177
					c0.312-0.038,0.62-0.148,0.937-0.335c0.308-0.185,0.534-0.404,0.677-0.664c0.141-0.259,0.211-0.539,0.211-0.853
					c0-0.397-0.127-0.729-0.379-0.975c-0.253-0.248-0.566-0.374-0.943-0.374c-0.604,0-1.109,0.325-1.519,0.974L289.373,218.518z"/>
			</g>
			<g>
				<path d="M256.924,219.518c0.229-0.539,0.516-0.949,0.858-1.242c0.345-0.291,0.774-0.438,1.294-0.438
					c0.637,0,1.124,0.207,1.465,0.621c0.258,0.309,0.389,0.639,0.389,0.991c0,0.579-0.361,1.178-1.093,1.796
					c0.487,0.191,0.858,0.465,1.109,0.82c0.25,0.354,0.375,0.772,0.375,1.254c0,0.688-0.218,1.285-0.656,1.791
					c-0.57,0.656-1.398,0.984-2.48,0.984c-0.533,0-0.896-0.066-1.095-0.199c-0.189-0.133-0.29-0.275-0.29-0.43
					c0-0.111,0.047-0.214,0.141-0.3c0.092-0.085,0.2-0.129,0.327-0.129c0.102,0,0.197,0.017,0.303,0.047
					c0.064,0.021,0.218,0.091,0.45,0.216c0.234,0.119,0.396,0.193,0.485,0.221c0.146,0.041,0.3,0.062,0.465,0.062
					c0.398,0,0.747-0.154,1.04-0.466c0.294-0.312,0.442-0.677,0.442-1.101c0-0.31-0.066-0.607-0.204-0.898
					c-0.101-0.223-0.213-0.389-0.335-0.5c-0.168-0.155-0.397-0.299-0.689-0.426c-0.295-0.129-0.593-0.188-0.896-0.188h-0.188v-0.177
					c0.312-0.038,0.617-0.148,0.934-0.335c0.31-0.185,0.536-0.404,0.677-0.664c0.141-0.259,0.211-0.539,0.211-0.853
					c0-0.397-0.126-0.729-0.379-0.975c-0.251-0.25-0.563-0.374-0.938-0.374c-0.606,0-1.111,0.325-1.521,0.974L256.924,219.518z"/>
			</g>
			<g>
				<path d="M221.038,222.518c0.228-0.539,0.514-0.949,0.859-1.242c0.347-0.291,0.774-0.438,1.294-0.438
					c0.639,0,1.126,0.207,1.465,0.621c0.258,0.309,0.389,0.639,0.389,0.991c0,0.579-0.363,1.178-1.091,1.796
					c0.487,0.191,0.854,0.465,1.104,0.82c0.254,0.354,0.379,0.772,0.379,1.254c0,0.688-0.223,1.285-0.657,1.791
					c-0.571,0.656-1.396,0.984-2.482,0.984c-0.534,0-0.896-0.066-1.095-0.199c-0.192-0.133-0.289-0.275-0.289-0.43
					c0-0.111,0.045-0.214,0.137-0.3c0.093-0.085,0.203-0.129,0.332-0.129c0.102,0,0.196,0.017,0.3,0.047
					c0.065,0.021,0.22,0.091,0.451,0.216c0.234,0.119,0.397,0.193,0.487,0.221c0.145,0.041,0.299,0.062,0.463,0.062
					c0.398,0,0.747-0.154,1.041-0.466c0.297-0.312,0.444-0.677,0.444-1.101c0-0.31-0.07-0.607-0.206-0.898
					c-0.104-0.223-0.213-0.389-0.332-0.5c-0.171-0.155-0.399-0.299-0.694-0.426c-0.291-0.129-0.592-0.188-0.896-0.188h-0.188v-0.177
					c0.312-0.038,0.617-0.148,0.931-0.335c0.312-0.185,0.536-0.404,0.68-0.664c0.142-0.259,0.212-0.539,0.212-0.853
					c0-0.397-0.124-0.729-0.379-0.975c-0.252-0.25-0.566-0.374-0.942-0.374c-0.604,0-1.112,0.325-1.519,0.974L221.038,222.518z"/>
			</g>
			<g>
				<path d="M188.587,226.518c0.228-0.539,0.513-0.949,0.858-1.242c0.347-0.291,0.777-0.438,1.294-0.438
					c0.637,0,1.126,0.207,1.466,0.621c0.257,0.309,0.388,0.639,0.388,0.991c0,0.579-0.362,1.178-1.091,1.796
					c0.487,0.191,0.857,0.465,1.107,0.82c0.252,0.354,0.377,0.772,0.377,1.254c0,0.688-0.221,1.285-0.658,1.791
					c-0.57,0.656-1.396,0.984-2.479,0.984c-0.539,0-0.9-0.066-1.1-0.199c-0.189-0.133-0.29-0.275-0.29-0.43
					c0-0.111,0.047-0.214,0.14-0.3c0.092-0.085,0.203-0.129,0.332-0.129c0.098,0,0.195,0.017,0.299,0.047
					c0.064,0.021,0.218,0.091,0.453,0.216c0.233,0.119,0.396,0.193,0.482,0.221c0.146,0.041,0.303,0.062,0.466,0.062
					c0.397,0,0.746-0.154,1.039-0.466c0.294-0.312,0.443-0.677,0.443-1.101c0-0.31-0.067-0.607-0.203-0.898
					c-0.104-0.223-0.213-0.389-0.335-0.5c-0.17-0.155-0.396-0.299-0.688-0.426c-0.298-0.129-0.597-0.188-0.897-0.188h-0.188v-0.177
					c0.311-0.038,0.618-0.148,0.932-0.335c0.312-0.185,0.537-0.404,0.681-0.664c0.142-0.259,0.209-0.539,0.209-0.853
					c0-0.397-0.124-0.729-0.379-0.975c-0.249-0.25-0.562-0.374-0.938-0.374c-0.606,0-1.112,0.325-1.521,0.974L188.587,226.518z"/>
			</g>
			<g>
				<path d="M152.701,231.518c0.226-0.539,0.513-0.949,0.857-1.242c0.348-0.291,0.775-0.438,1.293-0.438
					c0.64,0,1.127,0.207,1.467,0.621c0.258,0.309,0.388,0.639,0.388,0.991c0,0.579-0.363,1.178-1.091,1.796
					c0.488,0.191,0.857,0.465,1.107,0.82c0.252,0.354,0.377,0.772,0.377,1.254c0,0.688-0.222,1.285-0.658,1.791
					c-0.569,0.656-1.396,0.984-2.48,0.984c-0.536,0-0.898-0.066-1.096-0.199c-0.191-0.133-0.29-0.275-0.29-0.43
					c0-0.111,0.047-0.214,0.138-0.3c0.094-0.085,0.202-0.129,0.331-0.129c0.099,0,0.198,0.017,0.3,0.047
					c0.066,0.021,0.215,0.091,0.45,0.216c0.235,0.119,0.396,0.193,0.487,0.221c0.145,0.041,0.299,0.062,0.464,0.062
					c0.397,0,0.746-0.154,1.039-0.466c0.297-0.312,0.446-0.677,0.446-1.101c0-0.31-0.07-0.607-0.207-0.898
					c-0.104-0.223-0.213-0.389-0.334-0.5c-0.168-0.155-0.397-0.299-0.692-0.426c-0.292-0.129-0.593-0.188-0.896-0.188h-0.188v-0.177
					c0.31-0.038,0.618-0.148,0.931-0.335c0.311-0.185,0.538-0.404,0.68-0.664c0.143-0.259,0.211-0.539,0.211-0.853
					c0-0.397-0.127-0.729-0.381-0.975c-0.25-0.25-0.564-0.374-0.938-0.374c-0.604,0-1.109,0.325-1.521,0.974L152.701,231.518z"/>
			</g>
			<g>
				<path d="M123.432,243.426l-0.559,1.533h-4.691v-0.218c1.381-1.259,2.353-2.286,2.916-3.084c0.562-0.798,0.844-1.529,0.844-2.188
					c0-0.504-0.153-0.918-0.463-1.242c-0.31-0.328-0.68-0.484-1.108-0.484c-0.392,0-0.742,0.109-1.054,0.342
					c-0.312,0.229-0.539,0.562-0.688,1.006h-0.216c0.097-0.723,0.349-1.275,0.752-1.668c0.403-0.386,0.91-0.58,1.517-0.58
					c0.645,0,1.185,0.208,1.616,0.622c0.431,0.414,0.646,0.903,0.646,1.47c0,0.397-0.094,0.805-0.28,1.203
					c-0.288,0.637-0.759,1.309-1.408,2.018c-0.972,1.062-1.582,1.703-1.823,1.923h2.077c0.423,0,0.72-0.017,0.888-0.046
					c0.174-0.033,0.326-0.096,0.463-0.19c0.139-0.094,0.256-0.231,0.356-0.409h0.216L123.432,243.426L123.432,243.426z"/>
			</g>
			<g>
				<path d="M359.428,218.518c0.229-0.539,0.516-0.949,0.857-1.242c0.349-0.291,0.778-0.438,1.294-0.438
					c0.639,0,1.127,0.207,1.469,0.621c0.256,0.309,0.386,0.639,0.386,0.991c0,0.579-0.359,1.178-1.09,1.796
					c0.487,0.191,0.858,0.465,1.107,0.82c0.252,0.354,0.377,0.772,0.377,1.254c0,0.688-0.219,1.285-0.658,1.791
					c-0.571,0.656-1.396,0.984-2.479,0.984c-0.536,0-0.898-0.066-1.098-0.199c-0.191-0.133-0.291-0.275-0.291-0.43
					c0-0.111,0.047-0.214,0.14-0.3c0.096-0.085,0.205-0.129,0.332-0.129c0.1,0,0.195,0.017,0.3,0.047
					c0.062,0.021,0.217,0.091,0.451,0.216c0.233,0.119,0.396,0.193,0.485,0.221c0.146,0.041,0.3,0.062,0.466,0.062
					c0.396,0,0.744-0.154,1.037-0.466c0.297-0.312,0.444-0.677,0.444-1.101c0-0.31-0.069-0.607-0.205-0.898
					c-0.102-0.223-0.211-0.389-0.333-0.5c-0.169-0.155-0.396-0.299-0.691-0.426c-0.294-0.129-0.594-0.188-0.896-0.188h-0.188v-0.177
					c0.312-0.038,0.619-0.148,0.934-0.335c0.309-0.185,0.538-0.404,0.679-0.664c0.141-0.259,0.21-0.539,0.21-0.853
					c0-0.397-0.126-0.729-0.379-0.975c-0.252-0.248-0.563-0.374-0.94-0.374c-0.607,0-1.111,0.325-1.521,0.974L359.428,218.518z"/>
			</g>
			<g>
				<path d="M97.871,239.868h11.617c2.279,0,4.025,0.502,5.234,1.506c1.211,1.006,1.813,2.265,1.813,3.783
					c0,1.266-0.421,2.338-1.263,3.225c-0.844,0.886-2.114,1.582-3.819,2.095c2.11,0.442,3.685,1.143,4.741,2.092
					c1.049,0.955,1.58,2.152,1.58,3.604c0,1.106-0.303,2.089-0.898,2.943c-0.598,0.856-1.593,1.579-2.984,2.173
					c-1.39,0.598-2.967,0.895-4.738,0.895H97.88v-1.127h1.835c0.553,0,0.96-0.091,1.213-0.271c0.256-0.179,0.385-0.388,0.385-0.615
					v-17.886c0-0.422-0.125-0.743-0.377-0.957c-0.25-0.219-0.615-0.324-1.101-0.324h-1.962v-1.134h-0.002V239.868z M104.494,250.109
					h4.236c1.301,0,2.336-0.381,3.109-1.143c0.771-0.761,1.156-2.009,1.156-3.74c0-1.07-0.184-1.904-0.551-2.508
					c-0.368-0.604-0.899-1.037-1.604-1.316c-0.7-0.274-1.911-0.412-3.637-0.412c-1.22,0-1.976,0.089-2.271,0.262
					c-0.291,0.176-0.438,0.482-0.438,0.926V250.109L104.494,250.109L104.494,250.109z M104.494,251.236v8.609
					c0,0.399,0.117,0.701,0.355,0.902c0.237,0.2,0.664,0.301,1.276,0.301h2.708c1.793,0,3.111-0.395,3.971-1.183
					c0.858-0.791,1.284-2.021,1.284-3.69c0-1.529-0.442-2.732-1.325-3.613c-0.891-0.881-2.113-1.321-3.676-1.321L104.494,251.236
					L104.494,251.236z"/>
			</g>
			<g>
				<path fill="#6200FC" d="M244.519,162.889c6.099,0.055,11.863,2.36,12.305,7.469c0.33,3.736-4.612,7.142-10.709,7.142
					c-6.151-0.056-11.859-2.31-12.355-7.411C233.426,166.292,238.42,162.889,244.519,162.889z M245.999,176.232
					c2.638,0,4.341-2.527,4.065-4.561c-0.606-4.009-1.979-7.25-5.604-7.25c-2.636,0-4.173,2.581-3.841,4.612
					C241.224,173.048,242.377,176.232,245.999,176.232z"/>
			</g>
		</g>
		<g>
			<path id="path2070" fill="#9606F4" d="M15.559,200.018c3.803-2.566,6.646-4.514,8.472-5.854c1.831-1.321,3.758-2.979,5.732-4.946
				c1.973-1.966,3.634-4.196,4.981-6.672c1.059-1.821,1.974-3.938,2.72-6.337c0.748-2.377,1.133-4.684,1.205-6.863
				c0-2.039-0.265-3.98-0.818-5.811c-0.531-1.85-1.445-3.36-2.745-4.584c-1.299-1.2-2.983-1.801-5.078-1.801
				c-2.021,0-3.924,0.406-5.704,1.197c-1.758,0.816-3.012,2.11-3.707,3.938c0,0.17-0.098,0.384-0.243,0.693
				c0.048,0.388,0.243,0.672,0.604,0.893c0.36,0.216,0.672,0.312,0.962,0.312c0.144,0,0.553-0.072,1.18-0.218
				c0.65-0.146,1.18-0.239,1.612-0.239c1.277,0,2.409,0.457,3.442,1.347c1.013,0.888,1.519,1.966,1.519,3.239
				c0,0.912-0.265,1.773-0.771,2.564c-0.504,0.793-1.203,1.439-2.093,1.896c-0.893,0.48-1.88,0.697-2.936,0.697
				c-1.928,0-3.563-0.578-4.913-1.754c-1.324-1.199-1.998-2.713-1.998-4.609c0-2.426,0.746-4.515,2.214-6.287
				c1.493-1.776,3.37-3.096,5.682-3.981c2.288-0.913,4.599-1.346,6.958-1.346c2.574,0,5.031,0.647,7.317,1.968
				c2.312,1.295,4.118,3.098,5.464,5.327c1.349,2.255,2.048,4.655,2.048,7.249c0,4.609-1.542,8.881-4.622,12.842
				c-3.083,3.962-6.885,7.395-11.436,10.32c-3.032,1.992-7.942,4.682-14.707,8.064L15.559,200.018z M48.997,162.887
				c0-0.865,0.312-1.586,0.938-2.162c0.602-0.599,1.349-0.887,2.237-0.887c0.771,0,1.494,0.333,2.144,0.98
				c0.649,0.625,0.962,1.369,0.962,2.187c0,0.863-0.335,1.604-0.962,2.208c-0.673,0.574-1.421,0.862-2.264,0.862
				c-0.89,0-1.612-0.288-2.189-0.935C49.287,164.518,48.997,163.773,48.997,162.887z M48.997,175.463
				c0-0.865,0.312-1.609,0.89-2.184c0.6-0.604,1.348-0.889,2.286-0.889c0.771,0,1.47,0.312,2.144,0.959
				c0.627,0.647,0.962,1.346,0.962,2.11c0,0.938-0.313,1.683-0.914,2.281c-0.627,0.601-1.349,0.909-2.192,0.909
				c-0.938,0-1.686-0.312-2.286-0.891C49.308,177.189,48.997,176.423,48.997,175.463z"/>
		</g>
	</g>
</g>
</svg>
