<?xml version="1.0" encoding="utf-8"?>
<!-- Generator: Adobe Illustrator 13.0.1, SVG Export Plug-In . SVG Version: 6.00 Build 14948)  -->
<!DOCTYPE svg PUBLIC "-//W3C//DTD SVG 1.0//EN" "http://www.w3.org/TR/2001/REC-SVG-20010904/DTD/svg10.dtd">
<svg version="1.0" xmlns="http://www.w3.org/2000/svg" xmlns:xlink="http://www.w3.org/1999/xlink" x="0px" y="0px" width="500px"
	 height="270px" viewBox="0 0 500 270" enable-background="new 0 0 500 270" xml:space="preserve">
<g id="Layer_1">
	<g id="Layer_1_1_">
	</g>
	<path d="M10.499,111.123v-1.044h462.473v1.044H10.499z M10.499,125.125v-1.153h462.473v1.153H10.499z M10.499,139.02v-1.043
		h462.473v1.043H10.499z M10.499,152.914v-1.044h462.473v1.044H10.499z M10.499,166.809v-1.041h462.473v1.041H10.499z"/>
	<path fill="#00FF18" d="M173.879,143c4.669,0.055,7.25,3.242,5.767,7.14c-1.428,3.955-6.371,7.086-10.984,7.029
		c-4.612-0.052-7.193-3.296-5.712-7.191C164.378,146.076,169.267,142.947,173.879,143z"/>
	<path d="M157.852,178.887h11.524c1.709,0,3.163,0.303,4.359,0.905c1.488,0.763,2.752,2.036,3.793,3.815
		c1.039,1.781,1.562,3.887,1.562,6.319c0,2.013-0.313,3.825-0.935,5.435c-0.473,1.238-1.2,2.32-2.181,3.244
		c-0.98,0.925-2.174,1.617-3.582,2.082c-1.056,0.34-2.464,0.512-4.224,0.512h-10.316v-1.126h2.117c0.537,0,0.905-0.085,1.113-0.253
		c0.208-0.174,0.31-0.439,0.31-0.803v-17.979c0-0.312-0.11-0.562-0.332-0.748c-0.225-0.187-0.531-0.276-0.923-0.276h-2.285V178.887z
		 M165.912,180.016c-0.454,0-0.788,0.096-1.006,0.287c-0.216,0.188-0.323,0.477-0.323,0.859v17.811c0,0.36,0.125,0.637,0.377,0.819
		c0.251,0.187,0.681,0.28,1.284,0.28h1.904c1.703,0,3.191-0.438,4.471-1.312c0.836-0.584,1.47-1.404,1.904-2.463
		c0.593-1.428,0.892-3.398,0.892-5.915c0-3.724-0.649-6.45-1.949-8.18c-1.108-1.461-2.781-2.188-5.017-2.188h-2.537V180.016z"/>
	<path fill="#0C00FF" d="M207.001,135.32c4.667,0.056,7.249,3.24,5.766,7.14c-1.427,3.954-6.37,7.084-10.982,7.03
		c-4.614-0.055-7.195-3.295-5.712-7.192C197.5,138.396,202.388,135.265,207.001,135.32z"/>
	<path d="M193.401,178.887h17.672l0.429,7.536h-1.019c-0.402-2.378-1.039-4.04-1.909-4.985c-0.87-0.946-2.003-1.42-3.399-1.42
		h-4.374c-0.352,0-0.617,0.098-0.8,0.287c-0.181,0.189-0.271,0.481-0.271,0.875v7.955h1.916c1.027,0,1.857-0.367,2.495-1.101
		c0.639-0.731,0.984-1.859,1.034-3.377h1.044v10.325h-1.044c-0.05-1.707-0.4-2.928-1.049-3.666
		c-0.649-0.741-1.532-1.109-2.646-1.109h-1.75v8.873c0,0.322,0.109,0.568,0.325,0.742c0.216,0.171,0.575,0.253,1.078,0.253h3.454
		c3.753,0,5.913-2.396,6.486-7.187h1.1l-0.377,8.312H193.4v-1.126h1.523c0.593,0,1.011-0.104,1.252-0.309
		c0.24-0.207,0.362-0.505,0.362-0.897V181.18c0-0.395-0.107-0.685-0.318-0.875c-0.211-0.191-0.541-0.287-0.996-0.287H193.4
		L193.401,178.887L193.401,178.887z"/>
	<path fill="#8F00FF" d="M240.12,127.641c4.669,0.055,7.25,3.242,5.767,7.14c-1.428,3.955-6.371,7.084-10.984,7.029
		c-4.612-0.053-7.193-3.295-5.712-7.19C230.617,130.717,235.508,127.587,240.12,127.641z"/>
	<path d="M227.915,178.887h18.153l0.297,7.723h-1.046c-0.466-2.654-1.115-4.387-1.951-5.19c-0.958-0.937-2.324-1.399-4.099-1.399
		h-3.583c-0.354,0-0.608,0.082-0.772,0.248c-0.161,0.166-0.242,0.414-0.242,0.748v8.043h1.919c1.067,0,1.919-0.353,2.552-1.057
		c0.634-0.706,0.976-1.79,1.027-3.26h1.1v10.083h-1.1c-0.07-1.668-0.412-2.855-1.027-3.57c-0.613-0.712-1.466-1.067-2.552-1.067
		h-1.919v8.521c0,0.503,0.121,0.858,0.362,1.063c0.241,0.209,0.66,0.312,1.253,0.312h2.325v1.123h-10.698v-1.127h2.288
		c0.461,0,0.79-0.093,0.984-0.277c0.196-0.186,0.293-0.493,0.293-0.913v-17.758c0-0.398-0.103-0.688-0.309-0.857
		c-0.206-0.174-0.565-0.256-1.076-0.256h-2.181L227.915,178.887L227.915,178.887z"/>
	<path d="M276.76,180.114l1.229-2.222h1.021l0.562,8.902h-0.991c-0.751-2.562-1.64-4.416-2.66-5.562
		c-1.302-1.461-2.795-2.188-4.479-2.188c-1.291,0-2.448,0.367-3.471,1.104c-1.022,0.73-1.809,1.832-2.354,3.297
		c-0.547,1.465-0.819,3.531-0.819,6.188c0,2.582,0.272,4.601,0.821,6.054c0.546,1.457,1.302,2.529,2.264,3.219
		c0.965,0.686,2.096,1.029,3.391,1.029c1.756,0,3.115-0.492,4.074-1.475s1.438-2.254,1.438-3.812v-2.092
		c0-0.332-0.13-0.588-0.386-0.769c-0.258-0.179-0.68-0.271-1.262-0.271h-1.894v-1.045h9.356v1.045h-1.268
		c-0.564,0-0.969,0.101-1.211,0.295c-0.242,0.193-0.361,0.479-0.361,0.854v8.532h-0.992c-0.358-1.327-0.736-2.604-1.129-3.821
		c-0.754,1.237-1.648,2.165-2.69,2.784c-1.04,0.616-2.22,0.928-3.537,0.928c-1.88,0-3.624-0.479-5.228-1.446
		s-2.871-2.324-3.801-4.08c-0.93-1.754-1.396-3.736-1.396-5.949c0-2.223,0.468-4.213,1.401-5.973
		c0.934-1.759,2.211-3.156,3.832-4.191c1.623-1.037,3.262-1.553,4.92-1.553c0.941,0,1.844,0.158,2.705,0.477
		C274.7,178.686,275.672,179.268,276.76,180.114z"/>
	<path fill="#F70303" d="M306.359,112.283c4.668,0.054,7.25,3.24,5.764,7.138c-1.43,3.956-6.369,7.086-10.979,7.031
		c-4.613-0.055-7.193-3.295-5.712-7.195C296.858,115.357,301.743,112.226,306.359,112.283z"/>
	<path d="M305.374,178.434h1.056l7.993,20.404c0.323,0.821,0.979,1.235,1.976,1.235h0.695v1.126h-8.904v-1.126h0.711
		c0.927,0,1.578-0.101,1.966-0.302c0.259-0.143,0.393-0.355,0.393-0.646c0-0.172-0.034-0.354-0.106-0.543l-1.844-4.73h-8.811
		l-1.053,2.713c-0.272,0.724-0.408,1.299-0.408,1.717c0,0.492,0.229,0.916,0.688,1.266c0.459,0.354,1.125,0.526,2.002,0.526h0.754
		v1.128h-8.099v-1.126c0.867,0,1.554-0.188,2.06-0.562c0.502-0.379,0.966-1.095,1.392-2.148L305.374,178.434z M304.959,182.721
		l-3.996,9.951h7.877L304.959,182.721z"/>
	<path fill="#F76806" d="M339.479,104.604c4.67,0.054,7.251,3.24,5.766,7.138c-1.428,3.955-6.372,7.083-10.979,7.031
		c-4.613-0.056-7.196-3.295-5.717-7.195C329.979,107.679,334.866,104.549,339.479,104.604z"/>
	<path d="M330.104,178.887h11.614c2.279,0,4.025,0.504,5.235,1.508c1.211,1.006,1.814,2.267,1.814,3.783
		c0,1.266-0.422,2.34-1.265,3.225c-0.845,0.886-2.114,1.582-3.815,2.096c2.106,0.441,3.682,1.141,4.737,2.093
		c1.05,0.952,1.579,2.152,1.579,3.603c0,1.106-0.302,2.089-0.896,2.941c-0.599,0.856-1.594,1.581-2.981,2.176
		c-1.394,0.597-2.97,0.894-4.742,0.894h-11.274v-1.127h1.838c0.553,0,0.96-0.091,1.213-0.271c0.255-0.18,0.384-0.389,0.384-0.615
		v-17.887c0-0.424-0.124-0.744-0.377-0.959c-0.25-0.219-0.614-0.324-1.101-0.324h-1.961L330.104,178.887L330.104,178.887z
		 M336.727,189.13h4.237c1.302,0,2.336-0.38,3.108-1.14c0.771-0.76,1.156-2.01,1.156-3.742c0-1.07-0.185-1.906-0.549-2.507
		c-0.369-0.604-0.9-1.038-1.606-1.317c-0.7-0.273-1.91-0.41-3.638-0.41c-1.221,0-1.975,0.086-2.27,0.26
		c-0.292,0.179-0.438,0.482-0.438,0.926v7.932L336.727,189.13L336.727,189.13z M336.727,190.257v8.608
		c0,0.402,0.117,0.703,0.355,0.904s0.664,0.302,1.277,0.302h2.707c1.793,0,3.113-0.392,3.972-1.183s1.282-2.021,1.282-3.691
		c0-1.529-0.441-2.734-1.324-3.615c-0.891-0.881-2.111-1.322-3.676-1.322L336.727,190.257L336.727,190.257z"/>
	<path fill="#F7F006" d="M372.596,96.925c4.67,0.053,7.252,3.24,5.766,7.138c-1.428,3.956-6.367,7.084-10.982,7.031
		c-4.612-0.055-7.188-3.295-5.708-7.195C363.092,100,367.983,96.869,372.596,96.925z"/>
	<path d="M380.745,180.08l1.021-2.157h0.938l0.429,8.981h-1.019c-0.664-2.541-1.495-4.416-2.498-5.62
		c-1.243-1.511-2.729-2.263-4.454-2.263c-1.867,0-3.388,0.836-4.562,2.509c-1.175,1.672-1.756,4.503-1.756,8.493
		c0,3.354,0.675,5.912,2.021,7.679c1.146,1.491,2.752,2.235,4.818,2.235c1.809,0,3.326-0.58,4.55-1.741
		c1.224-1.162,2.022-2.914,2.396-5.259h1.072c-0.312,2.653-1.222,4.69-2.729,6.119c-1.508,1.428-3.409,2.14-5.698,2.14
		c-1.858,0-3.564-0.468-5.115-1.402c-1.554-0.937-2.795-2.278-3.725-4.034c-0.93-1.757-1.396-3.681-1.396-5.769
		c0-2.222,0.479-4.308,1.438-6.259c0.964-1.948,2.188-3.414,3.686-4.397c1.495-0.979,3.105-1.468,4.835-1.468
		c0.964,0,1.896,0.169,2.805,0.502C378.7,178.701,379.683,179.277,380.745,180.08z"/>
	<path fill="#F7E608" d="M140.76,150.679c4.667,0.055,7.249,3.24,5.766,7.139c-1.428,3.957-6.371,7.088-10.984,7.029
		c-4.614-0.054-7.192-3.295-5.71-7.191C131.257,153.757,136.146,150.623,140.76,150.679z"/>
	<path d="M140.53,180.08l1.022-2.157h0.938l0.429,8.981H141.9c-0.666-2.541-1.495-4.416-2.498-5.62
		c-1.247-1.511-2.73-2.263-4.456-2.263c-1.867,0-3.387,0.836-4.561,2.509c-1.175,1.672-1.758,4.503-1.758,8.493
		c0,3.354,0.676,5.912,2.018,7.679c1.146,1.491,2.753,2.235,4.822,2.235c1.809,0,3.325-0.58,4.549-1.741
		c1.223-1.162,2.024-2.914,2.396-5.259h1.073c-0.312,2.653-1.22,4.69-2.729,6.119c-1.508,1.428-3.409,2.14-5.698,2.14
		c-1.86,0-3.565-0.468-5.117-1.402c-1.55-0.937-2.795-2.278-3.724-4.034c-0.929-1.757-1.395-3.681-1.395-5.769
		c0-2.222,0.479-4.308,1.438-6.259c0.96-1.948,2.187-3.414,3.684-4.397c1.494-0.979,3.107-1.468,4.835-1.468
		c0.963,0,1.896,0.169,2.8,0.502C138.485,178.701,139.468,179.277,140.53,180.08z"/>
	<path d="M148.841,180.025v0.832h-1.067v2.102h-0.969v-2.102h-3.367v-0.752l3.691-5.269h0.645v5.187h1.067V180.025z
		 M146.804,180.025v-3.949l-2.792,3.949H146.804z"/>
	<path d="M389.359,175.005l-0.457,0.997h-2.396l-0.521,1.068c1.038,0.152,1.855,0.535,2.466,1.156
		c0.52,0.529,0.777,1.154,0.777,1.877c0,0.416-0.087,0.805-0.255,1.16c-0.173,0.355-0.386,0.658-0.642,0.908
		c-0.259,0.248-0.547,0.451-0.863,0.605c-0.452,0.215-0.91,0.322-1.386,0.322c-0.477,0-0.823-0.08-1.039-0.244
		c-0.219-0.162-0.325-0.34-0.325-0.537c0-0.108,0.043-0.205,0.136-0.289c0.092-0.084,0.202-0.127,0.34-0.127
		c0.103,0,0.189,0.016,0.267,0.048c0.077,0.03,0.208,0.108,0.391,0.239c0.293,0.203,0.594,0.307,0.896,0.307
		c0.457,0,0.859-0.174,1.203-0.521c0.347-0.347,0.521-0.768,0.521-1.262c0-0.482-0.152-0.93-0.465-1.348
		c-0.31-0.416-0.733-0.739-1.28-0.967c-0.426-0.174-1.006-0.276-1.739-0.306l1.523-3.092L389.359,175.005L389.359,175.005
		L389.359,175.005z"/>
	<path d="M353.852,180.025v0.832h-1.067v2.102h-0.97v-2.102h-3.364v-0.752l3.688-5.269h0.646v5.187h1.067V180.025z M351.812,180.025
		v-3.949l-2.791,3.949H351.812z"/>
	<path d="M316.249,180.025v0.832h-1.067v2.102h-0.969v-2.102h-3.367v-0.752l3.69-5.269h0.646v5.187h1.067V180.025z M314.213,180.025
		v-3.949l-2.792,3.949H314.213z"/>
	<path d="M285.514,180.025v0.832h-1.068v2.102h-0.967v-2.102h-3.369v-0.752l3.691-5.269h0.645v5.187h1.068V180.025z
		 M283.479,180.025v-3.949l-2.791,3.949H283.479z"/>
	<path d="M253.062,180.025v0.832h-1.069v2.102h-0.968v-2.102h-3.366v-0.752l3.688-5.269h0.646v5.187h1.068V180.025L253.062,180.025z
		 M251.027,180.025v-3.949l-2.792,3.949H251.027z"/>
	<path d="M217.177,180.025v0.832h-1.068v2.102h-0.967v-2.102h-3.367v-0.752l3.689-5.269h0.645v5.187h1.068V180.025z
		 M215.142,180.025v-3.949l-2.792,3.949H215.142z"/>
	<path d="M183.01,180.025v0.832h-1.067v2.102h-0.969v-2.102h-3.367v-0.752l3.69-5.269h0.646v5.187h1.067V180.025z M180.974,180.025
		v-3.949l-2.792,3.949H180.974z"/>
	<path fill="#F70303" d="M273.241,119.962c4.668,0.054,7.25,3.24,5.764,7.138c-1.43,3.957-6.369,7.086-10.98,7.032
		c-4.613-0.056-7.193-3.295-5.711-7.196C263.741,123.037,268.626,119.905,273.241,119.962z"/>
	<path fill="#F70303" d="M107.641,158.357c4.668,0.053,7.25,3.239,5.764,7.137c-1.43,3.957-6.369,7.086-10.979,7.031
		c-4.613-0.055-7.193-3.295-5.712-7.195C98.14,161.432,103.024,158.3,107.641,158.357z"/>
	<path d="M101.708,178.1h1.056l7.993,20.404c0.323,0.822,0.979,1.236,1.976,1.236h0.695v1.125h-8.904v-1.125h0.711
		c0.927,0,1.578-0.102,1.966-0.303c0.259-0.143,0.393-0.355,0.393-0.646c0-0.172-0.034-0.354-0.106-0.543l-1.844-4.73h-8.811
		l-1.053,2.713c-0.272,0.725-0.408,1.299-0.408,1.717c0,0.492,0.229,0.916,0.688,1.266c0.459,0.354,1.125,0.527,2.002,0.527h0.754
		v1.127h-8.099v-1.125c0.867,0,1.554-0.189,2.06-0.562c0.502-0.379,0.966-1.094,1.392-2.148L101.708,178.1z M101.292,182.387
		l-3.996,9.951h7.877L101.292,182.387z"/>
	<path d="M112.583,179.691v0.832h-1.067v2.102h-0.969v-2.102h-3.367v-0.752l3.69-5.268h0.646v5.186h1.067V179.691z M110.546,179.691
		v-3.949l-2.792,3.949H110.546z"/>
</g>
<g id="Layer_2">
</g>
<g id="Layer_3">
	<g id="layer1_2_">
		<g id="g2972_2_" transform="matrix(1,0,0,1.030698,-309.364,-543.8647)">
			<path id="path2974_2_" d="M379.227,695.393c-0.357,5.55-3.457,11.207-8.833,13.275c-4.607,1.706-10.416,1.964-14.419-1.28
				c-2.996-2.217-4.142-7.26-1.007-9.868c2.994-2.836,8.753-0.277,8.407,3.895c1.176,2.865-4.911,4.625-1.711,6.629
				c3.681,0.96,7.434-2.047,8.379-5.539c1.374-5.016,1.299-10.427,0.096-15.47c-0.646-2.484-2.182-6.347-5.465-5.342
				c-4.297,1-6.708,5.246-8.061,9.105c-0.783-5.472-4.223-10.203-8.179-13.893c0,10.99,0,21.981,0,32.967l-2.461,0.016
				c0-22.588,0-45.631,0-68.216l2.461-0.001c0,10.834,0,22.115,0,32.95c3.923-3.635,7.378-8.289,8.12-13.715
				c1.417,4.047,4.161,8.514,8.793,9.143c3.407,0.187,4.382-3.966,5.061-6.555c0.893-4.891,0.989-10.089-0.561-14.855
				c-1.107-3.354-4.75-6.097-8.341-5.198c-2.903,2.115,2.821,3.644,1.854,6.368c0.618,3.916-4.227,6.976-7.565,4.945
				c-3.617-1.978-3.353-7.309-0.566-9.884c1.897-1.959,5.507-3.226,8.15-3.204c2.698,0.021,4.272,0.221,6.687,1.063
				c5.404,1.927,8.671,7.482,9.116,13.019c0.813,6.277-2.698,13.127-8.613,15.607c-3.849,1.492-8.3,0.2-11.25-2.538
				c-0.482,2.749-1.708,5.368-3.224,7.267c1.226,1.999,2.551,5.213,3.227,6.312c3.695-3.365,10.223-3.769,14.069-0.435
				C377.306,685.177,379.749,690.292,379.227,695.393z"/>
		</g>
		<g id="g2976_2_" transform="matrix(1,0,0,1.030928,-309.364,-543.9805)">
			<path id="path2978_2_" d="M340.698,709.859h-8v-68.223h8V709.859z"/>
		</g>
	</g>
</g>
</svg>
