<?xml version="1.0" encoding="utf-8"?>
<!-- Generator: Adobe Illustrator 13.0.2, SVG Export Plug-In . SVG Version: 6.00 Build 14948)  -->
<!DOCTYPE svg PUBLIC "-//W3C//DTD SVG 1.0//EN" "http://www.w3.org/TR/2001/REC-SVG-20010904/DTD/svg10.dtd">
<svg version="1.0" id="Layer_1" xmlns="http://www.w3.org/2000/svg" xmlns:xlink="http://www.w3.org/1999/xlink" x="0px" y="0px"
	 width="500px" height="270px" viewBox="0 0 500 270" enable-background="new 0 0 500 270" xml:space="preserve">
<g id="Layer_1_1_">
</g>
<g id="Layer_2">
	<g id="Layer_2_1_">
		<g>
			<path d="M10.499,29.123v-1.044h462.473v1.044H10.499z M10.499,43.125v-1.153h462.473v1.153H10.499z M10.499,57.02v-1.044h462.473
				v1.044H10.499z M10.499,70.914V69.87h462.473v1.044H10.499z M10.499,84.809v-1.042h462.473v1.042H10.499z"/>
			<path fill="#F200FF" d="M35.969,83.271C24.656,77.888,22.844,70.97,22.35,63.884c-0.55-7.688,4.339-15.486,8.896-19.825
				c2.636-2.471,5.492-4.887,8.898-7.468c-0.111-1.922-0.55-2.692-0.77-5.437c-0.055-1.153-0.769-6.535,0.384-12.741
				C40.472,14.732,45.086,6.056,48.271,6c2.472-0.055,6.261,9.832,6.372,14.774c0.164,7.634-1.647,11.093-3.9,15.047
				c-1.153,1.978-2.361,3.351-3.625,4.889c-1.317,1.592-2.8,2.525-4.173,3.734c0,0,1.758,9.939,1.812,10.654
				c3.515-0.439,7.798,0.821,9.337,1.922c3.898,2.91,5.381,6.92,5.656,10.818c0.495,6.205-2.911,12.741-10.435,15.872
				c0,0,1.153,7.907,1.428,9.556c0.604,4.336,0.495,7.084-0.439,8.84c-1.592,2.966-4.173,5.711-9.171,6.043
				c-3.845,0.218-11.424-1.701-11.808-7.745c-0.221-3.57,1.373-7.413,5.71-7.687c2.636-0.22,5.767,1.977,5.986,5.106
				c0.22,2.692-1.537,5.493-6.095,6.756c0.714,0.989,2.855,2.146,5.931,2.146c3.185,0,6.479-2.146,8.073-4.998
				c0.989-1.867,0.878-5.219,0.495-8.293c-0.166-1.045-1.483-9.337-1.483-9.337C43.878,84.755,38.275,84.369,35.969,83.271z
				 M37.067,70.256c0.109,2.635,2.306,5.712,4.337,6.754c-0.273,0.166-0.548,0.605-0.548,0.605c-2.253-1.1-4.175-2.91-4.669-3.57
				c-1.592-2.14-2.251-3.349-2.471-6.59c-0.219-3.021,1.428-7.083,5.107-9.94c1.922-1.428,2.856-1.758,4.503-2.142l-1.647-9.94
				c-1.703,0.987-8.732,6.646-11.697,11.258c-2.636,4.12-4.229,7.415-3.9,11.479c0.659,9.172,10.709,16.696,21.583,14.115
				c0,0-3.24-19.497-3.187-19.497C38.495,63.005,36.902,67.62,37.067,70.256z M41.517,35.439
				c4.778-3.734,11.258-10.765,10.874-16.202c-0.109-1.701-0.823-4.777-3.295-4.723C43.438,14.569,40.251,26.375,41.517,35.439z
				 M48.985,81.844c6.317-2.142,6.592-7.579,6.372-10.82c-0.221-2.69-1.428-8.733-9.448-8.347L48.985,81.844z"/>
			<g>
				<path fill="#00FF18" d="M-203.6-131.262c4.669,0.055,7.25,3.243,5.767,7.14c-1.428,3.955-6.371,7.086-10.984,7.029
					c-4.612-0.052-7.193-3.295-5.712-7.191C-213.101-128.185-208.212-131.314-203.6-131.262z"/>
				<g>
					<path d="M-217.148-102.113h11.524c1.709,0,3.163,0.303,4.359,0.905c1.488,0.763,2.752,2.036,3.793,3.815
						c1.039,1.781,1.562,3.887,1.562,6.32c0,2.012-0.313,3.825-0.935,5.434c-0.473,1.238-1.2,2.32-2.181,3.244
						c-0.98,0.925-2.174,1.617-3.582,2.083c-1.056,0.34-2.464,0.513-4.224,0.513h-10.316v-1.126h2.117
						c0.537,0,0.905-0.085,1.113-0.253c0.208-0.174,0.31-0.439,0.31-0.803v-17.979c0-0.312-0.11-0.561-0.332-0.748
						c-0.225-0.186-0.531-0.277-0.923-0.277h-2.285V-102.113z M-209.088-100.984c-0.454,0-0.788,0.096-1.006,0.287
						c-0.216,0.188-0.323,0.476-0.323,0.859v17.811c0,0.36,0.125,0.637,0.377,0.819c0.251,0.187,0.681,0.28,1.284,0.28h1.904
						c1.703,0,3.191-0.438,4.471-1.312c0.836-0.584,1.47-1.404,1.904-2.463c0.593-1.428,0.892-3.398,0.892-5.915
						c0-3.724-0.649-6.45-1.949-8.18c-1.108-1.461-2.781-2.188-5.017-2.188h-2.537V-100.984z"/>
				</g>
			</g>
			<g>
				<path fill="#0C00FF" d="M-169.874-138.209c4.667,0.056,7.249,3.24,5.765,7.14c-1.426,3.954-6.37,7.084-10.982,7.031
					c-4.614-0.055-7.195-3.295-5.712-7.193C-179.375-135.133-174.488-138.264-169.874-138.209z"/>
				<g>
					<path d="M-181.599-102.113h17.672l0.429,7.536h-1.019c-0.402-2.378-1.039-4.04-1.909-4.985c-0.87-0.947-2.003-1.42-3.399-1.42
						h-4.374c-0.352,0-0.617,0.097-0.8,0.287c-0.181,0.189-0.271,0.481-0.271,0.875v7.955h1.916c1.027,0,1.857-0.367,2.495-1.101
						c0.639-0.731,0.984-1.859,1.034-3.377h1.044v10.325h-1.044c-0.05-1.707-0.4-2.928-1.049-3.666
						c-0.649-0.741-1.532-1.109-2.646-1.109h-1.75v8.873c0,0.323,0.109,0.568,0.325,0.742c0.216,0.171,0.575,0.253,1.078,0.253
						h3.454c3.753,0,5.913-2.396,6.486-7.187h1.1l-0.377,8.312H-181.6v-1.126h1.523c0.593,0,1.011-0.104,1.252-0.309
						c0.24-0.207,0.362-0.504,0.362-0.897V-99.82c0-0.395-0.107-0.685-0.318-0.875c-0.211-0.192-0.541-0.287-0.996-0.287h-1.823
						L-181.599-102.113L-181.599-102.113z"/>
				</g>
			</g>
			<g>
				<path fill="#8F00FF" d="M-135.809-145.156c4.669,0.055,7.25,3.241,5.767,7.14c-1.428,3.954-6.371,7.084-10.984,7.029
					c-4.612-0.053-7.193-3.295-5.712-7.191C-145.312-142.081-140.421-145.21-135.809-145.156z"/>
				<g>
					<path d="M-147.085-102.113h18.153l0.297,7.723h-1.046c-0.466-2.655-1.115-4.387-1.951-5.191c-0.958-0.936-2.324-1.4-4.099-1.4
						h-3.583c-0.354,0-0.608,0.082-0.772,0.248c-0.161,0.166-0.242,0.414-0.242,0.748v8.043h1.919c1.067,0,1.919-0.352,2.552-1.056
						c0.634-0.706,0.976-1.79,1.027-3.26h1.1v10.083h-1.1c-0.07-1.668-0.412-2.855-1.027-3.57c-0.613-0.712-1.466-1.068-2.552-1.068
						h-1.919v8.521c0,0.503,0.121,0.858,0.362,1.063c0.241,0.209,0.66,0.312,1.253,0.312h2.325v1.123h-10.698v-1.127h2.288
						c0.461,0,0.79-0.093,0.984-0.277c0.196-0.186,0.293-0.493,0.293-0.913v-17.758c0-0.398-0.103-0.688-0.309-0.857
						c-0.206-0.174-0.565-0.256-1.076-0.256h-2.181L-147.085-102.113L-147.085-102.113z"/>
				</g>
			</g>
			<g>
				<g>
					<path fill="#EC06F9" d="M-104.35-153.082c6.096,0.055,11.863,2.361,12.303,7.47c0.33,3.736-4.613,7.138-10.71,7.138
						c-6.151-0.054-11.861-2.306-12.354-7.411C-115.441-149.678-110.448-153.082-104.35-153.082z M-102.869-139.736
						c2.637,0,4.34-2.529,4.064-4.559c-0.605-4.009-1.979-7.25-5.604-7.25c-2.637,0-4.173,2.581-3.843,4.612
						C-107.645-142.922-106.491-139.736-102.869-139.736z"/>
				</g>
				<g>
					<path d="M-98.24-100.886l1.229-2.222h1.021l0.562,8.903h-0.991c-0.751-2.562-1.64-4.416-2.66-5.562
						c-1.302-1.461-2.795-2.188-4.479-2.188c-1.291,0-2.449,0.367-3.471,1.103c-1.023,0.731-1.809,1.832-2.354,3.298
						c-0.547,1.464-0.819,3.53-0.819,6.188c0,2.582,0.272,4.601,0.821,6.054c0.546,1.457,1.302,2.529,2.264,3.218
						c0.965,0.686,2.096,1.03,3.391,1.03c1.756,0,3.114-0.492,4.074-1.475c0.959-0.982,1.438-2.254,1.438-3.812v-2.092
						c0-0.332-0.13-0.588-0.386-0.769c-0.258-0.179-0.68-0.271-1.262-0.271h-1.893v-1.045h9.357v1.045h-1.268
						c-0.564,0-0.969,0.101-1.211,0.295s-0.361,0.479-0.361,0.854v8.532h-0.992c-0.359-1.327-0.737-2.604-1.129-3.821
						c-0.754,1.237-1.649,2.165-2.691,2.784c-1.04,0.616-2.219,0.928-3.537,0.928c-1.88,0-3.624-0.479-5.227-1.446
						c-1.604-0.967-2.871-2.324-3.801-4.08c-0.93-1.754-1.396-3.737-1.396-5.949c0-2.223,0.468-4.213,1.401-5.973
						c0.934-1.759,2.211-3.156,3.832-4.192c1.623-1.037,3.262-1.552,4.92-1.552c0.942,0,1.844,0.158,2.705,0.476
						C-100.3-102.314-99.328-101.732-98.24-100.886z"/>
				</g>
			</g>
			<g>
				<path fill="#F70303" d="M161.312,56.952c4.668,0.054,7.25,3.24,5.764,7.138c-1.43,3.956-6.369,7.086-10.98,7.031
					c-4.613-0.055-7.193-3.295-5.711-7.195C151.812,60.027,156.697,56.895,161.312,56.952z"/>
				<g>
					<path d="M158.374,113.434h1.056l7.993,20.404c0.323,0.821,0.979,1.235,1.976,1.235h0.695v1.126h-8.904v-1.126h0.711
						c0.928,0,1.578-0.101,1.967-0.302c0.259-0.142,0.393-0.355,0.393-0.646c0-0.172-0.033-0.354-0.105-0.543l-1.844-4.73h-8.812
						l-1.052,2.713c-0.273,0.723-0.409,1.298-0.409,1.716c0,0.493,0.229,0.916,0.688,1.266c0.459,0.353,1.125,0.526,2.002,0.526
						h0.754v1.128h-8.099v-1.126c0.867,0,1.554-0.188,2.06-0.562c0.502-0.378,0.965-1.094,1.391-2.148L158.374,113.434z
						 M157.959,117.721l-3.996,9.951h7.877L157.959,117.721z"/>
				</g>
			</g>
			<g>
				<path fill="#F76806" d="M195.364,50.005c4.67,0.054,7.251,3.24,5.766,7.138c-1.428,3.955-6.372,7.083-10.979,7.031
					c-4.612-0.056-7.195-3.295-5.717-7.195C185.865,53.08,190.752,49.95,195.364,50.005z"/>
				<g>
					<path d="M183.104,113.887h11.614c2.279,0,4.025,0.504,5.235,1.508c1.211,1.006,1.814,2.266,1.814,3.783
						c0,1.266-0.422,2.34-1.266,3.225c-0.845,0.885-2.113,1.582-3.814,2.095c2.105,0.442,3.682,1.14,4.736,2.093
						c1.051,0.952,1.579,2.152,1.579,3.602c0,1.107-0.302,2.089-0.896,2.942c-0.6,0.856-1.594,1.581-2.981,2.175
						c-1.394,0.597-2.97,0.894-4.742,0.894h-11.274v-1.127h1.839c0.553,0,0.96-0.091,1.213-0.271
						c0.255-0.179,0.384-0.388,0.384-0.615v-17.887c0-0.423-0.124-0.744-0.377-0.959c-0.25-0.218-0.613-0.324-1.102-0.324h-1.961
						L183.104,113.887L183.104,113.887z M189.727,124.13h4.237c1.302,0,2.336-0.38,3.108-1.14c0.771-0.76,1.156-2.01,1.156-3.742
						c0-1.07-0.186-1.906-0.549-2.507c-0.369-0.604-0.9-1.038-1.606-1.317c-0.7-0.273-1.91-0.41-3.638-0.41
						c-1.222,0-1.976,0.086-2.271,0.26c-0.292,0.178-0.438,0.482-0.438,0.925V124.13L189.727,124.13L189.727,124.13z
						 M189.727,125.257v8.608c0,0.402,0.117,0.703,0.355,0.904s0.664,0.302,1.277,0.302h2.707c1.793,0,3.113-0.392,3.972-1.183
						s1.282-2.021,1.282-3.691c0-1.529-0.441-2.734-1.324-3.615c-0.891-0.881-2.111-1.322-3.676-1.322L189.727,125.257
						L189.727,125.257z"/>
				</g>
			</g>
			<g>
				<path fill="#F7F006" d="M229.625,42.497c4.67,0.053,7.252,3.24,5.766,7.138c-1.428,3.956-6.366,7.084-10.981,7.031
					c-4.612-0.055-7.188-3.295-5.708-7.195C220.121,45.572,225.013,42.441,229.625,42.497z"/>
				<g>
					<path d="M233.745,115.08l1.021-2.157h0.938l0.429,8.981h-1.019c-0.664-2.541-1.495-4.416-2.498-5.62
						c-1.243-1.511-2.729-2.263-4.454-2.263c-1.867,0-3.388,0.836-4.562,2.509c-1.175,1.672-1.756,4.503-1.756,8.493
						c0,3.355,0.675,5.912,2.021,7.679c1.146,1.492,2.752,2.235,4.817,2.235c1.81,0,3.326-0.58,4.55-1.741
						c1.225-1.162,2.022-2.914,2.396-5.259h1.072c-0.312,2.654-1.223,4.691-2.729,6.119c-1.508,1.428-3.409,2.14-5.698,2.14
						c-1.857,0-3.563-0.468-5.114-1.402c-1.555-0.937-2.795-2.278-3.726-4.034c-0.93-1.757-1.396-3.681-1.396-5.769
						c0-2.222,0.479-4.308,1.438-6.259c0.964-1.948,2.188-3.413,3.687-4.397c1.495-0.979,3.104-1.468,4.835-1.468
						c0.964,0,1.896,0.169,2.805,0.502C231.7,113.701,232.683,114.277,233.745,115.08z"/>
				</g>
			</g>
			<g>
				<path fill="#00FF00" d="M264.62,36.107c4.666,0.056,7.247,3.242,5.762,7.14c-1.426,3.954-6.372,7.084-10.979,7.029
					c-4.614-0.054-7.193-3.295-5.712-7.193C255.117,39.183,260.004,36.052,264.62,36.107z"/>
				<g>
					<path d="M251.068,113.885h11.522c1.708,0,3.164,0.303,4.361,0.905c1.485,0.763,2.753,2.037,3.792,3.815
						c1.039,1.779,1.559,3.888,1.559,6.32c0,2.012-0.312,3.825-0.935,5.434c-0.472,1.238-1.198,2.32-2.183,3.246
						c-0.979,0.923-2.178,1.615-3.584,2.081c-1.055,0.342-2.466,0.515-4.224,0.515h-10.319v-1.126h2.118
						c0.535,0,0.903-0.085,1.111-0.255c0.205-0.174,0.309-0.437,0.309-0.799v-17.98c0-0.312-0.105-0.559-0.33-0.746
						c-0.223-0.186-0.528-0.279-0.924-0.279h-2.284L251.068,113.885L251.068,113.885z M259.13,115.014
						c-0.456,0-0.788,0.096-1.006,0.286c-0.217,0.188-0.323,0.476-0.323,0.86v17.809c0,0.361,0.125,0.637,0.378,0.821
						c0.252,0.187,0.684,0.28,1.284,0.28h1.902c1.703,0,3.189-0.438,4.474-1.312c0.834-0.584,1.466-1.404,1.898-2.463
						c0.597-1.428,0.895-3.398,0.895-5.914c0-3.724-0.646-6.451-1.948-8.181c-1.105-1.461-2.779-2.187-5.019-2.187L259.13,115.014
						L259.13,115.014z"/>
				</g>
			</g>
			<g>
				<path fill="#1206FF" d="M298.343,29.162c4.667,0.056,7.248,3.24,5.769,7.14c-1.432,3.954-6.371,7.084-10.985,7.029
					c-4.612-0.055-7.188-3.295-5.71-7.193C288.84,32.238,293.729,29.107,298.343,29.162z"/>
				<g>
					<path d="M286.617,113.887h17.674l0.429,7.536h-1.021c-0.4-2.378-1.036-4.04-1.907-4.985c-0.87-0.947-2.001-1.42-3.397-1.42
						h-4.371c-0.354,0-0.619,0.097-0.805,0.287c-0.181,0.189-0.27,0.481-0.27,0.875v7.955h1.914c1.024,0,1.854-0.367,2.494-1.101
						c0.64-0.731,0.979-1.859,1.032-3.377h1.044v10.325h-1.044c-0.05-1.707-0.397-2.928-1.047-3.666
						c-0.647-0.741-1.532-1.109-2.646-1.109h-1.748v8.873c0,0.323,0.104,0.568,0.322,0.742c0.219,0.171,0.575,0.253,1.077,0.253
						h3.456c3.751,0,5.911-2.396,6.484-7.187h1.102l-0.379,8.312h-18.396v-1.126h1.524c0.596,0,1.013-0.104,1.25-0.309
						c0.241-0.207,0.362-0.504,0.362-0.897V116.18c0-0.395-0.104-0.685-0.315-0.875c-0.213-0.192-0.543-0.287-0.994-0.287h-1.825
						L286.617,113.887L286.617,113.887z"/>
				</g>
			</g>
			<g>
				<path fill="#6C00F9" d="M332.405,22.215c4.668,0.055,7.249,3.24,5.766,7.14c-1.428,3.954-6.372,7.084-10.984,7.029
					c-4.609-0.056-7.188-3.295-5.71-7.193C322.904,25.29,327.791,22.16,332.405,22.215z"/>
				<g>
					<path d="M321.131,113.887h18.154l0.295,7.723h-1.046c-0.462-2.655-1.111-4.387-1.95-5.191c-0.961-0.936-2.325-1.4-4.097-1.4
						h-3.588c-0.354,0-0.608,0.082-0.771,0.248s-0.243,0.414-0.243,0.748v8.043h1.918c1.065,0,1.917-0.352,2.554-1.056
						c0.633-0.706,0.974-1.79,1.022-3.26h1.104v10.083h-1.104c-0.07-1.668-0.409-2.855-1.022-3.57
						c-0.61-0.712-1.47-1.068-2.554-1.068h-1.918v8.521c0,0.503,0.117,0.858,0.362,1.063c0.243,0.209,0.662,0.312,1.252,0.312h2.324
						v1.123h-10.697v-1.127h2.289c0.463,0,0.788-0.093,0.985-0.277c0.19-0.186,0.292-0.493,0.292-0.913v-17.758
						c0-0.398-0.104-0.688-0.312-0.857c-0.204-0.174-0.562-0.256-1.075-0.256h-2.181v-1.127h0.003v-0.002h0.004V113.887
						L321.131,113.887z"/>
				</g>
			</g>
			<g>
				<path fill="#EC00FF" d="M366.84,14.73c4.668,0.055,7.249,3.241,5.769,7.14c-1.431,3.954-6.37,7.084-10.984,7.029
					c-4.612-0.053-7.191-3.295-5.71-7.193C357.336,17.806,362.225,14.675,366.84,14.73z"/>
				<g>
					<path d="M369.599,115.114l1.229-2.222h1.02l0.562,8.903h-0.992c-0.752-2.562-1.636-4.416-2.659-5.562
						c-1.303-1.461-2.796-2.188-4.479-2.188c-1.292,0-2.452,0.367-3.472,1.103c-1.021,0.731-1.809,1.832-2.354,3.298
						c-0.545,1.464-0.821,3.53-0.821,6.188c0,2.582,0.273,4.601,0.823,6.054c0.544,1.457,1.302,2.529,2.264,3.218
						c0.964,0.686,2.099,1.03,3.394,1.03c1.755,0,3.109-0.492,4.07-1.475c0.96-0.982,1.438-2.254,1.438-3.812v-2.092
						c0-0.332-0.126-0.588-0.386-0.769c-0.256-0.179-0.683-0.271-1.265-0.271h-1.894v-1.045h9.357v1.045h-1.269
						c-0.562,0-0.969,0.101-1.211,0.295c-0.244,0.194-0.363,0.479-0.363,0.854v8.532h-0.988c-0.361-1.327-0.738-2.604-1.129-3.821
						c-0.754,1.237-1.649,2.165-2.688,2.784c-1.039,0.616-2.221,0.928-3.539,0.928c-1.881,0-3.62-0.479-5.228-1.446
						c-1.604-0.967-2.869-2.324-3.803-4.08c-0.93-1.754-1.396-3.737-1.396-5.949c0-2.223,0.467-4.213,1.396-5.973
						c0.937-1.759,2.214-3.156,3.835-4.192c1.617-1.037,3.262-1.552,4.914-1.552c0.947,0,1.849,0.158,2.705,0.476
						C367.543,113.686,368.513,114.268,369.599,115.114z"/>
				</g>
			</g>
			<g>
				<path fill="#F7E608" d="M-238.589-121.73c4.667,0.054,7.249,3.24,5.766,7.138c-1.428,3.957-6.371,7.088-10.984,7.03
					c-4.614-0.054-7.192-3.295-5.71-7.192C-248.092-118.652-243.203-121.786-238.589-121.73z"/>
				<g>
					<path d="M-234.47-100.92l1.022-2.157h0.938l0.429,8.981h-1.019c-0.666-2.541-1.495-4.416-2.498-5.62
						c-1.247-1.511-2.73-2.263-4.456-2.263c-1.867,0-3.387,0.836-4.561,2.509c-1.175,1.672-1.758,4.503-1.758,8.493
						c0,3.355,0.676,5.912,2.018,7.679c1.146,1.492,2.753,2.235,4.822,2.235c1.809,0,3.325-0.58,4.549-1.741
						c1.223-1.162,2.024-2.914,2.396-5.259h1.073c-0.312,2.654-1.22,4.691-2.729,6.119c-1.508,1.428-3.409,2.14-5.698,2.14
						c-1.86,0-3.565-0.468-5.117-1.402c-1.55-0.937-2.795-2.278-3.724-4.034c-0.929-1.757-1.395-3.681-1.395-5.769
						c0-2.222,0.479-4.308,1.438-6.259c0.96-1.948,2.187-3.413,3.684-4.397c1.494-0.979,3.107-1.468,4.835-1.468
						c0.963,0,1.896,0.169,2.8,0.502C-236.515-102.299-235.532-101.723-234.47-100.92z"/>
				</g>
				<line fill="none" stroke="#000000" x1="-257.206" y1="-114.688" x2="-224.885" y2="-114.688"/>
			</g>
			<g>
				<path d="M-226.159-100.975v0.832h-1.067v2.102h-0.969v-2.102h-3.367v-0.752l3.691-5.268h0.645v5.186h1.067V-100.975z
					 M-228.196-100.975v-3.949l-2.792,3.949H-228.196z"/>
			</g>
			<g>
				<path d="M344.863,110.005l-0.458,0.997h-2.396l-0.521,1.068c1.038,0.152,1.854,0.535,2.466,1.156
					c0.52,0.53,0.781,1.155,0.781,1.877c0,0.416-0.088,0.805-0.258,1.16c-0.171,0.356-0.386,0.659-0.644,0.909
					c-0.257,0.248-0.545,0.451-0.861,0.605c-0.448,0.215-0.907,0.323-1.385,0.323s-0.824-0.08-1.043-0.244
					c-0.218-0.163-0.323-0.34-0.323-0.537c0-0.109,0.044-0.206,0.138-0.29c0.09-0.084,0.202-0.126,0.34-0.126
					c0.103,0,0.188,0.015,0.265,0.047c0.077,0.031,0.208,0.109,0.396,0.24c0.292,0.203,0.591,0.306,0.892,0.306
					c0.458,0,0.858-0.174,1.204-0.521c0.349-0.347,0.52-0.768,0.52-1.262c0-0.482-0.151-0.93-0.463-1.348
					c-0.31-0.416-0.732-0.739-1.275-0.967c-0.431-0.174-1.011-0.276-1.742-0.305l1.522-3.092h2.853v0.001h-0.004v0.003H344.863z"/>
			</g>
			<g>
				<path d="M310.696,110.005l-0.461,0.997h-2.396l-0.521,1.068c1.035,0.152,1.855,0.535,2.463,1.156
					c0.521,0.53,0.777,1.155,0.777,1.877c0,0.416-0.084,0.805-0.255,1.16c-0.171,0.356-0.384,0.659-0.643,0.909
					c-0.256,0.248-0.543,0.451-0.863,0.605c-0.449,0.215-0.908,0.323-1.384,0.323c-0.477,0-0.823-0.08-1.038-0.244
					c-0.219-0.163-0.326-0.34-0.326-0.537c0-0.109,0.045-0.206,0.139-0.29c0.089-0.084,0.199-0.126,0.338-0.126
					c0.103,0,0.188,0.015,0.267,0.047c0.077,0.029,0.206,0.109,0.391,0.24c0.298,0.203,0.595,0.306,0.895,0.306
					c0.461,0,0.861-0.174,1.207-0.521c0.345-0.347,0.52-0.768,0.52-1.262c0-0.482-0.151-0.93-0.464-1.348
					c-0.311-0.416-0.733-0.739-1.276-0.967c-0.429-0.174-1.01-0.276-1.743-0.305l1.522-3.092L310.696,110.005L310.696,110.005
					L310.696,110.005z"/>
			</g>
			<g>
				<path d="M276.528,110.005l-0.458,0.997h-2.396l-0.521,1.068c1.036,0.152,1.855,0.535,2.464,1.156
					c0.521,0.53,0.781,1.155,0.781,1.877c0,0.416-0.089,0.805-0.256,1.16c-0.173,0.356-0.388,0.659-0.645,0.909
					c-0.258,0.248-0.544,0.451-0.861,0.605c-0.447,0.215-0.911,0.323-1.386,0.323s-0.823-0.08-1.039-0.244
					c-0.218-0.163-0.327-0.34-0.327-0.537c0-0.109,0.047-0.206,0.139-0.29c0.089-0.084,0.2-0.126,0.341-0.126
					c0.101,0,0.188,0.015,0.267,0.047c0.077,0.031,0.204,0.109,0.393,0.24c0.294,0.203,0.591,0.306,0.893,0.306
					c0.459,0,0.859-0.174,1.205-0.521c0.347-0.347,0.521-0.768,0.521-1.262c0-0.482-0.152-0.93-0.466-1.348
					c-0.309-0.416-0.731-0.739-1.274-0.967c-0.43-0.174-1.012-0.276-1.742-0.305l1.521-3.092h2.854v0.001h-0.004v0.003H276.528z"/>
			</g>
			<g>
				<path d="M242.359,110.005l-0.457,0.997h-2.396l-0.521,1.068c1.038,0.152,1.854,0.535,2.466,1.156
					c0.52,0.53,0.777,1.155,0.777,1.877c0,0.416-0.088,0.805-0.256,1.16c-0.173,0.356-0.386,0.659-0.642,0.909
					c-0.259,0.248-0.547,0.451-0.863,0.605c-0.452,0.215-0.91,0.323-1.386,0.323c-0.477,0-0.823-0.08-1.039-0.244
					c-0.219-0.163-0.325-0.34-0.325-0.537c0-0.109,0.043-0.206,0.136-0.29s0.202-0.126,0.341-0.126c0.103,0,0.188,0.015,0.267,0.047
					c0.077,0.031,0.208,0.109,0.391,0.24c0.293,0.203,0.595,0.306,0.896,0.306c0.457,0,0.859-0.174,1.203-0.521
					c0.347-0.347,0.521-0.768,0.521-1.262c0-0.482-0.151-0.93-0.465-1.348c-0.31-0.416-0.732-0.739-1.28-0.967
					c-0.426-0.174-1.006-0.276-1.738-0.305l1.522-3.092L242.359,110.005L242.359,110.005L242.359,110.005z"/>
			</g>
			<g>
				<path d="M206.852,115.025v0.832h-1.066v2.102h-0.971v-2.102h-3.363v-0.752l3.688-5.268h0.646v5.186h1.066V115.025
					L206.852,115.025z M204.812,115.025v-3.949l-2.791,3.949H204.812z"/>
			</g>
			<g>
				<path d="M169.249,115.025v0.832h-1.067v2.102h-0.969v-2.102h-3.367v-0.752l3.69-5.268h0.646v5.186h1.067V115.025z
					 M167.213,115.025v-3.949l-2.792,3.949H167.213z"/>
			</g>
			<g>
				<path d="M-89.486-100.975v0.832h-1.068v2.102h-0.967v-2.102h-3.369v-0.752l3.691-5.268h0.645v5.186h1.068V-100.975z
					 M-91.521-100.975v-3.949l-2.791,3.949H-91.521z"/>
			</g>
			<g>
				<path d="M-121.938-100.975v0.832h-1.069v2.102h-0.967v-2.102h-3.367v-0.752l3.689-5.268h0.646v5.186h1.069L-121.938-100.975
					L-121.938-100.975z M-123.973-100.975v-3.949l-2.792,3.949H-123.973z"/>
			</g>
			<g>
				<path d="M-157.823-100.975v0.832h-1.068v2.102h-0.967v-2.102h-3.367v-0.752l3.689-5.268h0.645v5.186h1.068V-100.975z
					 M-159.858-100.975v-3.949l-2.792,3.949H-159.858z"/>
			</g>
			<g>
				<path d="M-191.99-100.975v0.832h-1.067v2.102h-0.969v-2.102h-3.367v-0.752l3.69-5.268h0.646v5.186h1.067V-100.975z
					 M-194.026-100.975v-3.949l-2.792,3.949H-194.026z"/>
			</g>
			<g>
				<path d="M379.031,110.005l-0.459,0.997h-2.396l-0.521,1.068c1.037,0.152,1.855,0.535,2.465,1.156
					c0.521,0.53,0.779,1.155,0.779,1.877c0,0.416-0.085,0.805-0.258,1.16c-0.171,0.356-0.384,0.659-0.642,0.909
					c-0.256,0.248-0.543,0.451-0.863,0.605c-0.446,0.215-0.91,0.323-1.384,0.323c-0.477,0-0.825-0.08-1.039-0.244
					c-0.218-0.163-0.325-0.34-0.325-0.537c0-0.109,0.043-0.206,0.139-0.29c0.089-0.084,0.198-0.126,0.337-0.126
					c0.104,0,0.188,0.015,0.268,0.047c0.077,0.029,0.206,0.109,0.39,0.24c0.299,0.203,0.596,0.306,0.896,0.306
					c0.459,0,0.861-0.174,1.207-0.521c0.345-0.347,0.52-0.768,0.52-1.262c0-0.482-0.151-0.93-0.465-1.348
					c-0.312-0.416-0.734-0.739-1.275-0.967c-0.429-0.174-1.01-0.276-1.745-0.305l1.524-3.092h2.854v0.001h-0.004L379.031,110.005
					L379.031,110.005z"/>
			</g>
			<g>
				<path fill="#F70303" d="M396.312,5.952c4.668,0.054,7.25,3.24,5.764,7.138c-1.43,3.956-6.369,7.086-10.98,7.031
					c-4.613-0.055-7.193-3.295-5.711-7.195C386.812,9.027,391.697,5.895,396.312,5.952z"/>
				<g>
					<path d="M393.374,113.434h1.056l7.993,20.404c0.323,0.821,0.979,1.235,1.976,1.235h0.695v1.126h-8.904v-1.126h0.711
						c0.928,0,1.578-0.101,1.967-0.302c0.259-0.143,0.393-0.355,0.393-0.646c0-0.172-0.033-0.354-0.105-0.543l-1.844-4.73h-8.812
						l-1.052,2.713c-0.273,0.724-0.409,1.299-0.409,1.717c0,0.492,0.229,0.916,0.688,1.266c0.459,0.354,1.125,0.526,2.002,0.526
						h0.754v1.128h-8.1v-1.126c0.867,0,1.555-0.188,2.061-0.562c0.502-0.379,0.965-1.095,1.391-2.148L393.374,113.434z
						 M392.959,117.721l-3.996,9.951h7.877L392.959,117.721z"/>
				</g>
			</g>
			<g>
				<path d="M404.128,110.106l-0.459,0.997h-2.396l-0.521,1.068c1.037,0.152,1.855,0.535,2.465,1.156
					c0.521,0.529,0.779,1.154,0.779,1.877c0,0.416-0.085,0.805-0.258,1.16c-0.171,0.355-0.384,0.658-0.642,0.908
					c-0.256,0.248-0.543,0.451-0.863,0.605c-0.446,0.215-0.91,0.322-1.384,0.322c-0.477,0-0.825-0.08-1.039-0.244
					c-0.218-0.162-0.325-0.34-0.325-0.537c0-0.108,0.043-0.205,0.139-0.289c0.089-0.084,0.198-0.127,0.337-0.127
					c0.104,0,0.188,0.016,0.268,0.048c0.077,0.028,0.206,0.108,0.39,0.239c0.299,0.203,0.596,0.307,0.896,0.307
					c0.459,0,0.861-0.174,1.207-0.521c0.345-0.347,0.52-0.768,0.52-1.262c0-0.482-0.151-0.93-0.465-1.348
					c-0.312-0.416-0.734-0.739-1.275-0.967c-0.429-0.174-1.01-0.276-1.745-0.306l1.524-3.092h2.854v0.001h-0.004L404.128,110.106
					L404.128,110.106z"/>
			</g>
			<line fill="none" stroke="#000000" x1="376.794" y1="13.311" x2="409.115" y2="13.311"/>
		</g>
		<g>
			<path d="M10.499,156.125v-1.044h462.473v1.044H10.499z M10.499,170.125v-1.152h462.473v1.152H10.499z M10.499,184.02v-1.043
				h462.473v1.043H10.499z M10.499,197.914v-1.044h462.473v1.044H10.499z M10.499,211.809v-1.043h462.473v1.043H10.499z"/>
			<path fill="#5406FF" d="M-193.6-16.262c4.669,0.055,7.25,3.242,5.767,7.14c-1.428,3.955-6.371,7.086-10.984,7.028
				c-4.612-0.053-7.193-3.295-5.712-7.191C-203.101-13.186-198.212-16.314-193.6-16.262z"/>
			<g>
				<path d="M236.891,239.868h11.523c1.709,0,3.164,0.301,4.359,0.903c1.485,0.764,2.752,2.037,3.791,3.814
					c1.041,1.78,1.562,3.889,1.562,6.32c0,2.011-0.312,3.822-0.937,5.434c-0.475,1.237-1.199,2.317-2.182,3.243
					c-0.979,0.923-2.176,1.617-3.584,2.083c-1.054,0.339-2.465,0.514-4.224,0.514h-10.317v-1.129H239
					c0.538,0,0.904-0.084,1.113-0.255c0.205-0.171,0.308-0.438,0.308-0.801V242.02c0-0.312-0.106-0.56-0.332-0.748
					c-0.223-0.184-0.528-0.276-0.921-0.276h-2.284v-1.126L236.891,239.868L236.891,239.868z M244.949,240.992
					c-0.455,0-0.787,0.098-1.006,0.287c-0.217,0.188-0.323,0.478-0.323,0.859v17.811c0,0.361,0.124,0.636,0.379,0.82
					c0.252,0.188,0.681,0.279,1.284,0.279h1.902c1.698,0,3.188-0.438,4.472-1.312c0.834-0.586,1.468-1.403,1.903-2.463
					c0.594-1.428,0.892-3.397,0.892-5.916c0-3.726-0.647-6.447-1.95-8.178c-1.109-1.464-2.779-2.188-5.016-2.188L244.949,240.992
					L244.949,240.992z"/>
			</g>
			<path fill="#8800FF" d="M-159.874-23.209c4.667,0.057,7.249,3.238,5.765,7.141c-1.426,3.953-6.37,7.084-10.982,7.029
				c-4.614-0.055-7.195-3.295-5.712-7.193C-169.375-20.134-164.488-23.266-159.874-23.209z"/>
			<g>
				<path d="M272.412,239.868h17.672l0.429,7.534h-1.021c-0.398-2.379-1.035-4.038-1.907-4.987c-0.87-0.944-2.001-1.419-3.398-1.419
					h-4.372c-0.353,0-0.616,0.098-0.801,0.286c-0.183,0.19-0.271,0.481-0.271,0.877v7.954h1.914c1.024,0,1.854-0.367,2.497-1.104
					c0.636-0.732,0.979-1.857,1.03-3.38h1.049v10.326h-1.049c-0.051-1.706-0.396-2.929-1.05-3.667
					c-0.646-0.738-1.527-1.105-2.645-1.105h-1.75v8.873c0,0.32,0.104,0.565,0.324,0.738c0.214,0.172,0.57,0.254,1.072,0.254h3.458
					c3.751,0,5.911-2.396,6.486-7.188h1.1l-0.379,8.313h-18.396v-1.128h1.524c0.596,0,1.011-0.104,1.25-0.309
					c0.242-0.205,0.361-0.506,0.361-0.897v-17.688c0-0.396-0.105-0.685-0.316-0.877c-0.213-0.189-0.541-0.285-0.992-0.285h-1.825
					L272.412,239.868L272.412,239.868z"/>
			</g>
			<path fill="#F70606" d="M147.191,197.844c4.669,0.057,7.25,3.241,5.767,7.141c-1.428,3.953-6.371,7.084-10.984,7.029
				c-4.612-0.055-7.193-3.295-5.712-7.189C137.688,200.919,142.579,197.79,147.191,197.844z"/>
			<g>
				<path d="M307.244,239.868h18.154l0.295,7.723h-1.044c-0.469-2.655-1.112-4.39-1.95-5.192c-0.959-0.936-2.325-1.399-4.103-1.399
					h-3.584c-0.354,0-0.604,0.083-0.771,0.249c-0.161,0.166-0.241,0.414-0.241,0.746v8.047h1.917c1.069,0,1.921-0.354,2.552-1.059
					c0.636-0.707,0.979-1.791,1.028-3.26h1.102v10.082h-1.102c-0.07-1.668-0.412-2.854-1.028-3.57
					c-0.607-0.711-1.465-1.065-2.552-1.065h-1.917v8.521c0,0.504,0.121,0.856,0.362,1.063c0.238,0.207,0.66,0.312,1.252,0.312h2.322
					v1.123h-10.695v-1.127h2.287c0.465,0,0.79-0.094,0.982-0.276c0.194-0.187,0.294-0.493,0.294-0.915V242.12
					c0-0.397-0.103-0.688-0.311-0.858c-0.204-0.173-0.562-0.255-1.076-0.255h-2.18L307.244,239.868L307.244,239.868z"/>
			</g>
			<g>
				<path d="M355.624,242.089l1.227-2.223h1.021l0.562,8.901h-0.987c-0.751-2.562-1.641-4.416-2.66-5.562
					c-1.304-1.458-2.796-2.188-4.479-2.188c-1.292,0-2.453,0.366-3.471,1.102c-1.024,0.73-1.809,1.834-2.354,3.299
					c-0.546,1.466-0.818,3.532-0.818,6.188c0,2.582,0.271,4.602,0.818,6.057c0.55,1.456,1.306,2.525,2.268,3.218
					c0.962,0.688,2.095,1.03,3.389,1.03c1.757,0,3.115-0.492,4.076-1.479c0.96-0.979,1.438-2.252,1.438-3.811v-2.094
					c0-0.332-0.128-0.586-0.388-0.77c-0.259-0.182-0.681-0.271-1.264-0.271h-1.891v-1.045h9.355v1.045h-1.271
					c-0.563,0-0.97,0.104-1.21,0.296c-0.241,0.192-0.362,0.479-0.362,0.853v8.534h-0.992c-0.355-1.327-0.732-2.604-1.126-3.819
					c-0.753,1.233-1.652,2.164-2.688,2.783c-1.041,0.615-2.223,0.93-3.54,0.93c-1.883,0-3.62-0.482-5.229-1.447
					c-1.603-0.967-2.869-2.325-3.801-4.079c-0.929-1.757-1.396-3.738-1.396-5.95c0-2.225,0.469-4.214,1.401-5.975
					c0.932-1.76,2.212-3.154,3.833-4.192c1.619-1.034,3.258-1.55,4.917-1.55c0.945,0,1.844,0.158,2.705,0.475
					C353.565,240.66,354.537,241.242,355.624,242.089z"/>
			</g>
			<path fill="#FFE600" d="M216.312,183.951c4.668,0.053,7.25,3.24,5.764,7.139c-1.43,3.955-6.369,7.086-10.98,7.03
				c-4.613-0.056-7.193-3.295-5.711-7.194C206.812,187.027,211.697,183.895,216.312,183.951z"/>
			<g>
				<path d="M384.298,239.868h1.056l7.995,20.403c0.321,0.824,0.979,1.233,1.977,1.233h0.693v1.128h-8.902v-1.128h0.711
					c0.926,0,1.579-0.103,1.965-0.302c0.258-0.143,0.392-0.354,0.392-0.646c0-0.17-0.032-0.354-0.104-0.543l-1.843-4.729h-8.812
					l-1.053,2.712c-0.272,0.722-0.408,1.297-0.408,1.716c0,0.492,0.232,0.915,0.688,1.268c0.459,0.353,1.126,0.524,2.001,0.524
					h0.755v1.128h-8.102v-1.127c0.866,0,1.557-0.188,2.06-0.562c0.504-0.377,0.969-1.092,1.393-2.147L384.298,239.868z
					 M383.884,244.154l-3.995,9.953h7.877L383.884,244.154z"/>
			</g>
			<path fill="#06FC1D" d="M250.09,177.005c4.669,0.056,7.252,3.241,5.766,7.138c-1.428,3.957-6.371,7.086-10.979,7.032
				c-4.613-0.055-7.193-3.296-5.715-7.194C240.589,180.082,245.479,176.949,250.09,177.005z"/>
			<path fill="#0000FF" d="M284.377,169.496c4.67,0.054,7.251,3.24,5.764,7.139c-1.428,3.957-6.365,7.088-10.979,7.03
				c-4.614-0.054-7.188-3.295-5.708-7.192C274.874,172.573,279.765,169.441,284.377,169.496z"/>
			<path fill="#F45C08" d="M181.755,190.141c4.666,0.053,7.247,3.238,5.763,7.139c-1.428,3.953-6.373,7.086-10.981,7.029
				c-4.614-0.054-7.193-3.295-5.712-7.19C172.252,193.213,177.139,190.082,181.755,190.141z"/>
			<path fill="#F803FF" d="M353.242,156.162c4.667,0.057,7.248,3.238,5.764,7.141c-1.428,3.953-6.37,7.084-10.979,7.03
				c-4.614-0.056-7.192-3.297-5.711-7.192C343.739,159.236,348.628,156.105,353.242,156.162z"/>
			<g>
				<path d="M-239.936,11.868h17.673l0.429,7.534h-1.021c-0.399-2.379-1.036-4.038-1.907-4.987c-0.87-0.944-2.001-1.419-3.397-1.419
					h-4.374c-0.352,0-0.619,0.098-0.8,0.286c-0.183,0.19-0.271,0.481-0.271,0.877v7.954h1.916c1.025,0,1.857-0.367,2.492-1.104
					c0.64-0.732,0.982-1.857,1.036-3.38h1.046v10.326h-1.046c-0.05-1.706-0.401-2.929-1.047-3.667
					c-0.65-0.738-1.532-1.105-2.648-1.105h-1.75v8.873c0,0.32,0.107,0.565,0.322,0.738c0.22,0.172,0.578,0.254,1.081,0.254h3.456
					c3.751,0,5.912-2.396,6.485-7.188h1.101l-0.377,8.313h-18.401v-1.128h1.527c0.593,0,1.011-0.104,1.25-0.309
					c0.241-0.205,0.362-0.506,0.362-0.897V14.152c0-0.396-0.105-0.685-0.317-0.877c-0.211-0.189-0.543-0.285-0.995-0.285h-1.825
					V11.868L-239.936,11.868z"/>
			</g>
			<path fill="#FF0000" d="M387.244,149.215c4.666,0.057,7.249,3.241,5.766,7.141c-1.428,3.953-6.372,7.084-10.981,7.029
				c-4.612-0.055-7.191-3.296-5.712-7.191C377.74,152.291,382.629,149.16,387.244,149.215z"/>
			<g>
				<path d="M-204.943,11.868h18.153l0.296,7.723h-1.045c-0.464-2.655-1.113-4.39-1.951-5.192c-0.96-0.936-2.325-1.399-4.098-1.399
					h-3.586c-0.352,0-0.608,0.083-0.771,0.249c-0.161,0.166-0.242,0.414-0.242,0.746v8.047h1.917c1.066,0,1.917-0.354,2.551-1.059
					c0.632-0.707,0.974-1.791,1.026-3.26h1.103v10.082h-1.101c-0.07-1.668-0.409-2.854-1.025-3.57
					c-0.61-0.711-1.467-1.065-2.551-1.065h-1.917v8.521c0,0.504,0.117,0.856,0.362,1.063c0.243,0.207,0.661,0.312,1.252,0.312h2.325
					v1.123h-10.698v-1.127h2.289c0.463,0,0.788-0.094,0.984-0.276c0.195-0.187,0.292-0.493,0.292-0.915V14.12
					c0-0.397-0.101-0.688-0.309-0.858c-0.205-0.173-0.563-0.255-1.076-0.255h-2.18v-1.128h0.001L-204.943,11.868L-204.943,11.868z"
					/>
			</g>
			<g>
				<path d="M-155.451,14.089l1.229-2.223h1.019l0.563,8.901h-0.992c-0.751-2.562-1.636-4.416-2.66-5.562
					c-1.302-1.458-2.796-2.188-4.479-2.188c-1.292,0-2.452,0.366-3.469,1.102c-1.024,0.73-1.807,1.834-2.353,3.299
					c-0.545,1.466-0.821,3.532-0.821,6.188c0,2.582,0.273,4.602,0.823,6.057c0.546,1.458,1.302,2.525,2.266,3.218
					c0.962,0.688,2.093,1.03,3.389,1.03c1.757,0,3.114-0.492,4.073-1.479c0.96-0.979,1.438-2.252,1.438-3.811v-2.094
					c0-0.332-0.125-0.586-0.385-0.77c-0.256-0.182-0.681-0.271-1.262-0.271h-1.894v-1.045h9.357v1.045h-1.267
					c-0.565,0-0.969,0.104-1.21,0.296c-0.245,0.192-0.364,0.479-0.364,0.853v8.534h-0.991c-0.362-1.327-0.739-2.604-1.128-3.819
					c-0.75,1.233-1.651,2.164-2.69,2.783c-1.039,0.615-2.221,0.93-3.54,0.93c-1.88,0-3.62-0.482-5.226-1.447
					c-1.606-0.967-2.871-2.325-3.801-4.079c-0.93-1.757-1.396-3.738-1.396-5.95c0-2.225,0.466-4.214,1.399-5.975
					c0.933-1.76,2.212-3.154,3.833-4.192c1.619-1.034,3.26-1.55,4.916-1.55c0.947,0,1.845,0.158,2.705,0.475
					C-157.509,12.66-156.535,13.242-155.451,14.089z"/>
			</g>
			<path fill="#0600FF" d="M-228.589-6.73c4.667,0.056,7.249,3.24,5.766,7.14c-1.428,3.957-6.371,7.088-10.984,7.028
				c-4.614-0.053-7.192-3.295-5.71-7.19C-238.092-3.652-233.203-6.786-228.589-6.73z"/>
			<g>
				<path d="M219.542,242.08l1.021-2.157h0.939l0.43,8.981h-1.021c-0.663-2.54-1.494-4.416-2.496-5.619
					c-1.246-1.51-2.729-2.264-4.455-2.264c-1.867,0-3.388,0.836-4.562,2.51c-1.174,1.673-1.756,4.504-1.756,8.494
					c0,3.354,0.674,5.91,2.018,7.678c1.146,1.49,2.752,2.234,4.82,2.234c1.81,0,3.327-0.578,4.549-1.74
					c1.225-1.163,2.023-2.914,2.396-5.258h1.072c-0.312,2.65-1.222,4.688-2.729,6.117c-1.507,1.428-3.408,2.141-5.699,2.141
					c-1.859,0-3.562-0.469-5.114-1.402c-1.552-0.936-2.796-2.279-3.724-4.033c-0.93-1.758-1.396-3.682-1.396-5.77
					c0-2.221,0.479-4.309,1.438-6.26c0.963-1.948,2.188-3.414,3.685-4.396c1.496-0.98,3.106-1.468,4.838-1.468
					c0.962,0,1.894,0.169,2.802,0.502C217.497,240.701,218.479,241.277,219.542,242.08z"/>
			</g>
			<line fill="none" stroke="#000000" x1="60.794" y1="228.311" x2="93.115" y2="228.311"/>
			<g>
				<path d="M-216.241,15.426l-0.558,1.533h-4.693v-0.218c1.379-1.259,2.354-2.286,2.917-3.084s0.845-1.529,0.845-2.188
					c0-0.504-0.154-0.918-0.464-1.242c-0.309-0.328-0.679-0.484-1.108-0.484c-0.392,0-0.744,0.109-1.052,0.342
					c-0.312,0.229-0.54,0.562-0.691,1.006h-0.216c0.099-0.723,0.349-1.275,0.754-1.668c0.404-0.386,0.91-0.58,1.515-0.58
					c0.646,0,1.185,0.208,1.618,0.622c0.431,0.414,0.646,0.903,0.646,1.47c0,0.397-0.095,0.805-0.281,1.203
					c-0.289,0.637-0.759,1.309-1.408,2.018c-0.972,1.062-1.583,1.703-1.824,1.923h2.077c0.422,0,0.719-0.017,0.888-0.046
					c0.173-0.033,0.325-0.096,0.462-0.19c0.138-0.094,0.255-0.231,0.357-0.409h0.216V15.426z"/>
			</g>
			<g>
				<path d="M390.108,238.518c0.227-0.539,0.515-0.949,0.857-1.242c0.347-0.291,0.777-0.438,1.294-0.438
					c0.64,0,1.126,0.207,1.466,0.621c0.26,0.309,0.393,0.639,0.393,0.991c0,0.579-0.366,1.178-1.093,1.796
					c0.486,0.191,0.854,0.465,1.106,0.82c0.249,0.354,0.375,0.772,0.375,1.254c0,0.688-0.218,1.285-0.657,1.791
					c-0.566,0.656-1.396,0.984-2.479,0.984c-0.538,0-0.901-0.066-1.096-0.199c-0.191-0.133-0.288-0.275-0.288-0.43
					c0-0.111,0.043-0.214,0.136-0.3c0.092-0.085,0.201-0.129,0.332-0.129c0.097,0,0.197,0.017,0.298,0.047
					c0.067,0.021,0.218,0.091,0.454,0.216c0.234,0.119,0.394,0.193,0.484,0.221c0.145,0.041,0.3,0.062,0.465,0.062
					c0.396,0,0.747-0.154,1.04-0.466c0.295-0.312,0.441-0.677,0.441-1.101c0-0.31-0.065-0.607-0.202-0.898
					c-0.104-0.223-0.217-0.389-0.337-0.5c-0.168-0.155-0.396-0.299-0.689-0.426c-0.294-0.129-0.592-0.188-0.896-0.188h-0.188v-0.177
					c0.311-0.038,0.617-0.148,0.929-0.335c0.313-0.185,0.538-0.404,0.679-0.664c0.144-0.259,0.211-0.539,0.211-0.853
					c0-0.397-0.122-0.729-0.38-0.975c-0.25-0.25-0.562-0.374-0.938-0.374c-0.605,0-1.111,0.325-1.521,0.974L390.108,238.518z"/>
			</g>
			<g>
				<path d="M359.373,238.518c0.229-0.539,0.515-0.949,0.857-1.242c0.349-0.291,0.775-0.438,1.296-0.438
					c0.637,0,1.125,0.207,1.467,0.621c0.258,0.309,0.385,0.639,0.385,0.991c0,0.579-0.361,1.178-1.089,1.796
					c0.487,0.191,0.858,0.465,1.109,0.82c0.25,0.354,0.375,0.772,0.375,1.254c0,0.688-0.222,1.285-0.656,1.791
					c-0.572,0.656-1.398,0.984-2.482,0.984c-0.534,0-0.896-0.066-1.093-0.199c-0.196-0.133-0.292-0.275-0.292-0.43
					c0-0.111,0.046-0.214,0.138-0.3c0.097-0.085,0.205-0.129,0.33-0.129c0.104,0,0.198,0.017,0.3,0.047
					c0.065,0.021,0.222,0.091,0.453,0.216c0.234,0.119,0.397,0.193,0.487,0.221c0.146,0.041,0.3,0.062,0.465,0.062
					c0.398,0,0.745-0.154,1.039-0.466c0.296-0.312,0.444-0.677,0.444-1.101c0-0.31-0.069-0.607-0.207-0.898
					c-0.104-0.223-0.211-0.389-0.333-0.5c-0.169-0.155-0.397-0.299-0.69-0.426c-0.294-0.129-0.595-0.188-0.896-0.188h-0.188v-0.177
					c0.312-0.038,0.62-0.148,0.937-0.335c0.308-0.185,0.534-0.404,0.677-0.664c0.141-0.259,0.211-0.539,0.211-0.853
					c0-0.397-0.127-0.729-0.379-0.975c-0.253-0.248-0.566-0.374-0.943-0.374c-0.604,0-1.109,0.325-1.519,0.974L359.373,238.518z"/>
			</g>
			<g>
				<path d="M326.924,238.518c0.229-0.539,0.516-0.949,0.858-1.242c0.345-0.291,0.774-0.438,1.294-0.438
					c0.637,0,1.124,0.207,1.465,0.621c0.258,0.309,0.389,0.639,0.389,0.991c0,0.579-0.361,1.178-1.093,1.796
					c0.487,0.191,0.858,0.465,1.109,0.82c0.25,0.354,0.375,0.772,0.375,1.254c0,0.688-0.218,1.285-0.656,1.791
					c-0.57,0.656-1.398,0.984-2.48,0.984c-0.533,0-0.896-0.066-1.095-0.199c-0.189-0.133-0.29-0.275-0.29-0.43
					c0-0.111,0.047-0.214,0.141-0.3c0.092-0.085,0.2-0.129,0.327-0.129c0.102,0,0.197,0.017,0.303,0.047
					c0.064,0.021,0.218,0.091,0.45,0.216c0.234,0.119,0.396,0.193,0.485,0.221c0.146,0.041,0.3,0.062,0.465,0.062
					c0.398,0,0.747-0.154,1.04-0.466c0.294-0.312,0.442-0.677,0.442-1.101c0-0.31-0.066-0.607-0.204-0.898
					c-0.101-0.223-0.213-0.389-0.335-0.5c-0.168-0.155-0.397-0.299-0.689-0.426c-0.295-0.129-0.593-0.188-0.896-0.188h-0.188v-0.177
					c0.312-0.038,0.617-0.148,0.934-0.335c0.31-0.185,0.536-0.404,0.677-0.664c0.141-0.259,0.211-0.539,0.211-0.853
					c0-0.397-0.126-0.729-0.379-0.975c-0.251-0.25-0.563-0.374-0.938-0.374c-0.606,0-1.111,0.325-1.521,0.974L326.924,238.518z"/>
			</g>
			<g>
				<path d="M291.038,238.518c0.228-0.539,0.514-0.949,0.859-1.242c0.347-0.291,0.774-0.438,1.294-0.438
					c0.639,0,1.126,0.207,1.465,0.621c0.258,0.309,0.389,0.639,0.389,0.991c0,0.579-0.363,1.178-1.091,1.796
					c0.487,0.191,0.854,0.465,1.104,0.82c0.254,0.354,0.379,0.772,0.379,1.254c0,0.688-0.223,1.285-0.657,1.791
					c-0.571,0.656-1.396,0.984-2.482,0.984c-0.534,0-0.896-0.066-1.095-0.199c-0.192-0.133-0.289-0.275-0.289-0.43
					c0-0.111,0.045-0.214,0.137-0.3c0.093-0.085,0.203-0.129,0.332-0.129c0.102,0,0.196,0.017,0.3,0.047
					c0.065,0.021,0.22,0.091,0.451,0.216c0.234,0.119,0.397,0.193,0.487,0.221c0.145,0.041,0.299,0.062,0.463,0.062
					c0.398,0,0.747-0.154,1.041-0.466c0.297-0.312,0.444-0.677,0.444-1.101c0-0.31-0.07-0.607-0.206-0.898
					c-0.104-0.223-0.213-0.389-0.332-0.5c-0.171-0.155-0.399-0.299-0.694-0.426c-0.291-0.129-0.592-0.188-0.896-0.188h-0.188v-0.177
					c0.312-0.038,0.617-0.148,0.931-0.335c0.312-0.185,0.536-0.404,0.68-0.664c0.142-0.259,0.212-0.539,0.212-0.853
					c0-0.397-0.124-0.729-0.379-0.975c-0.252-0.25-0.566-0.374-0.942-0.374c-0.604,0-1.112,0.325-1.519,0.974L291.038,238.518z"/>
			</g>
			<g>
				<path d="M258.587,238.518c0.228-0.539,0.513-0.949,0.858-1.242c0.347-0.291,0.777-0.438,1.294-0.438
					c0.637,0,1.126,0.207,1.466,0.621c0.257,0.309,0.388,0.639,0.388,0.991c0,0.579-0.362,1.178-1.091,1.796
					c0.487,0.191,0.857,0.465,1.107,0.82c0.252,0.354,0.377,0.772,0.377,1.254c0,0.688-0.221,1.285-0.658,1.791
					c-0.57,0.656-1.396,0.984-2.479,0.984c-0.539,0-0.9-0.066-1.1-0.199c-0.189-0.133-0.29-0.275-0.29-0.43
					c0-0.111,0.047-0.214,0.14-0.3c0.092-0.085,0.203-0.129,0.332-0.129c0.098,0,0.195,0.017,0.299,0.047
					c0.064,0.021,0.218,0.091,0.453,0.216c0.233,0.119,0.396,0.193,0.482,0.221c0.146,0.041,0.303,0.062,0.466,0.062
					c0.397,0,0.746-0.154,1.039-0.466c0.294-0.312,0.443-0.677,0.443-1.101c0-0.31-0.067-0.607-0.203-0.898
					c-0.104-0.223-0.213-0.389-0.335-0.5c-0.17-0.155-0.396-0.299-0.688-0.426c-0.298-0.129-0.597-0.188-0.897-0.188h-0.188v-0.177
					c0.311-0.038,0.618-0.148,0.932-0.335c0.312-0.185,0.537-0.404,0.681-0.664c0.142-0.259,0.209-0.539,0.209-0.853
					c0-0.397-0.124-0.729-0.379-0.975c-0.249-0.25-0.562-0.374-0.938-0.374c-0.606,0-1.112,0.325-1.521,0.974L258.587,238.518z"/>
			</g>
			<g>
				<path d="M222.701,238.518c0.226-0.539,0.513-0.949,0.857-1.242c0.348-0.291,0.775-0.438,1.293-0.438
					c0.64,0,1.127,0.207,1.467,0.621c0.258,0.309,0.388,0.639,0.388,0.991c0,0.579-0.363,1.178-1.091,1.796
					c0.488,0.191,0.857,0.465,1.107,0.82c0.252,0.354,0.377,0.772,0.377,1.254c0,0.688-0.222,1.285-0.658,1.791
					c-0.569,0.656-1.396,0.984-2.48,0.984c-0.536,0-0.898-0.066-1.096-0.199c-0.191-0.133-0.29-0.275-0.29-0.43
					c0-0.111,0.047-0.214,0.138-0.3c0.094-0.085,0.202-0.129,0.331-0.129c0.099,0,0.198,0.017,0.3,0.047
					c0.066,0.021,0.215,0.091,0.45,0.216c0.235,0.119,0.396,0.193,0.487,0.221c0.145,0.041,0.299,0.062,0.464,0.062
					c0.397,0,0.746-0.154,1.039-0.466c0.297-0.312,0.446-0.677,0.446-1.101c0-0.31-0.07-0.607-0.207-0.898
					c-0.104-0.223-0.213-0.389-0.334-0.5c-0.168-0.155-0.397-0.299-0.692-0.426c-0.292-0.129-0.593-0.188-0.896-0.188h-0.188v-0.177
					c0.31-0.038,0.618-0.148,0.931-0.335c0.311-0.185,0.538-0.404,0.68-0.664c0.143-0.259,0.211-0.539,0.211-0.853
					c0-0.397-0.127-0.729-0.381-0.975c-0.25-0.25-0.564-0.374-0.938-0.374c-0.604,0-1.109,0.325-1.521,0.974L222.701,238.518z"/>
			</g>
			<g>
				<path d="M193.432,243.426l-0.559,1.533h-4.691v-0.218c1.381-1.259,2.353-2.286,2.916-3.084c0.562-0.798,0.844-1.529,0.844-2.188
					c0-0.504-0.153-0.918-0.463-1.242c-0.31-0.328-0.68-0.484-1.108-0.484c-0.392,0-0.742,0.109-1.054,0.342
					c-0.312,0.229-0.539,0.562-0.688,1.006h-0.216c0.097-0.723,0.349-1.275,0.752-1.668c0.403-0.386,0.91-0.58,1.517-0.58
					c0.645,0,1.185,0.208,1.616,0.622c0.431,0.414,0.646,0.903,0.646,1.47c0,0.397-0.094,0.805-0.28,1.203
					c-0.288,0.637-0.759,1.309-1.408,2.018c-0.972,1.062-1.582,1.703-1.823,1.923h2.077c0.423,0,0.72-0.017,0.888-0.046
					c0.174-0.033,0.326-0.096,0.463-0.19c0.139-0.094,0.256-0.231,0.356-0.409h0.216L193.432,243.426L193.432,243.426z"/>
			</g>
			<g>
				<path d="M157.547,243.426l-0.558,1.533h-4.691v-0.218c1.379-1.259,2.353-2.286,2.915-3.084c0.563-0.798,0.845-1.529,0.845-2.188
					c0-0.504-0.154-0.918-0.462-1.242c-0.31-0.328-0.681-0.484-1.109-0.484c-0.391,0-0.743,0.109-1.051,0.342
					c-0.313,0.229-0.542,0.562-0.691,1.006h-0.216c0.097-0.723,0.349-1.275,0.752-1.668c0.404-0.386,0.91-0.58,1.517-0.58
					c0.646,0,1.183,0.208,1.616,0.622c0.431,0.414,0.647,0.903,0.647,1.47c0,0.397-0.094,0.805-0.282,1.203
					c-0.288,0.637-0.757,1.309-1.406,2.018c-0.974,1.062-1.583,1.703-1.825,1.923h2.077c0.422,0,0.719-0.017,0.89-0.046
					c0.171-0.033,0.323-0.096,0.461-0.19c0.137-0.094,0.256-0.231,0.357-0.409h0.214V243.426z"/>
			</g>
			<g>
				<path d="M-146.189,15.426l-0.558,1.533h-4.691v-0.218c1.379-1.259,2.353-2.286,2.916-3.084c0.562-0.798,0.843-1.529,0.843-2.188
					c0-0.504-0.154-0.918-0.462-1.242c-0.309-0.328-0.681-0.484-1.11-0.484c-0.39,0-0.742,0.109-1.051,0.342
					c-0.313,0.229-0.541,0.562-0.69,1.006h-0.218c0.097-0.723,0.349-1.275,0.754-1.668c0.402-0.386,0.909-0.58,1.515-0.58
					c0.646,0,1.184,0.208,1.616,0.622c0.431,0.414,0.647,0.903,0.647,1.47c0,0.397-0.094,0.805-0.281,1.203
					c-0.289,0.637-0.758,1.309-1.406,2.018c-0.974,1.062-1.583,1.703-1.825,1.923h2.077c0.422,0,0.719-0.017,0.89-0.046
					c0.171-0.033,0.324-0.096,0.461-0.19c0.138-0.094,0.256-0.231,0.357-0.409h0.216V15.426L-146.189,15.426z"/>
			</g>
			<g>
				<path d="M-180.357,15.426l-0.557,1.533h-4.693v-0.218c1.379-1.259,2.353-2.286,2.917-3.084c0.563-0.798,0.845-1.529,0.845-2.188
					c0-0.504-0.156-0.918-0.464-1.242c-0.309-0.328-0.679-0.484-1.108-0.484c-0.392,0-0.744,0.109-1.053,0.342
					c-0.312,0.229-0.541,0.562-0.69,1.006h-0.216c0.099-0.723,0.349-1.275,0.754-1.668c0.402-0.386,0.908-0.58,1.515-0.58
					c0.645,0,1.185,0.208,1.617,0.622c0.431,0.414,0.647,0.903,0.647,1.47c0,0.397-0.096,0.805-0.282,1.203
					c-0.288,0.637-0.759,1.309-1.408,2.018c-0.974,1.062-1.582,1.703-1.825,1.923h2.079c0.42,0,0.719-0.017,0.888-0.046
					c0.171-0.033,0.323-0.096,0.461-0.19c0.137-0.094,0.256-0.231,0.357-0.409h0.216V15.426z"/>
			</g>
			<g>
				<path d="M146.834,239.868h1.056l7.995,20.403c0.322,0.824,0.979,1.233,1.974,1.233h0.696v1.128h-8.903v-1.128h0.71
					c0.923,0,1.579-0.103,1.962-0.302c0.26-0.143,0.392-0.354,0.392-0.646c0-0.17-0.035-0.354-0.107-0.543l-1.844-4.729h-8.809
					l-1.052,2.712c-0.273,0.722-0.407,1.297-0.407,1.716c0,0.492,0.231,0.915,0.685,1.268c0.461,0.353,1.126,0.524,2.001,0.524
					h0.756v1.128h-8.1v-1.127c0.868,0,1.554-0.188,2.056-0.562c0.505-0.377,0.969-1.092,1.395-2.147L146.834,239.868z
					 M146.42,244.154l-3.994,9.953h7.877L146.42,244.154z"/>
			</g>
			<g>
				<path d="M167.871,239.868h11.617c2.279,0,4.025,0.502,5.234,1.506c1.211,1.006,1.813,2.265,1.813,3.783
					c0,1.266-0.421,2.338-1.263,3.225c-0.844,0.886-2.114,1.582-3.819,2.095c2.11,0.442,3.685,1.143,4.741,2.092
					c1.049,0.955,1.58,2.152,1.58,3.604c0,1.106-0.303,2.089-0.898,2.943c-0.598,0.856-1.593,1.579-2.984,2.173
					c-1.39,0.598-2.967,0.895-4.738,0.895H167.88v-1.127h1.835c0.553,0,0.96-0.091,1.213-0.271c0.256-0.179,0.385-0.388,0.385-0.615
					v-17.886c0-0.422-0.125-0.743-0.377-0.957c-0.25-0.219-0.615-0.324-1.101-0.324h-1.962v-1.134h-0.002V239.868z M174.494,250.109
					h4.236c1.301,0,2.336-0.381,3.109-1.143c0.771-0.761,1.156-2.009,1.156-3.74c0-1.07-0.184-1.904-0.551-2.508
					c-0.368-0.604-0.899-1.037-1.604-1.316c-0.7-0.274-1.911-0.412-3.637-0.412c-1.22,0-1.976,0.089-2.271,0.262
					c-0.291,0.176-0.438,0.482-0.438,0.926V250.109L174.494,250.109L174.494,250.109z M174.494,251.236v8.609
					c0,0.399,0.117,0.701,0.355,0.902c0.237,0.2,0.664,0.301,1.276,0.301h2.708c1.793,0,3.111-0.395,3.971-1.183
					c0.858-0.791,1.284-2.021,1.284-3.69c0-1.529-0.442-2.732-1.325-3.613c-0.891-0.881-2.113-1.321-3.676-1.321L174.494,251.236
					L174.494,251.236z"/>
			</g>
			<g>
				<path fill="#6200FC" d="M315.519,162.889c6.099,0.055,11.863,2.36,12.305,7.469c0.33,3.736-4.612,7.142-10.709,7.142
					c-6.151-0.056-11.859-2.31-12.355-7.411C304.426,166.292,309.42,162.889,315.519,162.889z M316.999,176.232
					c2.638,0,4.341-2.527,4.065-4.561c-0.606-4.009-1.979-7.25-5.604-7.25c-2.636,0-4.173,2.581-3.841,4.612
					C312.224,173.048,313.377,176.232,316.999,176.232z"/>
			</g>
		</g>
		<g>
			<path id="path2070" fill="#9606F4" d="M15.559,200.018c3.803-2.566,6.646-4.514,8.472-5.854c1.831-1.321,3.758-2.979,5.732-4.946
				c1.973-1.966,3.634-4.196,4.981-6.672c1.059-1.821,1.974-3.938,2.72-6.337c0.748-2.377,1.133-4.684,1.205-6.863
				c0-2.039-0.265-3.98-0.818-5.811c-0.531-1.85-1.445-3.36-2.745-4.584c-1.299-1.2-2.983-1.801-5.078-1.801
				c-2.021,0-3.924,0.406-5.704,1.197c-1.758,0.816-3.012,2.11-3.707,3.938c0,0.17-0.098,0.384-0.243,0.693
				c0.048,0.388,0.243,0.672,0.604,0.893c0.36,0.216,0.672,0.312,0.962,0.312c0.144,0,0.553-0.072,1.18-0.218
				c0.65-0.146,1.18-0.239,1.612-0.239c1.277,0,2.409,0.457,3.442,1.347c1.013,0.888,1.519,1.966,1.519,3.239
				c0,0.912-0.265,1.773-0.771,2.564c-0.504,0.793-1.203,1.439-2.093,1.896c-0.893,0.48-1.88,0.697-2.936,0.697
				c-1.928,0-3.563-0.578-4.913-1.754c-1.324-1.199-1.998-2.713-1.998-4.609c0-2.426,0.746-4.515,2.214-6.287
				c1.493-1.776,3.37-3.096,5.682-3.981c2.288-0.913,4.599-1.346,6.958-1.346c2.574,0,5.031,0.647,7.317,1.968
				c2.312,1.295,4.118,3.098,5.464,5.327c1.349,2.255,2.048,4.655,2.048,7.249c0,4.609-1.542,8.881-4.622,12.842
				c-3.083,3.962-6.885,7.395-11.436,10.32c-3.032,1.992-7.942,4.682-14.707,8.064L15.559,200.018z M48.997,162.887
				c0-0.865,0.312-1.586,0.938-2.162c0.602-0.599,1.349-0.887,2.237-0.887c0.771,0,1.494,0.333,2.144,0.98
				c0.649,0.625,0.962,1.369,0.962,2.187c0,0.863-0.335,1.604-0.962,2.208c-0.673,0.574-1.421,0.862-2.264,0.862
				c-0.89,0-1.612-0.288-2.189-0.935C49.287,164.518,48.997,163.773,48.997,162.887z M48.997,175.463
				c0-0.865,0.312-1.609,0.89-2.184c0.6-0.604,1.348-0.889,2.286-0.889c0.771,0,1.47,0.312,2.144,0.959
				c0.627,0.647,0.962,1.346,0.962,2.11c0,0.938-0.313,1.683-0.914,2.281c-0.627,0.601-1.349,0.909-2.192,0.909
				c-0.938,0-1.686-0.312-2.286-0.891C49.308,177.189,48.997,176.423,48.997,175.463z"/>
		</g>
	</g>
</g>
</svg>
