<?xml version="1.0" encoding="utf-8"?>
<!-- Generator: Adobe Illustrator 13.0.2, SVG Export Plug-In . SVG Version: 6.00 Build 14948)  -->
<!DOCTYPE svg PUBLIC "-//W3C//DTD SVG 1.0//EN" "http://www.w3.org/TR/2001/REC-SVG-20010904/DTD/svg10.dtd">
<svg version="1.0" id="Layer_1" xmlns="http://www.w3.org/2000/svg" xmlns:xlink="http://www.w3.org/1999/xlink" x="0px" y="0px"
	 width="500px" height="500px" viewBox="0 -2.75 500 500" enable-background="new 0 -2.75 500 500" xml:space="preserve">
<g id="Layer_2_3_">
	<polygon fill="none" stroke="#070000" points="170.51,82.49 404.014,315.195 81.072,229.834 404.01,146.615 170.51,373.928 
		252.844,58.594 340.014,373.9 104.072,146.553 423.51,229.49 104.011,315.198 340.072,82.553 252.846,397.564 	"/>
	<circle fill="none" stroke="#000000" stroke-width="2" cx="253.667" cy="229.333" r="182.167"/>
</g>
<g id="Layer_3">
	<g enable-background="new    ">
		<path fill="#FFFF00" stroke="#FFFF00" d="M262.189,39.208c-1.152,0.576-3.455,1.188-6.407,1.188
			c-6.839,0-11.986-4.355-11.986-12.31c0-7.596,5.147-12.743,12.671-12.743c3.023,0,4.931,0.648,5.759,1.08l-0.756,2.556
			c-1.188-0.576-2.88-1.008-4.896-1.008c-5.688,0-9.467,3.636-9.467,10.007c0,5.939,3.42,9.755,9.322,9.755
			c1.908,0,3.852-0.396,5.111-1.008L262.189,39.208z"/>
	</g>
	<g enable-background="new    ">
		<path fill="#9BDC00" stroke="#9BDC00" d="M325.073,53.158c-1.286-0.068-3.591-0.672-6.159-2.129
			c-5.947-3.375-8.273-9.704-4.348-16.623c3.748-6.605,10.766-8.542,17.308-4.829c2.63,1.492,3.969,2.997,4.477,3.781l-1.919,1.85
			c-0.749-1.087-2.008-2.298-3.761-3.293c-4.946-2.807-10.028-1.51-13.172,4.031c-2.931,5.165-1.84,10.172,3.294,13.085
			c1.659,0.941,3.545,1.557,4.943,1.646L325.073,53.158z"/>
	</g>
	<g enable-background="new    ">
		<path fill="#9BDC00" stroke="#9BDC00" d="M380.066,58.104c1.668,0.971,3.57,2.224,5.504,3.78c3.508,2.82,5.35,5.641,5.764,8.515
			c0.441,2.896-0.334,5.874-2.793,8.932c-2.482,3.085-5.467,4.843-8.631,5.161c-3.189,0.346-6.873-1.046-10.549-4.001
			c-1.738-1.398-3.129-2.655-4.252-3.789L380.066,58.104z M369.062,76.784c0.527,0.608,1.4,1.358,2.355,2.125
			c5.217,4.196,10.396,3.556,14.502-1.549c3.615-4.437,3.369-9.3-1.793-13.451c-1.262-1.015-2.307-1.67-3.064-2.049L369.062,76.784z
			"/>
	</g>
	<g enable-background="new    ">
		<path fill="#00A70D" d="M435.484,116.312c1.163,1.54,2.435,3.43,3.62,5.612c2.146,3.954,2.758,7.268,2.03,10.079
			c-0.71,2.842-2.576,5.289-6.024,7.161c-3.479,1.889-6.91,2.358-9.954,1.43c-3.074-0.91-5.937-3.616-8.186-7.761
			c-1.064-1.961-1.863-3.658-2.46-5.136L435.484,116.312z M418.124,129.299c0.251,0.765,0.77,1.794,1.354,2.87
			c3.193,5.885,8.218,7.293,13.976,4.167c5.047-2.699,6.696-7.28,3.537-13.101c-0.773-1.424-1.483-2.431-2.036-3.073
			L418.124,129.299z"/>
	</g>
	<g enable-background="new    ">
		<path fill="#00726D" d="M463.048,184.557c0.474,1.87,0.911,4.105,1.154,6.578c0.44,4.478-0.286,7.768-2.049,10.075
			c-1.759,2.343-4.431,3.871-8.335,4.255c-3.939,0.387-7.284-0.514-9.727-2.553c-2.479-2.035-4.062-5.641-4.523-10.334
			c-0.219-2.221-0.295-4.094-0.27-5.688L463.048,184.557z M442.004,189.771c-0.065,0.802,0.012,1.952,0.132,3.17
			c0.655,6.663,4.735,9.915,11.255,9.274c5.699-0.524,9-4.104,8.354-10.695c-0.159-1.612-0.422-2.815-0.682-3.622L442.004,189.771z"
			/>
	</g>
	<g enable-background="new    ">
		<path fill="#00726D" d="M451.509,266.945l0.936-9.384l-8.703-0.867l-1.043,10.458l-2.615-0.261l1.354-13.574l24.141,2.406
			l-1.3,13.038l-2.614-0.261l0.989-9.922l-7.63-0.761l-0.936,9.384L451.509,266.945z"/>
	</g>
	<g enable-background="new    ">
		<path fill="#0053B8" d="M426.145,330.721l4.61-8.227l-7.63-4.275l-5.138,9.168l-2.293-1.285l6.669-11.9l21.164,11.861
			l-6.405,11.43l-2.292-1.285l4.874-8.697l-6.688-3.75l-4.61,8.229L426.145,330.721z"/>
	</g>
	<g enable-background="new    ">
		<path fill="#4500B8" d="M370.311,407.332l-10.816,7.33l-1.475-2.176l8.225-5.573l-4.523-6.675l-7.598,5.15l-1.455-2.146
			l7.599-5.148l-6.159-9.088l2.592-1.757L370.311,407.332z"/>
	</g>
	<g enable-background="new    ">
		<path fill="#7000B8" d="M298.895,438.297l-12.812,2.558l-0.515-2.577l9.743-1.944l-1.578-7.907l-9.001,1.796l-0.507-2.541l9-1.796
			l-2.148-10.767l3.071-0.613L298.895,438.297z"/>
	</g>
	<g enable-background="new    ">
		<path fill="#7000B8" d="M220.722,417.77c1.452-0.343,4.299-0.852,7.554-0.482c3.648,0.415,6.547,1.686,8.651,4.207
			c1.846,2.239,2.768,5.604,2.341,9.359c-0.853,7.185-6.385,11.882-14.468,10.963c-2.79-0.316-4.903-1.172-5.883-1.791l1.04-2.454
			c1.223,0.718,2.779,1.365,5.211,1.642c5.865,0.667,10.107-2.546,10.794-8.59c0.695-6.116-2.579-10.146-8.193-10.785
			c-2.039-0.231-3.466-0.104-4.222,0.172l-0.817,7.189l4.9,0.557l-0.285,2.504l-7.94-0.902L220.722,417.77z"/>
	</g>
	<g enable-background="new    ">
		<path fill="#9E00D5" d="M152.002,391.174c1.458,0.309,4.252,1.061,7.04,2.781c3.123,1.929,5.205,4.314,6.033,7.492
			c0.718,2.812,0.118,6.249-1.868,9.465c-3.832,6.137-10.837,8.029-17.76,3.754c-2.389-1.475-3.935-3.148-4.558-4.126l1.985-1.777
			c0.8,1.171,1.933,2.421,4.015,3.706c5.023,3.102,10.229,2.002,13.426-3.174c3.234-5.237,1.99-10.279-2.818-13.248
			c-1.746-1.078-3.092-1.57-3.894-1.643l-3.802,6.156l4.196,2.591l-1.324,2.144l-6.799-4.198L152.002,391.174z"/>
	</g>
	<g enable-background="new    ">
		<path fill="#C2008F" d="M102.083,348.803c1.326,0.684,3.82,2.148,6.052,4.545c2.502,2.688,3.878,5.539,3.837,8.822
			c-0.054,2.902-1.541,6.059-4.307,8.633c-5.321,4.904-12.577,4.873-18.121-1.08c-1.913-2.055-2.962-4.078-3.305-5.186l2.386-1.188
			c0.462,1.34,1.224,2.845,2.892,4.636c4.022,4.32,9.333,4.639,13.786,0.493c4.505-4.194,4.64-9.385,0.789-13.521
			c-1.398-1.502-2.565-2.334-3.318-2.615l-5.296,4.93l3.36,3.609l-1.844,1.717l-5.445-5.849L102.083,348.803z"/>
	</g>
	<g enable-background="new    ">
		<path fill="#C2008F" d="M70.806,310.342l8.034-0.187l1.087,3.053l-25.62,0.374l-1.269-3.561l20.077-15.938l1.123,3.153
			l-6.318,5.002L70.806,310.342z M65.831,303.67l-5.782,4.581c-1.311,1.04-2.546,1.862-3.747,2.672l0.024,0.068
			c1.477-0.145,3-0.267,4.547-0.321l7.409-0.117L65.831,303.67z"/>
	</g>
	<g enable-background="new    ">
		<path fill="#DF0011" d="M54.564,233.545l7.659,2.431l0.037,3.24l-24.354-7.963l-0.043-3.779l24.164-8.558l0.039,3.347
			l-7.601,2.679L54.564,233.545z M52.024,225.619l-6.956,2.456c-1.577,0.558-3.013,0.934-4.412,1.31l0.001,0.072
			c1.443,0.344,2.924,0.723,4.405,1.174l7.046,2.295L52.024,225.619z"/>
	</g>
	<g enable-background="new    ">
		<path fill="#DF5511" d="M63.522,170.273l6.477,4.757l-1.002,3.08l-20.52-15.345l1.17-3.594l25.631-0.365l-1.036,3.183
			l-8.059,0.104L63.522,170.273z M63.656,161.951l-7.375,0.1c-1.674,0.022-3.154-0.081-4.601-0.172l-0.022,0.068
			c1.258,0.787,2.54,1.621,3.798,2.523l5.939,4.43L63.656,161.951z"/>
	</g>
	<g enable-background="new    ">
		<path fill="#DF5511" d="M78.391,104.414c0.642-1.242,1.838-3.053,3.225-4.755c1.979-2.427,3.672-3.648,5.576-4.047
			c1.521-0.385,3.113-0.062,4.593,1.144c1.813,1.479,2.426,3.975,1.536,6.546l0.057,0.046c1.902-1.422,5.086-2.31,7.875-0.035
			c1.619,1.319,2.324,2.961,2.471,4.66c0.131,2.29-1.039,4.864-3.541,7.933c-1.364,1.674-2.521,2.868-3.293,3.585L78.391,104.414z
			 M88.07,108.264l1.796-2.204c2.093-2.566,1.981-5.166,0.168-6.643c-2.204-1.797-4.434-0.828-6.435,1.627
			c-0.91,1.116-1.35,1.826-1.584,2.284L88.07,108.264z M97.082,115.609c0.47-0.406,1.066-1.08,1.771-1.945
			c2.047-2.511,3.013-5.578,0.279-7.806c-2.567-2.092-5.424-0.752-7.584,1.898l-1.638,2.009L97.082,115.609z"/>
	</g>
	<g enable-background="new    ">
		<path fill="#FF9E11" d="M141.47,46.549c1.099-0.865,2.938-2.017,4.905-2.99c2.807-1.389,4.854-1.799,6.752-1.372
			c1.544,0.279,2.859,1.234,3.706,2.945c1.037,2.097,0.56,4.623-1.315,6.595l0.032,0.064c2.319-0.505,5.585,0.007,7.182,3.232
			c0.927,1.872,0.888,3.659,0.316,5.266c-0.83,2.138-2.962,3.996-6.511,5.752c-1.936,0.958-3.484,1.563-4.483,1.897L141.47,46.549z
			 M148.682,54.064l2.549-1.262c2.969-1.469,3.944-3.879,2.907-5.976c-1.261-2.549-3.692-2.591-6.532-1.187
			c-1.289,0.638-1.983,1.103-2.388,1.422L148.682,54.064z M153.838,64.484c0.597-0.174,1.42-0.54,2.42-1.035
			c2.903-1.437,5.054-3.827,3.49-6.989c-1.469-2.968-4.625-2.933-7.689-1.416l-2.323,1.149L153.838,64.484z"/>
	</g>
	<g enable-background="new    ">
		<path d="M348.153,66.581l23.33-15.414l1.993,1.422l-23.36,15.393L348.153,66.581z"/>
	</g>
	<g enable-background="new    ">
		<path d="M443.37,234.553l24.999,12.527l-0.237,2.437l-24.996-12.563L443.37,234.553z"/>
	</g>
	<g enable-background="new    ">
		<path d="M256.46,419.203l-11.135,25.649l-2.446-0.104l11.171-25.647L256.46,419.203z"/>
	</g>
	<g enable-background="new    ">
		<path d="M89.217,326.359l-27.936,1.225l-0.979-2.243l27.95-1.192L89.217,326.359z"/>
	</g>
	<g enable-background="new    ">
		<path d="M87.001,135.142l-16.646-22.468l1.312-2.066l16.627,22.498L87.001,135.142z"/>
	</g>
</g>
<g id="Layer_4">
	<g enable-background="new    ">
		<path fill="#9BDC00" d="M344.706,55.687l-2.407-0.357l-3.529,5.647l-1.396-0.278l3.567-5.709l-2.572-0.504l-3.605,5.77
			l-1.416-0.248l3.682-5.892l-2.343-0.53l2.365-3.785l2.381,0.469l3.339-5.342l-2.361-0.5l2.384-3.816l2.362,0.5l3.776-6.045
			l1.378,0.31l-3.776,6.045l2.533,0.564l3.873-6.197l1.358,0.34l-3.854,6.166l2.312,0.511l-2.327,3.725l-2.368-0.419l-3.339,5.343
			l2.312,0.51L344.706,55.687z M343.435,51.2l3.357-5.373l-2.785-0.638l-3.357,5.373L343.435,51.2z"/>
	</g>
	<g enable-background="new    ">
		<path fill="#00726D" d="M449.557,225.812l-1.031-2.206l-6.657,0.174l-0.54-1.319l6.73-0.176l-1-2.422l-6.802,0.178l-0.574-1.318
			l6.945-0.182l-0.851-2.247l4.463-0.117l0.923,2.245l6.298-0.165l-0.888-2.246l4.499-0.118l0.888,2.246l7.126-0.187l0.502,1.32
			l-7.126,0.187l0.929,2.424l7.306-0.191l0.467,1.321l-7.271,0.19l0.851,2.21l-4.391,0.115l-0.958-2.208l-6.298,0.165l0.85,2.211
			L449.557,225.812z M452.596,222.275l6.335-0.166l-1.007-2.674l-6.334,0.166L452.596,222.275z"/>
	</g>
	<g enable-background="new    ">
		<path fill="#7000B8" d="M265.244,424.815l2.217-1.003l-0.093-6.659l1.325-0.522l0.094,6.731l2.435-0.97l-0.095-6.804l1.324-0.559
			l0.098,6.947l2.256-0.824l0.062,4.463l-2.256,0.896l0.088,6.3l2.258-0.859l0.062,4.499l-2.257,0.859l0.101,7.127l-1.326,0.487
			l-0.1-7.127l-2.436,0.897l0.103,7.308l-1.325,0.45l-0.103-7.271l-2.22,0.823l-0.062-4.393l2.219-0.931l-0.088-6.3l-2.221,0.823
			L265.244,424.815z M268.743,427.899l0.089,6.335l2.686-0.974l-0.088-6.335L268.743,427.899z"/>
	</g>
	<g enable-background="new    ">
		<path fill="#C2008F" d="M88.556,334.841l2.092,1.247l5.41-3.885l1.187,0.787l-5.468,3.928l2.188,1.441l5.527-3.969l1.215,0.767
			l-5.644,4.053l1.967,1.381l-3.626,2.604l-2.025-1.339l-5.118,3.675l1.996,1.36l-3.656,2.625l-1.996-1.36l-5.79,4.157l-1.157-0.809
			l5.79-4.158l-2.129-1.482l-5.936,4.262l-1.128-0.83l5.907-4.241l-1.945-1.352l3.568-2.562l2.033,1.289l5.118-3.676l-1.945-1.352
			L88.556,334.841z M88.028,339.475l-5.146,3.695l2.335,1.647l5.147-3.696L88.028,339.475z"/>
	</g>
	<g enable-background="new    ">
		<path fill="#DF5511" d="M77.856,142.404l-0.352,2.409l5.656,3.516l-0.274,1.397l-5.718-3.553l-0.498,2.573l5.779,3.591
			l-0.244,1.416l-5.9-3.667l-0.524,2.345l-3.792-2.356l0.463-2.383l-5.352-3.325l-0.494,2.363l-3.822-2.375l0.494-2.363
			l-6.054-3.762l0.305-1.379l6.055,3.762l0.559-2.535l-6.208-3.857l0.336-1.359l6.177,3.838l0.505-2.314l3.731,2.318l-0.413,2.371
			l5.352,3.326l0.504-2.314L77.856,142.404z M73.373,143.687l-5.382-3.344l-0.631,2.787l5.382,3.344L73.373,143.687z"/>
	</g>
</g>
<g id="Layer_5">
	<g enable-background="new    ">
		<path fill="#9BDC00" d="M400.756,95.682c-1.066,0.895-2.541,1.284-4.422,1.17c-0.896-0.062-2.708-0.393-5.432-0.991
			c-2.426-0.503-4.323-0.729-5.689-0.681l22.71-19.027l1.063,1.27l-12.28,10.289c1.663,0.266,3.058,1.07,4.183,2.412
			c0.771,0.92,1.164,1.858,1.184,2.814C402.114,93.996,401.676,94.912,400.756,95.682z M398.982,94.069
			c1.158-0.971,1.252-2.036,0.281-3.194c-0.816-0.975-2.166-1.613-4.048-1.916l-6.099,5.109c1.557,0.324,3.113,0.539,4.672,0.643
			C396.496,94.914,398.228,94.701,398.982,94.069z"/>
	</g>
	<g enable-background="new    ">
		<path fill="#00726D" d="M444.168,284.075c-1.35-0.345-2.525-1.313-3.531-2.908c-0.473-0.765-1.263-2.428-2.367-4.988
			c-1.007-2.264-1.93-3.937-2.77-5.017l28.708,7.33l-0.41,1.604l-15.521-3.963c0.754,1.506,0.916,3.107,0.482,4.805
			c-0.297,1.162-0.829,2.03-1.595,2.604C446.33,284.193,445.33,284.371,444.168,284.075z M444.441,281.693
			c1.465,0.373,2.384-0.172,2.758-1.637c0.315-1.232,0.046-2.701-0.808-4.405l-7.708-1.968c0.646,1.452,1.38,2.842,2.205,4.167
			C442.305,280.168,443.487,281.449,444.441,281.693z"/>
	</g>
	<g enable-background="new    ">
		<path fill="#7000B8" d="M201.688,420.469c0.312-1.357,1.252-2.557,2.82-3.601c0.753-0.492,2.397-1.321,4.93-2.488
			c2.239-1.063,3.889-2.026,4.949-2.891l-6.627,28.878l-1.614-0.37l3.583-15.614c-1.487,0.791-3.084,0.991-4.792,0.6
			c-1.17-0.27-2.05-0.779-2.641-1.53C201.624,422.633,201.42,421.638,201.688,420.469z M204.076,420.684
			c-0.338,1.475,0.231,2.381,1.704,2.719c1.24,0.285,2.701-0.021,4.384-0.914l1.78-7.756c-1.437,0.681-2.808,1.449-4.113,2.307
			C205.55,418.511,204.296,419.725,204.076,420.684z"/>
	</g>
	<g enable-background="new    ">
		<path fill="#C2008F" d="M58.14,279.729c1.295-0.513,2.816-0.419,4.566,0.282c0.832,0.342,2.447,1.224,4.844,2.649
			c2.145,1.241,3.874,2.054,5.188,2.437l-27.546,10.915l-0.61-1.54l14.895-5.901c-1.495-0.776-2.565-1.979-3.211-3.607
			c-0.442-1.115-0.521-2.13-0.237-3.042C56.32,280.902,57.025,280.172,58.14,279.729z M59.317,281.818
			c-1.406,0.557-1.83,1.539-1.273,2.944c0.469,1.183,1.548,2.214,3.239,3.093l7.396-2.932c-1.375-0.797-2.785-1.49-4.231-2.079
			C61.942,281.799,60.232,281.456,59.317,281.818z"/>
	</g>
	<g enable-background="new    ">
		<path fill="#DF5511" d="M111.185,89.433c0.994,0.975,1.524,2.404,1.593,4.287c0.026,0.9-0.126,2.734-0.457,5.503
			c-0.266,2.463-0.307,4.374-0.124,5.729L91.048,84.201l1.16-1.182l11.436,11.221c0.103-1.681,0.768-3.146,1.995-4.397
			c0.84-0.856,1.735-1.34,2.684-1.451C109.374,88.245,110.328,88.592,111.185,89.433z M109.751,91.356
			c-1.08-1.06-2.149-1.049-3.208,0.03c-0.891,0.908-1.394,2.313-1.513,4.214l5.679,5.572c0.172-1.579,0.234-3.15,0.185-4.711
			C110.834,93.747,110.454,92.045,109.751,91.356z"/>
	</g>
</g>
<g id="Layer_6">
</g>
</svg>
