<?xml version="1.0" encoding="UTF-8" standalone="no"?>
<!-- Generator: Adobe Illustrator 12.0.0, SVG Export Plug-In . SVG Version: 6.00 Build 51448)  -->
<svg
   xmlns:dc="http://purl.org/dc/elements/1.1/"
   xmlns:cc="http://creativecommons.org/ns#"
   xmlns:rdf="http://www.w3.org/1999/02/22-rdf-syntax-ns#"
   xmlns:svg="http://www.w3.org/2000/svg"
   xmlns="http://www.w3.org/2000/svg"
   xmlns:sodipodi="http://sodipodi.sourceforge.net/DTD/sodipodi-0.dtd"
   xmlns:inkscape="http://www.inkscape.org/namespaces/inkscape"
   version="1.1"
   id="Ebene_1"
   width="249.606"
   height="198.607"
   viewBox="0 0 249.606 198.607"
   overflow="visible"
   enable-background="new 0 0 249.606 198.607"
   xml:space="preserve"
   sodipodi:version="0.32"
   inkscape:version="0.46"
   sodipodi:docname="Pythagorean.svg"
   inkscape:output_extension="org.inkscape.output.svg.inkscape"><metadata
   id="metadata24"><rdf:RDF><cc:Work
       rdf:about=""><dc:format>image/svg+xml</dc:format><dc:type
         rdf:resource="http://purl.org/dc/dcmitype/StillImage" /></cc:Work></rdf:RDF></metadata><defs
   id="defs22"><inkscape:perspective
     sodipodi:type="inkscape:persp3d"
     inkscape:vp_x="0 : 99.303497 : 1"
     inkscape:vp_y="0 : 1000 : 0"
     inkscape:vp_z="249.606 : 99.303497 : 1"
     inkscape:persp3d-origin="124.803 : 66.202332 : 1"
     id="perspective26" /></defs><sodipodi:namedview
   inkscape:window-height="722"
   inkscape:window-width="642"
   inkscape:pageshadow="2"
   inkscape:pageopacity="0.0"
   guidetolerance="10.0"
   gridtolerance="10.0"
   objecttolerance="10.0"
   borderopacity="1.0"
   bordercolor="#666666"
   pagecolor="#ffffff"
   id="base"
   showgrid="false"
   inkscape:zoom="2.1674158"
   inkscape:cx="124.803"
   inkscape:cy="99.303497"
   inkscape:window-x="67"
   inkscape:window-y="84"
   inkscape:current-layer="Ebene_1" />
<rect
   id="rect1316"
   x="150.106"
   y="50.106"
   fill="#FEF3F2"
   stroke="#EE3835"
   width="99"
   height="99" />
<path
   id="path4814"
   fill="none"
   stroke="#010101"
   stroke-width="1"
   d="M150.112,49.606c0,100,0,100,0,100" />
<rect
   id="rect3937"
   x="101.091"
   y="149.107"
   fill="#F2F2F9"
   stroke="#3F55A5"
   width="49"
   height="49" />
<path
   id="path6562"
   fill="none"
   stroke="#010101"
   stroke-width="1"
   d="M100.591,149.097c50,0,50,0,50,0" />
<rect
   id="rect7485"
   x="20.267"
   y="18.651"
   transform="matrix(0.4411 -0.8975 0.8975 0.4411 -25.0085 109.2623)"
   fill="#F9F2F8"
   stroke="#9D5AA3"
   stroke-width="1"
   width="109.897"
   height="112.116" />
<path
   id="path7487"
   fill="none"
   stroke="#010101"
   stroke-width="1"
   d="M150.052,49.57c-49.019,99.744-49.019,99.744-49.019,99.744" />
<g
   enable-background="new    "
   id="g9"
   transform="translate(-34.603421,57.21099)">
	<path
   d="M 164.784,95.273 L 162.514,103.219 L 162.25,104.283 C 162.223,104.387 162.21,104.473 162.21,104.545 C 162.21,104.656 162.237,104.755 162.293,104.838 C 162.336,104.901 162.391,104.933 162.457,104.933 C 162.528,104.933 162.621,104.877 162.736,104.765 C 162.951,104.556 163.236,104.096 163.593,103.385 L 163.991,103.666 C 163.537,104.455 163.071,105.039 162.591,105.42 C 162.111,105.801 161.667,105.991 161.26,105.991 C 160.978,105.991 160.759,105.907 160.604,105.739 C 160.449,105.571 160.372,105.327 160.372,105.007 C 160.372,104.624 160.458,104.12 160.63,103.495 L 160.881,102.643 C 159.758,103.968 158.727,104.894 157.783,105.421 C 157.107,105.8 156.443,105.99 155.792,105.99 C 155.166,105.99 154.627,105.758 154.172,105.292 C 153.719,104.827 153.492,104.187 153.492,103.371 C 153.492,102.148 153.894,100.858 154.701,99.5 C 155.507,98.143 156.53,97.056 157.771,96.241 C 158.742,95.595 159.658,95.271 160.519,95.271 C 161.033,95.271 161.461,95.385 161.803,95.613 C 162.145,95.842 162.405,96.219 162.581,96.747 L 162.966,95.553 L 164.784,95.273 z M 160.471,95.882 C 159.927,95.882 159.351,96.111 158.74,96.572 C 157.873,97.223 157.103,98.189 156.428,99.468 C 155.753,100.749 155.416,101.906 155.416,102.941 C 155.416,103.462 155.565,103.875 155.865,104.177 C 156.166,104.48 156.51,104.631 156.898,104.631 C 157.86,104.631 158.906,104.014 160.036,102.78 C 161.414,101.139 162.082,99.457 162.039,97.731 C 162.039,97.081 161.898,96.609 161.617,96.317 C 161.337,96.028 160.954,95.882 160.471,95.882 z"
   id="path11"
   style="fill:#010101" />
</g>
<g
   enable-background="new    "
   id="g13"
   transform="translate(33.219284,-59.056505)">
	<path
   d="M 126.784,152.331 L 124.458,160.475 C 125.177,159.696 125.805,159.163 126.34,158.873 C 126.875,158.585 127.436,158.44 128.021,158.44 C 128.845,158.44 129.519,158.725 130.043,159.296 C 130.567,159.866 130.83,160.64 130.83,161.616 C 130.83,162.875 130.48,164.127 129.783,165.374 C 129.084,166.62 128.208,167.591 127.153,168.287 C 126.098,168.982 125.058,169.33 124.034,169.33 C 122.888,169.33 121.712,168.888 120.506,168.002 L 124.054,155.69 C 124.327,154.745 124.464,154.19 124.464,154.026 C 124.464,153.823 124.402,153.671 124.276,153.569 C 124.096,153.428 123.83,153.358 123.478,153.358 C 123.313,153.358 123.062,153.385 122.726,153.44 L 122.726,152.987 L 126.784,152.331 z M 122.24,168.132 C 122.991,168.567 123.652,168.783 124.222,168.783 C 124.883,168.783 125.569,168.531 126.278,168.026 C 126.988,167.522 127.604,166.671 128.126,165.474 C 128.648,164.277 128.909,163.069 128.909,161.848 C 128.909,161.128 128.74,160.565 128.401,160.159 C 128.063,159.752 127.664,159.549 127.204,159.549 C 126.513,159.549 125.836,159.854 125.175,160.463 C 124.513,161.072 124.033,161.897 123.735,162.935 L 122.24,168.132 z"
   id="path15"
   style="fill:#010101" />
</g>
<g
   enable-background="new    "
   id="g17">
	<path
   fill="#010101"
   d="M119.016,102.335c-0.813,0.977-1.634,1.694-2.462,2.154s-1.704,0.689-2.626,0.689   c-1.109,0-1.975-0.312-2.597-0.938c-0.621-0.626-0.932-1.466-0.932-2.521c0-1.196,0.334-2.372,1.002-3.529   c0.668-1.156,1.566-2.096,2.695-2.818c1.129-0.724,2.236-1.085,3.322-1.085c0.852,0,1.488,0.177,1.91,0.531   s0.633,0.788,0.633,1.303c0,0.482-0.148,0.896-0.444,1.237c-0.219,0.266-0.487,0.397-0.807,0.397c-0.242,0-0.443-0.077-0.603-0.233   c-0.16-0.155-0.24-0.35-0.24-0.582c0-0.148,0.029-0.284,0.088-0.408c0.059-0.125,0.18-0.274,0.363-0.449s0.295-0.301,0.334-0.379   c0.039-0.077,0.059-0.159,0.059-0.244c0-0.164-0.075-0.3-0.225-0.408c-0.229-0.155-0.551-0.233-0.969-0.233   c-0.771,0-1.536,0.27-2.292,0.808c-0.756,0.539-1.402,1.304-1.937,2.295c-0.646,1.202-0.969,2.404-0.969,3.606   c0,0.797,0.229,1.427,0.685,1.892c0.457,0.464,1.079,0.696,1.866,0.696c0.606,0,1.207-0.15,1.801-0.451   c0.594-0.301,1.262-0.846,2.002-1.635L119.016,102.335z"
   id="path19" />
</g>
</svg>