<?xml version="1.0" encoding="utf-8"?>
<!-- Generator: Adobe Illustrator 13.0.2, SVG Export Plug-In . SVG Version: 6.00 Build 14948)  -->
<!DOCTYPE svg PUBLIC "-//W3C//DTD SVG 1.0//EN" "http://www.w3.org/TR/2001/REC-SVG-20010904/DTD/svg10.dtd">
<svg version="1.0" id="Layer_1" xmlns="http://www.w3.org/2000/svg" xmlns:xlink="http://www.w3.org/1999/xlink" x="0px" y="0px"
	 width="500px" height="270px" viewBox="0 0 500 270" enable-background="new 0 0 500 270" xml:space="preserve">
<g id="Layer_1_1_">
	<g>
		<g>
			<g>
				<path fill="#0A1721" d="M453.5,15.122c-9.377,0-18.752,0-28.129,0c0-2.215,0-4.429,0-6.643c9.361,0,18.728,0,28.095,0
					c0.02-0.003,0.028,0.004,0.031,0.019C453.5,10.706,453.5,12.914,453.5,15.122z"/>
				<path fill="#0A1A30" d="M453.5,15.122c0,1.014,0,2.027,0,3.043c-9.377,0-18.752,0-28.129,0c0-1.015,0-2.029,0-3.043
					C434.748,15.122,444.123,15.122,453.5,15.122z"/>
				<path fill="#230D41" d="M453.5,18.164c0,2.108,0,4.217,0,6.326c-9.377,0-18.752,0-28.129,0c0-2.109,0-4.217,0-6.326
					C434.748,18.164,444.123,18.164,453.5,18.164z"/>
				<path fill="#2D1D5E" d="M453.5,24.49c0,2.09,0,4.181,0,6.271c-9.377,0-18.752,0-28.129,0c0-2.09,0-4.181,0-6.271
					C434.748,24.49,444.123,24.49,453.5,24.49z"/>
				<path fill="#3F2C83" d="M453.5,30.761c0,1.397,0,2.795,0,4.194c-9.377,0-18.752,0-28.129,0c0-1.398,0-2.796,0-4.194
					C434.748,30.761,444.123,30.761,453.5,30.761z"/>
				<path fill="#563F98" d="M453.5,34.954c0,1.317,0,2.634,0,3.952c-9.377,0-18.752,0-28.129,0c0-1.317,0-2.634,0-3.952
					C434.748,34.954,444.123,34.954,453.5,34.954z"/>
				<path fill="#5D52A1" d="M453.5,38.906c0,0.749,0,1.496,0,2.245c-9.377,0-18.752,0-28.129,0c0-0.749,0-1.496,0-2.245
					C434.748,38.906,444.123,38.906,453.5,38.906z"/>
				<path fill="#6253A2" d="M453.5,41.15c0,4.824,0,9.647,0,14.471c-9.377,0-18.752,0-28.129,0c0-4.823,0-9.647,0-14.471
					C434.748,41.15,444.123,41.15,453.5,41.15z"/>
				<path fill="#5D52A1" d="M453.5,55.621c0,1.824,0,3.648,0,5.473c-9.377,0-18.752,0-28.129,0c0-1.824,0-3.648,0-5.473
					C434.748,55.621,444.123,55.621,453.5,55.621z"/>
				<path fill="#5453A3" d="M453.5,61.094c0,2.734,0,5.467,0,8.201c-9.377,0-18.752,0-28.129,0c0-2.733,0-5.466,0-8.201
					C434.748,61.094,444.123,61.094,453.5,61.094z"/>
				<path fill="#4058A6" d="M453.5,69.294c0,2.536,0,5.071,0,7.607c-9.377,0-18.752,0-28.129,0c0-2.535,0-5.071,0-7.607
					C434.748,69.294,444.123,69.294,453.5,69.294z"/>
				<path fill="#4372B7" d="M453.5,76.901c0,1.682,0,3.364,0,5.046c-9.377,0-18.752,0-28.129,0c0-1.681,0-3.363,0-5.046
					C434.748,76.901,444.123,76.901,453.5,76.901z"/>
				<path fill="#4794D0" d="M453.5,81.947c0,1.256,0,2.511,0,3.767c-9.377,0-18.752,0-28.129,0c0-1.255,0-2.511,0-3.767
					C434.748,81.947,444.123,81.947,453.5,81.947z"/>
				<path fill="#37B9DA" d="M453.5,85.714c0,0.426,0,0.854,0,1.28c-9.377,0-18.752,0-28.129,0c0-0.426,0-0.854,0-1.28
					C434.748,85.714,444.123,85.714,453.5,85.714z"/>
				<path fill="#1AB9E5" d="M453.5,86.994c0,1.354,0,2.708,0,4.063c-9.377,0-18.752,0-28.129,0c0-1.354,0-2.709,0-4.063
					C434.748,86.994,444.123,86.994,453.5,86.994z"/>
				<path fill="#37B9DA" d="M453.5,91.057c0,0.748,0,1.497,0,2.245c-9.377,0-18.752,0-28.129,0c0-0.748,0-1.497,0-2.245
					C434.748,91.057,444.123,91.057,453.5,91.057z"/>
				<path fill="#56C3C5" d="M453.5,93.302c0,1.885,0,3.772,0,5.658c-9.377,0-18.752,0-28.129,0c0-1.887,0-3.773,0-5.658
					C434.748,93.302,444.123,93.302,453.5,93.302z"/>
				<path fill="#6FC6B0" d="M453.5,98.96c0,3.445,0,6.89,0,10.333c-9.377,0-18.752,0-28.129,0c0-3.444,0-6.888,0-10.333
					C434.748,98.96,444.123,98.96,453.5,98.96z"/>
				<path fill="#71C390" d="M453.5,109.293c0,4.602,0,9.202,0,13.803c-9.377,0-18.752,0-28.129,0c0-4.601,0-9.201,0-13.803
					C434.748,109.293,444.123,109.293,453.5,109.293z"/>
				<path fill="#72C070" d="M453.5,123.096c0,2.919,0,5.839,0,8.757c-9.377,0-18.752,0-28.129,0c0-2.918,0-5.838,0-8.757
					C434.748,123.096,444.123,123.096,453.5,123.096z"/>
				<path fill="#71BE48" d="M453.5,131.854c0,2.714,0,5.43,0,8.145c-9.377,0-18.752,0-28.129,0c0-2.716,0-5.431,0-8.145
					C434.748,131.854,444.123,131.854,453.5,131.854z"/>
				<path fill="#8AC53F" d="M453.5,139.999c0,1.132,0,2.265,0,3.394c-9.377,0-18.752,0-28.129,0c0-1.129,0-2.262,0-3.394
					C434.748,139.999,444.123,139.999,453.5,139.999z"/>
				<path fill="#A9CF37" d="M453.5,143.393c0,1.424,0,2.847,0,4.269c-9.377,0-18.752,0-28.129,0c0-1.422,0-2.845,0-4.269
					C434.748,143.393,444.123,143.393,453.5,143.393z"/>
				<path fill="#CADA29" d="M453.5,147.66c0,1.521,0,3.045,0,4.564c-9.377,0-18.752,0-28.129,0c0-1.521,0-3.043,0-4.564
					C434.748,147.66,444.123,147.66,453.5,147.66z"/>
				<path fill="#E9E110" d="M453.5,152.227c0,1.515,0,3.028,0,4.543c-9.377,0-18.752,0-28.129,0c0-1.515,0-3.028,0-4.543
					C434.748,152.227,444.123,152.227,453.5,152.227z"/>
				<path fill="#FBC90B" d="M453.5,156.77c0,1.604,0,3.205,0,4.807c-9.377,0-18.752,0-28.129,0c0-1.602,0-3.202,0-4.807
					C434.748,156.77,444.123,156.77,453.5,156.77z"/>
				<path fill="#F7961C" d="M453.5,161.575c0,2.491,0,4.981,0,7.477c-9.377,0-18.752,0-28.129,0c0-2.493,0-4.983,0-7.477
					C434.748,161.575,444.123,161.575,453.5,161.575z"/>
				<path fill="#F05F22" d="M453.5,169.052c0,3.08,0,6.16,0,9.24c-9.377,0-18.752,0-28.129,0c0-3.08,0-6.16,0-9.24
					C434.748,169.052,444.123,169.052,453.5,169.052z"/>
				<path fill="#ED2B28" d="M453.5,178.292c0,2.597,0,5.197,0,7.791c-9.377,0-18.752,0-28.129,0c0-2.597,0-5.194,0-7.791
					C434.748,178.292,444.123,178.292,453.5,178.292z"/>
				<path fill="#EB1D49" d="M453.5,186.083c0,6.89,0,13.778,0,20.667c-9.377,0-18.752,0-28.129,0c0-6.889,0-13.777,0-20.667
					C434.748,186.083,444.123,186.083,453.5,186.083z"/>
				<path fill="#CE1F45" d="M453.5,206.75c0,1.844,0,3.688,0,5.527c-9.377,0-18.752,0-28.129,0c0-1.84,0-3.685,0-5.527
					C434.748,206.75,444.123,206.75,453.5,206.75z"/>
				<path fill="#B01E3E" d="M453.5,212.279c0,1.887,0,3.773,0,5.658c-9.377,0-18.752,0-28.129,0c0-1.883,0-3.771,0-5.658
					C434.748,212.279,444.123,212.279,453.5,212.279z"/>
				<path fill="#8F1834" d="M453.5,217.938c0,2.289,0,4.576,0,6.864c-9.377,0-18.752,0-28.129,0c0-2.288,0-4.575,0-6.864
					C434.748,217.938,444.123,217.938,453.5,217.938z"/>
				<path fill="#6B0A25" d="M453.5,224.803c0,2.512,0,5.021,0,7.532c-9.377,0-18.752,0-28.129,0c0-2.512,0-5.021,0-7.532
					C434.748,224.803,444.123,224.803,453.5,224.803z"/>
				<path fill="#530E22" d="M453.5,232.335c0,0.55,0,1.101,0,1.649c-9.377,0-18.752,0-28.129,0c0-0.549,0-1.101,0-1.649
					C434.748,232.335,444.123,232.335,453.5,232.335z"/>
				<path fill="#44111C" d="M453.5,233.984c0,0.57,0,1.14,0,1.709c-9.377,0-18.752,0-28.129,0c0-0.569,0-1.139,0-1.709
					C434.748,233.984,444.123,233.984,453.5,233.984z"/>
				<path fill="#530E22" d="M453.5,235.693c0,0.459,0,0.927,0,1.392c-9.377,0-18.752,0-28.129,0c0-0.465,0-0.931,0-1.392
					C434.748,235.693,444.123,235.693,453.5,235.693z"/>
				<path fill="#44111C" d="M453.5,237.085c0,0.967,0,1.94,0,2.911c-9.377,0-18.752,0-28.129,0c0-0.971,0-1.939,0-2.911
					C434.748,237.085,444.123,237.085,453.5,237.085z"/>
				<path fill="#311212" d="M453.5,239.996c0,2.023,0,4.059,0,6.086c-9.377,0-18.752,0-28.129,0c0-2.027,0-4.062,0-6.086
					C434.748,239.996,444.123,239.996,453.5,239.996z"/>
				<path fill="#2C101C" d="M453.5,246.082c0,3.771,0,7.532,0,11.299c0.001,0.021-0.003,0.033-0.016,0.038
					c-9.371,0-18.741,0-28.112,0c0-3.778,0-7.558,0-11.337C434.748,246.082,444.123,246.082,453.5,246.082z"/>
			</g>
		</g>
		<g>
			<path id="path3368" fill="none" stroke="#000000" stroke-width="0.9965" d="M451.895,19.018
				c0.016,1.684-25.869,2.089-25.869,3.214s25.869,2.304,25.869,3.538c0,1.229-25.869,2.516-25.869,3.854
				c0,1.34,25.869,2.733,25.869,4.18c0,1.446-25.869,2.946-25.869,4.5c0,1.554,25.869,3.161,25.869,4.821
				c0,1.662-25.869,3.375-25.869,5.144s25.869,3.589,25.869,5.464s-25.869,3.804-25.869,5.786c0,1.981,25.869,4.018,25.869,6.107
				c0,2.09-25.869,4.232-25.869,6.429c0,2.197,25.869,4.447,25.869,6.749c0,2.305-25.869,4.661-25.869,7.074
				c0,2.41,25.869,4.875,25.869,7.392s-25.869,5.088-25.869,7.713s25.869,5.305,25.869,8.037c0,2.733-25.869,5.519-25.869,8.355
				c0,2.84,25.869,5.733,25.869,8.681c0,2.945-25.869,5.946-25.869,8.999c0,3.054,25.869,6.164,25.869,9.321
				c0,3.16-25.869,6.375-25.869,9.646c0,3.269,25.869,6.588,25.869,9.972c0,3.372-25.869,6.801-25.869,10.286
				c0,3.48,25.869,7.02,25.869,10.607c0,3.586-25.869,7.236-25.869,10.92c0,3.701,25.869,7.454,25.869,11.25
				c0,3.803-25.869,7.661-25.869,11.572c0,3.916,25.869,7.874,25.869,11.895c0,4.024-25.869,8.088-25.869,12.213
				c0,4.134,25.899,8.365,25.869,12.537"/>
		</g>
	</g>
	<g>
		<g id="Layer_1_3_">
			<g id="Layer_2_2_">
				<g>
					<rect id="rect1316" x="193.479" y="83.938" fill="#8800FF" stroke="#000000" width="105.507" height="105.505"/>
					<path id="path4814" fill="none" stroke="#010101" d="M193.486,83.405c0,106.571,0,106.571,0,106.571"/>
					<rect id="rect3937" x="141.245" y="189.443" fill="#FFFF00" stroke="#000000" width="52.218" height="52.223"/>
					<path id="path6562" fill="none" stroke="#010101" d="M140.712,189.436c53.285,0,53.285,0,53.285,0"/>
					
						<rect id="rect7485" x="55.082" y="50.396" transform="matrix(0.4411 -0.8975 0.8975 0.4411 -35.3383 163.5866)" fill="#FF0013" stroke="#000000" width="117.172" height="119.539"/>
					<path id="path7487" fill="none" stroke="#010101" d="M193.423,83.367c-52.241,106.298-52.241,106.298-52.241,106.298"/>
				</g>
			</g>
		</g>
		<g id="Layer_3">
			<g id="Ebene_1" transform="matrix(-1,0,0,-1,902.25049,364.71875)">
				<polygon id="path2050" fill="#FFF200" points="537.344,143.277 495.7,194.693 503.291,200.84 479.011,210.85 483.76,185.021 
					491.349,191.169 532.994,139.754 				"/>
			</g>
			<g id="Ebene_1_2_" transform="matrix(-1,0,0,-1,902.25049,364.71875)">
				<polygon id="path2050_2_" fill="#3F00BA" points="537.005,239.188 495.937,289.893 503.526,296.038 479.449,305.8 
					483.996,280.22 491.586,286.368 532.652,235.664 				"/>
			</g>
			<g id="Ebene_1_5_" transform="matrix(-1,0,0,-1,902.25049,364.71875)">
				<path fill="#F70606" d="M502.652,169.582l-7.59-6.145l13.291-16.42c-1.475-1.154-2.99-2.283-4.321-3.555l-13.328,16.455
					l-7.59-6.145l-4.547,25.578L502.652,169.582z"/>
				<path fill="#F70606" d="M508.36,147.02l10.639-13.137c-1.66-0.932-3.342-1.857-4.896-2.85l-10.068,12.431
					C505.371,144.734,506.885,145.864,508.36,147.02z"/>
				<path fill="#F70606" d="M526.603,124.494l5.519-6.812c-2.207-0.26-4.409-0.554-6.576-0.773l-3.597,4.438
					C523.292,122.475,524.914,123.495,526.603,124.494z"/>
				<path fill="#F70606" d="M518.999,133.883l7.604-9.389c-1.695-0.999-3.311-2.021-4.654-3.15l-7.848,9.689
					C515.657,132.025,517.337,132.951,518.999,133.883z"/>
			</g>
		</g>
		<g id="Layer_4">
			<g id="Ebene_1_1_" transform="matrix(-1,0,0,-1,902.25049,364.71875)">
				<polygon id="path2050_1_" fill="#FFF200" points="708.373,145.532 532.426,145.404 532.431,139.805 708.377,139.934 				"/>
			</g>
			<g id="Ebene_1_3_" transform="matrix(-1,0,0,-1,902.25049,364.71875)">
				<polygon id="path2050_3_" fill="#3F00BA" points="602.922,241.283 533.3,241.23 533.306,235.632 602.922,235.682 				"/>
			</g>
			<g id="Ebene_1_6_" transform="matrix(-1,0,0,-1,902.25049,364.71875)">
				<polygon id="path2050_5_" fill="#F70606" points="809.664,118.482 525.423,118.275 525.426,116.914 529.667,112.68 
					809.669,112.884 				"/>
			</g>
			<g id="Ebene_1_7_" transform="matrix(-1,0,0,-1,902.25049,364.71875)">
				<polygon id="path2050_6_" fill="#F70606" points="810.388,113.075 810.324,200.081 804.727,197.607 804.789,113.07 				"/>
			</g>
		</g>
		<g id="Layer_5">
			<g enable-background="new    ">
				<path d="M151.131,209.87c-0.378-0.021-0.861,0-1.386,0.084c-2.898,0.483-4.432,2.604-4.748,4.853h0.063
					c0.651-0.861,1.785-1.574,3.298-1.574c2.416,0,4.117,1.742,4.117,4.41c0,2.498-1.701,4.81-4.538,4.81
					c-2.919,0-4.831-2.269-4.831-5.817c0-2.688,0.966-4.81,2.311-6.154c1.134-1.112,2.646-1.807,4.369-2.019
					c0.546-0.082,1.009-0.104,1.344-0.104L151.131,209.87L151.131,209.87z M147.959,221.023c1.576,0,2.646-1.324,2.646-3.277
					s-1.113-3.129-2.814-3.129c-1.113,0-2.142,0.693-2.646,1.68c-0.126,0.21-0.21,0.484-0.21,0.82
					c0.042,2.246,1.072,3.906,3.003,3.906H147.959L147.959,221.023z"/>
				<path d="M161.905,209.87c-0.378-0.021-0.861,0-1.386,0.084c-2.898,0.483-4.432,2.604-4.748,4.853h0.062
					c0.651-0.861,1.786-1.574,3.297-1.574c2.416,0,4.118,1.742,4.118,4.41c0,2.498-1.701,4.81-4.538,4.81
					c-2.919,0-4.832-2.269-4.832-5.817c0-2.688,0.966-4.81,2.311-6.154c1.134-1.112,2.646-1.807,4.369-2.019
					c0.546-0.082,1.008-0.104,1.344-0.104v1.514L161.905,209.87L161.905,209.87z M158.733,221.023c1.575,0,2.646-1.324,2.646-3.277
					s-1.113-3.129-2.814-3.129c-1.113,0-2.142,0.693-2.646,1.68c-0.126,0.21-0.21,0.484-0.21,0.82
					c0.042,2.246,1.071,3.906,3.003,3.906H158.733L158.733,221.023z"/>
			</g>
			<g enable-background="new    ">
				<path d="M165.475,207.309h1.848v6.342h0.042c0.294-0.525,0.756-0.986,1.323-1.301c0.547-0.313,1.198-0.525,1.891-0.525
					c1.367,0,3.551,0.84,3.551,4.349v6.05h-1.849v-5.842c0-1.637-0.608-3.023-2.352-3.023c-1.197,0-2.142,0.84-2.479,1.849
					c-0.105,0.253-0.126,0.524-0.126,0.882v6.135h-1.848L165.475,207.309L165.475,207.309z"/>
			</g>
			<g enable-background="new    ">
				<path d="M179.274,209.617v2.438h2.646v1.407h-2.646v5.481c0,1.26,0.357,1.976,1.386,1.976c0.504,0,0.798-0.043,1.071-0.127
					l0.083,1.386c-0.356,0.147-0.924,0.273-1.638,0.273c-0.861,0-1.554-0.293-1.995-0.799c-0.524-0.547-0.714-1.448-0.714-2.646
					v-5.546h-1.576v-1.406h1.576v-1.869L179.274,209.617z"/>
				<path d="M182.845,221.148l4.599-5.985c0.441-0.546,0.862-1.031,1.323-1.578v-0.041h-5.503v-1.489h7.751l-0.021,1.154l-4.536,5.9
					c-0.42,0.567-0.84,1.072-1.303,1.598v0.043h5.944v1.47h-8.255L182.845,221.148L182.845,221.148L182.845,221.148z"/>
			</g>
		</g>
		<g id="Layer_5_1_">
			<g enable-background="new    ">
				<path d="M214.534,139.079c-2.457-1.16-3.515-3.072-3.515-4.983c0-3.515,2.969-5.904,6.86-5.904c4.3,0,6.451,2.695,6.451,5.46
					c0,1.878-0.921,3.892-3.652,5.188v0.104c2.765,1.093,4.471,3.037,4.471,5.734c0,3.855-3.311,6.45-7.543,6.45
					c-4.642,0-7.44-2.767-7.44-6.009c0-2.799,1.673-4.776,4.403-5.938L214.534,139.079z M222.111,144.984
					c0-2.696-1.877-3.994-4.88-4.849c-2.594,0.751-3.994,2.459-3.994,4.574c-0.103,2.252,1.604,4.231,4.438,4.231
					C220.371,148.943,222.111,147.236,222.111,144.984z M213.852,133.89c0,2.219,1.672,3.413,4.232,4.096
					c1.911-0.646,3.379-2.014,3.379-4.026c0-1.774-1.058-3.619-3.754-3.619C215.217,130.341,213.852,131.979,213.852,133.89z"/>
				<path d="M232.042,139.079c-2.457-1.16-3.515-3.072-3.515-4.983c0-3.515,2.969-5.904,6.86-5.904c4.3,0,6.45,2.695,6.45,5.46
					c0,1.878-0.921,3.892-3.651,5.188v0.104c2.765,1.093,4.471,3.037,4.471,5.734c0,3.855-3.31,6.45-7.543,6.45
					c-4.642,0-7.44-2.767-7.44-6.009c0-2.799,1.673-4.776,4.403-5.938L232.042,139.079z M239.619,144.984
					c0-2.696-1.877-3.994-4.881-4.849c-2.594,0.751-3.994,2.459-3.994,4.574c-0.103,2.252,1.604,4.231,4.437,4.231
					C237.879,148.943,239.619,147.236,239.619,144.984z M231.36,133.89c0,2.219,1.672,3.413,4.231,4.096
					c1.912-0.646,3.379-2.014,3.379-4.026c0-1.774-1.059-3.619-3.755-3.619C232.725,130.341,231.36,131.979,231.36,133.89z"/>
			</g>
			<g enable-background="new    ">
				<path d="M246.411,126.518h3.003v10.308h0.068c0.479-0.854,1.229-1.605,2.15-2.116c0.888-0.513,1.945-0.854,3.071-0.854
					c2.218,0,5.77,1.364,5.77,7.064v9.829h-3.004v-9.488c0-2.661-0.99-4.913-3.822-4.913c-1.946,0-3.482,1.365-4.028,3.004
					c-0.171,0.409-0.204,0.854-0.204,1.434v9.967h-3.003V126.518L246.411,126.518z"/>
			</g>
			<g enable-background="new    ">
				<path d="M268.832,130.274v3.958h4.301v2.286h-4.301v8.908c0,2.049,0.581,3.209,2.253,3.209c0.819,0,1.297-0.068,1.741-0.205
					l0.136,2.254c-0.58,0.238-1.502,0.443-2.662,0.443c-1.401,0-2.524-0.479-3.243-1.297c-0.854-0.889-1.16-2.355-1.16-4.301v-9.012
					h-2.56v-2.287h2.56v-3.038L268.832,130.274z"/>
				<path d="M274.635,149.012l7.475-9.727c0.718-0.889,1.399-1.676,2.15-2.562v-0.067h-8.941v-2.423h12.594l-0.034,1.877
					l-7.372,9.592c-0.683,0.921-1.365,1.738-2.115,2.593v0.067h9.658v2.391h-13.412v-1.74H274.635z"/>
			</g>
		</g>
		<g enable-background="new    ">
			<path d="M62.511,105.541h-0.077l-4.352,2.349l-0.655-2.58l5.469-2.927h2.888v25.032h-3.273V105.541z"/>
			<path d="M82.264,105.541h-0.077l-4.352,2.349l-0.654-2.58l5.469-2.927h2.888v25.032h-3.273L82.264,105.541L82.264,105.541z"/>
			<path d="M111.297,114.629c0,8.511-3.158,13.21-8.704,13.21c-4.891,0-8.203-4.583-8.28-12.862c0-8.397,3.62-13.016,8.705-13.016
				C108.294,101.959,111.297,106.657,111.297,114.629z M97.703,115.015c0,6.509,2.003,10.205,5.084,10.205
				c3.465,0,5.123-4.043,5.123-10.436c0-6.161-1.58-10.206-5.084-10.206C99.86,104.577,97.703,108.199,97.703,115.015z"/>
		</g>
		<g enable-background="new    ">
			<path d="M115.492,100.073h3.389v11.629h0.078c0.539-0.963,1.386-1.809,2.426-2.387c1.002-0.577,2.195-0.964,3.466-0.964
				c2.503,0,6.508,1.541,6.508,7.971v11.091h-3.389v-10.705c0-3.004-1.117-5.546-4.314-5.546c-2.195,0-3.928,1.541-4.544,3.389
				c-0.193,0.462-0.231,0.963-0.231,1.619v11.245h-3.389V100.073L115.492,100.073z"/>
		</g>
		<g enable-background="new    ">
			<path d="M140.79,104.309v4.467h4.853v2.58h-4.853v10.051c0,2.312,0.655,3.62,2.542,3.62c0.924,0,1.463-0.077,1.964-0.23
				l0.154,2.541c-0.655,0.27-1.695,0.5-3.004,0.5c-1.58,0-2.85-0.539-3.66-1.463c-0.963-1.001-1.309-2.657-1.309-4.853v-10.167
				h-2.889v-2.58h2.889v-3.427L140.79,104.309z"/>
			<path d="M147.335,125.451l8.435-10.976c0.809-1.002,1.579-1.887,2.426-2.89v-0.076h-10.091v-2.734h14.21l-0.038,2.117
				l-8.318,10.822c-0.77,1.04-1.541,1.964-2.389,2.928v0.077h10.899v2.696h-15.134V125.451z"/>
		</g>
		<g enable-background="new    ">
			<path d="M107.242,141.426c-0.766,1.027-1.323,2.393-1.323,4.293c0,1.867,0.578,3.211,1.323,4.262h-0.724
				c-0.661-0.871-1.375-2.217-1.375-4.262c0.01-2.068,0.713-3.412,1.375-4.293H107.242z"/>
			<path d="M112,142.663h-2.604l-0.263,1.754c0.158-0.021,0.305-0.043,0.557-0.043c0.525,0,1.049,0.116,1.469,0.368
				c0.535,0.304,0.976,0.892,0.976,1.753c0,1.332-1.06,2.329-2.539,2.329c-0.746,0-1.375-0.209-1.701-0.42l0.23-0.701
				c0.284,0.167,0.839,0.377,1.459,0.377c0.872,0,1.617-0.566,1.617-1.48c-0.01-0.881-0.599-1.51-1.963-1.51
				c-0.388,0-0.693,0.042-0.944,0.073l0.441-3.274h3.264L112,142.663L112,142.663z"/>
			<path d="M117.386,142.663h-2.604l-0.262,1.754c0.158-0.021,0.305-0.043,0.557-0.043c0.524,0,1.049,0.116,1.469,0.368
				c0.535,0.304,0.976,0.892,0.976,1.753c0,1.332-1.059,2.329-2.54,2.329c-0.745,0-1.374-0.209-1.7-0.42l0.231-0.701
				c0.283,0.167,0.839,0.377,1.459,0.377c0.872,0,1.616-0.566,1.616-1.48c-0.011-0.881-0.599-1.51-1.963-1.51
				c-0.388,0-0.693,0.042-0.945,0.073l0.441-3.274h3.264L117.386,142.663L117.386,142.663z"/>
		</g>
		<g enable-background="new    ">
			<path d="M118.995,141.257h0.924v3.169h0.021c0.147-0.262,0.378-0.49,0.661-0.648c0.273-0.157,0.599-0.264,0.946-0.264
				c0.681,0,1.773,0.42,1.773,2.172v3.023h-0.925v-2.918c0-0.818-0.305-1.514-1.175-1.514c-0.599,0-1.07,0.421-1.238,0.926
				c-0.053,0.126-0.063,0.262-0.063,0.441v3.063h-0.924V141.257z"/>
		</g>
		<g enable-background="new    ">
			<path d="M125.894,142.411v1.218h1.322v0.704h-1.322v2.739c0,0.631,0.178,0.986,0.693,0.986c0.252,0,0.399-0.021,0.535-0.062
				l0.042,0.69c-0.179,0.073-0.462,0.138-0.819,0.138c-0.431,0-0.777-0.146-0.998-0.399c-0.262-0.271-0.357-0.723-0.357-1.322
				v-2.771h-0.787v-0.704h0.787v-0.934L125.894,142.411z"/>
			<path d="M127.68,148.174l2.298-2.99c0.221-0.271,0.431-0.516,0.662-0.787v-0.021h-2.751v-0.746h3.874l-0.011,0.578l-2.267,2.947
				c-0.21,0.283-0.42,0.537-0.651,0.799v0.021h2.97v0.734h-4.124V148.174z"/>
			<path d="M132.195,149.979c0.746-1.039,1.323-2.401,1.323-4.293c0-1.877-0.566-3.222-1.323-4.261h0.713
				c0.672,0.86,1.375,2.203,1.375,4.271c0,2.059-0.703,3.391-1.375,4.283H132.195L132.195,149.979z"/>
		</g>
		<g>
			<path d="M156.66,234.49c0.25,0.16,0.83,0.41,1.439,0.41c1.129,0,1.479-0.72,1.469-1.26c-0.01-0.909-0.83-1.299-1.679-1.299h-0.49
				v-0.66h0.49c0.64,0,1.449-0.329,1.449-1.099c0-0.521-0.33-0.979-1.14-0.979c-0.52,0-1.02,0.229-1.299,0.43l-0.23-0.64
				c0.34-0.25,1-0.5,1.699-0.5c1.279,0,1.859,0.76,1.859,1.549c0,0.67-0.399,1.239-1.199,1.529v0.021
				c0.8,0.159,1.449,0.76,1.449,1.669c0,1.039-0.81,1.949-2.369,1.949c-0.729,0-1.369-0.23-1.689-0.44L156.66,234.49z"/>
			<path d="M161.79,234.49c0.25,0.16,0.83,0.41,1.439,0.41c1.129,0,1.479-0.72,1.469-1.26c-0.01-0.909-0.83-1.299-1.679-1.299h-0.49
				v-0.66h0.49c0.64,0,1.449-0.329,1.449-1.099c0-0.521-0.33-0.979-1.14-0.979c-0.52,0-1.02,0.229-1.299,0.43l-0.23-0.64
				c0.34-0.25,1-0.5,1.699-0.5c1.279,0,1.859,0.76,1.859,1.549c0,0.67-0.399,1.239-1.199,1.529v0.021
				c0.8,0.159,1.449,0.76,1.449,1.669c0,1.039-0.81,1.949-2.369,1.949c-0.729,0-1.369-0.23-1.689-0.44L161.79,234.49z"/>
			<path d="M166.989,228.404h0.879v3.018h0.02c0.14-0.249,0.36-0.47,0.63-0.619c0.26-0.15,0.57-0.25,0.899-0.25
				c0.65,0,1.689,0.399,1.689,2.068v2.879h-0.879v-2.778c0-0.779-0.29-1.439-1.119-1.439c-0.57,0-1.02,0.399-1.18,0.88
				c-0.05,0.12-0.06,0.25-0.06,0.42v2.918h-0.879V228.404z"/>
			<path d="M173.559,229.503v1.16h1.259v0.669h-1.259v2.608c0,0.601,0.17,0.939,0.66,0.939c0.24,0,0.38-0.02,0.51-0.06l0.04,0.66
				c-0.17,0.069-0.44,0.13-0.78,0.13c-0.41,0-0.74-0.141-0.949-0.38c-0.25-0.26-0.34-0.689-0.34-1.26v-2.639h-0.75v-0.669h0.75
				v-0.89L173.559,229.503z"/>
			<path d="M175.259,234.99l2.189-2.849c0.21-0.26,0.41-0.489,0.63-0.749v-0.021h-2.619v-0.709h3.688l-0.01,0.549l-2.159,2.809
				c-0.2,0.271-0.4,0.51-0.62,0.76v0.021h2.829v0.699h-3.928V234.99z"/>
		</g>
		<g>
			<path d="M231.666,165.677c-0.875,1.175-1.511,2.734-1.511,4.905c0,2.135,0.66,3.67,1.511,4.869h-0.827
				c-0.756-0.995-1.571-2.53-1.571-4.869c0.012-2.363,0.815-3.898,1.571-4.905H231.666z"/>
			<path d="M235.71,174v-2.123h-3.622v-0.695l3.479-4.978h1.139v4.846h1.091v0.827h-1.091V174H235.71z M235.71,171.05v-2.603
				c0-0.408,0.012-0.815,0.036-1.224h-0.036c-0.24,0.456-0.432,0.792-0.647,1.151l-1.907,2.65v0.024H235.71z"/>
			<path d="M241.866,174v-2.123h-3.622v-0.695l3.479-4.978h1.139v4.846h1.091v0.827h-1.091V174H241.866z M241.866,171.05v-2.603
				c0-0.408,0.012-0.815,0.036-1.224h-0.036c-0.24,0.456-0.432,0.792-0.647,1.151l-1.907,2.65v0.024H241.866z"/>
			<path d="M245.095,165.484h1.056v3.622h0.024c0.168-0.3,0.432-0.563,0.755-0.743c0.312-0.18,0.684-0.3,1.08-0.3
				c0.779,0,2.027,0.479,2.027,2.482V174h-1.056v-3.334c0-0.936-0.348-1.728-1.343-1.728c-0.684,0-1.223,0.48-1.415,1.056
				c-0.06,0.144-0.072,0.3-0.072,0.504V174h-1.056V165.484z"/>
			<path d="M252.979,166.804v1.392h1.512v0.804h-1.512v3.13c0,0.72,0.203,1.128,0.791,1.128c0.288,0,0.456-0.024,0.612-0.072
				l0.048,0.791c-0.204,0.084-0.527,0.156-0.936,0.156c-0.492,0-0.888-0.168-1.14-0.456c-0.3-0.312-0.407-0.827-0.407-1.511v-3.166
				h-0.9v-0.804h0.9v-1.067L252.979,166.804z"/>
			<path d="M255.02,173.389l2.627-3.418c0.252-0.312,0.491-0.588,0.755-0.9v-0.023h-3.142v-0.852h4.425l-0.012,0.659l-2.591,3.37
				c-0.239,0.324-0.479,0.612-0.743,0.912v0.023h3.395V174h-4.714V173.389z"/>
			<path d="M260.18,175.451c0.852-1.188,1.511-2.746,1.511-4.905c0-2.146-0.647-3.682-1.511-4.869h0.815
				c0.768,0.983,1.571,2.519,1.571,4.881c0,2.351-0.804,3.874-1.571,4.894H260.18z"/>
		</g>
	</g>
</g>
<g id="Layer_2">
	<g id="Layer_1_4_">
		<g id="Layer_1_2_">
		</g>
		<g id="Layer_2_1_">
			<g id="Layer_2_3_">
				<g>
					<path d="M-540.501-346.877v-1.044h462.474v1.044H-540.501z M-540.501-332.875v-1.152h462.474v1.152H-540.501z M-540.501-318.98
						v-1.043h462.474v1.043H-540.501z M-540.501-305.086v-1.044h462.474v1.044H-540.501z M-540.501-291.191v-1.041h462.474v1.041
						H-540.501z"/>
					<path fill="#F200FF" d="M-515.031-292.729c-11.312-5.39-13.125-12.309-13.619-19.395c-0.55-7.688,4.339-15.479,8.896-19.818
						c2.636-2.478,5.492-4.894,8.898-7.475c-0.111-1.922-0.55-2.688-0.77-5.438c-0.055-1.149-0.769-6.531,0.384-12.737
						c0.714-3.685,5.328-12.354,8.513-12.413c2.472-0.059,6.261,9.832,6.372,14.771c0.164,7.637-1.647,11.098-3.9,15.047
						c-1.153,1.979-2.361,3.354-3.625,4.894c-1.317,1.592-2.8,2.521-4.173,3.729c0,0,1.758,9.938,1.812,10.651
						c3.515-0.438,7.798,0.821,9.337,1.925c3.898,2.907,5.381,6.92,5.656,10.815c0.495,6.205-2.911,12.741-10.435,15.872
						c0,0,1.153,7.907,1.428,9.556c0.604,4.336,0.495,7.084-0.439,8.84c-1.592,2.974-4.173,5.716-9.171,6.045
						c-3.845,0.224-11.424-1.695-11.808-7.739c-0.221-3.57,1.373-7.413,5.71-7.688c2.636-0.22,5.767,1.979,5.986,5.106
						c0.22,2.688-1.537,5.488-6.095,6.756c0.714,0.989,2.855,2.146,5.931,2.146c3.185,0,6.479-2.146,8.073-4.998
						c0.989-1.86,0.878-5.219,0.495-8.293c-0.166-1.045-1.483-9.336-1.483-9.336C-507.122-291.245-512.725-291.631-515.031-292.729z
						 M-513.933-305.744c0.109,2.635,2.306,5.712,4.337,6.754c-0.273,0.166-0.548,0.605-0.548,0.605
						c-2.253-1.104-4.175-2.91-4.669-3.57c-1.592-2.14-2.251-3.35-2.471-6.59c-0.219-3.021,1.428-7.083,5.107-9.939
						c1.922-1.429,2.854-1.759,4.503-2.143l-1.647-9.939c-1.703,0.986-8.732,6.646-11.697,11.258
						c-2.636,4.119-4.229,7.414-3.9,11.479c0.659,9.172,10.709,16.696,21.583,14.115c0,0-3.24-19.497-3.187-19.497
						C-512.505-312.995-514.098-308.38-513.933-305.744z M-509.483-340.561c4.778-3.734,11.258-10.771,10.874-16.203
						c-0.109-1.7-0.823-4.776-3.295-4.723C-507.562-361.432-510.749-349.625-509.483-340.561z M-502.015-294.156
						c6.317-2.142,6.592-7.578,6.372-10.812c-0.221-2.689-1.428-8.732-9.448-8.354L-502.015-294.156z"/>
					<g>
						<path fill="#00FF18" d="M-436.6-291.262c4.669,0.055,7.25,3.242,5.767,7.14c-1.428,3.955-6.371,7.086-10.984,7.029
							c-4.612-0.052-7.193-3.296-5.712-7.191C-446.101-288.186-441.212-291.314-436.6-291.262z"/>
						<g>
							<path d="M-450.148-262.113h11.524c1.709,0,3.163,0.312,4.359,0.905c1.488,0.763,2.752,2.036,3.793,3.815
								c1.039,1.774,1.562,3.887,1.562,6.312c0,2.02-0.313,3.825-0.935,5.438c-0.473,1.231-1.2,2.313-2.181,3.241
								c-0.98,0.928-2.174,1.613-3.582,2.078c-1.056,0.347-2.464,0.521-4.224,0.521h-10.316v-1.126h2.117
								c0.537,0,0.905-0.085,1.113-0.253c0.208-0.177,0.31-0.439,0.31-0.81v-17.97c0-0.312-0.11-0.562-0.332-0.748
								c-0.225-0.187-0.531-0.276-0.923-0.276h-2.285V-262.113z M-442.088-260.984c-0.454,0-0.788,0.103-1.006,0.287
								c-0.216,0.188-0.323,0.479-0.323,0.859v17.811c0,0.36,0.125,0.644,0.377,0.819c0.251,0.187,0.681,0.28,1.284,0.28h1.904
								c1.703,0,3.191-0.438,4.471-1.312c0.836-0.584,1.47-1.397,1.904-2.463c0.593-1.428,0.892-3.396,0.892-5.915
								c0-3.724-0.649-6.45-1.949-8.18c-1.108-1.461-2.781-2.188-5.017-2.188h-2.537V-260.984z"/>
						</g>
					</g>
					<g>
						<path fill="#0C00FF" d="M-402.874-298.209c4.667,0.057,7.249,3.24,5.765,7.141c-1.426,3.953-6.37,7.084-10.982,7.03
							c-4.614-0.055-7.195-3.295-5.712-7.192C-412.375-295.133-407.488-298.264-402.874-298.209z"/>
						<g>
							<path d="M-414.599-262.113h17.672l0.429,7.536h-1.019c-0.402-2.378-1.039-4.04-1.909-4.979
								c-0.87-0.946-2.003-1.427-3.399-1.427h-4.374c-0.352,0-0.617,0.104-0.8,0.287c-0.181,0.189-0.271,0.481-0.271,0.875v7.955
								h1.916c1.027,0,1.857-0.367,2.495-1.101c0.639-0.731,0.984-1.859,1.034-3.377h1.044v10.325h-1.044
								c-0.05-1.707-0.4-2.935-1.049-3.666c-0.649-0.741-1.532-1.109-2.646-1.109h-1.75v8.873c0,0.322,0.109,0.568,0.325,0.742
								c0.216,0.171,0.575,0.253,1.078,0.253h3.454c3.753,0,5.913-2.396,6.486-7.188h1.1l-0.377,8.312H-414.6v-1.126h1.523
								c0.593,0,1.011-0.104,1.252-0.312c0.24-0.207,0.362-0.505,0.362-0.896v-17.688c0-0.395-0.107-0.685-0.318-0.875
								c-0.211-0.188-0.541-0.287-0.996-0.287h-1.823L-414.599-262.113L-414.599-262.113z"/>
						</g>
					</g>
					<g>
						<path fill="#8F00FF" d="M-368.809-305.156c4.669,0.062,7.25,3.241,5.767,7.146c-1.428,3.95-6.371,7.084-10.984,7.021
							c-4.612-0.054-7.193-3.296-5.712-7.188C-378.312-302.081-373.421-305.21-368.809-305.156z"/>
						<g>
							<path d="M-380.085-262.113h18.153l0.297,7.729h-1.046c-0.466-2.654-1.115-4.394-1.951-5.19
								c-0.958-0.937-2.324-1.396-4.099-1.396h-3.583c-0.354,0-0.608,0.08-0.772,0.246c-0.161,0.165-0.242,0.409-0.242,0.743v8.047
								h1.919c1.067,0,1.919-0.354,2.552-1.061c0.634-0.706,0.976-1.79,1.027-3.26h1.1v10.083h-1.1
								c-0.07-1.668-0.412-2.855-1.027-3.57c-0.613-0.712-1.466-1.062-2.552-1.062h-1.919v8.521c0,0.503,0.121,0.858,0.362,1.063
								c0.241,0.209,0.66,0.312,1.253,0.312h2.325v1.123h-10.698v-1.127h2.288c0.461,0,0.79-0.093,0.984-0.277
								c0.196-0.186,0.293-0.489,0.293-0.91v-17.762c0-0.396-0.103-0.688-0.309-0.854c-0.206-0.177-0.565-0.259-1.076-0.259h-2.181
								L-380.085-262.113L-380.085-262.113z"/>
						</g>
					</g>
					<g>
						<g>
							<path fill="#EC06F9" d="M-337.35-313.082c6.096,0.055,11.863,2.361,12.303,7.471c0.33,3.735-4.613,7.144-10.71,7.144
								c-6.151-0.06-11.861-2.312-12.354-7.41C-348.441-309.678-343.448-313.082-337.35-313.082z M-335.869-299.736
								c2.637,0,4.34-2.522,4.064-4.559c-0.605-4.01-1.979-7.25-5.604-7.25c-2.637,0-4.173,2.581-3.843,4.611
								C-340.645-302.922-339.491-299.736-335.869-299.736z"/>
						</g>
						<g>
							<path d="M-331.24-260.886l1.229-2.229h1.021l0.562,8.902h-0.991c-0.751-2.562-1.64-4.416-2.66-5.562
								c-1.302-1.463-2.795-2.188-4.479-2.188c-1.291,0-2.449,0.367-3.471,1.104c-1.023,0.729-1.809,1.832-2.354,3.301
								c-0.547,1.465-0.819,3.524-0.819,6.188c0,2.582,0.272,4.604,0.821,6.061c0.546,1.45,1.302,2.522,2.264,3.219
								c0.965,0.686,2.096,1.022,3.391,1.022c1.756,0,3.114-0.485,4.074-1.475c0.959-0.982,1.438-2.254,1.438-3.812v-2.095
								c0-0.332-0.13-0.588-0.386-0.769c-0.258-0.184-0.68-0.271-1.262-0.271h-1.893v-1.045h9.357v1.045h-1.268
								c-0.564,0-0.969,0.104-1.211,0.295c-0.242,0.193-0.361,0.479-0.361,0.854v8.532h-0.992c-0.359-1.327-0.737-2.604-1.129-3.821
								c-0.754,1.237-1.649,2.165-2.691,2.784c-1.04,0.612-2.219,0.928-3.537,0.928c-1.88,0-3.624-0.479-5.227-1.446
								c-1.604-0.967-2.871-2.317-3.801-4.08c-0.93-1.754-1.396-3.729-1.396-5.942c0-2.229,0.468-4.214,1.401-5.979
								c0.934-1.759,2.211-3.15,3.832-4.188c1.623-1.037,3.262-1.559,4.92-1.559c0.942,0,1.844,0.157,2.705,0.479
								C-333.3-262.314-332.328-261.732-331.24-260.886z"/>
						</g>
					</g>
					<g>
						<path fill="#F70303" d="M-299.688-319.048c4.668,0.054,7.25,3.239,5.764,7.138c-1.43,3.956-6.369,7.086-10.98,7.031
							c-4.613-0.055-7.193-3.295-5.711-7.195C-309.188-315.973-304.303-319.105-299.688-319.048z"/>
						<g>
							<path d="M-302.626-262.566h1.056l7.993,20.404c0.323,0.821,0.979,1.235,1.976,1.235h0.695v1.126h-8.904v-1.126h0.711
								c0.93,0,1.578-0.104,1.969-0.309c0.259-0.143,0.395-0.354,0.395-0.646c0-0.172-0.033-0.354-0.105-0.543l-1.844-4.73h-8.812
								l-1.052,2.718c-0.273,0.726-0.409,1.301-0.409,1.719c0,0.491,0.229,0.916,0.688,1.266c0.459,0.354,1.125,0.526,2.002,0.526
								h0.754v1.128h-8.099v-1.126c0.867,0,1.554-0.188,2.06-0.562c0.502-0.379,0.965-1.095,1.391-2.146L-302.626-262.566z
								 M-303.041-258.279l-3.996,9.951h7.877L-303.041-258.279z"/>
						</g>
					</g>
					<g>
						<path fill="#F76806" d="M-265.636-325.995c4.67,0.054,7.251,3.24,5.766,7.138c-1.428,3.955-6.372,7.084-10.979,7.031
							c-4.61-0.056-7.193-3.295-5.717-7.195C-275.135-322.92-270.248-326.05-265.636-325.995z"/>
						<g>
							<path d="M-277.896-262.113h11.614c2.279,0,4.025,0.504,5.235,1.508c1.211,1.013,1.814,2.271,1.814,3.783
								c0,1.271-0.422,2.34-1.268,3.229c-0.846,0.886-2.111,1.582-3.812,2.096c2.104,0.441,3.682,1.141,4.734,2.093
								c1.052,0.952,1.579,2.152,1.579,3.604c0,1.104-0.302,2.089-0.896,2.938c-0.601,0.856-1.595,1.581-2.98,2.179
								c-1.395,0.601-2.971,0.896-4.742,0.896h-11.273v-1.127h1.84c0.553,0,0.96-0.091,1.213-0.271
								c0.255-0.181,0.384-0.39,0.384-0.609v-17.896c0-0.424-0.124-0.738-0.377-0.959c-0.25-0.219-0.612-0.317-1.103-0.317h-1.961
								L-277.896-262.113L-277.896-262.113z M-271.273-251.87h4.237c1.302,0,2.336-0.38,3.108-1.14
								c0.771-0.76,1.156-2.01,1.156-3.742c0-1.07-0.188-1.906-0.549-2.507c-0.369-0.604-0.9-1.038-1.606-1.317
								c-0.7-0.271-1.91-0.41-3.638-0.41c-1.224,0-1.978,0.086-2.271,0.267c-0.292,0.179-0.438,0.479-0.438,0.926L-271.273-251.87
								L-271.273-251.87L-271.273-251.87z M-271.273-250.743v8.608c0,0.396,0.117,0.703,0.355,0.897
								c0.238,0.201,0.664,0.308,1.277,0.308h2.707c1.793,0,3.113-0.396,3.972-1.188s1.282-2.021,1.282-3.688
								c0-1.529-0.441-2.734-1.324-3.615c-0.891-0.881-2.111-1.322-3.676-1.322H-271.273L-271.273-250.743z"/>
						</g>
					</g>
					<g>
						<path fill="#F7F006" d="M-231.375-333.503c4.67,0.053,7.252,3.239,5.766,7.138c-1.428,3.956-6.365,7.084-10.979,7.031
							c-4.612-0.055-7.188-3.295-5.708-7.195C-240.879-330.428-235.986-333.559-231.375-333.503z"/>
						<g>
							<path d="M-227.255-260.92l1.021-2.157h0.938l0.429,8.981h-1.02c-0.663-2.541-1.494-4.416-2.497-5.62
								c-1.243-1.511-2.729-2.27-4.454-2.27c-1.867,0-3.389,0.843-4.562,2.516c-1.175,1.672-1.756,4.503-1.756,8.493
								c0,3.354,0.676,5.905,2.021,7.679c1.146,1.491,2.752,2.229,4.816,2.229c1.811,0,3.325-0.573,4.549-1.734
								c1.227-1.162,2.022-2.914,2.396-5.266h1.072c-0.312,2.653-1.225,4.69-2.729,6.119c-1.509,1.435-3.41,2.146-5.699,2.146
								c-1.855,0-3.562-0.474-5.112-1.401c-1.556-0.938-2.796-2.278-3.728-4.034c-0.93-1.757-1.396-3.681-1.396-5.769
								c0-2.229,0.479-4.312,1.438-6.264c0.963-1.943,2.188-3.409,3.688-4.396c1.495-0.979,3.104-1.468,4.835-1.468
								c0.964,0,1.896,0.169,2.805,0.502C-229.3-262.299-228.316-261.723-227.255-260.92z"/>
						</g>
					</g>
					<g>
						<path fill="#00FF00" d="M-196.38-339.893c4.666,0.056,7.247,3.242,5.762,7.14c-1.426,3.954-6.372,7.084-10.979,7.028
							c-4.613-0.053-7.192-3.295-5.711-7.192C-205.883-336.816-200.996-339.948-196.38-339.893z"/>
						<g>
							<path d="M-209.932-262.115h11.521c1.708,0,3.164,0.31,4.361,0.905c1.483,0.763,2.753,2.037,3.792,3.815
								c1.039,1.771,1.559,3.888,1.559,6.312c0,2.02-0.312,3.825-0.935,5.438c-0.474,1.231-1.198,2.313-2.185,3.243
								c-0.979,0.925-2.178,1.611-3.584,2.076c-1.055,0.349-2.466,0.521-4.224,0.521h-10.319v-1.126h2.118
								c0.535,0,0.903-0.085,1.111-0.255c0.204-0.181,0.309-0.438,0.309-0.806v-17.971c0-0.312-0.104-0.559-0.329-0.746
								c-0.224-0.186-0.527-0.279-0.925-0.279h-2.284L-209.932-262.115L-209.932-262.115z M-201.87-260.986
								c-0.456,0-0.788,0.103-1.006,0.286c-0.217,0.188-0.323,0.479-0.323,0.86v17.809c0,0.361,0.125,0.646,0.379,0.821
								c0.252,0.187,0.685,0.28,1.283,0.28h1.902c1.703,0,3.188-0.438,4.474-1.312c0.834-0.584,1.466-1.404,1.897-2.463
								c0.598-1.428,0.896-3.398,0.896-5.914c0-3.724-0.646-6.451-1.948-8.181c-1.104-1.461-2.777-2.188-5.019-2.188
								L-201.87-260.986L-201.87-260.986z"/>
						</g>
					</g>
					<g>
						<path fill="#1206FF" d="M-162.657-346.838c4.667,0.056,7.248,3.24,5.771,7.14c-1.434,3.954-6.371,7.085-10.985,7.029
							c-4.612-0.056-7.188-3.295-5.71-7.192C-172.16-343.762-167.271-346.893-162.657-346.838z"/>
						<g>
							<path d="M-174.383-262.113h17.674l0.43,7.536h-1.021c-0.4-2.378-1.036-4.04-1.907-4.979c-0.87-0.946-2.001-1.427-3.397-1.427
								h-4.369c-0.354,0-0.619,0.104-0.807,0.287c-0.181,0.189-0.27,0.481-0.27,0.875v7.955h1.914c1.023,0,1.854-0.367,2.494-1.101
								c0.64-0.731,0.979-1.859,1.031-3.377h1.043v10.325h-1.043c-0.051-1.707-0.396-2.935-1.048-3.666
								c-0.646-0.741-1.532-1.109-2.646-1.109h-1.748v8.873c0,0.322,0.104,0.568,0.32,0.742c0.221,0.171,0.575,0.253,1.078,0.253
								h3.455c3.751,0,5.911-2.396,6.484-7.188h1.102l-0.379,8.312h-18.396v-1.126h1.523c0.598,0,1.014-0.104,1.25-0.312
								c0.241-0.207,0.362-0.505,0.362-0.896v-17.688c0-0.395-0.104-0.685-0.315-0.875c-0.213-0.188-0.543-0.287-0.992-0.287h-1.825
								L-174.383-262.113L-174.383-262.113z"/>
						</g>
					</g>
					<g>
						<path fill="#6C00F9" d="M-128.596-353.785c4.669,0.055,7.25,3.24,5.767,7.141c-1.428,3.953-6.372,7.084-10.983,7.028
							c-4.608-0.056-7.188-3.295-5.711-7.192C-138.096-350.71-133.209-353.84-128.596-353.785z"/>
						<g>
							<path d="M-139.869-262.113h18.154l0.295,7.729h-1.046c-0.462-2.654-1.111-4.394-1.95-5.19
								c-0.961-0.937-2.325-1.396-4.098-1.396h-3.588c-0.354,0-0.607,0.08-0.771,0.246s-0.243,0.409-0.243,0.743v8.047h1.918
								c1.065,0,1.918-0.354,2.555-1.061c0.634-0.706,0.975-1.79,1.021-3.26h1.104v10.083h-1.104
								c-0.07-1.668-0.408-2.855-1.021-3.57c-0.609-0.712-1.471-1.062-2.555-1.062h-1.918v8.521c0,0.503,0.117,0.858,0.362,1.063
								c0.243,0.209,0.662,0.312,1.252,0.312h2.324v1.123h-10.697v-1.127h2.289c0.463,0,0.788-0.093,0.985-0.277
								c0.188-0.186,0.291-0.489,0.291-0.91v-17.762c0-0.396-0.104-0.688-0.312-0.854c-0.204-0.177-0.562-0.259-1.075-0.259h-2.181
								v-1.127h0.003v-0.004h0.004v-0.008H-139.869z"/>
						</g>
					</g>
					<g>
						<path fill="#EC00FF" d="M-94.16-361.27c4.668,0.055,7.249,3.24,5.77,7.14c-1.432,3.954-6.369,7.084-10.983,7.028
							c-4.612-0.053-7.19-3.295-5.71-7.192C-103.664-358.193-98.775-361.325-94.16-361.27z"/>
						<g>
							<path d="M-91.4-260.886l1.229-2.229h1.02l0.562,8.902h-0.992c-0.752-2.562-1.636-4.416-2.659-5.562
								c-1.303-1.463-2.796-2.188-4.479-2.188c-1.291,0-2.451,0.367-3.473,1.104c-1.021,0.729-1.809,1.832-2.354,3.301
								c-0.545,1.465-0.821,3.524-0.821,6.188c0,2.582,0.272,4.604,0.823,6.061c0.544,1.45,1.302,2.522,2.264,3.219
								c0.965,0.686,2.1,1.022,3.395,1.022c1.756,0,3.109-0.485,4.07-1.475c0.959-0.982,1.438-2.254,1.438-3.812v-2.095
								c0-0.332-0.126-0.588-0.387-0.769c-0.256-0.184-0.684-0.271-1.266-0.271h-1.894v-1.045h9.356v1.045h-1.27
								c-0.562,0-0.969,0.104-1.211,0.295c-0.244,0.193-0.363,0.479-0.363,0.854v8.532H-89.4c-0.359-1.327-0.736-2.604-1.129-3.821
								c-0.754,1.237-1.647,2.165-2.688,2.784c-1.039,0.612-2.221,0.928-3.539,0.928c-1.881,0-3.62-0.479-5.229-1.446
								c-1.604-0.967-2.869-2.317-3.804-4.08c-0.93-1.754-1.396-3.729-1.396-5.942c0-2.229,0.467-4.214,1.396-5.979
								c0.938-1.759,2.214-3.15,3.835-4.188c1.617-1.037,3.262-1.559,4.914-1.559c0.947,0,1.85,0.157,2.705,0.479
								C-93.457-262.314-92.486-261.732-91.4-260.886z"/>
						</g>
					</g>
					<g>
						<path fill="#F7E608" d="M-471.589-281.73c4.667,0.062,7.249,3.24,5.766,7.146c-1.428,3.957-6.371,7.088-10.984,7.022
							c-4.614-0.054-7.192-3.295-5.71-7.188C-481.092-278.652-476.203-281.786-471.589-281.73z"/>
						<g>
							<path d="M-467.47-260.92l1.021-2.157h0.938l0.429,8.981h-1.019c-0.666-2.541-1.495-4.416-2.498-5.62
								c-1.247-1.511-2.73-2.27-4.456-2.27c-1.867,0-3.387,0.843-4.561,2.516c-1.175,1.672-1.758,4.503-1.758,8.493
								c0,3.354,0.676,5.905,2.018,7.679c1.146,1.491,2.753,2.229,4.822,2.229c1.809,0,3.325-0.573,4.549-1.734
								c1.223-1.162,2.024-2.914,2.396-5.266h1.073c-0.312,2.653-1.22,4.69-2.729,6.119c-1.508,1.435-3.409,2.146-5.698,2.146
								c-1.86,0-3.565-0.474-5.117-1.401c-1.55-0.938-2.795-2.278-3.724-4.034c-0.929-1.757-1.395-3.681-1.395-5.769
								c0-2.229,0.479-4.312,1.438-6.264c0.96-1.943,2.188-3.409,3.684-4.396c1.494-0.979,3.107-1.468,4.835-1.468
								c0.963,0,1.896,0.169,2.8,0.502C-469.515-262.299-468.532-261.723-467.47-260.92z"/>
						</g>
						<line fill="none" stroke="#000000" x1="-490.206" y1="-274.688" x2="-457.885" y2="-274.688"/>
					</g>
					<g>
						<path d="M-459.159-260.975v0.832h-1.067v2.102h-0.969v-2.102h-3.367v-0.752l3.691-5.271h0.645v5.188h1.067V-260.975z
							 M-461.196-260.975v-3.949l-2.792,3.949H-461.196z"/>
					</g>
					<g>
						<path d="M-116.137-265.995l-0.459,0.997h-2.396l-0.521,1.068c1.037,0.146,1.854,0.535,2.466,1.149
							c0.521,0.529,0.78,1.154,0.78,1.878c0,0.415-0.088,0.811-0.258,1.159c-0.172,0.355-0.387,0.658-0.645,0.908
							c-0.257,0.248-0.545,0.451-0.861,0.604c-0.447,0.216-0.906,0.316-1.385,0.316s-0.824-0.08-1.043-0.243
							c-0.218-0.159-0.322-0.341-0.322-0.534c0-0.105,0.043-0.202,0.139-0.286c0.09-0.085,0.201-0.13,0.34-0.13
							c0.103,0,0.188,0.019,0.265,0.051c0.077,0.024,0.208,0.104,0.396,0.234c0.293,0.201,0.592,0.312,0.893,0.312
							c0.458,0,0.857-0.174,1.204-0.521c0.349-0.347,0.521-0.768,0.521-1.262c0-0.479-0.15-0.93-0.463-1.348
							c-0.311-0.416-0.731-0.739-1.275-0.972c-0.432-0.176-1.012-0.271-1.741-0.308l1.521-3.092h2.854V-266h-0.004v0.003h-0.005
							v0.002H-116.137z"/>
					</g>
					<g>
						<path d="M-150.305-265.995l-0.461,0.997h-2.396l-0.521,1.068c1.035,0.146,1.854,0.535,2.463,1.149
							c0.521,0.529,0.775,1.154,0.775,1.878c0,0.415-0.084,0.811-0.255,1.159c-0.171,0.355-0.384,0.658-0.643,0.908
							c-0.257,0.248-0.543,0.451-0.863,0.604c-0.448,0.216-0.907,0.316-1.384,0.316c-0.479,0-0.823-0.08-1.038-0.243
							c-0.22-0.159-0.326-0.341-0.326-0.534c0-0.105,0.045-0.202,0.14-0.286c0.09-0.085,0.199-0.13,0.338-0.13
							c0.104,0,0.188,0.019,0.268,0.051c0.077,0.021,0.206,0.104,0.391,0.234c0.299,0.201,0.596,0.312,0.896,0.312
							c0.461,0,0.861-0.174,1.207-0.521c0.345-0.347,0.52-0.768,0.52-1.262c0-0.479-0.149-0.93-0.464-1.348
							c-0.311-0.416-0.731-0.739-1.274-0.972c-0.43-0.176-1.012-0.271-1.743-0.308l1.521-3.092L-150.305-265.995L-150.305-265.995
							L-150.305-265.995z"/>
					</g>
					<g>
						<path d="M-184.473-265.995l-0.457,0.997h-2.396l-0.521,1.068c1.037,0.146,1.854,0.535,2.465,1.149
							c0.521,0.529,0.781,1.154,0.781,1.878c0,0.415-0.09,0.811-0.258,1.159c-0.173,0.355-0.388,0.658-0.645,0.908
							c-0.258,0.248-0.544,0.451-0.861,0.604c-0.445,0.216-0.91,0.316-1.386,0.316s-0.823-0.08-1.039-0.243
							c-0.218-0.159-0.327-0.341-0.327-0.534c0-0.105,0.047-0.202,0.141-0.286c0.088-0.085,0.199-0.13,0.341-0.13
							c0.101,0,0.188,0.019,0.267,0.051c0.077,0.024,0.204,0.104,0.395,0.234c0.293,0.201,0.591,0.312,0.893,0.312
							c0.459,0,0.859-0.174,1.205-0.521c0.348-0.347,0.521-0.768,0.521-1.262c0-0.479-0.151-0.93-0.467-1.348
							c-0.309-0.416-0.729-0.739-1.272-0.972c-0.431-0.176-1.013-0.271-1.742-0.308l1.521-3.092h2.854V-266h-0.004v0.003h-0.007
							v0.002H-184.473z"/>
					</g>
					<g>
						<path d="M-218.641-265.995l-0.457,0.997h-2.396l-0.521,1.068c1.039,0.146,1.854,0.535,2.467,1.149
							c0.52,0.529,0.777,1.154,0.777,1.878c0,0.415-0.09,0.811-0.258,1.159c-0.173,0.355-0.386,0.658-0.642,0.908
							c-0.259,0.248-0.547,0.451-0.863,0.604c-0.452,0.216-0.909,0.316-1.386,0.316s-0.823-0.08-1.039-0.243
							c-0.219-0.159-0.325-0.341-0.325-0.534c0-0.105,0.043-0.202,0.136-0.286c0.094-0.085,0.203-0.13,0.342-0.13
							c0.104,0,0.188,0.019,0.268,0.051c0.077,0.024,0.208,0.104,0.391,0.234c0.293,0.201,0.596,0.312,0.896,0.312
							c0.457,0,0.859-0.174,1.203-0.521c0.347-0.347,0.521-0.768,0.521-1.262c0-0.479-0.15-0.93-0.466-1.348
							c-0.31-0.416-0.731-0.739-1.28-0.972c-0.426-0.176-1.006-0.271-1.736-0.308l1.521-3.092L-218.641-265.995L-218.641-265.995
							L-218.641-265.995z"/>
					</g>
					<g>
						<path d="M-254.148-260.975v0.832h-1.064v2.102h-0.973v-2.102h-3.361v-0.752l3.688-5.271h0.646v5.188h1.064V-260.975
							L-254.148-260.975z M-256.188-260.975v-3.949l-2.791,3.949H-256.188z"/>
					</g>
					<g>
						<path d="M-291.751-260.975v0.832h-1.067v2.102h-0.969v-2.102h-3.367v-0.752l3.69-5.271h0.646v5.188h1.067V-260.975z
							 M-293.787-260.975v-3.949l-2.792,3.949H-293.787z"/>
					</g>
					<g>
						<path d="M-322.486-260.975v0.832h-1.068v2.102h-0.967v-2.102h-3.369v-0.752l3.691-5.271h0.645v5.188h1.068V-260.975z
							 M-324.521-260.975v-3.949l-2.791,3.949H-324.521z"/>
					</g>
					<g>
						<path d="M-354.938-260.975v0.832h-1.069v2.102h-0.967v-2.102h-3.367v-0.752l3.689-5.271h0.646v5.188h1.069L-354.938-260.975
							L-354.938-260.975z M-356.973-260.975v-3.949l-2.792,3.949H-356.973z"/>
					</g>
					<g>
						<path d="M-390.823-260.975v0.832h-1.068v2.102h-0.967v-2.102h-3.367v-0.752l3.689-5.271h0.645v5.188h1.068V-260.975
							L-390.823-260.975z M-392.858-260.975v-3.949l-2.792,3.949H-392.858z"/>
					</g>
					<g>
						<path d="M-424.99-260.975v0.832h-1.067v2.102h-0.969v-2.102h-3.367v-0.752l3.69-5.271h0.646v5.188h1.067V-260.975z
							 M-427.026-260.975v-3.949l-2.792,3.949H-427.026z"/>
					</g>
					<g>
						<path d="M-81.969-265.995l-0.459,0.997h-2.396l-0.521,1.068c1.037,0.146,1.854,0.535,2.466,1.149
							c0.521,0.529,0.778,1.154,0.778,1.878c0,0.415-0.084,0.811-0.258,1.159c-0.172,0.355-0.385,0.658-0.643,0.908
							c-0.256,0.248-0.543,0.451-0.863,0.604c-0.445,0.216-0.91,0.316-1.384,0.316c-0.478,0-0.825-0.08-1.039-0.243
							c-0.218-0.159-0.325-0.341-0.325-0.534c0-0.105,0.043-0.202,0.141-0.286c0.089-0.085,0.197-0.13,0.336-0.13
							c0.104,0,0.188,0.019,0.269,0.051c0.077,0.021,0.206,0.104,0.392,0.234c0.299,0.201,0.596,0.312,0.896,0.312
							c0.459,0,0.86-0.174,1.207-0.521c0.345-0.347,0.521-0.768,0.521-1.262c0-0.479-0.15-0.93-0.465-1.348
							c-0.312-0.416-0.733-0.739-1.274-0.972c-0.431-0.176-1.011-0.271-1.745-0.308l1.523-3.092h2.854V-266h-0.004L-81.969-265.995
							L-81.969-265.995z"/>
					</g>
				</g>
				<g>
					<path d="M-540.501-219.875v-1.044h462.474v1.044H-540.501z M-540.501-205.875v-1.152h462.474v1.152H-540.501z M-540.501-191.98
						v-1.043h462.474v1.043H-540.501z M-540.501-178.086v-1.044h462.474v1.044H-540.501z M-540.501-164.191v-1.043h462.474v1.043
						H-540.501z"/>
					<path fill="#5406FF" d="M-436.6-164.262c4.669,0.055,7.25,3.242,5.767,7.14c-1.428,3.955-6.371,7.086-10.984,7.028
						c-4.612-0.053-7.193-3.295-5.712-7.191C-446.101-161.186-441.212-164.314-436.6-164.262z"/>
					<g>
						<path d="M-279.109-136.132h11.523c1.709,0,3.164,0.301,4.359,0.903c1.483,0.764,2.752,2.03,3.791,3.812
							c1.041,1.78,1.562,3.89,1.562,6.319c0,2.012-0.312,3.815-0.937,5.435c-0.477,1.237-1.199,2.317-2.184,3.243
							c-0.979,0.923-2.176,1.617-3.584,2.083c-1.054,0.339-2.465,0.515-4.224,0.515h-10.317v-1.13h2.12
							c0.538,0,0.904-0.084,1.113-0.255c0.205-0.171,0.308-0.438,0.308-0.801v-17.973c0-0.312-0.106-0.56-0.332-0.741
							c-0.223-0.188-0.528-0.275-0.921-0.275h-2.284v-1.126L-279.109-136.132L-279.109-136.132z M-271.051-135.008
							c-0.455,0-0.787,0.098-1.006,0.287c-0.217,0.188-0.323,0.478-0.323,0.854v17.812c0,0.354,0.124,0.636,0.379,0.813
							c0.252,0.188,0.681,0.278,1.284,0.278h1.902c1.696,0,3.188-0.438,4.472-1.312c0.834-0.586,1.468-1.4,1.903-2.467
							c0.594-1.429,0.892-3.396,0.892-5.916c0-3.727-0.647-6.44-1.95-8.178c-1.109-1.465-2.779-2.188-5.016-2.188L-271.051-135.008
							L-271.051-135.008z"/>
					</g>
					<path fill="#8800FF" d="M-402.874-171.209c4.667,0.057,7.249,3.238,5.765,7.141c-1.426,3.953-6.37,7.084-10.982,7.029
						c-4.614-0.055-7.195-3.295-5.712-7.193C-412.375-168.134-407.488-171.266-402.874-171.209z"/>
					<g>
						<path d="M-243.588-136.132h17.672l0.43,7.534h-1.021c-0.398-2.379-1.035-4.038-1.907-4.987
							c-0.87-0.944-2.001-1.419-3.397-1.419h-4.373c-0.353,0-0.614,0.098-0.801,0.286c-0.183,0.188-0.271,0.479-0.271,0.877v7.954
							h1.914c1.022,0,1.854-0.367,2.497-1.104c0.636-0.729,0.979-1.854,1.029-3.38h1.049v10.326h-1.049
							c-0.052-1.706-0.396-2.93-1.051-3.667c-0.646-0.738-1.525-1.104-2.645-1.104h-1.75v8.873c0,0.319,0.104,0.564,0.322,0.737
							c0.215,0.172,0.57,0.254,1.072,0.254h3.458c3.751,0,5.911-2.396,6.486-7.188h1.101l-0.38,8.312h-18.396v-1.128h1.522
							c0.597,0,1.013-0.104,1.25-0.309c0.242-0.205,0.361-0.512,0.361-0.897v-17.688c0-0.396-0.104-0.688-0.315-0.877
							c-0.214-0.188-0.541-0.285-0.992-0.285h-1.824L-243.588-136.132L-243.588-136.132z"/>
					</g>
					<path fill="#F70606" d="M-368.809-178.156c4.669,0.062,7.25,3.241,5.767,7.146c-1.428,3.952-6.371,7.084-10.984,7.021
						c-4.612-0.055-7.193-3.295-5.712-7.188C-378.312-175.081-373.421-178.21-368.809-178.156z"/>
					<g>
						<path d="M-208.756-136.132h18.154l0.295,7.723h-1.045c-0.469-2.655-1.111-4.39-1.949-5.188
							c-0.959-0.938-2.325-1.398-4.104-1.398h-3.584c-0.354,0-0.604,0.083-0.771,0.249c-0.161,0.166-0.241,0.414-0.241,0.746v8.047
							h1.917c1.068,0,1.921-0.354,2.552-1.06c0.636-0.707,0.979-1.791,1.028-3.267h1.102v10.082h-1.102
							c-0.07-1.668-0.412-2.854-1.028-3.562c-0.606-0.712-1.465-1.064-2.552-1.064H-202v8.521c0,0.505,0.121,0.854,0.361,1.062
							c0.238,0.207,0.66,0.312,1.252,0.312h2.322v1.119h-10.694v-1.129h2.286c0.466,0,0.791-0.096,0.981-0.271
							c0.194-0.188,0.294-0.493,0.294-0.915v-17.755c0-0.397-0.103-0.688-0.311-0.858c-0.204-0.173-0.562-0.255-1.076-0.255h-2.18
							L-208.756-136.132L-208.756-136.132z"/>
					</g>
					<g>
						<path d="M-160.376-133.911l1.228-2.223h1.021l0.562,8.896h-0.985c-0.751-2.562-1.642-4.416-2.66-5.562
							c-1.304-1.458-2.796-2.188-4.479-2.188c-1.291,0-2.451,0.365-3.471,1.104c-1.023,0.729-1.809,1.834-2.354,3.299
							c-0.547,1.466-0.818,3.532-0.818,6.188c0,2.58,0.271,4.604,0.818,6.062c0.55,1.456,1.306,2.521,2.268,3.218
							c0.962,0.688,2.096,1.03,3.389,1.03c1.758,0,3.115-0.492,4.076-1.479c0.96-0.979,1.438-2.252,1.438-3.811v-2.094
							c0-0.332-0.127-0.586-0.389-0.771c-0.259-0.182-0.681-0.271-1.264-0.271h-1.891v-1.045h9.354v1.045h-1.271
							c-0.562,0-0.971,0.104-1.209,0.296c-0.241,0.188-0.362,0.479-0.362,0.853v8.534h-0.992c-0.354-1.327-0.731-2.604-1.126-3.813
							c-0.753,1.229-1.652,2.159-2.688,2.777c-1.041,0.615-2.225,0.937-3.541,0.937c-1.883,0-3.619-0.481-5.229-1.446
							c-1.604-0.968-2.869-2.325-3.801-4.079c-0.93-1.758-1.396-3.736-1.396-5.95c0-2.226,0.471-4.214,1.401-5.976
							c0.933-1.76,2.212-3.153,3.833-4.191c1.619-1.029,3.258-1.55,4.917-1.55c0.944,0,1.845,0.157,2.705,0.479
							C-162.436-135.34-161.463-134.758-160.376-133.911z"/>
					</g>
					<path fill="#FFE600" d="M-299.688-192.049c4.668,0.053,7.25,3.24,5.764,7.139c-1.43,3.955-6.369,7.086-10.98,7.03
						c-4.613-0.056-7.193-3.295-5.711-7.194C-309.188-188.973-304.303-192.105-299.688-192.049z"/>
					<g>
						<path d="M-131.702-136.132h1.056l7.996,20.403c0.32,0.817,0.979,1.229,1.978,1.229h0.692v1.128h-8.901v-1.128h0.711
							c0.926,0,1.579-0.104,1.965-0.302c0.258-0.146,0.392-0.354,0.392-0.646c0-0.171-0.031-0.354-0.104-0.543l-1.844-4.729h-8.812
							l-1.053,2.712c-0.272,0.722-0.408,1.297-0.408,1.716c0,0.492,0.232,0.915,0.688,1.269c0.459,0.354,1.125,0.523,2,0.523h0.756
							v1.128h-8.104v-1.127c0.866,0,1.559-0.188,2.062-0.562c0.504-0.378,0.969-1.093,1.393-2.146L-131.702-136.132z
							 M-132.116-131.846l-3.995,9.953h7.877L-132.116-131.846z"/>
					</g>
					<path fill="#06FC1D" d="M-265.91-198.995c4.669,0.056,7.252,3.241,5.766,7.138c-1.428,3.957-6.371,7.086-10.979,7.032
						c-4.613-0.055-7.193-3.296-5.715-7.188C-275.411-195.918-270.521-199.051-265.91-198.995z"/>
					<g>
						<path d="M-106.912-136.132h11.614c2.278,0,4.021,0.502,5.235,1.506c1.211,1.006,1.812,2.265,1.812,3.783
							c0,1.266-0.422,2.338-1.264,3.225c-0.85,0.886-2.115,1.582-3.817,2.095c2.108,0.442,3.687,1.146,4.739,2.099
							c1.049,0.948,1.578,2.146,1.578,3.604c0,1.106-0.305,2.089-0.897,2.943c-0.597,0.854-1.592,1.579-2.979,2.173
							c-1.396,0.598-2.973,0.895-4.74,0.895h-11.273v-1.127h1.834c0.557,0,0.961-0.091,1.213-0.271
							c0.26-0.185,0.389-0.394,0.389-0.615v-17.887c0-0.422-0.124-0.743-0.375-0.957c-0.252-0.219-0.617-0.324-1.104-0.324h-1.96
							v-1.134h-0.002L-106.912-136.132L-106.912-136.132z M-100.29-125.891h4.238c1.301,0,2.335-0.381,3.104-1.146
							c0.771-0.761,1.156-2.009,1.156-3.739c0-1.063-0.183-1.897-0.55-2.509c-0.369-0.604-0.9-1.036-1.605-1.312
							c-0.697-0.274-1.91-0.412-3.637-0.412c-1.221,0-1.973,0.089-2.27,0.262c-0.293,0.176-0.439,0.482-0.439,0.926L-100.29-125.891
							L-100.29-125.891z M-100.29-124.764v8.604c0,0.398,0.117,0.7,0.354,0.901c0.235,0.2,0.666,0.301,1.272,0.301h2.709
							c1.793,0,3.112-0.396,3.97-1.183c0.858-0.791,1.284-2.021,1.284-3.69c0-1.521-0.438-2.729-1.325-3.605
							c-0.891-0.888-2.107-1.321-3.676-1.321L-100.29-124.764L-100.29-124.764z"/>
					</g>
					<path fill="#0000FF" d="M-231.623-206.504c4.67,0.054,7.251,3.24,5.764,7.139c-1.428,3.957-6.363,7.088-10.979,7.03
						c-4.614-0.054-7.188-3.295-5.708-7.192C-241.126-203.427-236.234-206.559-231.623-206.504z"/>
					<path fill="#F45C08" d="M-334.245-185.859c4.666,0.06,7.247,3.238,5.763,7.146c-1.428,3.953-6.373,7.087-10.981,7.022
						c-4.614-0.054-7.193-3.295-5.712-7.188C-343.748-182.787-338.861-185.918-334.245-185.859z"/>
					<path fill="#F803FF" d="M-162.758-219.838c4.667,0.057,7.248,3.238,5.764,7.141c-1.428,3.953-6.37,7.084-10.979,7.03
						c-4.614-0.056-7.192-3.297-5.711-7.192C-172.262-216.764-167.372-219.895-162.758-219.838z"/>
					<g>
						<path d="M-482.936-136.132h17.673l0.429,7.534h-1.021c-0.399-2.379-1.036-4.038-1.907-4.987
							c-0.87-0.944-2.001-1.419-3.397-1.419h-4.374c-0.352,0-0.619,0.098-0.8,0.286c-0.183,0.188-0.271,0.479-0.271,0.877v7.954
							h1.916c1.025,0,1.857-0.367,2.492-1.104c0.64-0.729,0.982-1.854,1.036-3.38h1.046v10.326h-1.046
							c-0.05-1.706-0.401-2.93-1.047-3.667c-0.65-0.738-1.532-1.104-2.648-1.104h-1.75v8.873c0,0.319,0.107,0.564,0.322,0.737
							c0.22,0.172,0.578,0.254,1.081,0.254h3.456c3.751,0,5.912-2.396,6.485-7.188h1.101l-0.377,8.312h-18.401v-1.128h1.527
							c0.593,0,1.011-0.104,1.25-0.309c0.241-0.205,0.362-0.512,0.362-0.897v-17.688c0-0.396-0.105-0.688-0.317-0.877
							c-0.211-0.188-0.543-0.285-0.995-0.285h-1.825V-136.132L-482.936-136.132z"/>
					</g>
					<path fill="#FF0000" d="M-128.756-226.785c4.666,0.062,7.249,3.241,5.766,7.146c-1.428,3.946-6.371,7.084-10.98,7.022
						c-4.611-0.055-7.19-3.296-5.711-7.188C-138.26-223.709-133.371-226.84-128.756-226.785z"/>
					<g>
						<path d="M-447.943-136.132h18.153l0.296,7.723h-1.045c-0.464-2.655-1.113-4.39-1.951-5.188
							c-0.96-0.938-2.325-1.398-4.098-1.398h-3.586c-0.352,0-0.608,0.083-0.771,0.249c-0.161,0.166-0.242,0.414-0.242,0.746v8.047
							h1.917c1.066,0,1.917-0.354,2.551-1.06c0.632-0.707,0.974-1.791,1.026-3.267h1.103v10.082h-1.101
							c-0.07-1.668-0.409-2.854-1.025-3.562c-0.61-0.712-1.467-1.064-2.551-1.064h-1.917v8.521c0,0.505,0.117,0.854,0.362,1.062
							c0.243,0.207,0.661,0.312,1.252,0.312h2.325v1.119h-10.698v-1.129h2.289c0.463,0,0.788-0.096,0.984-0.271
							c0.195-0.188,0.292-0.493,0.292-0.915v-17.755c0-0.397-0.101-0.688-0.309-0.858c-0.205-0.173-0.563-0.255-1.076-0.255h-2.18
							v-1.128h0.001L-447.943-136.132L-447.943-136.132z"/>
					</g>
					<path fill="#FF9D00" d="M-94.381-234.27c4.668,0.054,7.249,3.233,5.766,7.14c-1.429,3.953-6.371,7.084-10.98,7.028
						c-4.613-0.06-7.191-3.302-5.711-7.191C-103.887-231.193-98.997-234.325-94.381-234.27z"/>
					<g>
						<path d="M-398.451-133.911l1.229-2.223h1.019l0.563,8.896h-0.992c-0.751-2.562-1.636-4.416-2.66-5.562
							c-1.302-1.458-2.796-2.188-4.479-2.188c-1.292,0-2.452,0.365-3.469,1.104c-1.024,0.729-1.807,1.834-2.353,3.299
							c-0.545,1.466-0.821,3.532-0.821,6.188c0,2.58,0.273,4.604,0.823,6.062c0.546,1.458,1.302,2.521,2.266,3.218
							c0.962,0.688,2.093,1.03,3.389,1.03c1.757,0,3.114-0.492,4.073-1.479c0.96-0.979,1.438-2.252,1.438-3.811v-2.094
							c0-0.332-0.125-0.586-0.385-0.771c-0.256-0.182-0.681-0.271-1.262-0.271h-1.894v-1.045h9.357v1.045h-1.267
							c-0.565,0-0.969,0.104-1.21,0.296c-0.245,0.188-0.364,0.479-0.364,0.853v8.534h-0.991c-0.362-1.327-0.739-2.604-1.128-3.813
							c-0.75,1.229-1.651,2.159-2.69,2.777c-1.039,0.615-2.221,0.937-3.54,0.937c-1.88,0-3.62-0.481-5.226-1.446
							c-1.606-0.968-2.871-2.325-3.801-4.079c-0.93-1.758-1.396-3.736-1.396-5.95c0-2.226,0.466-4.214,1.399-5.976
							c0.933-1.76,2.212-3.153,3.833-4.191c1.619-1.029,3.26-1.55,4.916-1.55c0.947,0,1.845,0.157,2.705,0.479
							C-400.509-135.34-399.535-134.758-398.451-133.911z"/>
					</g>
					<path fill="#0600FF" d="M-471.589-154.73c4.667,0.062,7.249,3.24,5.766,7.146c-1.428,3.957-6.371,7.088-10.984,7.026
						c-4.614-0.059-7.192-3.301-5.71-7.188C-481.092-151.652-476.203-154.786-471.589-154.73z"/>
					<g>
						<path d="M-296.458-133.92l1.021-2.157h0.939l0.43,8.981h-1.021c-0.663-2.54-1.494-4.416-2.496-5.619
							c-1.246-1.51-2.729-2.264-4.455-2.264c-1.867,0-3.388,0.836-4.562,2.51c-1.174,1.673-1.756,4.504-1.756,8.494
							c0,3.354,0.674,5.91,2.018,7.678c1.146,1.49,2.752,2.234,4.82,2.234c1.81,0,3.326-0.578,4.549-1.74
							c1.225-1.163,2.022-2.914,2.396-5.258h1.072c-0.312,2.646-1.222,4.688-2.729,6.11c-1.506,1.435-3.408,2.146-5.699,2.146
							c-1.858,0-3.562-0.469-5.113-1.402c-1.552-0.936-2.796-2.273-3.724-4.033c-0.93-1.758-1.396-3.682-1.396-5.77
							c0-2.221,0.479-4.312,1.438-6.26c0.963-1.948,2.188-3.414,3.685-4.396c1.496-0.979,3.106-1.468,4.838-1.468
							c0.962,0,1.894,0.169,2.802,0.502C-298.503-135.299-297.521-134.723-296.458-133.92z"/>
					</g>
					<line fill="none" stroke="#000000" x1="-490.206" y1="-147.689" x2="-457.885" y2="-147.689"/>
					<g>
						<path d="M-459.241-132.574l-0.558,1.533h-4.693v-0.218c1.379-1.259,2.354-2.286,2.917-3.084
							c0.563-0.798,0.845-1.529,0.845-2.188c0-0.504-0.154-0.918-0.464-1.242c-0.309-0.321-0.679-0.479-1.108-0.479
							c-0.392,0-0.744,0.104-1.052,0.342c-0.312,0.229-0.54,0.562-0.691,1.006h-0.216c0.099-0.723,0.349-1.271,0.754-1.668
							c0.404-0.386,0.91-0.58,1.515-0.58c0.646,0,1.185,0.208,1.618,0.622c0.431,0.414,0.646,0.903,0.646,1.479
							c0,0.396-0.095,0.805-0.281,1.196c-0.289,0.644-0.759,1.312-1.408,2.021c-0.972,1.062-1.583,1.703-1.824,1.923h2.077
							c0.422,0,0.719-0.017,0.888-0.046c0.173-0.033,0.325-0.096,0.462-0.19c0.138-0.094,0.255-0.229,0.357-0.406h0.216V-132.574z"
							/>
					</g>
					<g>
						<path d="M-125.893-137.482c0.228-0.539,0.516-0.942,0.856-1.235c0.347-0.291,0.777-0.438,1.294-0.438
							c0.641,0,1.126,0.207,1.467,0.621c0.26,0.312,0.394,0.639,0.394,0.991c0,0.579-0.366,1.178-1.093,1.796
							c0.484,0.19,0.854,0.465,1.104,0.82c0.249,0.354,0.375,0.771,0.375,1.254c0,0.688-0.218,1.285-0.657,1.791
							c-0.564,0.655-1.396,0.979-2.479,0.979c-0.538,0-0.901-0.062-1.096-0.192c-0.191-0.14-0.289-0.275-0.289-0.438
							c0-0.104,0.043-0.214,0.137-0.3c0.092-0.085,0.201-0.129,0.332-0.129c0.097,0,0.197,0.018,0.298,0.047
							c0.067,0.021,0.218,0.091,0.454,0.216c0.234,0.119,0.395,0.193,0.484,0.229c0.145,0.041,0.299,0.062,0.465,0.062
							c0.396,0,0.746-0.151,1.039-0.466c0.295-0.312,0.44-0.678,0.44-1.104c0-0.312-0.063-0.604-0.202-0.896
							c-0.104-0.225-0.217-0.391-0.336-0.5c-0.169-0.155-0.396-0.3-0.688-0.427c-0.294-0.13-0.593-0.188-0.896-0.188h-0.189v-0.177
							c0.312-0.038,0.617-0.146,0.93-0.335c0.312-0.188,0.538-0.404,0.68-0.664c0.145-0.26,0.211-0.539,0.211-0.854
							c0-0.396-0.121-0.729-0.381-0.978c-0.25-0.25-0.562-0.374-0.938-0.374c-0.605,0-1.111,0.325-1.521,0.976L-125.893-137.482z"/>
					</g>
					<g>
						<path d="M-156.627-137.482c0.229-0.539,0.516-0.942,0.857-1.235c0.349-0.291,0.773-0.438,1.295-0.438
							c0.638,0,1.125,0.207,1.468,0.621c0.258,0.312,0.385,0.639,0.385,0.991c0,0.579-0.36,1.178-1.089,1.796
							c0.486,0.19,0.857,0.465,1.109,0.82c0.25,0.354,0.375,0.771,0.375,1.254c0,0.688-0.224,1.285-0.656,1.791
							c-0.572,0.655-1.398,0.979-2.482,0.979c-0.533,0-0.896-0.062-1.093-0.192c-0.196-0.14-0.292-0.275-0.292-0.438
							c0-0.104,0.046-0.214,0.139-0.3c0.098-0.085,0.204-0.129,0.329-0.129c0.104,0,0.198,0.018,0.3,0.047
							c0.065,0.021,0.224,0.091,0.453,0.216c0.234,0.119,0.397,0.193,0.487,0.229c0.146,0.041,0.3,0.062,0.465,0.062
							c0.397,0,0.745-0.151,1.039-0.466c0.296-0.312,0.444-0.678,0.444-1.104c0-0.312-0.069-0.604-0.207-0.896
							c-0.104-0.225-0.211-0.391-0.333-0.5c-0.169-0.155-0.397-0.3-0.69-0.427c-0.294-0.13-0.595-0.188-0.896-0.188h-0.188v-0.177
							c0.312-0.038,0.62-0.146,0.938-0.335c0.309-0.188,0.535-0.404,0.678-0.664c0.141-0.26,0.211-0.539,0.211-0.854
							c0-0.396-0.127-0.729-0.379-0.978c-0.253-0.248-0.566-0.374-0.943-0.374c-0.604,0-1.107,0.325-1.519,0.976L-156.627-137.482z"
							/>
					</g>
					<g>
						<path d="M-189.076-137.482c0.229-0.539,0.518-0.942,0.858-1.235c0.345-0.291,0.772-0.438,1.294-0.438
							c0.637,0,1.124,0.207,1.465,0.621c0.258,0.312,0.389,0.639,0.389,0.991c0,0.579-0.359,1.178-1.093,1.796
							c0.487,0.19,0.858,0.465,1.108,0.82c0.25,0.354,0.375,0.771,0.375,1.254c0,0.688-0.217,1.285-0.655,1.791
							c-0.569,0.655-1.397,0.979-2.479,0.979c-0.533,0-0.896-0.062-1.096-0.192c-0.188-0.14-0.29-0.275-0.29-0.438
							c0-0.104,0.048-0.214,0.142-0.3c0.093-0.085,0.199-0.129,0.326-0.129c0.104,0,0.197,0.018,0.305,0.047
							c0.062,0.021,0.218,0.091,0.449,0.216c0.233,0.119,0.396,0.193,0.484,0.229c0.146,0.041,0.301,0.062,0.465,0.062
							c0.398,0,0.747-0.151,1.04-0.466c0.294-0.312,0.442-0.678,0.442-1.104c0-0.312-0.066-0.604-0.204-0.896
							c-0.101-0.225-0.213-0.391-0.335-0.5c-0.168-0.155-0.396-0.3-0.689-0.427c-0.295-0.13-0.593-0.188-0.896-0.188h-0.188v-0.177
							c0.312-0.038,0.617-0.146,0.936-0.335c0.31-0.188,0.535-0.404,0.677-0.664s0.211-0.539,0.211-0.854
							c0-0.396-0.126-0.729-0.379-0.978c-0.251-0.25-0.562-0.374-0.938-0.374c-0.605,0-1.11,0.325-1.521,0.976L-189.076-137.482z"/>
					</g>
					<g>
						<path d="M-224.962-137.482c0.228-0.539,0.514-0.942,0.858-1.235c0.348-0.291,0.773-0.438,1.295-0.438
							c0.639,0,1.125,0.207,1.465,0.621c0.258,0.312,0.389,0.639,0.389,0.991c0,0.579-0.363,1.178-1.091,1.796
							c0.487,0.19,0.854,0.465,1.104,0.82c0.254,0.354,0.379,0.771,0.379,1.254c0,0.688-0.224,1.285-0.656,1.791
							c-0.571,0.655-1.396,0.979-2.482,0.979c-0.533,0-0.896-0.062-1.095-0.192c-0.192-0.14-0.289-0.275-0.289-0.438
							c0-0.104,0.045-0.214,0.137-0.3c0.093-0.085,0.203-0.129,0.332-0.129c0.103,0,0.196,0.018,0.3,0.047
							c0.065,0.021,0.221,0.091,0.451,0.216c0.234,0.119,0.397,0.193,0.487,0.229c0.146,0.041,0.299,0.062,0.463,0.062
							c0.397,0,0.747-0.151,1.041-0.466c0.297-0.312,0.444-0.678,0.444-1.104c0-0.312-0.07-0.604-0.206-0.896
							c-0.104-0.225-0.214-0.391-0.332-0.5c-0.171-0.155-0.399-0.3-0.694-0.427c-0.291-0.13-0.592-0.188-0.896-0.188h-0.188v-0.177
							c0.312-0.038,0.617-0.146,0.932-0.335c0.312-0.188,0.535-0.404,0.681-0.664c0.142-0.26,0.212-0.539,0.212-0.854
							c0-0.396-0.124-0.729-0.379-0.978c-0.252-0.25-0.566-0.374-0.942-0.374c-0.604,0-1.112,0.325-1.519,0.976L-224.962-137.482z"
							/>
					</g>
					<g>
						<path d="M-257.413-137.482c0.228-0.539,0.513-0.942,0.858-1.235c0.347-0.291,0.777-0.438,1.294-0.438
							c0.637,0,1.126,0.207,1.466,0.621c0.257,0.312,0.388,0.639,0.388,0.991c0,0.579-0.362,1.178-1.091,1.796
							c0.487,0.19,0.857,0.465,1.107,0.82c0.252,0.354,0.377,0.771,0.377,1.254c0,0.688-0.221,1.285-0.658,1.791
							c-0.57,0.655-1.396,0.979-2.479,0.979c-0.539,0-0.9-0.062-1.102-0.192c-0.188-0.14-0.29-0.275-0.29-0.438
							c0-0.104,0.047-0.214,0.142-0.3c0.092-0.085,0.202-0.129,0.332-0.129c0.098,0,0.193,0.018,0.299,0.047
							c0.062,0.021,0.218,0.091,0.453,0.216c0.231,0.119,0.396,0.193,0.48,0.229c0.146,0.041,0.304,0.062,0.466,0.062
							c0.396,0,0.746-0.151,1.039-0.466c0.294-0.312,0.442-0.678,0.442-1.104c0-0.312-0.066-0.604-0.202-0.896
							c-0.104-0.225-0.214-0.391-0.335-0.5c-0.17-0.155-0.396-0.3-0.688-0.427c-0.298-0.13-0.597-0.188-0.896-0.188h-0.188v-0.177
							c0.312-0.038,0.617-0.146,0.933-0.335c0.312-0.188,0.537-0.404,0.681-0.664c0.142-0.26,0.209-0.539,0.209-0.854
							c0-0.396-0.124-0.729-0.379-0.978c-0.249-0.25-0.562-0.374-0.938-0.374c-0.604,0-1.111,0.325-1.521,0.976L-257.413-137.482z"
							/>
					</g>
					<g>
						<path d="M-293.299-137.482c0.226-0.539,0.513-0.942,0.857-1.235c0.348-0.291,0.773-0.438,1.293-0.438
							c0.64,0,1.127,0.207,1.467,0.621c0.258,0.312,0.388,0.639,0.388,0.991c0,0.579-0.363,1.178-1.091,1.796
							c0.488,0.19,0.857,0.465,1.107,0.82c0.252,0.354,0.377,0.771,0.377,1.254c0,0.688-0.224,1.285-0.658,1.791
							c-0.569,0.655-1.396,0.979-2.48,0.979c-0.536,0-0.898-0.062-1.096-0.192c-0.191-0.14-0.29-0.275-0.29-0.438
							c0-0.104,0.047-0.214,0.138-0.3c0.094-0.085,0.202-0.129,0.331-0.129c0.099,0,0.198,0.018,0.3,0.047
							c0.066,0.021,0.215,0.091,0.45,0.216c0.235,0.119,0.396,0.193,0.487,0.229c0.145,0.041,0.299,0.062,0.464,0.062
							c0.397,0,0.746-0.151,1.039-0.466c0.297-0.312,0.446-0.678,0.446-1.104c0-0.312-0.07-0.604-0.207-0.896
							c-0.104-0.225-0.213-0.391-0.334-0.5c-0.168-0.155-0.397-0.3-0.692-0.427c-0.292-0.13-0.593-0.188-0.896-0.188h-0.188v-0.177
							c0.31-0.038,0.618-0.146,0.931-0.335c0.311-0.188,0.538-0.404,0.68-0.664c0.145-0.26,0.211-0.539,0.211-0.854
							c0-0.396-0.127-0.729-0.381-0.978c-0.25-0.25-0.562-0.374-0.938-0.374c-0.604,0-1.109,0.325-1.521,0.976L-293.299-137.482z"/>
					</g>
					<g>
						<path d="M-322.568-132.574l-0.559,1.533h-4.691v-0.218c1.381-1.259,2.353-2.286,2.916-3.084
							c0.562-0.798,0.844-1.529,0.844-2.188c0-0.504-0.153-0.918-0.463-1.242c-0.31-0.321-0.68-0.479-1.108-0.479
							c-0.392,0-0.742,0.104-1.054,0.342c-0.312,0.229-0.539,0.562-0.688,1.006h-0.216c0.097-0.723,0.349-1.271,0.752-1.668
							c0.403-0.386,0.91-0.58,1.517-0.58c0.645,0,1.185,0.208,1.616,0.622c0.431,0.414,0.646,0.903,0.646,1.479
							c0,0.396-0.094,0.805-0.28,1.196c-0.288,0.644-0.759,1.312-1.408,2.021c-0.972,1.062-1.582,1.703-1.823,1.923h2.077
							c0.423,0,0.72-0.017,0.888-0.046c0.174-0.033,0.326-0.096,0.463-0.19c0.139-0.094,0.256-0.229,0.356-0.406h0.216
							L-322.568-132.574L-322.568-132.574z"/>
					</g>
					<g>
						<path d="M-358.453-132.574l-0.558,1.533h-4.691v-0.218c1.379-1.259,2.353-2.286,2.915-3.084
							c0.563-0.798,0.845-1.529,0.845-2.188c0-0.504-0.154-0.918-0.462-1.242c-0.31-0.321-0.681-0.479-1.109-0.479
							c-0.391,0-0.743,0.104-1.051,0.342c-0.313,0.229-0.542,0.562-0.691,1.006h-0.216c0.097-0.723,0.349-1.271,0.752-1.668
							c0.404-0.386,0.91-0.58,1.517-0.58c0.646,0,1.183,0.208,1.616,0.622c0.431,0.414,0.647,0.903,0.647,1.479
							c0,0.396-0.094,0.805-0.282,1.196c-0.288,0.644-0.757,1.312-1.406,2.021c-0.974,1.062-1.583,1.703-1.825,1.923h2.077
							c0.422,0,0.719-0.017,0.89-0.046c0.171-0.033,0.323-0.096,0.461-0.19c0.137-0.094,0.256-0.229,0.357-0.406h0.214V-132.574
							L-358.453-132.574z"/>
					</g>
					<g>
						<path d="M-389.189-132.574l-0.558,1.533h-4.691v-0.218c1.379-1.259,2.353-2.286,2.916-3.084
							c0.562-0.798,0.843-1.529,0.843-2.188c0-0.504-0.154-0.918-0.462-1.242c-0.309-0.321-0.681-0.479-1.11-0.479
							c-0.39,0-0.742,0.104-1.051,0.342c-0.313,0.229-0.541,0.562-0.69,1.006h-0.218c0.097-0.723,0.349-1.271,0.754-1.668
							c0.402-0.386,0.909-0.58,1.515-0.58c0.646,0,1.184,0.208,1.616,0.622c0.431,0.414,0.647,0.903,0.647,1.479
							c0,0.396-0.094,0.805-0.281,1.196c-0.289,0.644-0.758,1.312-1.406,2.021c-0.974,1.062-1.583,1.703-1.825,1.923h2.077
							c0.422,0,0.719-0.017,0.89-0.046c0.171-0.033,0.324-0.096,0.461-0.19c0.138-0.094,0.256-0.229,0.357-0.406h0.216V-132.574
							L-389.189-132.574z"/>
					</g>
					<g>
						<path d="M-423.357-132.574l-0.557,1.533h-4.693v-0.218c1.379-1.259,2.353-2.286,2.917-3.084
							c0.563-0.798,0.845-1.529,0.845-2.188c0-0.504-0.156-0.918-0.464-1.242c-0.309-0.321-0.679-0.479-1.108-0.479
							c-0.392,0-0.744,0.104-1.053,0.342c-0.312,0.229-0.541,0.562-0.69,1.006h-0.216c0.099-0.723,0.349-1.271,0.754-1.668
							c0.402-0.386,0.908-0.58,1.515-0.58c0.645,0,1.185,0.208,1.617,0.622c0.431,0.414,0.647,0.903,0.647,1.479
							c0,0.396-0.096,0.805-0.282,1.196c-0.288,0.644-0.759,1.312-1.408,2.021c-0.974,1.062-1.582,1.703-1.825,1.923h2.079
							c0.42,0,0.719-0.017,0.888-0.046c0.171-0.033,0.323-0.096,0.461-0.19c0.137-0.094,0.256-0.229,0.357-0.406h0.216V-132.574z"/>
					</g>
					<g>
						<path d="M-86.572-137.482c0.229-0.539,0.518-0.942,0.857-1.235c0.349-0.291,0.777-0.438,1.294-0.438
							c0.639,0,1.127,0.207,1.469,0.621c0.257,0.312,0.386,0.639,0.386,0.991c0,0.579-0.357,1.178-1.09,1.796
							c0.487,0.19,0.858,0.465,1.107,0.82c0.252,0.354,0.377,0.771,0.377,1.254c0,0.688-0.219,1.285-0.658,1.791
							c-0.57,0.655-1.396,0.979-2.479,0.979c-0.537,0-0.898-0.062-1.1-0.192c-0.189-0.14-0.291-0.275-0.291-0.438
							c0-0.104,0.047-0.214,0.141-0.3c0.097-0.085,0.205-0.129,0.332-0.129c0.101,0,0.194,0.018,0.301,0.047
							c0.062,0.021,0.217,0.091,0.451,0.216c0.231,0.119,0.396,0.193,0.483,0.229c0.146,0.041,0.3,0.062,0.466,0.062
							c0.396,0,0.744-0.151,1.037-0.466c0.297-0.312,0.444-0.678,0.444-1.104c0-0.312-0.069-0.604-0.205-0.896
							c-0.103-0.225-0.211-0.391-0.333-0.5c-0.169-0.155-0.396-0.3-0.691-0.427c-0.293-0.13-0.594-0.188-0.896-0.188h-0.188v-0.177
							c0.312-0.038,0.619-0.146,0.936-0.335c0.309-0.188,0.538-0.404,0.679-0.664c0.142-0.26,0.21-0.539,0.21-0.854
							c0-0.396-0.126-0.729-0.379-0.978c-0.252-0.248-0.562-0.374-0.939-0.374c-0.606,0-1.11,0.325-1.521,0.976L-86.572-137.482z"/>
					</g>
					<g>
						<path d="M-369.166-136.132h1.056l7.995,20.403c0.322,0.817,0.979,1.229,1.974,1.229h0.696v1.128h-8.903v-1.128h0.71
							c0.923,0,1.579-0.104,1.962-0.302c0.26-0.146,0.392-0.354,0.392-0.646c0-0.171-0.035-0.354-0.107-0.543l-1.844-4.729h-8.809
							l-1.052,2.712c-0.273,0.722-0.407,1.297-0.407,1.716c0,0.492,0.231,0.915,0.685,1.269c0.461,0.354,1.126,0.523,2.001,0.523
							h0.756v1.128h-8.1v-1.127c0.868,0,1.554-0.188,2.056-0.562c0.505-0.378,0.969-1.093,1.395-2.146L-369.166-136.132z
							 M-369.58-131.846l-3.994,9.953h7.877L-369.58-131.846z"/>
					</g>
					<g>
						<path d="M-348.129-136.132h11.617c2.279,0,4.025,0.502,5.234,1.506c1.211,1.006,1.813,2.265,1.813,3.783
							c0,1.266-0.421,2.338-1.263,3.225c-0.844,0.886-2.114,1.582-3.819,2.095c2.11,0.442,3.685,1.146,4.741,2.099
							c1.049,0.948,1.58,2.146,1.58,3.604c0,1.106-0.303,2.089-0.898,2.943c-0.598,0.854-1.593,1.579-2.984,2.173
							c-1.39,0.598-2.967,0.895-4.738,0.895h-11.274v-1.127h1.835c0.553,0,0.96-0.091,1.213-0.271
							c0.256-0.185,0.385-0.394,0.385-0.615v-17.887c0-0.422-0.125-0.743-0.377-0.957c-0.25-0.219-0.615-0.324-1.101-0.324h-1.962
							v-1.134h-0.002V-136.132L-348.129-136.132z M-341.506-125.891h4.236c1.301,0,2.336-0.381,3.109-1.146
							c0.771-0.761,1.156-2.009,1.156-3.739c0-1.063-0.184-1.897-0.551-2.509c-0.368-0.604-0.899-1.036-1.604-1.312
							c-0.7-0.274-1.911-0.412-3.637-0.412c-1.22,0-1.976,0.089-2.271,0.262c-0.291,0.176-0.438,0.482-0.438,0.926V-125.891
							L-341.506-125.891L-341.506-125.891z M-341.506-124.764v8.604c0,0.398,0.117,0.7,0.355,0.901
							c0.237,0.2,0.664,0.301,1.276,0.301h2.708c1.793,0,3.111-0.396,3.971-1.183c0.858-0.791,1.284-2.021,1.284-3.69
							c0-1.521-0.442-2.729-1.325-3.605c-0.891-0.888-2.113-1.321-3.676-1.321L-341.506-124.764L-341.506-124.764z"/>
					</g>
					<g>
						<path fill="#6200FC" d="M-200.48-213.111c6.1,0.062,11.862,2.36,12.306,7.476c0.329,3.729-4.612,7.143-10.709,7.143
							c-6.151-0.057-11.859-2.311-12.354-7.411C-211.574-209.708-206.58-213.111-200.48-213.111z M-199.001-199.768
							c2.638,0,4.341-2.527,4.065-4.562c-0.606-4.009-1.979-7.25-5.604-7.25c-2.636,0-4.173,2.581-3.841,4.612
							C-203.775-202.952-202.623-199.768-199.001-199.768z"/>
					</g>
				</g>
				<g>
					<path id="path2070" fill="#9606F4" d="M-535.441-175.982c3.803-2.562,6.646-4.514,8.472-5.854
						c1.831-1.321,3.758-2.979,5.732-4.946c1.973-1.966,3.634-4.189,4.981-6.672c1.059-1.821,1.974-3.938,2.72-6.337
						c0.748-2.377,1.133-4.684,1.205-6.863c0-2.039-0.265-3.979-0.818-5.811c-0.531-1.854-1.445-3.36-2.745-4.584
						c-1.299-1.2-2.983-1.801-5.078-1.801c-2.021,0-3.924,0.399-5.704,1.19c-1.758,0.815-3.012,2.109-3.707,3.938
						c0,0.17-0.098,0.384-0.243,0.688c0.048,0.395,0.243,0.675,0.604,0.896c0.36,0.216,0.672,0.312,0.962,0.312
						c0.144,0,0.553-0.065,1.18-0.219c0.65-0.146,1.18-0.238,1.612-0.238c1.277,0,2.409,0.457,3.442,1.354
						c1.013,0.888,1.519,1.966,1.519,3.232c0,0.912-0.265,1.772-0.771,2.563c-0.504,0.793-1.203,1.438-2.093,1.896
						c-0.893,0.48-1.88,0.697-2.936,0.697c-1.928,0-3.563-0.578-4.913-1.754c-1.324-1.199-1.998-2.713-1.998-4.609
						c0-2.426,0.746-4.515,2.214-6.28c1.493-1.775,3.37-3.103,5.682-3.98c2.288-0.913,4.599-1.346,6.958-1.346
						c2.574,0,5.031,0.646,7.317,1.968c2.312,1.295,4.118,3.099,5.464,5.327c1.349,2.255,2.048,4.651,2.048,7.249
						c0,4.604-1.542,8.881-4.622,12.842c-3.083,3.962-6.885,7.396-11.436,10.32c-3.032,1.988-7.942,4.682-14.707,8.062
						L-535.441-175.982z M-502.003-213.113c0-0.858,0.312-1.586,0.938-2.162c0.602-0.599,1.349-0.887,2.237-0.887
						c0.771,0,1.494,0.333,2.144,0.98c0.649,0.625,0.962,1.369,0.962,2.187c0,0.863-0.335,1.604-0.962,2.208
						c-0.673,0.574-1.421,0.862-2.264,0.862c-0.89,0-1.612-0.288-2.188-0.938C-501.713-211.482-502.003-212.227-502.003-213.113z
						 M-502.003-200.537c0-0.865,0.312-1.609,0.89-2.184c0.6-0.604,1.348-0.896,2.286-0.896c0.771,0,1.47,0.312,2.144,0.959
						c0.627,0.646,0.962,1.353,0.962,2.109c0,0.938-0.313,1.684-0.914,2.281c-0.627,0.601-1.349,0.905-2.192,0.905
						c-0.938,0-1.686-0.312-2.286-0.895C-501.692-198.811-502.003-199.577-502.003-200.537z"/>
				</g>
			</g>
		</g>
	</g>
</g>
</svg>
