<?xml version="1.0" encoding="utf-8"?>
<!-- Generator: Adobe Illustrator 13.0.1, SVG Export Plug-In . SVG Version: 6.00 Build 14948)  -->
<!DOCTYPE svg PUBLIC "-//W3C//DTD SVG 1.0//EN" "http://www.w3.org/TR/2001/REC-SVG-20010904/DTD/svg10.dtd">
<svg version="1.0" id="Layer_1" xmlns="http://www.w3.org/2000/svg" xmlns:xlink="http://www.w3.org/1999/xlink" x="0px" y="0px"
	 width="500px" height="270px" viewBox="0 0 500 270" enable-background="new 0 0 500 270" xml:space="preserve">
<g id="Layer_1_2_">
	<g id="Layer_1_1_">
	</g>
	<path d="M10.499,97.123v-1.044h462.473v1.044H10.499z M10.499,111.125v-1.153h462.473v1.153H10.499z M10.499,125.02v-1.044h462.473
		v1.044H10.499z M10.499,138.914v-1.044h462.473v1.044H10.499z M10.499,152.809v-1.041h462.473v1.041H10.499z"/>
	<path fill="#00FF18" d="M143.723,139.221c4.669,0.055,7.25,3.242,5.767,7.141c-1.428,3.955-6.371,7.086-10.984,7.029
		c-4.612-0.053-7.193-3.297-5.712-7.191C134.222,142.297,139.111,139.168,143.723,139.221z"/>
	<path d="M128.852,167.887h11.524c1.709,0,3.163,0.303,4.359,0.905c1.488,0.763,2.752,2.036,3.793,3.815
		c1.039,1.781,1.562,3.887,1.562,6.318c0,2.014-0.313,3.825-0.935,5.436c-0.473,1.238-1.2,2.32-2.181,3.244
		c-0.98,0.924-2.174,1.617-3.582,2.082c-1.056,0.34-2.464,0.512-4.224,0.512h-10.316v-1.126h2.117c0.537,0,0.905-0.085,1.113-0.253
		c0.208-0.174,0.31-0.439,0.31-0.803v-17.979c0-0.312-0.11-0.562-0.332-0.748c-0.225-0.187-0.531-0.276-0.923-0.276h-2.285V167.887z
		 M136.912,169.016c-0.454,0-0.788,0.096-1.006,0.287c-0.216,0.188-0.323,0.478-0.323,0.859v17.811c0,0.36,0.125,0.637,0.377,0.819
		c0.251,0.187,0.681,0.28,1.284,0.28h1.904c1.703,0,3.191-0.438,4.471-1.312c0.836-0.584,1.47-1.404,1.904-2.463
		c0.593-1.428,0.892-3.398,0.892-5.915c0-3.724-0.649-6.45-1.949-8.18c-1.108-1.461-2.781-2.188-5.017-2.188h-2.537V169.016z"/>
	<path fill="#0C00FF" d="M178.038,132.171c4.667,0.056,7.249,3.24,5.765,7.14c-1.426,3.955-6.37,7.084-10.982,7.03
		c-4.614-0.055-7.195-3.295-5.712-7.192C168.537,135.247,173.424,132.115,178.038,132.171z"/>
	<path d="M164.401,167.887h17.672l0.429,7.536h-1.019c-0.402-2.378-1.039-4.04-1.909-4.985c-0.87-0.945-2.003-1.42-3.399-1.42
		h-4.374c-0.352,0-0.617,0.099-0.8,0.287c-0.181,0.189-0.271,0.481-0.271,0.875v7.955h1.916c1.027,0,1.857-0.367,2.495-1.101
		c0.639-0.731,0.984-1.859,1.034-3.377h1.044v10.325h-1.044c-0.05-1.707-0.4-2.928-1.049-3.666
		c-0.649-0.741-1.532-1.109-2.646-1.109h-1.75v8.873c0,0.322,0.109,0.568,0.325,0.742c0.216,0.171,0.575,0.253,1.078,0.253h3.454
		c3.753,0,5.913-2.396,6.486-7.187h1.1l-0.377,8.312H164.4v-1.126h1.523c0.593,0,1.011-0.104,1.252-0.309
		c0.24-0.207,0.362-0.506,0.362-0.897V170.18c0-0.395-0.107-0.685-0.318-0.875c-0.211-0.19-0.541-0.287-0.996-0.287H164.4
		L164.401,167.887L164.401,167.887z"/>
	<path fill="#8F00FF" d="M212.35,125.121c4.669,0.055,7.25,3.242,5.767,7.14c-1.428,3.955-6.371,7.084-10.984,7.029
		c-4.612-0.054-7.193-3.295-5.712-7.19C202.847,128.196,207.738,125.067,212.35,125.121z"/>
	<path d="M198.915,167.887h18.153l0.297,7.723h-1.046c-0.466-2.653-1.115-4.387-1.951-5.189c-0.958-0.938-2.324-1.398-4.099-1.398
		h-3.583c-0.354,0-0.608,0.082-0.772,0.248c-0.161,0.166-0.242,0.414-0.242,0.748v8.043h1.919c1.067,0,1.919-0.354,2.552-1.058
		c0.634-0.706,0.976-1.79,1.027-3.26h1.1v10.083h-1.1c-0.07-1.668-0.412-2.855-1.027-3.57c-0.613-0.712-1.466-1.066-2.552-1.066
		h-1.919v8.521c0,0.503,0.121,0.858,0.362,1.063c0.241,0.209,0.66,0.312,1.253,0.312h2.325v1.123h-10.698v-1.127h2.288
		c0.461,0,0.79-0.093,0.984-0.276c0.196-0.187,0.293-0.494,0.293-0.914v-17.758c0-0.398-0.103-0.688-0.309-0.857
		c-0.206-0.174-0.565-0.256-1.076-0.256h-2.181L198.915,167.887L198.915,167.887z"/>
	<path d="M247.76,169.114l1.229-2.222h1.021l0.562,8.901h-0.991c-0.751-2.562-1.64-4.416-2.66-5.562
		c-1.302-1.461-2.795-2.188-4.479-2.188c-1.291,0-2.449,0.367-3.471,1.104c-1.023,0.729-1.809,1.832-2.354,3.297
		c-0.547,1.465-0.819,3.531-0.819,6.188c0,2.582,0.272,4.602,0.821,6.055c0.546,1.457,1.302,2.528,2.264,3.219
		c0.965,0.686,2.096,1.029,3.391,1.029c1.756,0,3.114-0.492,4.074-1.476c0.959-0.981,1.438-2.254,1.438-3.812v-2.092
		c0-0.332-0.13-0.589-0.386-0.77c-0.258-0.18-0.68-0.271-1.262-0.271h-1.893v-1.045h9.356v1.045h-1.269
		c-0.563,0-0.969,0.102-1.211,0.295s-0.36,0.479-0.36,0.854v8.532h-0.993c-0.359-1.327-0.737-2.604-1.129-3.821
		c-0.754,1.237-1.649,2.165-2.691,2.784c-1.04,0.615-2.219,0.928-3.537,0.928c-1.88,0-3.624-0.479-5.227-1.445
		c-1.604-0.968-2.871-2.324-3.801-4.08c-0.93-1.754-1.396-3.736-1.396-5.949c0-2.223,0.468-4.213,1.401-5.973
		c0.934-1.76,2.211-3.156,3.832-4.191c1.623-1.037,3.262-1.553,4.92-1.553c0.942,0,1.844,0.158,2.705,0.477
		C245.7,167.686,246.672,168.268,247.76,169.114z"/>
	<path fill="#F70303" d="M280.975,111.023c4.668,0.054,7.25,3.24,5.764,7.138c-1.43,3.956-6.369,7.086-10.979,7.031
		c-4.612-0.055-7.192-3.295-5.712-7.195C271.473,114.098,276.357,110.966,280.975,111.023z"/>
	<path d="M276.374,167.434h1.056l7.993,20.404c0.323,0.821,0.979,1.235,1.976,1.235h0.695v1.126h-8.904v-1.126h0.711
		c0.928,0,1.578-0.101,1.967-0.302c0.259-0.144,0.393-0.355,0.393-0.646c0-0.172-0.033-0.354-0.105-0.543l-1.844-4.73h-8.812
		l-1.053,2.713c-0.272,0.725-0.408,1.3-0.408,1.718c0,0.491,0.229,0.916,0.688,1.266c0.459,0.354,1.125,0.526,2.002,0.526h0.754
		v1.128h-8.1v-1.126c0.867,0,1.555-0.188,2.061-0.562c0.502-0.379,0.966-1.095,1.392-2.147L276.374,167.434z M275.959,171.721
		l-3.996,9.951h7.877L275.959,171.721z"/>
	<path fill="#F76806" d="M315.286,103.974c4.67,0.054,7.251,3.24,5.766,7.138c-1.428,3.955-6.372,7.083-10.979,7.031
		c-4.613-0.056-7.196-3.295-5.718-7.195C305.787,107.049,310.674,103.919,315.286,103.974z"/>
	<path d="M301.104,167.887h11.614c2.279,0,4.025,0.504,5.235,1.508c1.211,1.006,1.813,2.268,1.813,3.783
		c0,1.266-0.422,2.34-1.265,3.225c-0.845,0.887-2.114,1.582-3.815,2.097c2.106,0.44,3.683,1.142,4.737,2.093
		c1.05,0.952,1.579,2.152,1.579,3.604c0,1.105-0.302,2.089-0.896,2.94c-0.6,0.856-1.595,1.581-2.981,2.177
		c-1.394,0.597-2.97,0.894-4.742,0.894h-11.274v-1.127h1.839c0.553,0,0.96-0.091,1.213-0.271c0.255-0.181,0.384-0.39,0.384-0.615
		v-17.887c0-0.425-0.124-0.744-0.377-0.959c-0.25-0.22-0.613-0.324-1.102-0.324h-1.961L301.104,167.887L301.104,167.887z
		 M307.727,178.13h4.237c1.302,0,2.336-0.38,3.108-1.14c0.771-0.76,1.155-2.01,1.155-3.742c0-1.07-0.185-1.906-0.549-2.507
		c-0.369-0.604-0.899-1.038-1.605-1.317c-0.7-0.273-1.91-0.41-3.639-0.41c-1.221,0-1.975,0.086-2.27,0.26
		c-0.292,0.18-0.438,0.482-0.438,0.927v7.932V178.13L307.727,178.13z M307.727,179.257v8.608c0,0.402,0.117,0.703,0.355,0.904
		s0.664,0.301,1.277,0.301h2.707c1.793,0,3.112-0.391,3.972-1.182c0.858-0.791,1.282-2.021,1.282-3.691
		c0-1.529-0.441-2.734-1.324-3.615c-0.891-0.881-2.111-1.322-3.676-1.322L307.727,179.257L307.727,179.257z"/>
	<path fill="#F7F006" d="M349.596,96.925c4.67,0.053,7.252,3.24,5.767,7.138c-1.429,3.956-6.367,7.084-10.982,7.031
		c-4.612-0.055-7.188-3.295-5.708-7.195C340.092,100,344.983,96.869,349.596,96.925z"/>
	<path d="M351.745,169.08l1.021-2.157h0.938l0.429,8.981h-1.019c-0.664-2.541-1.495-4.416-2.498-5.62
		c-1.243-1.511-2.729-2.263-4.454-2.263c-1.867,0-3.388,0.836-4.562,2.509c-1.175,1.672-1.756,4.503-1.756,8.493
		c0,3.354,0.675,5.912,2.021,7.679c1.146,1.491,2.752,2.235,4.817,2.235c1.81,0,3.326-0.58,4.55-1.742
		c1.225-1.161,2.022-2.913,2.396-5.258h1.072c-0.312,2.652-1.223,4.689-2.729,6.119c-1.508,1.428-3.409,2.139-5.698,2.139
		c-1.857,0-3.563-0.467-5.114-1.401c-1.555-0.937-2.795-2.278-3.726-4.034c-0.93-1.757-1.396-3.681-1.396-5.769
		c0-2.222,0.479-4.308,1.438-6.259c0.964-1.948,2.188-3.414,3.687-4.397c1.495-0.979,3.104-1.468,4.835-1.468
		c0.964,0,1.896,0.169,2.805,0.502C349.7,167.701,350.683,168.277,351.745,169.08z"/>
	<path fill="#00FF00" d="M383.909,89.876c4.666,0.056,7.247,3.242,5.762,7.14c-1.426,3.954-6.372,7.084-10.979,7.029
		c-4.614-0.054-7.193-3.295-5.712-7.193C374.406,92.953,379.293,89.821,383.909,89.876z"/>
	<path d="M369.068,167.885h11.522c1.708,0,3.164,0.303,4.361,0.905c1.485,0.763,2.753,2.037,3.792,3.815
		c1.039,1.777,1.559,3.888,1.559,6.318c0,2.014-0.312,3.825-0.935,5.436c-0.472,1.238-1.198,2.32-2.183,3.246
		c-0.979,0.922-2.178,1.615-3.584,2.08c-1.055,0.342-2.466,0.514-4.224,0.514h-10.319v-1.126h2.118c0.535,0,0.903-0.085,1.111-0.255
		c0.205-0.174,0.309-0.438,0.309-0.799v-17.98c0-0.312-0.105-0.559-0.33-0.746c-0.223-0.186-0.528-0.279-0.924-0.279h-2.284
		L369.068,167.885L369.068,167.885z M377.13,169.014c-0.456,0-0.788,0.096-1.006,0.286c-0.217,0.188-0.323,0.476-0.323,0.86v17.809
		c0,0.361,0.125,0.637,0.378,0.821c0.252,0.187,0.684,0.28,1.284,0.28h1.902c1.703,0,3.189-0.438,4.474-1.312
		c0.834-0.584,1.466-1.404,1.898-2.463c0.597-1.428,0.895-3.398,0.895-5.914c0-3.724-0.646-6.451-1.948-8.181
		c-1.105-1.461-2.779-2.187-5.019-2.187H377.13L377.13,169.014z"/>
	<path fill="#1206FF" d="M418.217,82.828c4.667,0.056,7.248,3.24,5.769,7.14c-1.432,3.954-6.371,7.084-10.985,7.029
		c-4.612-0.055-7.189-3.295-5.71-7.193C408.714,85.903,413.603,82.772,418.217,82.828z"/>
	<path d="M404.617,167.887h17.674l0.429,7.536h-1.021c-0.4-2.378-1.036-4.04-1.907-4.985c-0.87-0.945-2.001-1.42-3.397-1.42h-4.371
		c-0.354,0-0.619,0.099-0.805,0.287c-0.181,0.189-0.27,0.481-0.27,0.875v7.955h1.914c1.024,0,1.854-0.367,2.494-1.101
		c0.64-0.731,0.979-1.859,1.032-3.377h1.044v10.325h-1.044c-0.05-1.707-0.397-2.928-1.047-3.666
		c-0.647-0.741-1.532-1.109-2.646-1.109h-1.748v8.873c0,0.322,0.104,0.568,0.322,0.742c0.219,0.171,0.575,0.253,1.077,0.253h3.456
		c3.751,0,5.911-2.396,6.484-7.187h1.102l-0.379,8.312h-18.396v-1.126h1.524c0.596,0,1.013-0.104,1.25-0.309
		c0.241-0.207,0.362-0.506,0.362-0.897V170.18c0-0.395-0.104-0.685-0.315-0.875c-0.213-0.19-0.543-0.287-0.994-0.287h-1.825
		L404.617,167.887L404.617,167.887z"/>
	<path fill="#F7E608" d="M109.411,146.27c4.667,0.056,7.249,3.24,5.766,7.14c-1.428,3.957-6.371,7.088-10.984,7.028
		c-4.614-0.054-7.192-3.295-5.71-7.19C99.908,149.348,104.797,146.214,109.411,146.27z"/>
	<path d="M111.53,169.08l1.022-2.157h0.938l0.429,8.981H112.9c-0.666-2.541-1.495-4.416-2.498-5.62
		c-1.247-1.511-2.73-2.263-4.456-2.263c-1.867,0-3.387,0.836-4.561,2.509c-1.175,1.672-1.758,4.503-1.758,8.493
		c0,3.354,0.676,5.912,2.018,7.679c1.146,1.491,2.753,2.235,4.822,2.235c1.809,0,3.325-0.58,4.549-1.742
		c1.223-1.161,2.024-2.913,2.396-5.258h1.073c-0.312,2.652-1.22,4.689-2.729,6.119c-1.508,1.428-3.409,2.139-5.698,2.139
		c-1.86,0-3.565-0.467-5.117-1.401c-1.55-0.937-2.795-2.278-3.724-4.034c-0.929-1.757-1.395-3.681-1.395-5.769
		c0-2.222,0.479-4.308,1.438-6.259c0.96-1.948,2.187-3.414,3.684-4.397c1.494-0.979,3.107-1.468,4.835-1.468
		c0.963,0,1.896,0.169,2.8,0.502C109.485,167.701,110.468,168.277,111.53,169.08z"/>
	<path d="M119.841,169.025v0.832h-1.067v2.102h-0.969v-2.102h-3.367v-0.752l3.691-5.27h0.645v5.188h1.067V169.025z M117.804,169.025
		v-3.949l-2.792,3.949H117.804z"/>
	<path d="M428.696,164.005l-0.461,0.997h-2.396l-0.521,1.068c1.035,0.152,1.855,0.535,2.463,1.156
		c0.521,0.528,0.777,1.153,0.777,1.877c0,0.416-0.084,0.805-0.255,1.16c-0.171,0.354-0.384,0.657-0.643,0.907
		c-0.256,0.248-0.543,0.451-0.863,0.604c-0.449,0.216-0.908,0.322-1.384,0.322c-0.477,0-0.823-0.08-1.038-0.244
		c-0.219-0.162-0.326-0.34-0.326-0.537c0-0.107,0.045-0.205,0.139-0.289c0.089-0.084,0.199-0.127,0.338-0.127
		c0.103,0,0.188,0.017,0.267,0.049c0.077,0.027,0.206,0.107,0.391,0.238c0.298,0.203,0.595,0.308,0.895,0.308
		c0.461,0,0.861-0.175,1.207-0.521c0.345-0.348,0.52-0.769,0.52-1.263c0-0.481-0.151-0.93-0.464-1.348
		c-0.311-0.416-0.733-0.739-1.276-0.968c-0.429-0.174-1.01-0.275-1.743-0.306l1.522-3.092L428.696,164.005L428.696,164.005
		L428.696,164.005z"/>
	<path d="M394.528,164.005l-0.458,0.997h-2.396l-0.521,1.068c1.036,0.152,1.855,0.535,2.464,1.156
		c0.521,0.528,0.781,1.153,0.781,1.877c0,0.416-0.089,0.805-0.256,1.16c-0.173,0.354-0.388,0.657-0.645,0.907
		c-0.258,0.248-0.544,0.451-0.861,0.604c-0.447,0.216-0.911,0.322-1.386,0.322s-0.823-0.08-1.039-0.244
		c-0.218-0.162-0.327-0.34-0.327-0.537c0-0.107,0.047-0.205,0.139-0.289c0.089-0.084,0.2-0.127,0.341-0.127
		c0.101,0,0.188,0.017,0.267,0.049c0.077,0.029,0.204,0.107,0.393,0.238c0.294,0.203,0.591,0.308,0.893,0.308
		c0.459,0,0.859-0.175,1.205-0.521c0.347-0.348,0.521-0.769,0.521-1.263c0-0.481-0.152-0.93-0.466-1.348
		c-0.309-0.416-0.731-0.739-1.274-0.968c-0.43-0.174-1.012-0.275-1.742-0.306l1.521-3.092h2.854V164h-0.004v0.005H394.528z"/>
	<path d="M360.359,164.005l-0.457,0.997h-2.396l-0.521,1.068c1.038,0.152,1.854,0.535,2.466,1.156
		c0.52,0.528,0.777,1.153,0.777,1.877c0,0.416-0.088,0.805-0.256,1.16c-0.173,0.354-0.386,0.657-0.642,0.907
		c-0.259,0.248-0.547,0.451-0.863,0.604c-0.452,0.216-0.91,0.322-1.386,0.322c-0.477,0-0.823-0.08-1.039-0.244
		c-0.219-0.162-0.325-0.34-0.325-0.537c0-0.107,0.043-0.205,0.136-0.289s0.202-0.127,0.341-0.127c0.103,0,0.188,0.017,0.267,0.049
		c0.077,0.029,0.208,0.107,0.391,0.238c0.293,0.203,0.595,0.308,0.896,0.308c0.457,0,0.859-0.175,1.203-0.521
		c0.347-0.348,0.521-0.769,0.521-1.263c0-0.481-0.151-0.93-0.465-1.348c-0.31-0.416-0.732-0.739-1.28-0.968
		c-0.426-0.174-1.006-0.275-1.738-0.306l1.522-3.092L360.359,164.005L360.359,164.005L360.359,164.005z"/>
	<path d="M324.852,169.025v0.832h-1.066v2.102h-0.97v-2.102h-3.364v-0.752l3.688-5.27h0.646v5.188h1.066V169.025L324.852,169.025z
		 M322.812,169.025v-3.949l-2.791,3.949H322.812z"/>
	<path d="M287.249,169.025v0.832h-1.067v2.102h-0.969v-2.102h-3.367v-0.752l3.69-5.27h0.646v5.188h1.067V169.025z M285.213,169.025
		v-3.949l-2.792,3.949H285.213z"/>
	<path d="M256.514,169.025v0.832h-1.068v2.102h-0.967v-2.102h-3.369v-0.752l3.691-5.27h0.645v5.188h1.068V169.025z M254.479,169.025
		v-3.949l-2.791,3.949H254.479z"/>
	<path d="M224.062,169.025v0.832h-1.069v2.102h-0.967v-2.102h-3.367v-0.752l3.689-5.27h0.646v5.188h1.069L224.062,169.025
		L224.062,169.025z M222.027,169.025v-3.949l-2.792,3.949H222.027z"/>
	<path d="M188.177,169.025v0.832h-1.068v2.102h-0.967v-2.102h-3.367v-0.752l3.689-5.27h0.645v5.188h1.068V169.025z M186.142,169.025
		v-3.949l-2.792,3.949H186.142z"/>
	<path d="M154.01,169.025v0.832h-1.067v2.102h-0.969v-2.102h-3.367v-0.752l3.69-5.27h0.646v5.188h1.067V169.025z M151.974,169.025
		v-3.949l-2.792,3.949H151.974z"/>
	<path fill="#F70303" d="M246.662,118.072c4.668,0.054,7.25,3.24,5.764,7.138c-1.43,3.957-6.369,7.086-10.98,7.032
		c-4.613-0.056-7.193-3.295-5.711-7.196C237.162,121.146,242.046,118.015,246.662,118.072z"/>
</g>
<g id="Layer_2">
</g>
<g id="Layer_3">
	<g id="layer1_2_">
		<g id="g2972_2_" transform="matrix(1,0,0,1.030698,-309.364,-543.8647)">
			<path id="path2974_2_" d="M379.227,695.393c-0.357,5.55-3.457,11.207-8.833,13.276c-4.607,1.706-10.416,1.963-14.419-1.281
				c-2.996-2.217-4.142-7.26-1.007-9.867c2.994-2.837,8.753-0.278,8.407,3.894c1.176,2.865-4.911,4.626-1.711,6.629
				c3.681,0.96,7.434-2.047,8.379-5.54c1.374-5.016,1.299-10.426,0.096-15.469c-0.646-2.483-2.182-6.347-5.465-5.342
				c-4.297,1-6.708,5.246-8.061,9.105c-0.783-5.472-4.223-10.203-8.179-13.893c0,10.99,0,21.981,0,32.966l-2.461,0.016
				c0-22.588,0-45.631,0-68.216l2.461-0.001c0,10.834,0,22.116,0,32.95c3.923-3.635,7.378-8.289,8.12-13.715
				c1.417,4.047,4.161,8.514,8.793,9.143c3.407,0.187,4.382-3.966,5.061-6.556c0.893-4.891,0.989-10.089-0.561-14.855
				c-1.107-3.354-4.75-6.096-8.341-5.198c-2.903,2.115,2.821,3.644,1.854,6.368c0.618,3.916-4.227,6.976-7.565,4.945
				c-3.617-1.978-3.353-7.309-0.566-9.884c1.897-1.959,5.507-3.226,8.15-3.204c2.698,0.021,4.272,0.221,6.687,1.063
				c5.404,1.927,8.671,7.482,9.116,13.019c0.813,6.277-2.698,13.126-8.613,15.607c-3.849,1.491-8.3,0.2-11.25-2.538
				c-0.482,2.749-1.708,5.368-3.224,7.267c1.226,1.999,2.551,5.213,3.227,6.312c3.695-3.365,10.223-3.769,14.069-0.435
				C377.306,685.177,379.749,690.291,379.227,695.393z"/>
		</g>
		<g id="g2976_2_" transform="matrix(1,0,0,1.030928,-309.364,-543.9805)">
			<path id="path2978_2_" d="M340.698,709.859h-8v-68.223h8V709.859z"/>
		</g>
	</g>
</g>
</svg>
