<?xml version="1.0" encoding="utf-8"?>
<!-- Generator: Adobe Illustrator 13.0.1, SVG Export Plug-In . SVG Version: 6.00 Build 14948)  -->
<!DOCTYPE svg PUBLIC "-//W3C//DTD SVG 1.0//EN" "http://www.w3.org/TR/2001/REC-SVG-20010904/DTD/svg10.dtd">
<svg version="1.0" id="Layer_1" xmlns="http://www.w3.org/2000/svg" xmlns:xlink="http://www.w3.org/1999/xlink" x="0px" y="0px"
	 width="500px" height="270px" viewBox="0 0 500 270" enable-background="new 0 0 500 270" xml:space="preserve">
<g id="Layer_1_2_">
	<g id="Layer_1_1_">
	</g>
	<path d="M10.499,111.123v-1.044h462.473v1.044H10.499z M10.499,125.125v-1.153h462.473v1.153H10.499z M10.499,139.02v-1.043
		h462.473v1.043H10.499z M10.499,152.914v-1.044h462.473v1.044H10.499z M10.499,166.809v-1.041h462.473v1.041H10.499z"/>
	<g>
		<path fill="#00FF18" d="M261.879,110c4.669,0.055,7.25,3.242,5.768,7.141c-1.429,3.955-6.371,7.086-10.984,7.028
			c-4.612-0.052-7.193-3.296-5.712-7.19C252.378,113.076,257.268,109.947,261.879,110z"/>
		<path fill="#0C00FF" d="M297.001,102.32c4.667,0.056,7.249,3.241,5.767,7.14c-1.428,3.954-6.371,7.084-10.982,7.03
			c-4.614-0.055-7.195-3.295-5.712-7.192C287.5,105.396,292.389,102.265,297.001,102.32z"/>
		<path fill="#8F00FF" d="M335.12,94.641c4.669,0.055,7.25,3.242,5.767,7.14c-1.428,3.955-6.371,7.084-10.984,7.029
			c-4.611-0.054-7.192-3.295-5.711-7.19C325.617,97.717,330.508,94.587,335.12,94.641z"/>
		<path fill="#F7E608" d="M226.76,116.68c4.667,0.055,7.249,3.239,5.766,7.139c-1.428,3.957-6.371,7.088-10.984,7.029
			c-4.614-0.055-7.192-3.296-5.71-7.191C217.257,119.757,222.146,116.623,226.76,116.68z"/>
		<path fill="#F70303" d="M196.641,124.357c4.668,0.053,7.25,3.238,5.764,7.137c-1.43,3.957-6.369,7.086-10.979,7.031
			c-4.613-0.055-7.193-3.295-5.712-7.195C187.14,127.432,192.024,124.3,196.641,124.357z"/>
		<path fill="#8F00FF" d="M159.12,137.641c4.669,0.055,7.25,3.242,5.767,7.141c-1.428,3.955-6.371,7.084-10.984,7.029
			c-4.611-0.054-7.192-3.295-5.711-7.19C149.617,140.717,154.508,137.587,159.12,137.641z"/>
		<path fill="#00FF18" d="M121.879,153c4.669,0.055,7.25,3.242,5.768,7.141c-1.429,3.955-6.371,7.086-10.984,7.028
			c-4.612-0.052-7.193-3.296-5.712-7.19C112.378,156.076,117.267,152.947,121.879,153z"/>
	</g>
	<g>
		<g>
			<path d="M232.123,180.08l1.022-2.157h0.938l0.429,8.981h-1.019c-0.666-2.541-1.495-4.416-2.498-5.62
				c-1.247-1.511-2.73-2.263-4.456-2.263c-1.867,0-3.387,0.836-4.561,2.509c-1.175,1.672-1.758,4.503-1.758,8.493
				c0,3.354,0.676,5.912,2.018,7.679c1.146,1.491,2.753,2.235,4.822,2.235c1.809,0,3.325-0.58,4.549-1.742
				c1.223-1.161,2.024-2.913,2.396-5.258h1.073c-0.312,2.652-1.22,4.689-2.729,6.119c-1.508,1.428-3.409,2.139-5.698,2.139
				c-1.86,0-3.565-0.467-5.117-1.401c-1.55-0.937-2.795-2.278-3.724-4.034c-0.929-1.757-1.395-3.681-1.395-5.769
				c0-2.222,0.479-4.308,1.438-6.259c0.96-1.948,2.187-3.414,3.684-4.397c1.494-0.979,3.107-1.468,4.835-1.468
				c0.963,0,1.896,0.169,2.8,0.502C230.078,178.701,231.061,179.277,232.123,180.08z"/>
			<path d="M240.434,180.025v0.832h-1.067v2.102h-0.969v-2.102h-3.367v-0.752l3.691-5.27h0.645v5.188h1.067V180.025z
				 M238.397,180.025v-3.949l-2.792,3.949H238.397z"/>
		</g>
		<g>
			<path d="M323.915,178.887h18.153l0.297,7.723h-1.047c-0.465-2.653-1.114-4.387-1.95-5.189c-0.958-0.938-2.324-1.398-4.099-1.398
				h-3.584c-0.354,0-0.607,0.082-0.771,0.248c-0.161,0.166-0.242,0.414-0.242,0.748v8.043h1.919c1.067,0,1.919-0.354,2.552-1.058
				c0.635-0.706,0.977-1.79,1.027-3.26h1.1v10.083h-1.1c-0.07-1.668-0.412-2.855-1.027-3.57c-0.613-0.712-1.466-1.066-2.552-1.066
				h-1.919v8.521c0,0.503,0.121,0.858,0.362,1.063c0.241,0.209,0.659,0.312,1.253,0.312h2.324v1.123h-10.697v-1.127h2.288
				c0.461,0,0.79-0.093,0.983-0.276c0.196-0.187,0.293-0.494,0.293-0.914v-17.758c0-0.398-0.103-0.688-0.309-0.857
				c-0.206-0.174-0.564-0.256-1.076-0.256h-2.181L323.915,178.887L323.915,178.887z"/>
			<path d="M349.062,180.025v0.832h-1.069v2.102h-0.968v-2.102h-3.366v-0.752l3.688-5.27h0.646v5.188h1.067v0.002H349.062z
				 M347.027,180.025v-3.949l-2.793,3.949H347.027z"/>
		</g>
		<g>
			<path d="M288.622,178.887h17.673l0.429,7.536h-1.02c-0.401-2.378-1.039-4.04-1.908-4.985c-0.87-0.945-2.004-1.42-3.399-1.42
				h-4.374c-0.352,0-0.617,0.099-0.8,0.287c-0.181,0.189-0.271,0.481-0.271,0.875v7.955h1.916c1.026,0,1.856-0.367,2.494-1.101
				c0.639-0.731,0.984-1.859,1.034-3.377h1.044v10.325h-1.044c-0.05-1.707-0.399-2.928-1.049-3.666
				c-0.649-0.741-1.532-1.109-2.646-1.109h-1.75v8.873c0,0.322,0.108,0.568,0.324,0.742c0.217,0.171,0.575,0.253,1.078,0.253h3.454
				c3.753,0,5.913-2.396,6.486-7.187h1.1l-0.377,8.312h-18.396v-1.126h1.522c0.593,0,1.011-0.104,1.252-0.309
				c0.24-0.207,0.362-0.506,0.362-0.897V181.18c0-0.395-0.107-0.685-0.318-0.875s-0.541-0.287-0.996-0.287h-1.822V178.887
				L288.622,178.887z"/>
			<path d="M312.398,180.025v0.832h-1.067v2.102h-0.967v-2.102h-3.367v-0.752l3.688-5.27h0.646v5.188h1.067V180.025z
				 M310.364,180.025v-3.949l-2.793,3.949H310.364z"/>
		</g>
		<g>
			<path d="M251.949,178.887h11.523c1.709,0,3.163,0.303,4.358,0.905c1.488,0.763,2.752,2.036,3.793,3.815
				c1.039,1.781,1.562,3.887,1.562,6.318c0,2.014-0.312,3.825-0.936,5.436c-0.473,1.238-1.199,2.32-2.18,3.244
				s-2.175,1.617-3.582,2.082c-1.057,0.34-2.465,0.512-4.225,0.512h-10.315v-1.126h2.117c0.536,0,0.904-0.085,1.112-0.253
				c0.208-0.174,0.311-0.439,0.311-0.803v-17.979c0-0.312-0.11-0.562-0.332-0.748c-0.226-0.187-0.531-0.276-0.923-0.276h-2.285
				V178.887z M260.009,180.016c-0.454,0-0.788,0.096-1.006,0.287c-0.216,0.188-0.323,0.478-0.323,0.859v17.811
				c0,0.36,0.125,0.637,0.377,0.819c0.251,0.187,0.682,0.28,1.284,0.28h1.904c1.703,0,3.19-0.438,4.471-1.312
				c0.836-0.584,1.47-1.404,1.904-2.463c0.593-1.428,0.892-3.398,0.892-5.915c0-3.724-0.649-6.45-1.949-8.18
				c-1.108-1.461-2.78-2.188-5.017-2.188h-2.537V180.016z"/>
			<path d="M277.106,180.025v0.832h-1.066v2.102h-0.969v-2.102h-3.367v-0.752l3.689-5.27h0.646v5.188h1.066V180.025z
				 M275.071,180.025v-3.949l-2.793,3.949H275.071z"/>
		</g>
		<g>
			<path d="M193.18,178.1h1.056l7.993,20.404c0.323,0.822,0.979,1.236,1.976,1.236h0.695v1.125h-8.904v-1.125h0.711
				c0.927,0,1.578-0.102,1.966-0.303c0.259-0.144,0.393-0.355,0.393-0.646c0-0.172-0.034-0.354-0.106-0.543l-1.844-4.73h-8.811
				l-1.053,2.713c-0.272,0.726-0.408,1.299-0.408,1.718c0,0.491,0.229,0.916,0.688,1.266c0.459,0.354,1.125,0.527,2.002,0.527h0.754
				v1.127h-8.099v-1.125c0.867,0,1.554-0.188,2.06-0.562c0.502-0.38,0.966-1.095,1.392-2.148L193.18,178.1z M192.764,182.387
				l-3.996,9.951h7.877L192.764,182.387z"/>
			<path d="M204.055,179.691v0.832h-1.067v2.102h-0.969v-2.102h-3.367v-0.752l3.69-5.269h0.646v5.187h1.067V179.691z
				 M202.018,179.691v-3.949l-2.792,3.949H202.018z"/>
		</g>
		<g>
			<path d="M145.526,176.369h18.153l0.297,7.723h-1.047c-0.465-2.653-1.114-4.387-1.95-5.189c-0.958-0.938-2.324-1.398-4.099-1.398
				h-3.584c-0.354,0-0.607,0.082-0.771,0.248c-0.161,0.166-0.242,0.414-0.242,0.748v8.043h1.919c1.067,0,1.919-0.354,2.552-1.058
				c0.635-0.706,0.977-1.79,1.027-3.26h1.1v10.083h-1.1c-0.07-1.668-0.412-2.855-1.027-3.57c-0.613-0.712-1.466-1.066-2.552-1.066
				h-1.919v8.521c0,0.503,0.121,0.858,0.362,1.063c0.241,0.209,0.659,0.312,1.253,0.312h2.324v1.123h-10.697v-1.127h2.288
				c0.461,0,0.79-0.093,0.983-0.276c0.196-0.187,0.293-0.494,0.293-0.914v-17.758c0-0.398-0.103-0.688-0.309-0.857
				c-0.206-0.174-0.564-0.256-1.076-0.256h-2.181L145.526,176.369L145.526,176.369z"/>
			<path d="M170.674,177.508v0.832h-1.069v2.102h-0.968v-2.102h-3.366v-0.752l3.688-5.27h0.646v5.188h1.067v0.002H170.674z
				 M168.639,177.508v-3.949l-2.793,3.949H168.639z"/>
		</g>
		<g>
			<path d="M108.852,175.887h11.524c1.709,0,3.163,0.303,4.358,0.905c1.488,0.763,2.752,2.036,3.793,3.815
				c1.039,1.781,1.562,3.887,1.562,6.318c0,2.014-0.312,3.825-0.936,5.436c-0.473,1.238-1.199,2.32-2.18,3.244
				s-2.175,1.617-3.582,2.082c-1.057,0.34-2.464,0.512-4.225,0.512h-10.316v-1.126h2.117c0.537,0,0.905-0.085,1.113-0.253
				c0.208-0.174,0.31-0.439,0.31-0.803v-17.979c0-0.312-0.11-0.562-0.332-0.748c-0.225-0.187-0.531-0.276-0.923-0.276h-2.285
				V175.887z M116.912,177.016c-0.454,0-0.788,0.096-1.006,0.287c-0.216,0.188-0.323,0.478-0.323,0.859v17.811
				c0,0.36,0.125,0.637,0.377,0.819c0.251,0.187,0.681,0.28,1.284,0.28h1.904c1.703,0,3.191-0.438,4.471-1.312
				c0.836-0.584,1.47-1.404,1.904-2.463c0.593-1.428,0.892-3.398,0.892-5.915c0-3.724-0.649-6.45-1.949-8.18
				c-1.108-1.461-2.781-2.188-5.017-2.188h-2.537V177.016z"/>
			<path d="M134.01,177.025v0.832h-1.066v2.102h-0.969v-2.102h-3.367v-0.752l3.689-5.27h0.646v5.188h1.066V177.025z
				 M131.975,177.025v-3.949l-2.793,3.949H131.975z"/>
		</g>
	</g>
</g>
<g id="Layer_2">
</g>
<g id="Layer_3">
	<g id="layer1_2_">
		<g id="g2972_2_" transform="matrix(1,0,0,1.030698,-309.364,-543.8647)">
			<path id="path2974_2_" d="M379.227,668.227c-0.357,5.55-3.457,11.207-8.833,13.276c-4.607,1.705-10.416,1.963-14.419-1.281
				c-2.996-2.217-4.142-7.26-1.007-9.867c2.994-2.837,8.753-0.278,8.407,3.894c1.176,2.865-4.911,4.626-1.711,6.63
				c3.681,0.96,7.434-2.047,8.379-5.54c1.374-5.016,1.299-10.426,0.096-15.469c-0.646-2.483-2.182-6.347-5.465-5.342
				c-4.297,1-6.708,5.246-8.061,9.105c-0.783-5.472-4.223-10.203-8.179-13.893c0,10.99,0,21.981,0,32.966l-2.461,0.016
				c0-22.588,0-45.631,0-68.216l2.461-0.001c0,10.834,0,22.116,0,32.95c3.923-3.635,7.378-8.289,8.12-13.715
				c1.417,4.047,4.161,8.514,8.793,9.143c3.407,0.187,4.382-3.966,5.061-6.556c0.893-4.891,0.989-10.089-0.561-14.855
				c-1.107-3.354-4.75-6.097-8.341-5.198c-2.903,2.115,2.821,3.644,1.854,6.368c0.618,3.916-4.227,6.976-7.565,4.945
				c-3.617-1.978-3.353-7.309-0.566-9.884c1.897-1.959,5.507-3.226,8.15-3.204c2.698,0.021,4.272,0.221,6.687,1.063
				c5.404,1.927,8.671,7.482,9.116,13.019c0.813,6.277-2.698,13.126-8.613,15.607c-3.849,1.491-8.3,0.2-11.25-2.538
				c-0.482,2.749-1.708,5.368-3.224,7.267c1.226,1.999,2.551,5.213,3.227,6.312c3.695-3.365,10.223-3.769,14.069-0.435
				C377.306,658.011,379.749,663.125,379.227,668.227z"/>
		</g>
		<g id="g2976_2_" transform="matrix(1,0,0,1.030928,-309.364,-543.9805)">
			<path id="path2978_2_" d="M340.698,682.699h-8v-68.223h8V682.699z"/>
		</g>
	</g>
</g>
</svg>
